<?xml version="1.0" encoding="UTF-8" standalone="no"?>
<!-- Generator: Adobe Illustrator 15.0.2, SVG Export Plug-In . SVG Version: 6.00 Build 0)  -->

<svg
   xmlns:dc="http://purl.org/dc/elements/1.1/"
   xmlns:cc="http://creativecommons.org/ns#"
   xmlns:rdf="http://www.w3.org/1999/02/22-rdf-syntax-ns#"
   xmlns:svg="http://www.w3.org/2000/svg"
   xmlns="http://www.w3.org/2000/svg"
   xmlns:sodipodi="http://sodipodi.sourceforge.net/DTD/sodipodi-0.dtd"
   xmlns:inkscape="http://www.inkscape.org/namespaces/inkscape"
   version="1.1"
   id="Capa_1"
   x="0px"
   y="0px"
   width="167.61818"
   height="214.74545"
   viewBox="0 0 442.1652 566.928"
   enable-background="new 0 0 612 792"
   xml:space="preserve"
   inkscape:version="0.48.2 r9819"
   sodipodi:docname="Atlético Madrid.svg"><metadata
   id="metadata63"><rdf:RDF><cc:Work
       rdf:about=""><dc:format>image/svg+xml</dc:format><dc:type
         rdf:resource="http://purl.org/dc/dcmitype/StillImage" /></cc:Work></rdf:RDF></metadata><defs
   id="defs61" /><sodipodi:namedview
   pagecolor="#ffffff"
   bordercolor="#666666"
   borderopacity="1"
   objecttolerance="10"
   gridtolerance="10"
   guidetolerance="10"
   inkscape:pageopacity="0"
   inkscape:pageshadow="2"
   inkscape:window-width="1280"
   inkscape:window-height="962"
   id="namedview59"
   showgrid="false"
   fit-margin-top="0"
   fit-margin-left="0"
   fit-margin-right="0"
   fit-margin-bottom="0"
   inkscape:zoom="3.4599103"
   inkscape:cx="83.80909"
   inkscape:cy="107.37273"
   inkscape:window-x="-8"
   inkscape:window-y="-8"
   inkscape:window-maximized="1"
   inkscape:current-layer="Capa_1" />
<path
   d="m -0.24,359.136 c 0,25.056 11.736,48.456 31.536,63.576 l 189.72,144.216 189.72,-144.216 c 19.8,-15.12 31.536,-38.52 31.536,-63.576 V 0 H -0.24 v 359.136 z"
   id="path3"
   inkscape:connector-curvature="0"
   style="fill:#f7d117" />
<path
   d="m 12.432,359.136 c 0,10.512 2.448,20.736 6.984,29.88 4.536,9.072 11.16,17.208 19.512,23.616 L 429.6,12.744 H 12.432 v 346.392 z"
   id="path5"
   inkscape:connector-curvature="0"
   style="fill:#171796" />
<polygon
   points="156.888,184.192 156.888,408.112 375.624,184.192 "
   id="polygon7"
   style="fill:#ffffff"
   transform="translate(-85.56,-112.624)" />
<path
   d="m 126.984,141.48 c -0.936,2.52 -2.016,11.736 -2.232,12.672 -0.504,0.864 -2.952,1.296 -4.536,0 -1.08,-1.296 -3.096,-6.264 -5.4,-10.224 v 28.729 c 1.944,1.152 4.32,1.512 6.048,1.512 2.088,5.256 4.536,9.936 9.072,14.688 -1.152,7.416 0.432,11.952 5.184,15.768 3.096,2.664 1.944,5.616 0.36,7.2 l 6.408,0.216 c -0.072,-0.288 -0.216,-1.656 -0.216,-2.448 0,-0.432 0.432,-1.584 1.296,-1.08 0.288,0 0.288,1.296 0,1.8 0,0.36 -0.36,1.512 -0.432,1.728 l 1.368,0.072 h 5.472 c 0.072,-0.504 0.072,-1.08 -0.072,-1.584 -2.232,-6.552 -2.952,-10.152 0.432,-15.768 6.768,0.864 7.704,-4.104 4.32,-8.352 -2.232,-5.472 0.648,-5.472 -4.536,-11.952 -4.968,-6.12 -8.064,-21.888 -4.464,-28.224 3.384,-5.616 5.184,-9 -1.8,-8.352 -2.088,-1.584 -3.672,-3.6 -5.688,-4.32 -1.8,-0.216 -3.384,1.152 -5.4,0.72 -3.168,-0.72 -6.336,-8.136 -8.784,-0.936 -0.72,2.087 4.536,5.903 3.6,8.135 z"
   id="path9"
   inkscape:connector-curvature="0" />
<polygon
   points="127.008,327.112 140.544,336.328 136.08,320.56 148.896,310.624 132.696,309.976 127.008,294.352 121.392,309.976 105.192,310.624 118.224,320.56 113.472,336.328 "
   id="polygon11"
   style="fill:#ffffff"
   transform="translate(-85.56,-112.624)" />
<polygon
   points="339.264,273.04 352.8,282.112 348.264,266.272 361.152,256.12 344.664,255.688 339.264,240.136 333.648,255.688 317.16,256.12 330.264,266.272 325.512,282.112 "
   id="polygon13"
   style="fill:#ffffff"
   transform="translate(-85.56,-112.624)" />
<polygon
   points="445.536,164.32 459.072,173.32 454.32,157.768 467.208,147.616 450.936,147.184 445.536,131.632 439.632,147.184 423.432,147.616 436.464,157.768 432,173.32 "
   id="polygon15"
   style="fill:#ffffff"
   transform="translate(-85.56,-112.624)" />
<polygon
   points="127.08,164.32 113.544,173.32 118.008,157.768 105.192,147.616 121.392,147.184 127.08,131.632 132.696,147.184 148.896,147.616 135.864,157.768 140.616,173.32 "
   id="polygon17"
   style="fill:#ffffff"
   transform="translate(-85.56,-112.624)" />
<polygon
   points="286.128,164.32 299.664,173.32 295.128,157.768 308.16,147.616 291.744,147.184 286.128,131.632 280.656,147.184 264.24,147.616 277.056,157.768 272.592,173.32 "
   id="polygon19"
   style="fill:#ffffff"
   transform="translate(-85.56,-112.624)" />
<polygon
   points="127.008,490.048 140.544,499.048 136.08,483.28 148.896,473.128 132.696,472.624 127.008,457.288 121.392,472.624 105.192,473.128 118.224,483.28 113.472,499.048 "
   id="polygon21"
   style="fill:#ffffff"
   transform="translate(-85.56,-112.624)" />
<polygon
   points="233.496,381.544 246.816,390.616 242.352,375.064 255.384,364.912 238.68,364.192 233.496,348.64 227.88,364.192 211.392,364.912 224.496,375.064 219.96,390.616 "
   id="polygon23"
   style="fill:#ffffff"
   transform="translate(-85.56,-112.624)" />
<path
   d="m 129,128.592 -5.832,2.088 c -4.32,1.368 -8.568,2.016 -13.536,2.016 -20.304,0 -36.576,-12.168 -36.576,-26.64 0,-14.4 16.272,-26.352 36.576,-26.352 20.304,0 37.008,11.952 37.008,26.352 0,9.504 -7.272,18.072 -17.64,22.536 z"
   id="path25"
   inkscape:connector-curvature="0"
   style="fill:#009959" />
<path
   d="m 103.728,93.672 c 1.584,0 2.736,-1.152 2.736,-2.52 0,-1.296 -1.152,-2.448 -2.736,-2.448 -1.368,0 -2.232,1.152 -2.232,2.448 0,1.368 0.864,2.52 2.232,2.52 z"
   id="path27"
   inkscape:connector-curvature="0"
   style="fill:#d42e12" />
<path
   d="m 88.176,100.656 c 1.152,0 2.232,-1.152 2.232,-2.232 0,-1.584 -1.08,-2.736 -2.232,-2.736 -1.584,0 -2.736,1.152 -2.736,2.736 0,1.08 1.152,2.232 2.736,2.232 z"
   id="path29"
   inkscape:connector-curvature="0"
   style="fill:#d42e12" />
<path
   d="m 101.928,117.144 c 1.152,0 2.304,-1.152 2.304,-2.736 0,-1.152 -1.152,-2.232 -2.304,-2.232 -1.368,0 -2.664,1.08 -2.664,2.232 0,1.584 1.296,2.736 2.664,2.736 z"
   id="path31"
   inkscape:connector-curvature="0"
   style="fill:#d42e12" />
<path
   d="m 125.184,116.928 c 1.584,0 2.736,-1.152 2.736,-2.52 0,-1.368 -1.152,-2.448 -2.736,-2.448 -1.368,0 -2.52,1.08 -2.52,2.448 0,1.368 1.152,2.52 2.52,2.52 z"
   id="path33"
   inkscape:connector-curvature="0"
   style="fill:#d42e12" />
<path
   d="m 115.032,105.408 c 1.152,0 2.232,-1.152 2.232,-2.736 0,-1.368 -1.08,-2.448 -2.232,-2.448 -1.584,0 -2.736,1.08 -2.736,2.448 0,1.584 1.152,2.736 2.736,2.736 z"
   id="path35"
   inkscape:connector-curvature="0"
   style="fill:#d42e12" />
<path
   d="m 133.536,100.224 c 1.368,0 2.664,-0.72 2.664,-2.304 0,-1.296 -1.296,-2.448 -2.664,-2.448 -1.368,0 -2.52,1.152 -2.52,2.448 0,1.584 1.152,2.304 2.52,2.304 z"
   id="path37"
   inkscape:connector-curvature="0"
   style="fill:#d42e12" />
<path
   d="m 121.368,162.216 c 0.216,0.288 0.648,0.936 0.216,1.152 -1.584,0.936 -3.168,-0.432 -3.888,-1.584 1.152,0.432 2.736,0 3.672,0.432 z"
   id="path39"
   inkscape:connector-curvature="0"
   style="fill:#ffffff" />
<path
   d="m 148.656,216.36 4.176,-4.248 h -8.928 l -22.752,-0.72 c -4.104,0 -6.12,-1.8 -6.336,-6.048 v -61.848 -9 c 0,-0.72 0.288,-1.44 0.72,-2.16 -1.872,0.216 -3.816,0.36 -5.904,0.36 -1.584,0 -3.096,-0.072 -4.536,-0.216 0.36,0.648 0.504,1.368 0.648,2.016 v 70.128 c 0,4.32 -1.512,6.768 -4.68,6.768 l -13.104,1.152 c -4.752,0.216 -7.2,3.6 -3.384,3.6 l 59.328,0.216 h 4.752 z"
   id="path41"
   inkscape:connector-curvature="0"
   style="fill:#703824" />
<polygon
   points="473.472,536.704 473.472,167.992 418.68,224.152 418.68,578.32 "
   id="polygon43"
   style="fill:#ffffff"
   transform="translate(-85.56,-112.624)" />
<polygon
   points="376.992,609.928 376.992,266.776 322.2,322.864 322.2,651.472 "
   id="polygon45"
   style="fill:#ffffff"
   transform="translate(-85.56,-112.624)" />
<polygon
   points="280.584,643.768 280.584,365.56 225.792,421.576 225.792,602.152 "
   id="polygon47"
   style="fill:#ffffff"
   transform="translate(-85.56,-112.624)" />
<path
   d="m 38.928,412.632 c 0.072,0 0.072,0 0.072,0 l 0,0 59.544,45.216 V 351.576 l -59.616,61.056 z"
   id="path49"
   inkscape:connector-curvature="0"
   style="fill:#ffffff" />
<path
   d="m 387.912,424.08 15.12,-11.448 0,0 c 8.352,-6.336 15.048,-14.472 19.584,-23.616 4.536,-9.144 6.984,-19.368 6.984,-29.88 V 12.744 L 387.912,55.368 V 424.08 z"
   id="path51"
   inkscape:connector-curvature="0"
   style="fill:#d42e12" />
<polygon
   points="399.096,593.224 418.68,578.32 418.68,224.152 376.992,266.776 376.992,609.928 "
   id="polygon53"
   style="fill:#d42e12"
   transform="translate(-85.56,-112.624)" />
<polygon
   points="306.432,663.424 322.2,651.472 322.2,322.864 280.584,365.56 280.584,643.768 "
   id="polygon55"
   style="fill:#d42e12"
   transform="translate(-85.56,-112.624)" />
<polygon
   points="225.792,421.576 184.104,464.2 184.104,570.472 225.792,602.152 "
   id="polygon57"
   style="fill:#d42e12"
   transform="translate(-85.56,-112.624)" />
</svg>