<?xml version="1.0" encoding="utf-8"?>
<!-- Generator: Adobe Illustrator 14.0.0, SVG Export Plug-In . SVG Version: 6.00 Build 43363)  -->
<!DOCTYPE svg PUBLIC "-//W3C//DTD SVG 1.1//EN" "http://www.w3.org/Graphics/SVG/1.1/DTD/svg11.dtd">
<svg version="1.1" id="Layer_1" xmlns="http://www.w3.org/2000/svg" xmlns:xlink="http://www.w3.org/1999/xlink" x="0px" y="0px"
	 width="595.28px" height="719px" viewBox="0 0 595.28 719" enable-background="new 0 0 595.28 719" xml:space="preserve">
<g>
	<defs>
		<rect id="SVGID_1_" y="-57.445" width="595.28" height="841.89"/>
	</defs>
	<clipPath id="SVGID_2_">
		<use xlink:href="#SVGID_1_"  overflow="visible"/>
	</clipPath>
	<path clip-path="url(#SVGID_2_)" d="M478.747,358.099v-9.151l9.154-1.821v9.152L478.747,358.099z M130.056,427.459v-55.995
		l9.617-1.915v47.622l15.124-3.009v8.376L130.056,427.459z M160.691,421.365V365.37l25.75-5.123v8.376l-16.133,3.209v14.426
		l12.409-2.468v8.376l-12.409,2.469v16.442l17.218-3.425v8.375L160.691,421.365z M214.747,354.617l9.463-1.882l-11.711,58.324
		l-9.618,1.914l-11.711-53.667l9.462-1.883l6.98,37.467L214.747,354.617z M238.247,385.153l7.755-1.542l-3.8-23.287L238.247,385.153
		z M235.144,406.556l-9.307,1.852l10.315-58.048l11.944-2.375l10.315,53.943l-9.306,1.851l-1.706-12.068l-10.549,2.098
		L235.144,406.556z M263.995,400.816v-55.995l8.918-1.774l11.712,29.702l0.154-32.062l8.687-1.728v55.995l-8.376,1.667
		l-12.254-32.54l-0.155,35.008L263.995,400.816z M308.357,344.372l-9.306,1.851v-8.375l28.229-5.616v8.376l-9.306,1.851v47.62
		l-9.618,1.913V344.372z M332.944,387.103v-55.996l25.749-5.121v8.375l-16.133,3.209v14.426l12.409-2.469v8.376l-12.409,2.469
		v16.442l17.217-3.424v8.375L332.944,387.103z M384.594,320.833l9.616-1.913v42.269c0,4.084,1.707,5.787,5.119,5.108
		s5.118-3.061,5.118-7.145v-42.269l9.618-1.913v41.881c0,4.86-1.32,8.818-3.955,11.877c-2.586,3.048-6.179,5.029-10.781,5.943
		c-4.601,0.915-8.22,0.369-10.858-1.639c-2.584-2.02-3.877-5.46-3.877-10.32V320.833z M422.751,369.237v-9.15l9.152-1.822v9.152
		L422.751,369.237z M450.206,355.866l3.335-0.663c2.586-0.514,4.369-1.438,5.353-2.771c1.034-1.343,1.551-3.488,1.551-6.435v-24.509
		c0-2.947-0.517-4.887-1.551-5.818c-0.983-0.942-2.767-1.157-5.353-0.643l-3.335,0.664V355.866z M440.589,309.694l14.271-2.839
		c5.015-0.997,8.791-0.379,11.324,1.858c2.585,2.227,3.877,6.234,3.877,12.025v22.183c0,5.79-1.292,10.312-3.877,13.567
		c-2.533,3.245-6.31,5.365-11.324,6.362l-14.271,2.84V309.694z"/>
	<path clip-path="url(#SVGID_2_)" d="M236.941,48.591c0-30.957,0.058-30.967,30.967-30.967c11.54,0,21.605,6.311,26.932,15.671h8.35
		c5.328-9.36,15.395-15.671,26.934-15.671c30.909,0,30.966,0.01,30.966,30.967c0,16.248-12.512,29.573-28.427,30.865
		c-1.789,4.94-2.766,10.27-2.766,15.827c0,25.652,20.794,46.448,46.447,46.448c25.654,0,46.449-20.796,46.449-46.448
		c0-17.493-9.67-32.727-23.956-40.649l10.847-22.048c161.313,44.869,227.454,215.453,112.743,423.326
		c5.904,7.789,9.407,17.499,9.407,28.026c0,25.651-20.795,46.448-46.449,46.448c-3.459,0-6.829-0.378-10.071-1.095
		c-33.642,45.953-75.975,93.139-127.826,140.698c-45.202,41.46-51.861,41.363-96.852,0.109
		c-51.903-47.594-94.272-94.813-127.939-140.798c-3.229,0.71-6.584,1.085-10.026,1.085c-25.652,0-46.447-20.797-46.447-46.448
		c0-10.509,3.489-20.202,9.373-27.985C-39.148,248.06,26.991,77.458,188.315,32.586l10.847,22.046
		c-14.288,7.921-23.96,23.156-23.96,40.651c0,25.652,20.796,46.448,46.449,46.448c25.652,0,46.447-20.796,46.447-46.448
		c0-5.559-0.976-10.89-2.767-15.83C249.435,78.145,236.941,64.827,236.941,48.591 M315.449,571.167
		c7.271-2.288,13.525-5.618,18.161-8.89C328.181,566.221,322.054,569.258,315.449,571.167 M333.61,562.277
		c1.7-1.236,3.335-2.563,4.893-3.97C337.179,559.568,335.534,560.919,333.61,562.277"/>
	<path clip-path="url(#SVGID_2_)" fill="#FFFFFF" d="M478.748,358.1l9.152-1.82v-9.152l-9.152,1.821V358.1z M130.056,427.459
		l24.74-4.921v-8.376l-15.123,3.009V369.55l-9.617,1.914V427.459z M160.691,421.365l26.835-5.338v-8.375l-17.218,3.425v-16.442
		l12.409-2.469v-8.376l-12.409,2.468v-14.426l16.132-3.209v-8.376l-25.749,5.124V421.365z M214.747,354.617l-7.135,40.275
		l-6.98-37.467l-9.463,1.882l11.712,53.667l9.617-1.914l11.712-58.325L214.747,354.617z M235.143,406.556l1.707-12.748l10.548-2.098
		l1.706,12.068l9.307-1.851l-10.315-53.944l-11.944,2.376l-10.315,58.048L235.143,406.556z M263.995,400.816l8.686-1.728
		l0.155-35.008l12.253,32.54l8.377-1.667v-55.996l-8.687,1.728l-0.155,32.063l-11.711-29.701l-8.918,1.774V400.816z
		 M308.356,344.372v47.621l9.619-1.913v-47.621l9.306-1.851v-8.375l-28.229,5.615v8.376L308.356,344.372z M332.943,387.103
		l26.834-5.338v-8.375l-17.217,3.424v-16.443l12.409-2.468v-8.376l-12.409,2.468v-14.426l16.132-3.209v-8.375l-25.749,5.122V387.103
		z M384.594,320.833v41.88c0,4.86,1.293,8.301,3.877,10.321c2.638,2.007,6.257,2.553,10.858,1.638
		c4.603-0.915,8.194-2.896,10.78-5.943c2.636-3.059,3.955-7.018,3.955-11.878v-41.88l-9.617,1.913v42.268
		c0,4.085-1.706,6.466-5.118,7.145c-3.411,0.679-5.118-1.024-5.118-5.108V318.92L384.594,320.833z M422.752,369.237l9.151-1.82
		v-9.151l-9.151,1.821V369.237z M440.59,309.695v55.996l14.269-2.84c5.017-0.997,8.791-3.117,11.325-6.362
		c2.585-3.255,3.876-7.777,3.876-13.568v-22.182c0-5.791-1.291-9.799-3.876-12.025c-2.534-2.237-6.309-2.856-11.325-1.858
		L440.59,309.695z M517.66,286.599c2.014,22.644,0.486,47.241-5.063,73.411l-399.485,79.462
		c-11.114-23.349-19.285-45.909-24.773-67.475L517.66,286.599z M238.247,385.153l3.955-24.829l3.799,23.287L238.247,385.153z
		 M450.207,355.867v-40.175l3.335-0.664c2.586-0.514,4.368-0.3,5.352,0.642c1.034,0.932,1.551,2.871,1.551,5.819v24.508
		c0,2.947-0.517,5.093-1.551,6.436c-0.983,1.332-2.766,2.256-5.352,2.77L450.207,355.867z"/>
	<path clip-path="url(#SVGID_2_)" fill="#B4053F" d="M435.413,521.784c-23.298,31.991-51.938,64.909-86.46,98.323v-62.971
		c9.737-11.429,15.616-26.25,15.616-42.442c0-16.193-5.879-31.013-15.616-42.442v-72.865l86.46-17.198V521.784z M348.953,234.259
		c3.835,1.315,7.941,2.026,12.225,2.026c4.101,0,7.983-0.83,11.887-1.805c4.803,11.179,14.815,19.602,26.953,22.234l35.396,7.039
		v32.38l-86.46,17.198V234.259z M249.093,620.017c-34.537-33.435-63.18-66.372-86.476-98.38v-85.185l86.476-17.201v53.179
		c-9.65,11.404-15.468,26.155-15.468,42.265c0,16.11,5.818,30.86,15.468,42.266V620.017z M162.617,263.991
		c20.447-4.082,35.503-7.277,35.503-7.277c12.144-2.633,22.16-11.061,26.96-22.248c3.916,0.983,7.81,1.819,11.927,1.819
		c4.225,0,8.294-0.697,12.086-1.978v98.887l-86.476,17.201V263.991z"/>
	<path clip-path="url(#SVGID_2_)" fill-rule="evenodd" clip-rule="evenodd" fill="#DCA43E" d="M351.613,541.12
		c-0.561-10.408-10.983-16.987-24.356-13.267c-0.12-12.021-13.692-18.27-27.433-15.513c-11.965-13.408-7.917-29.854,14.434-26.367
		c12.978,2.024,32.564,11.905,43.521,32.094C357.312,526.323,355.141,534.122,351.613,541.12 M250.113,547.191
		c9.217,4.464,19.927-1.262,23.379-14.521c10.482,5.978,22.72-2.655,27.214-15.959c17.6-3.665,29.824,8.065,15.629,25.68
		c-8.198,10.172-26.392,22.117-49.176,21.653C260.388,559.654,254.578,553.908,250.113,547.191 M264.929,466.862
		c-8.779,18.979-7.264,38.829-2.666,50.726c2.081,5.386,4.593,9.338,7.332,12.07c-3.357,17.821-20.622,20.933-27.339,0.054
		c-1.263-4.794-1.935-9.827-1.935-15.018C240.321,494.975,250.03,477.524,264.929,466.862 M295.686,456.016
		c-8.831,5.647-9.376,18.003,0.532,27.76c-10.362,6.107-8.995,20.989,0.261,31.515c-5.628,17.071-21.896,21.79-30.052,0.689
		c-4.73-12.238-5.969-34.107,5.993-53.674C279.472,458.708,287.346,456.492,295.686,456.016 M357.636,509.37
		c-12.047-17.182-30.055-25.836-42.692-27.807c-5.734-0.896-10.434-0.689-14.182,0.333c-14.107-12.123-7.499-29.177,15.304-23.307
		c6.942,1.786,18.312,7.664,27.596,17.777C351.433,485.397,356.509,496.814,357.636,509.37 M333.609,562.277
		c1.924-1.358,3.57-2.709,4.894-3.97C336.944,559.715,335.31,561.041,333.609,562.277 M315.448,571.167
		c-5.189,1.5-10.677,2.304-16.351,2.304c-8.67,0-16.9-1.876-24.309-5.246c20.712-1.951,37.049-13.139,45.022-23.031
		c3.647-4.526,5.819-8.703,6.807-12.462c17.581-6.203,29.086,8.058,12.584,24.887l-0.698,0.689c-1.323,1.261-2.97,2.611-4.894,3.97
		C328.181,566.221,322.054,569.258,315.448,571.167 M315.448,571.167c6.606-1.909,12.733-4.946,18.161-8.89
		C328.974,565.55,322.72,568.879,315.448,571.167"/>
	<path clip-path="url(#SVGID_2_)" fill="#005CA5" d="M255.788,465.592v-47.673l86.468-17.198v64.739
		c-11.524-10.109-26.625-16.238-43.158-16.238C282.492,449.222,267.33,455.403,255.788,465.592 M155.922,512.254
		c-15.898-22.733-29.093-44.972-39.787-66.556l39.787-7.915V512.254z M342.256,626.524c-3.92,3.72-7.91,7.442-11.979,11.173
		c-3.223,2.958-25.389,25.551-30.691,25.694c-5.695,0.153-28.464-22.701-31.728-25.694c-4.097-3.759-8.123-7.515-12.071-11.263
		v-62.638c11.542,10.188,26.704,16.369,43.31,16.369c16.533,0,31.634-6.128,43.158-16.236V626.524z M510.99,367.155
		c-10.602,44.647-32.79,93.676-68.882,145.253V380.857L510.99,367.155z M86.756,365.485c-8.304-35.856-9.117-68.851-3.654-98.041
		c5.165-27.595,19.404-41.127,29.629-41.127c4.889,0,8.851,3.963,8.851,8.851c0,4.816-3.891,8.849-9.105,8.847l-6.774-0.001
		l0.331,28.981c-0.043,0.131,9.777-0.03,20.21-1.971c10.183-1.894,20.345-3.86,29.678-5.703v86.406L86.756,365.485z
		 M442.108,265.084l29.786,5.925c7.525,1.483,14.262,2.145,20.21,1.986l0.331-28.981l-6.774,0.001
		c-5.214,0.002-9.104-4.031-9.104-8.847c0-4.888,3.961-8.851,8.849-8.851c10.227,0,24.465,13.532,29.63,41.127
		c0.766,4.082,1.405,8.24,1.922,12.468l-74.85,14.889V265.084z M255.788,231.283c3.462-1.992,6.571-4.512,9.228-7.456
		c9.214,7.675,21.086,12.304,34.072,12.328c12.961,0,24.851-4.636,34.081-12.327c2.616,2.9,5.686,5.396,9.087,7.374v83.461
		l-86.468,17.2V231.283z"/>
	<path clip-path="url(#SVGID_2_)" fill="#B2B2B2" d="M428.011,57.579c86.838,33.615,139.478,111.418,133.49,216.158
		c-1.328-72.89-34.878-130.252-90.209-163.94l-3.88-2.254c-7.23,35.697-36.563,63.411-74.437,63.411
		c-22.444,0-41.995-9.306-55.315-23.985c10.69,7.926,23.927,12.616,38.261,12.616c35.514,0,64.302-28.788,64.302-64.301
		C440.223,81.191,435.687,68.164,428.011,57.579 M169.561,57.579c-7.675,10.585-12.212,23.613-12.212,37.705
		c0,35.513,28.789,64.301,64.302,64.301c14.333,0,27.571-4.69,38.261-12.616c-13.32,14.679-32.87,23.985-55.315,23.985
		c-37.875,0-67.206-27.714-74.437-63.411l-3.88,2.254c-55.33,33.688-88.882,91.05-90.209,163.94
		C30.083,168.997,82.723,91.192,169.561,57.579"/>
	<path clip-path="url(#SVGID_2_)" fill="#FAC400" d="M299.094,229.46c-13.98-0.026-26.455-6.14-34.97-15.816
		c-5.299,9.512-15.457,15.946-27.117,15.946c-2.65,0-5.222-0.332-7.677-0.957c0.682-2.93,1.042-5.983,1.042-9.12
		c0-2.482-0.225-4.912-0.654-7.271c2.191,1.187,4.7,1.859,7.366,1.859c8.562,0,15.504-6.941,15.504-15.504l-0.035-10.478h15.987
		c2.481,14.632,15.216,25.773,30.554,25.773c15.337,0,28.074-11.141,30.554-25.773h15.987l-0.039,10.478
		c0,8.563,6.941,15.504,15.503,15.504c2.647,0,5.137-0.663,7.316-1.832c-0.427,2.35-0.65,4.771-0.65,7.243
		c0,3.141,0.362,6.197,1.045,9.131c-2.441,0.618-4.999,0.946-7.633,0.946c-11.661,0-21.818-6.434-27.117-15.946
		C325.527,223.34,313.025,229.46,299.094,229.46 M128.277,235.168c0-8.586-6.959-15.546-15.546-15.546
		c-15.535,0-30.947,18.467-36.21,46.59c-18.273,97.63,31.548,233.99,186.812,376.419c40.833,37.456,32.499,35.751,71.472,0
		c155.264-142.43,205.084-278.79,186.812-376.419c-5.264-28.123-20.675-46.59-36.211-46.59c-8.586,0-15.545,6.96-15.545,15.546
		c0,8.585,6.96,15.545,15.803,15.543l-0.179,15.588c-17.179,0-31.104-13.925-31.104-31.104c0-17.178,13.925-31.104,31.215-31.103
		c30.931,0.139,44.353,31.301,49.761,62.099c18.206,103.675-36.326,243.961-191.501,386.308c-47.893,43.935-41.686,43.931-89.575,0
		C99.107,510.152,44.575,369.866,62.781,266.191c5.408-30.798,18.83-61.96,49.762-62.099c17.289-0.001,31.215,13.925,31.215,31.103
		c0,17.179-13.926,31.104-31.104,31.104l-0.179-15.588C121.317,250.713,128.277,243.753,128.277,235.168 M186.853,188.483
		c0.975-0.221,2.062-0.331,3.231-0.331c17.32,0,31.361,14.04,31.361,31.361c0,15.029-10.574,27.585-24.687,30.645l-1.068,0.213
		l-52.228,10.386c5.76-6.934,9.222-15.843,9.222-25.562c0-15.504-8.813-28.948-21.703-35.598L186.853,188.483z M411.286,188.483
		l55.87,11.114c-12.889,6.65-21.702,20.094-21.702,35.598c0,9.719,3.464,18.628,9.224,25.562l-52.229-10.386l-1.066-0.213
		c-14.114-3.06-24.688-15.616-24.688-30.645c0-17.321,14.041-31.361,31.362-31.361C409.223,188.152,410.31,188.263,411.286,188.483"
		/>
</g>
</svg>
