<?xml version="1.0" encoding="UTF-8" standalone="no"?>
<svg
   xmlns:dc="http://purl.org/dc/elements/1.1/"
   xmlns:cc="http://creativecommons.org/ns#"
   xmlns:rdf="http://www.w3.org/1999/02/22-rdf-syntax-ns#"
   xmlns:svg="http://www.w3.org/2000/svg"
   xmlns="http://www.w3.org/2000/svg"
   xmlns:sodipodi="http://sodipodi.sourceforge.net/DTD/sodipodi-0.dtd"
   xmlns:inkscape="http://www.inkscape.org/namespaces/inkscape"
   width="236.76587"
   height="209.34273"
   viewBox="0 0 1057.8699 936.72"
   version="1.1"
   id="svg2"
   inkscape:version="0.48.2 r9819"
   sodipodi:docname="Rayo Vallecano.svg">
  <metadata
     id="metadata41">
    <rdf:RDF>
      <cc:Work
         rdf:about="">
        <dc:format>image/svg+xml</dc:format>
        <dc:type
           rdf:resource="http://purl.org/dc/dcmitype/StillImage" />
      </cc:Work>
    </rdf:RDF>
  </metadata>
  <defs
     id="defs39" />
  <sodipodi:namedview
     pagecolor="#ffffff"
     bordercolor="#666666"
     borderopacity="1"
     objecttolerance="10"
     gridtolerance="10"
     guidetolerance="10"
     inkscape:pageopacity="0"
     inkscape:pageshadow="2"
     inkscape:window-width="1280"
     inkscape:window-height="962"
     id="namedview37"
     showgrid="false"
     fit-margin-top="0"
     fit-margin-left="0"
     fit-margin-right="0"
     fit-margin-bottom="0"
     inkscape:zoom="2.5096661"
     inkscape:cx="118.39266"
     inkscape:cy="84.466701"
     inkscape:window-x="-8"
     inkscape:window-y="-8"
     inkscape:window-maximized="1"
     inkscape:current-layer="svg2" />
  <g
     id="#d8b43cff"
     transform="translate(-29.876587,-22.74)">
    <path
       d="m 558.51,22.74 c 25.74,22.18 57.16,36.76 89.43,46.67 45.89,13.9 94.32,18.57 142.1,15.91 37.29,-2.18 74.47,-9 109.55,-22 22.31,-8.32 43.81,-19.21 62.72,-33.77 38.32,42.34 69.37,91.34 90.62,144.38 38.56,95.6 43.98,204.38 14.07,303.1 -20.58,68.38 -58.42,130.9 -106.61,183.34 -56.11,61.26 -125.25,109.54 -199.17,146.89 -24.49,12.35 -49.57,23.53 -75.09,33.61 -9.44,3.88 -19.35,6.8 -28.11,12.17 -19.19,11.45 -35.3,27.26 -50.35,43.6 -16.96,18.63 -32.25,38.69 -46.86,59.18 -0.69,1.13 -1.2,2.34 -1.54,3.64 -12.06,-17.87 -25.29,-34.99 -39.2,-51.48 C 503.12,888.31 484.97,869.15 463,855.02 451.77,847.55 438.65,843.98 426.34,838.77 352.56,809.06 282.08,770.09 220.35,719.7 165.05,674.56 116.96,619.75 83.52,556.44 60.47,512.95 44.59,465.65 37.06,416.99 30.49,374.67 29.9,331.44 35.13,288.94 41.69,235.76 57.73,183.8 82.02,136.05 101.6,97.48 126.43,61.59 155.48,29.54 c 32.92,25.2 72.81,39.64 113.06,48.11 44.8,9.16 91.09,10.7 136.48,5.28 31.62,-3.89 62.93,-11.3 92.44,-23.44 21.99,-9.14 43.13,-20.93 61.05,-36.75 m -16.17,97.42 c -7.76,3.42 -15.92,5.8 -24.09,8.02 -21.88,5.74 -44.16,9.79 -66.46,13.49 -32.62,5.24 -65.39,9.68 -98.31,12.6 -10.78,1.11 -21.63,0.63 -32.44,0.29 -54.79,-2.18 -109.49,-13.22 -159.89,-35.11 -30.55,48.47 -51.31,103.08 -60.41,159.66 -11.65,71.25 -5.34,145.44 18.93,213.48 22.93,64.79 61.72,123.92 112.19,170.59 48.25,44.75 107.39,78.01 171.23,94.38 4.1,1.02 7.83,3.04 11.66,4.77 12.6,5.83 25.03,12.02 37.3,18.53 25.39,13.56 50.31,28.28 72.97,46.12 11.43,9.18 22.49,19.16 30.82,31.33 0.52,1.17 1.73,1.42 2.83,1.8 10,-15.18 24.04,-27.1 38.41,-37.98 24.81,-18.43 51.82,-33.68 79.32,-47.7 11.5,-5.63 22.89,-11.64 34.84,-16.25 77.32,-19.6 147.62,-63.95 200.52,-123.43 38.47,-43.09 68.04,-94.08 86.4,-148.85 20.28,-60.15 26.67,-124.82 19.18,-187.82 -7.4,-63.18 -28.98,-124.72 -63.19,-178.39 -57.44,25.1 -120.51,35.67 -182.98,35.5 -0.13,0.17 -0.4,0.51 -0.53,0.68 l -0.8,-0.59 c -21,-1.89 -42.03,-4.16 -62.96,-6.92 -22.72,-3.25 -45.45,-6.53 -68,-10.81 -18.29,-3.49 -36.58,-7.22 -54.33,-12.9 -6.94,-2.36 -14.08,-4.76 -19.9,-9.34 -2.32,-1.88 -5.2,-3.3 -6.57,-6.09 -4.77,4.25 -9.8,8.43 -15.74,10.94 z"
       id="path5"
       inkscape:connector-curvature="0"
       style="fill:#d8b43c" />
    <path
       d="m 316.76,176.75 c 2.57,-1.33 4.84,-3.15 7.16,-4.86 3.88,3.12 8.13,6.01 13.19,6.72 3.76,0.41 6.2,3.61 7.36,6.95 2.09,4.33 -0.66,10.33 -5.46,11.17 -2.61,0.37 -3.16,-2.78 -4.48,-4.32 -1.16,-2.25 -4.81,-1.76 -5.5,0.64 -2.98,9.44 2.79,20.4 12.06,23.68 1.54,0.55 3.51,0.23 4.22,-1.41 1.3,-3 -1.9,-5.9 -0.85,-8.95 0.9,-3.66 3.46,-7.59 7.57,-7.9 5.61,-0.54 10.44,5.2 9.68,10.65 -0.05,2.58 -1.64,4.72 -2.97,6.81 6.26,2.45 13.84,0.07 17.59,-5.47 2.34,-3.58 2.86,-9.14 -0.64,-12.14 -3.06,-1.37 -6.51,0.61 -9.61,-0.33 -3.04,-1.81 -3.29,-6.38 -0.99,-8.9 2.4,-3.02 6.54,-3.03 10.02,-3.58 4.97,-0.67 9.34,-3.3 13.85,-5.3 1.48,2.98 2.32,6.69 5.37,8.53 3.55,2.26 7.93,4.13 9.57,8.34 0.97,2.89 1.5,6.58 -0.74,9.04 -1.19,1.54 -3.26,2.58 -5.21,1.94 -3.41,-0.9 -3.51,-6.15 -6.98,-6.6 -4.82,3.95 -6.22,11.71 -2.21,16.71 2.51,4.02 7.32,5.62 11.86,5.51 -0.52,-2.62 -1.12,-5.45 0.21,-7.94 1.3,-3.61 5.46,-5.78 9.17,-4.69 3.42,0.42 5.26,3.91 5.6,7.03 0.19,4.19 -1.48,8.23 -4.19,11.37 3.69,2.1 8.26,3.06 12.25,1.17 4.47,-2.11 8.75,-5.76 10.26,-10.6 0.76,-2.77 -2.63,-4.19 -4.85,-3.86 -2.47,0.16 -5.88,2.11 -7.13,-1.1 -0.49,-3.04 0.94,-6.12 2.52,-8.64 2.96,-3.18 7.72,-1.91 11.55,-1.88 4.44,0.55 8.77,-0.74 12.84,-2.39 -7.17,15.14 -14.25,30.32 -21.41,45.46 -1.06,2.35 -2.62,4.65 -2.45,7.35 0.04,76.04 -0.02,152.08 0.03,228.12 0.06,4.74 -3,8.72 -5.25,12.65 -3.95,6.6 -11,11.02 -18.6,11.97 -12.85,1.71 -25.55,-1.82 -38.29,-2.91 -9.12,-0.88 -18.91,-0.69 -27.08,3.97 -4.85,2.65 -8.43,6.97 -11.85,11.21 -4.17,-5.14 -8.77,-10.33 -15.11,-12.77 -11.35,-4.64 -23.89,-2.54 -35.64,-0.94 -10.41,1.39 -21.3,3.42 -31.59,0.27 -9.67,-2.92 -15.83,-12.2 -18.65,-21.38 -0.22,-74.71 -0.03,-149.43 -0.09,-224.15 -0.18,-3.33 0.64,-6.9 -0.89,-10.01 -7.7,-16.27 -15.31,-32.58 -23.01,-48.85 4.11,1.71 8.51,2.97 13,2.39 3.8,-0.04 8.59,-1.26 11.47,1.97 1.51,2.51 2.92,5.5 2.48,8.49 -1.14,3.16 -4.59,1.46 -6.98,1.19 -2.67,-0.63 -6.51,1.72 -4.79,4.78 2.33,4.96 6.99,8.97 12.3,10.4 3.44,0.93 6.88,-0.31 9.87,-1.95 -3.34,-4.06 -5.56,-10.11 -2.92,-15.08 2.44,-4.92 10.54,-4.59 12.98,0.2 1.87,2.74 1.53,6.1 0.84,9.15 7.92,0.87 15.61,-6.62 14.02,-14.6 -0.75,-2.94 -2.13,-6.79 -5.28,-7.67 -1.97,1.62 -2.9,4.13 -4.69,5.91 -1.75,1.51 -4.55,1.05 -6.04,-0.6 -2.97,-2.62 -2.42,-7.18 -0.94,-10.43 2.12,-4.25 6.94,-5.72 10.46,-8.47 2.02,-2.14 2.88,-5.06 4.18,-7.64 4.51,2.11 8.93,4.71 13.95,5.35 3.46,0.55 7.58,0.59 9.93,3.64 2.41,2.67 1.76,7.78 -1.8,9.09 -2.9,0.18 -5.92,-1.02 -8.74,-0.02 -3.21,2.54 -3.28,7.46 -1.5,10.9 3.23,6.46 11.63,9.45 18.31,6.78 -1.61,-2.37 -3.26,-4.95 -2.98,-7.95 -0.25,-5.84 6.15,-11.4 11.85,-8.97 4.34,2.16 6.74,7.97 4.71,12.48 -1.39,2.38 0.17,6.31 3.34,5.41 9.69,-2.78 15.84,-14.16 12.82,-23.8 -0.49,-1.05 -1.44,-2.29 -2.76,-2.1 -3.86,-0.37 -3.41,5.79 -7.05,5.76 -3.67,-0.36 -6.28,-4.25 -6.37,-7.73 0.25,-3.36 1.8,-6.76 4.38,-8.96 2.96,-1.83 6.66,-1.73 9.74,-3.31 m -20.88,58.46 c -14.19,1.67 -28.44,4.38 -41.66,9.99 -5.38,2.45 -10.93,5.2 -14.77,9.84 16.51,0.28 33.02,0.04 49.53,0.12 39.85,-0.08 79.7,0.16 119.54,-0.12 -3.14,-3.87 -7.58,-6.34 -11.97,-8.54 -10.74,-5.11 -22.42,-7.86 -34.09,-9.82 -21.99,-3.47 -44.45,-3.91 -66.58,-1.47 m -60.19,30.48 c -0.06,70.43 -0.05,140.87 0.15,211.3 -0.54,6.04 1.01,13.17 6.59,16.48 8.41,4.61 18.45,3.98 27.6,2.44 11.93,-1.87 24.22,-5.46 36.25,-2.28 7.03,1.78 12.68,6.59 17.63,11.66 4.85,-4.92 10.31,-9.69 17.15,-11.51 11.01,-3.16 22.48,-0.32 33.45,1.58 9.72,1.75 20.28,3.13 29.55,-1.18 5.08,-2.17 7.79,-7.89 7.95,-13.17 0.14,-71.77 0.16,-143.55 0.11,-215.32 -58.81,-0.04 -117.62,-0.03 -176.43,0 z"
       id="path7"
       inkscape:connector-curvature="0"
       style="fill:#d8b43c" />
  </g>
  <g
     id="#ffffffff"
     transform="translate(-29.876587,-22.74)">
    <path
       d="m 542.34,120.16 c 5.94,-2.51 10.97,-6.69 15.74,-10.94 1.37,2.79 4.25,4.21 6.57,6.09 5.82,4.58 12.96,6.98 19.9,9.34 17.75,5.68 36.04,9.41 54.33,12.9 22.55,4.28 45.28,7.56 68,10.81 -44.54,78.7 -89.07,157.41 -133.59,236.12 26.87,-8.27 53.73,-16.61 80.61,-24.87 -29.29,52.06 -58.62,104.1 -87.94,156.13 -7.87,-25.66 -15.67,-51.34 -23.52,-77 -44.43,77.75 -88.78,155.55 -133.17,233.32 -7.72,-5.08 -15.38,-10.25 -23.1,-15.33 1.41,32.08 2.88,64.15 4.32,96.23 31.07,-10.57 62.18,-20.99 93.24,-31.58 -8.4,-5.62 -16.84,-11.19 -25.28,-16.75 24.55,-43.35 49.14,-86.67 73.75,-129.99 7.86,25.45 15.68,50.91 23.51,76.37 71.94,-126.02 143.86,-252.05 215.76,-378.1 -26.91,8.03 -53.79,16.18 -80.7,24.19 21.18,-37.59 42.4,-75.15 63.61,-112.73 5.46,-9.48 10.57,-19.16 16.26,-28.5 0.13,-0.17 0.4,-0.51 0.53,-0.68 62.47,0.17 125.54,-10.4 182.98,-35.5 34.21,53.67 55.79,115.21 63.19,178.39 7.49,63 1.1,127.67 -19.18,187.82 -18.36,54.77 -47.93,105.76 -86.4,148.85 -52.9,59.48 -123.2,103.83 -200.52,123.43 -11.95,4.61 -23.34,10.62 -34.84,16.25 -27.5,14.02 -54.51,29.27 -79.32,47.7 -14.37,10.88 -28.41,22.8 -38.41,37.98 -1.1,-0.38 -2.31,-0.63 -2.83,-1.8 -8.33,-12.17 -19.39,-22.15 -30.82,-31.33 -22.66,-17.84 -47.58,-32.56 -72.97,-46.12 -12.27,-6.51 -24.7,-12.7 -37.3,-18.53 -3.83,-1.73 -7.56,-3.75 -11.66,-4.77 C 339.25,741.19 280.11,707.93 231.86,663.18 181.39,616.51 142.6,557.38 119.67,492.59 95.4,424.55 89.09,350.36 100.74,279.11 c 9.1,-56.58 29.86,-111.19 60.41,-159.66 50.4,21.89 105.1,32.93 159.89,35.11 10.81,0.34 21.66,0.82 32.44,-0.29 32.92,-2.92 65.69,-7.36 98.31,-12.6 22.3,-3.7 44.58,-7.75 66.46,-13.49 8.17,-2.22 16.33,-4.6 24.09,-8.02 m -225.58,56.59 c -3.08,1.58 -6.78,1.48 -9.74,3.31 -2.58,2.2 -4.13,5.6 -4.38,8.96 0.09,3.48 2.7,7.37 6.37,7.73 3.64,0.03 3.19,-6.13 7.05,-5.76 1.32,-0.19 2.27,1.05 2.76,2.1 3.02,9.64 -3.13,21.02 -12.82,23.8 -3.17,0.9 -4.73,-3.03 -3.34,-5.41 2.03,-4.51 -0.37,-10.32 -4.71,-12.48 -5.7,-2.43 -12.1,3.13 -11.85,8.97 -0.28,3 1.37,5.58 2.98,7.95 -6.68,2.67 -15.08,-0.32 -18.31,-6.78 -1.78,-3.44 -1.71,-8.36 1.5,-10.9 2.82,-1 5.84,0.2 8.74,0.02 3.56,-1.31 4.21,-6.42 1.8,-9.09 -2.35,-3.05 -6.47,-3.09 -9.93,-3.64 -5.02,-0.64 -9.44,-3.24 -13.95,-5.35 -1.3,2.58 -2.16,5.5 -4.18,7.64 -3.52,2.75 -8.34,4.22 -10.46,8.47 -1.48,3.25 -2.03,7.81 0.94,10.43 1.49,1.65 4.29,2.11 6.04,0.6 1.79,-1.78 2.72,-4.29 4.69,-5.91 3.15,0.88 4.53,4.73 5.28,7.67 1.59,7.98 -6.1,15.47 -14.02,14.6 0.69,-3.05 1.03,-6.41 -0.84,-9.15 -2.44,-4.79 -10.54,-5.12 -12.98,-0.2 -2.64,4.97 -0.42,11.02 2.92,15.08 -2.99,1.64 -6.43,2.88 -9.87,1.95 -5.31,-1.43 -9.97,-5.44 -12.3,-10.4 -1.72,-3.06 2.12,-5.41 4.79,-4.78 2.39,0.27 5.84,1.97 6.98,-1.19 0.44,-2.99 -0.97,-5.98 -2.48,-8.49 -2.88,-3.23 -7.67,-2.01 -11.47,-1.97 -4.49,0.58 -8.89,-0.68 -13,-2.39 7.7,16.27 15.31,32.58 23.01,48.85 1.53,3.11 0.71,6.68 0.89,10.01 0.06,74.72 -0.13,149.44 0.09,224.15 2.82,9.18 8.98,18.46 18.65,21.38 10.29,3.15 21.18,1.12 31.59,-0.27 11.75,-1.6 24.29,-3.7 35.64,0.94 6.34,2.44 10.94,7.63 15.11,12.77 3.42,-4.24 7,-8.56 11.85,-11.21 8.17,-4.66 17.96,-4.85 27.08,-3.97 12.74,1.09 25.44,4.62 38.29,2.91 7.6,-0.95 14.65,-5.37 18.6,-11.97 2.25,-3.93 5.31,-7.91 5.25,-12.65 -0.05,-76.04 0.01,-152.08 -0.03,-228.12 -0.17,-2.7 1.39,-5 2.45,-7.35 7.16,-15.14 14.24,-30.32 21.41,-45.46 -4.07,1.65 -8.4,2.94 -12.84,2.39 -3.83,-0.03 -8.59,-1.3 -11.55,1.88 -1.58,2.52 -3.01,5.6 -2.52,8.64 1.25,3.21 4.66,1.26 7.13,1.1 2.22,-0.33 5.61,1.09 4.85,3.86 -1.51,4.84 -5.79,8.49 -10.26,10.6 -3.99,1.89 -8.56,0.93 -12.25,-1.17 2.71,-3.14 4.38,-7.18 4.19,-11.37 -0.34,-3.12 -2.18,-6.61 -5.6,-7.03 -3.71,-1.09 -7.87,1.08 -9.17,4.69 -1.33,2.49 -0.73,5.32 -0.21,7.94 -4.54,0.11 -9.35,-1.49 -11.86,-5.51 -4.01,-5 -2.61,-12.76 2.21,-16.71 3.47,0.45 3.57,5.7 6.98,6.6 1.95,0.64 4.02,-0.4 5.21,-1.94 2.24,-2.46 1.71,-6.15 0.74,-9.04 -1.64,-4.21 -6.02,-6.08 -9.57,-8.34 -3.05,-1.84 -3.89,-5.55 -5.37,-8.53 -4.51,2 -8.88,4.63 -13.85,5.3 -3.48,0.55 -7.62,0.56 -10.02,3.58 -2.3,2.52 -2.05,7.09 0.99,8.9 3.1,0.94 6.55,-1.04 9.61,0.33 3.5,3 2.98,8.56 0.64,12.14 -3.75,5.54 -11.33,7.92 -17.59,5.47 1.33,-2.09 2.92,-4.23 2.97,-6.81 0.76,-5.45 -4.07,-11.19 -9.68,-10.65 -4.11,0.31 -6.67,4.24 -7.57,7.9 -1.05,3.05 2.15,5.95 0.85,8.95 -0.71,1.64 -2.68,1.96 -4.22,1.41 -9.27,-3.28 -15.04,-14.24 -12.06,-23.68 0.69,-2.4 4.34,-2.89 5.5,-0.64 1.32,1.54 1.87,4.69 4.48,4.32 4.8,-0.84 7.55,-6.84 5.46,-11.17 -1.16,-3.34 -3.6,-6.54 -7.36,-6.95 -5.06,-0.71 -9.31,-3.6 -13.19,-6.72 -2.32,1.71 -4.59,3.53 -7.16,4.86 m -155.93,18.41 c 2.19,10.8 4.3,21.7 4.3,32.78 -0.25,5.31 -1.77,10.45 -3.57,15.42 -3.74,11.15 -2.57,23.31 0.24,34.54 0.62,2.49 0.55,5.07 0.48,7.62 -5.96,-4.25 -11.04,-9.8 -14.56,-16.22 -4.17,-7.96 -3.54,-17.14 -5.16,-25.73 -6.72,2.65 -11.2,9.27 -12.15,16.32 -1.84,8.4 0.05,17.51 5.51,24.22 8.9,10.8 19.64,20.27 26.14,32.86 0.43,3.96 0.13,7.95 0.2,11.93 -4.89,-2.59 -9.69,-5.62 -13.21,-9.96 -6.33,-7.43 -9.7,-16.9 -10.69,-26.52 -4.48,1.72 -8.59,4.94 -10.37,9.52 -1.96,5.17 -0.9,10.88 0.83,15.96 1.67,5.16 5.31,9.31 8.5,13.58 7.09,8.99 16.94,15.23 24.26,23.99 0.05,7.88 0.4,15.76 0.35,23.65 -7.85,-5.08 -14.54,-12.34 -17.77,-21.22 -2.13,-5.91 -3.09,-12.16 -4,-18.35 -5.85,2.13 -8.31,8.51 -9.79,14.05 -2.47,8.57 -2.04,18.89 4.3,25.74 8.7,9.34 18.42,17.78 26.09,28.06 0.85,3.46 0.37,7.14 0.7,10.69 -10.41,-6.68 -22.17,-13.17 -27.69,-24.85 -2.14,-5.22 -3.73,-10.7 -6.99,-15.38 -3.27,4.13 -5.28,9.11 -6.21,14.27 -1.63,8.57 2.54,17.85 9.89,22.49 8.16,6.21 16.91,11.61 24.81,18.16 3.08,2.55 5.84,6.1 5.81,10.3 0.28,4.9 0.56,9.8 0.76,14.72 -8.86,-5.1 -17.25,-11.07 -25.09,-17.63 -4.69,-3.78 -7.73,-9.2 -9.48,-14.89 -4.64,5.73 -6.89,13.61 -4.8,20.81 3.34,11.43 12.92,20.22 23.7,24.73 5.95,2.74 12.87,3.61 17.97,8 2.86,2.27 4.3,5.72 6.39,8.62 9.69,13.81 22.09,26 37.09,33.92 14.7,8.41 31.27,13.97 48.29,14.4 14.16,0.88 28.39,1.43 42.52,-0.19 -8.47,7.24 -18.26,12.83 -26.18,20.73 -2.29,2.43 -4.25,5.38 -4.56,8.8 -0.5,6.24 3.46,13.64 10.29,14.11 4.41,0.85 8.52,-1.88 10.71,-5.53 7.28,-11.94 16.21,-23.45 28.28,-30.85 3.71,-2.63 8.92,-3.22 12.85,-0.7 12.68,7.28 21.97,19.18 29.48,31.49 2.2,3.65 6.27,6.41 10.7,5.6 6.85,-0.41 10.86,-7.87 10.35,-14.12 -0.56,-5.47 -4.87,-9.41 -8.87,-12.69 -6.89,-6.11 -14.91,-10.74 -21.8,-16.85 10.05,1.02 20.16,1.38 30.25,0.81 9.77,-0.63 19.69,-0.42 29.27,-2.74 14.32,-3.05 27.64,-9.59 39.88,-17.49 12.96,-8.9 23.76,-20.81 31.96,-34.19 2.77,-4.06 7.35,-6.37 11.91,-7.84 7.33,-2.45 14.77,-5.28 20.71,-10.4 4.82,-4.35 9.22,-9.48 11.31,-15.74 2.98,-7.62 0.9,-16.51 -4.23,-22.69 -1.71,5.7 -4.78,11.13 -9.46,14.91 -7.85,6.55 -16.25,12.5 -25.08,17.63 0.2,-4.94 0.48,-9.88 0.76,-14.81 -0.02,-4.22 2.81,-7.78 5.94,-10.32 7.83,-6.53 16.55,-11.86 24.64,-18.04 7.17,-4.51 11.33,-13.42 10.03,-21.8 -0.84,-5.41 -2.89,-10.67 -6.32,-14.97 -3.26,4.67 -4.86,10.15 -6.99,15.36 -5.52,11.68 -17.26,18.15 -27.67,24.85 0.29,-3.56 -0.15,-7.26 0.72,-10.73 7.69,-10.2 17.34,-18.66 26.02,-27.96 6.34,-6.87 6.84,-17.22 4.34,-25.82 -1.49,-5.52 -3.94,-11.9 -9.78,-14.03 -0.86,5.95 -1.85,11.92 -3.75,17.64 -3.12,9.19 -9.98,16.75 -18.08,21.91 0.05,-7.89 0.3,-15.78 0.42,-23.67 8.09,-9.51 18.98,-16.31 26.3,-26.54 5.46,-6.63 9.24,-15.25 8.06,-23.98 -0.85,-5.93 -5.7,-10.51 -11.16,-12.48 -1.2,15.14 -9.77,30.12 -23.95,36.49 0.1,-3.97 -0.15,-7.95 0.21,-11.91 6.22,-11.93 16.13,-21.18 24.88,-31.2 5.96,-6.73 8.83,-16.12 6.96,-24.99 -0.79,-7.37 -5.24,-14.51 -12.32,-17.26 -1.14,5.82 -0.96,11.81 -2.36,17.59 -1.97,10.15 -9.24,18.42 -17.36,24.38 -0.09,-2.54 -0.14,-5.11 0.49,-7.6 2.3,-9.07 3.39,-18.61 1.92,-27.91 -0.78,-5.59 -3.52,-10.65 -4.47,-16.2 -1.58,-6.53 -0.18,-13.21 0.24,-19.77 0.41,-6.41 2.33,-12.57 3.33,-18.88 -7.29,0 -14.85,2.84 -19.37,8.75 -4.68,6.14 -8.31,13.34 -8.99,21.12 -1.92,12.33 1.92,24.75 7.36,35.71 3.84,9.09 9.62,17.79 10.04,27.94 -3.86,-1.57 -7.6,-3.56 -10.66,-6.43 -4.98,-4.69 -9.78,-9.82 -12.64,-16.11 -2.77,-6.18 -4.28,-12.87 -4.69,-19.62 -2.6,1.11 -5.37,2.42 -6.76,5.05 -4.87,9.53 -4.46,21.47 1.15,30.61 8.25,14.99 23.45,24.24 32.91,38.27 0.33,4.7 -0.16,9.44 -0.13,14.16 -10.66,-4.19 -18.67,-13.13 -24.08,-22.98 -2.98,-6.53 -5.43,-13.33 -9.39,-19.37 -7.68,8.89 -7.53,22.57 -1.72,32.4 5.64,9.21 15.19,14.84 22.19,22.86 4.86,5.52 10.99,10.33 13.71,17.38 0.35,5.66 0.21,11.34 0.35,17.01 -6.38,-4.6 -12.89,-9.55 -16.79,-16.55 -4.61,-7.21 -7.76,-15.44 -8.09,-24.05 -6.5,2.37 -9.76,9.14 -10.59,15.61 -1.74,8.28 1.58,16.79 7.06,22.97 7.15,7.85 13.83,16.14 21.4,23.61 2.82,3.15 6.29,6.18 7.17,10.53 0.64,2.35 0.26,4.79 -0.03,7.18 -6.89,-6.12 -13.78,-12.25 -21.04,-17.93 -6.03,-5 -11.75,-10.81 -14.81,-18.15 -1.12,-2.68 -2.32,-5.33 -3.73,-7.87 -6.93,10.68 -6.29,26.5 2.91,35.7 4.9,5.73 12.03,8.63 18.06,12.92 8,4.5 14.07,11.89 17.84,20.18 3.47,7.82 2.11,17.12 -2.15,24.35 -1.4,-4.01 -3.29,-7.92 -6.25,-11.03 -6.19,-6.79 -11.79,-14.17 -18.84,-20.13 -7.24,-6.32 -12.69,-14.55 -15.62,-23.71 -5.67,9.38 -7.18,21.5 -2.42,31.58 3.49,8.42 11.25,14.11 19.04,18.28 7.1,3.39 13.41,8.46 18.33,14.58 0.21,4.23 -1.98,8.21 -4.57,11.4 -4.12,4.58 -8.51,9.01 -13.74,12.33 -9.52,6.97 -19.92,12.79 -30.97,16.96 -13.07,4.36 -26.98,5.94 -40.72,5.47 -11.34,-0.39 -22.69,-0.64 -34.03,0.03 -9.35,0.42 -18.72,1.52 -28.09,0.67 -13.58,-0.93 -27.21,-1.41 -40.82,-0.86 -19.76,1 -40.41,-1.17 -58.04,-10.79 -11.64,-6.18 -23.15,-13.33 -31.93,-23.31 -2.83,-3.29 -5.18,-7.47 -5,-11.92 4.93,-6.11 11.24,-11.18 18.33,-14.57 8.43,-4.47 16.76,-10.89 19.83,-20.31 3.79,-9.53 2.18,-20.78 -3.28,-29.32 -2.97,9.09 -8.4,17.25 -15.6,23.54 -6.88,5.82 -12.35,13.04 -18.43,19.66 -3.12,3.21 -5.18,7.25 -6.62,11.46 -3.96,-6.75 -5.44,-15.28 -2.77,-22.76 1.89,-5.06 4.97,-9.62 8.45,-13.71 6.66,-7.42 16.17,-11.24 24.03,-17.13 5.1,-4.33 9.8,-9.85 10.83,-16.67 1.54,-7.36 0.72,-15.46 -3.29,-21.92 -0.25,-0.06 -0.77,-0.18 -1.03,-0.24 -2.05,3.6 -3.2,7.64 -5.33,11.21 -3.62,6.16 -8.96,11.08 -14.52,15.47 -6.64,5.27 -12.96,10.92 -19.31,16.55 -0.3,-2.62 -0.65,-5.34 0.17,-7.9 0.99,-3.78 3.99,-6.47 6.49,-9.29 7.71,-7.67 14.6,-16.1 21.91,-24.14 5.2,-5.93 8.5,-13.89 7.23,-21.85 -0.72,-6.83 -3.88,-14.2 -10.77,-16.76 -0.37,8.61 -3.44,16.89 -8.08,24.09 -3.93,6.95 -10.38,11.93 -16.76,16.51 0.09,-5.65 -0.03,-11.31 0.31,-16.95 1.24,-3.45 3.53,-6.42 5.93,-9.15 6.17,-6.47 12.08,-13.26 19.07,-18.89 5.21,-4.82 10.65,-9.97 13.04,-16.84 3.65,-9 2.62,-20.31 -3.85,-27.79 -3.98,6.03 -6.42,12.84 -9.38,19.38 -5.33,9.92 -13.48,18.74 -24.1,22.99 -0.13,-4.73 -0.22,-9.47 -0.25,-14.2 5.17,-7.42 11.78,-13.62 18.26,-19.87 7.28,-7.49 14.71,-15.53 17.97,-25.67 2.45,-7.28 1.4,-15.25 -1.4,-22.26 -1.27,-3.14 -4.36,-4.88 -7.34,-6.09 -0.76,9.3 -3.14,18.83 -8.83,26.41 -5.16,6.54 -11.2,12.85 -19.22,15.75 0.26,-2.61 0.46,-5.26 1.25,-7.77 4.13,-12.7 12.13,-23.91 15.04,-37.04 3.37,-12.68 1.58,-26.99 -6.22,-37.74 -4.39,-7.16 -12.73,-11.08 -21,-11 m 709.26,1.68 c -14,0.96 -28.03,1.91 -42.05,1.33 -12.59,-1.6 -25.54,-2.87 -38.06,-0.09 -4.13,0.66 -7.58,3.41 -10.25,6.48 -1.84,3.21 -2.1,7.56 -0.21,10.81 4.5,4.96 12.01,6.45 15.15,12.76 4.92,7.35 4.44,16.46 4.62,24.91 0.08,32.64 -0.01,65.28 0.04,97.92 0.09,5.39 -0.81,10.72 -1.4,16.05 -0.86,7.66 -2.21,15.79 -7.77,21.58 12.72,0.62 25.87,2.12 37.34,8.06 4.07,2.39 8.4,4.82 11.12,8.81 2.64,4.29 4.37,9.14 4.98,14.16 7.71,-0.77 15.4,-1.98 22.84,-4.19 -0.29,-3.12 0.4,-6.15 1.2,-9.14 0.31,-3.58 0.06,-7.19 0.12,-10.78 -2.58,-2.18 -5.31,-4.24 -7.54,-6.78 -1.86,-3.49 -3.06,-7.38 -3.43,-11.33 -1.59,-13.74 -1.93,-27.61 -1.55,-41.43 0.24,-3.33 0.13,-6.91 1.84,-9.89 2.81,-4.08 7.95,-6.3 12.83,-6.09 6.12,0.71 12.45,2.65 16.92,7.09 9.74,11.26 11.17,26.78 14.34,40.73 1.81,7.92 3.81,15.85 6.95,23.37 13.65,-0.33 27.47,-0.74 40.95,1.85 6.77,1.69 14.64,3.98 17.96,10.78 2.48,5.62 2.12,12.07 1.74,18.07 8.48,-1.74 18.78,-5.17 21.65,-14.31 0.59,-3.32 1.79,-7.72 -0.65,-10.49 -5.68,-2.08 -11.51,-4.55 -15.61,-9.17 -2.28,-3.87 -2.75,-8.46 -3.55,-12.79 -1.49,-10.86 -2.8,-21.84 -6.28,-32.28 -2.88,-8.51 -7.3,-17.16 -15.2,-22.02 -4.84,-3.49 -11.31,-4.07 -15.58,-8.4 -3.56,-3.51 -4.92,-9.68 -1.86,-13.92 2.46,-3.97 7.39,-4.98 10.57,-8.17 10.99,-10.22 16.38,-25.54 16.19,-40.37 0.09,-14.23 -4.93,-29 -15.72,-38.65 -6.61,-5.62 -14.44,-9.78 -22.73,-12.31 -16.17,-5.06 -33.31,-3.46 -49.91,-2.16 M 761.41,401.72 c -10.2,0.7 -20.58,1.8 -30.16,5.58 -3.89,1.63 -8.11,3.91 -9.71,8.06 -0.87,2.46 -1.09,6.18 1.79,7.39 4.08,1.89 8.83,1.86 12.77,4.17 7.49,3.87 10.77,12.11 15.06,18.86 16.8,34.24 33.43,68.56 50.16,102.83 4.78,9.91 9.83,19.69 14.12,29.82 1.73,4.85 7.12,6.34 11.58,7.58 5.1,0.97 10.94,1.15 15.53,-1.6 7.04,-7.71 11.68,-17.21 16.54,-26.36 19.16,-36.14 38.33,-72.28 57.5,-108.42 5.29,-9.69 9.7,-20.4 18.45,-27.57 5.51,-3.52 12.4,-3.02 18.51,-4.8 5.17,-1.46 4.61,-10.06 -0.12,-11.76 -7.28,-3.31 -15.43,-3.65 -23.29,-4 -12.69,-0.39 -25.52,-0.41 -38.02,2.05 -4.32,1.02 -8.93,2.14 -12.26,5.25 -2.07,1.84 -2.59,5.71 0.01,7.33 3.96,2.66 9.2,3.95 11.58,8.51 3.1,5.19 0.26,11.25 -1.84,16.24 -4.84,9.75 -9.82,19.44 -14.32,29.36 -2.8,6.2 -6.09,12.25 -10.75,17.28 -4.52,5.93 -14.04,7.51 -20.01,2.89 -3.85,-2.92 -6.39,-7.17 -8.42,-11.47 -5.81,-12.2 -11.81,-24.32 -17.56,-36.55 -1.55,-4.65 -3.99,-9.89 -1.85,-14.74 2.33,-5.21 8.34,-6.92 11.74,-11.18 1.87,-2.05 1.08,-5.32 -0.99,-6.9 -6.96,-5.74 -16.3,-6.63 -24.93,-7.4 C 788.85,401.2 775.1,401 761.41,401.72 M 648.95,541.85 c -4.64,1.67 -6.14,7.77 -3.35,11.62 3.14,2.9 7.29,4.67 9.9,8.17 2.31,2.53 2.79,6.06 3.73,9.23 1.84,8.24 1.92,16.75 2.01,25.16 0.07,13.3 -0.2,26.61 -1,39.9 -0.13,11.02 -0.54,22.07 -2.05,33.01 -0.35,5.96 -0.68,12.19 -3.56,17.58 -2.53,4.36 -7.21,6.49 -11.37,8.93 0.12,1.99 -0.1,4.25 1.31,5.9 2.21,2.56 5.75,3.28 8.93,3.92 7.59,1.15 15.35,0.94 22.94,-0.13 3.67,-0.67 7.62,-1.45 10.5,-4.01 1.9,-1.74 1.85,-4.63 1.16,-6.91 -3.06,-2.46 -6.9,-3.84 -9.68,-6.67 -2.93,-8.17 -2.5,-16.98 -2.56,-25.52 0.07,-9.34 -0.12,-18.69 0.09,-28.03 0,-5.37 4.4,-10.65 10.01,-10.36 5.47,-0.2 9.34,4.56 11.15,9.22 8.44,21.94 15.44,44.48 25.7,65.69 3.44,-4.43 4.7,-9.99 6.75,-15.1 4.97,-13.01 9.54,-26.19 15.09,-38.98 2.6,-6.61 5.19,-14.52 12.44,-17.36 5.94,-2.78 13.22,2.58 12.93,8.95 1.74,12.65 0.42,25.41 -0.26,38.08 -0.63,4.47 -1.77,9.16 -4.85,12.61 -2.69,2.99 -5.56,5.86 -7.66,9.31 -0.38,2.34 1.1,4.54 3.07,5.68 4.93,3.14 10.97,3.35 16.61,3.89 9.98,0.49 20.05,0.89 29.97,-0.57 3.99,-0.58 8.56,-0.62 11.72,-3.5 2.98,-2.55 3.83,-7.53 1.35,-10.69 -3.1,-3.05 -8,-4.76 -9.35,-9.24 -2.48,-8.65 -2.86,-17.7 -3.39,-26.63 -1,-20.9 -0.31,-41.83 -0.65,-62.74 -3.52,-6.67 -5.43,-13.99 -7.31,-21.25 -2.81,-6.74 -6.33,-13.16 -9.43,-19.77 -2.2,-4.16 -3.64,-8.84 -7.04,-12.25 -8.52,1.33 -12.52,9.7 -15.18,16.93 -7.26,14.45 -12.7,29.73 -19.21,44.53 -1.64,2.92 -3.29,5.86 -5.32,8.54 -3.04,4.18 -9.29,4.35 -13.61,2.3 -3.2,-2.16 -5.27,-5.61 -7.02,-8.97 -7.75,-17.45 -15.78,-34.78 -23.63,-52.18 -1.62,-3.3 -3.12,-6.78 -5.63,-9.5 -2.4,-1.55 -5.29,-2.04 -8.06,-2.45 -12.13,-1.5 -24.66,-0.43 -36.19,3.66 z"
       id="path10"
       inkscape:connector-curvature="0"
       style="fill:#ffffff" />
    <path
       d="m 865.41,221.56 c 8.44,-2.37 18.43,0.03 24.12,6.92 5.88,7.09 7.33,16.65 7.77,25.56 0.47,10.73 -0.33,22.33 -6.8,31.35 -4.66,7 -13.34,10.06 -21.45,10.26 -4.5,0.23 -9.55,-0.5 -12.79,-3.92 -2.67,-3.66 -3.43,-8.33 -3.22,-12.77 0.69,-14.01 1.53,-28.02 2.2,-42.03 0.37,-6.32 3.61,-13.5 10.17,-15.37 z"
       id="path12"
       inkscape:connector-curvature="0"
       style="fill:#ffffff" />
  </g>
  <g
     id="#ef3b33ff"
     transform="translate(-29.876587,-22.74)">
    <path
       d="m 706.88,148.36 c 20.93,2.76 41.96,5.03 62.96,6.92 l 0.8,0.59 c -5.69,9.34 -10.8,19.02 -16.26,28.5 -21.21,37.58 -42.43,75.14 -63.61,112.73 26.91,-8.01 53.79,-16.16 80.7,-24.19 -71.9,126.05 -143.82,252.08 -215.76,378.1 -7.83,-25.46 -15.65,-50.92 -23.51,-76.37 -24.61,43.32 -49.2,86.64 -73.75,129.99 8.44,5.56 16.88,11.13 25.28,16.75 -31.06,10.59 -62.17,21.01 -93.24,31.58 -1.44,-32.08 -2.91,-64.15 -4.32,-96.23 7.72,5.08 15.38,10.25 23.1,15.33 44.39,-77.77 88.74,-155.57 133.17,-233.32 7.85,25.66 15.65,51.34 23.52,77 29.32,-52.03 58.65,-104.07 87.94,-156.13 -26.88,8.26 -53.74,16.6 -80.61,24.87 44.52,-78.71 89.05,-157.42 133.59,-236.12 z"
       id="path15"
       inkscape:connector-curvature="0"
       style="fill:#ef3b33" />
    <path
       d="m 235.69,265.69 c 58.81,-0.03 117.62,-0.04 176.43,0 0.05,71.77 0.03,143.55 -0.11,215.32 -0.16,5.28 -2.87,11 -7.95,13.17 -9.27,4.31 -19.83,2.93 -29.55,1.18 -10.97,-1.9 -22.44,-4.74 -33.45,-1.58 -6.84,1.82 -12.3,6.59 -17.15,11.51 -4.95,-5.07 -10.6,-9.88 -17.63,-11.66 -12.03,-3.18 -24.32,0.41 -36.25,2.28 -9.15,1.54 -19.19,2.17 -27.6,-2.44 -5.58,-3.31 -7.13,-10.44 -6.59,-16.48 -0.2,-70.43 -0.21,-140.87 -0.15,-211.3 m 58.23,18.92 c 1.29,2.26 2.83,4.66 2.36,7.4 -0.1,2.32 -1.8,4.58 -4.29,4.5 -4.09,-0.11 -8.22,-1.1 -11.57,-3.53 0.99,4.44 1.29,9.07 -0.44,13.38 -4.73,0.88 -8.29,-3.09 -12.18,-5.06 1.56,3.66 2.79,7.92 1.32,11.8 -0.44,1.42 -2.24,2.53 -3.53,1.37 -3.07,-2.03 -6.01,-4.31 -9.47,-5.67 -0.68,4.55 0.96,9.63 -1.3,13.82 -4.23,1.24 -7.71,-2.68 -11.25,-4.36 -1.41,9.33 0.78,20.2 8.51,26.34 11.02,-3.36 19.92,-10.83 29.61,-16.72 13.19,19.12 26.38,38.24 39.58,57.35 -21.74,31.3 -43.67,62.46 -65.38,93.78 1.98,1.45 3.99,2.87 6.03,4.23 21.45,-30.77 42.75,-61.63 64.17,-92.41 16.02,20.37 31.84,40.9 47.78,61.33 7.74,9.69 14.97,19.81 23.04,29.22 1.21,-1.75 2.41,-3.51 3.61,-5.25 -23.17,-30.95 -46.44,-61.82 -69.59,-92.78 10.79,-15.47 21.62,-30.91 32.37,-46.41 6.45,0.54 12.95,1.74 19.43,0.7 6.13,-1.62 12.04,-4.78 16.08,-9.77 4.98,-5.98 6.91,-14.53 4.41,-21.96 -3.06,8.41 -11.66,14.86 -20.76,14.43 0.03,-0.57 0.1,-1.72 0.13,-2.29 3.09,-7.02 4.84,-14.53 8.39,-21.37 -4.31,3.43 -8.6,6.9 -12.33,10.96 -2.49,2.16 -5.06,5.28 -8.71,4.9 -0.14,-4.16 -0.87,-8.44 0.34,-12.51 1.21,-4.53 4.14,-8.29 6.03,-12.52 -6.37,0.99 -12.42,4.36 -16.42,9.45 -4.69,6.13 -6.69,14.19 -5.57,21.81 1.2,4.69 2.74,9.37 3.61,14.11 -10.35,15.15 -21.23,29.96 -31.83,44.95 -12.42,-18.09 -24.91,-36.14 -37.26,-54.29 4.76,-3.07 9.07,-6.73 13.2,-10.6 5.12,-3.88 8.54,-9.41 13.06,-13.9 -4.88,-7.29 -12.42,-12.93 -21.18,-14.43 z"
       id="path17"
       inkscape:connector-curvature="0"
       style="fill:#ef3b33" />
    <path
       d="m 761.41,401.72 c 13.69,-0.72 27.44,-0.52 41.11,0.45 8.63,0.77 17.97,1.66 24.93,7.4 2.07,1.58 2.86,4.85 0.99,6.9 -3.4,4.26 -9.41,5.97 -11.74,11.18 -2.14,4.85 0.3,10.09 1.85,14.74 5.75,12.23 11.75,24.35 17.56,36.55 2.03,4.3 4.57,8.55 8.42,11.47 5.97,4.62 15.49,3.04 20.01,-2.89 4.66,-5.03 7.95,-11.08 10.75,-17.28 4.5,-9.92 9.48,-19.61 14.32,-29.36 2.1,-4.99 4.94,-11.05 1.84,-16.24 -2.38,-4.56 -7.62,-5.85 -11.58,-8.51 -2.6,-1.62 -2.08,-5.49 -0.01,-7.33 3.33,-3.11 7.94,-4.23 12.26,-5.25 12.5,-2.46 25.33,-2.44 38.02,-2.05 7.86,0.35 16.01,0.69 23.29,4 4.73,1.7 5.29,10.3 0.12,11.76 -6.11,1.78 -13,1.28 -18.51,4.8 -8.75,7.17 -13.16,17.88 -18.45,27.57 -19.17,36.14 -38.34,72.28 -57.5,108.42 -4.86,9.15 -9.5,18.65 -16.54,26.36 -4.59,2.75 -10.43,2.57 -15.53,1.6 -4.46,-1.24 -9.85,-2.73 -11.58,-7.58 -4.29,-10.13 -9.34,-19.91 -14.12,-29.82 -16.73,-34.27 -33.36,-68.59 -50.16,-102.83 -4.29,-6.75 -7.57,-14.99 -15.06,-18.86 -3.94,-2.31 -8.69,-2.28 -12.77,-4.17 -2.88,-1.21 -2.66,-4.93 -1.79,-7.39 1.6,-4.15 5.82,-6.43 9.71,-8.06 9.58,-3.78 19.96,-4.88 30.16,-5.58 z"
       id="path19"
       inkscape:connector-curvature="0"
       style="fill:#ef3b33" />
  </g>
  <g
     id="#24923dff"
     transform="translate(-29.876587,-22.74)">
    <path
       d="m 160.83,195.16 c 8.27,-0.08 16.61,3.84 21,11 7.8,10.75 9.59,25.06 6.22,37.74 -2.91,13.13 -10.91,24.34 -15.04,37.04 -0.79,2.51 -0.99,5.16 -1.25,7.77 8.02,-2.9 14.06,-9.21 19.22,-15.75 5.69,-7.58 8.07,-17.11 8.83,-26.41 2.98,1.21 6.07,2.95 7.34,6.09 2.8,7.01 3.85,14.98 1.4,22.26 -3.26,10.14 -10.69,18.18 -17.97,25.67 -6.48,6.25 -13.09,12.45 -18.26,19.87 0.03,4.73 0.12,9.47 0.25,14.2 10.62,-4.25 18.77,-13.07 24.1,-22.99 2.96,-6.54 5.4,-13.35 9.38,-19.38 6.47,7.48 7.5,18.79 3.85,27.79 -2.39,6.87 -7.83,12.02 -13.04,16.84 -6.99,5.63 -12.9,12.42 -19.07,18.89 -2.4,2.73 -4.69,5.7 -5.93,9.15 -0.34,5.64 -0.22,11.3 -0.31,16.95 6.38,-4.58 12.83,-9.56 16.76,-16.51 4.64,-7.2 7.71,-15.48 8.08,-24.09 6.89,2.56 10.05,9.93 10.77,16.76 1.27,7.96 -2.03,15.92 -7.23,21.85 -7.31,8.04 -14.2,16.47 -21.91,24.14 -2.5,2.82 -5.5,5.51 -6.49,9.29 -0.82,2.56 -0.47,5.28 -0.17,7.9 6.35,-5.63 12.67,-11.28 19.31,-16.55 5.56,-4.39 10.9,-9.31 14.52,-15.47 2.13,-3.57 3.28,-7.61 5.33,-11.21 0.26,0.06 0.78,0.18 1.03,0.24 4.01,6.46 4.83,14.56 3.29,21.92 -1.03,6.82 -5.73,12.34 -10.83,16.67 -7.86,5.89 -17.37,9.71 -24.03,17.13 -3.48,4.09 -6.56,8.65 -8.45,13.71 -2.67,7.48 -1.19,16.01 2.77,22.76 1.44,-4.21 3.5,-8.25 6.62,-11.46 6.08,-6.62 11.55,-13.84 18.43,-19.66 7.2,-6.29 12.63,-14.45 15.6,-23.54 5.46,8.54 7.07,19.79 3.28,29.32 -3.07,9.42 -11.4,15.84 -19.83,20.31 -7.09,3.39 -13.4,8.46 -18.33,14.57 -0.18,4.45 2.17,8.63 5,11.92 8.78,9.98 20.29,17.13 31.93,23.31 17.63,9.62 38.28,11.79 58.04,10.79 13.61,-0.55 27.24,-0.07 40.82,0.86 9.37,0.85 18.74,-0.25 28.09,-0.67 11.34,-0.67 22.69,-0.42 34.03,-0.03 13.74,0.47 27.65,-1.11 40.72,-5.47 11.05,-4.17 21.45,-9.99 30.97,-16.96 5.23,-3.32 9.62,-7.75 13.74,-12.33 2.59,-3.19 4.78,-7.17 4.57,-11.4 -4.92,-6.12 -11.23,-11.19 -18.33,-14.58 -7.79,-4.17 -15.55,-9.86 -19.04,-18.28 -4.76,-10.08 -3.25,-22.2 2.42,-31.58 2.93,9.16 8.38,17.39 15.62,23.71 7.05,5.96 12.65,13.34 18.84,20.13 2.96,3.11 4.85,7.02 6.25,11.03 4.26,-7.23 5.62,-16.53 2.15,-24.35 -3.77,-8.29 -9.84,-15.68 -17.84,-20.18 -6.03,-4.29 -13.16,-7.19 -18.06,-12.92 -9.2,-9.2 -9.84,-25.02 -2.91,-35.7 1.41,2.54 2.61,5.19 3.73,7.87 3.06,7.34 8.78,13.15 14.81,18.15 7.26,5.68 14.15,11.81 21.04,17.93 0.29,-2.39 0.67,-4.83 0.03,-7.18 -0.88,-4.35 -4.35,-7.38 -7.17,-10.53 -7.57,-7.47 -14.25,-15.76 -21.4,-23.61 -5.48,-6.18 -8.8,-14.69 -7.06,-22.97 0.83,-6.47 4.09,-13.24 10.59,-15.61 0.33,8.61 3.48,16.84 8.09,24.05 3.9,7 10.41,11.95 16.79,16.55 -0.14,-5.67 0,-11.35 -0.35,-17.01 -2.72,-7.05 -8.85,-11.86 -13.71,-17.38 -7,-8.02 -16.55,-13.65 -22.19,-22.86 -5.81,-9.83 -5.96,-23.51 1.72,-32.4 3.96,6.04 6.41,12.84 9.39,19.37 5.41,9.85 13.42,18.79 24.08,22.98 -0.03,-4.72 0.46,-9.46 0.13,-14.16 -9.46,-14.03 -24.66,-23.28 -32.91,-38.27 -5.61,-9.14 -6.02,-21.08 -1.15,-30.61 1.39,-2.63 4.16,-3.94 6.76,-5.05 0.41,6.75 1.92,13.44 4.69,19.62 2.86,6.29 7.66,11.42 12.64,16.11 3.06,2.87 6.8,4.86 10.66,6.43 -0.42,-10.15 -6.2,-18.85 -10.04,-27.94 -5.44,-10.96 -9.28,-23.38 -7.36,-35.71 0.68,-7.78 4.31,-14.98 8.99,-21.12 4.52,-5.91 12.08,-8.75 19.37,-8.75 -1,6.31 -2.92,12.47 -3.33,18.88 -0.42,6.56 -1.82,13.24 -0.24,19.77 0.95,5.55 3.69,10.61 4.47,16.2 1.47,9.3 0.38,18.84 -1.92,27.91 -0.63,2.49 -0.58,5.06 -0.49,7.6 8.12,-5.96 15.39,-14.23 17.36,-24.38 1.4,-5.78 1.22,-11.77 2.36,-17.59 7.08,2.75 11.53,9.89 12.32,17.26 1.87,8.87 -1,18.26 -6.96,24.99 -8.75,10.02 -18.66,19.27 -24.88,31.2 -0.36,3.96 -0.11,7.94 -0.21,11.91 14.18,-6.37 22.75,-21.35 23.95,-36.49 5.46,1.97 10.31,6.55 11.16,12.48 1.18,8.73 -2.6,17.35 -8.06,23.98 -7.32,10.23 -18.21,17.03 -26.3,26.54 -0.12,7.89 -0.37,15.78 -0.42,23.67 8.1,-5.16 14.96,-12.72 18.08,-21.91 1.9,-5.72 2.89,-11.69 3.75,-17.64 5.84,2.13 8.29,8.51 9.78,14.03 2.5,8.6 2,18.95 -4.34,25.82 -8.68,9.3 -18.33,17.76 -26.02,27.96 -0.87,3.47 -0.43,7.17 -0.72,10.73 10.41,-6.7 22.15,-13.17 27.67,-24.85 2.13,-5.21 3.73,-10.69 6.99,-15.36 3.43,4.3 5.48,9.56 6.32,14.97 1.3,8.38 -2.86,17.29 -10.03,21.8 -8.09,6.18 -16.81,11.51 -24.64,18.04 -3.13,2.54 -5.96,6.1 -5.94,10.32 -0.28,4.93 -0.56,9.87 -0.76,14.81 8.83,-5.13 17.23,-11.08 25.08,-17.63 4.68,-3.78 7.75,-9.21 9.46,-14.91 5.13,6.18 7.21,15.07 4.23,22.69 -2.09,6.26 -6.49,11.39 -11.31,15.74 -5.94,5.12 -13.38,7.95 -20.71,10.4 -4.56,1.47 -9.14,3.78 -11.91,7.84 -8.2,13.38 -19,25.29 -31.96,34.19 -12.24,7.9 -25.56,14.44 -39.88,17.49 -9.58,2.32 -19.5,2.11 -29.27,2.74 -10.09,0.57 -20.2,0.21 -30.25,-0.81 6.89,6.11 14.91,10.74 21.8,16.85 4,3.28 8.31,7.22 8.87,12.69 0.51,6.25 -3.5,13.71 -10.35,14.12 -4.43,0.81 -8.5,-1.95 -10.7,-5.6 -7.51,-12.31 -16.8,-24.21 -29.48,-31.49 -3.93,-2.52 -9.14,-1.93 -12.85,0.7 -12.07,7.4 -21,18.91 -28.28,30.85 -2.19,3.65 -6.3,6.38 -10.71,5.53 -6.83,-0.47 -10.79,-7.87 -10.29,-14.11 0.31,-3.42 2.27,-6.37 4.56,-8.8 7.92,-7.9 17.71,-13.49 26.18,-20.73 -14.13,1.62 -28.36,1.07 -42.52,0.19 -17.02,-0.43 -33.59,-5.99 -48.29,-14.4 -15,-7.92 -27.4,-20.11 -37.09,-33.92 -2.09,-2.9 -3.53,-6.35 -6.39,-8.62 -5.1,-4.39 -12.02,-5.26 -17.97,-8 -10.78,-4.51 -20.36,-13.3 -23.7,-24.73 -2.09,-7.2 0.16,-15.08 4.8,-20.81 1.75,5.69 4.79,11.11 9.48,14.89 7.84,6.56 16.23,12.53 25.09,17.63 -0.2,-4.92 -0.48,-9.82 -0.76,-14.72 0.03,-4.2 -2.73,-7.75 -5.81,-10.3 -7.9,-6.55 -16.65,-11.95 -24.81,-18.16 -7.35,-4.64 -11.52,-13.92 -9.89,-22.49 0.93,-5.16 2.94,-10.14 6.21,-14.27 3.26,4.68 4.85,10.16 6.99,15.38 5.52,11.68 17.28,18.17 27.69,24.85 -0.33,-3.55 0.15,-7.23 -0.7,-10.69 -7.67,-10.28 -17.39,-18.72 -26.09,-28.06 -6.34,-6.85 -6.77,-17.17 -4.3,-25.74 1.48,-5.54 3.94,-11.92 9.79,-14.05 0.91,6.19 1.87,12.44 4,18.35 3.23,8.88 9.92,16.14 17.77,21.22 0.05,-7.89 -0.3,-15.77 -0.35,-23.65 -7.32,-8.76 -17.17,-15 -24.26,-23.99 -3.19,-4.27 -6.83,-8.42 -8.5,-13.58 -1.73,-5.08 -2.79,-10.79 -0.83,-15.96 1.78,-4.58 5.89,-7.8 10.37,-9.52 0.99,9.62 4.36,19.09 10.69,26.52 3.52,4.34 8.32,7.37 13.21,9.96 -0.07,-3.98 0.23,-7.97 -0.2,-11.93 -6.5,-12.59 -17.24,-22.06 -26.14,-32.86 -5.46,-6.71 -7.35,-15.82 -5.51,-24.22 0.95,-7.05 5.43,-13.67 12.15,-16.32 1.62,8.59 0.99,17.77 5.16,25.73 3.52,6.42 8.6,11.97 14.56,16.22 0.07,-2.55 0.14,-5.13 -0.48,-7.62 -2.81,-11.23 -3.98,-23.39 -0.24,-34.54 1.8,-4.97 3.32,-10.11 3.57,-15.42 0,-11.08 -2.11,-21.98 -4.3,-32.78 z"
       id="path22"
       inkscape:connector-curvature="0"
       style="fill:#24923d" />
  </g>
  <g
     id="#000000ff"
     transform="translate(-29.876587,-22.74)">
    <path
       d="m 870.09,196.84 c 16.6,-1.3 33.74,-2.9 49.91,2.16 8.29,2.53 16.12,6.69 22.73,12.31 10.79,9.65 15.81,24.42 15.72,38.65 0.19,14.83 -5.2,30.15 -16.19,40.37 -3.18,3.19 -8.11,4.2 -10.57,8.17 -3.06,4.24 -1.7,10.41 1.86,13.92 4.27,4.33 10.74,4.91 15.58,8.4 7.9,4.86 12.32,13.51 15.2,22.02 3.48,10.44 4.79,21.42 6.28,32.28 0.8,4.33 1.27,8.92 3.55,12.79 4.1,4.62 9.93,7.09 15.61,9.17 2.44,2.77 1.24,7.17 0.65,10.49 -2.87,9.14 -13.17,12.57 -21.65,14.31 0.38,-6 0.74,-12.45 -1.74,-18.07 -3.32,-6.8 -11.19,-9.09 -17.96,-10.78 -13.48,-2.59 -27.3,-2.18 -40.95,-1.85 -3.14,-7.52 -5.14,-15.45 -6.95,-23.37 -3.17,-13.95 -4.6,-29.47 -14.34,-40.73 -4.47,-4.44 -10.8,-6.38 -16.92,-7.09 -4.88,-0.21 -10.02,2.01 -12.83,6.09 -1.71,2.98 -1.6,6.56 -1.84,9.89 -0.38,13.82 -0.04,27.69 1.55,41.43 0.37,3.95 1.57,7.84 3.43,11.33 2.23,2.54 4.96,4.6 7.54,6.78 -0.06,3.59 0.19,7.2 -0.12,10.78 -0.8,2.99 -1.49,6.02 -1.2,9.14 -7.44,2.21 -15.13,3.42 -22.84,4.19 -0.61,-5.02 -2.34,-9.87 -4.98,-14.16 -2.72,-3.99 -7.05,-6.42 -11.12,-8.81 -11.47,-5.94 -24.62,-7.44 -37.34,-8.06 5.56,-5.79 6.91,-13.92 7.77,-21.58 0.59,-5.33 1.49,-10.66 1.4,-16.05 -0.05,-32.64 0.04,-65.28 -0.04,-97.92 -0.18,-8.45 0.3,-17.56 -4.62,-24.91 -3.14,-6.31 -10.65,-7.8 -15.15,-12.76 -1.89,-3.25 -1.63,-7.6 0.21,-10.81 2.67,-3.07 6.12,-5.82 10.25,-6.48 12.52,-2.78 25.47,-1.51 38.06,0.09 14.02,0.58 28.05,-0.37 42.05,-1.33 m -4.68,24.72 c -6.56,1.87 -9.8,9.05 -10.17,15.37 -0.67,14.01 -1.51,28.02 -2.2,42.03 -0.21,4.44 0.55,9.11 3.22,12.77 3.24,3.42 8.29,4.15 12.79,3.92 8.11,-0.2 16.79,-3.26 21.45,-10.26 6.47,-9.02 7.27,-20.62 6.8,-31.35 -0.44,-8.91 -1.89,-18.47 -7.77,-25.56 -5.69,-6.89 -15.68,-9.29 -24.12,-6.92 z"
       id="path25"
       inkscape:connector-curvature="0"
       style="fill:#000000" />
    <path
       d="m 648.95,541.85 c 11.53,-4.09 24.06,-5.16 36.19,-3.66 2.77,0.41 5.66,0.9 8.06,2.45 2.51,2.72 4.01,6.2 5.63,9.5 7.85,17.4 15.88,34.73 23.63,52.18 1.75,3.36 3.82,6.81 7.02,8.97 4.32,2.05 10.57,1.88 13.61,-2.3 2.03,-2.68 3.68,-5.62 5.32,-8.54 6.51,-14.8 11.95,-30.08 19.21,-44.53 2.66,-7.23 6.66,-15.6 15.18,-16.93 3.4,3.41 4.84,8.09 7.04,12.25 3.1,6.61 6.62,13.03 9.43,19.77 1.88,7.26 3.79,14.58 7.31,21.25 0.34,20.91 -0.35,41.84 0.65,62.74 0.53,8.93 0.91,17.98 3.39,26.63 1.35,4.48 6.25,6.19 9.35,9.24 2.48,3.16 1.63,8.14 -1.35,10.69 -3.16,2.88 -7.73,2.92 -11.72,3.5 -9.92,1.46 -19.99,1.06 -29.97,0.57 -5.64,-0.54 -11.68,-0.75 -16.61,-3.89 -1.97,-1.14 -3.45,-3.34 -3.07,-5.68 2.1,-3.45 4.97,-6.32 7.66,-9.31 3.08,-3.45 4.22,-8.14 4.85,-12.61 0.68,-12.67 2,-25.43 0.26,-38.08 0.29,-6.37 -6.99,-11.73 -12.93,-8.95 -7.25,2.84 -9.84,10.75 -12.44,17.36 -5.55,12.79 -10.12,25.97 -15.09,38.98 -2.05,5.11 -3.31,10.67 -6.75,15.1 -10.26,-21.21 -17.26,-43.75 -25.7,-65.69 -1.81,-4.66 -5.68,-9.42 -11.15,-9.22 -5.61,-0.29 -10.01,4.99 -10.01,10.36 -0.21,9.34 -0.02,18.69 -0.09,28.03 0.06,8.54 -0.37,17.35 2.56,25.52 2.78,2.83 6.62,4.21 9.68,6.67 0.69,2.28 0.74,5.17 -1.16,6.91 -2.88,2.56 -6.83,3.34 -10.5,4.01 -7.59,1.07 -15.35,1.28 -22.94,0.13 -3.18,-0.64 -6.72,-1.36 -8.93,-3.92 -1.41,-1.65 -1.19,-3.91 -1.31,-5.9 4.16,-2.44 8.84,-4.57 11.37,-8.93 2.88,-5.39 3.21,-11.62 3.56,-17.58 1.51,-10.94 1.92,-21.99 2.05,-33.01 0.8,-13.29 1.07,-26.6 1,-39.9 -0.09,-8.41 -0.17,-16.92 -2.01,-25.16 -0.94,-3.17 -1.42,-6.7 -3.73,-9.23 -2.61,-3.5 -6.76,-5.27 -9.9,-8.17 -2.79,-3.85 -1.29,-9.95 3.35,-11.62 z"
       id="path27"
       inkscape:connector-curvature="0"
       style="fill:#000000" />
  </g>
  <g
     id="#231f20ff"
     transform="translate(-29.876587,-22.74)">
    <path
       d="m 295.88,235.21 c 22.13,-2.44 44.59,-2 66.58,1.47 11.67,1.96 23.35,4.71 34.09,9.82 4.39,2.2 8.83,4.67 11.97,8.54 -39.84,0.28 -79.69,0.04 -119.54,0.12 -16.51,-0.08 -33.02,0.16 -49.53,-0.12 3.84,-4.64 9.39,-7.39 14.77,-9.84 13.22,-5.61 27.47,-8.32 41.66,-9.99 z"
       id="path30"
       inkscape:connector-curvature="0"
       style="fill:#231f20" />
    <path
       d="m 293.92,284.61 c 8.76,1.5 16.3,7.14 21.18,14.43 -4.52,4.49 -7.94,10.02 -13.06,13.9 -4.13,3.87 -8.44,7.53 -13.2,10.6 12.35,18.15 24.84,36.2 37.26,54.29 10.6,-14.99 21.48,-29.8 31.83,-44.95 -0.87,-4.74 -2.41,-9.42 -3.61,-14.11 -1.12,-7.62 0.88,-15.68 5.57,-21.81 4,-5.09 10.05,-8.46 16.42,-9.45 -1.89,4.23 -4.82,7.99 -6.03,12.52 -1.21,4.07 -0.48,8.35 -0.34,12.51 3.65,0.38 6.22,-2.74 8.71,-4.9 3.73,-4.06 8.02,-7.53 12.33,-10.96 -3.55,6.84 -5.3,14.35 -8.39,21.37 -0.03,0.57 -0.1,1.72 -0.13,2.29 9.1,0.43 17.7,-6.02 20.76,-14.43 2.5,7.43 0.57,15.98 -4.41,21.96 -4.04,4.99 -9.95,8.15 -16.08,9.77 -6.48,1.04 -12.98,-0.16 -19.43,-0.7 -10.75,15.5 -21.58,30.94 -32.37,46.41 23.15,30.96 46.42,61.83 69.59,92.78 -1.2,1.74 -2.4,3.5 -3.61,5.25 -8.07,-9.41 -15.3,-19.53 -23.04,-29.22 -15.94,-20.43 -31.76,-40.96 -47.78,-61.33 -21.42,30.78 -42.72,61.64 -64.17,92.41 -2.04,-1.36 -4.05,-2.78 -6.03,-4.23 21.71,-31.32 43.64,-62.48 65.38,-93.78 -13.2,-19.11 -26.39,-38.23 -39.58,-57.35 -9.69,5.89 -18.59,13.36 -29.61,16.72 -7.73,-6.14 -9.92,-17.01 -8.51,-26.34 3.54,1.68 7.02,5.6 11.25,4.36 2.26,-4.19 0.62,-9.27 1.3,-13.82 3.46,1.36 6.4,3.64 9.47,5.67 1.29,1.16 3.09,0.05 3.53,-1.37 1.47,-3.88 0.24,-8.14 -1.32,-11.8 3.89,1.97 7.45,5.94 12.18,5.06 1.73,-4.31 1.43,-8.94 0.44,-13.38 3.35,2.43 7.48,3.42 11.57,3.53 2.49,0.08 4.19,-2.18 4.29,-4.5 0.47,-2.74 -1.07,-5.14 -2.36,-7.4 z"
       id="path32"
       inkscape:connector-curvature="0"
       style="fill:#231f20" />
  </g>
  <g
     id="#10101010"
     transform="translate(-29.876587,-22.74)">
    <path
       d="m 1089.95,279.02 c -0.13,-1.57 0.18,-3.03 0.76,-4.44 0.64,6.1 0.14,12.24 0.3,18.36 -0.16,6.51 0.36,13.06 -0.38,19.55 -0.43,-1.8 -0.77,-3.63 -0.69,-5.48 0.08,-9.33 0.06,-18.66 0.01,-27.99 z"
       id="path35"
       inkscape:connector-curvature="0"
       style="opacity:0.06000001;fill:#101010" />
  </g>
</svg>
