<?xml version="1.0" encoding="utf-8"?>
<!-- Generator: Adobe Illustrator 16.0.4, SVG Export Plug-In . SVG Version: 6.00 Build 0)  -->
<!DOCTYPE svg PUBLIC "-//W3C//DTD SVG 1.1//EN" "http://www.w3.org/Graphics/SVG/1.1/DTD/svg11.dtd">
<svg version="1.1" id="Capa_2" xmlns="http://www.w3.org/2000/svg" xmlns:xlink="http://www.w3.org/1999/xlink" x="0px" y="0px"
	 width="38px" height="38px" viewBox="0 0 38 38" enable-background="new 0 0 38 38" xml:space="preserve">
<path fill="#CCD6DD" stroke="#9AAAB4" stroke-width="2.0602" stroke-linecap="round" stroke-linejoin="round" stroke-miterlimit="10" d="
	M32.929,4.609c0-1.145-2.288-1.145-3.433-1.145s-1.145-2.289-3.434-1.145s-5.722,6.867-5.722,6.867
	C18.052,12.62,8.264,27.617,7.752,28.643c-1.145,2.287-1.145,5.722,1.145,6.865c2.895,1.447,6.866,1.145,10.299-4.578
	c2.633-4.388,9.156-22.887,10.3-25.176C30.641,3.465,32.929,3.465,32.929,4.609s0,3.433-1.145,4.578
	c-1.144,1.145-3.433,1.145-3.433,0l1.987-5.538"/>
<path fill="#FFFFFF" d="M19.885,16.061c-2,3-8,14-9,14c-2.236,0,12-21,13-22C24.592,7.354,21.885,13.061,19.885,16.061z"/>
</svg>
