<?xml version="1.0" encoding="utf-8"?>
<!-- Generator: Adobe Illustrator 16.0.4, SVG Export Plug-In . SVG Version: 6.00 Build 0)  -->
<!DOCTYPE svg PUBLIC "-//W3C//DTD SVG 1.1//EN" "http://www.w3.org/Graphics/SVG/1.1/DTD/svg11.dtd">
<svg version="1.1" xmlns="http://www.w3.org/2000/svg" xmlns:xlink="http://www.w3.org/1999/xlink" x="0px" y="0px" width="71px"
	 height="38px" viewBox="0 0 71 38" enable-background="new 0 0 71 38" xml:space="preserve">
<g id="base">
	<path fill="#FFCC4D" d="M37,19c0,9.941-8.059,18-18,18C9.059,37,1,28.941,1,19C1,9.059,9.059,1,19,1C28.941,1,37,9.059,37,19"/>
</g>
<g id="not_bad">
	<path fill="#664500" d="M33,16c0-0.552-0.447-1-1-1h-7c-0.553,0-1,0.448-1,1c0,0.553,0.447,1,1,1h5.092C30,18,30.848,19,31.5,19
		c0.828,0,1.5-1,1.5-2.5C33,16.39,33,16.063,33,16z"/>
	<path fill="#664500" d="M22,16c0-0.552-0.447-1-1-1h-7c-0.553,0-1,0.448-1,1c0,0.553,0.447,1,1,1h5.092C19,18,19.848,19,20.5,19
		c0.828,0,1.5-1,1.5-2.5C22,16.39,22,16.063,22,16z"/>
	<path fill="#664500" d="M17.25,30c-0.256,0-0.512-0.098-0.707-0.293c-0.391-0.391-0.391-1.023,0-1.414
		C18.162,26.674,19.836,25,21.75,25c1.077,0,1.841,0.316,2.397,0.547c0.23,0.095,0.491,0.203,0.603,0.203
		c0.139,0,0.438-0.149,0.678-0.27C25.878,25.255,26.389,25,27,25c0.974,0,2.097,0.933,3.707,2.543c0.391,0.391,0.391,1.023,0,1.414
		s-1.023,0.391-1.414,0c-1.519-1.519-2.118-1.905-2.354-1.962c-0.078,0.005-0.377,0.154-0.617,0.274
		c-0.45,0.226-0.961,0.48-1.572,0.48c-0.51,0-0.946-0.181-1.368-0.355C22.914,27.2,22.43,27,21.75,27
		c-1.086,0-2.462,1.376-3.793,2.707C17.762,29.902,17.506,30,17.25,30z"/>
</g>
<g id="palmas2" display="none">
	<g display="inline">
		<path fill="#FFCC4D" d="M46.673,26.727c-2-6,1-8,2-8s3,3,4,3s11-8,12-1s-2,10-8,11S48.087,30.969,46.673,26.727z"/>
		<path fill="#654610" d="M53.709,33c-4.149,0-6.611-1.837-7.984-5.957c-1.361-4.084-0.561-6.449,0.352-7.715
			c0.701-0.973,1.721-1.602,2.597-1.602c0.914,0,1.745,0.831,2.707,1.793c0.369,0.369,0.956,0.955,1.276,1.158
			c0.288-0.143,0.816-0.454,1.258-0.714c2.104-1.238,5.281-3.109,7.853-3.109c1.256,0,3.433,0.485,3.896,3.73
			c1.015,7.102-1.79,10.955-8.826,12.128C55.678,32.906,54.654,33,53.709,33z M48.625,19.738c-0.163,0.05-0.616,0.271-1.011,0.884
			c-0.474,0.733-1.102,2.461,0.007,5.788c1.102,3.303,2.808,4.59,6.088,4.59c0.822,0,1.765-0.087,2.8-0.26
			c5.955-0.993,8.034-3.853,7.174-9.872c-0.252-1.769-1.07-2.013-1.916-2.013c-2.026,0-5.038,1.773-6.838,2.833
			c-1.341,0.789-1.788,1.039-2.256,1.039c-0.914,0-1.745-0.831-2.707-1.793C49.57,20.538,48.926,19.894,48.625,19.738z"/>
	</g>
	<g display="inline">
		<path fill="#FFCC4D" d="M55.095,16c-3.162,0-5,11-7,10s-5-5-5,0s6,8,10,8s6.991-2.313,9-7C65.095,20,60.095,16,55.095,16z"/>
		<path fill="#654610" d="M53.095,35c-4.593,0-11-3.424-11-9c0-2.297,0.68-3.462,2.021-3.462c0.979,0,1.945,0.752,2.969,1.548
			c0.425,0.331,0.862,0.671,1.233,0.895c0.468-0.523,1.199-2.272,1.699-3.467C51.356,18.311,52.742,15,55.095,15
			c3.192,0,6.136,1.457,7.682,3.801c1.084,1.644,2.005,4.468,0.237,8.592C60.851,32.441,57.514,35,53.095,35z M44.251,24.573
			c-0.063,0.179-0.156,0.584-0.156,1.427c0,4.273,5.33,7,9,7c3.594,0,6.236-2.092,8.081-6.394c1.121-2.617,1.098-4.936-0.069-6.704
			C59.927,18.112,57.623,17,55.095,17c-1.021,0-2.46,3.438-3.233,5.285c-1.161,2.774-2,4.778-3.506,4.779h-0.001
			c-0.244,0-0.481-0.058-0.707-0.17c-0.589-0.294-1.2-0.771-1.792-1.23C45.388,25.301,44.643,24.721,44.251,24.573z"/>
	</g>
	<g display="inline">
		<path fill="#9AAAB4" d="M48.001,15c-0.323,0-0.641-0.156-0.833-0.445l-4-6c-0.307-0.459-0.183-1.081,0.277-1.387
			c0.46-0.308,1.08-0.182,1.387,0.277l4,6c0.307,0.459,0.183,1.081-0.277,1.387C48.384,14.946,48.191,15,48.001,15z"/>
	</g>
	<g display="inline">
		<path fill="#9AAAB4" d="M54,14c-0.553,0-1-0.448-1-1V6c0-0.552,0.447-1,1-1s1,0.448,1,1v7C55,13.552,54.553,14,54,14z"/>
	</g>
	<g display="inline">
		<path fill="#9AAAB4" d="M59.999,15c-0.19,0-0.383-0.054-0.554-0.168c-0.46-0.306-0.584-0.927-0.277-1.387l4-6
			c0.306-0.459,0.925-0.585,1.387-0.277c0.46,0.306,0.584,0.927,0.277,1.387l-4,6C60.64,14.844,60.322,15,59.999,15z"/>
	</g>
</g>
<g id="palmas1">
	<g>
		<path fill="#FFCC4D" d="M38.811,26.727c-2-6,1-8,2-8s3,3,4,3s11-8,12-1s-2,10-8,11S40.225,30.969,38.811,26.727z"/>
		<path fill="#654610" d="M45.847,33c-4.149,0-6.611-1.837-7.984-5.957c-1.361-4.084-0.561-6.449,0.352-7.715
			c0.701-0.973,1.721-1.602,2.597-1.602c0.914,0,1.745,0.831,2.707,1.793c0.369,0.369,0.956,0.955,1.276,1.158
			c0.288-0.143,0.816-0.454,1.258-0.714c2.104-1.238,5.281-3.109,7.853-3.109c1.256,0,3.433,0.485,3.896,3.73
			c1.015,7.102-1.79,10.955-8.826,12.128C47.815,32.906,46.792,33,45.847,33z M40.763,19.738c-0.163,0.05-0.616,0.271-1.011,0.884
			c-0.474,0.733-1.102,2.461,0.007,5.788C40.86,29.713,42.566,31,45.847,31c0.822,0,1.765-0.087,2.8-0.26
			c5.955-0.993,8.034-3.853,7.174-9.872c-0.252-1.769-1.07-2.013-1.916-2.013c-2.026,0-5.038,1.773-6.838,2.833
			c-1.341,0.789-1.788,1.039-2.256,1.039c-0.914,0-1.745-0.831-2.707-1.793C41.708,20.538,41.063,19.894,40.763,19.738z"/>
	</g>
	<g>
		<path fill="#FFCC4D" d="M61.095,16c-3.162,0-5,11-7,10s-5-5-5,0s6,8,10,8s6.991-2.313,9-7C71.095,20,66.095,16,61.095,16z"/>
		<path fill="#654610" d="M59.095,35c-4.593,0-11-3.424-11-9c0-2.297,0.68-3.462,2.021-3.462c0.979,0,1.945,0.752,2.969,1.548
			c0.425,0.331,0.862,0.671,1.233,0.895c0.468-0.523,1.199-2.272,1.699-3.467C57.356,18.311,58.742,15,61.095,15
			c3.192,0,6.136,1.457,7.682,3.801c1.084,1.644,2.005,4.468,0.237,8.592C66.851,32.441,63.514,35,59.095,35z M50.251,24.573
			c-0.063,0.179-0.156,0.584-0.156,1.427c0,4.273,5.33,7,9,7c3.594,0,6.236-2.092,8.081-6.394c1.121-2.617,1.098-4.936-0.069-6.704
			C65.927,18.112,63.623,17,61.095,17c-1.021,0-2.46,3.438-3.233,5.285c-1.161,2.774-2,4.778-3.506,4.779h-0.001
			c-0.244,0-0.481-0.058-0.707-0.17c-0.589-0.294-1.2-0.771-1.792-1.23C51.388,25.301,50.643,24.721,50.251,24.573z"/>
	</g>
</g>
</svg>
