<?xml version="1.0" encoding="utf-8"?>
<!-- Generator: Adobe Illustrator 16.0.4, SVG Export Plug-In . SVG Version: 6.00 Build 0)  -->
<!DOCTYPE svg PUBLIC "-//W3C//DTD SVG 1.1//EN" "http://www.w3.org/Graphics/SVG/1.1/DTD/svg11.dtd">
<svg version="1.1" xmlns="http://www.w3.org/2000/svg" xmlns:xlink="http://www.w3.org/1999/xlink" x="0px" y="0px" width="40px"
	 height="40px" viewBox="0 0 40 40" enable-background="new 0 0 40 40" xml:space="preserve">
<g id="base">
	<path fill="#432E02" d="M39,38c0-1-2,0-2-7c0-4-2-5-4-5c-4,0-3,5-3,5s-0.235,2.765,2,5C35,39,39,39,39,38z"/>
	<path fill="#FFCC4D" d="M37,21c0,9.941-8.059,18-18,18C9.059,39,1,30.941,1,21C1,11.059,9.059,3,19,3C28.941,3,37,11.059,37,21"/>
</g>
<g id="blank_copia">
	<path fill="#664500" d="M30,17c0-0.552-0.447-1-1-1h-7c-0.553,0-1,0.448-1,1c0,0.553,0.447,1,1,1h5.092C27,19,27.848,20,28.5,20
		c0.828,0,1.5-1,1.5-2.5C30,17.39,30,17.063,30,17z"/>
	<path fill="#664500" d="M18,17c0-0.552-0.447-1-1-1h-7c-0.553,0-1,0.448-1,1c0,0.553,0.447,1,1,1h5.092C15,19,15.848,20,16.5,20
		c0.828,0,1.5-1,1.5-2.5C18,17.39,18,17.063,18,17z"/>
	<path fill="#664500" d="M21,31h-7c-0.552,0-1-0.447-1-1s0.448-1,1-1h7c1.519,0,2.273-0.689,2.305-0.719
		c0.399-0.374,1.026-0.363,1.408,0.029c0.379,0.393,0.38,1.011-0.006,1.396C24.575,29.84,23.347,31,21,31z"/>
</g>
<g id="Capa_3">
	<path fill="#432E02" d="M18,7c1,0,1,1,2,1s9,0,11,2s2.367,10.735,3,12c1,2,3-1,3-1C37,9,33,1,19,1C6,1,1,9,1,20c0,0,2,3,3,1
		c0.632-1.265,1-9,3-11s8-2,9-2S17,7,18,7z"/>
	<path fill="#432E02" d="M26.343,25c-2-2-5.343-2-7.343-2s-5.459,0-7.459,2c-1.581,1.581-2,8-1,10S12,39,19,39s7.343-2,8.343-4
		S28.343,27,26.343,25z M22,37c-2,0-1-3-3-3s-1,3-3,3c-3,0-5-1-5-6s5-4,8-4s8-1,8,4S25,37,22,37z"/>
</g>
</svg>
