<?xml version="1.0" encoding="utf-8"?>
<!-- Generator: Adobe Illustrator 16.0.4, SVG Export Plug-In . SVG Version: 6.00 Build 0)  -->
<!DOCTYPE svg PUBLIC "-//W3C//DTD SVG 1.1//EN" "http://www.w3.org/Graphics/SVG/1.1/DTD/svg11.dtd">
<svg version="1.1" xmlns="http://www.w3.org/2000/svg" xmlns:xlink="http://www.w3.org/1999/xlink" x="0px" y="0px" width="38px"
	 height="38px" viewBox="0 0 38 38" enable-background="new 0 0 38 38" xml:space="preserve">
<g id="base">
	<path fill="#FFCC4D" d="M37,19c0,9.941-8.059,18-18,18C9.059,37,1,28.941,1,19C1,9.059,9.059,1,19,1C28.941,1,37,9.059,37,19"/>
</g>
<g id="cry-6" display="none">
	<path display="inline" fill="#664500" d="M30,13c-5.554,0-7.802-4.367-7.895-4.553c-0.247-0.494-0.047-1.095,0.447-1.342
		c0.493-0.247,1.092-0.048,1.34,0.443C23.967,7.694,25.713,11,30,11c0.553,0,1,0.448,1,1S30.553,13,30,13z"/>
	<path display="inline" fill="#664500" d="M8,13c-0.552,0-1-0.448-1-1s0.448-1,1-1c5.083,0,5.996-3.12,6.033-3.253
		c0.145-0.528,0.692-0.848,1.219-0.709c0.53,0.139,0.851,0.673,0.718,1.205C15.921,8.437,14.704,13,8,13z"/>
	<path display="inline" fill="#664500" d="M26.984,29.379C26.937,29.2,25.738,25,19,25c-6.739,0-7.937,4.2-7.984,4.379
		c-0.058,0.217,0.046,0.442,0.252,0.554c0.208,0.109,0.469,0.079,0.64-0.077C11.929,29.837,13.993,28,19,28
		c5.007,0,7.072,1.837,7.092,1.855C26.193,29.95,26.33,30,26.467,30c0.09,0,0.18-0.021,0.263-0.064
		C26.938,29.824,27.043,29.597,26.984,29.379z"/>
	<ellipse display="inline" fill="#664500" cx="25" cy="15.8" rx="2" ry="2.8"/>
	<ellipse display="inline" fill="#664500" cx="13" cy="15.8" rx="2" ry="2.8"/>
	<path display="inline" fill="#5DADEC" d="M30.667,38.334C30.667,39.807,29.473,41,28,41s-2.667-1.193-2.667-2.666S27.467,33,28,33
		S30.667,36.861,30.667,38.334z"/>
</g>
<g id="cry-5" display="none">
	<path display="inline" fill="#664500" d="M30,13c-5.554,0-7.802-4.367-7.895-4.553c-0.247-0.494-0.047-1.095,0.447-1.342
		c0.493-0.247,1.092-0.048,1.34,0.443C23.967,7.694,25.713,11,30,11c0.553,0,1,0.448,1,1S30.553,13,30,13z"/>
	<path display="inline" fill="#664500" d="M8,13c-0.552,0-1-0.448-1-1s0.448-1,1-1c5.083,0,5.996-3.12,6.033-3.253
		c0.145-0.528,0.692-0.848,1.219-0.709c0.53,0.139,0.851,0.673,0.718,1.205C15.921,8.437,14.704,13,8,13z"/>
	<path display="inline" fill="#664500" d="M26.984,29.379C26.937,29.2,25.738,25,19,25c-6.739,0-7.937,4.2-7.984,4.379
		c-0.058,0.217,0.046,0.442,0.252,0.554c0.208,0.109,0.469,0.079,0.64-0.077C11.929,29.837,13.993,28,19,28
		c5.007,0,7.072,1.837,7.092,1.855C26.193,29.95,26.33,30,26.467,30c0.09,0,0.18-0.021,0.263-0.064
		C26.938,29.824,27.043,29.597,26.984,29.379z"/>
	<ellipse display="inline" fill="#664500" cx="25" cy="15.8" rx="2" ry="2.8"/>
	<ellipse display="inline" fill="#664500" cx="13" cy="15.8" rx="2" ry="2.8"/>
	<path display="inline" fill="#5DADEC" d="M30.667,33.334C30.667,34.807,29.473,36,28,36s-2.667-1.193-2.667-2.666S27.467,28,28,28
		S30.667,31.861,30.667,33.334z"/>
</g>
<g id="cry-4" display="none">
	<path display="inline" fill="#664500" d="M30,13c-5.554,0-7.802-4.367-7.895-4.553c-0.247-0.494-0.047-1.095,0.447-1.342
		c0.493-0.247,1.092-0.048,1.34,0.443C23.967,7.694,25.713,11,30,11c0.553,0,1,0.448,1,1S30.553,13,30,13z"/>
	<path display="inline" fill="#664500" d="M8,13c-0.552,0-1-0.448-1-1s0.448-1,1-1c5.083,0,5.996-3.12,6.033-3.253
		c0.145-0.528,0.692-0.848,1.219-0.709c0.53,0.139,0.851,0.673,0.718,1.205C15.921,8.437,14.704,13,8,13z"/>
	<path display="inline" fill="#664500" d="M26.984,29.379C26.937,29.2,25.738,25,19,25c-6.739,0-7.937,4.2-7.984,4.379
		c-0.058,0.217,0.046,0.442,0.252,0.554c0.208,0.109,0.469,0.079,0.64-0.077C11.929,29.837,13.993,28,19,28
		c5.007,0,7.072,1.837,7.092,1.855C26.193,29.95,26.33,30,26.467,30c0.09,0,0.18-0.021,0.263-0.064
		C26.938,29.824,27.043,29.597,26.984,29.379z"/>
	<ellipse display="inline" fill="#664500" cx="25" cy="15.8" rx="2" ry="2.8"/>
	<ellipse display="inline" fill="#664500" cx="13" cy="15.8" rx="2" ry="2.8"/>
	<path display="inline" fill="#5DADEC" d="M30.667,28.334C30.667,29.807,29.473,31,28,31s-2.667-1.193-2.667-2.666S27.467,23,28,23
		S30.667,26.861,30.667,28.334z"/>
</g>
<g id="cry-3">
	<path fill="#664500" d="M30,13c-5.554,0-7.802-4.367-7.895-4.553c-0.247-0.494-0.047-1.095,0.447-1.342
		c0.493-0.247,1.092-0.048,1.34,0.443C23.967,7.694,25.713,11,30,11c0.553,0,1,0.448,1,1S30.553,13,30,13z"/>
	<path fill="#664500" d="M8,13c-0.552,0-1-0.448-1-1s0.448-1,1-1c5.083,0,5.996-3.12,6.033-3.253
		c0.145-0.528,0.692-0.848,1.219-0.709c0.53,0.139,0.851,0.673,0.718,1.205C15.921,8.437,14.704,13,8,13z"/>
	<path fill="#664500" d="M26.984,29.379C26.937,29.2,25.738,25,19,25c-6.739,0-7.937,4.2-7.984,4.379
		c-0.058,0.217,0.046,0.442,0.252,0.554c0.208,0.109,0.469,0.079,0.64-0.077C11.929,29.837,13.993,28,19,28
		c5.007,0,7.072,1.837,7.092,1.855C26.193,29.95,26.33,30,26.467,30c0.09,0,0.18-0.021,0.263-0.064
		C26.938,29.824,27.043,29.597,26.984,29.379z"/>
	<ellipse fill="#664500" cx="25" cy="15.8" rx="2" ry="2.8"/>
	<ellipse fill="#664500" cx="13" cy="15.8" rx="2" ry="2.8"/>
	<path fill="#5DADEC" d="M30.667,23.334C30.667,24.807,29.473,26,28,26s-2.667-1.193-2.667-2.666S27.467,18,28,18
		S30.667,21.861,30.667,23.334z"/>
</g>
<g id="cry-2" display="none">
	<path display="inline" fill="#664500" d="M30,13c-5.554,0-7.802-4.367-7.895-4.553c-0.247-0.494-0.047-1.095,0.447-1.342
		c0.493-0.247,1.092-0.048,1.34,0.443C23.967,7.694,25.713,11,30,11c0.553,0,1,0.448,1,1S30.553,13,30,13z"/>
	<path display="inline" fill="#664500" d="M8,13c-0.552,0-1-0.448-1-1s0.448-1,1-1c5.083,0,5.996-3.12,6.033-3.253
		c0.145-0.528,0.692-0.848,1.219-0.709c0.53,0.139,0.851,0.673,0.718,1.205C15.921,8.437,14.704,13,8,13z"/>
	<path display="inline" fill="#664500" d="M26.984,29.379C26.937,29.2,25.738,25,19,25c-6.739,0-7.937,4.2-7.984,4.379
		c-0.058,0.217,0.046,0.442,0.252,0.554c0.208,0.109,0.469,0.079,0.64-0.077C11.929,29.837,13.993,28,19,28
		c5.007,0,7.072,1.837,7.092,1.855C26.193,29.95,26.33,30,26.467,30c0.09,0,0.18-0.021,0.263-0.064
		C26.938,29.824,27.043,29.597,26.984,29.379z"/>
	<ellipse display="inline" fill="#664500" cx="25" cy="15.8" rx="2" ry="2.8"/>
	<ellipse display="inline" fill="#664500" cx="13" cy="15.8" rx="2" ry="2.8"/>
	<path display="inline" fill="#5DADEC" d="M29.334,20.667C29.334,21.403,28.736,22,28,22s-1.334-0.597-1.334-1.333S27.733,18,28,18
		S29.334,19.931,29.334,20.667z"/>
</g>
<g id="cry-1" display="none">
	<path display="inline" fill="#664500" d="M30,13c-5.554,0-7.802-4.367-7.895-4.553c-0.247-0.494-0.047-1.095,0.447-1.342
		c0.493-0.247,1.092-0.048,1.34,0.443C23.967,7.694,25.713,11,30,11c0.553,0,1,0.448,1,1S30.553,13,30,13z"/>
	<path display="inline" fill="#664500" d="M8,13c-0.552,0-1-0.448-1-1s0.448-1,1-1c5.083,0,5.996-3.12,6.033-3.253
		c0.145-0.528,0.692-0.848,1.219-0.709c0.53,0.139,0.851,0.673,0.718,1.205C15.921,8.437,14.704,13,8,13z"/>
	<path display="inline" fill="#664500" d="M26.984,29.379C26.937,29.2,25.738,25,19,25c-6.739,0-7.937,4.2-7.984,4.379
		c-0.058,0.217,0.046,0.442,0.252,0.554c0.208,0.109,0.469,0.079,0.64-0.077C11.929,29.837,13.993,28,19,28
		c5.007,0,7.072,1.837,7.092,1.855C26.193,29.95,26.33,30,26.467,30c0.09,0,0.18-0.021,0.263-0.064
		C26.938,29.824,27.043,29.597,26.984,29.379z"/>
	<ellipse display="inline" fill="#664500" cx="25" cy="15.8" rx="2" ry="2.8"/>
	<ellipse display="inline" fill="#664500" cx="13" cy="15.8" rx="2" ry="2.8"/>
</g>
</svg>
