<?xml version="1.0" encoding="utf-8"?>
<!-- Generator: Adobe Illustrator 16.0.4, SVG Export Plug-In . SVG Version: 6.00 Build 0)  -->
<!DOCTYPE svg PUBLIC "-//W3C//DTD SVG 1.1//EN" "http://www.w3.org/Graphics/SVG/1.1/DTD/svg11.dtd">
<svg version="1.1" id="Capa_2" xmlns="http://www.w3.org/2000/svg" xmlns:xlink="http://www.w3.org/1999/xlink" x="0px" y="0px"
	 width="80px" height="38px" viewBox="0 0 80 38" enable-background="new 0 0 80 38" xml:space="preserve">
<path fill="#E64D00" stroke="#9D0522" stroke-linecap="round" stroke-linejoin="round" stroke-miterlimit="10" d="M22,16
	c0,0,0-2-1-2s-2,0-2,1s2,0,2,1S22,16,22,16z"/>
<polygon fill="#801A00" points="37,31 28,31 28,24 37,22 "/>
<polygon fill="#801A00" points="72,27 64,27 65,18 72,18 "/>
<path stroke="#000000" stroke-width="0.982" stroke-miterlimit="10" d="M31,33c-1.656,0-3-2.015-3-4.5s1.344-4.5,3-4.5h2
	c1.656,0,3,2.015,3,4.5S34.656,33,33,33H31z"/>
<path stroke="#000000" stroke-width="0.982" stroke-miterlimit="10" d="M66,28c-1.656,0-3-2.015-3-4.5s1.344-4.5,3-4.5h2
	c1.656,0,3,2.015,3,4.5S69.656,28,68,28H66z"/>
<path fill="#FF5500" stroke="#FF5500" stroke-linecap="round" stroke-linejoin="round" stroke-miterlimit="10" d="M76,9L59,8l-2,2
	c-3-1-16-1-21,0c-3.922,0.785-12.862,6.608-16,7c-8,1-14,5-16,7c-1.414,1.414-1,4-1,5s2,1,6,2s10,1,11,1s8,0,8,0s0.097-8.02,5-9
	c5-1,4,8,4,8l27-3c0,0,0-9,4-10c4.946-1.236,4,9,4,9l5-2c0-0.211,0-1.3,0-6C77,12,76,9,76,9z M73,14l-8-1c0,0-4-3-6-3l1-1l13,1V14z"
	/>
<path fill="#BDDDF4" stroke="#8CCAF7" stroke-linecap="round" stroke-linejoin="round" stroke-miterlimit="10" d="M36.745,18
	l-16.078-1L33,11c0,0,0.745,0,4.745,0s6,0,5,1S36.745,18,36.745,18z"/>
<path fill="#BDDDF4" stroke="#8CCAF7" stroke-linecap="round" stroke-linejoin="round" stroke-miterlimit="10" d="M39,18.444
	c0,0,5.019-6.731,7-7C49.272,11,50.811,11,53,11c2,0,5.728,4.444,4.728,4.444S40,18.444,39,18.444z"/>
<path fill="#E64D00" stroke="#9D0522" stroke-linecap="round" stroke-linejoin="round" stroke-miterlimit="10" d="M40,19
	c0-1,0-3,1-3s3,0,3,1s-1,1-2,1s-1,1-1,1H40z"/>
<path fill="none" stroke="#000000" stroke-linecap="round" stroke-miterlimit="10" d="M3,25c0,0-1,1,4,2s14,1,16,1s5,0,6,0"/>
<line fill="none" stroke="#000000" stroke-linecap="round" stroke-miterlimit="10" x1="70" y1="24" x2="77" y2="23"/>
<path d="M57,19l4-1c0,0,2,3,1,3s-5-1-5-1V19z"/>
<path fill="none" stroke="#801900" stroke-linecap="round" stroke-miterlimit="10" d="M51,20c5-1,10-2,10-2c1,1,1.961,3.393,0,3
	C56,20,47.899,20.62,51,20z"/>
<path fill="none" stroke="#801A00" stroke-linecap="round" stroke-linejoin="round" stroke-miterlimit="10" d="M6,25c0,0,8-6,14-7"
	/>
<path fill="none" stroke="#801A00" stroke-linecap="round" stroke-linejoin="round" stroke-miterlimit="10" d="M31,19
	c-9,3-12,8-12,8"/>
<path fill="none" stroke="#F2ABBA" stroke-linecap="round" stroke-linejoin="round" stroke-miterlimit="10" d="M4,25c2,1,9,2,13,2
	s7,0,8-1s8-6,12-6c2,0,2,0,2,0v1c0,0,1,0,4-1s15.04-3.434,19-4c7-1,11-1,11-1V9L60,8"/>
<path fill="none" stroke="#801900" stroke-linecap="round" stroke-linejoin="round" stroke-miterlimit="10" d="M62,25v2c0,0-7-1-4-1
	S60,25,62,25z"/>
<path fill="none" stroke="#000000" stroke-linecap="round" stroke-miterlimit="10" d="M37,27c0,0,22-3,28-3"/>
<ellipse fill="#E1E8ED" cx="68" cy="23.5" rx="2" ry="3.375"/>
<ellipse fill="#E1E8ED" cx="33" cy="28.5" rx="2" ry="3.375"/>
<path d="M4,27c4,1,12,2,12,2s0,2-2,2s-6-1-9-2C4.051,28.684,4,27,4,27z"/>
<path d="M19,29v2c0,0,2,1,3-1C22.633,28.735,19,29,19,29z"/>
<path d="M3,27v2C3,29,2,28,3,27L3,27z"/>
<path fill="#F5F8FA" stroke="#67757F" stroke-linecap="round" stroke-linejoin="round" stroke-miterlimit="10" d="M23,23l4,1
	c0,0-3,3-4,3s-4,0-3-1S23,23,23,23z"/>
<path fill="#F5F8FA" stroke="#67757F" stroke-linecap="round" stroke-linejoin="round" stroke-miterlimit="10" d="M9,22H6
	c0,0-4,3-1,3L9,22z"/>
<polygon fill="#FDCB58" points="11.592,24.785 10.478,25.656 11.471,25.777 12.584,24.906 "/>
</svg>
