<?xml version="1.0" encoding="utf-8"?>
<!-- Generator: Adobe Illustrator 16.0.4, SVG Export Plug-In . SVG Version: 6.00 Build 0)  -->
<!DOCTYPE svg PUBLIC "-//W3C//DTD SVG 1.1//EN" "http://www.w3.org/Graphics/SVG/1.1/DTD/svg11.dtd">
<svg version="1.1" xmlns="http://www.w3.org/2000/svg" xmlns:xlink="http://www.w3.org/1999/xlink" x="0px" y="0px" width="50px"
	 height="38px" viewBox="0 0 50 38" enable-background="new 0 0 50 38" xml:space="preserve">
<g id="base">
	<path fill="#FFCC4D" d="M37,19c0,9.941-8.059,18-18,18C9.059,37,1,28.941,1,19C1,9.059,9.059,1,19,1C28.941,1,37,9.059,37,19"/>
</g>
<g id="ffu">
	<circle fill="#FFFFFF" cx="11" cy="16" r="6"/>
	<circle fill="#FFFFFF" cx="23" cy="9" r="6"/>
	<path fill="#1D1D1B" d="M28.008,30.924c5.048-3.569,7.715-9.325,5.93-10.789C31.977,18.524,21.127,16.852,20,18
		c-1.781,1.813-4.078,14.478-2.971,15.906C18.449,35.738,23.793,33.906,28.008,30.924z"/>
	<path fill="#E75A70" d="M24.301,24.318c-3.3,2.219-4.334,8.306-2.199,7.768C26.501,30.976,32,24.318,32,23.208
		C32,22.099,29.637,20.729,24.301,24.318z"/>
	<path fill="#FFFFFF" d="M20,31c-1.031-0.344-4.512,6.256,2,3C24,33,23,32,20,31z"/>
	<path fill="#FFFFFF" d="M28.049,27.07c-1.808,0-1.616,4.644,0,3.835C30.604,29.627,33.161,27.07,28.049,27.07z"/>
	<path fill="#FFFFFF" d="M31.785,20.84C29.984,21.311,33.411,25.766,34,24C35,21,35,20,31.785,20.84z"/>
	<circle fill="#DA2F47" cx="8" cy="16" r="3"/>
	<circle fill="#DA2F47" cx="23" cy="6" r="3"/>
	<polygon fill="#1D1D1B" points="3,10 17,12 19,1 15,1 15,9 2,6 	"/>
	<circle fill="#1D1D1B" cx="23" cy="6" r="1"/>
	<circle fill="#1D1D1B" cx="8" cy="16" r="1"/>
	<path fill="#DA2F47" d="M40.986,3h7.109v2h-4.221v1.625h3.605v1.879h-3.605v3.802h-2.889V3z"/>
	<path fill="#DA2F47" d="M40.986,15h7.109v2h-4.221v1.625h3.605v1.879h-3.605v3.802h-2.889V15z"/>
	<path fill="#DA2F47" d="M46.131,27H49v5.544c0,0.55-0.086,1.069-0.257,1.558c-0.172,0.488-0.44,0.915-0.807,1.281
		s-0.75,0.623-1.151,0.771c-0.559,0.207-1.229,0.311-2.013,0.311c-0.453,0-0.947-0.031-1.482-0.095s-0.982-0.189-1.343-0.377
		c-0.359-0.188-0.688-0.456-0.986-0.803c-0.299-0.347-0.503-0.704-0.613-1.072c-0.178-0.592-0.266-1.116-0.266-1.573V27h2.869v5.676
		c0,0.508,0.141,0.904,0.422,1.189s0.672,0.429,1.171,0.429c0.495,0,0.884-0.141,1.165-0.422s0.422-0.68,0.422-1.196V27z"/>
</g>
</svg>
