<?xml version="1.0" encoding="utf-8"?>
<!-- Generator: Adobe Illustrator 16.0.4, SVG Export Plug-In . SVG Version: 6.00 Build 0)  -->
<!DOCTYPE svg PUBLIC "-//W3C//DTD SVG 1.1//EN" "http://www.w3.org/Graphics/SVG/1.1/DTD/svg11.dtd">
<svg version="1.1" xmlns="http://www.w3.org/2000/svg" xmlns:xlink="http://www.w3.org/1999/xlink" x="0px" y="0px" width="42px"
	 height="38px" viewBox="0 0 42 38" enable-background="new 0 0 42 38" xml:space="preserve">
<g id="base" display="none">
	<path display="inline" fill="#FFCC4D" d="M37,19c0,9.941-8.059,18-18,18C9.059,37,1,28.941,1,19C1,9.059,9.059,1,19,1
		C28.941,1,37,9.059,37,19"/>
</g>
<g id="Capa_3">
	<path fill="#FFCC4D" d="M1,20c0,11,10.75,17,18,17c17.167,0,22-8.916,22-19c0-6-10-8-10-8s-2-9-12-9S1,9,1,20z"/>
</g>
<g id="cry">
	<circle fill="#664500" cx="15" cy="10.25" r="2"/>
	<circle fill="#664500" cx="23.76" cy="10" r="2"/>
	<path fill="#664500" d="M12,22c-0.552,0-1-0.447-1-1s0.448-1,1-1c8.218,0,17.919-2.333,20.586-5c0.391-0.391,1.023-0.391,1.414,0
		s0.391,1.023,0,1.414C30.67,19.744,20.117,22,12,22z"/>
	<path fill="#664500" d="M12.672,21C20,20,31.5,17.5,33,16s0,3-3,4C25.163,21.612,10.69,21.271,12.672,21z"/>
	<path fill="#5DADEC" d="M13,10.25c0,0,0,2,2,2s2-2,2-2s0,2-1,3s-3,2-3,4s-2,2-2,3c0,3,2,1,2,4s1,1,1,5c0,1-2,1-2,0c0-4-1-2-1-5
		c0-2-2,0-2-4c0-2,2-1,2-3s2-3.586,2-5C13,11.25,13,10.25,13,10.25z"/>
	<path fill="#664500" d="M22.498,19.999c-0.276,0-0.5-0.224-0.5-0.5c0-1.746-0.821-2.613-0.856-2.649
		c-0.191-0.197-0.188-0.513,0.007-0.706c0.195-0.192,0.508-0.193,0.703,0.001c0.047,0.047,1.146,1.171,1.146,3.354
		C22.998,19.775,22.774,19.999,22.498,19.999z"/>
	<path fill="#5DADEC" d="M21.76,10c0,0,0,2,2,2s2-2,2-2s1,3,3,3s6,0,7,2c0.895,1.789-1,2-1,5s-1,1-1,3s1,1,1,3c0,1,0,2-1,2s-1-1-1-2
		s-1-1-1-3s1-1,1-3s1.707-4.293,1-5c-1-1-4,0-5,0S21.76,14,21.76,10z"/>
</g>
</svg>
