<?xml version="1.0" encoding="utf-8"?>
<!-- Generator: Adobe Illustrator 16.0.4, SVG Export Plug-In . SVG Version: 6.00 Build 0)  -->
<!DOCTYPE svg PUBLIC "-//W3C//DTD SVG 1.1//EN" "http://www.w3.org/Graphics/SVG/1.1/DTD/svg11.dtd">
<svg version="1.1" xmlns="http://www.w3.org/2000/svg" xmlns:xlink="http://www.w3.org/1999/xlink" x="0px" y="0px" width="50px"
	 height="38px" viewBox="0 0 50 38" enable-background="new 0 0 50 38" xml:space="preserve">
<g id="base">
	<path fill="#FFCC4D" d="M37,19c0,9.941-8.059,18-18,18C9.059,37,1,28.941,1,19C1,9.059,9.059,1,19,1C28.941,1,37,9.059,37,19"/>
</g>
<g id="Capa_3">
	<path fill="#664500" d="M23,28h-8c-0.552,0-1-0.447-1-1s0.448-1,1-1h8c2.299,0,3.08-1.4,3.112-1.46
		c0.26-0.481,0.86-0.674,1.345-0.42c0.485,0.251,0.682,0.839,0.438,1.327C27.843,25.552,26.577,28,23,28z"/>
	<path fill="#664500" d="M15,16c-0.256,0-0.512-0.098-0.707-0.293l-5-5c-0.391-0.391-0.391-1.023,0-1.414s1.023-0.391,1.414,0l5,5
		c0.391,0.391,0.391,1.023,0,1.414C15.512,15.902,15.256,16,15,16z"/>
	<path fill="#664500" d="M23,16c-0.256,0-0.512-0.098-0.707-0.293c-0.391-0.391-0.391-1.023,0-1.414l5-5
		c0.391-0.391,1.023-0.391,1.414,0s0.391,1.023,0,1.414l-5,5C23.512,15.902,23.256,16,23,16z"/>
	<ellipse fill="#664500" cx="25" cy="15.8" rx="2" ry="2.8"/>
	<ellipse fill="#664500" cx="13" cy="15.8" rx="2" ry="2.8"/>
</g>
<g id="Capa_4">
	<path fill="#FFCC4D" d="M45.754,25l-0.5,2.5c0-2.058-0.346-4.45-3.254-5.234V16c0,0,0-2-2-2s-2,2-2,2v6.136
		c-4.204,0.673-5,3.888-5,7.864c0,4.479,3,6,5.754,6c4.5,0,8.257,0.037,9-6C48,28,47.754,25,45.754,25z"/>
	<path fill="#664500" d="M47.715,24.854C47.197,24.296,46.52,24,45.754,24c-0.043,0-0.085,0.003-0.126,0.008
		c-0.456-0.972-1.26-1.883-2.628-2.443V16c0-1.206-0.799-3-3-3s-3,1.794-3,3v5.339c-4.353,1.146-5,5.117-5,8.661
		c0,5.167,3.638,7,6.754,7c6.625,0,9.639-2.369,10.075-7.922C48.852,28.794,49.01,26.257,47.715,24.854z M46.835,28.922
		C46.54,32.674,45.085,35,38.754,35C37.324,35,34,34.513,34,30c0-3.403,0.563-5.7,3-6.586V24c0,0.553,0.447,1,1,1
		c0.552,0,1-0.447,1-1v-7.988C39.012,15.55,39.194,15,40,15c0.805,0,0.988,0.55,1,1v8c0,0.553,0.447,1,1,1c0.552,0,1-0.447,1-1
		v-0.146c1.097,0.852,1.254,2.231,1.254,3.646c0,0.553,0.447,1,1,1c0.552,0,1-0.447,1-1c0-0.33,0-0.8-0.057-1.337
		c0.016,0.016,0.032,0.031,0.049,0.049C46.75,26.758,46.896,28.151,46.835,28.922z"/>
</g>
</svg>
