<?xml version="1.0" encoding="utf-8"?>
<!-- Generator: Adobe Illustrator 16.0.4, SVG Export Plug-In . SVG Version: 6.00 Build 0)  -->
<!DOCTYPE svg PUBLIC "-//W3C//DTD SVG 1.1//EN" "http://www.w3.org/Graphics/SVG/1.1/DTD/svg11.dtd">
<svg version="1.1" id="goatse" xmlns="http://www.w3.org/2000/svg" xmlns:xlink="http://www.w3.org/1999/xlink" x="0px" y="0px"
	 width="38px" height="38px" viewBox="0 0 38 38" enable-background="new 0 0 38 38" xml:space="preserve">
<path fill="#CCD6DD" d="M11.444,27c0,0,0,6,0,7s-1,3,0,3s3.111,0,4.111,0s0-2,0-3s0-7,0-7H11.444z"/>
<path fill="#CCD6DD" d="M22.444,27c0,0,0,6,0,7s-1,3,0,3s3.111,0,4.111,0s0-2,0-3s0-7,0-7H22.444z"/>
<path fill="#99AAB5" d="M13,10c0,0-7,5.454-7,10.908C6,26.363,13,30,19,30s13-3.637,13-9.092C32,15.454,25,10,25,10H13z"/>
<path fill="#272B2B" d="M11.444,37c1,0,3.111,0,4.111,0c0.723,0,0.402-1.043,0.167-2h-4.446C11.042,35.957,10.722,37,11.444,37z"/>
<path fill="#272B2B" d="M22.444,37c1,0,3.111,0,4.111,0c0.723,0,0.401-1.043,0.168-2h-4.447C22.043,35.957,21.722,37,22.444,37z"/>
<path fill="#292F33" d="M26,6.5H12c-0.829,0-1.5,0.671-1.5,1.5v2.414c0,2.256,1.363,4.981,2.358,6.971
	c0.305,0.609,0.677,1.354,0.789,1.68c-0.007,0.026-0.016,0.051-0.023,0.075c-0.47,1.673,0.413,2.581,2.704,4.108
	c1.284,0.855,2.064,1.132,2.208,1.179C18.687,24.476,18.843,24.5,19,24.5s0.313-0.024,0.464-0.073
	c0.143-0.047,0.924-0.323,2.208-1.179c2.291-1.527,3.173-2.436,2.704-4.108c-0.007-0.024-0.017-0.048-0.023-0.075
	c0.111-0.325,0.484-1.07,0.789-1.68c0.995-1.99,2.358-4.715,2.358-6.971V8C27.5,7.171,26.828,6.5,26,6.5z"/>
<path fill="#CCD6DD" d="M17,4.414c0,0,0,0-1-1s-3,0-3,1s-1,1-1,1S11,4,8,4S4,6.414,4,6.414s2,2,4,2S12,8,12,8s0,1.414,0,2.414
	c0,3,3.16,7.586,3.16,8.586s-1,1,2,3c1.177,0.784,1.84,1,1.84,1s0.663-0.216,1.84-1c3-2,2-2,2-3S26,13.414,26,10.414
	C26,9.414,26,8,26,8s2,0.414,4,0.414s4-2,4-2S33,4,30,4s-4,1.414-4,1.414s-1,0-1-1s-2-2-3-1s-1,1-1,1H17z"/>
<path fill="#FFE8B6" d="M26.721,0.87c-0.45-0.459-3.634,0.453-4.088,2.271c-0.455,1.817,2.271,1.817,2.271,1.362
	C24.903,2.687,27.629,1.797,26.721,0.87z"/>
<path fill="#FFE8B6" d="M11.577,0.87c0.45-0.459,3.634,0.453,4.087,2.271c0.455,1.817-2.271,1.817-2.271,1.362
	C13.394,2.687,10.668,1.797,11.577,0.87z"/>
<ellipse fill="#272B2B" cx="14.5" cy="11" rx="1.5" ry="1"/>
<ellipse fill="#272B2B" cx="23.5" cy="11" rx="1.5" ry="1"/>
<path fill="#E6AAAA" d="M27,8c0,0,3-2,5-2s2,0.414,2,0.414s-2,2-4,2S27,8,27,8z"/>
<path fill="#E6AAAA" d="M11,8c0,0-3-2-5-2S4,6.414,4,6.414s2,2,4,2S11,8,11,8z"/>
<path fill="#F5F8FA" d="M17,22c0,0,0,4,1,5s1,1,1,1s0,0,1-1s1-5,1-5H17z"/>
<path fill="#E6AAAA" d="M22,16c-1,0-2,1-3,1s-2-1-3-1c-0.708,0-1.409,0.498-1.762,0.79c0.518,1.035,0.922,1.853,0.922,2.21
	c0,1-1,1,2,3c1.177,0.784,1.84,1,1.84,1s0.663-0.216,1.84-1c3-2,2-2,2-3c0-0.357,0.404-1.175,0.922-2.21
	C23.409,16.498,22.708,16,22,16z"/>
<ellipse transform="matrix(0.7071 -0.7071 0.7071 0.7071 -6.5772 20.1213)" fill="#C1694F" cx="21" cy="18" rx="1.355" ry="0.678"/>
<ellipse transform="matrix(0.7071 0.7071 -0.7071 0.7071 17.7071 -6.7487)" fill="#C1694F" cx="17" cy="18" rx="1.355" ry="0.678"/>
<path fill="#272B2B" d="M22.416,19.723c-0.154-0.23-0.466-0.292-0.693-0.139c-0.012,0.008-1.066,0.703-2.223,0.877V19
	c0-0.276-0.224-0.5-0.5-0.5s-0.5,0.224-0.5,0.5v1.46c-1.152-0.174-2.211-0.868-2.223-0.876c-0.231-0.155-0.541-0.092-0.693,0.14
	c-0.153,0.229-0.091,0.539,0.139,0.692C15.789,20.46,17.367,21.5,19,21.5s3.211-1.04,3.277-1.084
	C22.507,20.263,22.569,19.952,22.416,19.723z"/>
</svg>
