<?xml version="1.0" encoding="utf-8"?>
<!-- Generator: Adobe Illustrator 16.0.4, SVG Export Plug-In . SVG Version: 6.00 Build 0)  -->
<!DOCTYPE svg PUBLIC "-//W3C//DTD SVG 1.1//EN" "http://www.w3.org/Graphics/SVG/1.1/DTD/svg11.dtd">
<svg version="1.1" xmlns="http://www.w3.org/2000/svg" xmlns:xlink="http://www.w3.org/1999/xlink" x="0px" y="0px" width="78px"
	 height="38px" viewBox="0 0 78 38" enable-background="new 0 0 78 38" xml:space="preserve">
<g id="base">
	<path fill="#FFCC4D" d="M57,19c0,9.941-8.059,18-18,18c-9.941,0-18-8.059-18-18c0-9.941,8.059-18,18-18C48.941,1,57,9.059,57,19"/>
</g>
<g id="hug">
	<ellipse fill="#664500" cx="45" cy="15.8" rx="2" ry="2.8"/>
	<ellipse fill="#664500" cx="33" cy="15.8" rx="2" ry="2.8"/>
	<path fill="#664500" d="M48.335,24.629c-0.178-0.161-0.444-0.171-0.635-0.029c-0.039,0.029-3.922,2.9-8.7,2.9
		c-4.766,0-8.662-2.871-8.7-2.9c-0.191-0.142-0.457-0.13-0.635,0.029c-0.177,0.16-0.217,0.424-0.094,0.628
		C29.7,25.472,32.788,30.5,39,30.5s9.301-5.028,9.429-5.243C48.552,25.052,48.513,24.789,48.335,24.629z"/>
	<path fill="#FFCC4D" d="M71.48,9.02c4.438,2.303,5.576,7.675,3.621,11.441c-1.954,3.764-4.513,5.623-6.42,6.227
		c-1.906,0.604-6.927-2.002-8.436-6.769c-1.208-3.813-3.292-6.3-1.16-6.975c1.906-0.604,4.672,4.814,4.672,4.814
		S65.15,5.735,71.48,9.02z"/>
	<path fill="#664500" d="M59.293,20.448c-0.344-1.082-0.766-2.065-1.137-2.932c-0.756-1.762-1.301-3.035-0.797-4.134
		c0.253-0.554,0.732-0.945,1.425-1.165c1.638-0.518,3.283,1.202,4.478,2.954c0.648-2.662,2.047-6.402,4.876-7.298
		c1.181-0.374,2.46-0.21,3.803,0.487c5.036,2.614,6.159,8.723,4.049,12.789c-2.524,4.863-5.739,6.32-7.005,6.721
		C66.41,28.684,60.93,25.619,59.293,20.448z M64.75,18.101c-0.051,0.437-0.375,0.792-0.816,0.868
		c-0.433,0.078-0.867-0.137-1.066-0.529c-1.251-2.446-2.959-4.418-3.479-4.316c-0.149,0.047-0.209,0.091-0.211,0.09
		c-0.125,0.318,0.42,1.587,0.816,2.514c0.391,0.91,0.832,1.941,1.205,3.116c1.412,4.463,6.029,6.482,7.182,6.117
		c0.802-0.254,3.592-1.418,5.834-5.734c1.665-3.208,0.778-8.029-3.195-10.092c-0.867-0.449-1.612-0.565-2.278-0.355
		C66.172,10.593,64.989,16.062,64.75,18.101z"/>
	<path fill="#664500" d="M64.236,24.764c-0.525-0.146-1.084,0.155-1.236,0.688c-0.017,0.06-2,2.549-9.514,4.201
		c-0.585,0.794-1.224,1.544-1.929,2.23C51.694,31.951,51.84,32,51.999,32c0.06,0,0.119-0.004,0.18-0.017
		C66,29,64.835,26.311,64.924,26C65.075,25.47,64.768,24.916,64.236,24.764z"/>
	<path fill="#FFCC4D" d="M6.52,9.02c-4.438,2.303-5.576,7.675-3.621,11.441c1.954,3.764,4.513,5.623,6.42,6.227
		c1.906,0.604,6.927-2.002,8.436-6.769c1.208-3.813,3.292-6.3,1.16-6.975c-1.906-0.604-4.672,4.814-4.672,4.814
		S12.85,5.735,6.52,9.02z"/>
	<path fill="#664500" d="M9.016,27.869c-1.266-0.4-4.48-1.857-7.005-6.721C-0.1,17.083,1.023,10.973,6.06,8.359
		c1.343-0.697,2.622-0.86,3.803-0.487c2.829,0.896,4.228,4.636,4.876,7.298c1.194-1.752,2.84-3.472,4.478-2.954
		c0.692,0.219,1.172,0.611,1.425,1.165c0.504,1.1-0.041,2.373-0.797,4.134c-0.371,0.867-0.793,1.851-1.137,2.932
		C17.07,25.619,11.59,28.684,9.016,27.869z M9.259,9.779c-0.666-0.21-1.411-0.094-2.278,0.355c-3.974,2.063-4.86,6.884-3.195,10.092
		c2.242,4.316,5.032,5.48,5.834,5.734c1.152,0.365,5.77-1.654,7.182-6.117c0.373-1.175,0.814-2.206,1.205-3.116
		c0.396-0.927,0.941-2.196,0.816-2.514c-0.002,0.001-0.062-0.042-0.211-0.09c-0.52-0.102-2.228,1.87-3.479,4.316
		c-0.199,0.393-0.634,0.607-1.066,0.529c-0.441-0.076-0.766-0.431-0.816-0.868C13.011,16.062,11.828,10.593,9.259,9.779z"/>
	<path fill="#664500" d="M13.764,24.764c0.525-0.146,1.084,0.155,1.236,0.688c0.017,0.06,2,2.549,9.514,4.201
		c0.585,0.794,1.224,1.544,1.929,2.23C26.306,31.951,26.16,32,26.001,32c-0.06,0-0.119-0.004-0.18-0.017
		C12,29,13.165,26.311,13.076,26C12.925,25.47,13.232,24.916,13.764,24.764z"/>
</g>
</svg>
