<?xml version="1.0" encoding="utf-8"?>
<!-- Generator: Adobe Illustrator 16.0.4, SVG Export Plug-In . SVG Version: 6.00 Build 0)  -->
<!DOCTYPE svg PUBLIC "-//W3C//DTD SVG 1.1//EN" "http://www.w3.org/Graphics/SVG/1.1/DTD/svg11.dtd">
<svg version="1.1" xmlns="http://www.w3.org/2000/svg" xmlns:xlink="http://www.w3.org/1999/xlink" x="0px" y="0px" width="38px"
	 height="38px" viewBox="0 0 38 38" enable-background="new 0 0 38 38" xml:space="preserve">
<g id="base">
	<path fill="#FFCC4D" d="M37,19c0,9.941-8.059,18-18,18C9.059,37,1,28.941,1,19C1,9.059,9.059,1,19,1C28.941,1,37,9.059,37,19"/>
</g>
<g id="kiss_copia">
	<ellipse fill="#664500" cx="25" cy="15.8" rx="2" ry="2.8"/>
	<ellipse fill="#664500" cx="13" cy="15.8" rx="2" ry="2.8"/>
	<ellipse fill="#664500" cx="19" cy="27.8" rx="1" ry="1.399"/>
</g>
<g id="kiss_copia_2" display="none">
	<path display="inline" fill="#664500" d="M21.871,27.5c1.335-0.412,2.629-1.156,2.629-2.5c0-2.619-4.912-2.967-5.472-2.998
		c-0.274-0.027-0.509,0.193-0.527,0.467c-0.017,0.273,0.19,0.512,0.464,0.531C19,23.002,22.5,23.299,22.5,25
		c0,1.703-3.5,2-3.535,2.002c-0.014,0-0.024,0.008-0.037,0.01c-0.052,0.006-0.101,0.018-0.146,0.041
		c-0.007,0.002-0.012,0.008-0.019,0.01c-0.047,0.027-0.088,0.057-0.125,0.098c-0.014,0.016-0.024,0.031-0.036,0.049
		c-0.023,0.031-0.044,0.062-0.06,0.102c-0.012,0.029-0.018,0.061-0.024,0.092c-0.004,0.023-0.016,0.043-0.018,0.066
		c0,0.012,0.004,0.021,0.004,0.031c0,0.012-0.005,0.021-0.004,0.031c0.001,0.025,0.013,0.045,0.018,0.068
		c0.006,0.031,0.011,0.061,0.023,0.09c0.013,0.031,0.031,0.057,0.049,0.084c0.017,0.025,0.032,0.051,0.052,0.072
		c0.023,0.023,0.05,0.041,0.078,0.061c0.024,0.016,0.046,0.033,0.074,0.047c0.032,0.014,0.066,0.02,0.101,0.027
		c0.024,0.006,0.044,0.018,0.069,0.02C19,28.002,22.5,28.299,22.5,30c0,1.703-3.5,2-3.535,2.002
		c-0.274,0.02-0.481,0.256-0.464,0.529C18.518,32.797,18.738,33,19,33c0.009,0,0.019,0,0.028,0c0.56-0.031,5.472-0.381,5.472-3
		C24.5,28.656,23.206,27.912,21.871,27.5z"/>
	<ellipse display="inline" fill="#664500" cx="25" cy="15.8" rx="2" ry="2.8"/>
	<ellipse display="inline" fill="#664500" cx="13" cy="15.8" rx="2" ry="2.8"/>
</g>
<g id="kiss" display="none">
	<path display="inline" fill="#664500" d="M21.871,27.5c1.335-0.412,2.629-1.156,2.629-2.5c0-2.619-4.912-2.967-5.472-2.998
		c-0.274-0.027-0.509,0.193-0.527,0.467c-0.017,0.273,0.19,0.512,0.464,0.531C19,23.002,22.5,23.299,22.5,25
		c0,1.703-3.5,2-3.535,2.002c-0.014,0-0.024,0.008-0.037,0.01c-0.052,0.006-0.101,0.018-0.146,0.041
		c-0.007,0.002-0.012,0.008-0.019,0.01c-0.047,0.027-0.088,0.057-0.125,0.098c-0.014,0.016-0.024,0.031-0.036,0.049
		c-0.023,0.031-0.044,0.062-0.06,0.102c-0.012,0.029-0.018,0.061-0.024,0.092c-0.004,0.023-0.016,0.043-0.018,0.066
		c0,0.012,0.004,0.021,0.004,0.031c0,0.012-0.005,0.021-0.004,0.031c0.001,0.025,0.013,0.045,0.018,0.068
		c0.006,0.031,0.011,0.061,0.023,0.09c0.013,0.031,0.031,0.057,0.049,0.084c0.017,0.025,0.032,0.051,0.052,0.072
		c0.023,0.023,0.05,0.041,0.078,0.061c0.024,0.016,0.046,0.033,0.074,0.047c0.032,0.014,0.066,0.02,0.101,0.027
		c0.024,0.006,0.044,0.018,0.069,0.02C19,28.002,22.5,28.299,22.5,30c0,1.703-3.5,2-3.535,2.002
		c-0.274,0.02-0.481,0.256-0.464,0.529C18.518,32.797,18.738,33,19,33c0.009,0,0.019,0,0.028,0c0.56-0.031,5.472-0.381,5.472-3
		C24.5,28.656,23.206,27.912,21.871,27.5z"/>
	<path display="inline" fill="#E75A70" d="M36.404,26.723c0.739-1.516,0.11-3.348-1.405-4.086c-0.922-0.449-1.956-0.391-2.793,0.059
		c-0.16-0.936-0.75-1.789-1.67-2.236c-1.518-0.74-3.348-0.109-4.087,1.406c-0.105,0.215-0.18,0.436-0.23,0.658
		c-0.774,2.557,0.64,6.342,2.192,7.949c2.223,0.234,6.077-0.979,7.615-3.162C36.171,27.133,36.299,26.938,36.404,26.723z"/>
	<ellipse display="inline" fill="#664500" cx="25" cy="15.8" rx="2" ry="2.8"/>
	<ellipse display="inline" fill="#664500" cx="13" cy="15.8" rx="2" ry="2.8"/>
</g>
<g id="kiss_copia_3" display="none">
	<path display="inline" fill="#664500" d="M21.871,27.5c1.335-0.412,2.629-1.156,2.629-2.5c0-2.619-4.912-2.967-5.472-2.998
		c-0.274-0.027-0.509,0.193-0.527,0.467c-0.017,0.273,0.19,0.512,0.464,0.531C19,23.002,22.5,23.299,22.5,25
		c0,1.703-3.5,2-3.535,2.002c-0.014,0-0.024,0.008-0.037,0.01c-0.052,0.006-0.101,0.018-0.146,0.041
		c-0.007,0.002-0.012,0.008-0.019,0.01c-0.047,0.027-0.088,0.057-0.125,0.098c-0.014,0.016-0.024,0.031-0.036,0.049
		c-0.023,0.031-0.044,0.062-0.06,0.102c-0.012,0.029-0.018,0.061-0.024,0.092c-0.004,0.023-0.016,0.043-0.018,0.066
		c0,0.012,0.004,0.021,0.004,0.031c0,0.012-0.005,0.021-0.004,0.031c0.001,0.025,0.013,0.045,0.018,0.068
		c0.006,0.031,0.011,0.061,0.023,0.09c0.013,0.031,0.031,0.057,0.049,0.084c0.017,0.025,0.032,0.051,0.052,0.072
		c0.023,0.023,0.05,0.041,0.078,0.061c0.024,0.016,0.046,0.033,0.074,0.047c0.032,0.014,0.066,0.02,0.101,0.027
		c0.024,0.006,0.044,0.018,0.069,0.02C19,28.002,22.5,28.299,22.5,30c0,1.703-3.5,2-3.535,2.002
		c-0.274,0.02-0.481,0.256-0.464,0.529C18.518,32.797,18.738,33,19,33c0.009,0,0.019,0,0.028,0c0.56-0.031,5.472-0.381,5.472-3
		C24.5,28.656,23.206,27.912,21.871,27.5z"/>
	<path display="inline" fill="#F28E5F" d="M36.79,23.346c0.502-1.029,0.075-2.274-0.955-2.775c-0.626-0.306-1.329-0.266-1.897,0.039
		c-0.108-0.636-0.51-1.215-1.135-1.519c-1.03-0.503-2.273-0.074-2.776,0.956c-0.071,0.146-0.122,0.296-0.156,0.447
		c-0.526,1.736,0.435,4.309,1.489,5.4c1.51,0.159,4.129-0.665,5.174-2.148C36.632,23.624,36.719,23.492,36.79,23.346z"/>
	<ellipse display="inline" fill="#664500" cx="25" cy="15.8" rx="2" ry="2.8"/>
	<ellipse display="inline" fill="#664500" cx="13" cy="15.8" rx="2" ry="2.8"/>
</g>
</svg>
