<?xml version="1.0" encoding="utf-8"?>
<!-- Generator: Adobe Illustrator 16.0.4, SVG Export Plug-In . SVG Version: 6.00 Build 0)  -->
<!DOCTYPE svg PUBLIC "-//W3C//DTD SVG 1.1//EN" "http://www.w3.org/Graphics/SVG/1.1/DTD/svg11.dtd">
<svg version="1.1" xmlns="http://www.w3.org/2000/svg" xmlns:xlink="http://www.w3.org/1999/xlink" x="0px" y="0px" width="38px"
	 height="38px" viewBox="0 0 38 38" enable-background="new 0 0 38 38" xml:space="preserve">
<g id="base">
	<path fill="#FFCC4D" d="M37,19c0,9.941-8.059,18-18,18C9.059,37,1,28.941,1,19C1,9.059,9.059,1,19,1C28.941,1,37,9.059,37,19"/>
</g>
<g id="lol">
	<path fill="#664500" d="M6,20c-0.757,0.001-1,0.003-1,2.367C5,27.094,12.013,33,19,33c6.986,0,14-5.906,14-10.633
		c0-2.364-0.244-2.366-1-2.367C29.182,19.997,8.818,19.997,6,20z"/>
	<path fill="#FFFFFF" d="M7.182,22h23.636c0,0-4.183,3.633-11.818,3.633C11.363,25.633,7.182,22,7.182,22z"/>
	<ellipse fill="#664500" cx="25" cy="12.8" rx="2" ry="2.8"/>
	<ellipse fill="#664500" cx="13" cy="12.8" rx="2" ry="2.8"/>
	<path fill="#E75A70" d="M19,31c2,0,4-1,3-2s-3,0-3,0s-2-1-3,0S17,31,19,31z"/>
</g>
<g id="lol_copia" display="none">
	<path display="inline" fill="#664500" d="M6,18c-0.757,0.001-1,0.003-1,2.367C5,27,10,33,19,33s14-6,14-12.633
		c0-2.364-0.244-2.366-1-2.367C29.182,17.997,8.818,17.997,6,18z"/>
	<path display="inline" fill="#FFFFFF" d="M7.182,20h23.636c0,0-4.183,3.633-11.818,3.633C11.363,23.633,7.182,20,7.182,20z"/>
	<ellipse display="inline" fill="#664500" cx="25" cy="11.2" rx="2" ry="2.8"/>
	<ellipse display="inline" fill="#664500" cx="13" cy="11.2" rx="2" ry="2.8"/>
	<path display="inline" fill="#E75A70" d="M19,31c2,0,4-1,3-2s-3,0-3,0s-2-1-3,0S17,31,19,31z"/>
</g>
<g id="lol_copia_2" display="none">
	<path display="inline" fill="#664500" d="M7,22c-0.757,0.001-1,0.003-1,2.367C6,29.094,14,33,19,33c6,0,13-3.906,13-8.633
		c0-2.364-0.244-2.366-1-2.367C28.182,21.997,9.818,21.997,7,22z"/>
	<path display="inline" fill="#FFFFFF" d="M7.182,24h23.636c0,0-4.183,3.633-11.818,3.633C11.363,27.633,7.182,24,7.182,24z"/>
	<ellipse display="inline" fill="#664500" cx="25" cy="14.2" rx="2" ry="2.8"/>
	<ellipse display="inline" fill="#664500" cx="13" cy="14.2" rx="2" ry="2.8"/>
	<path display="inline" fill="#E75A70" d="M19,31c2,0,4-1,3-2s-3,0-3,0s-2-1-3,0S17,31,19,31z"/>
</g>
</svg>
