<?xml version="1.0" encoding="utf-8"?>
<!-- Generator: Adobe Illustrator 16.0.4, SVG Export Plug-In . SVG Version: 6.00 Build 0)  -->
<!DOCTYPE svg PUBLIC "-//W3C//DTD SVG 1.1//EN" "http://www.w3.org/Graphics/SVG/1.1/DTD/svg11.dtd">
<svg version="1.1" xmlns="http://www.w3.org/2000/svg" xmlns:xlink="http://www.w3.org/1999/xlink" x="0px" y="0px" width="54px"
	 height="38px" viewBox="0 0 54 38" enable-background="new 0 0 54 38" xml:space="preserve">
<g id="base">
	<path fill="#FFCC4D" d="M37,19c0,9.941-8.059,18-18,18C9.059,37,1,28.941,1,19C1,9.059,9.059,1,19,1C28.941,1,37,9.059,37,19"/>
</g>
<g id="oops">
	<circle fill="#FF7892" cx="9" cy="21" r="5"/>
	<circle fill="#FF7892" cx="29" cy="21" r="5"/>
	<path fill="#664500" d="M30,13c-5.554,0-7.802-4.367-7.895-4.553c-0.247-0.494-0.047-1.095,0.447-1.342
		c0.493-0.247,1.092-0.048,1.34,0.443C23.967,7.694,25.713,11,30,11c0.553,0,1,0.448,1,1S30.553,13,30,13z"/>
	<path fill="#664500" d="M8,13c-0.552,0-1-0.448-1-1s0.448-1,1-1c5.083,0,5.996-3.12,6.033-3.253
		c0.145-0.528,0.692-0.848,1.219-0.709c0.53,0.139,0.851,0.673,0.718,1.205C15.921,8.437,14.704,13,8,13z"/>
	<ellipse fill="#664500" cx="25" cy="15.8" rx="2" ry="2.8"/>
	<ellipse fill="#664500" cx="13" cy="15.8" rx="2" ry="2.8"/>
	<path fill="#664500" d="M19,31c-2.131,0-6.841-1.859-7.372-2.071c-0.513-0.205-0.762-0.787-0.557-1.3
		c0.206-0.514,0.787-0.765,1.3-0.558C13.713,27.607,17.519,29,19,29c1.481,0,5.287-1.393,6.629-1.929
		c0.509-0.204,1.095,0.043,1.3,0.558c0.205,0.513-0.045,1.095-0.558,1.3C25.842,29.141,21.131,31,19,31z"/>
</g>
<g id="fanta">
	<path fill="#F5F8FA" d="M40,5c0,0,0,1,0,2c0,0.596-1.064,0.844-1.925,2h7.85C45.064,7.844,44,7.596,44,7c0-1,0-2,0-2H40z"/>
	<path fill="#F18F26" d="M45.925,9h-7.85C37.491,9.783,37,10.98,37,13c0,2,2,3,2,5s-2,3-2,5s0,11,0,12s1,2,2,2s5,0,6,0s2-1,2-2
		s0-10,0-12s-2-3-2-5s2-3,2-5C47,10.98,46.509,9.783,45.925,9z"/>
	<path fill="#004899" d="M40,5h4c0-2,0-2-1-2s-1,0-2,0S40,3,40,5"/>
</g>
<g id="palm_palm">
	<path fill="#664500" d="M51.832,26.445c-0.306-0.46-0.926-0.583-1.387-0.277c-3.914,2.607-14.941,8.741-20.484,7.087
		c-0.578,0.446-1.185,0.855-1.816,1.229c0.104,0.184,0.253,0.345,0.462,0.435c1.026,0.44,2.197,0.631,3.454,0.631
		c7.814,0,18.95-7.355,19.494-7.718C52.015,27.525,52.139,26.905,51.832,26.445z"/>
	<path fill="#FFCC4D" d="M35.001,27c0,4.999,2.382,7.227,6.624,7.227c4.243,0,7.071-1.415,8.485-2.829
		c1.415-1.414,1.415-7.071-2.121-10.606C45.161,17.962,45.001,19,45.001,19c1,2,1,3,1,3S35.001,19.869,35.001,27z"/>
	<path fill="#664500" d="M45.016,17.75c-0.062,0.766,0,1.203,0,1.203c0.266-0.438,1.349,0.207,2.979,1.838
		c3.536,3.535,3.536,9.192,2.121,10.606c-1.414,1.414-4.242,2.829-8.485,2.829c-4.242,0-6.624-2.228-6.624-7.227
		c0-4.464,4.31-5.298,7.534-5.298c1.926,0,3.466,0.298,3.466,0.298s0.738-1.338-0.495-1.877c-0.863-0.377-2.386-0.413-2.386-0.413
		c-0.19-0.005-0.386-0.008-0.585-0.008c-8.605,0-9.534,5.104-9.534,7.298c0,5.95,3.062,9.227,8.624,9.227
		c5.853,0,8.873-2.388,9.899-3.415c1.203-1.201,1.713-3.513,1.365-6.181c-0.364-2.795-1.603-5.371-3.486-7.254
		c-1.844-1.844-3-2.562-4.126-2.562C45.283,16.814,45.078,16.984,45.016,17.75z"/>
</g>
<g id="Capa_5" display="none">
	<path display="inline" fill="#EB6B26" d="M46,15c0,1,0,14,0,14s0,1-1,1s-8,0-9,0s-1-1-1-1s0-13,0-14s0.5-1,0.5-2c1,0,9,0,10,0
		C45.5,14,46,14,46,15z"/>
	<path display="inline" fill="#CCD6DD" d="M46,12.5c0,0.276-0.224,0.5-0.5,0.5h-10c-0.276,0-0.5-0.224-0.5-0.5l0,0
		c0-0.276,0.224-0.5,0.5-0.5h10C45.776,12,46,12.224,46,12.5L46,12.5z"/>
	
		<circle display="inline" fill="#EB6B26" stroke="#FFFFFF" stroke-width="0.5" stroke-miterlimit="10" cx="40.5" cy="20.5" r="4.5"/>
	<g display="inline">
		<path fill="#27348B" d="M36.776,23.111c-0.217-0.434-0.435-0.821-0.631-1.171c-0.718-1.278-1.237-2.202-0.322-3.117
			c0.5-0.5,1.061-0.823,1.427-0.823c0.262,0,0.356,0.161,0.386,0.23c0.098,0.235-0.049,0.536-0.459,0.947
			c-0.382,0.383-0.371,0.529-0.371,0.53c0.014,0.013,0.079,0.031,0.145,0.039c0.163-0.077,0.548-0.246,0.8-0.246
			c0.247,0,0.336,0.15,0.362,0.215c0.098,0.235-0.024,0.551-0.936,1.462c-0.17,0.17-0.257,0.325-0.238,0.425
			c0.016,0.087,0.123,0.152,0.16,0.169l0.148,0.065l0.003,2.223L36.776,23.111z"/>
		<path fill="#FFFFFF" d="M37.25,18.25c0.25,0,0.25,0.25-0.25,0.75c-1,1,0,1,0,1s0.5-0.25,0.75-0.25S38,20,37,21
			c-0.707,0.707,0,1,0,1v1c-1-2-2-3-1-4C36.5,18.5,37,18.25,37.25,18.25 M37.25,17.75c-0.437,0-1.051,0.343-1.604,0.896
			c-1.049,1.049-0.433,2.146,0.281,3.417c0.194,0.347,0.41,0.729,0.625,1.16l0.947,1.895V23v-1v-0.334l-0.298-0.123
			c0.02-0.037,0.062-0.101,0.151-0.189c0.914-0.914,1.155-1.336,0.99-1.734c-0.096-0.231-0.318-0.369-0.594-0.369
			c-0.107,0-0.229,0.022-0.349,0.055c0.299-0.308,0.642-0.746,0.465-1.171C37.767,17.894,37.536,17.75,37.25,17.75L37.25,17.75z"/>
	</g>
	<g display="inline">
		<path fill="#27348B" d="M38.519,21.694c-0.481,0-0.769-0.26-0.769-0.694c0-1.095,0.109-1.241,1.139-1.25
			c0.063-0.078,0.071-0.124,0.067-0.135c-0.008-0.023-0.105-0.226-1.112-0.352l-0.232-0.029l-0.068-0.247
			c0.014-0.219,0.181-0.236,0.399-0.238c0.21-0.1,0.977-0.444,1.539-0.444c0.481,0,0.769,0.259,0.769,0.694v2.154l-0.139,0.069
			C40.073,21.243,39.163,21.694,38.519,21.694z"/>
		<path fill="#FFFFFF" d="M39.481,18.556C39.777,18.556,40,18.667,40,19c0,0.348,0,0.694,0,1c0,0.573,0,1,0,1
			s-0.889,0.444-1.481,0.444C38.223,21.444,38,21.333,38,21c0-1,0-1,1-1c1-1-2-1-1-1C38,19,38.889,18.556,39.481,18.556
			 M39.481,18.056L39.481,18.056c-0.581,0-1.318,0.315-1.599,0.446c-0.234,0.009-0.564,0.072-0.589,0.47
			c-0.005,0.079-0.003,0.474,0.519,0.54c0.141,0.018,0.26,0.036,0.362,0.055C37.619,19.7,37.5,20.072,37.5,21
			c0,0.574,0.399,0.944,1.019,0.944c0.69,0,1.604-0.446,1.705-0.497l0.276-0.139V21v-1v-1C40.5,18.426,40.101,18.056,39.481,18.056
			L39.481,18.056z"/>
	</g>
	<g display="inline">
		<path fill="#27348B" d="M43.726,21.25c-0.481,0-0.769-0.26-0.769-0.694c0-1.095,0.109-1.241,1.139-1.25
			c0.063-0.079,0.071-0.124,0.067-0.136c-0.008-0.022-0.105-0.225-1.112-0.351l-0.232-0.029l-0.068-0.247
			c0.014-0.219,0.181-0.236,0.399-0.238c0.21-0.1,0.977-0.444,1.539-0.444c0.481,0,0.769,0.259,0.769,0.694v2.154l-0.139,0.069
			C45.28,20.799,44.37,21.25,43.726,21.25z"/>
		<path fill="#FFFFFF" d="M44.688,18.111c0.296,0,0.519,0.111,0.519,0.444c0,0.348,0,0.694,0,1c0,0.573,0,1,0,1S44.318,21,43.726,21
			c-0.296,0-0.519-0.111-0.519-0.444c0-1,0-1,1-1c1-1-2-1-1-1C43.207,18.556,44.096,18.111,44.688,18.111 M44.688,17.611
			L44.688,17.611c-0.581,0-1.318,0.315-1.599,0.446c-0.234,0.009-0.564,0.072-0.589,0.47c-0.005,0.079-0.003,0.474,0.519,0.54
			c0.141,0.018,0.26,0.036,0.362,0.055c-0.556,0.133-0.675,0.505-0.675,1.433c0,0.573,0.399,0.944,1.019,0.944
			c0.69,0,1.604-0.446,1.705-0.497l0.276-0.139v-0.309v-1v-1C45.707,17.982,45.308,17.611,44.688,17.611L44.688,17.611z"/>
	</g>
	<g display="inline">
		<path fill="#27348B" d="M40.846,21.25l-0.069-0.139c-1.034-2.069-0.979-2.472-0.847-2.687c0.069-0.111,0.186-0.175,0.32-0.175
			c0.225,0,0.507,0.198,0.714,0.376c0.112-0.105,0.267-0.19,0.463-0.19c0.24,0,0.493,0.13,0.75,0.388
			c1.358,1.358,1.4,1.852,1.284,2.13C43.364,21.188,43.126,21.25,43,21.25H40.846z"/>
		<path fill="#FFFFFF" d="M40.25,18.5C40.5,18.5,41,19,41,19s0.13-0.314,0.427-0.314c0.147,0,0.338,0.079,0.573,0.314c2,2,1,2,1,2
			h-2C40,19,40,18.5,40.25,18.5 M40.25,18c-0.22,0-0.419,0.11-0.533,0.293c-0.19,0.308-0.259,0.741,0.836,2.93l0.139,0.276H41h2
			c0.252,0,0.563-0.14,0.692-0.451c0.222-0.534-0.167-1.23-1.339-2.402c-0.306-0.306-0.617-0.461-0.927-0.461
			c-0.178,0-0.329,0.05-0.455,0.125C40.741,18.136,40.485,18,40.25,18L40.25,18z"/>
	</g>
	<g display="inline">
		<path fill="#27348B" d="M43.935,23.25c-0.646,0-0.885-2.048-0.887-2.068c-0.119-1.05-0.869-1.912-1.039-2.095
			c-1.325-0.521-1.282-0.751-1.254-0.904c0.053-0.279,0.395-0.279,0.541-0.279c0.683,0,0.792-0.113,0.796-0.118
			c-0.01-0.042-0.148-0.222-0.215-0.308c-0.156-0.204-0.318-0.416-0.209-0.637c0.106-0.217,0.381-0.217,0.483-0.217
			c0.588,0,0.721,0.501,0.808,0.833c0.108,0.407,0.177,0.603,0.557,0.603c0.182,0,0.417-0.048,0.7-0.143
			c0.13-0.043,0.232-0.064,0.316-0.064h0.074l0.128,0.055l0.113,0.074l0.021,0.175c0,0.339-0.725,0.837-1.443,0.946
			c0.048,0.208,0.16,0.367,0.303,0.568c0.3,0.424,0.673,0.952,0.673,2.203C44.401,22.724,44.323,23.25,43.935,23.25z"/>
		<path fill="#FFFFFF" d="M42.151,16.874c0.848,0,0.259,1.436,1.364,1.436c0.199,0,0.453-0.046,0.78-0.156
			c0.106-0.036,0.184-0.051,0.236-0.051c0.368,0-0.506,0.771-1.381,0.771c0,1,1,1,1,3c0,0.813-0.092,1.126-0.217,1.126
			c-0.219,0-0.537-0.953-0.639-1.847c-0.145-1.279-1.145-2.279-1.145-2.279s-1.855-0.72-0.855-0.72
			C43.657,18.154,41.097,16.874,42.151,16.874 M42.151,16.374c-0.353,0-0.591,0.12-0.708,0.357
			c-0.178,0.361,0.062,0.672,0.235,0.899c0.002,0.002,0.004,0.005,0.006,0.007c-0.096,0.01-0.222,0.017-0.389,0.017
			c-0.575,0-0.745,0.263-0.786,0.483c-0.072,0.382,0.12,0.671,1.353,1.161c0.205,0.23,0.834,1.004,0.937,1.911
			c0.062,0.538,0.323,2.291,1.136,2.291c0.717,0,0.717-1.018,0.717-1.626c0-1.33-0.416-1.918-0.719-2.348
			c-0.068-0.096-0.123-0.174-0.165-0.247c0.683-0.194,1.352-0.662,1.352-1.124c0-0.186-0.094-0.358-0.249-0.459
			c-0.097-0.063-0.211-0.095-0.338-0.095c-0.112,0-0.238,0.024-0.396,0.077c-0.321,0.108-0.515,0.13-0.621,0.13
			c-0.177,0-0.204,0-0.314-0.417C43.114,17.062,42.932,16.374,42.151,16.374L42.151,16.374z"/>
	</g>
	<path display="inline" fill="#3F7123" d="M40,17c-1,0-1,1-2,1s0,1,2,0S42,17,40,17z"/>
</g>
<g id="palm_palm_copia" display="none">
	<path display="inline" fill="#664500" d="M51.832,26.445c-0.306-0.46-0.926-0.583-1.387-0.277
		c-3.914,2.607-14.941,8.741-20.484,7.087c-0.578,0.446-1.185,0.855-1.816,1.229c0.104,0.184,0.253,0.345,0.462,0.435
		c1.026,0.44,2.197,0.631,3.454,0.631c7.814,0,18.95-7.355,19.494-7.718C52.015,27.525,52.139,26.905,51.832,26.445z"/>
	<path display="inline" fill="#FFCC4D" d="M35.001,27c0,4.999,2.382,7.227,6.624,7.227c4.243,0,7.071-1.415,8.485-2.829
		c1.415-1.414,1.595-7.261-2.121-10.606C46,18,46,19,46,19c0,2,0.001,3,0.001,3S35.001,19.869,35.001,27z"/>
	<path display="inline" fill="#664500" d="M46,18c0,0.768,0,1,0,1s0.364,0.16,1.995,1.791c3.536,3.535,3.536,9.192,2.121,10.606
		c-1.414,1.414-4.242,2.829-8.485,2.829c-4.242,0-6.624-2.228-6.624-7.227c0-4.464,4.31-5.298,7.534-5.298
		c1.926,0,3.466,0.298,3.466,0.298s1.227-1.461-0.007-2c-0.863-0.377-2.874-0.29-2.874-0.29c-0.19-0.005-0.386-0.008-0.585-0.008
		c-8.605,0-9.534,5.104-9.534,7.298c0,5.95,3.062,9.227,8.624,9.227c5.853,0,8.873-2.388,9.899-3.415
		c1.203-1.201,1.713-3.513,1.365-6.181c-0.364-2.795-1.603-5.371-3.486-7.254C47.565,17.533,47.126,17,46,17C46,17,46,17,46,18z"/>
</g>
</svg>
