<?xml version="1.0" encoding="utf-8"?>
<!-- Generator: Adobe Illustrator 16.0.4, SVG Export Plug-In . SVG Version: 6.00 Build 0)  -->
<!DOCTYPE svg PUBLIC "-//W3C//DTD SVG 1.1//EN" "http://www.w3.org/Graphics/SVG/1.1/DTD/svg11.dtd">
<svg version="1.1" xmlns="http://www.w3.org/2000/svg" xmlns:xlink="http://www.w3.org/1999/xlink" x="0px" y="0px" width="64px"
	 height="38px" viewBox="0 0 64 38" enable-background="new 0 0 64 38" xml:space="preserve">
<g id="base">
	<path fill="#FFCC4D" d="M37,19c0,9.941-8.059,18-18,18C9.059,37,1,28.941,1,19C1,9.059,9.059,1,19,1C28.941,1,37,9.059,37,19"/>
</g>
<g id="smiley" display="none">
	<ellipse display="inline" fill="#664500" cx="25" cy="15.8" rx="2" ry="2.8"/>
	<ellipse display="inline" fill="#664500" cx="13" cy="15.8" rx="2" ry="2.8"/>
	<path display="inline" fill="#664500" d="M29,22c-2.843,0-5.325,1.804-6.743,4.052C22.173,26.029,22.091,26,22,26H11
		c-0.552,0-1,0.447-1,1s0.448,1,1,1h10.335C21.119,28.671,21,29.348,21,30c0,0.553,0.447,1,1,1s1-0.447,1-1c0-2.416,2.52-6,6-6
		c0.553,0,1-0.447,1-1S29.553,22,29,22z"/>
</g>
<g id="smiley_copia">
	<ellipse fill="#664500" cx="25" cy="15.8" rx="2" ry="2.8"/>
	<ellipse fill="#664500" cx="13" cy="15.8" rx="2" ry="2.8"/>
	<path fill="#664500" d="M28,21c-2.821,0-5.288,1.776-6.712,4H11c-0.552,0-1,0.447-1,1s0.448,1,1,1h9.335
		C20.119,27.671,20,28.348,20,29c0,0.553,0.447,1,1,1s1-0.447,1-1c0-2.416,2.52-6,6-6c0.553,0,1-0.447,1-1S28.553,21,28,21z"/>
</g>
<g id="pop">
	<g>
		<circle fill="#FDD888" cx="44.25" cy="9.75" r="1.25"/>
		<circle fill="#FDD888" cx="42.5" cy="9.5" r="1.5"/>
		<circle fill="#FDD888" cx="44.5" cy="8.5" r="1.5"/>
		<circle fill="#FDD888" cx="43.5" cy="7.5" r="1.5"/>
		<circle fill="#FDD888" cx="41.5" cy="8.5" r="1.5"/>
	</g>
	<g>
		<circle fill="#FEE7B8" cx="51.25" cy="9.75" r="1.25"/>
		<circle fill="#FEE7B8" cx="49.5" cy="9.5" r="1.5"/>
		<circle fill="#FEE7B8" cx="51.5" cy="8.5" r="1.5"/>
		<circle fill="#FEE7B8" cx="50.5" cy="7.5" r="1.5"/>
		<circle fill="#FEE7B8" cx="48.5" cy="8.5" r="1.5"/>
	</g>
	<g>
		<circle fill="#FDCB58" cx="40.25" cy="12.75" r="1.25"/>
		<circle fill="#FDCB58" cx="38.5" cy="12.5" r="1.5"/>
		<circle fill="#FDCB58" cx="40.5" cy="11.5" r="1.5"/>
		<circle fill="#FDCB58" cx="39.5" cy="10.5" r="1.5"/>
		<circle fill="#FDCB58" cx="37.5" cy="11.5" r="1.5"/>
	</g>
	<g>
		<circle fill="#F5F8FA" cx="45.25" cy="11.75" r="1.25"/>
		<circle fill="#F5F8FA" cx="43.5" cy="11.5" r="1.5"/>
		<circle fill="#F5F8FA" cx="45.5" cy="10.5" r="1.5"/>
		<circle fill="#F5F8FA" cx="44.5" cy="9.5" r="1.5"/>
		<circle fill="#F5F8FA" cx="42.5" cy="10.5" r="1.5"/>
	</g>
	<g>
		<circle fill="#FDCB58" cx="48.25" cy="11.75" r="1.25"/>
		<circle fill="#FDCB58" cx="46.5" cy="11.5" r="1.5"/>
		<circle fill="#FDCB58" cx="48.5" cy="10.5" r="1.5"/>
		<circle fill="#FDCB58" cx="47.5" cy="9.5" r="1.5"/>
		<circle fill="#FDCB58" cx="45.5" cy="10.5" r="1.5"/>
	</g>
	<g>
		<circle fill="#F5F8FA" cx="53.25" cy="12.25" r="1.25"/>
		<circle fill="#F5F8FA" cx="51.5" cy="12" r="1.5"/>
		<circle fill="#F5F8FA" cx="53.5" cy="11" r="1.5"/>
		<circle fill="#F5F8FA" cx="52.5" cy="10" r="1.5"/>
		<circle fill="#F5F8FA" cx="50.5" cy="11" r="1.5"/>
	</g>
	<g>
		<circle fill="#F5F8FA" cx="40.25" cy="14.75" r="1.25"/>
		<circle fill="#F5F8FA" cx="38.5" cy="14.5" r="1.5"/>
		<circle fill="#F5F8FA" cx="40.5" cy="13.5" r="1.5"/>
		<circle fill="#F5F8FA" cx="39.5" cy="12.5" r="1.5"/>
		<circle fill="#F5F8FA" cx="37.5" cy="13.5" r="1.5"/>
	</g>
	<g>
		<circle fill="#FDD888" cx="44.25" cy="14.75" r="1.25"/>
		<circle fill="#FDD888" cx="42.5" cy="14.5" r="1.5"/>
		<circle fill="#FDD888" cx="44.5" cy="13.5" r="1.5"/>
		<circle fill="#FDD888" cx="43.5" cy="12.5" r="1.5"/>
		<circle fill="#FDD888" cx="41.5" cy="13.5" r="1.5"/>
	</g>
	<g>
		<circle fill="#F5F8FA" cx="48.25" cy="14.75" r="1.25"/>
		<circle fill="#F5F8FA" cx="46.5" cy="14.5" r="1.5"/>
		<circle fill="#F5F8FA" cx="48.5" cy="13.5" r="1.5"/>
		<circle fill="#F5F8FA" cx="47.5" cy="12.5" r="1.5"/>
		<circle fill="#F5F8FA" cx="45.5" cy="13.5" r="1.5"/>
	</g>
	<g>
		<circle fill="#FDCB58" cx="52.25" cy="14.75" r="1.25"/>
		<circle fill="#FDCB58" cx="50.5" cy="14.5" r="1.5"/>
		<circle fill="#FDCB58" cx="52.5" cy="13.5" r="1.5"/>
		<circle fill="#FDCB58" cx="51.5" cy="12.5" r="1.5"/>
		<circle fill="#FDCB58" cx="49.5" cy="13.5" r="1.5"/>
	</g>
	<g>
		<circle fill="#FEE7B8" cx="55.25" cy="13.75" r="1.25"/>
		<circle fill="#FEE7B8" cx="53.5" cy="13.5" r="1.5"/>
		<circle fill="#FEE7B8" cx="55.5" cy="12.5" r="1.5"/>
		<circle fill="#FEE7B8" cx="54.5" cy="11.5" r="1.5"/>
		<circle fill="#FEE7B8" cx="52.5" cy="12.5" r="1.5"/>
	</g>
	<polygon fill="#9D0522" points="40,15 36,14 36,36 40,36 	"/>
	<polygon fill="#9D0522" points="48,15 44,14 44,36 48,36 	"/>
	<polygon fill="#9D0522" points="56,15 52,14 52,36 56,36 	"/>
	<polygon fill="#F5F8FA" points="44,36 40,36 40,15 44,14 	"/>
	<polygon fill="#F5F8FA" points="52,36 48,36 48,15 52,14 	"/>
	<g>
		<path fill="#F5F8FA" d="M46,31c-4.486,0-8-2.196-8-5s3.514-5,8-5s8,2.196,8,5S50.486,31,46,31z"/>
		<path fill="#CCD6DD" d="M46,22c3.866,0,7,1.791,7,4s-3.134,4-7,4s-7-1.791-7-4S42.134,22,46,22 M46,20c-5.131,0-9,2.579-9,6
			s3.869,6,9,6s9-2.579,9-6S51.131,20,46,20L46,20z"/>
	</g>
	<text transform="matrix(1 0 0 1 37.1836 29)" fill="#2A6797" font-family="'HelveticaNeueLTCom-Blk'" font-size="8">POP</text>
</g>
<g id="Capa_4">
	<path fill="#FFCC4D" d="M44.994,27.186c0,5,2.382,7.227,6.624,7.227c4.243,0,7.071-1.414,8.485-2.828
		c1.415-1.414,1.42-7.077-2.121-10.607C56,19,56,19,56,19c0,2-0.006,3.186-0.006,3.186S44.994,20.055,44.994,27.186z"/>
	<path fill="#664500" d="M56,18c0,0.768,0,1,0,1s0.357,0.346,1.988,1.977c3.536,3.535,3.536,9.193,2.121,10.607
		c-1.414,1.414-4.242,2.828-8.485,2.828c-4.242,0-6.624-2.227-6.624-7.227c0-4.463,4.31-5.297,7.534-5.297
		c1.926,0,3.466,0.297,3.466,0.297s0.738-1.338-0.495-1.877c-0.863-0.377-2.386-0.412-2.386-0.412
		c-0.19-0.006-0.386-0.008-0.585-0.008c-8.605,0-9.534,5.104-9.534,7.297c0,5.951,3.062,9.227,8.624,9.227
		c5.853,0,8.873-2.387,9.899-3.414c1.203-1.201,1.713-3.514,1.365-6.182c-0.364-2.795-1.603-5.371-3.486-7.254
		C57.559,17.719,57.126,17,56,17C56,17,56,17,56,18z"/>
	<path fill="#664500" d="M36,32.96c-2.274,0.582-4.398,0.784-6.039,0.295c-0.578,0.446-1.185,0.855-1.816,1.229
		c0.104,0.184,0.253,0.345,0.462,0.435c1.026,0.44,2.197,0.631,3.454,0.631c1.247,0,2.579-0.188,3.939-0.505V32.96z"/>
</g>
</svg>
