<?xml version="1.0" encoding="utf-8"?>
<!-- Generator: Adobe Illustrator 16.0.4, SVG Export Plug-In . SVG Version: 6.00 Build 0)  -->
<!DOCTYPE svg PUBLIC "-//W3C//DTD SVG 1.1//EN" "http://www.w3.org/Graphics/SVG/1.1/DTD/svg11.dtd">
<svg version="1.1" xmlns="http://www.w3.org/2000/svg" xmlns:xlink="http://www.w3.org/1999/xlink" x="0px" y="0px" width="38px"
	 height="52px" viewBox="0 0 38 52" enable-background="new 0 0 38 52" xml:space="preserve">
<g id="base">
	<path fill="#FFCC4D" d="M37,23c0,9.941-8.059,18-18,18C9.059,41,1,32.941,1,23C1,13.059,9.059,5,19,5C28.941,5,37,13.059,37,23"/>
</g>
<g id="Capa_2">
	<path fill="#4D3400" d="M37,28c-1-2-1-2-1-2s-2-2-3-1c-1.856,1.856-5.456,0.456-6,1c-1,1-7,1-8,1s-6-2-6-1s-4-1-5,0s-3,0-4,0
		c-1.414,0-3-2-3-2c0,4,1,6,1,8s2,2,1,4s2,2,1,3s3,4,2,4s3,3,3,4s5,2,5,3s6.666,0,6,1c-0.667,1,6-2,6-1s4-3,3-2s4-4,4-3s3-7,3-6
		c0-0.724,0-4.363,0-6C36,31,37.606,29.214,37,28z M23.276,36.25c-2.658,0-4.805,0.5-6.276-1.25c-1.408-1.674,0.959-2.75,4.504-2.75
		c0.886,0,5.317-1,7.09,1C30.365,35.25,25.935,36.25,23.276,36.25z"/>
	<path fill="none" stroke="#664500" stroke-width="2" stroke-linecap="round" stroke-miterlimit="10" d="M19,34c1,0,8,0,8,0"/>
	<ellipse fill="#664500" cx="30" cy="22.2" rx="2" ry="2.8"/>
	<ellipse fill="#664500" cx="18" cy="22.2" rx="2" ry="2.8"/>
	<path fill="#4D3400" d="M1,18c0-2,1-6,0-7c-1.524-1.524,3,3,3,1s0.82-3.639-0.238-4.639C2.706,6.361,7,11,7,9
		s3.104-3.639,0.991-5.639C5.876,1.361,13.058,8,12,6c-1.057-2,4,0,4-2s4,3,5,0c0.633-1.897,0.984,1.639,5-2c2.109-1.911-2.34,5,4,4
		c6.342-1-4,2,4,4c4.102,1.025,0.414,2.861,2.527,4.361s-0.527-1.172,0,4C37,23,34,11,27.016,9.361c-6.474-1.519-11.626-2-16.912,1
		C4.82,13.361,4.057,17,3,20S1,20,1,18z"/>
</g>
</svg>
