<?xml version="1.0" encoding="utf-8"?>
<!-- Generator: Adobe Illustrator 16.0.4, SVG Export Plug-In . SVG Version: 6.00 Build 0)  -->
<!DOCTYPE svg PUBLIC "-//W3C//DTD SVG 1.1//EN" "http://www.w3.org/Graphics/SVG/1.1/DTD/svg11.dtd">
<svg version="1.1" xmlns="http://www.w3.org/2000/svg" xmlns:xlink="http://www.w3.org/1999/xlink" x="0px" y="0px" width="38px"
	 height="38px" viewBox="0 0 38 38" enable-background="new 0 0 38 38" xml:space="preserve">
<g id="base">
	<path fill="#FFCC4D" d="M37,19c0,9.941-8.059,18-18,18C9.059,37,1,28.941,1,19C1,9.059,9.059,1,19,1C28.941,1,37,9.059,37,19"/>
</g>
<g id="roll_copia" display="none">
	<ellipse display="inline" fill="#FFFFFF" cx="12.519" cy="14.682" rx="6.519" ry="6.282"/>
	<ellipse display="inline" fill="#664500" cx="12.5" cy="17.7" rx="3.5" ry="3.3"/>
	<ellipse display="inline" fill="#FFFFFF" cx="25.519" cy="14.682" rx="6.519" ry="6.282"/>
	<ellipse display="inline" fill="#664500" cx="25.5" cy="17.7" rx="3.5" ry="3.3"/>
	<path display="inline" fill="#664500" d="M28.335,24.629c-0.178-0.161-0.444-0.171-0.635-0.029c-0.039,0.029-3.922,2.9-8.7,2.9
		c-4.766,0-8.662-2.871-8.7-2.9c-0.191-0.142-0.457-0.13-0.635,0.029c-0.177,0.16-0.217,0.424-0.094,0.628
		C9.7,25.472,12.788,30.5,19,30.5s9.301-5.028,9.429-5.243C28.552,25.052,28.513,24.789,28.335,24.629z"/>
</g>
<g id="roll_copia_2" display="none">
	<ellipse display="inline" fill="#FFFFFF" cx="12.519" cy="14.682" rx="6.519" ry="6.282"/>
	<ellipse display="inline" fill="#664500" cx="14.5" cy="16.7" rx="3.5" ry="3.3"/>
	<ellipse display="inline" fill="#FFFFFF" cx="25.519" cy="14.682" rx="6.519" ry="6.282"/>
	<ellipse display="inline" fill="#664500" cx="27.5" cy="16.7" rx="3.5" ry="3.3"/>
	<path display="inline" fill="#664500" d="M28.335,24.629c-0.178-0.161-0.444-0.171-0.635-0.029c-0.039,0.029-3.922,2.9-8.7,2.9
		c-4.766,0-8.662-2.871-8.7-2.9c-0.191-0.142-0.457-0.13-0.635,0.029c-0.177,0.16-0.217,0.424-0.094,0.628
		C9.7,25.472,12.788,30.5,19,30.5s9.301-5.028,9.429-5.243C28.552,25.052,28.513,24.789,28.335,24.629z"/>
</g>
<g id="roll_copia_3">
	<ellipse fill="#FFFFFF" cx="12.519" cy="14.682" rx="6.519" ry="6.282"/>
	<ellipse fill="#664500" cx="15.5" cy="14.7" rx="3.5" ry="3.3"/>
	<ellipse fill="#FFFFFF" cx="25.519" cy="14.682" rx="6.519" ry="6.282"/>
	<ellipse fill="#664500" cx="28.5" cy="14.7" rx="3.5" ry="3.3"/>
	<path fill="#664500" d="M28.335,24.629c-0.178-0.161-0.444-0.171-0.635-0.029c-0.039,0.029-3.922,2.9-8.7,2.9
		c-4.766,0-8.662-2.871-8.7-2.9c-0.191-0.142-0.457-0.13-0.635,0.029c-0.177,0.16-0.217,0.424-0.094,0.628
		C9.7,25.472,12.788,30.5,19,30.5s9.301-5.028,9.429-5.243C28.552,25.052,28.513,24.789,28.335,24.629z"/>
</g>
<g id="roll_copia_4" display="none">
	<ellipse display="inline" fill="#FFFFFF" cx="12.519" cy="14.682" rx="6.519" ry="6.282"/>
	<ellipse display="inline" fill="#664500" cx="14.5" cy="12.3" rx="3.5" ry="3.3"/>
	<ellipse display="inline" fill="#FFFFFF" cx="25.519" cy="14.682" rx="6.519" ry="6.282"/>
	<ellipse display="inline" fill="#664500" cx="27.5" cy="12.3" rx="3.5" ry="3.3"/>
	<path display="inline" fill="#664500" d="M28.335,24.629c-0.178-0.161-0.444-0.171-0.635-0.029c-0.039,0.029-3.922,2.9-8.7,2.9
		c-4.766,0-8.662-2.871-8.7-2.9c-0.191-0.142-0.457-0.13-0.635,0.029c-0.177,0.16-0.217,0.424-0.094,0.628
		C9.7,25.472,12.788,30.5,19,30.5s9.301-5.028,9.429-5.243C28.552,25.052,28.513,24.789,28.335,24.629z"/>
</g>
<g id="roll" display="none">
	<ellipse display="inline" fill="#FFFFFF" cx="12.519" cy="14.682" rx="6.519" ry="6.282"/>
	<ellipse display="inline" fill="#664500" cx="12.5" cy="11.7" rx="3.5" ry="3.3"/>
	<ellipse display="inline" fill="#FFFFFF" cx="25.519" cy="14.682" rx="6.519" ry="6.282"/>
	<ellipse display="inline" fill="#664500" cx="25.5" cy="11.7" rx="3.5" ry="3.3"/>
	<path display="inline" fill="#664500" d="M28.335,24.629c-0.178-0.161-0.444-0.171-0.635-0.029c-0.039,0.029-3.922,2.9-8.7,2.9
		c-4.766,0-8.662-2.871-8.7-2.9c-0.191-0.142-0.457-0.13-0.635,0.029c-0.177,0.16-0.217,0.424-0.094,0.628
		C9.7,25.472,12.788,30.5,19,30.5s9.301-5.028,9.429-5.243C28.552,25.052,28.513,24.789,28.335,24.629z"/>
</g>
<g id="roll_copia_5" display="none">
	<path display="inline" fill="#664500" d="M28.335,24.629c-0.178-0.161-0.444-0.171-0.635-0.029c-0.039,0.029-3.922,2.9-8.7,2.9
		c-4.766,0-8.662-2.871-8.7-2.9c-0.191-0.142-0.457-0.13-0.635,0.029c-0.177,0.16-0.217,0.424-0.094,0.628
		C9.7,25.472,12.788,30.5,19,30.5s9.301-5.028,9.429-5.243C28.552,25.052,28.513,24.789,28.335,24.629z"/>
	<path display="inline" fill="#664500" d="M12.519,21.964c-3.722,0-5.565-1.889-6.457-3.474c-0.271-0.481-0.1-1.091,0.381-1.362
		c0.481-0.272,1.091-0.099,1.362,0.381c0.916,1.628,2.502,2.454,4.713,2.454c2.285,0,3.895-0.822,4.783-2.444
		c0.265-0.484,0.874-0.661,1.357-0.396c0.484,0.265,0.662,0.873,0.396,1.357C18.185,20.069,16.344,21.964,12.519,21.964z"/>
	<path display="inline" fill="#664500" d="M25.585,21.964c-3.722,0-5.565-1.889-6.457-3.474c-0.271-0.481-0.1-1.091,0.381-1.362
		c0.481-0.272,1.092-0.099,1.362,0.381c0.915,1.628,2.501,2.454,4.713,2.454c2.285,0,3.895-0.822,4.783-2.444
		c0.265-0.484,0.873-0.661,1.357-0.396c0.484,0.265,0.662,0.873,0.396,1.357C31.252,20.069,29.411,21.964,25.585,21.964z"/>
</g>
</svg>
