<?xml version="1.0" encoding="utf-8"?>
<!-- Generator: Adobe Illustrator 16.0.4, SVG Export Plug-In . SVG Version: 6.00 Build 0)  -->
<!DOCTYPE svg PUBLIC "-//W3C//DTD SVG 1.1//EN" "http://www.w3.org/Graphics/SVG/1.1/DTD/svg11.dtd">
<svg version="1.1" xmlns="http://www.w3.org/2000/svg" xmlns:xlink="http://www.w3.org/1999/xlink" x="0px" y="0px" width="38px"
	 height="38px" viewBox="0 0 38 38" enable-background="new 0 0 38 38" xml:space="preserve">
<g id="base">
	<path fill="#FFCC4D" d="M37,19c0,9.941-8.059,18-18,18C9.059,37,1,28.941,1,19C1,9.059,9.059,1,19,1C28.941,1,37,9.059,37,19"/>
</g>
<g id="shocked" display="none">
	<ellipse display="inline" fill="#664500" cx="19" cy="27.5" rx="3" ry="3.5"/>
	<ellipse display="inline" fill="#664500" cx="27" cy="14.2" rx="2" ry="2.8"/>
	<ellipse display="inline" fill="#664500" cx="11" cy="14.2" rx="2" ry="2.8"/>
</g>
<g id="shocked_copia">
	<ellipse fill="#664500" cx="19" cy="27.5" rx="3" ry="3.5"/>
	<ellipse fill="#FFFFFF" cx="27" cy="14.062" rx="5" ry="4.961"/>
	<circle fill="#664500" cx="27" cy="14" r="3"/>
	<ellipse fill="#FFFFFF" cx="11" cy="14.062" rx="4.977" ry="4.938"/>
	<circle fill="#664500" cx="11" cy="14" r="3"/>
</g>
<g id="shocked_copia_2" display="none">
	<ellipse display="inline" fill="#664500" cx="19" cy="27.5" rx="3" ry="3.5"/>
	<path display="inline" fill="#FFFFFF" d="M34,14.062c0,3.839-3.136,6.946-7,6.946c-3.867,0-7-3.107-7-6.946
		c0-3.835,3.133-6.947,7-6.947C30.864,7.115,34,10.227,34,14.062z"/>
	<circle display="inline" fill="#664500" cx="27" cy="14" r="3"/>
	<path display="inline" fill="#FFFFFF" d="M18,14.062c0,3.839-3.135,6.946-7,6.946c-3.867,0-7-3.107-7-6.946
		c0-3.835,3.133-6.947,7-6.947C14.865,7.115,18,10.227,18,14.062z"/>
	<circle display="inline" fill="#664500" cx="11" cy="14" r="3"/>
</g>
<g id="shocked_copia_3" display="none">
	<ellipse display="inline" fill="#664500" cx="19" cy="27.5" rx="3" ry="3.5"/>
	<path display="inline" fill="#FFFFFF" d="M35,14.062C35,18.449,31.417,22,27,22c-4.419,0-8-3.551-8-7.938
		c0-4.383,3.581-7.939,8-7.939C31.417,6.123,35,9.679,35,14.062z"/>
	<circle display="inline" fill="#664500" cx="27" cy="14" r="3"/>
	<path display="inline" fill="#FFFFFF" d="M19,14.062C19,18.449,15.417,22,11,22c-4.419,0-8-3.551-8-7.938
		c0-4.383,3.581-7.939,8-7.939C15.417,6.123,19,9.679,19,14.062z"/>
	<circle display="inline" fill="#664500" cx="11" cy="14" r="3"/>
</g>
</svg>
