<?xml version="1.0" encoding="utf-8"?>
<!-- Generator: Adobe Illustrator 16.0.4, SVG Export Plug-In . SVG Version: 6.00 Build 0)  -->
<!DOCTYPE svg PUBLIC "-//W3C//DTD SVG 1.1//EN" "http://www.w3.org/Graphics/SVG/1.1/DTD/svg11.dtd">
<svg version="1.1" xmlns="http://www.w3.org/2000/svg" xmlns:xlink="http://www.w3.org/1999/xlink" x="0px" y="0px" width="38px"
	 height="38px" viewBox="0 0 38 38" enable-background="new 0 0 38 38" xml:space="preserve">
<g id="base">
	<path fill="#FFCC4D" d="M37,19c0,9.941-8.059,18-18,18C9.059,37,1,28.941,1,19C1,9.059,9.059,1,19,1C28.941,1,37,9.059,37,19"/>
</g>
<g id="cool" display="none">
	<path display="inline" fill-rule="evenodd" clip-rule="evenodd" fill="#292F33" d="M2.24,12.018
		c0.24,0.239,1.438,0.958,1.677,1.675c0.24,0.717,0.72,4.784,2.158,5.981c1.483,1.232,7.077,0.773,8.148,0.24
		c2.397-1.195,2.691-4.531,3.115-6.221c0.239-0.958,1.677-0.958,1.677-0.958s1.438,0,1.678,0.956
		c0.424,1.691,0.72,5.027,3.115,6.221c1.072,0.535,6.666,0.994,8.151-0.238c1.436-1.197,1.915-5.264,2.155-5.982
		c0.238-0.717,1.438-1.435,1.677-1.674c0.241-0.239,0.241-1.196,0-1.436c-0.479-0.479-6.134-0.904-12.223-0.239
		c-1.215,0.133-1.677,0.479-4.554,0.479c-2.875,0-3.339-0.346-4.553-0.478C8.376,9.678,2.72,10.104,2.24,10.582
		C2.001,10.821,2.001,11.779,2.24,12.018z"/>
	<path display="inline" fill="#664500" d="M28.335,24.629c-0.178-0.161-0.444-0.171-0.635-0.029c-0.039,0.029-3.922,2.9-8.7,2.9
		c-4.766,0-8.662-2.871-8.7-2.9c-0.191-0.142-0.457-0.13-0.635,0.029c-0.177,0.16-0.217,0.424-0.094,0.628
		C9.7,25.472,12.788,30.5,19,30.5s9.301-5.028,9.429-5.243C28.552,25.052,28.513,24.789,28.335,24.629z"/>
	<circle display="inline" fill="#FFFFFF" cx="7.5" cy="13.5" r="1.5"/>
	<circle display="inline" fill="#FFFFFF" cx="24.5" cy="13.5" r="1.5"/>
</g>
<g id="shocked" display="none">
	<ellipse display="inline" fill="#664500" cx="19" cy="27.5" rx="3" ry="3.5"/>
	<ellipse display="inline" fill="#664500" cx="25" cy="15.8" rx="2" ry="2.8"/>
	<ellipse display="inline" fill="#664500" cx="13" cy="15.8" rx="2" ry="2.8"/>
</g>
<g id="blank" display="none">
	<g display="inline">
		<path fill="#664500" d="M26,26H12c-0.552,0-1-0.447-1-1s0.448-1,1-1h14c0.553,0,1,0.447,1,1S26.553,26,26,26z"/>
	</g>
	<ellipse display="inline" fill="#664500" cx="25" cy="13.8" rx="2" ry="2.8"/>
	<g display="inline">
		<path fill="#664500" d="M26,26H12c-0.552,0-1-0.447-1-1s0.448-1,1-1h14c0.553,0,1,0.447,1,1S26.553,26,26,26z"/>
	</g>
	<ellipse display="inline" fill="#664500" cx="25" cy="13.8" rx="2" ry="2.8"/>
	<ellipse display="inline" fill="#664500" cx="13" cy="13.8" rx="2" ry="2.8"/>
</g>
<g id="smiley">
	<ellipse fill="#664500" cx="25" cy="15.8" rx="2" ry="2.8"/>
	<ellipse fill="#664500" cx="13" cy="15.8" rx="2" ry="2.8"/>
	<path fill="#664500" d="M28.335,24.629c-0.178-0.161-0.444-0.171-0.635-0.029c-0.039,0.029-3.922,2.9-8.7,2.9
		c-4.766,0-8.662-2.871-8.7-2.9c-0.191-0.142-0.457-0.13-0.635,0.029c-0.177,0.16-0.217,0.424-0.094,0.628
		C9.7,25.472,12.788,30.5,19,30.5s9.301-5.028,9.429-5.243C28.552,25.052,28.513,24.789,28.335,24.629z"/>
</g>
<g id="wink" display="none">
	<path display="inline" fill="#664500" d="M9.533,17.564C9.58,17.459,10.699,15,13,15c2.3,0,3.42,2.459,3.466,2.564
		c0.072,0.161,0.025,0.349-0.112,0.46c-0.136,0.11-0.331,0.114-0.475,0.01c-0.009-0.007-0.981-0.701-2.879-0.701
		c-1.887,0-2.857,0.686-2.879,0.701c-0.068,0.051-0.15,0.077-0.232,0.077c-0.085,0-0.171-0.029-0.242-0.085
		C9.508,17.916,9.461,17.726,9.533,17.564z"/>
	<ellipse display="inline" fill="#664500" cx="25" cy="15.8" rx="2" ry="2.8"/>
	<path display="inline" fill="#664500" d="M28.335,24.629c-0.178-0.161-0.444-0.171-0.635-0.029c-0.039,0.029-3.922,2.9-8.7,2.9
		c-4.766,0-8.662-2.871-8.7-2.9c-0.191-0.142-0.457-0.13-0.635,0.029c-0.177,0.16-0.217,0.424-0.094,0.628
		C9.7,25.472,12.788,30.5,19,30.5s9.301-5.028,9.429-5.243C28.552,25.052,28.513,24.789,28.335,24.629z"/>
</g>
<g id="cheesy" display="none">
	<ellipse display="inline" fill="#664500" cx="12" cy="15.8" rx="2" ry="2.8"/>
	<ellipse display="inline" fill="#664500" cx="26" cy="15.8" rx="2" ry="2.8"/>
	<path display="inline" fill="#664500" d="M19,34.357c3,0,12-11.204,10-12.204s0,3.204-10,3.204c-10.002,0-8-4.204-10-3.204
		S16,34.357,19,34.357z"/>
</g>
<g id="grin" display="none">
	<path display="inline" fill="#664500" d="M30.957,13.297C30.897,13.162,29.458,10,26.5,10c-2.957,0-4.397,3.162-4.457,3.297
		c-0.092,0.207-0.032,0.449,0.145,0.591c0.175,0.142,0.426,0.147,0.61,0.014C22.81,13.893,24.06,13,26.5,13
		c2.426,0,3.674,0.881,3.702,0.901C30.29,13.967,30.396,14,30.5,14c0.11,0,0.221-0.037,0.312-0.109
		C30.989,13.749,31.05,13.505,30.957,13.297z"/>
	<path display="inline" fill="#664500" d="M15.957,13.297C15.897,13.162,14.458,10,11.5,10c-2.957,0-4.397,3.162-4.457,3.297
		c-0.092,0.207-0.032,0.449,0.144,0.591c0.176,0.142,0.427,0.147,0.61,0.014C7.81,13.893,9.059,12.5,11.5,12.5
		c2.426,0,3.674,1.381,3.702,1.401C15.291,13.967,15.396,14,15.5,14c0.11,0,0.221-0.037,0.312-0.109
		C15.99,13.749,16.049,13.505,15.957,13.297z"/>
	<g display="inline">
		<path fill="#664500" d="M31,16.5H7c-1.381,0-2.5,1.119-2.5,2.5c0,7.995,6.505,14.5,14.5,14.5S33.5,26.995,33.5,19
			C33.5,17.619,32.381,16.5,31,16.5z"/>
		<g>
			<path fill="#FFFFFF" d="M25,19h-5v11.949c1.812-0.149,3.506-0.703,5-1.568V19z"/>
			<path fill="#FFFFFF" d="M18,19h-6v9.732c1.717,1.238,3.77,2.032,6,2.217V19z"/>
			<path fill="#FFFFFF" d="M27,19v8.926c2.449-2.197,4-5.377,4-8.926H27z"/>
			<path fill="#FFFFFF" d="M10,19H7c0,3.038,1.138,5.804,3,7.918V19z"/>
		</g>
	</g>
</g>
<g id="angry" display="none">
	<ellipse display="inline" fill="#664500" cx="25" cy="15.8" rx="2" ry="2.8"/>
	<ellipse display="inline" fill="#664500" cx="13" cy="15.8" rx="2" ry="2.8"/>
	<path display="inline" fill="#664500" d="M26.984,29.379C26.937,29.2,25.738,25,19,25c-6.739,0-7.937,4.2-7.984,4.379
		c-0.058,0.217,0.046,0.442,0.252,0.554c0.208,0.109,0.469,0.079,0.64-0.077C11.929,29.837,13.993,28,19,28
		c5.007,0,7.072,1.837,7.092,1.855C26.193,29.95,26.33,30,26.467,30c0.09,0,0.18-0.021,0.263-0.064
		C26.938,29.824,27.043,29.597,26.984,29.379z"/>
	<path display="inline" fill="#664500" d="M19,13.317l-7.651-6.558c-0.419-0.359-0.468-0.991-0.108-1.41
		c0.36-0.418,0.992-0.467,1.41-0.108L19,10.683l6.35-5.442c0.42-0.358,1.051-0.311,1.409,0.108c0.36,0.419,0.312,1.051-0.108,1.41
		L19,13.317z"/>
</g>
<g id="sad" display="none">
	<path display="inline" fill="#664500" d="M26.984,29.379C26.937,29.2,25.738,25,19,25c-6.739,0-7.937,4.2-7.984,4.379
		c-0.058,0.217,0.046,0.442,0.252,0.554c0.208,0.109,0.469,0.079,0.64-0.077C11.929,29.837,13.993,28,19,28
		c5.007,0,7.072,1.837,7.092,1.855C26.193,29.95,26.33,30,26.467,30c0.09,0,0.18-0.021,0.263-0.064
		C26.938,29.824,27.043,29.597,26.984,29.379z"/>
	<ellipse display="inline" fill="#664500" cx="25" cy="15.8" rx="2" ry="2.8"/>
	<ellipse display="inline" fill="#664500" cx="13" cy="15.8" rx="2" ry="2.8"/>
</g>
<g id="roll" display="none">
	<ellipse display="inline" fill="#FFFFFF" cx="12.519" cy="14.682" rx="6.519" ry="6.282"/>
	<ellipse display="inline" fill="#664500" cx="12.5" cy="11.7" rx="3.5" ry="3.3"/>
	<ellipse display="inline" fill="#FFFFFF" cx="25.519" cy="14.682" rx="6.519" ry="6.282"/>
	<ellipse display="inline" fill="#664500" cx="25.5" cy="11.7" rx="3.5" ry="3.3"/>
	<path display="inline" fill="#664500" d="M28.335,24.629c-0.178-0.161-0.444-0.171-0.635-0.029c-0.039,0.029-3.922,2.9-8.7,2.9
		c-4.766,0-8.662-2.871-8.7-2.9c-0.191-0.142-0.457-0.13-0.635,0.029c-0.177,0.16-0.217,0.424-0.094,0.628
		C9.7,25.472,12.788,30.5,19,30.5s9.301-5.028,9.429-5.243C28.552,25.052,28.513,24.789,28.335,24.629z"/>
</g>
<g id="tongue" display="none">
	<ellipse display="inline" fill="#664500" cx="12.857" cy="16" rx="2.143" ry="3"/>
	<ellipse display="inline" fill="#664500" cx="25" cy="15.8" rx="2" ry="2.8"/>
	<ellipse display="inline" fill="#664500" cx="25" cy="15.8" rx="2" ry="2.8"/>
	<ellipse display="inline" fill="#664500" cx="13" cy="15.8" rx="2" ry="2.8"/>
	<path display="inline" fill="#E75A70" d="M19,25.944V30c0,2,1.333,4,4,4s4-2,4-4v-4.028L19,25.944z"/>
	<g display="inline">
		<path fill="#664500" d="M28,27H10c-0.552,0-1-0.447-1-1s0.448-1,1-1h18c0.553,0,1,0.447,1,1S28.553,27,28,27z"/>
	</g>
</g>
<g id="oops" display="none">
	<circle display="inline" fill="#FF7892" cx="9" cy="21" r="5"/>
	<circle display="inline" fill="#FF7892" cx="29" cy="21" r="5"/>
	<path display="inline" fill="#664500" d="M30,13c-5.554,0-7.802-4.367-7.895-4.553c-0.247-0.494-0.047-1.095,0.447-1.342
		c0.493-0.247,1.092-0.048,1.34,0.443C23.967,7.694,25.713,11,30,11c0.553,0,1,0.448,1,1S30.553,13,30,13z"/>
	<path display="inline" fill="#664500" d="M8,13c-0.552,0-1-0.448-1-1s0.448-1,1-1c5.083,0,5.996-3.12,6.033-3.253
		c0.145-0.528,0.692-0.848,1.219-0.709c0.53,0.139,0.851,0.673,0.718,1.205C15.921,8.437,14.704,13,8,13z"/>
	<path display="inline" fill="#664500" d="M26.984,29.379C26.937,29.2,25.738,25,19,25c-6.739,0-7.937,4.2-7.984,4.379
		c-0.058,0.217,0.046,0.442,0.252,0.554c0.208,0.109,0.469,0.079,0.64-0.077C11.929,29.837,13.993,28,19,28
		c5.007,0,7.072,1.837,7.092,1.855C26.193,29.95,26.33,30,26.467,30c0.09,0,0.18-0.021,0.263-0.064
		C26.938,29.824,27.043,29.597,26.984,29.379z"/>
	<ellipse display="inline" fill="#664500" cx="25" cy="15.8" rx="2" ry="2.8"/>
	<ellipse display="inline" fill="#664500" cx="13" cy="15.8" rx="2" ry="2.8"/>
</g>
<g id="lipssealed" display="none">
	<ellipse display="inline" fill="#664500" cx="25" cy="15.8" rx="2" ry="2.8"/>
	<ellipse display="inline" fill="#664500" cx="13" cy="15.8" rx="2" ry="2.8"/>
	<path display="inline" fill="#664500" d="M26.957,29.122L21.588,27l5.369-2.122c0.485-0.265,0.664-0.872,0.399-1.356
		c-0.265-0.485-0.874-0.663-1.356-0.399l-6.5,2.739L13,23.122c-0.485-0.265-1.093-0.085-1.357,0.399
		c-0.265,0.484-0.086,1.092,0.399,1.356L17.412,27l-5.37,2.122c-0.485,0.265-0.664,0.872-0.399,1.356
		C11.825,30.812,12.168,31,12.522,31c0.162,0,0.326-0.039,0.478-0.122l6.5-2.739l6.5,2.739C26.151,30.961,26.315,31,26.478,31
		c0.354,0,0.697-0.188,0.879-0.521C27.621,29.994,27.442,29.387,26.957,29.122z"/>
</g>
<g id="undecided" display="none">
	<path display="inline" fill="#664500" d="M30,13c-5.554,0-7.802-4.367-7.895-4.553c-0.247-0.494-0.047-1.095,0.447-1.342
		c0.493-0.247,1.092-0.048,1.34,0.443C23.967,7.694,25.713,11,30,11c0.553,0,1,0.448,1,1S30.553,13,30,13z"/>
	<path display="inline" fill="#664500" d="M8,13c-0.552,0-1-0.448-1-1s0.448-1,1-1c5.083,0,5.996-3.12,6.033-3.253
		c0.145-0.528,0.692-0.848,1.219-0.709c0.53,0.139,0.851,0.673,0.718,1.205C15.921,8.437,14.704,13,8,13z"/>
	<ellipse display="inline" fill="#664500" cx="25" cy="15.8" rx="2" ry="2.8"/>
	<ellipse display="inline" fill="#664500" cx="13" cy="15.8" rx="2" ry="2.8"/>
	<path display="inline" fill="#664500" d="M11,31c-0.393,0-0.766-0.233-0.925-0.619c-0.21-0.511,0.033-1.096,0.544-1.306l17-7
		c0.512-0.206,1.096,0.034,1.306,0.544c0.21,0.511-0.033,1.096-0.544,1.306l-17,7C11.256,30.976,11.127,31,11,31z"/>
</g>
<g id="kiss" display="none">
	<path display="inline" fill="#664500" d="M21.871,27.5c1.335-0.412,2.629-1.156,2.629-2.5c0-2.619-4.912-2.967-5.472-2.998
		c-0.274-0.027-0.509,0.193-0.527,0.467c-0.017,0.273,0.19,0.512,0.464,0.531C19,23.002,22.5,23.299,22.5,25
		c0,1.703-3.5,2-3.535,2.002c-0.014,0-0.024,0.008-0.037,0.01c-0.052,0.006-0.101,0.018-0.146,0.041
		c-0.007,0.002-0.012,0.008-0.019,0.01c-0.047,0.027-0.088,0.057-0.125,0.098c-0.014,0.016-0.024,0.031-0.036,0.049
		c-0.023,0.031-0.044,0.062-0.06,0.102c-0.012,0.029-0.018,0.061-0.024,0.092c-0.004,0.023-0.016,0.043-0.018,0.066
		c0,0.012,0.004,0.021,0.004,0.031c0,0.012-0.005,0.021-0.004,0.031c0.001,0.025,0.013,0.045,0.018,0.068
		c0.006,0.031,0.011,0.061,0.023,0.09c0.013,0.031,0.031,0.057,0.049,0.084c0.017,0.025,0.032,0.051,0.052,0.072
		c0.023,0.023,0.05,0.041,0.078,0.061c0.024,0.016,0.046,0.033,0.074,0.047c0.032,0.014,0.066,0.02,0.101,0.027
		c0.024,0.006,0.044,0.018,0.069,0.02C19,28.002,22.5,28.299,22.5,30c0,1.703-3.5,2-3.535,2.002
		c-0.274,0.02-0.481,0.256-0.464,0.529C18.518,32.797,18.738,33,19,33c0.009,0,0.019,0,0.028,0c0.56-0.031,5.472-0.381,5.472-3
		C24.5,28.656,23.206,27.912,21.871,27.5z"/>
	<path display="inline" fill="#E75A70" d="M36.404,26.723c0.739-1.516,0.11-3.348-1.405-4.086c-0.922-0.449-1.956-0.391-2.793,0.059
		c-0.16-0.936-0.75-1.789-1.67-2.236c-1.518-0.74-3.348-0.109-4.087,1.406c-0.105,0.215-0.18,0.436-0.23,0.658
		c-0.774,2.557,0.64,6.342,2.192,7.949c2.223,0.234,6.077-0.979,7.615-3.162C36.171,27.133,36.299,26.938,36.404,26.723z"/>
	<ellipse display="inline" fill="#664500" cx="25" cy="15.8" rx="2" ry="2.8"/>
	<ellipse display="inline" fill="#664500" cx="13" cy="15.8" rx="2" ry="2.8"/>
</g>
<g id="cry" display="none">
	<path display="inline" fill="#664500" d="M30,13c-5.554,0-7.802-4.367-7.895-4.553c-0.247-0.494-0.047-1.095,0.447-1.342
		c0.493-0.247,1.092-0.048,1.34,0.443C23.967,7.694,25.713,11,30,11c0.553,0,1,0.448,1,1S30.553,13,30,13z"/>
	<path display="inline" fill="#664500" d="M8,13c-0.552,0-1-0.448-1-1s0.448-1,1-1c5.083,0,5.996-3.12,6.033-3.253
		c0.145-0.528,0.692-0.848,1.219-0.709c0.53,0.139,0.851,0.673,0.718,1.205C15.921,8.437,14.704,13,8,13z"/>
	<path display="inline" fill="#664500" d="M26.984,29.379C26.937,29.2,25.738,25,19,25c-6.739,0-7.937,4.2-7.984,4.379
		c-0.058,0.217,0.046,0.442,0.252,0.554c0.208,0.109,0.469,0.079,0.64-0.077C11.929,29.837,13.993,28,19,28
		c5.007,0,7.072,1.837,7.092,1.855C26.193,29.95,26.33,30,26.467,30c0.09,0,0.18-0.021,0.263-0.064
		C26.938,29.824,27.043,29.597,26.984,29.379z"/>
	<ellipse display="inline" fill="#664500" cx="25" cy="15.8" rx="2" ry="2.8"/>
	<ellipse display="inline" fill="#664500" cx="13" cy="15.8" rx="2" ry="2.8"/>
	<path display="inline" fill="#5DADEC" d="M30.667,23.334C30.667,24.807,29.473,26,28,26s-2.667-1.193-2.667-2.666S27.467,18,28,18
		S30.667,21.861,30.667,23.334z"/>
</g>
<g id="lol" display="none">
	<path display="inline" fill="#664500" d="M6,20c-0.757,0.001-1,0.003-1,2.367C5,27.094,12.013,33,19,33c6.986,0,14-5.906,14-10.633
		c0-2.364-0.244-2.366-1-2.367C29.182,19.997,8.818,19.997,6,20z"/>
	<path display="inline" fill="#FFFFFF" d="M7.182,22h23.636c0,0-4.183,3.633-11.818,3.633C11.363,25.633,7.182,22,7.182,22z"/>
	<ellipse display="inline" fill="#664500" cx="25" cy="12.8" rx="2" ry="2.8"/>
	<ellipse display="inline" fill="#664500" cx="13" cy="12.8" rx="2" ry="2.8"/>
	<path display="inline" fill="#E75A70" d="M19,31c2,0,4-1,3-2s-3,0-3,0s-2-1-3,0S17,31,19,31z"/>
</g>
<g id="confused" display="none">
	<ellipse display="inline" fill="#664500" cx="26" cy="12.8" rx="2" ry="2.8"/>
	<ellipse display="inline" fill="#664500" cx="12" cy="15.8" rx="2" ry="2.8"/>
	<path display="inline" fill="#664500" d="M22.837,30.79c-0.835,0-1.661-0.211-2.412-0.626c-1.169-0.646-2.016-1.709-2.386-2.993
		c-0.222-0.77-0.73-1.407-1.432-1.795c-0.701-0.388-1.514-0.479-2.281-0.258c-1.59,0.458-2.511,2.123-2.053,3.713
		c0.153,0.53-0.154,1.085-0.684,1.237c-0.532,0.153-1.085-0.153-1.238-0.685c-0.763-2.648,0.772-5.425,3.421-6.188
		c1.283-0.369,2.634-0.217,3.803,0.429c1.168,0.646,2.016,1.709,2.385,2.993c0.222,0.77,0.73,1.407,1.432,1.795
		c0.7,0.388,1.511,0.48,2.281,0.258c0.77-0.222,1.407-0.73,1.795-1.432s0.479-1.511,0.258-2.281
		c-0.153-0.53,0.153-1.084,0.685-1.237c0.532-0.152,1.085,0.155,1.237,0.685c0.369,1.282,0.217,2.633-0.429,3.802
		c-0.646,1.169-1.709,2.017-2.993,2.386C23.769,30.725,23.301,30.79,22.837,30.79z"/>
</g>
<g id="palm" display="none">
	<g display="inline">
		<path fill="#664500" d="M17,28h-5c-0.552,0-1-0.447-1-1s0.448-1,1-1h5c0.553,0,1,0.447,1,1S17.553,28,17,28z"/>
	</g>
	<path display="inline" fill="#664500" d="M28,17h-6c-0.553,0-1-0.448-1-1s0.447-1,1-1h6c0.553,0,1,0.448,1,1S28.553,17,28,17z"/>
	<path display="inline" fill="#FFCC4D" d="M5,5c-3.536,3.536-3,9,0,12s6,4,8,4s6-4,6-9c0-4,1.236-7-1-7c-2,0-3,6-3,6
		S10.042-0.042,5,5z"/>
	<path display="inline" fill="#664500" d="M13,22c-1.327,0-4.833-0.418-8.707-4.293c-3.239-3.239-4.012-9.402,0-13.414
		c1.069-1.069,2.24-1.612,3.479-1.612c2.968,0,5.43,3.144,6.852,5.486C15.232,6.136,16.282,4,18,4c0.726,0,1.302,0.229,1.71,0.68
		c0.812,0.896,0.677,2.274,0.488,4.182C20.105,9.801,20,10.866,20,12C20,17.423,15.7,22,13,22z M7.771,4.681
		c-0.699,0-1.374,0.336-2.064,1.026c-3.166,3.166-2.556,8.03,0,10.586C9.147,19.732,12.159,20,13,20c1.208,0,5-3.319,5-8
		c0-1.233,0.11-2.35,0.208-3.335c0.099-1.003,0.235-2.377,0.02-2.643C18.227,6.023,18.156,6,18,6
		c-0.527,0.06-1.56,2.455-2.014,5.165c-0.073,0.435-0.421,0.771-0.858,0.827c-0.443,0.06-0.859-0.18-1.041-0.581
		C13.245,9.539,10.467,4.681,7.771,4.681z"/>
	<path display="inline" fill="#664500" d="M34.894,30.588c-0.227-0.49-0.815-0.704-1.312-0.496c-0.017,0.009-1.829,0.732-6.21-1.021
		c-3.989-1.596-9.507-8.128-11.114-10.103c-0.489,0.548-1,1-1.492,1.338c1.769,2.177,7.441,8.853,11.864,10.622
		c2.603,1.041,4.482,1.318,5.748,1.318c1.294,0,1.946-0.29,2.07-0.353C34.93,31.653,35.119,31.078,34.894,30.588z"/>
</g>
<g id="palm_less" display="none">
	<g display="inline">
		<path fill="#664500" d="M17,28h-5c-0.552,0-1-0.447-1-1s0.448-1,1-1h5c0.553,0,1,0.447,1,1S17.553,28,17,28z"/>
	</g>
	<path display="inline" fill="#664500" d="M28,17h-6c-0.553,0-1-0.448-1-1s0.447-1,1-1h6c0.553,0,1,0.448,1,1S28.553,17,28,17z"/>
</g>
<g id="palm_palm" display="none">
	<path display="inline" fill="#FFCC4D" d="M5,5c-3.536,3.536-3,9,0,12s6,4,8,4s6-4,6-9c0-4,1.236-7-1-7c-2,0-3,6-3,6
		S10.042-0.042,5,5z"/>
	<path display="inline" fill="#664500" d="M13,22c-1.327,0-4.833-0.418-8.707-4.293c-3.239-3.239-4.012-9.402,0-13.414
		c1.069-1.069,2.24-1.612,3.479-1.612c2.968,0,5.43,3.144,6.852,5.486C15.232,6.136,16.282,4,18,4c0.726,0,1.302,0.229,1.71,0.68
		c0.812,0.896,0.677,2.274,0.488,4.182C20.105,9.801,20,10.866,20,12C20,17.423,15.7,22,13,22z M7.771,4.681
		c-0.699,0-1.374,0.336-2.064,1.026c-3.166,3.166-2.556,8.03,0,10.586C9.147,19.732,12.159,20,13,20c1.208,0,5-3.319,5-8
		c0-1.233,0.11-2.35,0.208-3.335c0.099-1.003,0.235-2.377,0.02-2.643C18.227,6.023,18.156,6,18,6
		c-0.527,0.06-1.56,2.455-2.014,5.165c-0.073,0.435-0.421,0.771-0.858,0.827c-0.443,0.06-0.859-0.18-1.041-0.581
		C13.245,9.539,10.467,4.681,7.771,4.681z"/>
	<path display="inline" fill="#664500" d="M34.894,30.588c-0.227-0.49-0.815-0.704-1.312-0.496c-0.017,0.009-1.829,0.732-6.21-1.021
		c-3.989-1.596-9.507-8.128-11.114-10.103c-0.489,0.548-1,1-1.492,1.338c1.769,2.177,7.441,8.853,11.864,10.622
		c2.603,1.041,4.482,1.318,5.748,1.318c1.294,0,1.946-0.29,2.07-0.353C34.93,31.653,35.119,31.078,34.894,30.588z"/>
</g>
<g id="shame" display="none">
	<g display="inline">
		<path fill="#664500" d="M27,28h-5c-0.553,0-1-0.447-1-1s0.447-1,1-1h5c0.553,0,1,0.447,1,1S27.553,28,27,28z"/>
	</g>
	<path display="inline" fill="#664500" d="M33,16c0-0.552-0.447-1-1-1h-7c-0.553,0-1,0.448-1,1c0,0.553,0.447,1,1,1h5.092
		C30,18,30.848,19,31.5,19c0.828,0,1.5-1,1.5-2.5C33,16.39,33,16.063,33,16z"/>
	<path display="inline" fill="#664500" d="M22,16c0-0.552-0.447-1-1-1h-7c-0.553,0-1,0.448-1,1c0,0.553,0.447,1,1,1h5.092
		C19,18,19.848,19,20.5,19c0.828,0,1.5-1,1.5-2.5C22,16.39,22,16.063,22,16z"/>
</g>
<g id="wow_1_" display="none">
	<ellipse display="inline" fill="#664500" cx="19" cy="31.667" rx="1.143" ry="1.333"/>
	<ellipse display="inline" fill="#FFFFFF" cx="28" cy="13.062" rx="8" ry="7.938"/>
	<circle display="inline" fill="#664500" cx="28" cy="13" r="3"/>
	<ellipse display="inline" fill="#FFFFFF" cx="10" cy="13.062" rx="8" ry="7.938"/>
	<circle display="inline" fill="#664500" cx="10" cy="13" r="3"/>
	<path display="inline" fill="#664500" d="M19.001,8.122c-0.001,0-0.002,0-0.003,0c-0.351-0.001-0.675-0.184-0.855-0.484
		C18.032,7.456,15.337,3.123,10,3.123c-5.293,0-7.034,3.306-7.105,3.446c-0.249,0.489-0.846,0.69-1.34,0.445
		C1.063,6.769,0.86,6.177,1.102,5.683C1.193,5.497,3.411,1.123,10,1.123c4.66,0,7.64,2.711,9,4.324c1.36-1.613,4.341-4.324,9-4.324
		c5.438,0,8.665,4.22,8.8,4.4c0.332,0.442,0.242,1.069-0.2,1.4c-0.441,0.332-1.068,0.241-1.399-0.2c-0.025-0.034-2.782-3.6-7.2-3.6
		c-5.337,0-8.032,4.333-8.144,4.517C19.675,7.938,19.35,8.122,19.001,8.122z"/>
</g>
<g id="wow_brow" display="none">
	<ellipse display="inline" fill="#664500" cx="19" cy="31.667" rx="1.143" ry="1.333"/>
	<ellipse display="inline" fill="#FFFFFF" cx="28" cy="13.062" rx="8" ry="7.938"/>
	<circle display="inline" fill="#664500" cx="28" cy="13" r="3"/>
	<ellipse display="inline" fill="#FFFFFF" cx="10" cy="13.062" rx="8" ry="7.938"/>
	<circle display="inline" fill="#664500" cx="10" cy="13" r="3"/>
</g>
<g id="brow" display="none">
	<path display="inline" fill="#664500" d="M19.001,8.122c-0.001,0-0.002,0-0.003,0c-0.351-0.001-0.675-0.184-0.855-0.484
		C18.032,7.456,15.337,3.123,10,3.123c-5.293,0-7.034,3.306-7.105,3.446c-0.249,0.489-0.846,0.69-1.34,0.445
		C1.063,6.769,0.86,6.177,1.102,5.683C1.193,5.497,3.411,1.123,10,1.123c4.66,0,7.64,2.711,9,4.324c1.36-1.613,4.341-4.324,9-4.324
		c5.438,0,8.665,4.22,8.8,4.4c0.332,0.442,0.242,1.069-0.2,1.4c-0.441,0.332-1.068,0.241-1.399-0.2c-0.025-0.034-2.782-3.6-7.2-3.6
		c-5.337,0-8.032,4.333-8.144,4.517C19.675,7.938,19.35,8.122,19.001,8.122z"/>
</g>
<g id="troll_1_" display="none">
	<path display="inline" fill="#FFCC4D" d="M2.806,19c0,0-1,4,0,10c1,5,4,8,15,8c2,0,12-1,17-13C37.906,16.559,2.806,19,2.806,19z"/>
	<path display="inline" fill="#664500" d="M5.444,17c1,0,0,2,3,2c2,0,12,0,15,0c9,0,10-4,11-3c2,2-8.444,19-19,19c-11,0-11-7-11-11
		S4.444,17,5.444,17z"/>
	<path display="inline" fill="#664500" d="M5,13c0-0.552,0.447-1,1-1h7c0.553,0,1,0.448,1,1s-0.447,1-1,1H7.908
		C8,15,7.152,16,6.5,16C5.672,16,5,15,5,13.5C5,13.39,5,13.063,5,13z"/>
	<path display="inline" fill="#664500" d="M18,13c0-0.552,0.447-1,1-1h7c0.553,0,1,0.448,1,1s-0.447,1-1,1h-5.092
		c0.092,1-0.756,2-1.408,2c-0.828,0-1.5-1-1.5-2.5C18,13.39,18,13.063,18,13z"/>
	<path display="inline" fill="#FFFFFF" d="M6.444,21c0,0,17,0,19,0c5,0,7-2,7-2s-7.444,14-18,14c-7,0-8-5-8-8
		C6.444,23,6.444,21,6.444,21z"/>
	<g display="inline">
		<path fill="#664500" d="M26,20h-2v6h-3v-6c0-0.552-0.447,0-1,0c-0.552,0-1-0.552-1,0v6h-3v-6c0-0.552-0.448,0-1,0s-1-0.552-1,0v6
			h-3v-6c0-0.552-0.448,0-1,0s-1-0.552-1,0v6H6v2h3v5c0,0.553,0.448,0,1,0s1,0.553,1,0v-5h3v5c0,0.553,0.448,1,1,1s1-0.447,1-1v-5h3
			v4c0,0.553,0.448,1,1,1c0.553,0,1-0.447,1-1v-4h3v2l1-1l1-1h1l1-2h-2V20z"/>
		<path fill="#664500" d="M30,19c-0.553,0-1,0.448-1,1v4c0,0.553,0.447,0,1,0s1-0.447,1-1v-3C31,19.448,30.553,19,30,19z"/>
	</g>
</g>
<g id="shit" display="none">
	<ellipse display="inline" fill="#FFFFFF" cx="12" cy="15.182" rx="7.038" ry="6.782"/>
	<ellipse display="inline" fill="#664500" cx="8.5" cy="15.3" rx="3.5" ry="3.3"/>
	<ellipse display="inline" fill="#FFFFFF" cx="26.019" cy="15.164" rx="7.019" ry="6.764"/>
	<ellipse display="inline" fill="#664500" cx="28.5" cy="12.7" rx="3.5" ry="3.3"/>
	<path display="inline" fill="#664500" d="M23.422,26.129c-0.084-0.161-0.21-0.171-0.301-0.029C23.103,26.129,21.264,29,19,29
		c-2.258,0-4.103-2.871-4.121-2.9c-0.09-0.142-0.217-0.13-0.301,0.029c-0.084,0.16-0.103,0.424-0.044,0.628
		C14.595,26.972,16.058,32,19,32s4.406-5.028,4.467-5.243C23.524,26.552,23.506,26.289,23.422,26.129z"/>
</g>
</svg>
