<?xml version="1.0" encoding="utf-8"?>
<!-- Generator: Adobe Illustrator 16.0.4, SVG Export Plug-In . SVG Version: 6.00 Build 0)  -->
<!DOCTYPE svg PUBLIC "-//W3C//DTD SVG 1.1//EN" "http://www.w3.org/Graphics/SVG/1.1/DTD/svg11.dtd">
<svg version="1.1" xmlns="http://www.w3.org/2000/svg" xmlns:xlink="http://www.w3.org/1999/xlink" x="0px" y="0px" width="64px"
	 height="38px" viewBox="0 0 64 38" enable-background="new 0 0 64 38" xml:space="preserve">
<g id="base">
	<path fill="#FFCC4D" d="M37,19c0,9.941-8.059,18-18,18C9.059,37,1,28.941,1,19C1,9.059,9.059,1,19,1C28.941,1,37,9.059,37,19"/>
</g>
<g id="Capa_2">
	<path fill="#F5F8FA" d="M35.88,25.202c-5.611-1.136-12.99-6.062-17.149-2.942C14.857,25.164,17.091,33,29.47,33
		c0.32,0,0.588,0,0.833,0C32.81,30.974,34.747,28.284,35.88,25.202z"/>
	<ellipse fill="#664500" cx="31.143" cy="14.4" rx="1.857" ry="2.6"/>
	<ellipse fill="#664500" cx="21" cy="13.2" rx="2" ry="2.8"/>
	
		<line fill="none" stroke="#664500" stroke-width="2" stroke-linecap="round" stroke-miterlimit="10" x1="16" y1="7" x2="23" y2="12"/>
	
		<line fill="none" stroke="#664500" stroke-width="2" stroke-linecap="round" stroke-miterlimit="10" x1="30" y1="12" x2="34" y2="10"/>
	<path fill="#664500" d="M30.303,33c-0.245,0-0.514,0-0.834,0c-12.379,0-14.613-7.836-10.739-10.74
		c0.974-0.73,2.122-1.019,3.384-1.019c4.131,0,9.467,3.096,13.765,3.967c0.232-0.632,0.431-1.278,0.592-1.941
		c-1.64-0.301-3.53-0.997-5.537-1.755c-2.957-1.116-6.016-2.271-8.819-2.271c-1.786,0-3.329,0.478-4.584,1.419
		c-2.225,1.668-3.078,4.5-2.173,7.215c0.52,1.558,2.877,6.401,12.024,7.049C28.418,34.377,29.396,33.732,30.303,33z"/>
	<rect x="20" y="21" fill="#664500" width="2" height="11"/>
	<rect x="25" y="21" fill="#664500" width="2" height="12"/>
	<path fill="#664500" d="M30,33.227c0.711-0.551,1.38-1.149,2-1.798V23h-2V33.227z"/>
</g>
<g id="money">
	<path fill="#664500" d="M48.306,30.048c-0.524-0.165-1.088,0.12-1.258,0.646c-0.817,2.542-3.239,3.453-5.128,3.771
		c-3.942,0.664-8.513-0.695-10.519-2.439c-0.487,0.463-1.002,0.896-1.538,1.303c2.094,1.985,6.14,3.304,9.951,3.304
		c0.831,0,1.651-0.063,2.437-0.194c3.443-0.578,5.823-2.4,6.701-5.132C49.121,30.78,48.832,30.217,48.306,30.048z"/>
	<path fill="#3F7123" d="M49.204,23.72C49.204,23.72,46,35,47,35s11,1,11,0c0-1.268-0.796-9.548-0.796-11.28
		C57.204,21.72,49.204,20.72,49.204,23.72z"/>
	<path fill="#A7D28B" d="M55.371,36.444C55.371,36.444,55.371,36.444,55.371,36.444c-2.105,0-4.91-0.205-6.767-0.34
		C47.797,36.045,47.203,36,47,36c-0.354,0-0.683-0.165-0.9-0.452c-0.304-0.403-0.937-1.239,2.108-11.982
		c0.096-1.694,1.769-2.739,4.415-2.739c2.157,0,5.581,0.786,5.581,2.894c0,0.893,0.234,3.768,0.441,6.303
		C58.836,32.358,59,34.375,59,35c0,0.501-0.277,1.141-1.599,1.336C56.912,36.409,56.248,36.444,55.371,36.444z M47.82,34.043
		c0.265,0.019,0.578,0.041,0.93,0.066c1.827,0.134,4.589,0.335,6.62,0.335h0.001c0.806,0,1.302-0.033,1.603-0.068
		c-0.056-0.928-0.19-2.58-0.322-4.19c-0.22-2.7-0.447-5.491-0.447-6.466c-0.171-0.258-1.68-0.894-3.581-0.894
		c-1.202,0-2.419,0.307-2.419,0.894c0,0.093-0.013,0.185-0.038,0.273C49.073,27.84,47.978,32.369,47.82,34.043z"/>
	<g>
		<path fill="#FFCC4D" d="M45.736,29c4-4,0-7,0-7s5,2,6,0s-3.877-5-8-5c-4,0-5,7-2,12c0,0,1.132,3,7.132,3"/>
		<path fill="#664500" d="M48.868,33c-6.04,0-7.729-2.916-8.02-3.537C38.76,25.942,38.394,21.166,40,18.328
			C40.85,16.827,42.177,16,43.736,16c3.375,0,7.346,1.811,8.671,3.955c0.523,0.848,0.604,1.732,0.224,2.492
			c-0.768,1.536-2.713,1.603-4.421,1.302c0.15,0.403,0.258,0.848,0.293,1.33c0.112,1.592-0.58,3.148-2.06,4.628
			c-0.391,0.391-1.023,0.391-1.414,0s-0.391-1.023,0-1.414c1.051-1.051,1.549-2.085,1.479-3.071
			c-0.102-1.432-1.358-2.412-1.371-2.422c-0.401-0.301-0.518-0.852-0.272-1.289c0.245-0.436,0.775-0.624,1.243-0.439
			c1.918,0.765,4.404,1.141,4.734,0.481c0.074-0.149-0.032-0.379-0.136-0.546C49.847,19.616,46.615,18,43.736,18
			c-0.831,0-1.503,0.442-1.996,1.313c-1.109,1.96-1.094,5.927,0.854,9.172c0.031,0.052,0.057,0.105,0.078,0.162
			C42.706,28.724,43.744,31,48.868,31c0.553,0,1,0.447,1,1S49.421,33,48.868,33z"/>
	</g>
	<path fill="#3F7123" d="M48,7c-1.734,0.867-1.025,7.74-0.807,9.554c1.378,0.422,2.674,1.057,3.68,1.811
		c0.543-0.781,1.161-1.391,1.811-1.607C53.803,16.385,54.959,16,56.05,16c0.794,0,1.423,0.21,1.93,0.55C58.794,12.483,60,6.988,60,5
		C60,2,50,6,48,7z"/>
	<path fill="#A7D28B" d="M58.239,2.904c-3.257,0-9.274,2.496-10.687,3.202c-0.951,0.476-2.352,2.45-1.404,10.146
		c0.712,0.148,1.418,0.357,2.092,0.617c0-0.002,0-0.004,0-0.006c-0.579-4.179-0.475-8.457,0.207-8.968
		c1.647-0.824,7.153-2.991,9.792-2.991c0.525,0,0.729,0.089,0.761,0.1c-0.001,1.553-0.831,5.609-1.562,9.188
		c-0.144,0.704-0.274,1.344-0.395,1.945c0.786,0.21,1.366,0.663,1.789,1.253c0.175-0.886,0.37-1.845,0.565-2.797
		C60.186,10.738,61,6.753,61,5C61,4.508,60.801,2.904,58.239,2.904z"/>
	<path fill="#3F7123" d="M54.876,21c0-2-1,2.75-3,2.75l-0.438-0.186c-0.921,0.412-2.12,0.379-3.227,0.185
		c-0.113-0.03-0.218-0.062-0.329-0.093l-0.006,0.094c0,0,0,2-3,9C44.166,34.407,52,31.75,55,33C57.064,33.86,54.876,23,54.876,21z"
		/>
	<path fill="#A7D28B" d="M56.222,24.037c-0.178-1.317-0.346-2.562-0.346-3.037c0-0.344,0-1.259-0.848-1.463
		c-0.849-0.201-1.229,0.537-1.564,1.192c-0.096,0.187-0.328,0.35-0.61,0.481c0.043,0.43-0.028,0.85-0.223,1.236
		c-0.207,0.413-0.503,0.713-0.853,0.936c0.885,0.131,1.845,0.729,2.351,0.099c0.034,0.261,0.071,0.536,0.11,0.822
		c0.258,1.91,0.824,6.119,0.607,7.59c-1.771-0.48-4.284-0.146-6.527,0.155c-0.691,0.093-1.548,0.208-2.166,0.25
		c2.172-5.193,2.64-7.629,2.737-8.454c-0.229-0.024-0.456-0.057-0.68-0.096c-0.424-0.113-0.829-0.229-1.222-0.35
		c-0.191,1.037-0.857,3.882-3.032,8.957c-0.205,0.479-0.158,0.97,0.129,1.347c0.341,0.449,0.888,0.608,1.698,0.608
		c0.715,0,1.636-0.124,2.801-0.28c2.008-0.268,4.759-0.637,6.03-0.108c0.509,0.213,1.035,0.153,1.445-0.162
		C57.192,32.892,57.087,30.458,56.222,24.037z"/>
	<g>
		<path fill="#FFCC4D" d="M49.999,23.707c0,3.162,1,5,3,6c3.688,1.844,6-2,6-7c0-7-3-6-6-5
			C51.657,18.154,49.999,21.707,49.999,23.707z"/>
		<path fill="#664500" d="M54.796,31.177L54.796,31.177c-0.726,0-1.48-0.193-2.244-0.575c-2.391-1.195-3.553-3.45-3.553-6.895
			c0-2.155,1.722-6.294,3.684-6.949C53.802,16.385,54.958,16,56.049,16c3.95,0,3.95,5.048,3.95,6.707
			c0,2.222-0.438,4.266-1.235,5.755C57.828,30.213,56.419,31.177,54.796,31.177z M56.049,18c-0.767,0-1.767,0.333-2.733,0.656
			c-0.728,0.242-2.316,3.213-2.316,5.051c0,3.44,1.308,4.536,2.447,5.105c0.483,0.241,0.938,0.364,1.35,0.364l0,0
			c0.875,0,1.616-0.558,2.204-1.658c0.645-1.204,0.999-2.913,0.999-4.812C57.999,18,56.632,18,56.049,18z"/>
	</g>
	<path fill="#3F7123" d="M52.684,16.758C53.803,16.385,54.959,16,56.05,16c0.036,0,0.065,0.007,0.101,0.008
		C56.31,11.417,56.479,4.728,56,4.25c-3-3-8,4-13,2c-1.373-0.549,0.921,6.265,2.212,9.859c2.069,0.289,4.171,1.148,5.652,2.257
		C51.409,17.581,52.032,16.976,52.684,16.758z"/>
	<path fill="#A7D28B" d="M44.924,7.616c2.081,0,4.043-0.981,5.773-1.846c1.857-0.929,3.491-1.748,4.466-0.932
		c0.209,0.952,0.202,4.732-0.019,11.244C55.449,16.033,55.752,16,56.05,16c0.409,0,0.766,0.065,1.095,0.164
		c0.382-11.18,0.077-12.107-0.438-12.621c-0.698-0.698-1.547-1.052-2.522-1.052c-1.403,0-2.85,0.724-4.382,1.489
		c-1.607,0.804-3.27,1.635-4.879,1.635c-0.55,0-1.058-0.096-1.553-0.294c-0.576-0.23-1.188-0.05-1.518,0.428
		c-0.246,0.358-0.952,1.394,2.249,10.262c0.737,0.027,1.495,0.131,2.245,0.308c-1.273-3.487-2.44-7.165-2.717-8.837
		C44.052,7.571,44.484,7.616,44.924,7.616z"/>
</g>
</svg>
