<?xml version="1.0" encoding="utf-8"?>
<!-- Generator: Adobe Illustrator 16.0.4, SVG Export Plug-In . SVG Version: 6.00 Build 0)  -->
<!DOCTYPE svg PUBLIC "-//W3C//DTD SVG 1.1//EN" "http://www.w3.org/Graphics/SVG/1.1/DTD/svg11.dtd">
<svg version="1.1" xmlns="http://www.w3.org/2000/svg" xmlns:xlink="http://www.w3.org/1999/xlink" x="0px" y="0px" width="38px"
	 height="56px" viewBox="0 0 38 56" enable-background="new 0 0 38 56" xml:space="preserve">
<g id="base">
	<path fill="#FFCC4D" d="M37,37c0,9.941-8.059,18-18,18C9.059,55,1,46.941,1,37c0-9.941,8.059-18,18-18C28.941,19,37,27.059,37,37"
		/>
</g>
<g id="boca">
	<g>
		<path fill="#664500" d="M21.5,48h-5c-0.553,0-1-0.447-1-1s0.447-1,1-1h5c0.553,0,1,0.447,1,1S22.053,48,21.5,48z"/>
	</g>
</g>
<g id="ojos_copia_2" display="none">
	<path display="inline" fill="#FFFFFF" d="M36,34.062C36,38.449,32.417,42,28,42c-4.419,0-8-3.551-8-7.938
		c0-4.383,3.581-7.939,8-7.939C32.417,26.123,36,29.679,36,34.062z"/>
	<circle display="inline" fill="#664500" cx="23" cy="34" r="3"/>
	<path display="inline" fill="#FFFFFF" d="M18,34.062C18,38.449,14.417,42,10,42c-4.419,0-8-3.551-8-7.938
		c0-4.383,3.581-7.939,8-7.939C14.417,26.123,18,29.679,18,34.062z"/>
	<circle display="inline" fill="#664500" cx="5" cy="34" r="3"/>
</g>
<g id="ojos_copia" display="none">
	<path display="inline" fill="#FFFFFF" d="M36,34.062C36,38.449,32.417,42,28,42c-4.419,0-8-3.551-8-7.938
		c0-4.383,3.581-7.939,8-7.939C32.417,26.123,36,29.679,36,34.062z"/>
	<circle display="inline" fill="#664500" cx="25" cy="34" r="3"/>
	<path display="inline" fill="#FFFFFF" d="M18,34.062C18,38.449,14.417,42,10,42c-4.419,0-8-3.551-8-7.938
		c0-4.383,3.581-7.939,8-7.939C14.417,26.123,18,29.679,18,34.062z"/>
	<circle display="inline" fill="#664500" cx="7" cy="34" r="3"/>
</g>
<g id="ojos">
	<path fill="#FFFFFF" d="M36,34.062C36,38.449,32.417,42,28,42c-4.419,0-8-3.551-8-7.938c0-4.383,3.581-7.939,8-7.939
		C32.417,26.123,36,29.679,36,34.062z"/>
	<circle fill="#664500" cx="28" cy="34" r="3"/>
	<path fill="#FFFFFF" d="M18,34.062C18,38.449,14.417,42,10,42c-4.419,0-8-3.551-8-7.938c0-4.383,3.581-7.939,8-7.939
		C14.417,26.123,18,29.679,18,34.062z"/>
	<circle fill="#664500" cx="10" cy="34" r="3"/>
</g>
<g id="ojos_copia_3" display="none">
	<path display="inline" fill="#FFFFFF" d="M36,34.062C36,38.449,32.417,42,28,42c-4.419,0-8-3.551-8-7.938
		c0-4.383,3.581-7.939,8-7.939C32.417,26.123,36,29.679,36,34.062z"/>
	<circle display="inline" fill="#664500" cx="31" cy="34" r="3"/>
	<path display="inline" fill="#FFFFFF" d="M18,34.062C18,38.449,14.417,42,10,42c-4.419,0-8-3.551-8-7.938
		c0-4.383,3.581-7.939,8-7.939C14.417,26.123,18,29.679,18,34.062z"/>
	<circle display="inline" fill="#664500" cx="13" cy="34" r="3"/>
</g>
<g id="ojos_copia_4" display="none">
	<path display="inline" fill="#FFFFFF" d="M36,34.062C36,38.449,32.417,42,28,42c-4.419,0-8-3.551-8-7.938
		c0-4.383,3.581-7.939,8-7.939C32.417,26.123,36,29.679,36,34.062z"/>
	<circle display="inline" fill="#664500" cx="33" cy="34" r="3"/>
	<path display="inline" fill="#FFFFFF" d="M18,34.062C18,38.449,14.417,42,10,42c-4.419,0-8-3.551-8-7.938
		c0-4.383,3.581-7.939,8-7.939C14.417,26.123,18,29.679,18,34.062z"/>
	<circle display="inline" fill="#664500" cx="15" cy="34" r="3"/>
</g>
<g id="Capa_4">
	<path fill="#9AAAB4" d="M2,31c0,0-1-4,0-7s1-4,2-5s3-3,3-4s2-4,3-5s3-2,3-3s5-2,6-4c2,2,4,2,5,3s4,4,4,5s5,4,5,5s3,7,3,8
		c0,2.299,0.692,4.229,0,7c0,0-3-9-17-9S2,31,2,31z"/>
	<path fill="#67757F" d="M36,29C25.56,18.56,17,2,17,6s7,17,5,15c-2.236-2.236-10-15-11-11S1,25,2,25S31,4,24,7S11,26,13,22
		s23-7,19-5s-3,7-3,6S38,31,36,29z"/>
	<path fill="#CCD6DD" d="M10,22c-1,1-4,4-3,2s9-11,9-11s-1,4,0,6s6,3,7,3s-2-10,0-7s6,9,8,10s5-4,3-5S26,7,24,6s3,17,1,15S18,1,17,5
		s-2,18-5,18s1-17-2-13S1.431,31.354,3,29c2-3,8-19,11-22C17.162,3.838,10,22,10,22z"/>
	<path fill="#E1E8ED" d="M9,15c11,2,14,6,18,8S8.916,7.661,10,12c1,4,20-3,16-3s-9-6-9-4s12,9,14,11s1.832,12.051,1,9
		C29,14,9.473,5.262,15,10c7,6-16,21-13,17s10-11,8-13S6.8,14.6,9,15z"/>
</g>
</svg>
