<?xml version="1.0" encoding="utf-8"?>
<!-- Generator: Adobe Illustrator 16.0.4, SVG Export Plug-In . SVG Version: 6.00 Build 0)  -->
<!DOCTYPE svg PUBLIC "-//W3C//DTD SVG 1.1//EN" "http://www.w3.org/Graphics/SVG/1.1/DTD/svg11.dtd">
<svg version="1.1" xmlns="http://www.w3.org/2000/svg" xmlns:xlink="http://www.w3.org/1999/xlink" x="0px" y="0px" width="60px"
	 height="38px" viewBox="0 0 60 38" enable-background="new 0 0 60 38" xml:space="preserve">
<g id="wall_copia_2" display="none">
	<path display="inline" fill="#FFCC4D" d="M35,19.938c0,9.389-7.611,17-17,17c-9.388,0-17-7.611-17-17c0-9.388,7.612-17,17-17
		C27.389,2.938,35,10.549,35,19.938"/>
	<ellipse display="inline" fill="#664500" cx="27" cy="16.2" rx="2" ry="2.8"/>
	<path display="inline" fill="#664500" d="M30.999,26c-6.739,0-7.937,4.2-7.984,4.379c-0.058,0.217,0.046,0.442,0.252,0.554
		c0.208,0.109,0.469,0.079,0.64-0.077C23.928,30.837,25.992,29,30.999,29c0.474,0,0.914,0.021,1.335,0.051
		c0.556-0.872,1.037-1.794,1.428-2.765C32.961,26.111,32.055,26,30.999,26z"/>
	<path display="inline" fill="none" stroke="#664500" stroke-width="2" stroke-linecap="round" stroke-miterlimit="10" d="M21,9
		c3,0,5,4,7,4"/>
</g>
<g id="wall_copia" display="none">
	<path display="inline" fill="#FFCC4D" d="M35,19.938c0,9.389-7.611,17-17,17c-9.388,0-17-7.611-17-17c0-9.388,7.612-17,17-17
		C27.389,2.938,35,10.549,35,19.938"/>
	<ellipse display="inline" fill="#664500" cx="27" cy="16.2" rx="2" ry="2.8"/>
	<path display="inline" fill="#664500" d="M28,14c-1.282,0-2.338-0.949-3.457-1.954C23.425,11.04,22.268,10,21,10
		c-0.552,0-1-0.448-1-1s0.448-1,1-1c2.035,0,3.613,1.418,4.881,2.559C26.632,11.234,27.484,12,28,12c0.552,0,1,0.448,1,1
		S28.552,14,28,14z"/>
	<path display="inline" fill="#664500" d="M34.679,21.959c-0.633-0.056-1.933-0.148-3.521-0.148C17.969,21.811,16,27.568,16,31
		c0,3.094,2.083,3.25,2.5,3.25c0.973,0,1.663-0.585,1.914-0.836l0.29-0.289c0.626-0.264,2.823-0.924,9.229-1.086
		c2.67-2.634,4.465-6.144,4.934-10.063L34.679,21.959z"/>
	<path display="inline" fill="#E1E8ED" d="M34.504,23.951C31.719,23.707,18,22.913,18,31c0,2,1,1,1,1s0.002-1.871,12.675-1.993
		C32.991,28.222,33.965,26.174,34.504,23.951z"/>
</g>
<g id="wall_copia_3" display="none">
	<path display="inline" fill="#FFCC4D" d="M31,18.969c0,9.924-6.716,17.969-15,17.969c-8.284,0-15-8.045-15-17.969
		C1,9.045,7.716,1,16,1C24.284,1,31,9.045,31,18.969"/>
	<path display="inline" fill="#664500" d="M25.759,12.349l-6-7c-0.36-0.419-0.992-0.468-1.41-0.108
		c-0.419,0.359-0.468,0.991-0.108,1.41l3.527,4.115l-3.32-1.66c-0.495-0.248-1.095-0.046-1.342,0.447
		c-0.247,0.494-0.047,1.095,0.447,1.342L19.764,12H13c-0.552,0-1,0.448-1,1s0.448,1,1,1h12c0.391,0,0.745-0.228,0.909-0.582
		C26.072,13.063,26.013,12.646,25.759,12.349z"/>
	<path display="inline" fill="#E1E8ED" d="M28,31"/>
	<path display="inline" fill="#664500" d="M26,20c-1.702,0-3.246-0.717-4.881-1.476C19.504,17.775,17.834,17,16,17
		c-4.122,0-7,2.879-7,7c0,5.131,3.869,9,9,9h7.356c3.226-3.091,5.35-7.741,5.6-13H26z"/>
	<path display="inline" fill="#E1E8ED" d="M27.118,31c1.867-2.475,3.164-5.567,3.652-9c-0.989,0-2.564,0-4.771,0c-4,0-7-3-10-3
		s-5,2-5,5c0,4,3,7,7,7C21.734,31,25.468,31,27.118,31z"/>
	<path display="inline" fill="#664500" d="M30.115,25H11c-0.552,0-1,0.447-1,1s0.448,1,1,1h18.404
		C29.674,26.354,29.911,25.688,30.115,25z"/>
</g>
<g id="wall_copia_4" display="none">
	<path display="inline" fill="#FFCC4D" d="M42.157,31.055c-7.017,7.018-17.454,7.957-23.312,2.1
		c-5.857-5.857-4.918-16.295,2.099-23.312s17.455-7.957,23.312-2.1C50.115,13.6,49.174,24.037,42.157,31.055"/>
	<path display="inline" fill="#664500" d="M44.482,24.077l0.707-9.192c0.042-0.551-0.371-1.032-0.921-1.073
		c-0.551-0.043-1.031,0.369-1.073,0.92l-0.416,5.403l-1.174-3.521c-0.174-0.524-0.741-0.807-1.266-0.632
		c-0.523,0.174-0.807,0.74-0.632,1.265l0.781,2.345l-4.782-4.782c-0.391-0.391-1.023-0.392-1.415-0.001
		c-0.391,0.391-0.39,1.024,0,1.415l8.484,8.485c0.277,0.275,0.688,0.365,1.055,0.23C44.198,24.803,44.452,24.467,44.482,24.077z"/>
	<path display="inline" fill="#E1E8ED" d="M28,31"/>
	<path display="inline" fill="#664500" d="M37.893,28.248c-1.203-1.203-1.788-2.802-2.408-4.494c-0.611-1.672-1.245-3.4-2.542-4.697
		c-2.915-2.915-6.985-2.914-9.899,0c-3.628,3.627-3.628,9.1,0,12.727l5.202,5.203c4.467,0.096,9.256-1.691,13.153-5.232
		L37.893,28.248z"/>
	<path display="inline" fill="#E1E8ED" d="M30.905,36.817c3.07-0.43,6.175-1.7,8.946-3.782c-0.699-0.699-1.812-1.812-3.373-3.373
		c-2.828-2.828-2.828-7.07-4.95-9.191c-2.121-2.121-4.95-2.122-7.071,0c-2.828,2.828-2.828,7.07,0,9.898
		C27.098,33.01,29.738,35.65,30.905,36.817z"/>
	<path display="inline" fill="#664500" d="M37.268,34.693L23.75,21.178c-0.39-0.391-1.023-0.391-1.414,0s-0.39,1.023,0,1.414
		l13.014,13.014C35.998,35.34,36.637,35.035,37.268,34.693z"/>
	<path display="inline" fill="#FFEF2C" d="M48,7c-3,2-8,0-6,2s3,3,3,4s1,1,1,2s-1,1-1,2s-4,0-4,1s4,1,4,2s1,1,1,2s-1,1-1,2
		c0,2-4,5-1,4c2.684-0.895,4,1,4,0S48,7,48,7z"/>
	<path display="inline" fill="#664500" d="M12.001,17c-0.054,0-0.11-0.004-0.166-0.014c-0.544-0.091-0.913-0.606-0.822-1.151
		c1.192-7.155,6.294-11.242,8.432-12.667c0.459-0.308,1.08-0.182,1.387,0.277c0.306,0.459,0.182,1.081-0.277,1.387
		c-1.921,1.281-6.504,4.949-7.568,11.333C12.905,16.653,12.481,17,12.001,17z"/>
	<path display="inline" fill="#664500" d="M6.374,19c-0.467,0-0.885-0.329-0.979-0.804C4.285,12.649,5.509,7.452,8.668,4.293
		c0.391-0.391,1.023-0.391,1.414,0s0.391,1.023,0,1.414c-2.645,2.645-3.69,7.28-2.727,12.097c0.108,0.542-0.243,1.068-0.784,1.177
		C6.505,18.994,6.439,19,6.374,19z"/>
</g>
<g id="wall_copia_5">
	<path fill="#FFCC4D" d="M42.157,31.055c-7.017,7.018-17.454,7.957-23.312,2.1c-5.857-5.857-4.918-16.295,2.099-23.312
		s17.455-7.957,23.312-2.1C50.115,13.6,49.174,24.037,42.157,31.055"/>
	<path fill="#664500" d="M44.482,24.077l0.707-9.192c0.042-0.551-0.371-1.032-0.921-1.073c-0.551-0.043-1.031,0.369-1.073,0.92
		l-0.416,5.403l-1.174-3.521c-0.174-0.524-0.741-0.807-1.266-0.632c-0.523,0.174-0.807,0.74-0.632,1.265l0.781,2.345l-4.782-4.782
		c-0.391-0.391-1.023-0.392-1.415-0.001c-0.391,0.391-0.39,1.024,0,1.415l8.484,8.485c0.277,0.275,0.688,0.365,1.055,0.23
		C44.198,24.803,44.452,24.467,44.482,24.077z"/>
	<path fill="#E1E8ED" d="M28,31"/>
	<path fill="#664500" d="M37.893,28.248c-1.203-1.203-1.788-2.802-2.408-4.494c-0.611-1.672-1.245-3.4-2.542-4.697
		c-2.915-2.915-6.985-2.914-9.899,0c-3.628,3.627-3.628,9.1,0,12.727l5.202,5.203c4.467,0.096,9.256-1.691,13.153-5.232
		L37.893,28.248z"/>
	<path fill="#E1E8ED" d="M30.905,36.817c3.07-0.43,6.175-1.7,8.946-3.782c-0.699-0.699-1.812-1.812-3.373-3.373
		c-2.828-2.828-2.828-7.07-4.95-9.191c-2.121-2.121-4.95-2.122-7.071,0c-2.828,2.828-2.828,7.07,0,9.898
		C27.098,33.01,29.738,35.65,30.905,36.817z"/>
	<path fill="#664500" d="M37.268,34.693L23.75,21.178c-0.39-0.391-1.023-0.391-1.414,0s-0.39,1.023,0,1.414l13.014,13.014
		C35.998,35.34,36.637,35.035,37.268,34.693z"/>
	<path fill="#664500" d="M12.001,17c-0.054,0-0.11-0.004-0.166-0.014c-0.544-0.091-0.913-0.606-0.822-1.151
		c1.192-7.155,6.294-11.242,8.432-12.667c0.459-0.308,1.08-0.182,1.387,0.277c0.306,0.459,0.182,1.081-0.277,1.387
		c-1.921,1.281-6.504,4.949-7.568,11.333C12.905,16.653,12.481,17,12.001,17z"/>
	<path fill="#664500" d="M6.374,19c-0.467,0-0.885-0.329-0.979-0.804C4.285,12.649,5.509,7.452,8.668,4.293
		c0.391-0.391,1.023-0.391,1.414,0s0.391,1.023,0,1.414c-2.645,2.645-3.69,7.28-2.727,12.097c0.108,0.542-0.243,1.068-0.784,1.177
		C6.505,18.994,6.439,19,6.374,19z"/>
	<path fill="#FFEF2C" d="M38,4c-1,0,0,1-1,2s-2,0-2,1s1,0,2,1s0,2,1,2s0-1,1-2s2,0,2-1s-1,0-2-1S39,4,38,4z"/>
	<path fill="#FFEF2C" d="M35,15c-1,0,0,1-1,2s-2,0-2,1s1,0,2,1s0,2,1,2s0-1,1-2s2,0,2-1s-1,0-2-1S36,15,35,15z"/>
	<path fill="#FFEF2C" d="M38,27c-1,0,0,1-1,2s-2,0-2,1s1,0,2,1s0,2,1,2s0-1,1-2s2,0,2-1s-1,0-2-1S39,27,38,27z"/>
	<path fill="#FFEF2C" d="M47,21c-1,0,0,1-1,2s-2,0-2,1s1,0,2,1s0,2,1,2s0-1,1-2s2,0,2-1s-1,0-2-1S48,21,47,21z"/>
	<path fill="#FFEF2C" d="M47,11c-1,0,0,1-1,2s-2,0-2,1s1,0,2,1s0,2,1,2s0-1,1-2s2,0,2-1s-1,0-2-1S48,11,47,11z"/>
</g>
<g id="wall">
	<rect x="47" y="1" fill="#AE4433" width="12" height="36"/>
	<path fill="#BF6952" d="M57,9c0,0.552-0.447,1-1,1h-6c-0.553,0-1-0.448-1-1V4c0-0.552,0.447-1,1-1h6c0.553,0,1,0.448,1,1V9z"/>
	<path fill="#BF6952" d="M57,26c0,0.553-0.447,1-1,1h-6c-0.553,0-1-0.447-1-1v-5c0-0.552,0.447-1,1-1h6c0.553,0,1,0.448,1,1V26z"/>
	<path fill="#BF6952" d="M57,29h-2c-0.553,0-1,0.447-1,1v4c0,0.553,0.447,1,1,1h2V29z"/>
	<path fill="#BF6952" d="M51,29h-2v6h2c0.553,0,1-0.447,1-1v-4C52,29.447,51.553,29,51,29z"/>
	<path fill="#BF6952" d="M57,12h-2c-0.553,0-1,0.447-1,1v4c0,0.553,0.447,1,1,1h2V12z"/>
	<path fill="#BF6952" d="M51,12h-2v6h2c0.553,0,1-0.447,1-1v-4C52,12.447,51.553,12,51,12z"/>
</g>
</svg>
