<?xml version="1.0" standalone="no"?>
<!DOCTYPE svg PUBLIC "-//W3C//DTD SVG 20010904//EN"
 "http://www.w3.org/TR/2001/REC-SVG-20010904/DTD/svg10.dtd">
<svg version="1.0" xmlns="http://www.w3.org/2000/svg"
 width="552.000000pt" height="552.000000pt" viewBox="0 0 552.000000 552.000000"
 preserveAspectRatio="xMidYMid meet">
<metadata>
Created by potrace 1.11, written by Peter Selinger 2001-2013
</metadata>
<g transform="translate(0.000000,552.000000) scale(0.100000,-0.100000)"
fill="#000000" stroke="none">
<path d="M5072 5083 c3 -16 16 -75 29 -133 20 -90 23 -133 23 -300 1 -189 0
-198 -27 -275 -38 -108 -102 -199 -195 -281 -136 -119 -219 -166 -547 -309
-110 -48 -237 -107 -283 -132 -232 -125 -382 -293 -429 -479 -24 -97 -24 -382
1 -514 30 -164 66 -299 131 -495 59 -178 113 -317 315 -807 62 -153 79 -204
74 -225 -26 -106 -181 -200 -614 -373 -266 -106 -344 -144 -337 -163 6 -18
248 -13 387 7 352 52 594 166 707 335 58 85 77 154 71 256 -7 106 -38 195
-203 580 -205 479 -278 689 -325 930 -59 309 -27 473 127 635 90 96 191 160
502 318 315 159 402 214 517 324 232 222 318 459 269 738 -19 111 -37 164 -96
288 -44 91 -52 102 -75 102 -23 0 -26 -3 -22 -27z"/>
<path d="M2455 5075 c-465 -64 -802 -241 -1026 -538 -127 -169 -179 -322 -186
-552 -8 -223 20 -351 122 -560 134 -277 314 -477 494 -550 180 -74 510 -73
736 0 85 28 235 103 235 118 0 4 -8 6 -17 3 -10 -2 -85 -17 -168 -32 -120 -23
-180 -28 -300 -29 -137 0 -156 2 -221 26 -99 36 -203 108 -305 209 -131 130
-219 274 -273 447 -35 111 -46 188 -46 315 0 243 87 453 260 629 192 195 464
292 876 314 336 19 666 -65 1171 -295 278 -127 373 -154 553 -155 122 0 127 1
193 33 74 37 135 101 159 169 17 48 17 216 0 265 -14 39 -48 88 -62 88 -4 0
-8 -25 -9 -55 -2 -180 -124 -335 -265 -335 -24 0 -83 11 -130 25 -91 26 -384
149 -526 220 -164 82 -383 160 -572 204 -210 49 -495 64 -693 36z"/>
<path d="M1110 3478 c-158 -129 -292 -258 -367 -354 -148 -189 -335 -549 -422
-814 -98 -300 -108 -630 -25 -878 130 -393 498 -709 949 -818 241 -58 746 -84
1245 -65 184 8 376 16 427 20 99 6 128 20 102 46 -24 25 -138 43 -404 64 -532
44 -929 92 -1135 137 -321 71 -592 203 -739 359 -238 255 -321 661 -215 1057
79 296 364 838 654 1243 97 137 95 137 -70 3z"/>
<path d="M2440 1750 c-138 -11 -355 -37 -396 -49 l-29 -8 25 -6 c14 -3 147
-10 295 -16 149 -6 321 -18 383 -26 180 -25 353 -83 393 -131 23 -28 18 -318
-9 -556 -26 -226 -31 -373 -14 -390 21 -21 58 7 86 64 105 219 182 843 124
1012 -16 47 -53 69 -154 92 -83 19 -523 27 -704 14z"/>
<path d="M2898 393 c18 -2 45 -2 60 0 15 2 0 4 -33 4 -33 0 -45 -2 -27 -4z"/>
</g>
</svg>
