<?xml version="1.0" encoding="UTF-8" standalone="no"?>
<!-- Created with Inkscape (http://www.inkscape.org/) -->

<svg
   xmlns:dc="http://purl.org/dc/elements/1.1/"
   xmlns:cc="http://creativecommons.org/ns#"
   xmlns:rdf="http://www.w3.org/1999/02/22-rdf-syntax-ns#"
   xmlns:svg="http://www.w3.org/2000/svg"
   xmlns="http://www.w3.org/2000/svg"
   xmlns:sodipodi="http://sodipodi.sourceforge.net/DTD/sodipodi-0.dtd"
   xmlns:inkscape="http://www.inkscape.org/namespaces/inkscape"
   width="110"
   height="50"
   id="svg3077"
   version="1.1"
   inkscape:version="0.48.4 r9939"
   sodipodi:docname="New document 3">
  <defs
     id="defs3079" />
  <sodipodi:namedview
     id="base"
     pagecolor="#ffffff"
     bordercolor="#666666"
     borderopacity="1.0"
     inkscape:pageopacity="0.0"
     inkscape:pageshadow="2"
     inkscape:zoom="1.979899"
     inkscape:cx="81.583638"
     inkscape:cy="46.344903"
     inkscape:document-units="px"
     inkscape:current-layer="layer1"
     showgrid="false"
     inkscape:window-width="1088"
     inkscape:window-height="753"
     inkscape:window-x="133"
     inkscape:window-y="196"
     inkscape:window-maximized="0" />
  <metadata
     id="metadata3082">
    <rdf:RDF>
      <cc:Work
         rdf:about="">
        <dc:format>image/svg+xml</dc:format>
        <dc:type
           rdf:resource="http://purl.org/dc/dcmitype/StillImage" />
        <dc:title></dc:title>
      </cc:Work>
    </rdf:RDF>
  </metadata>
  <g
     inkscape:label="Layer 1"
     inkscape:groupmode="layer"
     id="layer1"
     transform="translate(0,-1002.3622)">
    <g
       id="g3151"
       transform="translate(37.936323,25.356619)">
      <path
         inkscape:export-ydpi="72.449234"
         inkscape:export-xdpi="72.449234"
         inkscape:export-filename="/home/benjami/work/mnm/meneame/logo02.png"
         style="fill:#ff6400;fill-opacity:1;stroke:none"
         sodipodi:nodetypes="ccccc"
         id="path3984"
         d="m -27.989886,1020.7758 c 1.771111,0.1337 4.710369,-0.042 6.091029,0.9012 0.494017,0.7263 -0.42536,4.7466 -0.108586,5.2107 0.705375,0.2028 1.512197,-4.7105 1.065516,-5.9314 -0.338168,-0.9321 -6.342775,-0.4364 -7.047959,-0.1805 z"
         inkscape:connector-curvature="0" />
      <path
         inkscape:export-ydpi="72.449234"
         inkscape:export-xdpi="72.449234"
         inkscape:export-filename="/home/benjami/work/mnm/meneame/logo02.png"
         style="fill:#ff6400;fill-opacity:1;stroke:none"
         sodipodi:nodetypes="ccccsccccc"
         id="path3986"
         d="m -11.732113,1007.5574 c -2.021079,2.0032 -5.670492,1.9456 -7.027699,4.6512 -1.157847,3.2088 1.568863,8.3356 2.707192,11.261 0.771096,1.5103 -6.023308,2.9665 -5.192281,3.3404 4.794678,-0.053 6.839269,-1.763 6.263956,-3.8614 -0.550504,-2.0079 -3.035682,-6.0157 -3.035682,-9.2179 0.06964,-2.4187 2.837809,-3.1614 4.620722,-4.147 2.07165,-0.9078 4.0094338,-2.9329 3.473769,-5.3085 -0.022922,-0.8379 -1.51603,-3.6276 -0.906472,-1.4651 0.332515,1.5963 0.492328,3.5667 -0.903505,4.7473 z"
         inkscape:connector-curvature="0" />
      <path
         inkscape:export-ydpi="72.449234"
         inkscape:export-xdpi="72.449234"
         inkscape:export-filename="/home/benjami/work/mnm/meneame/logo02.png"
         style="fill:#ff6400;fill-opacity:1;stroke:none"
         sodipodi:nodetypes="ccccccccc"
         id="path3988"
         d="m -35.456787,1013.452 c -1.511493,2.3283 -2.892243,5.0551 -2.36509,7.8927 0.484616,2.9667 3.421407,5.0593 6.341532,5.4318 2.998345,0.3411 5.990226,0.2546 8.995914,0.043 0.506822,-0.4789 -2.452731,-0.466 -3.69928,-0.6415 -2.843391,-0.3146 -5.928206,-0.3722 -8.366091,-2.0225 -2.271248,-1.6608 -2.56895,-4.9187 -1.479999,-7.3202 0.913193,-2.2658 2.276089,-4.456 3.709845,-6.3491 -1.117961,0.9075 -2.150873,1.5844 -3.136831,2.9656 z"
         inkscape:connector-curvature="0" />
      <path
         inkscape:export-ydpi="72.449234"
         inkscape:export-xdpi="72.449234"
         inkscape:export-filename="/home/benjami/work/mnm/meneame/logo02.png"
         style="fill:#ff6400;fill-opacity:1;stroke:none"
         sodipodi:nodetypes="ccccccccsccccc"
         id="path3990"
         d="m -17.967459,1003.9522 c -2.609225,-1.3155 -5.508214,-2.1121 -8.543156,-1.4185 -1.630597,0.2946 -3.551148,1.165 -4.643609,2.623 -1.432508,1.6719 -1.48826,4.1039 -0.548671,6.0158 0.730231,1.4731 1.840187,3.1119 3.638656,3.3576 1.546664,0.2268 3.246103,0.022 4.560057,-0.851 -1.562231,0.2625 -3.371958,0.8053 -4.774978,-0.2152 -2.351289,-1.4697 -3.494715,-4.8051 -2.067143,-7.2396 1.146691,-2.1226 3.456643,-2.7206 5.900646,-2.8257 3.259088,-0.1401 6.382595,1.6771 7.581123,2.1197 1.154803,0.3554 2.810888,0.8054 3.632585,-0.3927 0.480241,-0.5567 0.288313,-2.0903 -0.102258,-2.2326 0.112884,1.0744 -0.69336,2.4258 -1.94835,2.0733 -0.937392,-0.2162 -1.799704,-0.6556 -2.684902,-1.0141 z"
         inkscape:connector-curvature="0" />
      <g
         transform="matrix(0.59692086,0,0,0.59212297,-172.48461,809.3886)"
         id="text4241"
         style="font-size:29.45837402px;font-style:normal;font-variant:normal;font-weight:300;font-stretch:normal;line-height:125%;letter-spacing:0px;word-spacing:0px;fill:#000000;fill-opacity:1;stroke:none;font-family:Roboto;-inkscape-font-specification:Roboto Light">
        <path
           inkscape:connector-curvature="0"
           id="path4250"
           style="font-weight:normal;fill:#ff6400;font-family:Steinem;-inkscape-font-specification:Steinem"
           d="m 305.59812,346.06601 -0.64809,-1.03104 c -0.0589,-0.0982 -0.13749,-0.14729 -0.23566,-0.14729 -0.0589,0 -0.11786,0.0196 -0.17675,0.0589 -0.17678,0.11783 -0.35353,0.21603 -0.53025,0.29458 -0.17678,0.0786 -0.33389,0.11784 -0.47134,0.11783 -0.15713,10e-6 -0.27497,-0.0491 -0.3535,-0.14729 -0.0589,-0.0982 -0.0884,-0.31422 -0.0884,-0.64808 l 0,-6.36301 c -3e-5,-1.59074 -0.40262,-2.81817 -1.2078,-3.6823 -0.80521,-0.8641 -2.09156,-1.29615 -3.85904,-1.29617 -0.96233,2e-5 -1.81662,0.21605 -2.56288,0.64809 -0.7463,0.41243 -1.32564,0.98196 -1.73805,1.70858 -0.37315,-0.7659 -0.92304,-1.34525 -1.64966,-1.73804 -0.70702,-0.4124 -1.62023,-0.61861 -2.73963,-0.61863 -0.88376,2e-5 -1.67914,0.17677 -2.38613,0.53025 -0.68737,0.35352 -1.21762,0.79539 -1.59075,1.32563 -0.11784,-0.47132 -0.35351,-0.84446 -0.707,-1.11942 -0.35351,-0.27493 -0.83466,-0.4124 -1.44347,-0.41241 -0.43205,10e-6 -0.89357,0.0982 -1.38454,0.29458 -0.49097,0.1964 -0.96231,0.46153 -1.414,0.79538 -0.0786,0.0589 -0.11783,0.13748 -0.11783,0.23566 0,0.0197 0,0.0393 0,0.0589 0.0196,0.0393 0.0294,0.0589 0.0294,0.0589 l 0.58917,1.00158 c 0.0589,0.0982 0.14729,0.1473 0.26513,0.14729 0.0786,10e-6 0.13747,-0.0196 0.17675,-0.0589 0.33386,-0.2553 0.6579,-0.38295 0.97212,-0.38296 0.3535,1e-5 0.53025,0.27495 0.53025,0.82483 l 0,10.5461 c 0,0.19639 0.0982,0.29458 0.29459,0.29458 l 2.20938,0 c 0.19638,0 0.29457,-0.0982 0.29458,-0.29458 l 0,-6.45139 c -10e-6,-0.70699 0.0589,-1.35507 0.17675,-1.94425 0.11783,-0.60879 0.3044,-1.13905 0.55971,-1.59075 0.27494,-0.47132 0.63826,-0.83464 1.08996,-1.08996 0.45169,-0.27493 1.00158,-0.41241 1.64967,-0.41242 0.8641,1e-5 1.47291,0.31424 1.82642,0.94267 0.35349,0.60882 0.53024,1.48275 0.53025,2.6218 l 0,7.9243 c -1e-5,0.19639 0.0982,0.29458 0.29458,0.29458 l 2.29775,0 c 0.19638,0 0.29457,-0.0982 0.29459,-0.29458 l 0,-6.45139 c -2e-5,-0.70699 0.0589,-1.35507 0.17675,-1.94425 0.11782,-0.60879 0.30439,-1.13905 0.55971,-1.59075 0.25529,-0.47132 0.60879,-0.83464 1.0605,-1.08996 0.45168,-0.27493 1.00157,-0.41241 1.64967,-0.41242 0.86409,1e-5 1.4729,0.27496 1.82642,0.82484 0.37312,0.5499 0.55969,1.32563 0.55971,2.32721 l 0,6.03897 c -2e-5,0.90339 0.18655,1.59075 0.55971,2.06208 0.39275,0.47134 1.0212,0.707 1.88533,0.707 0.47131,0 0.95247,-0.0982 1.44346,-0.29458 0.51059,-0.21603 0.98192,-0.49097 1.414,-0.82484 l 0.0884,-0.3535" />
        <path
           inkscape:connector-curvature="0"
           id="path4252"
           style="font-weight:normal;fill:#ff6400;font-family:Steinem;-inkscape-font-specification:Steinem"
           d="m 318.87096,341.52942 c 0.19637,10e-6 0.29457,-0.0982 0.29458,-0.29458 l 0,-0.94267 c -1e-5,-2.2781 -0.53026,-4.02596 -1.59075,-5.24359 -1.04087,-1.2176 -2.53343,-1.8264 -4.47767,-1.82642 -2.00318,2e-5 -3.59393,0.66774 -4.77226,2.00317 -1.17834,1.31582 -1.7675,3.06368 -1.7675,5.24359 0,2.10137 0.58916,3.83941 1.7675,5.21414 1.17833,1.35508 2.85746,2.03262 5.03738,2.03262 1.09977,0 1.99334,-0.0884 2.68071,-0.26512 0.68736,-0.15711 1.33544,-0.38296 1.94426,-0.67754 0.0982,-0.0393 0.14728,-0.12766 0.14729,-0.26513 l 0,-1.82642 c -10e-6,-0.19639 -0.0884,-0.29458 -0.26513,-0.29458 -1e-5,0 -0.0197,0 -0.0589,0 -0.0393,0.0196 -0.0687,0.0295 -0.0884,0.0295 -0.5499,0.29458 -1.15871,0.54007 -1.82642,0.73645 -0.66773,0.17676 -1.41401,0.26513 -2.23883,0.26513 -0.66773,0 -1.2569,-0.10801 -1.76751,-0.32404 -0.49098,-0.23567 -0.91321,-0.54989 -1.26671,-0.94267 -0.62845,-0.68736 -1.0114,-1.56129 -1.14887,-2.6218 l 9.39722,0 m -5.86222,-6.12734 c 1.04086,10e-6 1.82641,0.3437 2.35667,1.03105 0.53024,0.66773 0.82483,1.63985 0.88375,2.91637 l -6.74596,0 c 0.17674,-1.27652 0.54988,-2.24864 1.11941,-2.91637 0.56953,-0.68735 1.3649,-1.03104 2.38613,-1.03105" />
        <path
           inkscape:connector-curvature="0"
           id="path4254"
           style="font-weight:normal;fill:#ff6400;font-family:Steinem;-inkscape-font-specification:Steinem"
           d="m 337.04678,346.06601 -0.61863,-1.03104 c -0.0589,-0.0982 -0.14731,-0.14729 -0.26513,-0.14729 -0.0589,0 -0.11785,0.0196 -0.17675,0.0589 l -0.0294,0 c -0.19641,0.13747 -0.37316,0.24548 -0.53026,0.32404 -0.13748,0.0589 -0.27496,0.0884 -0.41241,0.0884 -0.15713,1e-5 -0.27496,-0.0393 -0.3535,-0.11783 -0.0589,-0.0982 -0.0884,-0.27494 -0.0884,-0.53025 l 0,-0.14729 -0.0295,-6.33355 c -10e-6,-1.57111 -0.43207,-2.79854 -1.29616,-3.6823 -0.86413,-0.88374 -2.17012,-1.32561 -3.91797,-1.32563 -0.9034,2e-5 -1.70859,0.18659 -2.41559,0.55971 -0.707,0.37315 -1.28635,0.85431 -1.73804,1.44346 -0.13748,-0.5106 -0.38296,-0.91319 -0.73646,-1.20779 -0.33386,-0.31421 -0.82484,-0.47132 -1.47292,-0.47133 -0.41242,10e-6 -0.85429,0.0982 -1.32562,0.29458 -0.47134,0.1964 -0.94267,0.46153 -1.41401,0.79538 -0.0786,0.0589 -0.11783,0.13748 -0.11783,0.23566 0,0.0197 0,0.0393 0,0.0589 0.0196,0.0393 0.0295,0.0589 0.0295,0.0589 l 0.58917,1.00158 c 0.0589,0.0982 0.14729,0.1473 0.26512,0.14729 0.0589,1e-5 0.10801,-0.0196 0.14729,-0.0589 0.33386,-0.2553 0.65791,-0.38295 0.97213,-0.38296 0.3535,1e-5 0.53025,0.27495 0.53025,0.82483 l 0,10.5461 c 0,0.19639 0.0884,0.29458 0.26513,0.29458 l 2.20937,0 c 0.17675,0 0.26512,-0.0982 0.26513,-0.29458 l 0,-6.45139 c -10e-6,-1.45327 0.3044,-2.65124 0.91321,-3.59392 0.62844,-0.96229 1.5711,-1.44345 2.828,-1.44346 0.88374,1e-5 1.53183,0.28478 1.94426,0.8543 0.43204,0.56953 0.64807,1.35509 0.64808,2.35667 l 0,5.98005 c -10e-6,0.90339 0.18656,1.59075 0.55971,2.06208 0.37313,0.47134 0.99175,0.707 1.85588,0.707 0.47132,0 0.95247,-0.0982 1.44346,-0.29458 0.49095,-0.21603 0.95247,-0.49097 1.38454,-0.82484 l 0.0884,-0.3535" />
        <path
           inkscape:connector-curvature="0"
           id="path4256"
           style="font-weight:normal;fill:#ff6400;font-family:Steinem;-inkscape-font-specification:Steinem"
           d="m 350.28556,341.52942 c 0.19637,10e-6 0.29456,-0.0982 0.29458,-0.29458 l 0,-0.94267 c -2e-5,-2.2781 -0.53027,-4.02596 -1.59075,-5.24359 -1.04088,-1.2176 -2.53343,-1.8264 -4.47768,-1.82642 -2.00317,2e-5 -3.59392,0.66774 -4.77225,2.00317 -1.17834,1.31582 -1.76751,3.06368 -1.76751,5.24359 0,2.10137 0.58917,3.83941 1.76751,5.21414 1.17833,1.35508 2.85745,2.03262 5.03738,2.03262 1.09977,0 1.99334,-0.0884 2.68071,-0.26512 0.68735,-0.15711 1.33544,-0.38296 1.94425,-0.67754 0.0982,-0.0393 0.14728,-0.12766 0.1473,-0.26513 l 0,-1.82642 c -2e-5,-0.19639 -0.0884,-0.29458 -0.26513,-0.29458 -1e-5,0 -0.0197,0 -0.0589,0 -0.0393,0.0196 -0.0688,0.0295 -0.0884,0.0295 -0.5499,0.29458 -1.15871,0.54007 -1.82642,0.73645 -0.66773,0.17676 -1.41401,0.26513 -2.23884,0.26513 -0.66773,0 -1.25689,-0.10801 -1.7675,-0.32404 -0.49098,-0.23567 -0.91321,-0.54989 -1.26671,-0.94267 -0.62845,-0.68736 -1.01141,-1.56129 -1.14888,-2.6218 l 9.39723,0 m -5.86222,-6.12734 c 1.04085,10e-6 1.82641,0.3437 2.35667,1.03105 0.53024,0.66773 0.82482,1.63985 0.88375,2.91637 l -6.74597,0 c 0.17675,-1.27652 0.54989,-2.24864 1.11942,-2.91637 0.56952,-0.68735 1.3649,-1.03104 2.38613,-1.03105 m 4.12417,-8.04213 c 0.0393,-0.0589 0.0589,-0.11782 0.0589,-0.17675 -1e-5,-0.15709 -0.0884,-0.23565 -0.26513,-0.23567 l -2.23883,0 c -0.0982,2e-5 -0.16694,0.0393 -0.20621,0.11783 l -3.82959,5.0963 c -0.0393,0.0589 -0.0589,0.11785 -0.0589,0.17675 0,0.17677 0.0884,0.26514 0.26513,0.26513 l 1.91479,0 c 0.13747,10e-6 0.2062,-0.0393 0.20621,-0.11784 l 4.15363,-5.12575" />
        <path
           inkscape:connector-curvature="0"
           id="path4258"
           style="font-weight:normal;fill:#ff6400;font-family:Steinem;-inkscape-font-specification:Steinem"
           d="m 367.17809,345.88926 -0.61863,-1.03104 c -0.0589,-0.0786 -0.13748,-0.11783 -0.23566,-0.11783 -0.0589,0 -0.11785,0.0196 -0.17675,0.0589 l -0.14729,0.0884 c -0.37316,0.19639 -0.6481,0.29459 -0.82484,0.29458 -0.15712,10e-6 -0.27496,-0.0491 -0.3535,-0.14729 -0.0589,-0.11783 -0.0884,-0.33386 -0.0884,-0.64808 l 0,-5.86222 c -2e-5,-1.70857 -0.46153,-3.01456 -1.38455,-3.91796 -0.92304,-0.92302 -2.33704,-1.38453 -4.242,-1.38455 -1.64968,2e-5 -3.10296,0.3437 -4.35984,1.03105 -0.0982,0.0393 -0.1473,0.12766 -0.1473,0.26512 0,0.0197 0.01,0.0393 0.0295,0.0589 0,0.0197 0,0.0393 0,0.0589 l 0.58917,1.44346 c 0.0393,0.0982 0.12765,0.1473 0.26513,0.14729 -1e-5,10e-6 0.0196,10e-6 0.0589,0 0.0196,-0.0196 0.0393,-0.0294 0.0589,-0.0295 1.00158,-0.49096 2.05226,-0.73645 3.15205,-0.73646 2.14063,10e-6 3.21095,0.91322 3.21096,2.73963 l 0,0.88375 c -0.43207,-0.35349 -0.98196,-0.64808 -1.64967,-0.88375 -0.64809,-0.23566 -1.34527,-0.35349 -2.09155,-0.3535 -1.64967,10e-6 -2.96547,0.46152 -3.94742,1.38454 -0.96231,0.9034 -1.44346,2.08173 -1.44346,3.53501 0,1.55147 0.4517,2.76909 1.35509,3.65283 0.92302,0.86412 2.20937,1.29617 3.85904,1.29617 0.92303,0 1.73804,-0.15711 2.44505,-0.47133 0.70699,-0.33386 1.25688,-0.73646 1.64967,-1.20779 0.27493,0.88375 0.99175,1.32562 2.15046,1.32562 0.47132,0 0.95247,-0.0982 1.44346,-0.29458 0.49096,-0.19639 0.94265,-0.46151 1.35509,-0.79538 l 0.0884,-0.38296 m -5.18467,-3.1815 c -10e-6,0.84448 -0.32406,1.53184 -0.97213,2.06209 -0.64809,0.51061 -1.45329,0.76592 -2.41559,0.76591 -0.96231,1e-5 -1.69877,-0.24548 -2.20937,-0.73646 -0.51062,-0.5106 -0.76593,-1.18815 -0.76592,-2.03262 -1e-5,-0.82483 0.24548,-1.49256 0.73646,-2.00317 0.49097,-0.51061 1.20779,-0.76591 2.15046,-0.76592 1.09977,10e-6 1.95406,0.25531 2.56288,0.76592 0.60879,0.51061 0.9132,1.1587 0.91321,1.94425" />
        <path
           inkscape:connector-curvature="0"
           id="path4260"
           style="font-weight:normal;fill:#ff6400;font-family:Steinem;-inkscape-font-specification:Steinem"
           d="m 392.76499,346.06601 -0.64809,-1.03104 c -0.0589,-0.0982 -0.13749,-0.14729 -0.23566,-0.14729 -0.0589,0 -0.11786,0.0196 -0.17675,0.0589 -0.17678,0.11783 -0.35353,0.21603 -0.53025,0.29458 -0.17678,0.0786 -0.33389,0.11784 -0.47134,0.11783 -0.15713,10e-6 -0.27497,-0.0491 -0.3535,-0.14729 -0.0589,-0.0982 -0.0884,-0.31422 -0.0884,-0.64808 l 0,-6.36301 c -3e-5,-1.59074 -0.40262,-2.81817 -1.2078,-3.6823 -0.80521,-0.8641 -2.09156,-1.29615 -3.85904,-1.29617 -0.96233,2e-5 -1.81662,0.21605 -2.56288,0.64809 -0.74629,0.41243 -1.32564,0.98196 -1.73805,1.70858 -0.37315,-0.7659 -0.92304,-1.34525 -1.64966,-1.73804 -0.70702,-0.4124 -1.62023,-0.61861 -2.73963,-0.61863 -0.88376,2e-5 -1.67914,0.17677 -2.38613,0.53025 -0.68737,0.35352 -1.21762,0.79539 -1.59075,1.32563 -0.11784,-0.47132 -0.35351,-0.84446 -0.707,-1.11942 -0.35351,-0.27493 -0.83466,-0.4124 -1.44347,-0.41241 -0.43205,10e-6 -0.89357,0.0982 -1.38454,0.29458 -0.49097,0.1964 -0.96231,0.46153 -1.414,0.79538 -0.0786,0.0589 -0.11783,0.13748 -0.11783,0.23566 0,0.0197 0,0.0393 0,0.0589 0.0196,0.0393 0.0295,0.0589 0.0295,0.0589 l 0.58917,1.00158 c 0.0589,0.0982 0.14729,0.1473 0.26513,0.14729 0.0786,10e-6 0.13747,-0.0196 0.17675,-0.0589 0.33386,-0.2553 0.6579,-0.38295 0.97212,-0.38296 0.3535,1e-5 0.53025,0.27495 0.53025,0.82483 l 0,10.5461 c 0,0.19639 0.0982,0.29458 0.29459,0.29458 l 2.20938,0 c 0.19638,0 0.29457,-0.0982 0.29458,-0.29458 l 0,-6.45139 c -10e-6,-0.70699 0.0589,-1.35507 0.17675,-1.94425 0.11783,-0.60879 0.3044,-1.13905 0.55971,-1.59075 0.27494,-0.47132 0.63826,-0.83464 1.08996,-1.08996 0.45169,-0.27493 1.00158,-0.41241 1.64967,-0.41242 0.8641,1e-5 1.47291,0.31424 1.82642,0.94267 0.35349,0.60882 0.53024,1.48275 0.53025,2.6218 l 0,7.9243 c -10e-6,0.19639 0.0982,0.29458 0.29458,0.29458 l 2.29775,0 c 0.19638,0 0.29457,-0.0982 0.29459,-0.29458 l 0,-6.45139 c -2e-5,-0.70699 0.0589,-1.35507 0.17675,-1.94425 0.11782,-0.60879 0.30439,-1.13905 0.55971,-1.59075 0.25529,-0.47132 0.60879,-0.83464 1.0605,-1.08996 0.45168,-0.27493 1.00157,-0.41241 1.64967,-0.41242 0.86409,1e-5 1.4729,0.27496 1.82642,0.82484 0.37312,0.5499 0.55969,1.32563 0.55971,2.32721 l 0,6.03897 c -2e-5,0.90339 0.18655,1.59075 0.55971,2.06208 0.39275,0.47134 1.0212,0.707 1.88533,0.707 0.47131,0 0.95247,-0.0982 1.44346,-0.29458 0.51059,-0.21603 0.98192,-0.49097 1.414,-0.82484 l 0.0884,-0.3535" />
        <path
           inkscape:connector-curvature="0"
           id="path4262"
           style="font-weight:normal;fill:#ff6400;font-family:Steinem;-inkscape-font-specification:Steinem"
           d="m 406.03783,341.52942 c 0.19637,10e-6 0.29457,-0.0982 0.29458,-0.29458 l 0,-0.94267 c -10e-6,-2.2781 -0.53026,-4.02596 -1.59075,-5.24359 -1.04087,-1.2176 -2.53343,-1.8264 -4.47767,-1.82642 -2.00318,2e-5 -3.59393,0.66774 -4.77226,2.00317 -1.17834,1.31582 -1.7675,3.06368 -1.7675,5.24359 0,2.10137 0.58916,3.83941 1.7675,5.21414 1.17833,1.35508 2.85746,2.03262 5.03738,2.03262 1.09977,0 1.99334,-0.0884 2.68071,-0.26512 0.68736,-0.15711 1.33544,-0.38296 1.94426,-0.67754 0.0982,-0.0393 0.14728,-0.12766 0.14729,-0.26513 l 0,-1.82642 c -1e-5,-0.19639 -0.0884,-0.29458 -0.26513,-0.29458 -1e-5,0 -0.0197,0 -0.0589,0 -0.0393,0.0196 -0.0688,0.0295 -0.0884,0.0295 -0.5499,0.29458 -1.15871,0.54007 -1.82642,0.73645 -0.66773,0.17676 -1.41401,0.26513 -2.23883,0.26513 -0.66773,0 -1.2569,-0.10801 -1.76751,-0.32404 -0.49098,-0.23567 -0.91321,-0.54989 -1.26671,-0.94267 -0.62845,-0.68736 -1.0114,-1.56129 -1.14887,-2.6218 l 9.39722,0 m -5.86222,-6.12734 c 1.04086,10e-6 1.82641,0.3437 2.35667,1.03105 0.53024,0.66773 0.82483,1.63985 0.88375,2.91637 l -6.74596,0 c 0.17674,-1.27652 0.54988,-2.24864 1.11941,-2.91637 0.56953,-0.68735 1.3649,-1.03104 2.38613,-1.03105" />
      </g>
      <g
         transform="matrix(0.59692086,0,0,0.59212297,-172.48461,809.3886)"
         id="text4245"
         style="font-size:18px;font-style:normal;font-variant:normal;font-weight:300;font-stretch:normal;line-height:125%;letter-spacing:0px;word-spacing:0px;fill:#000000;fill-opacity:1;stroke:none;font-family:Roboto;-inkscape-font-specification:Roboto Light">
        <path
           inkscape:connector-curvature="0"
           id="path4265"
           style="text-align:start;line-height:125%;writing-mode:lr-tb;text-anchor:start;fill:#3c3d3c;fill-opacity:1;font-family:Roboto;-inkscape-font-specification:Roboto Light"
           d="m 289.04395,357.87097 c -10e-6,1.42383 -0.32228,2.56055 -0.9668,3.41016 -0.64454,0.84375 -1.53223,1.26562 -2.66309,1.26562 -0.66797,0 -1.25391,-0.12597 -1.75781,-0.37793 -0.49805,-0.25195 -0.90528,-0.6123 -1.22168,-1.08105 l 0,4.93066 -1.05469,0 0,-13.16601 0.8877,0 0.13183,1.47656 c 0.31641,-0.52734 0.72363,-0.93456 1.22168,-1.22168 0.50391,-0.2871 1.0957,-0.43065 1.77539,-0.43066 1.14258,10e-6 2.03613,0.45704 2.68067,1.37109 0.64452,0.90821 0.96679,2.1211 0.9668,3.63867 l 0,0.18457 m -1.05469,-0.18457 c -10e-6,-1.20702 -0.24024,-2.1914 -0.72071,-2.95312 -0.48047,-0.76171 -1.1836,-1.14257 -2.10937,-1.14258 -0.70899,10e-6 -1.28614,0.16993 -1.73145,0.50976 -0.43945,0.334 -0.77051,0.77052 -0.99316,1.30957 l 0,4.57032 c 0.24023,0.52148 0.58593,0.93164 1.03711,1.23047 0.45703,0.29882 1.02539,0.44824 1.70508,0.44824 0.91991,0 1.61718,-0.3457 2.09179,-1.03711 0.48047,-0.69141 0.7207,-1.6084 0.72071,-2.75098 l 0,-0.18457" />
        <path
           inkscape:connector-curvature="0"
           id="path4267"
           style="text-align:start;line-height:125%;writing-mode:lr-tb;text-anchor:start;fill:#3c3d3c;fill-opacity:1;font-family:Roboto;-inkscape-font-specification:Roboto Light"
           d="m 294.97656,362.54675 c -1.18945,0 -2.17969,-0.43945 -2.9707,-1.31836 -0.78516,-0.8789 -1.17774,-1.99218 -1.17774,-3.33984 l 0,-0.4834 c 0,-1.35937 0.38965,-2.4873 1.16895,-3.38379 0.78515,-0.89647 1.73437,-1.34471 2.84766,-1.34472 1.16601,10e-6 2.083,0.36915 2.75097,1.10742 0.66796,0.73829 1.00195,1.72266 1.00196,2.95312 l 0,0.89649 -6.71485,0 0,0.25488 c 0,1.07227 0.28418,1.96875 0.85254,2.68945 0.56836,0.72071 1.31543,1.08106 2.24121,1.08106 0.65625,0 1.21582,-0.0908 1.67871,-0.27246 0.46289,-0.18164 0.85839,-0.44238 1.18653,-0.78223 l 0.44824,0.7207 c -0.35743,0.375 -0.81153,0.67383 -1.36231,0.89649 -0.54492,0.21679 -1.19531,0.32519 -1.95117,0.32519 m -0.13183,-8.97363 c -0.7793,10e-6 -1.43262,0.29884 -1.95996,0.89648 -0.52735,0.59181 -0.83497,1.33595 -0.92286,2.23243 l 0.0176,0.0439 5.57227,0 0,-0.26367 c -1e-5,-0.82617 -0.24317,-1.51757 -0.72949,-2.07422 -0.48634,-0.55663 -1.14552,-0.83495 -1.97754,-0.83496" />
        <path
           inkscape:connector-curvature="0"
           id="path4269"
           style="text-align:start;line-height:125%;writing-mode:lr-tb;text-anchor:start;fill:#3c3d3c;fill-opacity:1;font-family:Roboto;-inkscape-font-specification:Roboto Light"
           d="m 302.3418,350.41785 0,2.43457 2.09179,0 0,0.86133 -2.09179,0 0,6.19628 c -10e-6,0.6211 0.11132,1.06348 0.33398,1.32715 0.22851,0.25782 0.53027,0.38672 0.90527,0.38672 0.16992,0 0.33398,-0.006 0.49219,-0.0176 0.16406,-0.0176 0.35156,-0.0439 0.5625,-0.0791 l 0.15821,0.78223 c -0.17579,0.0762 -0.38966,0.13476 -0.64161,0.17578 -0.25195,0.041 -0.50391,0.0615 -0.75586,0.0615 -0.66797,0 -1.18945,-0.21093 -1.56445,-0.63281 -0.36914,-0.42187 -0.55371,-1.08984 -0.55371,-2.00391 l 0,-6.19628 -1.64355,0 0,-0.86133 1.64355,0 0,-2.43457 1.06348,0" />
        <path
           inkscape:connector-curvature="0"
           id="path4271"
           style="text-align:start;line-height:125%;writing-mode:lr-tb;text-anchor:start;fill:#3c3d3c;fill-opacity:1;font-family:Roboto;-inkscape-font-specification:Roboto Light"
           d="m 312.68652,362.36218 c -0.0703,-0.32226 -0.12012,-0.60058 -0.14941,-0.83496 -0.0293,-0.23437 -0.0439,-0.47168 -0.0439,-0.71191 -0.35157,0.49805 -0.82031,0.91113 -1.40625,1.23926 -0.58594,0.32812 -1.24512,0.49218 -1.97754,0.49218 -0.92578,0 -1.64648,-0.24609 -2.1621,-0.73828 -0.50977,-0.49218 -0.76465,-1.15136 -0.76465,-1.97754 0,-0.8789 0.37793,-1.58202 1.13379,-2.10937 0.76171,-0.52734 1.7871,-0.79101 3.07617,-0.79102 l 2.10058,0 0,-1.17773 c 0,-0.67968 -0.21973,-1.21289 -0.65918,-1.59961 -0.4336,-0.38671 -1.04297,-0.58007 -1.82812,-0.58008 -0.73243,10e-6 -1.3418,0.18458 -1.82813,0.55371 -0.48047,0.36915 -0.7207,0.82032 -0.7207,1.35352 l -0.9668,-0.009 -0.0176,-0.0527 c -0.0352,-0.70897 0.2871,-1.34179 0.96679,-1.89843 0.68555,-0.56249 1.55566,-0.84374 2.61035,-0.84375 1.04883,1e-5 1.89258,0.26661 2.53125,0.7998 0.63867,0.53321 0.958,1.29786 0.95801,2.29395 l 0,4.67578 c -1e-5,0.33398 0.0176,0.65918 0.0527,0.97558 0.041,0.31641 0.10546,0.62989 0.19336,0.94043 l -1.09864,0 m -3.4541,-0.74707 c 0.75586,0 1.42382,-0.17578 2.00391,-0.52734 0.58007,-0.35742 0.99901,-0.81152 1.25683,-1.36231 l 0,-1.98632 -2.11816,0 c -0.95508,0 -1.71973,0.20508 -2.29395,0.61523 -0.56836,0.4043 -0.85254,0.90821 -0.85253,1.51172 -10e-6,0.51563 0.17577,0.9375 0.52734,1.26562 0.35742,0.32227 0.84961,0.4834 1.47656,0.4834" />
      </g>
    </g>
    <g
       transform="translate(-7.6201429e-6,-33.999982)"
       id="capa1">
      <g
         transform="matrix(0.76644796,0,0,0.77541132,-248.04766,696.08782)"
         id="text1418-5"
         style="font-size:29.26837158px;font-style:normal;font-variant:normal;font-weight:normal;font-stretch:normal;text-align:start;line-height:100%;writing-mode:lr-tb;text-anchor:start;fill:#ffffff;fill-opacity:0.94117647;stroke:none;font-family:Steinem Unicode">
        <path
           inkscape:connector-curvature="0"
           d="m 348.80131,457.82596 -0.64391,-1.02439 c -0.0976,-0.1561 -0.23417,-0.18537 -0.40975,-0.0878 -0.1171,0.0781 -0.2732,0.16586 -0.4683,0.26342 -0.19514,0.0976 -0.37075,0.14634 -0.52683,0.14634 -0.13661,0 -0.24393,-0.039 -0.32195,-0.11707 -0.0781,-0.0976 -0.1171,-0.32195 -0.11707,-0.67318 l 0,-6.32196 c -3e-5,-1.50244 -0.39027,-2.70244 -1.17074,-3.60001 -0.761,-0.89755 -2.04881,-1.34633 -3.86342,-1.34635 -0.97563,2e-5 -1.83417,0.21465 -2.57562,0.64391 -0.74148,0.40977 -1.30734,0.97562 -1.69757,1.69756 -0.35123,-0.74145 -0.87806,-1.31706 -1.58049,-1.72683 -0.70245,-0.40975 -1.62928,-0.61462 -2.78049,-0.61464 -0.9366,2e-5 -1.74636,0.18538 -2.42928,0.5561 -0.66342,0.35123 -1.17074,0.7805 -1.52195,1.28781 -0.11708,-0.44877 -0.34147,-0.80975 -0.67318,-1.08293 -0.33171,-0.29267 -0.81952,-0.43901 -1.46342,-0.43903 -0.44878,2e-5 -0.91707,0.10733 -1.40488,0.32196 -0.4878,0.19513 -0.94634,0.44879 -1.37561,0.76097 -0.1561,0.11709 -0.18537,0.23416 -0.0878,0.35122 l 0.58537,0.99513 c 0.039,0.0781 0.0976,0.12684 0.17561,0.14634 0.0976,0.0195 0.18537,10e-6 0.26342,-0.0585 0.13658,-0.0976 0.28292,-0.18535 0.43902,-0.26341 0.17561,-0.078 0.35122,-0.11706 0.52683,-0.11708 0.17561,2e-5 0.30244,0.0586 0.38049,0.17561 0.0976,0.11709 0.14634,0.33172 0.14634,0.64391 l 0,10.47808 c 0,0.19512 0.0976,0.29268 0.29269,0.29268 l 2.19513,0 c 0.19511,0 0.29267,-0.0976 0.29268,-0.29268 l 0,-6.40978 c -10e-6,-0.66341 0.0488,-1.29755 0.14634,-1.90244 0.11707,-0.60487 0.30243,-1.1317 0.5561,-1.58049 0.27317,-0.46829 0.63414,-0.83902 1.08293,-1.1122 0.44877,-0.27316 1.00487,-0.40975 1.6683,-0.40976 0.46828,10e-6 0.84877,0.0878 1.14146,0.26342 0.31219,0.17562 0.55609,0.41952 0.73171,0.73171 0.1756,0.3122 0.29268,0.69269 0.35122,1.14146 0.078,0.42928 0.11707,0.89757 0.11708,1.40488 l 0,7.8732 c -10e-6,0.19512 0.0975,0.29268 0.29268,0.29268 l 2.28293,0 c 0.19511,0 0.29267,-0.0976 0.29269,-0.29268 l 0,-6.40978 c -2e-5,-0.66341 0.0488,-1.29755 0.14634,-1.90244 0.11706,-0.60487 0.30242,-1.1317 0.5561,-1.58049 0.27315,-0.46829 0.62437,-0.83902 1.05366,-1.1122 0.44876,-0.27316 1.00486,-0.40975 1.6683,-0.40976 0.89754,10e-6 1.51218,0.2927 1.8439,0.87805 0.3512,0.56587 0.52681,1.31709 0.52683,2.25367 l 0,6.00001 c -2e-5,0.85854 0.17559,1.53172 0.52684,2.01952 0.37071,0.48781 1.00485,0.73171 1.90244,0.73171 0.48778,0 0.97559,-0.0976 1.46342,-0.29268 0.50729,-0.21464 0.96583,-0.48781 1.37561,-0.81952 l 0.0878,-0.35122"
           id="path4154"
           style="line-height:100%;fill:#ffffff;fill-opacity:1;font-family:Steinem Unicode" />
        <path
           inkscape:connector-curvature="0"
           d="m 361.98854,453.31863 c 0.19511,1e-5 0.29267,-0.0976 0.29268,-0.29268 l 0,-0.93659 c -1e-5,-2.28292 -0.51709,-4.01951 -1.55122,-5.20977 -1.03416,-1.20975 -2.52685,-1.81462 -4.47806,-1.81464 -0.99514,2e-5 -1.90245,0.17563 -2.72196,0.52683 -0.80001,0.35124 -1.48294,0.8488 -2.04879,1.49269 -0.54634,0.6244 -0.97561,1.37562 -1.28781,2.25366 -0.29268,0.87806 -0.43902,1.85367 -0.43902,2.92684 0,0.99513 0.13658,1.93172 0.40975,2.80976 0.29269,0.87806 0.7122,1.63904 1.25854,2.28294 0.56586,0.6439 1.2683,1.16098 2.10733,1.55122 0.85853,0.37073 1.85365,0.5561 2.98537,0.5561 1.20975,0 2.15609,-0.0976 2.83903,-0.29268 0.68292,-0.19513 1.26829,-0.40976 1.75611,-0.64391 0.0975,-0.039 0.14632,-0.12683 0.14634,-0.26341 l 0,-1.81464 c -2e-5,-0.11707 -0.0488,-0.20488 -0.14634,-0.26342 -0.0781,-0.0585 -0.16587,-0.0585 -0.26342,0 -0.46831,0.25366 -1.03416,0.48781 -1.69757,0.70244 -0.66342,0.19513 -1.44391,0.29269 -2.34146,0.29269 -0.68294,0 -1.27806,-0.11707 -1.78538,-0.35122 -0.48781,-0.23415 -0.89756,-0.53659 -1.22927,-0.90732 -0.33171,-0.37073 -0.59513,-0.78049 -0.79024,-1.22927 -0.17562,-0.46829 -0.29269,-0.92683 -0.35122,-1.37562 l 9.33661,0 m -5.82441,-6.08782 c 1.07317,10e-6 1.86341,0.35123 2.37074,1.05366 0.50731,0.68294 0.79023,1.63904 0.84878,2.8683 l -6.70246,0 c 0.1561,-1.22926 0.50732,-2.18536 1.05367,-2.8683 0.56585,-0.70243 1.3756,-1.05365 2.42927,-1.05366"
           id="path4156"
           style="line-height:100%;fill:#ffffff;fill-opacity:1;font-family:Steinem Unicode" />
        <path
           inkscape:connector-curvature="0"
           d="m 380.04712,457.82596 -0.61463,-1.02439 c -0.039,-0.0781 -0.10734,-0.11707 -0.20488,-0.11708 -0.0781,-0.0195 -0.15612,-0.01 -0.23415,0.0293 -0.11709,0.0781 -0.27319,0.16586 -0.46829,0.26342 -0.17563,0.0976 -0.34148,0.14634 -0.49757,0.14634 -0.1366,0 -0.24391,-0.039 -0.32195,-0.11707 -0.0781,-0.078 -0.11709,-0.25366 -0.11707,-0.52683 l 0,-0.14635 -0.0293,-6.2927 c -10e-6,-1.50243 -0.41953,-2.70243 -1.25854,-3.60001 -0.81953,-0.91706 -2.12685,-1.37559 -3.92196,-1.37561 -0.95611,2e-5 -1.78538,0.19514 -2.48781,0.58537 -0.68294,0.39026 -1.22928,0.85855 -1.63903,1.40488 -0.11708,-0.46828 -0.34147,-0.85853 -0.67317,-1.17073 -0.33172,-0.3317 -0.83903,-0.49755 -1.52196,-0.49757 -0.44878,2e-5 -0.90732,0.10733 -1.37561,0.32196 -0.4683,0.19513 -0.91708,0.44879 -1.34635,0.76097 -0.1561,0.11709 -0.18536,0.23416 -0.0878,0.35122 l 0.58536,0.99513 c 0.039,0.0781 0.0976,0.12684 0.17561,0.14634 0.0976,0.0195 0.17561,10e-6 0.23415,-0.0585 0.13659,-0.0976 0.29268,-0.18535 0.4683,-0.26341 0.1756,-0.078 0.34146,-0.11706 0.49756,-0.11708 0.17561,2e-5 0.30244,0.0586 0.38049,0.17561 0.0976,0.11709 0.14634,0.33172 0.14634,0.64391 l 0,10.47808 c 0,0.19512 0.0878,0.29268 0.26341,0.29268 l 2.19513,0 c 0.17561,0 0.26341,-0.0976 0.26342,-0.29268 l 0,-6.40978 c -10e-6,-0.66341 0.0683,-1.29755 0.20488,-1.90244 0.13658,-0.60487 0.35121,-1.1317 0.6439,-1.58049 0.31219,-0.46829 0.70243,-0.83902 1.17073,-1.1122 0.46829,-0.27316 1.03415,-0.40975 1.69757,-0.40976 0.91707,10e-6 1.57073,0.2927 1.96098,0.87805 0.40975,0.56587 0.61463,1.3366 0.61464,2.3122 l 0,5.94148 c -1e-5,0.85854 0.1756,1.53172 0.52683,2.01952 0.35121,0.48781 0.9756,0.73171 1.87317,0.73171 0.4878,0 0.9756,-0.0976 1.46342,-0.29268 0.48779,-0.21464 0.93657,-0.48781 1.34635,-0.81952 l 0.0878,-0.35122"
           id="path4158"
           style="line-height:100%;fill:#ffffff;fill-opacity:1;font-family:Steinem Unicode" />
        <path
           inkscape:connector-curvature="0"
           d="m 393.20051,453.31863 c 0.19511,1e-5 0.29267,-0.0976 0.29269,-0.29268 l 0,-0.93659 c -2e-5,-2.28292 -0.51709,-4.01951 -1.55123,-5.20977 -1.03416,-1.20975 -2.52684,-1.81462 -4.47806,-1.81464 -0.99513,2e-5 -1.90245,0.17563 -2.72196,0.52683 -0.8,0.35124 -1.48293,0.8488 -2.04878,1.49269 -0.54635,0.6244 -0.97562,1.37562 -1.28781,2.25366 -0.29269,0.87806 -0.43903,1.85367 -0.43903,2.92684 0,0.99513 0.13659,1.93172 0.40976,2.80976 0.29268,0.87806 0.71219,1.63904 1.25854,2.28294 0.56585,0.6439 1.26829,1.16098 2.10732,1.55122 0.85854,0.37073 1.85366,0.5561 2.98538,0.5561 1.20975,0 2.15609,-0.0976 2.83903,-0.29268 0.68292,-0.19513 1.26828,-0.40976 1.7561,-0.64391 0.0976,-0.039 0.14633,-0.12683 0.14634,-0.26341 l 0,-1.81464 c -10e-6,-0.11707 -0.0488,-0.20488 -0.14634,-0.26342 -0.0781,-0.0585 -0.16587,-0.0585 -0.26341,0 -0.46831,0.25366 -1.03416,0.48781 -1.69757,0.70244 -0.66343,0.19513 -1.44392,0.29269 -2.34147,0.29269 -0.68294,0 -1.27806,-0.11707 -1.78537,-0.35122 -0.48781,-0.23415 -0.89757,-0.53659 -1.22927,-0.90732 -0.33172,-0.37073 -0.59513,-0.78049 -0.79025,-1.22927 -0.17561,-0.46829 -0.29269,-0.92683 -0.35122,-1.37562 l 9.33661,0 m -5.8244,-6.08782 c 1.07316,10e-6 1.86341,0.35123 2.37073,1.05366 0.50731,0.68294 0.79024,1.63904 0.84879,2.8683 l -6.70246,0 c 0.15609,-1.22926 0.50731,-2.18536 1.05366,-2.8683 0.56585,-0.70243 1.37561,-1.05365 2.42928,-1.05366 m 4.09757,-7.99026 c 0.078,-0.0976 0.0878,-0.18535 0.0293,-0.26342 -0.039,-0.0975 -0.11709,-0.14632 -0.23415,-0.14634 l -2.2244,0 c -0.0976,2e-5 -0.16586,0.039 -0.20488,0.11707 l -3.80488,5.06343 c -0.0781,0.0976 -0.0976,0.19514 -0.0585,0.29268 0.0585,0.0976 0.14634,0.14636 0.26342,0.14635 l 1.90244,0 c 0.039,1e-5 0.078,-0.01 0.11707,-0.0293 0.0585,-0.0195 0.0878,-0.0488 0.0878,-0.0878 l 4.12684,-5.09269"
           id="path4160"
           style="line-height:100%;fill:#ffffff;fill-opacity:1;font-family:Steinem Unicode" />
        <path
           inkscape:connector-curvature="0"
           d="m 409.98409,457.65035 -0.61463,-1.02439 c -0.0976,-0.13659 -0.23416,-0.1561 -0.40976,-0.0585 -0.11709,0.0585 -0.27318,0.13659 -0.46829,0.23415 -0.17563,0.0976 -0.34148,0.14634 -0.49756,0.14634 -0.15612,0 -0.27319,-0.0488 -0.35123,-0.14634 -0.0585,-0.0976 -0.0878,-0.3122 -0.0878,-0.64391 l 0,-5.8244 c -1e-5,-1.65853 -0.44879,-2.94634 -1.34635,-3.86343 -0.87806,-0.93657 -2.29269,-1.40486 -4.24391,-1.40488 -0.81952,2e-5 -1.60001,0.0878 -2.34147,0.26342 -0.74147,0.17562 -1.40488,0.42928 -1.99025,0.76097 -0.1561,0.0781 -0.19512,0.2049 -0.11707,0.38049 l 0.58537,1.43415 c 0.039,0.0781 0.0976,0.12684 0.17561,0.14635 0.078,0.0195 0.14633,0.01 0.20487,-0.0293 0.54634,-0.27316 1.07317,-0.45853 1.5805,-0.5561 0.52682,-0.11706 1.0439,-0.1756 1.55122,-0.17561 1.05365,1e-5 1.8439,0.23416 2.37074,0.70244 0.54633,0.4683 0.8195,1.14147 0.81951,2.01952 l 0,0.87805 c -0.39025,-0.3317 -0.90733,-0.61463 -1.55122,-0.84879 -0.64391,-0.25365 -1.36587,-0.38048 -2.16586,-0.38048 -0.83903,0 -1.59025,0.12683 -2.25367,0.38048 -0.66341,0.23416 -1.22927,0.57562 -1.69756,1.0244 -0.44878,0.42927 -0.8,0.94635 -1.05366,1.55122 -0.23415,0.58537 -0.35122,1.22928 -0.35122,1.93171 0,1.52196 0.44878,2.72196 1.34634,3.60001 0.89756,0.87805 2.17561,1.31708 3.83416,1.31708 0.99512,0 1.83414,-0.17561 2.51708,-0.52683 0.68292,-0.35122 1.19999,-0.73171 1.55122,-1.14147 0.13658,0.42927 0.37073,0.76098 0.70244,0.99513 0.3317,0.21463 0.80975,0.32195 1.43415,0.32195 0.4878,0 0.9756,-0.0976 1.46342,-0.29268 0.48779,-0.19513 0.92682,-0.45854 1.31708,-0.79025 l 0.0878,-0.38049 m -5.15123,-3.16098 c -10e-6,0.85854 -0.33172,1.54147 -0.99512,2.04878 -0.64392,0.50732 -1.43416,0.76098 -2.37074,0.76098 -0.99513,0 -1.7366,-0.25366 -2.2244,-0.76098 -0.48781,-0.50731 -0.73171,-1.17073 -0.73171,-1.99025 0,-0.79999 0.23415,-1.45365 0.70244,-1.96098 0.46829,-0.52682 1.19025,-0.79024 2.16586,-0.79024 1.13171,0 1.99024,0.26342 2.57562,0.79024 0.58536,0.52684 0.87804,1.16099 0.87805,1.90245"
           id="path4162"
           style="line-height:100%;fill:#ffffff;fill-opacity:1;font-family:Steinem Unicode" />
        <path
           inkscape:connector-curvature="0"
           d="m 435.40596,457.82596 -0.6439,-1.02439 c -0.0976,-0.1561 -0.23418,-0.18537 -0.40976,-0.0878 -0.1171,0.0781 -0.2732,0.16586 -0.4683,0.26342 -0.19514,0.0976 -0.37075,0.14634 -0.52683,0.14634 -0.13661,0 -0.24392,-0.039 -0.32195,-0.11707 -0.0781,-0.0976 -0.1171,-0.32195 -0.11707,-0.67318 l 0,-6.32196 c -3e-5,-1.50244 -0.39027,-2.70244 -1.17074,-3.60001 -0.761,-0.89755 -2.0488,-1.34633 -3.86342,-1.34635 -0.97563,2e-5 -1.83417,0.21465 -2.57562,0.64391 -0.74148,0.40977 -1.30733,0.97562 -1.69756,1.69756 -0.35124,-0.74145 -0.87807,-1.31706 -1.5805,-1.72683 -0.70245,-0.40975 -1.62928,-0.61462 -2.78049,-0.61464 -0.9366,2e-5 -1.74636,0.18538 -2.42928,0.5561 -0.66342,0.35123 -1.17074,0.7805 -1.52195,1.28781 -0.11708,-0.44877 -0.34147,-0.80975 -0.67317,-1.08293 -0.33172,-0.29267 -0.81952,-0.43901 -1.46342,-0.43903 -0.44879,2e-5 -0.91708,0.10733 -1.40489,0.32196 -0.4878,0.19513 -0.94634,0.44879 -1.37561,0.76097 -0.1561,0.11709 -0.18536,0.23416 -0.0878,0.35122 l 0.58536,0.99513 c 0.039,0.0781 0.0976,0.12684 0.17561,0.14634 0.0976,0.0195 0.18537,10e-6 0.26342,-0.0585 0.13658,-0.0976 0.28293,-0.18535 0.43902,-0.26341 0.17561,-0.078 0.35122,-0.11706 0.52684,-0.11708 0.1756,2e-5 0.30243,0.0586 0.38048,0.17561 0.0976,0.11709 0.14634,0.33172 0.14635,0.64391 l 0,10.47808 c -1e-5,0.19512 0.0975,0.29268 0.29268,0.29268 l 2.19513,0 c 0.19511,0 0.29268,-0.0976 0.29268,-0.29268 l 0,-6.40978 c 0,-0.66341 0.0488,-1.29755 0.14634,-1.90244 0.11707,-0.60487 0.30244,-1.1317 0.5561,-1.58049 0.27317,-0.46829 0.63414,-0.83902 1.08293,-1.1122 0.44878,-0.27316 1.00487,-0.40975 1.6683,-0.40976 0.46828,10e-6 0.84877,0.0878 1.14147,0.26342 0.31218,0.17562 0.55608,0.41952 0.73171,0.73171 0.17559,0.3122 0.29267,0.69269 0.35122,1.14146 0.078,0.42928 0.11706,0.89757 0.11707,1.40488 l 0,7.8732 c -1e-5,0.19512 0.0976,0.29268 0.29268,0.29268 l 2.28294,0 c 0.1951,0 0.29267,-0.0976 0.29268,-0.29268 l 0,-6.40978 c -10e-6,-0.66341 0.0488,-1.29755 0.14634,-1.90244 0.11706,-0.60487 0.30243,-1.1317 0.5561,-1.58049 0.27316,-0.46829 0.62438,-0.83902 1.05366,-1.1122 0.44877,-0.27316 1.00487,-0.40975 1.6683,-0.40976 0.89754,10e-6 1.51218,0.2927 1.84391,0.87805 0.3512,0.56587 0.52681,1.31709 0.52683,2.25367 l 0,6.00001 c -2e-5,0.85854 0.17559,1.53172 0.52683,2.01952 0.37071,0.48781 1.00486,0.73171 1.90244,0.73171 0.48779,0 0.97559,-0.0976 1.46342,-0.29268 0.50729,-0.21464 0.96583,-0.48781 1.37561,-0.81952 l 0.0878,-0.35122"
           id="path4164"
           style="line-height:100%;fill:#ffffff;fill-opacity:1;font-family:Steinem Unicode" />
        <path
           inkscape:connector-curvature="0"
           d="m 448.59319,453.31863 c 0.19511,1e-5 0.29267,-0.0976 0.29269,-0.29268 l 0,-0.93659 c -2e-5,-2.28292 -0.51709,-4.01951 -1.55123,-5.20977 -1.03416,-1.20975 -2.52684,-1.81462 -4.47806,-1.81464 -0.99513,2e-5 -1.90245,0.17563 -2.72196,0.52683 -0.8,0.35124 -1.48293,0.8488 -2.04878,1.49269 -0.54635,0.6244 -0.97562,1.37562 -1.28781,2.25366 -0.29269,0.87806 -0.43903,1.85367 -0.43903,2.92684 0,0.99513 0.13659,1.93172 0.40976,2.80976 0.29268,0.87806 0.7122,1.63904 1.25854,2.28294 0.56585,0.6439 1.26829,1.16098 2.10732,1.55122 0.85854,0.37073 1.85366,0.5561 2.98538,0.5561 1.20975,0 2.15609,-0.0976 2.83903,-0.29268 0.68292,-0.19513 1.26828,-0.40976 1.7561,-0.64391 0.0975,-0.039 0.14633,-0.12683 0.14634,-0.26341 l 0,-1.81464 c -10e-6,-0.11707 -0.0488,-0.20488 -0.14634,-0.26342 -0.0781,-0.0585 -0.16586,-0.0585 -0.26341,0 -0.46831,0.25366 -1.03416,0.48781 -1.69757,0.70244 -0.66343,0.19513 -1.44391,0.29269 -2.34147,0.29269 -0.68293,0 -1.27806,-0.11707 -1.78537,-0.35122 -0.48781,-0.23415 -0.89757,-0.53659 -1.22927,-0.90732 -0.33171,-0.37073 -0.59513,-0.78049 -0.79025,-1.22927 -0.17561,-0.46829 -0.29268,-0.92683 -0.35122,-1.37562 l 9.33661,0 m -5.8244,-6.08782 c 1.07316,10e-6 1.86341,0.35123 2.37074,1.05366 0.5073,0.68294 0.79023,1.63904 0.84878,2.8683 l -6.70246,0 c 0.15609,-1.22926 0.50731,-2.18536 1.05366,-2.8683 0.56585,-0.70243 1.37561,-1.05365 2.42928,-1.05366"
           id="path4166"
           style="line-height:100%;fill:#ffffff;fill-opacity:1;font-family:Steinem Unicode" />
      </g>
    </g>
  </g>
</svg>
