<?xml version="1.0" encoding="UTF-8" standalone="no"?>
<!-- Created with Inkscape (http://www.inkscape.org/) -->

<svg
   xmlns:dc="http://purl.org/dc/elements/1.1/"
   xmlns:cc="http://creativecommons.org/ns#"
   xmlns:rdf="http://www.w3.org/1999/02/22-rdf-syntax-ns#"
   xmlns:svg="http://www.w3.org/2000/svg"
   xmlns="http://www.w3.org/2000/svg"
   version="1.1"
   width="96"
   height="16"
   id="svg3346">
  <defs
     id="defs3348" />
  <g
     transform="translate(-7.6201429e-6,-1036.3622)"
     id="capa1">
    <g
       transform="matrix(0.76644796,0,0,0.77541132,-248.04766,696.08782)"
       id="text1418-5"
       style="font-size:29.26837158px;font-style:normal;font-variant:normal;font-weight:normal;font-stretch:normal;text-align:start;line-height:100%;writing-mode:lr-tb;text-anchor:start;fill:#ffffff;fill-opacity:0.94117647;stroke:none;font-family:Steinem Unicode">
      <path
         d="m 348.80131,457.82596 -0.64391,-1.02439 c -0.0976,-0.1561 -0.23417,-0.18537 -0.40975,-0.0878 -0.1171,0.0781 -0.2732,0.16586 -0.4683,0.26342 -0.19514,0.0976 -0.37075,0.14634 -0.52683,0.14634 -0.13661,0 -0.24393,-0.039 -0.32195,-0.11707 -0.0781,-0.0976 -0.1171,-0.32195 -0.11707,-0.67318 l 0,-6.32196 c -3e-5,-1.50244 -0.39027,-2.70244 -1.17074,-3.60001 -0.761,-0.89755 -2.04881,-1.34633 -3.86342,-1.34635 -0.97563,2e-5 -1.83417,0.21465 -2.57562,0.64391 -0.74148,0.40977 -1.30734,0.97562 -1.69757,1.69756 -0.35123,-0.74145 -0.87806,-1.31706 -1.58049,-1.72683 -0.70245,-0.40975 -1.62928,-0.61462 -2.78049,-0.61464 -0.9366,2e-5 -1.74636,0.18538 -2.42928,0.5561 -0.66342,0.35123 -1.17074,0.7805 -1.52195,1.28781 -0.11708,-0.44877 -0.34147,-0.80975 -0.67318,-1.08293 -0.33171,-0.29267 -0.81952,-0.43901 -1.46342,-0.43903 -0.44878,2e-5 -0.91707,0.10733 -1.40488,0.32196 -0.4878,0.19513 -0.94634,0.44879 -1.37561,0.76097 -0.1561,0.11709 -0.18537,0.23416 -0.0878,0.35122 l 0.58537,0.99513 c 0.039,0.0781 0.0976,0.12684 0.17561,0.14634 0.0976,0.0195 0.18537,10e-6 0.26342,-0.0585 0.13658,-0.0976 0.28292,-0.18535 0.43902,-0.26341 0.17561,-0.078 0.35122,-0.11706 0.52683,-0.11708 0.17561,2e-5 0.30244,0.0586 0.38049,0.17561 0.0976,0.11709 0.14634,0.33172 0.14634,0.64391 l 0,10.47808 c 0,0.19512 0.0976,0.29268 0.29269,0.29268 l 2.19513,0 c 0.19511,0 0.29267,-0.0976 0.29268,-0.29268 l 0,-6.40978 c -10e-6,-0.66341 0.0488,-1.29755 0.14634,-1.90244 0.11707,-0.60487 0.30243,-1.1317 0.5561,-1.58049 0.27317,-0.46829 0.63414,-0.83902 1.08293,-1.1122 0.44877,-0.27316 1.00487,-0.40975 1.6683,-0.40976 0.46828,10e-6 0.84877,0.0878 1.14146,0.26342 0.31219,0.17562 0.55609,0.41952 0.73171,0.73171 0.1756,0.3122 0.29268,0.69269 0.35122,1.14146 0.078,0.42928 0.11707,0.89757 0.11708,1.40488 l 0,7.8732 c -10e-6,0.19512 0.0975,0.29268 0.29268,0.29268 l 2.28293,0 c 0.19511,0 0.29267,-0.0976 0.29269,-0.29268 l 0,-6.40978 c -2e-5,-0.66341 0.0488,-1.29755 0.14634,-1.90244 0.11706,-0.60487 0.30242,-1.1317 0.5561,-1.58049 0.27315,-0.46829 0.62437,-0.83902 1.05366,-1.1122 0.44876,-0.27316 1.00486,-0.40975 1.6683,-0.40976 0.89754,10e-6 1.51218,0.2927 1.8439,0.87805 0.3512,0.56587 0.52681,1.31709 0.52683,2.25367 l 0,6.00001 c -2e-5,0.85854 0.17559,1.53172 0.52684,2.01952 0.37071,0.48781 1.00485,0.73171 1.90244,0.73171 0.48778,0 0.97559,-0.0976 1.46342,-0.29268 0.50729,-0.21464 0.96583,-0.48781 1.37561,-0.81952 l 0.0878,-0.35122"
         id="path4154"
         style="line-height:100%;fill:#ffffff;fill-opacity:1;font-family:Steinem Unicode" />
      <path
         d="m 361.98854,453.31863 c 0.19511,1e-5 0.29267,-0.0976 0.29268,-0.29268 l 0,-0.93659 c -1e-5,-2.28292 -0.51709,-4.01951 -1.55122,-5.20977 -1.03416,-1.20975 -2.52685,-1.81462 -4.47806,-1.81464 -0.99514,2e-5 -1.90245,0.17563 -2.72196,0.52683 -0.80001,0.35124 -1.48294,0.8488 -2.04879,1.49269 -0.54634,0.6244 -0.97561,1.37562 -1.28781,2.25366 -0.29268,0.87806 -0.43902,1.85367 -0.43902,2.92684 0,0.99513 0.13658,1.93172 0.40975,2.80976 0.29269,0.87806 0.7122,1.63904 1.25854,2.28294 0.56586,0.6439 1.2683,1.16098 2.10733,1.55122 0.85853,0.37073 1.85365,0.5561 2.98537,0.5561 1.20975,0 2.15609,-0.0976 2.83903,-0.29268 0.68292,-0.19513 1.26829,-0.40976 1.75611,-0.64391 0.0975,-0.039 0.14632,-0.12683 0.14634,-0.26341 l 0,-1.81464 c -2e-5,-0.11707 -0.0488,-0.20488 -0.14634,-0.26342 -0.0781,-0.0585 -0.16587,-0.0585 -0.26342,0 -0.46831,0.25366 -1.03416,0.48781 -1.69757,0.70244 -0.66342,0.19513 -1.44391,0.29269 -2.34146,0.29269 -0.68294,0 -1.27806,-0.11707 -1.78538,-0.35122 -0.48781,-0.23415 -0.89756,-0.53659 -1.22927,-0.90732 -0.33171,-0.37073 -0.59513,-0.78049 -0.79024,-1.22927 -0.17562,-0.46829 -0.29269,-0.92683 -0.35122,-1.37562 l 9.33661,0 m -5.82441,-6.08782 c 1.07317,10e-6 1.86341,0.35123 2.37074,1.05366 0.50731,0.68294 0.79023,1.63904 0.84878,2.8683 l -6.70246,0 c 0.1561,-1.22926 0.50732,-2.18536 1.05367,-2.8683 0.56585,-0.70243 1.3756,-1.05365 2.42927,-1.05366"
         id="path4156"
         style="line-height:100%;fill:#ffffff;fill-opacity:1;font-family:Steinem Unicode" />
      <path
         d="m 380.04712,457.82596 -0.61463,-1.02439 c -0.039,-0.0781 -0.10734,-0.11707 -0.20488,-0.11708 -0.0781,-0.0195 -0.15612,-0.01 -0.23415,0.0293 -0.11709,0.0781 -0.27319,0.16586 -0.46829,0.26342 -0.17563,0.0976 -0.34148,0.14634 -0.49757,0.14634 -0.1366,0 -0.24391,-0.039 -0.32195,-0.11707 -0.0781,-0.078 -0.11709,-0.25366 -0.11707,-0.52683 l 0,-0.14635 -0.0293,-6.2927 c -10e-6,-1.50243 -0.41953,-2.70243 -1.25854,-3.60001 -0.81953,-0.91706 -2.12685,-1.37559 -3.92196,-1.37561 -0.95611,2e-5 -1.78538,0.19514 -2.48781,0.58537 -0.68294,0.39026 -1.22928,0.85855 -1.63903,1.40488 -0.11708,-0.46828 -0.34147,-0.85853 -0.67317,-1.17073 -0.33172,-0.3317 -0.83903,-0.49755 -1.52196,-0.49757 -0.44878,2e-5 -0.90732,0.10733 -1.37561,0.32196 -0.4683,0.19513 -0.91708,0.44879 -1.34635,0.76097 -0.1561,0.11709 -0.18536,0.23416 -0.0878,0.35122 l 0.58536,0.99513 c 0.039,0.0781 0.0976,0.12684 0.17561,0.14634 0.0976,0.0195 0.17561,10e-6 0.23415,-0.0585 0.13659,-0.0976 0.29268,-0.18535 0.4683,-0.26341 0.1756,-0.078 0.34146,-0.11706 0.49756,-0.11708 0.17561,2e-5 0.30244,0.0586 0.38049,0.17561 0.0976,0.11709 0.14634,0.33172 0.14634,0.64391 l 0,10.47808 c 0,0.19512 0.0878,0.29268 0.26341,0.29268 l 2.19513,0 c 0.17561,0 0.26341,-0.0976 0.26342,-0.29268 l 0,-6.40978 c -10e-6,-0.66341 0.0683,-1.29755 0.20488,-1.90244 0.13658,-0.60487 0.35121,-1.1317 0.6439,-1.58049 0.31219,-0.46829 0.70243,-0.83902 1.17073,-1.1122 0.46829,-0.27316 1.03415,-0.40975 1.69757,-0.40976 0.91707,10e-6 1.57073,0.2927 1.96098,0.87805 0.40975,0.56587 0.61463,1.3366 0.61464,2.3122 l 0,5.94148 c -1e-5,0.85854 0.1756,1.53172 0.52683,2.01952 0.35121,0.48781 0.9756,0.73171 1.87317,0.73171 0.4878,0 0.9756,-0.0976 1.46342,-0.29268 0.48779,-0.21464 0.93657,-0.48781 1.34635,-0.81952 l 0.0878,-0.35122"
         id="path4158"
         style="line-height:100%;fill:#ffffff;fill-opacity:1;font-family:Steinem Unicode" />
      <path
         d="m 393.20051,453.31863 c 0.19511,1e-5 0.29267,-0.0976 0.29269,-0.29268 l 0,-0.93659 c -2e-5,-2.28292 -0.51709,-4.01951 -1.55123,-5.20977 -1.03416,-1.20975 -2.52684,-1.81462 -4.47806,-1.81464 -0.99513,2e-5 -1.90245,0.17563 -2.72196,0.52683 -0.8,0.35124 -1.48293,0.8488 -2.04878,1.49269 -0.54635,0.6244 -0.97562,1.37562 -1.28781,2.25366 -0.29269,0.87806 -0.43903,1.85367 -0.43903,2.92684 0,0.99513 0.13659,1.93172 0.40976,2.80976 0.29268,0.87806 0.71219,1.63904 1.25854,2.28294 0.56585,0.6439 1.26829,1.16098 2.10732,1.55122 0.85854,0.37073 1.85366,0.5561 2.98538,0.5561 1.20975,0 2.15609,-0.0976 2.83903,-0.29268 0.68292,-0.19513 1.26828,-0.40976 1.7561,-0.64391 0.0976,-0.039 0.14633,-0.12683 0.14634,-0.26341 l 0,-1.81464 c -10e-6,-0.11707 -0.0488,-0.20488 -0.14634,-0.26342 -0.0781,-0.0585 -0.16587,-0.0585 -0.26341,0 -0.46831,0.25366 -1.03416,0.48781 -1.69757,0.70244 -0.66343,0.19513 -1.44392,0.29269 -2.34147,0.29269 -0.68294,0 -1.27806,-0.11707 -1.78537,-0.35122 -0.48781,-0.23415 -0.89757,-0.53659 -1.22927,-0.90732 -0.33172,-0.37073 -0.59513,-0.78049 -0.79025,-1.22927 -0.17561,-0.46829 -0.29269,-0.92683 -0.35122,-1.37562 l 9.33661,0 m -5.8244,-6.08782 c 1.07316,10e-6 1.86341,0.35123 2.37073,1.05366 0.50731,0.68294 0.79024,1.63904 0.84879,2.8683 l -6.70246,0 c 0.15609,-1.22926 0.50731,-2.18536 1.05366,-2.8683 0.56585,-0.70243 1.37561,-1.05365 2.42928,-1.05366 m 4.09757,-7.99026 c 0.078,-0.0976 0.0878,-0.18535 0.0293,-0.26342 -0.039,-0.0975 -0.11709,-0.14632 -0.23415,-0.14634 l -2.2244,0 c -0.0976,2e-5 -0.16586,0.039 -0.20488,0.11707 l -3.80488,5.06343 c -0.0781,0.0976 -0.0976,0.19514 -0.0585,0.29268 0.0585,0.0976 0.14634,0.14636 0.26342,0.14635 l 1.90244,0 c 0.039,1e-5 0.078,-0.01 0.11707,-0.0293 0.0585,-0.0195 0.0878,-0.0488 0.0878,-0.0878 l 4.12684,-5.09269"
         id="path4160"
         style="line-height:100%;fill:#ffffff;fill-opacity:1;font-family:Steinem Unicode" />
      <path
         d="m 409.98409,457.65035 -0.61463,-1.02439 c -0.0976,-0.13659 -0.23416,-0.1561 -0.40976,-0.0585 -0.11709,0.0585 -0.27318,0.13659 -0.46829,0.23415 -0.17563,0.0976 -0.34148,0.14634 -0.49756,0.14634 -0.15612,0 -0.27319,-0.0488 -0.35123,-0.14634 -0.0585,-0.0976 -0.0878,-0.3122 -0.0878,-0.64391 l 0,-5.8244 c -1e-5,-1.65853 -0.44879,-2.94634 -1.34635,-3.86343 -0.87806,-0.93657 -2.29269,-1.40486 -4.24391,-1.40488 -0.81952,2e-5 -1.60001,0.0878 -2.34147,0.26342 -0.74147,0.17562 -1.40488,0.42928 -1.99025,0.76097 -0.1561,0.0781 -0.19512,0.2049 -0.11707,0.38049 l 0.58537,1.43415 c 0.039,0.0781 0.0976,0.12684 0.17561,0.14635 0.078,0.0195 0.14633,0.01 0.20487,-0.0293 0.54634,-0.27316 1.07317,-0.45853 1.5805,-0.5561 0.52682,-0.11706 1.0439,-0.1756 1.55122,-0.17561 1.05365,1e-5 1.8439,0.23416 2.37074,0.70244 0.54633,0.4683 0.8195,1.14147 0.81951,2.01952 l 0,0.87805 c -0.39025,-0.3317 -0.90733,-0.61463 -1.55122,-0.84879 -0.64391,-0.25365 -1.36587,-0.38048 -2.16586,-0.38048 -0.83903,0 -1.59025,0.12683 -2.25367,0.38048 -0.66341,0.23416 -1.22927,0.57562 -1.69756,1.0244 -0.44878,0.42927 -0.8,0.94635 -1.05366,1.55122 -0.23415,0.58537 -0.35122,1.22928 -0.35122,1.93171 0,1.52196 0.44878,2.72196 1.34634,3.60001 0.89756,0.87805 2.17561,1.31708 3.83416,1.31708 0.99512,0 1.83414,-0.17561 2.51708,-0.52683 0.68292,-0.35122 1.19999,-0.73171 1.55122,-1.14147 0.13658,0.42927 0.37073,0.76098 0.70244,0.99513 0.3317,0.21463 0.80975,0.32195 1.43415,0.32195 0.4878,0 0.9756,-0.0976 1.46342,-0.29268 0.48779,-0.19513 0.92682,-0.45854 1.31708,-0.79025 l 0.0878,-0.38049 m -5.15123,-3.16098 c -10e-6,0.85854 -0.33172,1.54147 -0.99512,2.04878 -0.64392,0.50732 -1.43416,0.76098 -2.37074,0.76098 -0.99513,0 -1.7366,-0.25366 -2.2244,-0.76098 -0.48781,-0.50731 -0.73171,-1.17073 -0.73171,-1.99025 0,-0.79999 0.23415,-1.45365 0.70244,-1.96098 0.46829,-0.52682 1.19025,-0.79024 2.16586,-0.79024 1.13171,0 1.99024,0.26342 2.57562,0.79024 0.58536,0.52684 0.87804,1.16099 0.87805,1.90245"
         id="path4162"
         style="line-height:100%;fill:#ffffff;fill-opacity:1;font-family:Steinem Unicode" />
      <path
         d="m 435.40596,457.82596 -0.6439,-1.02439 c -0.0976,-0.1561 -0.23418,-0.18537 -0.40976,-0.0878 -0.1171,0.0781 -0.2732,0.16586 -0.4683,0.26342 -0.19514,0.0976 -0.37075,0.14634 -0.52683,0.14634 -0.13661,0 -0.24392,-0.039 -0.32195,-0.11707 -0.0781,-0.0976 -0.1171,-0.32195 -0.11707,-0.67318 l 0,-6.32196 c -3e-5,-1.50244 -0.39027,-2.70244 -1.17074,-3.60001 -0.761,-0.89755 -2.0488,-1.34633 -3.86342,-1.34635 -0.97563,2e-5 -1.83417,0.21465 -2.57562,0.64391 -0.74148,0.40977 -1.30733,0.97562 -1.69756,1.69756 -0.35124,-0.74145 -0.87807,-1.31706 -1.5805,-1.72683 -0.70245,-0.40975 -1.62928,-0.61462 -2.78049,-0.61464 -0.9366,2e-5 -1.74636,0.18538 -2.42928,0.5561 -0.66342,0.35123 -1.17074,0.7805 -1.52195,1.28781 -0.11708,-0.44877 -0.34147,-0.80975 -0.67317,-1.08293 -0.33172,-0.29267 -0.81952,-0.43901 -1.46342,-0.43903 -0.44879,2e-5 -0.91708,0.10733 -1.40489,0.32196 -0.4878,0.19513 -0.94634,0.44879 -1.37561,0.76097 -0.1561,0.11709 -0.18536,0.23416 -0.0878,0.35122 l 0.58536,0.99513 c 0.039,0.0781 0.0976,0.12684 0.17561,0.14634 0.0976,0.0195 0.18537,10e-6 0.26342,-0.0585 0.13658,-0.0976 0.28293,-0.18535 0.43902,-0.26341 0.17561,-0.078 0.35122,-0.11706 0.52684,-0.11708 0.1756,2e-5 0.30243,0.0586 0.38048,0.17561 0.0976,0.11709 0.14634,0.33172 0.14635,0.64391 l 0,10.47808 c -1e-5,0.19512 0.0975,0.29268 0.29268,0.29268 l 2.19513,0 c 0.19511,0 0.29268,-0.0976 0.29268,-0.29268 l 0,-6.40978 c 0,-0.66341 0.0488,-1.29755 0.14634,-1.90244 0.11707,-0.60487 0.30244,-1.1317 0.5561,-1.58049 0.27317,-0.46829 0.63414,-0.83902 1.08293,-1.1122 0.44878,-0.27316 1.00487,-0.40975 1.6683,-0.40976 0.46828,10e-6 0.84877,0.0878 1.14147,0.26342 0.31218,0.17562 0.55608,0.41952 0.73171,0.73171 0.17559,0.3122 0.29267,0.69269 0.35122,1.14146 0.078,0.42928 0.11706,0.89757 0.11707,1.40488 l 0,7.8732 c -1e-5,0.19512 0.0976,0.29268 0.29268,0.29268 l 2.28294,0 c 0.1951,0 0.29267,-0.0976 0.29268,-0.29268 l 0,-6.40978 c -10e-6,-0.66341 0.0488,-1.29755 0.14634,-1.90244 0.11706,-0.60487 0.30243,-1.1317 0.5561,-1.58049 0.27316,-0.46829 0.62438,-0.83902 1.05366,-1.1122 0.44877,-0.27316 1.00487,-0.40975 1.6683,-0.40976 0.89754,10e-6 1.51218,0.2927 1.84391,0.87805 0.3512,0.56587 0.52681,1.31709 0.52683,2.25367 l 0,6.00001 c -2e-5,0.85854 0.17559,1.53172 0.52683,2.01952 0.37071,0.48781 1.00486,0.73171 1.90244,0.73171 0.48779,0 0.97559,-0.0976 1.46342,-0.29268 0.50729,-0.21464 0.96583,-0.48781 1.37561,-0.81952 l 0.0878,-0.35122"
         id="path4164"
         style="line-height:100%;fill:#ffffff;fill-opacity:1;font-family:Steinem Unicode" />
      <path
         d="m 448.59319,453.31863 c 0.19511,1e-5 0.29267,-0.0976 0.29269,-0.29268 l 0,-0.93659 c -2e-5,-2.28292 -0.51709,-4.01951 -1.55123,-5.20977 -1.03416,-1.20975 -2.52684,-1.81462 -4.47806,-1.81464 -0.99513,2e-5 -1.90245,0.17563 -2.72196,0.52683 -0.8,0.35124 -1.48293,0.8488 -2.04878,1.49269 -0.54635,0.6244 -0.97562,1.37562 -1.28781,2.25366 -0.29269,0.87806 -0.43903,1.85367 -0.43903,2.92684 0,0.99513 0.13659,1.93172 0.40976,2.80976 0.29268,0.87806 0.7122,1.63904 1.25854,2.28294 0.56585,0.6439 1.26829,1.16098 2.10732,1.55122 0.85854,0.37073 1.85366,0.5561 2.98538,0.5561 1.20975,0 2.15609,-0.0976 2.83903,-0.29268 0.68292,-0.19513 1.26828,-0.40976 1.7561,-0.64391 0.0975,-0.039 0.14633,-0.12683 0.14634,-0.26341 l 0,-1.81464 c -10e-6,-0.11707 -0.0488,-0.20488 -0.14634,-0.26342 -0.0781,-0.0585 -0.16586,-0.0585 -0.26341,0 -0.46831,0.25366 -1.03416,0.48781 -1.69757,0.70244 -0.66343,0.19513 -1.44391,0.29269 -2.34147,0.29269 -0.68293,0 -1.27806,-0.11707 -1.78537,-0.35122 -0.48781,-0.23415 -0.89757,-0.53659 -1.22927,-0.90732 -0.33171,-0.37073 -0.59513,-0.78049 -0.79025,-1.22927 -0.17561,-0.46829 -0.29268,-0.92683 -0.35122,-1.37562 l 9.33661,0 m -5.8244,-6.08782 c 1.07316,10e-6 1.86341,0.35123 2.37074,1.05366 0.5073,0.68294 0.79023,1.63904 0.84878,2.8683 l -6.70246,0 c 0.15609,-1.22926 0.50731,-2.18536 1.05366,-2.8683 0.56585,-0.70243 1.37561,-1.05365 2.42928,-1.05366"
         id="path4166"
         style="line-height:100%;fill:#ffffff;fill-opacity:1;font-family:Steinem Unicode" />
    </g>
  </g>
</svg>
