<?xml version="1.0" encoding="UTF-8" standalone="no"?>
<!-- Generator: Adobe Illustrator 16.0.0, SVG Export Plug-In . SVG Version: 6.00 Build 0)  -->

<svg
   xmlns:dc="http://purl.org/dc/elements/1.1/"
   xmlns:cc="http://creativecommons.org/ns#"
   xmlns:rdf="http://www.w3.org/1999/02/22-rdf-syntax-ns#"
   xmlns:svg="http://www.w3.org/2000/svg"
   xmlns="http://www.w3.org/2000/svg"
   xmlns:sodipodi="http://sodipodi.sourceforge.net/DTD/sodipodi-0.dtd"
   xmlns:inkscape="http://www.inkscape.org/namespaces/inkscape"
   version="1.1"
   id="Layer_2"
   x="0px"
   y="0px"
   width="50px"
   height="50px"
   viewBox="0 0 50 50"
   enable-background="new 0 0 50 50"
   xml:space="preserve"
   inkscape:version="0.48.4 r9939"
   sodipodi:docname="upload.svg"><metadata
     id="metadata9"><rdf:RDF><cc:Work
         rdf:about=""><dc:format>image/svg+xml</dc:format><dc:type
           rdf:resource="http://purl.org/dc/dcmitype/StillImage" /><dc:title></dc:title></cc:Work></rdf:RDF></metadata><defs
     id="defs7" /><sodipodi:namedview
     pagecolor="#ffffff"
     bordercolor="#666666"
     borderopacity="1"
     objecttolerance="10"
     gridtolerance="10"
     guidetolerance="10"
     inkscape:pageopacity="0"
     inkscape:pageshadow="2"
     inkscape:window-width="882"
     inkscape:window-height="632"
     id="namedview5"
     showgrid="false"
     inkscape:zoom="4.72"
     inkscape:cx="25"
     inkscape:cy="25"
     inkscape:window-x="421"
     inkscape:window-y="80"
     inkscape:window-maximized="0"
     inkscape:current-layer="Layer_2" /><g
     id="g3754"
     inkscape:export-filename="/home/gallir/Downloads/upload.png"
     inkscape:export-xdpi="52.242584"
     inkscape:export-ydpi="52.242584"
     transform="matrix(1.01,0,0,1,-0.24999944,0)"><path
       inkscape:export-ydpi="113.06788"
       inkscape:export-xdpi="113.06788"
       inkscape:export-filename="/home/gallir/Downloads/upload-2x.png"
       style="fill:#ff6400;fill-opacity:1"
       id="path3"
       d="M 48.295803,15.936 C 47.792741,15.345 47.030718,15 46.226244,15 h -2.65328 c 0,-1.381 -1.187608,-2.5 -2.65328,-2.5 h -2.65328 V 10 c 0,-1.381 -1.187608,-2.5 -2.65328,-2.5 H 3.7737627 C 2.3080907,7.5 1.1204826,8.619 1.1204826,10 v 30 c 0,1.381 1.1876081,2.5 2.6532801,2.5 H 9.0803229 21.666422 v -8.919 h -3.316601 c -0.535962,0 -1.01992,-0.306 -1.225815,-0.771 -0.204833,-0.468 -0.09127,-1.006 0.287617,-1.362 l 9.28648,-8.749 c 0.516859,-0.488 1.356356,-0.488 1.876399,0 l 9.28648,8.75 c 0.378889,0.357 0.49245,0.895 0.287616,1.361 -0.204832,0.467 -0.688791,0.771 -1.225816,0.771 h -3.3166 V 42.5 h 2.006942 5.30656 c 1.243858,0 2.322151,-0.814 2.589602,-1.958 l 5.30656,-22.5 c 0.175117,-0.74 -0.01592,-1.515 -0.520043,-2.106 z M 35.613124,12.5 h -2.65328 c -1.465673,0 -2.65328,1.119 -2.65328,2.5 H 14.386883 c -1.243858,0 -2.32109,0.814 -2.589601,1.958 l -5.3065605,22.5 C 6.448269,39.639 6.4291654,39.82 6.4291654,40 H 3.7737627 V 10 H 35.613124 v 2.5 z"
       inkscape:connector-curvature="0" /></g></svg>