<?xml version="1.0" encoding="UTF-8" standalone="no"?>
<!-- Created with Inkscape (http://www.inkscape.org/) -->

<svg
   xmlns:dc="http://purl.org/dc/elements/1.1/"
   xmlns:cc="http://creativecommons.org/ns#"
   xmlns:rdf="http://www.w3.org/1999/02/22-rdf-syntax-ns#"
   xmlns:svg="http://www.w3.org/2000/svg"
   xmlns="http://www.w3.org/2000/svg"
   version="1.1"
   width="20"
   height="20"
   id="svg3272">
  <defs
     id="defs3274" />
  <metadata
     id="metadata3277">
    <rdf:RDF>
      <cc:Work
         rdf:about="">
        <dc:format>image/svg+xml</dc:format>
        <dc:type
           rdf:resource="http://purl.org/dc/dcmitype/StillImage" />
        <dc:title></dc:title>
      </cc:Work>
    </rdf:RDF>
  </metadata>
  <g
     transform="translate(-6.2921768,0.04992567)"
     id="layer1">
    <g
       transform="translate(0.01092677,0.01257433)"
       id="g3289">
      <path
         d="M 14.436796,13.11625 V 6.5577409 c 0,-0.9897241 0.799071,-1.7886626 1.788758,-1.7886626 l 0,0 c 0.98984,0 1.788758,0.7989385 1.788758,1.7886626 l 0,0 V 13.11625 c 0,0.989738 -0.798918,1.788707 -1.788758,1.788707 l 0,0 c -0.989687,0 -1.788758,-0.810877 -1.788758,-1.788707 l 0,0 z"
         id="path7229-7-7-2"
         style="fill:#ffffff;fill-opacity:1" />
      <path
         d="m 26.008878,9.9249255 c 0,5.3784775 -4.360127,9.7385545 -9.738555,9.7385545 -5.378581,0 -9.7385541,-4.360077 -9.7385541,-9.7385545 0,-5.3784629 4.3599731,-9.73855433 9.7385541,-9.73855433 5.378582,0 9.738555,4.36009143 9.738555,9.73855433 z M 16.270323,2.2365853 c -4.246128,0 -7.6882592,3.4421544 -7.6882592,7.6883402 0,4.2461855 3.4421312,7.6883385 7.6882592,7.6883385 4.246128,0 7.68826,-3.442153 7.68826,-7.6883385 0,-4.2461858 -3.442132,-7.6883402 -7.68826,-7.6883402 z"
         id="path6786-0-8-4-0"
         style="fill:#ffffff;fill-opacity:1;stroke:#ffffff;stroke-width:0.52289134;stroke-miterlimit:4;stroke-opacity:1;stroke-dasharray:none" />
    </g>
  </g>
</svg>
