<?xml version="1.0" encoding="UTF-8" standalone="no"?>
<!-- Created with Inkscape (http://www.inkscape.org/) -->

<svg
   xmlns:dc="http://purl.org/dc/elements/1.1/"
   xmlns:cc="http://creativecommons.org/ns#"
   xmlns:rdf="http://www.w3.org/1999/02/22-rdf-syntax-ns#"
   xmlns:svg="http://www.w3.org/2000/svg"
   xmlns="http://www.w3.org/2000/svg"
   version="1.1"
   width="14.18"
   height="14.2"
   id="svg3352">
  <defs
     id="defs3354" />
  <metadata
     id="metadata3357">
    <rdf:RDF>
      <cc:Work
         rdf:about="">
        <dc:format>image/svg+xml</dc:format>
        <dc:type
           rdf:resource="http://purl.org/dc/dcmitype/StillImage" />
        <dc:title></dc:title>
      </cc:Work>
    </rdf:RDF>
  </metadata>
  <g
     transform="translate(-10.065061,-1.025515)"
     id="layer1">
    <g
       transform="matrix(1.7489665,0,0,1.7231167,-7.2808323,-10.131923)"
       id="g3369">
      <path
         d="m 16.492888,10.009264 c 0,1.74832 -1.41738,3.1656 -3.16562,3.1656 -1.7483,0 -3.16561,-1.41728 -3.16561,-3.1656 0,-1.7483199 1.41731,-3.16559 3.16561,-3.16559 1.74824,0 3.16562,1.4172701 3.16562,3.16559 z m -3.16562,-2.49915 c -1.38031,0 -2.49921,1.1189001 -2.49921,2.49915 0,1.38025 1.1189,2.49915 2.49921,2.49915 1.38025,0 2.49915,-1.1189 2.49915,-2.49915 0,-1.3802499 -1.1189,-2.49915 -2.49915,-2.49915 z"
         id="path6786-7-3-0"
         style="fill:#3c3c3c;fill-opacity:1;stroke:#3c3c3c;stroke-width:0.46746475;stroke-miterlimit:4;stroke-opacity:1;stroke-dasharray:none" />
      <rect
         width="3.2596946"
         height="0.66643375"
         x="-22.414642"
         y="1.9518518"
         transform="matrix(-0.70710678,-0.70710678,0.70710678,-0.70710678,0,0)"
         id="rect6788-5-7-9"
         style="fill:#3c3c3c;fill-opacity:1;stroke:#3c3c3c;stroke-width:0.46746475;stroke-miterlimit:4;stroke-opacity:1;stroke-dasharray:none" />
    </g>
  </g>
</svg>
