<?xml version="1.0" encoding="UTF-8" standalone="no"?>
<svg
   xmlns:dc="http://purl.org/dc/elements/1.1/"
   xmlns:cc="http://creativecommons.org/ns#"
   xmlns:rdf="http://www.w3.org/1999/02/22-rdf-syntax-ns#"
   xmlns:svg="http://www.w3.org/2000/svg"
   xmlns="http://www.w3.org/2000/svg"
   version="1.1"
   id="svg15405"
   viewBox="0 0 160.72792 29.7546"
   height="8.3974094mm"
   width="45.360992mm">
  <defs
     id="defs15407" />
  <metadata
     id="metadata15410">
    <rdf:RDF>
      <cc:Work
         rdf:about="">
        <dc:format>image/svg+xml</dc:format>
        <dc:type
           rdf:resource="http://purl.org/dc/dcmitype/StillImage" />
        <dc:title></dc:title>
      </cc:Work>
    </rdf:RDF>
  </metadata>
  <g
     transform="translate(-659.51077,-740.3427)"
     id="layer1">
    <g
       style="fill:#ff6400;fill-opacity:1;stroke:#ff6400;stroke-width:0.5;stroke-miterlimit:4;stroke-dasharray:none;stroke-opacity:1"
       id="g16030">
      <path
         style="fill:#ff6400;fill-opacity:1;stroke:#ff6400;stroke-width:0.5;stroke-miterlimit:4;stroke-dasharray:none;stroke-opacity:1"
         id="path2073-4"
         d="m 689.73055,747.08827 c -2.31147,2.34434 -6.48523,2.27677 -8.03744,5.44307 -1.3242,3.75503 1.79428,9.75453 3.09617,13.17788 0.88188,1.76744 -6.88874,3.47152 -5.93832,3.90907 5.48358,-0.062 7.82194,-2.06315 7.16397,-4.51873 -0.6296,-2.34973 -3.47185,-7.03963 -3.47185,-10.78703 0.0796,-2.83044 3.24554,-3.69957 5.28462,-4.85302 2.3693,-1.06224 4.58551,-3.43218 3.97288,-6.21209 -0.0262,-0.98054 -1.73385,-4.2451 -1.03671,-1.71458 0.38029,1.86815 0.56307,4.1739 -1.03332,5.55543 z" />
      <path
         style="fill:#ff6400;fill-opacity:1;stroke:#ff6400;stroke-width:0.5;stroke-miterlimit:4;stroke-dasharray:none;stroke-opacity:1"
         id="path2075-4"
         d="m 682.5993,742.86938 c -2.98412,-1.53939 -6.29962,-2.47164 -9.77063,-1.65992 -1.86488,0.34464 -4.06138,1.36333 -5.3108,3.06949 -1.63834,1.95657 -1.70211,4.8025 -0.62751,7.03982 0.83515,1.72392 2.10458,3.64177 4.16146,3.92927 1.7689,0.26533 3.7125,0.0257 5.21525,-0.99592 -1.7867,0.30722 -3.85644,0.94235 -5.46105,-0.25181 -2.68913,-1.71992 -3.99684,-5.62304 -2.36415,-8.47201 1.31145,-2.48395 3.95329,-3.18372 6.74845,-3.3067 3.72735,-0.164 7.29966,1.96258 8.67039,2.48057 1.32071,0.41585 3.21475,0.94251 4.15451,-0.45965 0.54924,-0.65139 0.32973,-2.44615 -0.11696,-2.61264 0.12912,1.25733 -0.79297,2.83875 -2.22828,2.42632 -1.07208,-0.2531 -2.05828,-0.76724 -3.07068,-1.18682 z" />
      <path
         style="fill:#ff6400;fill-opacity:1;stroke:#ff6400;stroke-width:0.5;stroke-miterlimit:4;stroke-dasharray:none;stroke-opacity:1"
         id="path2077-3"
         d="m 662.5971,753.98642 c -1.72866,2.72455 -3.3078,5.91557 -2.7049,9.23628 0.55425,3.47172 3.913,5.92046 7.25269,6.35637 3.42915,0.39922 6.8509,0.29802 10.28845,0.0506 0.57964,-0.56046 -2.80514,-0.54533 -4.23079,-0.75065 -3.25194,-0.36819 -6.77999,-0.43562 -9.56815,-2.36681 -2.59758,-1.94359 -2.93805,-5.75606 -1.69264,-8.5663 1.0444,-2.65163 2.60312,-5.21464 4.24288,-7.42994 -1.27859,1.06196 -2.45992,1.85412 -3.58754,3.47047 z" />
      <path
         style="fill:#ff6400;fill-opacity:1;stroke:#ff6400;stroke-width:0.5;stroke-miterlimit:4;stroke-dasharray:none;stroke-opacity:1"
         id="path2079-0"
         d="m 671.13685,762.55686 c 2.02559,0.15651 5.38717,-0.0491 6.96619,1.05463 0.565,0.85002 -0.48647,5.55457 -0.12419,6.09774 0.80674,0.23736 1.72948,-5.51236 1.21862,-6.94107 -0.38676,-1.09077 -7.25411,-0.51073 -8.06062,-0.2113 z" />
    </g>
    <g
       id="g16036">
      <path
         id="path7346-8"
         style="font-style:normal;font-variant:normal;font-weight:normal;font-stretch:normal;font-size:131.00004578px;line-height:100%;font-family:'Steinem Unicode';text-align:start;writing-mode:lr-tb;text-anchor:start;fill:#ff6400;fill-opacity:1;stroke:none"
         d="m 721.16493,763.3414 -0.6374,-1.01404 c -0.0967,-0.15445 -0.23182,-0.1835 -0.40563,-0.0869 -0.11594,0.0774 -0.27041,0.16416 -0.46354,0.26073 -0.19318,0.0967 -0.36703,0.14484 -0.52152,0.14484 -0.13517,0 -0.24145,-0.0386 -0.31869,-0.11588 -0.0775,-0.0966 -0.11594,-0.31871 -0.11594,-0.66638 l 0,-6.25813 c -4e-5,-1.48724 -0.38635,-2.67511 -1.15891,-3.56365 -0.75332,-0.88848 -2.02813,-1.33272 -3.82442,-1.33274 -0.96578,2e-5 -1.81564,0.21248 -2.54961,0.6374 -0.73399,0.40564 -1.29412,0.96578 -1.68041,1.68042 -0.3477,-0.73397 -0.8692,-1.30375 -1.56453,-1.70939 -0.69536,-0.40561 -1.61282,-0.60841 -2.75241,-0.60843 -0.92713,2e-5 -1.72873,0.18352 -2.40473,0.5505 -0.65674,0.34766 -1.15893,0.77262 -1.5066,1.27478 -0.11594,-0.44424 -0.33801,-0.80154 -0.66637,-1.07199 -0.32836,-0.2897 -0.81123,-0.43457 -1.44865,-0.43458 -0.44424,10e-6 -0.9078,0.10626 -1.39069,0.31869 -0.48287,0.19318 -0.93678,0.44427 -1.36172,0.75329 -0.1544,0.11588 -0.18343,0.2318 -0.0869,0.34768 l 0.57949,0.98507 c 0.0386,0.0774 0.0967,0.12561 0.17381,0.14483 0.0967,0.0192 0.18343,2e-5 0.26078,-0.0578 0.13516,-0.0966 0.28006,-0.18348 0.43459,-0.26077 0.17381,-0.0774 0.34766,-0.11588 0.52151,-0.11588 0.17382,3e-5 0.29937,0.0581 0.37664,0.17385 0.0967,0.11588 0.14478,0.32836 0.14478,0.63741 l 0,10.37224 c 0,0.19317 0.0967,0.28974 0.28972,0.28974 l 2.17296,0 c 0.19314,0 0.28972,-0.0966 0.28972,-0.28974 l 0,-6.34503 c 0,-0.65671 0.0483,-1.28447 0.14478,-1.88323 0.11594,-0.59877 0.29938,-1.12028 0.55049,-1.56454 0.27041,-0.46353 0.62774,-0.83052 1.072,-1.10096 0.44425,-0.2704 0.99472,-0.40559 1.65142,-0.40561 0.46356,2e-5 0.8402,0.0868 1.12996,0.26075 0.30903,0.17384 0.55047,0.4153 0.7243,0.72431 0.17381,0.30905 0.28973,0.68571 0.34768,1.12995 0.0771,0.42494 0.11594,0.8885 0.11594,1.3907 l 0,7.79366 c 0,0.19317 0.0967,0.28974 0.28972,0.28974 l 2.25987,0 c 0.19316,0 0.28971,-0.0966 0.28973,-0.28974 l 0,-6.34503 c -2e-5,-0.65671 0.0483,-1.28447 0.14478,-1.88323 0.11594,-0.59877 0.29937,-1.12028 0.55049,-1.56454 0.27039,-0.46353 0.61808,-0.83052 1.04302,-1.10096 0.44422,-0.2704 0.99473,-0.40559 1.65145,-0.40561 0.88848,2e-5 1.4969,0.28973 1.8253,0.86918 0.34763,0.56016 0.52146,1.30378 0.5215,2.2309 l 0,5.93943 c -4e-5,0.84986 0.17381,1.51622 0.52151,1.99912 0.36695,0.48286 0.99472,0.7243 1.88324,0.7243 0.48285,0 0.96572,-0.0967 1.44863,-0.28971 0.50215,-0.21247 0.95606,-0.48287 1.36172,-0.81125 l 0.0867,-0.34768" />
      <path
         id="path7348-6"
         style="font-style:normal;font-variant:normal;font-weight:normal;font-stretch:normal;font-size:131.00004578px;line-height:100%;font-family:'Steinem Unicode';text-align:start;writing-mode:lr-tb;text-anchor:start;fill:#ff6400;fill-opacity:1;stroke:none"
         d="m 734.21899,758.87959 c 0.19313,0 0.28969,-0.0966 0.28971,-0.28973 l 0,-0.92712 c -2e-5,-2.25987 -0.51188,-3.97891 -1.53555,-5.15715 -1.02371,-1.19754 -2.50131,-1.79631 -4.43282,-1.79632 -0.98508,1e-5 -1.88326,0.17387 -2.69449,0.52151 -0.79192,0.34769 -1.46795,0.84023 -2.02809,1.4776 -0.54082,0.6181 -0.96578,1.36173 -1.27479,2.23092 -0.28974,0.86918 -0.43459,1.83495 -0.43459,2.89727 0,0.98508 0.13516,1.91221 0.40561,2.78139 0.28971,0.86919 0.705,1.6225 1.24582,2.25989 0.56014,0.63739 1.25551,1.14924 2.08604,1.53555 0.84988,0.36698 1.83494,0.55049 2.95523,0.55049 1.19753,0 2.13432,-0.0966 2.81036,-0.28975 0.67602,-0.19315 1.25547,-0.4056 1.73838,-0.6374 0.0967,-0.0386 0.14478,-0.12561 0.14478,-0.26075 l 0,-1.79631 c 0,-0.11588 -0.0483,-0.2028 -0.14478,-0.26077 -0.0775,-0.0578 -0.1642,-0.0578 -0.26078,0 -0.46356,0.25111 -1.02371,0.4829 -1.68041,0.69536 -0.65672,0.19315 -1.42932,0.28974 -2.3178,0.28974 -0.67607,0 -1.26518,-0.11588 -1.76736,-0.34768 -0.48288,-0.23179 -0.8885,-0.53117 -1.21686,-0.89816 -0.32836,-0.36698 -0.58912,-0.7726 -0.78225,-1.21686 -0.17382,-0.46356 -0.28974,-0.91748 -0.34769,-1.36172 l 9.24233,0 m -5.76561,-6.02632 c 1.06234,0 1.84461,0.34766 2.34682,1.04301 0.50217,0.67603 0.78226,1.62248 0.84021,2.83933 l -6.63477,0 c 0.15439,-1.21685 0.50219,-2.1633 1.04301,-2.83933 0.56016,-0.69535 1.36172,-1.04301 2.40473,-1.04301" />
      <path
         id="path7350-8"
         style="font-style:normal;font-variant:normal;font-weight:normal;font-stretch:normal;font-size:131.00004578px;line-height:100%;font-family:'Steinem Unicode';text-align:start;writing-mode:lr-tb;text-anchor:start;fill:#ff6400;fill-opacity:1;stroke:none"
         d="m 752.0952,763.3414 -0.60846,-1.01404 c -0.0386,-0.0774 -0.10633,-0.11588 -0.20279,-0.11588 -0.0775,-0.0192 -0.15439,-0.0102 -0.23178,0.029 -0.11594,0.0774 -0.27043,0.16416 -0.46357,0.26073 -0.17381,0.0967 -0.33805,0.14484 -0.49252,0.14484 -0.13516,0 -0.24147,-0.0386 -0.31871,-0.11588 -0.0775,-0.0773 -0.11594,-0.25109 -0.11594,-0.52153 l 0,-0.14484 -0.029,-6.22914 c 0,-1.48724 -0.4153,-2.67513 -1.24584,-3.56363 -0.81125,-0.90782 -2.10536,-1.36172 -3.88235,-1.36173 -0.94645,10e-6 -1.76733,0.19317 -2.46266,0.57947 -0.67607,0.38631 -1.21688,0.84987 -1.6225,1.39069 -0.11594,-0.46356 -0.33801,-0.84986 -0.66637,-1.15893 -0.32836,-0.32834 -0.83053,-0.49251 -1.50656,-0.49254 -0.44426,3e-5 -0.89817,0.10627 -1.36174,0.31871 -0.46356,0.19317 -0.90781,0.44426 -1.33274,0.75329 -0.1544,0.11589 -0.18343,0.23179 -0.0867,0.34767 l 0.57947,0.98507 c 0.0387,0.0774 0.0967,0.12561 0.17381,0.14483 0.0967,0.0192 0.17381,3e-5 0.23178,-0.0578 0.13517,-0.0966 0.28972,-0.18348 0.46357,-0.26075 0.17381,-0.0772 0.33801,-0.11589 0.49254,-0.11589 0.17381,0 0.29938,0.0578 0.37664,0.17384 0.0967,0.11588 0.14478,0.32836 0.14478,0.6374 l 0,10.37225 c 0,0.19316 0.0867,0.28972 0.26074,0.28972 l 2.17297,0 c 0.17381,0 0.26073,-0.0967 0.26073,-0.28972 l 0,-6.34503 c 0,-0.65671 0.0675,-1.28445 0.20283,-1.88323 0.13517,-0.59876 0.34768,-1.12028 0.6374,-1.56454 0.30903,-0.46355 0.69535,-0.83054 1.15891,-1.10098 0.46357,-0.27039 1.02369,-0.40559 1.68043,-0.4056 0.90779,10e-6 1.55485,0.28973 1.94117,0.86917 0.40561,0.56017 0.60842,1.3231 0.60842,2.28886 l 0,5.88147 c 0,0.84986 0.17381,1.51625 0.52151,1.99912 0.34765,0.48289 0.96574,0.72432 1.85426,0.72432 0.48287,0 0.96574,-0.0966 1.44865,-0.28973 0.48285,-0.21247 0.92711,-0.48287 1.33274,-0.81124 l 0.0867,-0.34766" />
      <path
         id="path7352-8"
         style="font-style:normal;font-variant:normal;font-weight:normal;font-stretch:normal;font-size:131.00004578px;line-height:100%;font-family:'Steinem Unicode';text-align:start;writing-mode:lr-tb;text-anchor:start;fill:#ff6400;fill-opacity:1;stroke:none"
         d="m 765.11574,758.87959 c 0.19314,0 0.28972,-0.0966 0.28974,-0.28973 l 0,-0.92712 c -2e-5,-2.25987 -0.51189,-3.97891 -1.53556,-5.15715 -1.02374,-1.19754 -2.50134,-1.79631 -4.43284,-1.79632 -0.98508,1e-5 -1.88325,0.17387 -2.69448,0.52151 -0.79191,0.34769 -1.46795,0.84023 -2.0281,1.4776 -0.54083,0.6181 -0.96575,1.36173 -1.27481,2.23092 -0.28971,0.86918 -0.43459,1.83495 -0.43459,2.89727 0,0.98508 0.13517,1.91221 0.40563,2.78139 0.28974,0.86919 0.705,1.6225 1.24582,2.25989 0.56015,0.63739 1.25549,1.14924 2.08605,1.53555 0.84985,0.36698 1.83495,0.55049 2.95524,0.55049 1.19754,0 2.1343,-0.0966 2.81034,-0.28975 0.67603,-0.19315 1.25549,-0.4056 1.73836,-0.6374 0.0967,-0.0386 0.14478,-0.12561 0.14478,-0.26075 l 0,-1.79631 c -2e-5,-0.11588 -0.0483,-0.2028 -0.14478,-0.26077 -0.0775,-0.0578 -0.1642,-0.0578 -0.26075,0 -0.46357,0.25111 -1.02369,0.4829 -1.68041,0.69536 -0.65672,0.19315 -1.42934,0.28974 -2.31783,0.28974 -0.67602,0 -1.26514,-0.11588 -1.76733,-0.34768 -0.48289,-0.23179 -0.88851,-0.53117 -1.21687,-0.89816 -0.32838,-0.36698 -0.58911,-0.7726 -0.78227,-1.21686 -0.17381,-0.46356 -0.28971,-0.91748 -0.34768,-1.36172 l 9.24234,0 m -5.76559,-6.02632 c 1.06236,0 1.84459,0.34766 2.34681,1.04301 0.50217,0.67603 0.78223,1.62248 0.84022,2.83933 l -6.63479,0 c 0.1544,-1.21685 0.50218,-2.1633 1.04303,-2.83933 0.56013,-0.69535 1.3617,-1.04301 2.40473,-1.04301 m 4.05621,-7.90958 c 0.0773,-0.0966 0.0869,-0.18348 0.029,-0.26076 -0.0387,-0.0966 -0.11594,-0.14483 -0.2318,-0.14483 l -2.20191,0 c -0.0967,10e-6 -0.16419,0.0386 -0.20282,0.11584 l -3.76645,5.01227 c -0.0775,0.0967 -0.0967,0.19317 -0.0579,0.28974 0.0579,0.0966 0.14478,0.14484 0.26076,0.14484 l 1.88324,0 c 0.0386,2e-5 0.0771,-0.009 0.11594,-0.029 0.0581,-0.0192 0.0869,-0.0482 0.0869,-0.0869 l 4.08516,-5.04125" />
      <path
         id="path7354-4"
         style="font-style:normal;font-variant:normal;font-weight:normal;font-stretch:normal;font-size:131.00004578px;line-height:100%;font-family:'Steinem Unicode';text-align:start;writing-mode:lr-tb;text-anchor:start;fill:#ff6400;fill-opacity:1;stroke:none"
         d="m 781.72981,763.16757 -0.60842,-1.01406 c -0.0967,-0.13522 -0.2318,-0.15445 -0.40562,-0.0581 -0.11594,0.0581 -0.27043,0.13522 -0.46356,0.23179 -0.17381,0.0967 -0.33803,0.14484 -0.49254,0.14484 -0.1544,10e-6 -0.27043,-0.0483 -0.34767,-0.14484 -0.0581,-0.0966 -0.0867,-0.30904 -0.0867,-0.63739 l 0,-5.76559 c -4e-5,-1.64177 -0.44426,-2.91658 -1.33275,-3.82441 -0.86921,-0.92711 -2.26956,-1.39069 -4.20108,-1.39069 -0.81122,0 -1.58385,0.0869 -2.31782,0.26075 -0.73397,0.17386 -1.3907,0.42494 -1.97012,0.7533 -0.1544,0.0774 -0.19316,0.20282 -0.11594,0.37664 l 0.57944,1.41967 c 0.0387,0.0774 0.0967,0.12549 0.17382,0.14483 0.0775,0.0192 0.14478,0.009 0.2028,-0.029 0.54082,-0.27038 1.06234,-0.45388 1.56451,-0.55047 0.52154,-0.11588 1.03338,-0.17383 1.53557,-0.17383 1.04302,0 1.82529,0.23179 2.3468,0.69535 0.54082,0.46357 0.81123,1.12994 0.81125,1.99911 l 0,0.86919 c -0.38633,-0.32835 -0.89815,-0.60842 -1.53557,-0.84021 -0.6374,-0.25109 -1.35207,-0.37664 -2.14397,-0.37666 -0.83055,2e-5 -1.5742,0.12561 -2.23092,0.37666 -0.65672,0.23179 -1.21684,0.5698 -1.68041,1.01404 -0.44426,0.42495 -0.79193,0.93679 -1.04303,1.53555 -0.23176,0.57948 -0.34767,1.21687 -0.34767,1.91222 0,1.50659 0.44425,2.69446 1.33275,3.56364 0.88848,0.86918 2.15363,1.30379 3.79543,1.30379 0.98508,0 1.81561,-0.17383 2.49167,-0.52151 0.67603,-0.34768 1.18785,-0.72433 1.53555,-1.12996 0.13517,0.42495 0.36697,0.75331 0.69533,0.9851 0.32834,0.21247 0.80158,0.31869 1.41967,0.31869 0.48289,0 0.96576,-0.0966 1.44863,-0.28972 0.48289,-0.19316 0.91748,-0.45392 1.30379,-0.78228 l 0.0867,-0.37664 m -5.09921,-3.12907 c 0,0.84989 -0.32836,1.52591 -0.98508,2.02811 -0.6374,0.5022 -1.41965,0.75328 -2.3468,0.75328 -0.98506,0 -1.71904,-0.25108 -2.20191,-0.75328 -0.48289,-0.5022 -0.72434,-1.15892 -0.72434,-1.97015 0,-0.79192 0.2318,-1.43898 0.69535,-1.94119 0.46356,-0.52147 1.17823,-0.78225 2.14399,-0.78225 1.12027,0 1.97014,0.26078 2.54961,0.78225 0.57944,0.52153 0.86918,1.14927 0.86918,1.88323" />
      <path
         id="path7356-3"
         style="font-style:normal;font-variant:normal;font-weight:normal;font-stretch:normal;font-size:131.00004578px;line-height:100%;font-family:'Steinem Unicode';text-align:start;writing-mode:lr-tb;text-anchor:start;fill:#ff6400;fill-opacity:1;stroke:none"
         d="m 806.89491,763.3414 -0.63738,-1.01404 c -0.0967,-0.15445 -0.23182,-0.1835 -0.40561,-0.0869 -0.11594,0.0774 -0.27045,0.16416 -0.46359,0.26073 -0.19317,0.0967 -0.367,0.14484 -0.52151,0.14484 -0.13517,0 -0.24147,-0.0386 -0.31869,-0.11588 -0.0775,-0.0966 -0.11594,-0.31871 -0.11594,-0.66638 l 0,-6.25813 c -2e-5,-1.48724 -0.38633,-2.67511 -1.15889,-3.56365 -0.75332,-0.88848 -2.02813,-1.33272 -3.82442,-1.33274 -0.9658,2e-5 -1.81566,0.21248 -2.54961,0.6374 -0.734,0.40564 -1.29414,0.96578 -1.68043,1.68042 -0.34768,-0.73397 -0.86918,-1.30375 -1.56453,-1.70939 -0.69534,-0.40561 -1.61282,-0.60841 -2.75241,-0.60843 -0.92713,2e-5 -1.72871,0.18352 -2.40473,0.5505 -0.65672,0.34766 -1.15892,0.77262 -1.50658,1.27478 -0.11594,-0.44424 -0.33801,-0.80154 -0.66637,-1.07199 -0.32836,-0.2897 -0.81127,-0.43457 -1.44865,-0.43458 -0.44424,10e-6 -0.90782,0.10626 -1.39069,0.31869 -0.48287,0.19318 -0.93678,0.44427 -1.36172,0.75329 -0.1544,0.11588 -0.18343,0.2318 -0.0869,0.34768 l 0.57949,0.98507 c 0.0386,0.0774 0.0967,0.12561 0.17381,0.14483 0.0967,0.0192 0.18343,2e-5 0.26076,-0.0578 0.13516,-0.0966 0.28008,-0.18348 0.43461,-0.26077 0.17381,-0.0774 0.34766,-0.11588 0.52151,-0.11588 0.17381,3e-5 0.29937,0.0581 0.37664,0.17385 0.0967,0.11588 0.14478,0.32836 0.14478,0.63741 l 0,10.37224 c -2e-5,0.19317 0.0967,0.28974 0.28971,0.28974 l 2.17297,0 c 0.19314,0 0.28972,-0.0966 0.28972,-0.28974 l 0,-6.34503 c 0,-0.65671 0.0483,-1.28447 0.14478,-1.88323 0.11594,-0.59877 0.29938,-1.12028 0.55049,-1.56454 0.27039,-0.46353 0.62772,-0.83052 1.07198,-1.10096 0.44425,-0.2704 0.99474,-0.40559 1.65144,-0.40561 0.46356,2e-5 0.8402,0.0868 1.12995,0.26075 0.309,0.17384 0.55046,0.4153 0.72431,0.72431 0.17381,0.30905 0.28971,0.68571 0.34768,1.12995 0.0775,0.42494 0.11594,0.8885 0.11594,1.3907 l 0,7.79366 c -4e-5,0.19317 0.0967,0.28974 0.28971,0.28974 l 2.25988,0 c 0.19312,0 0.28971,-0.0966 0.28973,-0.28974 l 0,-6.34503 c -2e-5,-0.65671 0.0483,-1.28447 0.14478,-1.88323 0.11594,-0.59877 0.29937,-1.12028 0.55049,-1.56454 0.27039,-0.46353 0.61808,-0.83052 1.04301,-1.10096 0.44423,-0.2704 0.99474,-0.40559 1.65146,-0.40561 0.88848,2e-5 1.4969,0.28973 1.82526,0.86918 0.34767,0.56016 0.5215,1.30378 0.52152,2.2309 l 0,5.93943 c -2e-5,0.84986 0.17381,1.51622 0.52151,1.99912 0.36697,0.48286 0.99472,0.7243 1.88324,0.7243 0.48285,0 0.96574,-0.0967 1.44864,-0.28971 0.50216,-0.21247 0.95607,-0.48287 1.36172,-0.81125 l 0.0869,-0.34768" />
      <path
         id="path7358-1"
         style="font-style:normal;font-variant:normal;font-weight:normal;font-stretch:normal;font-size:131.00004578px;line-height:100%;font-family:'Steinem Unicode';text-align:start;writing-mode:lr-tb;text-anchor:start;fill:#ff6400;fill-opacity:1;stroke:none"
         d="m 819.94899,758.87959 c 0.19311,0 0.28969,-0.0966 0.28971,-0.28973 l 0,-0.92712 c -2e-5,-2.25987 -0.51186,-3.97891 -1.53555,-5.15715 -1.02371,-1.19754 -2.50133,-1.79631 -4.43282,-1.79632 -0.9851,1e-5 -1.88326,0.17387 -2.69449,0.52151 -0.79192,0.34769 -1.46795,0.84023 -2.02809,1.4776 -0.54082,0.6181 -0.96574,1.36173 -1.27479,2.23092 -0.28974,0.86918 -0.43459,1.83495 -0.43459,2.89727 0,0.98508 0.13516,1.91221 0.40561,2.78139 0.28973,0.86919 0.705,1.6225 1.24582,2.25989 0.56014,0.63739 1.25549,1.14924 2.08604,1.53555 0.84986,0.36698 1.83494,0.55049 2.95522,0.55049 1.19754,0 2.13433,-0.0966 2.81037,-0.28975 0.676,-0.19315 1.25547,-0.4056 1.73838,-0.6374 0.0967,-0.0386 0.14478,-0.12561 0.14478,-0.26075 l 0,-1.79631 c -2e-5,-0.11588 -0.0483,-0.2028 -0.14478,-0.26077 -0.0775,-0.0578 -0.1642,-0.0578 -0.26078,0 -0.46358,0.25111 -1.02371,0.4829 -1.68041,0.69536 -0.65674,0.19315 -1.42932,0.28974 -2.3178,0.28974 -0.67607,0 -1.26517,-0.11588 -1.76736,-0.34768 -0.48291,-0.23179 -0.8885,-0.53117 -1.21686,-0.89816 -0.32838,-0.36698 -0.58912,-0.7726 -0.78225,-1.21686 -0.17382,-0.46356 -0.28976,-0.91748 -0.34769,-1.36172 l 9.24233,0 m -5.76561,-6.02632 c 1.06235,0 1.84459,0.34766 2.3468,1.04301 0.50219,0.67603 0.78227,1.62248 0.84022,2.83933 l -6.63476,0 c 0.15439,-1.21685 0.50219,-2.1633 1.04301,-2.83933 0.56014,-0.69535 1.36172,-1.04301 2.40473,-1.04301" />
    </g>
  </g>
</svg>
