<?xml version="1.0" encoding="UTF-8" standalone="no"?>
<svg
   xmlns:dc="http://purl.org/dc/elements/1.1/"
   xmlns:cc="http://creativecommons.org/ns#"
   xmlns:rdf="http://www.w3.org/1999/02/22-rdf-syntax-ns#"
   xmlns:svg="http://www.w3.org/2000/svg"
   xmlns="http://www.w3.org/2000/svg"
   viewBox="0 0 160.95501 29.739874"
   height="29.739874"
   width="160.95502"
   version="1.1"
   id="svg5566">
  <metadata
     id="metadata5572">
    <rdf:RDF>
      <cc:Work
         rdf:about="">
        <dc:format>image/svg+xml</dc:format>
        <dc:type
           rdf:resource="http://purl.org/dc/dcmitype/StillImage" />
        <dc:title></dc:title>
      </cc:Work>
    </rdf:RDF>
  </metadata>
  <defs
     id="defs5570" />
  <path
     d="m 30.219784,6.7455738 c -2.311467,2.34434 -6.485227,2.27677 -8.03744,5.4430702 -1.3242,3.75503 1.79428,9.75453 3.096167,13.17788 0.881886,1.76744 -6.154412,3.379729 -5.203989,3.817279 5.483583,-0.062 7.087615,-1.971359 6.429642,-4.426939 -0.6296,-2.34973 -3.471854,-7.03963 -3.471854,-10.78703 0.07964,-2.83044 3.245547,-3.69957 5.284627,-4.8530202 2.369297,-1.06223 4.585507,-3.432177 3.972877,-6.212088 -0.0262,-0.980539 -1.73385,-4.245101 -1.03671,-1.714579 0.38029,1.86815 0.56307,4.173899 -1.03332,5.555427 z"
     id="path2073-4"
     style="fill:#ffffff;fill-opacity:1;stroke:#ffffff;stroke-width:0.5;stroke-linejoin:miter;stroke-miterlimit:3.5999999;stroke-dasharray:none;stroke-opacity:1" />
  <path
     d="M 22.476597,2.5266888 C 19.492477,0.98728982 16.788912,0.05504382 13.317909,0.86676682 11.453023,1.2113998 9.2565186,2.2300908 8.007103,3.9362538 c -1.638343,1.956566 -1.702106,4.8025 -0.627514,7.0398202 0.835156,1.72392 2.1045866,3.64177 4.161466,3.92927 1.768897,0.26533 3.712504,0.0257 5.215245,-0.99592 -1.786696,0.30722 -3.856439,0.94235 -5.461047,-0.25181 -2.6891264,-1.71992 -3.99684,-5.6230402 -2.3641534,-8.4720102 1.3114494,-2.483954 3.9532974,-3.183715 6.7484574,-3.306702 3.727349,-0.163998 6.687713,1.962582 8.058447,2.480574 1.320713,0.415853 3.214753,0.942511 4.154507,-0.459654 0.54924,-0.651392 0.329733,-2.446143 -0.116954,-2.612641 0.129114,1.257336 -0.792973,2.838756 -2.22828,2.426328 -1.07208,-0.253103 -2.058287,-0.767243 -3.07068,-1.18682 z"
     id="path2075-4"
     style="fill:#ffffff;fill-opacity:1;stroke:#ffffff;stroke-width:0.5;stroke-linejoin:miter;stroke-miterlimit:3.5999999;stroke-dasharray:none;stroke-opacity:1" />
  <path
     d="m 3.0863366,13.643724 c -1.728663,2.72455 -3.30780404,5.91557 -2.70490804,9.23628 0.554253,3.47172 3.91300044,5.92046 7.25269044,6.35637 3.429152,0.39922 4.341953,0.267423 7.7795,0.02 0.579643,-0.56046 -1.826031,-0.514733 -3.251687,-0.720053 -3.2519357,-0.36819 -5.250136,-0.43562 -8.038295,-2.36681 -2.5975804,-1.94359 -2.9380574,-5.75606 -1.6926404,-8.5663 1.044398,-2.65163 2.0523671,-4.663894 3.6921261,-6.879194 -1.27859,1.06196 -1.9091657,1.303374 -3.0367861,2.919724 z"
     id="path2077-3"
     style="fill:#ffffff;fill-opacity:1;stroke:#ffffff;stroke-width:0.5;stroke-linejoin:miter;stroke-miterlimit:3.5999999;stroke-dasharray:none;stroke-opacity:1" />
  <path
     d="m 10.58579,22.214164 c 2.025588,0.15651 5.387161,-0.0491 6.966187,1.05463 0.565,0.85002 -0.486474,5.55457 -0.124188,6.09774 0.806732,0.23736 1.729476,-5.51236 1.218613,-6.94107 -0.386755,-1.09077 -7.254107,-0.51073 -8.060612,-0.2113 z"
     id="path2079-0"
     style="fill:#ffffff;fill-opacity:1;stroke:#ffffff;stroke-width:0.5;stroke-linejoin:miter;stroke-miterlimit:3.5999999;stroke-dasharray:none;stroke-opacity:1" />
  <g
     style="fill:#ffffff"
     transform="matrix(1.9261735,0,0,1.9261735,-34.836202,-24.731497)"
     id="g6200">
    <path
       id="path7346-8"
       style="font-style:normal;font-variant:normal;font-weight:normal;font-stretch:normal;font-size:131.00004578px;line-height:100%;font-family:'Steinem Unicode';text-align:start;writing-mode:lr-tb;text-anchor:start;fill:#ffffff;fill-opacity:1;stroke:none"
       d="m 50.119536,24.617467 -0.33151,-0.5274 c -0.0503,-0.0803 -0.12057,-0.0954 -0.21097,-0.0452 -0.0603,0.0403 -0.14064,0.0854 -0.24109,0.13561 -0.10047,0.0503 -0.19089,0.0753 -0.27124,0.0753 -0.0703,0 -0.12558,-0.0201 -0.16575,-0.0603 -0.0403,-0.0503 -0.0603,-0.16576 -0.0603,-0.34659 l 0,-3.25484 c -2e-5,-0.77352 -0.20094,-1.39133 -0.60275,-1.85346 -0.3918,-0.4621 -1.05483,-0.69314 -1.98908,-0.69316 -0.5023,2e-5 -0.94431,0.11052 -1.32605,0.33152 -0.38175,0.21097 -0.67307,0.5023 -0.87398,0.87398 -0.18084,-0.38174 -0.45207,-0.67808 -0.81371,-0.88905 -0.36166,-0.21096 -0.83883,-0.31643 -1.43153,-0.31645 -0.4822,2e-5 -0.89911,0.0954 -1.2507,0.28632 -0.34157,0.18082 -0.60276,0.40184 -0.78358,0.66301 -0.0603,-0.23105 -0.1758,-0.41688 -0.34658,-0.55754 -0.17078,-0.15067 -0.42192,-0.22602 -0.75344,-0.22603 -0.23105,10e-6 -0.47215,0.0553 -0.7233,0.16576 -0.25114,0.10047 -0.48722,0.23106 -0.70823,0.39178 -0.0803,0.0603 -0.0954,0.12056 -0.0452,0.18083 l 0.30139,0.51233 c 0.0201,0.0403 0.0503,0.0653 0.0904,0.0753 0.0503,0.01 0.0954,1e-5 0.13563,-0.0301 0.0703,-0.0503 0.14566,-0.0954 0.22603,-0.13562 0.0904,-0.0403 0.18082,-0.0603 0.27124,-0.0603 0.0904,10e-6 0.1557,0.0302 0.19589,0.0904 0.0503,0.0603 0.0753,0.17078 0.0753,0.33151 l 0,5.3946 c 0,0.10047 0.0503,0.15069 0.15068,0.15069 l 1.13016,0 c 0.10045,0 0.15068,-0.0503 0.15068,-0.15069 l 0,-3.30005 c 0,-0.34155 0.0251,-0.66805 0.0753,-0.97946 0.0603,-0.31142 0.15571,-0.58266 0.28631,-0.81372 0.14064,-0.24108 0.32649,-0.43196 0.55755,-0.57261 0.23105,-0.14063 0.51735,-0.21095 0.8589,-0.21096 0.2411,10e-6 0.43699,0.0451 0.58769,0.13562 0.16073,0.0904 0.2863,0.21599 0.37671,0.37671 0.0904,0.16074 0.15069,0.35664 0.18083,0.58769 0.0401,0.22101 0.0603,0.46211 0.0603,0.7233 l 0,4.05348 c 0,0.10047 0.0503,0.15069 0.15068,0.15069 l 1.17536,0 c 0.10046,0 0.15068,-0.0503 0.15069,-0.15069 l 0,-3.30005 c -1e-5,-0.34155 0.0251,-0.66805 0.0753,-0.97946 0.0603,-0.31142 0.1557,-0.58266 0.28631,-0.81372 0.14063,-0.24108 0.32146,-0.43196 0.54247,-0.57261 0.23104,-0.14063 0.51736,-0.21095 0.85892,-0.21096 0.4621,10e-6 0.77854,0.15069 0.94934,0.45206 0.1808,0.29134 0.27121,0.6781 0.27123,1.16029 l 0,3.0891 c -2e-5,0.44201 0.0904,0.78858 0.27124,1.03974 0.19085,0.25114 0.51735,0.37671 0.97947,0.37671 0.25113,0 0.50227,-0.0503 0.75343,-0.15068 0.26117,-0.11051 0.49725,-0.25114 0.70823,-0.42193 l 0.0451,-0.18083" />
    <path
       id="path7348-6"
       style="font-style:normal;font-variant:normal;font-weight:normal;font-stretch:normal;font-size:131.00004578px;line-height:100%;font-family:'Steinem Unicode';text-align:start;writing-mode:lr-tb;text-anchor:start;fill:#ffffff;fill-opacity:1;stroke:none"
       d="m 56.908946,22.296887 c 0.10045,0 0.15067,-0.0503 0.15068,-0.15069 l 0,-0.48219 c -1e-5,-1.17536 -0.26623,-2.06944 -0.79864,-2.68224 -0.53243,-0.62284 -1.30093,-0.93426 -2.30551,-0.93426 -0.51234,0 -0.97948,0.0904 -1.4014,0.27124 -0.41188,0.18083 -0.76348,0.437 -1.05481,0.7685 -0.28128,0.32147 -0.5023,0.70823 -0.66302,1.1603 -0.15069,0.45206 -0.22603,0.95435 -0.22603,1.50686 0,0.51234 0.0703,0.99454 0.21096,1.4466 0.15068,0.45207 0.36667,0.84386 0.64795,1.17537 0.29133,0.33151 0.65299,0.59772 1.08495,0.79864 0.44202,0.19087 0.95435,0.28631 1.53701,0.28631 0.62284,0 1.11006,-0.0503 1.46167,-0.1507 0.3516,-0.10046 0.65297,-0.21095 0.90413,-0.33151 0.0503,-0.0201 0.0753,-0.0653 0.0753,-0.13561 l 0,-0.93426 c 0,-0.0603 -0.0251,-0.10548 -0.0753,-0.13563 -0.0403,-0.0301 -0.0854,-0.0301 -0.13563,0 -0.2411,0.1306 -0.53243,0.25115 -0.87398,0.36165 -0.34156,0.10046 -0.74339,0.1507 -1.20549,0.1507 -0.35162,0 -0.65802,-0.0603 -0.9192,-0.18083 -0.25115,-0.12055 -0.46211,-0.27626 -0.63289,-0.46713 -0.17078,-0.19087 -0.3064,-0.40183 -0.40685,-0.63289 -0.0904,-0.2411 -0.15069,-0.47718 -0.18083,-0.70823 l 4.80693,0 m -2.99869,-3.13429 c 0.55252,0 0.95938,0.18082 1.22058,0.54247 0.26118,0.3516 0.40685,0.84385 0.43699,1.47674 l -3.45074,0 c 0.0803,-0.63289 0.26119,-1.12514 0.54247,-1.47674 0.29134,-0.36165 0.70823,-0.54247 1.2507,-0.54247" />
    <path
       id="path7350-8"
       style="font-style:normal;font-variant:normal;font-weight:normal;font-stretch:normal;font-size:131.00004578px;line-height:100%;font-family:'Steinem Unicode';text-align:start;writing-mode:lr-tb;text-anchor:start;fill:#ffffff;fill-opacity:1;stroke:none"
       d="m 66.206356,24.617467 -0.31646,-0.5274 c -0.0201,-0.0403 -0.0553,-0.0603 -0.10547,-0.0603 -0.0403,-0.01 -0.0803,-0.005 -0.12055,0.0151 -0.0603,0.0403 -0.14065,0.0854 -0.2411,0.13561 -0.0904,0.0503 -0.17582,0.0753 -0.25616,0.0753 -0.0703,0 -0.12559,-0.0201 -0.16576,-0.0603 -0.0403,-0.0402 -0.0603,-0.13059 -0.0603,-0.27125 l 0,-0.0753 -0.0151,-3.23977 c 0,-0.77351 -0.216,-1.39133 -0.64796,-1.85345 -0.42193,-0.47215 -1.095,-0.70822 -2.01921,-0.70823 -0.49225,10e-6 -0.91919,0.10047 -1.28083,0.30138 -0.35162,0.20092 -0.6329,0.44202 -0.84386,0.7233 -0.0603,-0.2411 -0.1758,-0.44201 -0.34658,-0.60276 -0.17078,-0.17077 -0.43196,-0.25615 -0.78356,-0.25617 -0.23106,2e-5 -0.46714,0.0553 -0.70824,0.16576 -0.2411,0.10047 -0.47215,0.23106 -0.69316,0.39179 -0.0803,0.0603 -0.0954,0.12055 -0.0451,0.18082 l 0.30138,0.51233 c 0.0201,0.0403 0.0503,0.0653 0.0904,0.0753 0.0503,0.01 0.0904,2e-5 0.12055,-0.0301 0.0703,-0.0503 0.15068,-0.0954 0.2411,-0.13562 0.0904,-0.0401 0.1758,-0.0603 0.25617,-0.0603 0.0904,0 0.15571,0.0301 0.19589,0.0904 0.0503,0.0603 0.0753,0.17078 0.0753,0.33152 l 0,5.3946 c 0,0.10046 0.0451,0.15068 0.13561,0.15068 l 1.13016,0 c 0.0904,0 0.13561,-0.0503 0.13561,-0.15068 l 0,-3.30005 c 0,-0.34155 0.0351,-0.66804 0.10549,-0.97947 0.0703,-0.31141 0.18083,-0.58265 0.33151,-0.81371 0.16073,-0.24109 0.36165,-0.43197 0.60275,-0.57262 0.2411,-0.14063 0.53242,-0.21095 0.87399,-0.21095 0.47214,0 0.80868,0.15068 1.0096,0.45205 0.21096,0.29135 0.31644,0.68815 0.31644,1.19043 l 0,3.05896 c 0,0.44201 0.0904,0.7886 0.27124,1.03974 0.18081,0.25115 0.50228,0.37672 0.9644,0.37672 0.25114,0 0.50228,-0.0503 0.75344,-0.15069 0.25113,-0.11051 0.48219,-0.25114 0.69316,-0.42193 l 0.0451,-0.18082" />
    <path
       id="path7352-8"
       style="font-style:normal;font-variant:normal;font-weight:normal;font-stretch:normal;font-size:131.00004578px;line-height:100%;font-family:'Steinem Unicode';text-align:start;writing-mode:lr-tb;text-anchor:start;fill:#ffffff;fill-opacity:1;stroke:none"
       d="m 72.978336,22.296887 c 0.10045,0 0.15068,-0.0503 0.15069,-0.15069 l 0,-0.48219 c -1e-5,-1.17536 -0.26623,-2.06944 -0.79864,-2.68224 -0.53245,-0.62284 -1.30095,-0.93426 -2.30552,-0.93426 -0.51234,0 -0.97948,0.0904 -1.4014,0.27124 -0.41187,0.18083 -0.76348,0.437 -1.05481,0.7685 -0.28129,0.32147 -0.50229,0.70823 -0.66303,1.1603 -0.15068,0.45206 -0.22603,0.95435 -0.22603,1.50686 0,0.51234 0.0703,0.99454 0.21097,1.4466 0.15069,0.45207 0.36667,0.84386 0.64795,1.17537 0.29133,0.33151 0.65298,0.59772 1.08495,0.79864 0.44201,0.19087 0.95436,0.28631 1.53702,0.28631 0.62284,0 1.11005,-0.0503 1.46166,-0.1507 0.3516,-0.10046 0.65298,-0.21095 0.90412,-0.33151 0.0503,-0.0201 0.0753,-0.0653 0.0753,-0.13561 l 0,-0.93426 c -1e-5,-0.0603 -0.0251,-0.10548 -0.0753,-0.13563 -0.0403,-0.0301 -0.0854,-0.0301 -0.13562,0 -0.2411,0.1306 -0.53242,0.25115 -0.87398,0.36165 -0.34156,0.10046 -0.7434,0.1507 -1.2055,0.1507 -0.3516,0 -0.658,-0.0603 -0.91919,-0.18083 -0.25115,-0.12055 -0.46211,-0.27626 -0.63289,-0.46713 -0.17079,-0.19087 -0.3064,-0.40183 -0.40686,-0.63289 -0.0904,-0.2411 -0.15068,-0.47718 -0.18083,-0.70823 l 4.80694,0 m -2.99868,-3.13429 c 0.55253,0 0.95937,0.18082 1.22057,0.54247 0.26118,0.3516 0.40684,0.84385 0.437,1.47674 l -3.45075,0 c 0.0803,-0.63289 0.26118,-1.12514 0.54248,-1.47674 0.29132,-0.36165 0.70822,-0.54247 1.2507,-0.54247 m 2.10963,-4.11377 c 0.0402,-0.0503 0.0452,-0.0954 0.0151,-0.13562 -0.0201,-0.0503 -0.0603,-0.0753 -0.12056,-0.0753 l -1.14521,0 c -0.0503,10e-6 -0.0854,0.0201 -0.10549,0.0602 l -1.95893,2.60688 c -0.0403,0.0503 -0.0503,0.10047 -0.0301,0.1507 0.0301,0.0503 0.0753,0.0753 0.13562,0.0753 l 0.97947,0 c 0.0201,10e-6 0.0401,-0.005 0.0603,-0.0151 0.0302,-0.01 0.0452,-0.0251 0.0452,-0.0452 l 2.12469,-2.62195" />
    <path
       id="path7354-4"
       style="font-style:normal;font-variant:normal;font-weight:normal;font-stretch:normal;font-size:131.00004578px;line-height:100%;font-family:'Steinem Unicode';text-align:start;writing-mode:lr-tb;text-anchor:start;fill:#ffffff;fill-opacity:1;stroke:none"
       d="m 81.619306,24.527067 -0.31644,-0.52742 c -0.0503,-0.0703 -0.12056,-0.0803 -0.21096,-0.0302 -0.0603,0.0302 -0.14065,0.0703 -0.2411,0.12056 -0.0904,0.0503 -0.17581,0.0753 -0.25617,0.0753 -0.0803,0 -0.14065,-0.0251 -0.18082,-0.0753 -0.0302,-0.0503 -0.0451,-0.16074 -0.0451,-0.33151 l 0,-2.99868 c -2e-5,-0.85389 -0.23106,-1.51691 -0.69316,-1.98907 -0.45208,-0.4822 -1.1804,-0.7233 -2.18498,-0.7233 -0.42192,0 -0.82376,0.0452 -1.2055,0.13562 -0.38174,0.0904 -0.7233,0.221 -1.02466,0.39178 -0.0803,0.0403 -0.10046,0.10549 -0.0603,0.1959 l 0.30137,0.73836 c 0.0201,0.0403 0.0503,0.0653 0.0904,0.0753 0.0403,0.01 0.0753,0.005 0.10548,-0.0151 0.28128,-0.14062 0.55252,-0.23606 0.8137,-0.2863 0.27125,-0.0603 0.53746,-0.0904 0.79865,-0.0904 0.54247,0 0.94933,0.12056 1.22057,0.36166 0.28128,0.2411 0.42192,0.58768 0.42193,1.03973 l 0,0.45207 c -0.20093,-0.17078 -0.46713,-0.31644 -0.79865,-0.437 -0.33151,-0.13059 -0.70321,-0.19589 -1.11508,-0.1959 -0.43197,10e-6 -0.81874,0.0653 -1.1603,0.1959 -0.34156,0.12056 -0.63288,0.29636 -0.87398,0.5274 -0.23106,0.22102 -0.41188,0.48723 -0.54248,0.79864 -0.12054,0.30139 -0.18082,0.6329 -0.18082,0.99455 0,0.78357 0.23105,1.40139 0.69316,1.85345 0.4621,0.45206 1.1201,0.6781 1.974,0.6781 0.51234,0 0.9443,-0.0904 1.29592,-0.27124 0.3516,-0.18083 0.6178,-0.37672 0.79864,-0.58769 0.0703,0.22101 0.19086,0.39179 0.36164,0.51235 0.17077,0.1105 0.4169,0.16575 0.73837,0.16575 0.25115,0 0.50229,-0.0503 0.75343,-0.15069 0.25115,-0.10046 0.47718,-0.23608 0.6781,-0.40686 l 0.0451,-0.19589 m -2.6521,-1.62743 c 0,0.44203 -0.17078,0.79363 -0.51234,1.05482 -0.33151,0.2612 -0.73836,0.39178 -1.22057,0.39178 -0.51233,0 -0.89407,-0.13058 -1.14521,-0.39178 -0.25115,-0.26119 -0.37673,-0.60275 -0.37673,-1.02467 0,-0.41188 0.12056,-0.74841 0.36165,-1.00961 0.2411,-0.27122 0.6128,-0.40685 1.11509,-0.40685 0.58265,0 1.02467,0.13563 1.32605,0.40685 0.30137,0.27124 0.45206,0.59773 0.45206,0.97946" />
    <path
       id="path7356-3"
       style="font-style:normal;font-variant:normal;font-weight:normal;font-stretch:normal;font-size:131.00004578px;line-height:100%;font-family:'Steinem Unicode';text-align:start;writing-mode:lr-tb;text-anchor:start;fill:#ffffff;fill-opacity:1;stroke:none"
       d="m 94.707666,24.617467 -0.3315,-0.5274 c -0.0503,-0.0803 -0.12057,-0.0954 -0.21096,-0.0452 -0.0603,0.0403 -0.14066,0.0854 -0.24111,0.13561 -0.10047,0.0503 -0.19088,0.0753 -0.27124,0.0753 -0.0703,0 -0.12559,-0.0201 -0.16575,-0.0603 -0.0403,-0.0503 -0.0603,-0.16576 -0.0603,-0.34659 l 0,-3.25484 c -1e-5,-0.77352 -0.20093,-1.39133 -0.60274,-1.85346 -0.3918,-0.4621 -1.05483,-0.69314 -1.98908,-0.69316 -0.50231,2e-5 -0.94432,0.11052 -1.32605,0.33152 -0.38175,0.21097 -0.67308,0.5023 -0.87399,0.87398 -0.18083,-0.38174 -0.45206,-0.67808 -0.81371,-0.88905 -0.36165,-0.21096 -0.83883,-0.31643 -1.43153,-0.31645 -0.4822,2e-5 -0.8991,0.0954 -1.2507,0.28632 -0.34156,0.18082 -0.60275,0.40184 -0.78357,0.66301 -0.0603,-0.23105 -0.1758,-0.41688 -0.34658,-0.55754 -0.17078,-0.15067 -0.42194,-0.22602 -0.75344,-0.22603 -0.23105,10e-6 -0.47216,0.0553 -0.7233,0.16576 -0.25114,0.10047 -0.48722,0.23106 -0.70823,0.39178 -0.0803,0.0603 -0.0954,0.12056 -0.0452,0.18083 l 0.30139,0.51233 c 0.0201,0.0403 0.0503,0.0653 0.0904,0.0753 0.0503,0.01 0.0954,1e-5 0.13562,-0.0301 0.0703,-0.0503 0.14567,-0.0954 0.22604,-0.13562 0.0904,-0.0403 0.18082,-0.0603 0.27124,-0.0603 0.0904,10e-6 0.1557,0.0302 0.19589,0.0904 0.0503,0.0603 0.0753,0.17078 0.0753,0.33151 l 0,5.3946 c -1e-5,0.10047 0.0503,0.15069 0.15068,0.15069 l 1.13016,0 c 0.10045,0 0.15068,-0.0503 0.15068,-0.15069 l 0,-3.30005 c 0,-0.34155 0.0251,-0.66805 0.0753,-0.97946 0.0603,-0.31142 0.15571,-0.58266 0.28631,-0.81372 0.14063,-0.24108 0.32648,-0.43196 0.55754,-0.57261 0.23105,-0.14063 0.51736,-0.21095 0.85891,-0.21096 0.2411,10e-6 0.43699,0.0451 0.58769,0.13562 0.16071,0.0904 0.28629,0.21599 0.37671,0.37671 0.0904,0.16074 0.15068,0.35664 0.18083,0.58769 0.0403,0.22101 0.0603,0.46211 0.0603,0.7233 l 0,4.05348 c -2e-5,0.10047 0.0503,0.15069 0.15068,0.15069 l 1.17536,0 c 0.10044,0 0.15068,-0.0503 0.15069,-0.15069 l 0,-3.30005 c -1e-5,-0.34155 0.0251,-0.66805 0.0753,-0.97946 0.0603,-0.31142 0.1557,-0.58266 0.28631,-0.81372 0.14063,-0.24108 0.32146,-0.43196 0.54247,-0.57261 0.23104,-0.14063 0.51736,-0.21095 0.85892,-0.21096 0.4621,10e-6 0.77854,0.15069 0.94932,0.45206 0.18082,0.29134 0.27123,0.6781 0.27124,1.16029 l 0,3.0891 c -1e-5,0.44201 0.0904,0.78858 0.27124,1.03974 0.19086,0.25114 0.51735,0.37671 0.97947,0.37671 0.25113,0 0.50228,-0.0503 0.75344,-0.15068 0.26117,-0.11051 0.49725,-0.25114 0.70823,-0.42193 l 0.0452,-0.18083" />
    <path
       id="path7358-1"
       style="font-style:normal;font-variant:normal;font-weight:normal;font-stretch:normal;font-size:131.00004578px;line-height:100%;font-family:'Steinem Unicode';text-align:start;writing-mode:lr-tb;text-anchor:start;fill:#ffffff;fill-opacity:1;stroke:none"
       d="m 101.49709,22.296887 c 0.10044,0 0.15067,-0.0503 0.15067,-0.15069 l 0,-0.48219 c 0,-1.17536 -0.26621,-2.06944 -0.79863,-2.68224 -0.53243,-0.62284 -1.300944,-0.93426 -2.305514,-0.93426 -0.51235,0 -0.97948,0.0904 -1.4014,0.27124 -0.41188,0.18083 -0.76348,0.437 -1.05481,0.7685 -0.28128,0.32147 -0.50228,0.70823 -0.66302,1.1603 -0.15069,0.45206 -0.22603,0.95435 -0.22603,1.50686 0,0.51234 0.0703,0.99454 0.21096,1.4466 0.15069,0.45207 0.36667,0.84386 0.64795,1.17537 0.29133,0.33151 0.65298,0.59772 1.08495,0.79864 0.44201,0.19087 0.95435,0.28631 1.53701,0.28631 0.62284,0 1.11006,-0.0503 1.461674,-0.1507 0.35159,-0.10046 0.65297,-0.21095 0.90413,-0.33151 0.0503,-0.0201 0.0753,-0.0653 0.0753,-0.13561 l 0,-0.93426 c -10e-6,-0.0603 -0.0251,-0.10548 -0.0753,-0.13563 -0.0403,-0.0301 -0.0854,-0.0301 -0.13563,0 -0.24111,0.1306 -0.53243,0.25115 -0.87398,0.36165 -0.341574,0.10046 -0.743394,0.1507 -1.205494,0.1507 -0.35162,0 -0.65801,-0.0603 -0.9192,-0.18083 -0.25116,-0.12055 -0.46211,-0.27626 -0.63289,-0.46713 -0.17079,-0.19087 -0.3064,-0.40183 -0.40685,-0.63289 -0.0904,-0.2411 -0.1507,-0.47718 -0.18083,-0.70823 l 4.806934,0 m -2.998694,-3.13429 c 0.55253,0 0.95937,0.18082 1.22057,0.54247 0.26119,0.3516 0.406864,0.84385 0.437004,1.47674 l -3.450744,0 c 0.0803,-0.63289 0.26119,-1.12514 0.54247,-1.47674 0.29133,-0.36165 0.70823,-0.54247 1.2507,-0.54247" />
  </g>
</svg>
