<?xml version="1.0" encoding="UTF-8" standalone="no"?>
<!-- Generator: Adobe Illustrator 15.0.2, SVG Export Plug-In . SVG Version: 6.00 Build 0)  -->

<svg
   xmlns:dc="http://purl.org/dc/elements/1.1/"
   xmlns:cc="http://creativecommons.org/ns#"
   xmlns:rdf="http://www.w3.org/1999/02/22-rdf-syntax-ns#"
   xmlns:svg="http://www.w3.org/2000/svg"
   xmlns="http://www.w3.org/2000/svg"
   xmlns:sodipodi="http://sodipodi.sourceforge.net/DTD/sodipodi-0.dtd"
   xmlns:inkscape="http://www.inkscape.org/namespaces/inkscape"
   version="1.1"
   id="Ñëîé_1"
   x="0px"
   y="0px"
   width="135.43257"
   height="152.88536"
   viewBox="0 0 534.74022 605.42603"
   enable-background="new 0 0 612 792"
   xml:space="preserve"
   inkscape:version="0.48.2 r9819"
   sodipodi:docname="atletik_bilbao.svg"><metadata
   id="metadata119"><rdf:RDF><cc:Work
       rdf:about=""><dc:format>image/svg+xml</dc:format><dc:type
         rdf:resource="http://purl.org/dc/dcmitype/StillImage" /></cc:Work></rdf:RDF></metadata><defs
   id="defs117" /><sodipodi:namedview
   pagecolor="#ffffff"
   bordercolor="#666666"
   borderopacity="1"
   objecttolerance="10"
   gridtolerance="10"
   guidetolerance="10"
   inkscape:pageopacity="0"
   inkscape:pageshadow="2"
   inkscape:window-width="1280"
   inkscape:window-height="962"
   id="namedview115"
   showgrid="false"
   fit-margin-top="0"
   fit-margin-left="0"
   fit-margin-right="0"
   fit-margin-bottom="0"
   inkscape:zoom="4.8598505"
   inkscape:cx="67.744977"
   inkscape:cy="76.442673"
   inkscape:window-x="-8"
   inkscape:window-y="-8"
   inkscape:window-maximized="1"
   inkscape:current-layer="Ñëîé_1" />
<g
   id="g3"
   transform="translate(-31.630382,-57.897)">
	<path
   d="M 127.601,481.787 C 43.438,352.777 32.995,197.966 30.844,57.897 H 567.157 C 565.007,197.965 554.564,352.777 470.4,481.787 402.713,585.539 299,663.323 299,663.323 c 0,0 -103.713,-77.784 -171.399,-181.536 z"
   id="path5"
   inkscape:connector-curvature="0" />
	<path
   d="M 554.971,69.877 C 552.49,201.815 541.403,351.024 460.366,475.242 404.818,560.388 323.426,628.614 299,648.115 274.574,628.614 193.182,560.387 137.634,475.242 l 0,0 C 56.597,351.024 45.511,201.814 43.029,69.877 c 22.736,0 489.205,0 511.942,0 z"
   id="path7"
   inkscape:connector-curvature="0"
   style="fill:#ffffff" />
	<path
   d="M 485.336,137.146 C 479.69,240.659 462.37,349.053 404.025,438.486 372.327,487.077 330.762,529.957 299,559.312 267.238,529.958 225.673,487.078 193.975,438.487 l 0,0 C 135.63,349.054 118.311,240.66 112.664,137.147 c 96.362,-0.001 276.31,-0.001 372.672,-0.001 z"
   id="path9"
   inkscape:connector-curvature="0" />
	<path
   d="m 154.498,324.296 c -1.063,-3.446 -2.096,-6.928 -3.103,-10.447 l 0.014,-0.023 c 0.288,-0.398 0.519,-0.57 0.86,-0.57 0.489,0 0.752,0.353 1.278,1.22 0.585,0.963 1.386,2.282 3.195,2.282 1.808,0 2.609,-1.319 3.194,-2.282 0.527,-0.867 0.79,-1.22 1.279,-1.22 0.489,0 0.752,0.353 1.279,1.22 0.585,0.963 1.386,2.282 3.194,2.282 v -1.843 c -0.702,0 -1.017,-0.404 -1.619,-1.396 -0.54,-0.889 -1.28,-2.106 -2.854,-2.106 -1.574,0 -2.313,1.218 -2.854,2.106 -0.603,0.992 -0.917,1.396 -1.619,1.396 -0.702,0 -1.017,-0.404 -1.619,-1.395 -0.54,-0.889 -1.28,-2.107 -2.854,-2.107 -0.571,0 -1.033,0.16 -1.414,0.407 l -0.032,0.014 c -1.127,-4 -2.219,-8.047 -3.276,-12.144 l -0.012,-0.051 h 77.755 c 0,0 0.22,-12.171 3.446,-20.465 2.543,-6.541 7.573,-14.713 13.285,-14.705 l 0,0 c 5.71,-0.009 10.741,8.164 13.285,14.705 2.306,5.93 3.077,13.842 3.328,17.87 l 0.016,0.071 -14.585,10.771 -0.012,-0.074 v -1.583 c -0.702,0 -1.017,-0.404 -1.62,-1.396 -0.54,-0.889 -1.279,-2.106 -2.854,-2.106 -1.575,0 -2.314,1.218 -2.854,2.107 -0.603,0.991 -0.918,1.396 -1.62,1.396 -0.701,0 -1.017,-0.404 -1.619,-1.396 -0.54,-0.889 -1.28,-2.107 -2.854,-2.107 -1.575,0 -2.314,1.218 -2.854,2.107 -0.602,0.992 -0.917,1.396 -1.619,1.396 -0.702,0 -1.017,-0.404 -1.619,-1.396 -0.54,-0.889 -1.28,-2.107 -2.854,-2.107 -1.574,0 -2.313,1.218 -2.854,2.106 -0.602,0.992 -0.917,1.396 -1.619,1.396 v 1.843 c 1.808,0 2.609,-1.319 3.194,-2.282 0.527,-0.867 0.79,-1.22 1.278,-1.22 0.489,0 0.752,0.353 1.279,1.22 0.585,0.963 1.386,2.282 3.194,2.282 1.808,0 2.609,-1.319 3.194,-2.282 0.527,-0.867 0.79,-1.22 1.279,-1.22 0.489,0 0.752,0.353 1.278,1.22 0.585,0.963 1.387,2.282 3.194,2.282 1.809,0 2.61,-1.319 3.195,-2.282 0.527,-0.867 0.79,-1.22 1.279,-1.22 0.489,0 0.752,0.353 1.279,1.22 0.554,0.913 1.302,2.144 2.917,2.271 l 0.048,0.002 -19.23,14.202 -0.03,-0.026 c -0.007,-0.011 -0.014,-0.023 -0.021,-0.034 -0.54,-0.889 -1.28,-2.107 -2.854,-2.107 -1.574,0 -2.313,1.218 -2.854,2.106 -0.602,0.992 -0.917,1.396 -1.619,1.396 v 1.843 c 1.808,0 2.609,-1.319 3.194,-2.282 0.527,-0.867 0.79,-1.22 1.278,-1.22 0.489,0 0.752,0.354 1.279,1.22 0.034,0.056 0.069,0.114 0.105,0.171 l 0.024,0.038 -7.448,5.5 -0.035,-0.011 c -0.2,-0.049 -0.417,-0.076 -0.651,-0.076 -1.575,0 -2.314,1.217 -2.854,2.106 -0.602,0.991 -0.917,1.395 -1.619,1.395 -0.702,0 -1.017,-0.404 -1.619,-1.396 -0.541,-0.889 -1.28,-2.106 -2.854,-2.106 -1.574,0 -2.314,1.217 -2.854,2.106 -0.602,0.992 -0.917,1.396 -1.619,1.396 v 1.843 c 1.808,0 2.609,-1.319 3.194,-2.282 0.526,-0.867 0.79,-1.22 1.278,-1.22 0.489,0 0.752,0.354 1.279,1.22 0.387,0.637 0.869,1.43 1.674,1.894 l 0.047,0.027 -7.181,5.303 -0.021,-0.02 c -0.518,-0.778 -1.246,-1.583 -2.525,-1.583 -1.574,0 -2.313,1.218 -2.853,2.106 -0.603,0.991 -0.918,1.396 -1.62,1.396 -0.702,0 -1.017,-0.404 -1.62,-1.396 -0.54,-0.888 -1.279,-2.106 -2.853,-2.106 -1.575,0 -2.314,1.218 -2.854,2.106 -0.603,0.992 -0.918,1.396 -1.62,1.396 v 1.843 c 1.809,0 2.61,-1.318 3.195,-2.281 0.526,-0.867 0.79,-1.22 1.279,-1.22 0.488,0 0.751,0.353 1.278,1.22 0.584,0.963 1.386,2.281 3.194,2.281 1.808,0 2.609,-1.318 3.194,-2.281 0.527,-0.867 0.79,-1.22 1.278,-1.22 0.404,0 0.653,0.241 1.025,0.813 l 0.023,0.053 -8.101,5.983 -0.053,0.018 c -1.082,0.146 -1.723,0.907 -2.19,1.626 l -0.015,0.023 -2.363,1.745 -0.039,-0.016 c -0.388,-0.173 -0.672,-0.582 -1.105,-1.296 -0.54,-0.889 -1.28,-2.106 -2.854,-2.106 -1.574,0 -2.314,1.217 -2.854,2.106 -0.602,0.991 -0.918,1.396 -1.619,1.396 -0.702,0 -1.017,-0.404 -1.62,-1.396 -0.54,-0.889 -1.279,-2.106 -2.854,-2.106 -1.575,0 -2.313,1.217 -2.854,2.106 -0.603,0.992 -0.918,1.396 -1.62,1.396 v 1.843 c 1.809,0 2.609,-1.318 3.194,-2.282 0.527,-0.867 0.79,-1.22 1.279,-1.22 0.489,0 0.752,0.353 1.279,1.22 0.585,0.963 1.386,2.282 3.195,2.282 1.808,0 2.609,-1.318 3.194,-2.282 0.527,-0.867 0.79,-1.22 1.279,-1.22 0.489,0 0.752,0.353 1.279,1.22 0.288,0.475 0.629,1.036 1.117,1.483 l 0.04,0.027 -7.008,5.176 -0.024,-0.014 c -0.487,-0.574 -1.145,-1.05 -2.129,-1.05 -1.575,0 -2.313,1.218 -2.854,2.106 -0.602,0.992 -0.917,1.396 -1.619,1.396 -0.702,0 -1.017,-0.404 -1.619,-1.396 -0.54,-0.889 -1.279,-2.107 -2.854,-2.107 -1.104,0 -1.797,0.599 -2.299,1.262 -0.024,0.032 -0.071,0.111 -0.095,0.144 l -0.02,-0.055 c -0.735,-1.904 -1.459,-3.818 -2.174,-5.745 l 0.065,0.066 c 0.524,0.553 1.23,0.987 2.269,0.987 v -1.843 c -0.702,0 -1.017,-0.404 -1.619,-1.396 -0.46,-0.756 -1.064,-1.751 -2.205,-2.03 l -0.056,-0.016 c -0.807,-2.241 -1.601,-4.498 -2.38,-6.771 l 0.047,0.025 c 0.243,0.18 0.469,0.521 0.799,1.063 0.585,0.963 1.386,2.281 3.195,2.281 1.808,0 2.609,-1.318 3.194,-2.281 0.527,-0.867 0.79,-1.22 1.279,-1.22 0.489,0 0.752,0.353 1.278,1.22 0.585,0.963 1.386,2.281 3.195,2.281 1.808,0 2.61,-1.318 3.195,-2.281 0.526,-0.867 0.79,-1.22 1.278,-1.22 0.489,0 0.752,0.353 1.279,1.22 0.585,0.963 1.386,2.281 3.194,2.281 v -1.843 c -0.701,0 -1.017,-0.404 -1.619,-1.396 -0.54,-0.888 -1.279,-2.106 -2.854,-2.106 -1.575,0 -2.313,1.218 -2.854,2.106 -0.602,0.992 -0.917,1.396 -1.619,1.396 -0.702,0 -1.017,-0.404 -1.619,-1.396 -0.54,-0.889 -1.279,-2.106 -2.854,-2.106 -1.574,0 -2.314,1.218 -2.854,2.106 -0.602,0.991 -0.917,1.396 -1.619,1.396 -0.702,0 -1.017,-0.404 -1.62,-1.396 -0.541,-0.888 -1.28,-2.106 -2.854,-2.106 -0.069,0 -0.135,0.002 -0.201,0.007 l -0.037,0.003 c -0.389,-1.15 -0.775,-2.305 -1.158,-3.463 l 0.053,-0.014 c 1.189,-0.353 1.808,-1.372 2.284,-2.155 0.527,-0.867 0.79,-1.22 1.279,-1.22 0.489,0 0.752,0.354 1.279,1.22 0.585,0.963 1.386,2.282 3.194,2.282 v -1.843 c -0.702,0 -1.017,-0.404 -1.619,-1.396 -0.54,-0.889 -1.28,-2.106 -2.854,-2.106 -1.574,0 -2.313,1.217 -2.854,2.106 -0.5,0.823 -0.802,1.242 -1.292,1.359 l -0.046,0.007 c -0.732,-2.244 -1.452,-4.503 -2.158,-6.778 l -0.029,-0.049 c 1.59,-0.142 2.332,-1.362 2.882,-2.268 0.527,-0.867 0.79,-1.22 1.279,-1.22 0.488,0 0.752,0.354 1.279,1.22 0.585,0.963 1.386,2.282 3.195,2.282 1.808,0 2.609,-1.319 3.194,-2.282 0.527,-0.867 0.79,-1.22 1.279,-1.22 0.489,0 0.752,0.354 1.278,1.22 0.585,0.963 1.386,2.282 3.195,2.282 1.808,0 2.61,-1.319 3.195,-2.282 0.526,-0.867 0.79,-1.22 1.278,-1.22 0.489,0 0.752,0.354 1.279,1.22 0.585,0.963 1.386,2.282 3.194,2.282 V 323.6 c -0.701,0 -1.017,-0.404 -1.619,-1.396 -0.54,-0.889 -1.279,-2.106 -2.854,-2.106 -1.575,0 -2.313,1.218 -2.854,2.107 -0.602,0.991 -0.917,1.395 -1.619,1.395 -0.702,0 -1.017,-0.404 -1.619,-1.395 -0.54,-0.889 -1.279,-2.107 -2.854,-2.107 -1.574,0 -2.314,1.218 -2.854,2.107 -0.602,0.992 -0.917,1.395 -1.619,1.395 -0.702,0 -1.017,-0.404 -1.62,-1.395 -0.541,-0.889 -1.28,-2.107 -2.854,-2.107 -1.574,0 -2.314,1.218 -2.854,2.106 -0.603,0.992 -0.918,1.396 -1.62,1.396 v 0.741 l -0.022,-0.045 z"
   id="path11"
   inkscape:connector-curvature="0"
   style="fill:#ffffff" />
	<path
   d="m 322.222,250.098 -14.44,-3.469 -0.081,-0.026 v -17.796 l 0.054,-0.004 c 1.169,-0.076 2.248,-0.182 3.286,-0.341 0.884,-0.135 0.383,1.576 1.095,2.313 0.711,0.735 1.234,1.411 0.842,1.989 -0.771,1.128 -1.499,1.479 -2.429,1.479 -0.931,0 -1.533,0.683 -1.533,1.052 0,0.367 0.492,0.209 1.916,0.209 1.423,0 2.682,-0.104 3.448,-1.366 0.67,-1.103 1.299,-1.804 1.336,-2.526 0.005,-0.104 0.117,-0.209 0.354,-0.069 0.376,0.223 0.999,0.543 1.704,0.703 1.149,0.264 1.654,0.85 1.654,1.9 0,1.051 0.042,1.41 -0.779,1.41 -0.82,0 -1.095,0.263 -1.095,0.63 0,0.368 0.821,0.579 1.861,0.526 1.041,-0.053 2.08,-0.42 2.135,-1.734 0.055,-1.314 0.273,-3.049 -0.658,-3.574 -0.93,-0.525 -1.751,-0.998 -1.477,-2.627 0.274,-1.629 0.274,-2.68 0.274,-2.68 0,0 1.058,1.226 2.426,2.75 1.368,1.523 2.528,3.136 4.992,3.609 2.462,0.473 3.853,-0.445 4.453,-1.075 0.602,-0.631 0.224,-1.604 -1.199,-1.5 -1.423,0.105 -3.832,0.315 -5.309,-1.313 -1.479,-1.628 -2.836,-3.838 -6.009,-4.942 -3.175,-1.104 -5.591,-1.213 -8.332,-1.154 -1.09,0.023 -2.059,0.063 -2.972,0.112 l -0.039,0.003 v -19.899 l 0.039,-0.005 c 1.175,-0.075 2.259,-0.182 3.301,-0.341 0.884,-0.135 0.383,1.576 1.095,2.312 0.711,0.736 1.234,1.412 0.842,1.989 -0.771,1.129 -1.499,1.479 -2.429,1.479 -0.931,0 -1.533,0.683 -1.533,1.051 0,0.368 0.492,0.21 1.916,0.21 1.423,0 2.682,-0.105 3.448,-1.366 0.67,-1.104 1.299,-1.804 1.336,-2.526 0.005,-0.103 0.117,-0.208 0.354,-0.068 0.376,0.223 0.999,0.542 1.704,0.703 1.149,0.264 1.654,0.85 1.654,1.901 0,1.051 0.042,1.41 -0.779,1.41 -0.82,0 -1.095,0.263 -1.095,0.631 0,0.368 0.821,0.579 1.861,0.526 1.041,-0.053 2.08,-0.42 2.135,-1.734 0.055,-1.314 0.273,-3.048 -0.658,-3.574 -0.93,-0.524 -1.751,-0.998 -1.477,-2.627 0.274,-1.629 0.274,-2.68 0.274,-2.68 0,0 1.058,1.226 2.426,2.75 1.368,1.523 2.528,3.136 4.992,3.609 2.462,0.473 3.853,-0.445 4.453,-1.075 0.602,-0.631 0.224,-1.605 -1.199,-1.5 -1.423,0.105 -3.832,0.315 -5.309,-1.313 -1.479,-1.628 -2.836,-3.838 -6.009,-4.942 -3.175,-1.104 -5.591,-1.212 -8.332,-1.154 -1.085,0.023 -2.048,0.062 -2.957,0.111 l -0.054,0.005 v -7.53 l 0.038,-0.009 c 6.462,-1.558 11.547,-6.645 13.104,-13.107 l 0.015,-0.033 h 6.753 c 0.387,0 0.705,-0.317 0.705,-0.706 v -6.883 c 0,-0.388 -0.318,-0.705 -0.705,-0.705 h -6.753 l -0.018,-0.047 c -1.561,-6.457 -6.645,-11.537 -13.103,-13.094 l -0.036,-0.015 v -2.976 c 0,-0.388 -0.317,-0.705 -0.705,-0.705 h -6.884 c -0.388,0 -0.705,0.317 -0.705,0.705 v 2.976 l -0.021,0.013 c -6.46,1.551 -11.548,6.629 -13.114,13.084 l -0.014,0.06 h -6.758 c -0.388,0 -0.705,0.317 -0.705,0.705 v 6.883 c 0,0.388 0.317,0.706 0.705,0.706 h 6.758 l 0.015,0.061 c 1.564,6.447 6.641,11.52 13.091,13.078 l 0.043,0.011 v 8.106 l -0.033,-0.005 c -2.758,0.14 -5.67,0.158 -6.688,-0.354 -1.443,-0.726 -2.023,-1.706 -2.285,-2.88 -0.184,-0.821 -0.328,-1.53 -0.396,-1.881 -0.031,-0.152 -0.133,-0.18 -0.26,-0.088 -0.241,0.175 -0.631,0.472 -0.856,0.726 0,0 -0.002,-0.241 -0.03,-0.529 -0.007,-0.077 -0.114,-0.198 -0.259,-0.112 -0.235,0.142 -0.622,0.407 -1.025,0.823 -0.509,0.525 -0.216,0.951 -1.079,1.168 -0.863,0.216 -1.459,0.929 -2.342,1.003 -0.882,0.074 -1.544,0.311 -1.437,0.732 0.108,0.421 0.485,1.735 1.693,1.857 1.208,0.123 2.029,0.202 2.611,0.461 0.582,0.259 1.142,0.883 1.843,1.996 0.701,1.114 1.222,1.928 0.92,2.261 -0.3,0.333 -1.047,0.678 -1.777,0.78 -0.73,0.101 -2.381,0.718 -3.149,1.261 -0.769,0.542 -1.48,0.848 -0.767,1.269 0.319,0.188 1.136,0.26 1.778,-0.12 0.642,-0.38 2.456,-1.236 4.241,-1.202 1.84,0.036 2.529,-0.012 3.475,0.729 0.569,0.445 1.784,1.54 1.873,2.404 0.143,1.385 -0.097,2.872 -0.729,2.96 -0.633,0.088 -1.419,0.149 -1.382,0.773 0.037,0.625 0.358,0.435 1.533,0.32 1.175,-0.115 1.91,-0.896 2.119,-1.894 0.209,-0.998 0.2,-1.772 0.412,-3.109 0.099,-0.626 0.236,-0.973 0.33,-1.179 0.419,-0.919 0.567,-1.598 1.628,-1.982 l 0.04,-0.015 v 19.928 l -0.033,0.012 c -2.758,0.14 -5.671,0.158 -6.688,-0.354 -1.443,-0.726 -2.023,-1.705 -2.285,-2.88 -0.184,-0.821 -0.328,-1.53 -0.396,-1.882 -0.031,-0.151 -0.133,-0.179 -0.26,-0.087 -0.241,0.175 -0.631,0.473 -0.856,0.726 0,0 -0.002,-0.242 -0.03,-0.529 -0.007,-0.077 -0.114,-0.198 -0.259,-0.111 -0.235,0.142 -0.622,0.407 -1.025,0.822 -0.509,0.526 -0.216,0.952 -1.079,1.168 -0.863,0.217 -1.459,0.929 -2.342,1.004 -0.882,0.074 -1.544,0.311 -1.437,0.732 0.108,0.421 0.485,1.735 1.693,1.857 1.208,0.123 2.029,0.203 2.611,0.46 0.582,0.259 1.142,0.883 1.843,1.997 0.701,1.114 1.222,1.929 0.92,2.261 -0.3,0.333 -1.047,0.678 -1.777,0.78 -0.73,0.102 -2.381,0.718 -3.149,1.261 -0.769,0.542 -1.48,0.849 -0.767,1.269 0.319,0.188 1.136,0.261 1.778,-0.119 0.642,-0.38 2.456,-1.235 4.241,-1.202 1.84,0.036 2.529,-0.012 3.475,0.729 0.569,0.445 1.784,1.54 1.873,2.404 0.143,1.385 -0.097,2.872 -0.729,2.96 -0.633,0.087 -1.419,0.148 -1.382,0.773 0.037,0.624 0.358,0.434 1.533,0.32 1.175,-0.115 1.91,-0.896 2.119,-1.893 0.209,-0.998 0.2,-1.772 0.412,-3.11 0.099,-0.625 0.236,-0.973 0.33,-1.179 0.419,-0.918 0.567,-1.596 1.625,-1.98 l 0.042,-0.002 v 15.262 l -0.109,-0.026 -45.073,-10.829 c -0.377,-0.091 -0.95,0.011 -1.273,0.225 l -27.074,17.957 c -0.324,0.214 -0.588,0.072 -0.588,-0.315 v -47.966 c 0,-0.388 -0.318,-0.705 -0.706,-0.705 h -30.861 c -0.388,0 -0.706,0.317 -0.706,0.705 v 34.759 c 0,0.388 -0.318,0.706 -0.706,0.706 h -57.274 l -0.015,-0.07 c -4.377,-27.391 -7.534,-56.945 -9.645,-89.931 20.71,0 269.555,0 333.649,0 l -0.08,0.064 -136.66,100.926 -0.065,-0.02 z"
   id="path13"
   inkscape:connector-curvature="0"
   style="fill:#ffffff" />
	<path
   d="m 75.279,268.25 c -0.239,0.306 -0.752,0.556 -1.14,0.556 h -9.993 c -0.388,0 -0.509,-0.25 -0.271,-0.556 l 19.462,-24.92 c 0.239,-0.306 0.239,-0.806 0,-1.112 L 63.875,217.297 c -0.238,-0.306 -0.117,-0.556 0.271,-0.556 h 9.993 c 0.388,0 0.9,0.25 1.14,0.556 l 13.761,17.621 c 0.239,0.306 0.629,0.306 0.869,0 l 13.76,-17.621 c 0.239,-0.306 0.752,-0.556 1.14,-0.556 h 9.993 c 0.388,0 0.51,0.25 0.271,0.556 L 95.61,242.218 c -0.239,0.306 -0.239,0.806 0,1.112 l 19.462,24.92 c 0.239,0.306 0.117,0.556 -0.271,0.556 h -9.993 c -0.388,0 -0.901,-0.25 -1.14,-0.556 L 89.907,250.629 c -0.239,-0.305 -0.629,-0.305 -0.869,0 L 75.279,268.25 z"
   id="path15"
   inkscape:connector-curvature="0" />
	<path
   d="m 522.721,268.25 c 0.238,0.306 0.752,0.556 1.139,0.556 h 9.994 c 0.388,0 0.51,-0.25 0.271,-0.556 l -19.462,-24.92 c -0.239,-0.306 -0.239,-0.806 0,-1.112 l 19.462,-24.921 c 0.239,-0.306 0.117,-0.556 -0.271,-0.556 h -9.994 c -0.387,0 -0.9,0.25 -1.139,0.556 l -13.761,17.621 c -0.239,0.306 -0.629,0.306 -0.869,0 l -13.76,-17.621 c -0.238,-0.306 -0.751,-0.556 -1.139,-0.556 h -9.994 c -0.388,0 -0.509,0.25 -0.271,0.556 l 19.462,24.921 c 0.239,0.306 0.239,0.806 0,1.112 l -19.462,24.92 c -0.238,0.306 -0.117,0.556 0.271,0.556 h 9.994 c 0.388,0 0.9,-0.25 1.139,-0.556 l 13.761,-17.621 c 0.239,-0.305 0.63,-0.305 0.868,0 l 13.761,17.621 z"
   id="path17"
   inkscape:connector-curvature="0" />
	<path
   d="m 165.919,226.993 c -6.647,0 -12.351,3.288 -14.788,7.973 h 29.577 c -2.436,-4.685 -8.14,-7.973 -14.789,-7.973 l 0,0 z"
   id="path19"
   inkscape:connector-curvature="0" />
	<path
   d="m 290.17,273.835 -27.154,20.054 10e-4,-0.044 c 0.414,-4.25 1.278,-10.061 3.072,-14.672 2.543,-6.541 7.574,-14.713 13.285,-14.705 l 0,0 c 4.191,-0.007 8.016,4.393 10.76,9.321 l 0.036,0.046 z"
   id="path21"
   inkscape:connector-curvature="0"
   style="fill:#ffffff" />
	<path
   d="m 173.349,375.001 298.854,-220.709 0.083,-0.069 c -3.553,52.25 -9.813,95.869 -19.489,136.07 -13.223,54.931 -32.458,101.264 -58.804,141.648 -28.81,44.161 -66.178,83.584 -94.992,110.942 -28.815,-27.358 -66.183,-66.781 -94.992,-110.942 -11.577,-17.746 -21.781,-36.64 -30.705,-56.909 l 0.045,-0.031 z"
   id="path23"
   inkscape:connector-curvature="0"
   style="fill:#ffffff" />
	<path
   d="m 277.048,521.239 c 7.651,7.841 15.047,15.089 21.952,21.645 6.213,-5.899 12.826,-12.36 19.663,-19.309 l 0.021,-0.018 V 267.682 l -0.027,0.008 -41.609,30.728 -0.022,0.02 V 521.21 l 0.022,0.029 z"
   id="path25"
   inkscape:connector-curvature="0"
   style="fill:#ee2523" />
	<path
   d="M 356.606,481.961 V 239.664 l 0.027,-0.022 41.602,-30.723 0.029,-0.01 v 216.336 l -0.021,0.029 c -1.396,2.24 -2.813,4.462 -4.251,6.667 -11.461,17.566 -24.275,34.385 -37.367,49.99 l -0.019,0.03 z"
   id="path27"
   inkscape:connector-curvature="0"
   style="fill:#ee2523" />
	<path
   d="m 197.482,421.577 c 2.125,3.499 4.3,6.953 6.526,10.364 10.786,16.535 22.772,32.404 35.06,47.225 l 0.035,0.044 V 326.443 l -0.038,0.026 -41.592,30.717 -0.028,0.027 v 64.285 l 0.037,0.079 z"
   id="path29"
   inkscape:connector-curvature="0"
   style="fill:#ee2523" />
	<path
   d="M 436.188,346.255 V 180.904 l 0.022,-0.03 35.992,-26.582 0.083,-0.069 c -3.553,52.25 -9.813,95.869 -19.489,136.07 -4.744,19.707 -10.262,38.306 -16.603,55.922 l -0.005,0.04 z"
   id="path31"
   inkscape:connector-curvature="0"
   style="fill:#ee2523" />
	<path
   d="m 209.888,166.642 15.086,30.155 c 0.174,0.347 -0.002,0.631 -0.39,0.631 h -30.861 c -0.388,0 -0.563,-0.284 -0.39,-0.631 l 15.081,-30.144 0.049,-0.105 v -5.903 l -0.026,-0.03 c -0.938,-0.961 -1.617,-3.539 -1.617,-4.578 0,-1.29 1.045,-2.335 2.334,-2.335 1.289,0 2.334,1.045 2.334,2.335 0,1.042 -0.683,3.63 -1.625,4.585 l -0.019,0.022 v 5.933 l 0.044,0.065 z"
   id="path33"
   inkscape:connector-curvature="0" />
	<path
   d="m 205.378,304.833 c -0.602,0.991 -0.917,1.396 -1.619,1.396 -0.702,0 -1.017,-0.404 -1.62,-1.396 -0.54,-0.889 -1.279,-2.107 -2.854,-2.107 -1.574,0 -2.313,1.218 -2.853,2.107 -0.603,0.992 -0.918,1.396 -1.62,1.396 -0.702,0 -1.017,-0.404 -1.62,-1.396 -0.54,-0.889 -1.279,-2.107 -2.853,-2.107 -1.575,0 -2.314,1.218 -2.854,2.106 -0.603,0.992 -0.918,1.396 -1.62,1.396 v 1.843 c 1.809,0 2.61,-1.319 3.195,-2.282 0.526,-0.867 0.79,-1.22 1.279,-1.22 0.488,0 0.751,0.353 1.278,1.22 0.584,0.963 1.386,2.282 3.194,2.282 1.808,0 2.609,-1.319 3.194,-2.282 0.527,-0.867 0.79,-1.22 1.278,-1.22 0.489,0 0.752,0.353 1.279,1.22 0.585,0.963 1.386,2.282 3.195,2.282 1.808,0 2.609,-1.319 3.194,-2.282 0.527,-0.867 0.79,-1.22 1.279,-1.22 0.489,0 0.752,0.353 1.278,1.22 0.585,0.963 1.386,2.282 3.194,2.282 v -1.843 c -0.702,0 -1.017,-0.404 -1.619,-1.396 -0.54,-0.889 -1.279,-2.106 -2.854,-2.106 -1.571,0 -2.31,1.218 -2.851,2.107 z"
   id="path35"
   inkscape:connector-curvature="0" />
	<path
   d="m 174.034,304.833 c -0.602,0.991 -0.917,1.396 -1.619,1.396 -0.702,0 -1.017,-0.404 -1.619,-1.396 -0.54,-0.889 -1.279,-2.107 -2.854,-2.107 -1.574,0 -2.314,1.218 -2.854,2.107 -0.602,0.992 -0.917,1.396 -1.619,1.396 -0.702,0 -1.017,-0.404 -1.62,-1.396 -0.541,-0.889 -1.28,-2.107 -2.854,-2.107 -1.574,0 -2.314,1.218 -2.854,2.106 -0.603,0.992 -0.918,1.396 -1.62,1.396 v 1.843 c 1.809,0 2.609,-1.319 3.194,-2.282 0.527,-0.867 0.79,-1.22 1.279,-1.22 0.488,0 0.752,0.353 1.279,1.22 0.585,0.963 1.386,2.282 3.195,2.282 1.808,0 2.609,-1.319 3.194,-2.282 0.527,-0.867 0.79,-1.22 1.279,-1.22 0.489,0 0.752,0.353 1.278,1.22 0.585,0.963 1.386,2.282 3.195,2.282 1.808,0 2.61,-1.319 3.195,-2.282 0.526,-0.867 0.79,-1.22 1.278,-1.22 0.489,0 0.752,0.353 1.279,1.22 0.585,0.963 1.386,2.282 3.194,2.282 v -1.843 c -0.701,0 -1.017,-0.404 -1.619,-1.396 -0.54,-0.889 -1.279,-2.106 -2.854,-2.106 -1.574,0 -2.313,1.218 -2.853,2.107 z"
   id="path37"
   inkscape:connector-curvature="0" />
	<path
   d="m 247.173,296.146 c -0.603,0.992 -0.917,1.396 -1.62,1.396 -0.702,0 -1.017,-0.404 -1.619,-1.396 -0.54,-0.889 -1.28,-2.106 -2.854,-2.106 -1.575,0 -2.314,1.217 -2.854,2.106 -0.602,0.991 -0.917,1.396 -1.619,1.396 -0.702,0 -1.017,-0.404 -1.62,-1.396 -0.54,-0.889 -1.279,-2.105 -2.854,-2.105 -1.574,0 -2.313,1.217 -2.854,2.105 -0.603,0.992 -0.918,1.396 -1.619,1.396 v 1.843 c 1.808,0 2.609,-1.319 3.194,-2.282 0.527,-0.868 0.791,-1.22 1.279,-1.22 0.489,0 0.753,0.353 1.279,1.22 0.585,0.963 1.386,2.282 3.195,2.282 1.808,0 2.609,-1.319 3.194,-2.282 0.527,-0.868 0.79,-1.22 1.279,-1.22 0.489,0 0.752,0.353 1.278,1.22 0.585,0.963 1.386,2.282 3.194,2.282 1.809,0 2.61,-1.319 3.195,-2.282 0.527,-0.868 0.79,-1.22 1.279,-1.22 0.489,0 0.751,0.353 1.279,1.22 0.585,0.963 1.386,2.282 3.194,2.282 v -1.843 c -0.702,0 -1.017,-0.404 -1.62,-1.396 -0.54,-0.889 -1.28,-2.105 -2.854,-2.105 -1.572,0 -2.312,1.216 -2.852,2.105 z"
   id="path39"
   inkscape:connector-curvature="0" />
	<path
   d="m 205.378,322.205 c -0.602,0.991 -0.917,1.395 -1.619,1.395 -0.702,0 -1.017,-0.404 -1.62,-1.395 -0.54,-0.889 -1.279,-2.107 -2.854,-2.107 -1.574,0 -2.313,1.218 -2.853,2.107 -0.603,0.992 -0.918,1.395 -1.62,1.395 -0.702,0 -1.017,-0.404 -1.62,-1.395 -0.54,-0.889 -1.279,-2.107 -2.853,-2.107 -1.575,0 -2.314,1.218 -2.854,2.106 -0.603,0.992 -0.918,1.396 -1.62,1.396 v 1.843 c 1.809,0 2.61,-1.319 3.195,-2.282 0.526,-0.867 0.79,-1.22 1.279,-1.22 0.488,0 0.751,0.354 1.278,1.22 0.584,0.963 1.386,2.282 3.194,2.282 1.808,0 2.609,-1.319 3.194,-2.282 0.527,-0.867 0.79,-1.22 1.278,-1.22 0.489,0 0.752,0.354 1.279,1.22 0.585,0.963 1.386,2.282 3.195,2.282 1.808,0 2.609,-1.319 3.194,-2.282 0.527,-0.867 0.79,-1.22 1.279,-1.22 0.489,0 0.752,0.354 1.278,1.22 0.585,0.963 1.386,2.282 3.194,2.282 V 323.6 c -0.702,0 -1.017,-0.404 -1.619,-1.396 -0.54,-0.889 -1.279,-2.106 -2.854,-2.106 -1.571,0 -2.31,1.218 -2.851,2.107 z"
   id="path41"
   inkscape:connector-curvature="0" />
	<path
   d="m 189.706,313.519 c -0.602,0.991 -0.917,1.395 -1.619,1.395 -0.702,0 -1.017,-0.404 -1.619,-1.395 -0.54,-0.889 -1.28,-2.107 -2.854,-2.107 -1.574,0 -2.314,1.218 -2.854,2.107 -0.602,0.992 -0.918,1.395 -1.619,1.395 -0.702,0 -1.017,-0.404 -1.62,-1.395 -0.54,-0.889 -1.279,-2.107 -2.854,-2.107 -1.575,0 -2.313,1.218 -2.854,2.106 -0.603,0.992 -0.918,1.396 -1.62,1.396 v 1.843 c 1.809,0 2.609,-1.319 3.194,-2.282 0.527,-0.867 0.79,-1.221 1.279,-1.221 0.489,0 0.752,0.354 1.279,1.221 0.585,0.963 1.386,2.282 3.195,2.282 1.808,0 2.609,-1.319 3.194,-2.282 0.527,-0.867 0.79,-1.221 1.279,-1.221 0.489,0 0.752,0.354 1.279,1.221 0.585,0.963 1.386,2.282 3.194,2.282 1.808,0 2.609,-1.319 3.195,-2.282 0.526,-0.867 0.79,-1.221 1.279,-1.221 0.489,0 0.751,0.354 1.278,1.221 0.585,0.963 1.386,2.282 3.194,2.282 v -1.843 c -0.702,0 -1.017,-0.404 -1.619,-1.396 -0.54,-0.889 -1.28,-2.106 -2.854,-2.106 -1.573,0 -2.313,1.218 -2.853,2.107 z"
   id="path43"
   inkscape:connector-curvature="0" />
	<path
   d="m 221.052,313.519 c -0.603,0.991 -0.918,1.395 -1.62,1.395 -0.702,0 -1.017,-0.404 -1.619,-1.395 -0.54,-0.889 -1.28,-2.107 -2.854,-2.107 -1.575,0 -2.314,1.218 -2.854,2.107 -0.602,0.992 -0.917,1.395 -1.619,1.395 -0.702,0 -1.017,-0.404 -1.619,-1.395 -0.541,-0.889 -1.28,-2.107 -2.854,-2.107 -1.574,0 -2.314,1.218 -2.854,2.106 -0.602,0.992 -0.917,1.396 -1.619,1.396 v 1.843 c 1.808,0 2.609,-1.319 3.194,-2.282 0.526,-0.867 0.79,-1.221 1.278,-1.221 0.489,0 0.752,0.354 1.279,1.221 0.585,0.963 1.386,2.282 3.194,2.282 1.809,0 2.61,-1.319 3.195,-2.282 0.526,-0.867 0.79,-1.221 1.279,-1.221 0.488,0 0.751,0.354 1.278,1.221 0.585,0.963 1.386,2.282 3.194,2.282 1.809,0 2.61,-1.319 3.194,-2.282 0.527,-0.867 0.79,-1.221 1.279,-1.221 0.489,0 0.752,0.354 1.279,1.221 0.585,0.963 1.386,2.282 3.195,2.282 v -1.843 c -0.702,0 -1.017,-0.404 -1.62,-1.396 -0.54,-0.889 -1.279,-2.106 -2.854,-2.106 -1.572,0 -2.312,1.218 -2.852,2.107 z"
   id="path45"
   inkscape:connector-curvature="0" />
	<path
   d="m 189.706,330.891 c -0.602,0.992 -0.917,1.396 -1.619,1.396 -0.702,0 -1.017,-0.404 -1.619,-1.395 -0.54,-0.889 -1.28,-2.106 -2.854,-2.106 -1.574,0 -2.314,1.217 -2.854,2.106 -0.602,0.991 -0.918,1.395 -1.619,1.395 -0.702,0 -1.017,-0.404 -1.62,-1.396 -0.54,-0.889 -1.279,-2.106 -2.854,-2.106 -1.575,0 -2.313,1.217 -2.854,2.106 -0.603,0.992 -0.918,1.396 -1.62,1.396 v 1.843 c 1.809,0 2.609,-1.319 3.194,-2.282 0.527,-0.867 0.79,-1.22 1.279,-1.22 0.489,0 0.752,0.354 1.279,1.22 0.585,0.963 1.386,2.282 3.195,2.282 1.808,0 2.609,-1.319 3.194,-2.282 0.527,-0.867 0.79,-1.22 1.279,-1.22 0.489,0 0.752,0.354 1.279,1.22 0.585,0.963 1.386,2.282 3.194,2.282 1.808,0 2.609,-1.319 3.195,-2.282 0.526,-0.867 0.79,-1.22 1.279,-1.22 0.489,0 0.751,0.354 1.278,1.22 0.585,0.963 1.386,2.282 3.194,2.282 v -1.843 c -0.702,0 -1.017,-0.404 -1.619,-1.396 -0.54,-0.889 -1.28,-2.106 -2.854,-2.106 -1.573,0 -2.313,1.217 -2.853,2.106 z"
   id="path47"
   inkscape:connector-curvature="0" />
	<path
   d="m 166.41,358.457 c 0.689,1.757 1.387,3.503 2.094,5.24 l 0.047,-0.044 4.924,-3.636 -0.09,0.026 c -0.288,0.092 -0.609,0.145 -0.97,0.145 -1.809,0 -2.61,-1.319 -3.195,-2.282 -0.526,-0.867 -0.79,-1.22 -1.278,-1.22 -0.489,0 -0.752,0.353 -1.279,1.22 -0.089,0.147 -0.184,0.303 -0.286,0.46 l 0.033,0.091 z"
   id="path49"
   inkscape:connector-curvature="0"
   style="fill:#ffffff" />
	<path
   d="m 174.884,358.976 2.667,-1.97 -0.047,-0.045 c -0.19,-0.19 -0.376,-0.276 -0.617,-0.276 -0.488,0 -0.752,0.353 -1.278,1.22 -0.188,0.308 -0.397,0.653 -0.656,0.98 l -0.069,0.091 z"
   id="path51"
   inkscape:connector-curvature="0"
   style="fill:#ffffff" />
	<path
   d="m 386.189,510.673 c -0.778,-15.366 4.6,-22.662 8.555,-25.131 3.961,-2.47 9.725,-2.12 10.506,13.241 0.782,15.361 -4.594,22.658 -8.554,25.127 -3.956,2.471 -9.723,2.125 -10.507,-13.237 z m -7.328,4.571 c 1.309,25.759 13.688,21.271 18.331,18.376 4.641,-2.899 16.7,-13.651 15.392,-39.413 -1.313,-25.758 -13.688,-21.269 -18.332,-18.37 -4.645,2.894 -16.703,13.651 -15.391,39.407 z"
   id="path53"
   inkscape:connector-curvature="0" />
	<path
   d="m 205.161,512.46 10.021,10.862 c 2.835,3.068 5.667,8.005 5.667,12.902 0,5.673 -2.203,5.768 -6.031,1.617 l -9.656,-10.465 V 512.46 z m -7.558,16.363 15.955,17.289 c 7.712,8.358 9.758,8.636 11.909,7.857 1.996,-0.713 3.256,-3.543 3.256,-7.972 0,-5.517 -1.206,-12.266 -5.824,-19.835 1.572,0.543 4.618,1.586 4.618,-6.415 0,-5.752 -2.362,-16.857 -11.598,-26.866 l -18.315,-19.846 v 55.788 z m 7.558,-37.963 9.024,9.78 c 3.568,3.866 5.772,7.653 5.772,12.236 0,4.432 -2.466,3.544 -5.562,0.189 L 205.16,503.056 V 490.86 z"
   id="path55"
   inkscape:connector-curvature="0" />
	<path
   d="m 245.481,582.109 -8.228,-8.184 v -55.792 l 8.228,8.185 v 55.791 z"
   id="path57"
   inkscape:connector-curvature="0" />
	<path
   d="m 272.172,597.395 18.807,17.37 -0.011,10.086 -27.317,-25.225 v -55.791 l 8.521,7.873 v 45.687 z"
   id="path59"
   inkscape:connector-curvature="0" />
	<path
   d="m 311.286,597.41 10.122,-8.886 c 2.861,-2.511 5.724,-3.206 5.724,1.567 0,5.527 -2.227,9.906 -6.096,13.302 l -9.75,8.563 V 597.41 z m -7.634,30.637 16.113,-14.145 c 7.791,-6.837 9.855,-10.547 12.028,-15.483 2.017,-4.571 3.287,-9.777 3.287,-14.095 0,-5.38 -1.219,-9.609 -5.882,-8.017 1.588,-2.53 4.663,-7.425 4.663,-15.229 0,-5.603 -2.384,-11.841 -11.712,-3.653 l -18.498,16.234 v 54.388 z m 7.634,-51.693 9.114,-8.001 c 3.603,-3.165 5.828,-3.753 5.828,0.712 0,4.318 -2.489,8.249 -5.617,10.992 l -9.325,8.191 v -11.894 z"
   id="path61"
   inkscape:connector-curvature="0" />
	<path
   d="m 360.768,531.481 0.112,-0.105 5.109,17.459 -10.506,9.475 5.285,-26.829 z m -7.581,38.533 15.218,-13.716 2.64,9.117 8.291,-7.471 -14.317,-42.882 -9.075,8.179 -14.703,69.04 9.075,-8.176 2.871,-14.091 z"
   id="path63"
   inkscape:connector-curvature="0" />
	<g
   id="g65">
		<g
   id="g67">
			<path
   d="m 88.23,85.132 c -0.131,0 -0.25,0.077 -0.305,0.197 l -15.932,35.248 c -0.047,0.104 -0.037,0.223 0.023,0.319 0.062,0.095 0.167,0.153 0.281,0.153 h 5.546 c 0.132,0 0.251,-0.077 0.305,-0.197 0,0 4.957,-11.055 5.128,-11.437 0.416,0 14.886,0 15.307,0 0.169,0.39 4.942,11.432 4.942,11.432 0.053,0.123 0.173,0.202 0.307,0.202 h 5.733 c 0.113,0 0.219,-0.057 0.28,-0.152 0.062,-0.095 0.071,-0.215 0.025,-0.319 L 94.176,85.33 C 94.122,85.209 94.002,85.132 93.87,85.132 h -5.64 z m 2.727,7.425 c 0.522,1.155 4.656,10.297 5.028,11.12 -0.896,0 -9.16,0 -10.055,0 0.371,-0.823 4.505,-9.965 5.027,-11.12 z"
   id="path69"
   inkscape:connector-curvature="0" />
		</g>
		<g
   id="g71">
			<path
   d="m 111.948,85.132 c -0.185,0 -0.335,0.149 -0.335,0.334 v 5.068 c 0,0.185 0.15,0.334 0.335,0.334 0,0 11.393,0 12.025,0 0,0.654 0,29.845 0,29.845 0,0.185 0.15,0.334 0.335,0.334 h 5.068 c 0.185,0 0.334,-0.15 0.334,-0.334 0,0 0,-29.191 0,-29.845 0.634,0 12.026,0 12.026,0 0.184,0 0.333,-0.15 0.333,-0.334 v -5.068 c 0,-0.185 -0.149,-0.334 -0.333,-0.334 h -29.788 z"
   id="path73"
   inkscape:connector-curvature="0" />
		</g>
		<g
   id="g75">
			<path
   d="m 176.225,85.132 c -0.185,0 -0.334,0.149 -0.334,0.334 0,0 0,13.253 0,13.892 -0.637,0 -19.371,0 -20.007,0 0,-0.638 0,-13.892 0,-13.892 0,-0.185 -0.15,-0.334 -0.335,-0.334 h -5.068 c -0.185,0 -0.334,0.149 -0.334,0.334 v 35.247 c 0,0.185 0.149,0.334 0.334,0.334 h 5.068 c 0.185,0 0.335,-0.15 0.335,-0.334 0,0 0,-14.978 0,-15.619 0.636,0 19.37,0 20.007,0 0,0.641 0,15.619 0,15.619 0,0.185 0.149,0.334 0.334,0.334 h 5.068 c 0.185,0 0.334,-0.15 0.334,-0.334 V 85.466 c 0,-0.185 -0.15,-0.334 -0.334,-0.334 h -5.068 z"
   id="path77"
   inkscape:connector-curvature="0" />
		</g>
		<g
   id="g79">
			<path
   d="m 194.396,85.132 c -0.186,0 -0.335,0.149 -0.335,0.334 v 35.247 c 0,0.185 0.149,0.334 0.335,0.334 h 26.451 c 0.185,0 0.334,-0.15 0.334,-0.334 v -5.068 c 0,-0.185 -0.149,-0.334 -0.334,-0.334 0,0 -20.401,0 -21.049,0 0,-0.654 0,-29.845 0,-29.845 0,-0.185 -0.149,-0.334 -0.333,-0.334 h -5.069 z"
   id="path81"
   inkscape:connector-curvature="0" />
		</g>
		<g
   id="g83">
			<path
   d="m 226.612,85.132 c -0.185,0 -0.335,0.149 -0.335,0.334 v 35.247 c 0,0.185 0.15,0.334 0.335,0.334 h 29.741 c 0.185,0 0.334,-0.15 0.334,-0.334 v -5.068 c 0,-0.185 -0.149,-0.334 -0.334,-0.334 0,0 -23.688,0 -24.338,0 0,-0.608 0,-9.494 0,-10.102 0.632,0 11.65,0 11.65,0 0.185,0 0.334,-0.15 0.334,-0.334 v -5.068 c 0,-0.185 -0.149,-0.334 -0.334,-0.334 0,0 -11.018,0 -11.65,0 0,-0.598 0,-8.006 0,-8.604 0.65,0 23.446,0 23.446,0 0.185,0 0.334,-0.15 0.334,-0.334 v -5.068 c 0,-0.185 -0.149,-0.334 -0.334,-0.334 h -28.849 z"
   id="path85"
   inkscape:connector-curvature="0" />
		</g>
		<g
   id="g87">
			<path
   d="m 261.912,85.132 c -0.184,0 -0.334,0.149 -0.334,0.334 v 5.068 c 0,0.185 0.15,0.334 0.334,0.334 0,0 11.393,0 12.026,0 0,0.654 0,29.845 0,29.845 0,0.185 0.15,0.334 0.334,0.334 h 5.068 c 0.185,0 0.334,-0.15 0.334,-0.334 0,0 0,-29.191 0,-29.845 0.633,0 12.026,0 12.026,0 0.185,0 0.334,-0.15 0.334,-0.334 v -5.068 c 0,-0.185 -0.149,-0.334 -0.334,-0.334 h -29.788 z"
   id="path89"
   inkscape:connector-curvature="0" />
		</g>
		<g
   id="g91">
			<path
   d="m 299.812,85.132 c -0.186,0 -0.334,0.149 -0.334,0.334 v 35.247 c 0,0.185 0.149,0.334 0.334,0.334 h 5.068 c 0.185,0 0.333,-0.15 0.333,-0.334 V 85.466 c 0,-0.185 -0.149,-0.334 -0.333,-0.334 h -5.068 z"
   id="path93"
   inkscape:connector-curvature="0" />
		</g>
		<g
   id="g95">
			<path
   d="m 325.09,85.867 c -2.284,0.983 -4.296,2.343 -5.979,4.042 -1.683,1.7 -3.018,3.728 -3.968,6.028 -0.951,2.3 -1.433,4.802 -1.433,7.434 0,2.733 0.531,5.262 1.579,7.519 1.046,2.254 2.462,4.21 4.209,5.814 1.746,1.604 3.781,2.867 6.049,3.754 2.269,0.888 4.643,1.339 7.053,1.339 2.547,0 4.775,-0.2 6.626,-0.594 1.849,-0.395 3.487,-0.932 4.869,-1.598 1.384,-0.667 2.594,-1.441 3.597,-2.299 0.996,-0.853 1.93,-1.747 2.777,-2.657 0.118,-0.128 0.119,-0.326 0,-0.455 l -3.384,-3.665 c -0.063,-0.068 -0.16,-0.095 -0.251,-0.096 -0.092,-0.001 -0.191,0.047 -0.256,0.113 l -1.585,1.631 c -0.682,0.621 -1.554,1.221 -2.59,1.786 -1.04,0.565 -2.283,1.063 -3.693,1.476 -1.404,0.412 -3.049,0.621 -4.889,0.621 -2.357,0 -4.457,-0.379 -6.237,-1.126 -1.785,-0.747 -3.299,-1.735 -4.499,-2.937 -1.2,-1.2 -2.116,-2.571 -2.724,-4.073 -0.607,-1.504 -0.914,-3.037 -0.914,-4.553 0,-2.134 0.384,-4.047 1.143,-5.688 0.76,-1.642 1.769,-3.037 3,-4.146 1.23,-1.11 2.642,-1.966 4.191,-2.544 1.554,-0.579 3.159,-0.873 4.771,-0.873 1.774,0 3.396,0.216 4.814,0.644 1.434,0.432 2.711,0.938 3.797,1.503 1.084,0.565 2.006,1.154 2.739,1.75 l 1.745,1.391 c 0.125,0.1 0.3,0.093 0.421,-0.01 l 3.808,-3.243 c 0.074,-0.063 0.119,-0.152 0.121,-0.249 0,-0.097 -0.038,-0.187 -0.11,-0.251 l -2.055,-1.816 c -0.938,-0.811 -2.151,-1.629 -3.604,-2.434 -1.456,-0.805 -3.177,-1.518 -5.114,-2.115 -1.953,-0.602 -4.176,-0.907 -6.608,-0.907 -2.634,0 -5.129,0.499 -7.416,1.484 z"
   id="path97"
   inkscape:connector-curvature="0" />
		</g>
		<g
   id="g99">
			<path
   d="m 383.082,85.867 c -2.284,0.983 -4.295,2.343 -5.978,4.042 -1.683,1.7 -3.019,3.728 -3.969,6.028 -0.951,2.3 -1.433,4.802 -1.433,7.434 0,2.733 0.531,5.262 1.579,7.519 1.046,2.254 2.462,4.21 4.209,5.814 1.747,1.604 3.781,2.867 6.049,3.754 2.269,0.888 4.643,1.339 7.053,1.339 2.547,0 4.776,-0.2 6.626,-0.594 1.849,-0.395 3.487,-0.932 4.869,-1.598 1.384,-0.667 2.594,-1.441 3.598,-2.299 0.994,-0.853 1.929,-1.747 2.775,-2.657 0.12,-0.128 0.12,-0.326 0.002,-0.455 l -3.385,-3.665 c -0.062,-0.068 -0.159,-0.095 -0.251,-0.096 -0.092,-0.001 -0.191,0.047 -0.255,0.113 l -1.586,1.631 c -0.682,0.621 -1.554,1.221 -2.59,1.786 -1.04,0.565 -2.283,1.063 -3.694,1.476 -1.404,0.412 -3.048,0.621 -4.888,0.621 -2.358,0 -4.457,-0.379 -6.237,-1.126 -1.785,-0.747 -3.299,-1.735 -4.499,-2.937 -1.2,-1.2 -2.117,-2.571 -2.723,-4.073 -0.607,-1.504 -0.916,-3.037 -0.916,-4.553 0,-2.134 0.385,-4.047 1.144,-5.688 0.761,-1.642 1.77,-3.037 2.999,-4.146 1.231,-1.11 2.643,-1.966 4.193,-2.544 1.553,-0.579 3.158,-0.873 4.771,-0.873 1.775,0 3.395,0.216 4.814,0.644 1.434,0.432 2.712,0.938 3.796,1.503 1.086,0.565 2.007,1.154 2.74,1.75 l 1.746,1.391 c 0.125,0.1 0.299,0.093 0.42,-0.01 l 3.808,-3.243 c 0.073,-0.063 0.12,-0.152 0.12,-0.249 0.001,-0.097 -0.037,-0.187 -0.109,-0.251 l -2.054,-1.816 c -0.938,-0.811 -2.151,-1.629 -3.604,-2.434 -1.457,-0.805 -3.178,-1.518 -5.115,-2.115 -1.953,-0.602 -4.176,-0.907 -6.608,-0.907 -2.634,0 -5.13,0.499 -7.417,1.484 z"
   id="path101"
   inkscape:connector-curvature="0" />
		</g>
		<g
   id="g103">
			<path
   d="m 417.439,85.132 c -0.186,0 -0.334,0.149 -0.334,0.334 v 35.247 c 0,0.185 0.148,0.334 0.334,0.334 h 26.451 c 0.186,0 0.334,-0.15 0.334,-0.334 v -5.068 c 0,-0.185 -0.148,-0.334 -0.334,-0.334 0,0 -20.401,0 -21.049,0 0,-0.654 0,-29.845 0,-29.845 0,-0.185 -0.149,-0.334 -0.335,-0.334 h -5.067 z"
   id="path105"
   inkscape:connector-curvature="0" />
		</g>
		<g
   id="g107">
			<path
   d="m 476.493,85.132 c -0.185,0 -0.334,0.149 -0.334,0.334 v 21.95 c 0,1.246 -0.154,2.417 -0.458,3.481 -0.297,1.037 -0.821,1.945 -1.563,2.701 -0.744,0.758 -1.769,1.362 -3.046,1.798 -1.291,0.44 -2.972,0.663 -4.995,0.663 -2.024,0 -3.705,-0.223 -4.996,-0.663 -1.277,-0.436 -2.302,-1.04 -3.045,-1.798 -0.742,-0.755 -1.267,-1.664 -1.563,-2.701 -0.303,-1.062 -0.457,-2.233 -0.457,-3.481 v -21.95 c 0,-0.185 -0.149,-0.334 -0.334,-0.334 h -5.069 c -0.185,0 -0.333,0.149 -0.333,0.334 v 21.945 c 0,1.682 0.2,3.392 0.597,5.082 0.401,1.721 1.191,3.293 2.348,4.673 1.158,1.383 2.791,2.514 4.854,3.36 2.053,0.843 4.744,1.271 8,1.271 3.255,0 5.946,-0.428 8,-1.271 2.062,-0.846 3.693,-1.977 4.854,-3.36 1.155,-1.38 1.946,-2.952 2.348,-4.673 0.396,-1.694 0.597,-3.404 0.597,-5.082 V 85.466 c 0,-0.185 -0.149,-0.334 -0.334,-0.334 h -5.071 z"
   id="path109"
   inkscape:connector-curvature="0" />
		</g>
		<g
   id="g111">
			<path
   d="m 493.57,85.132 c -0.185,0 -0.334,0.149 -0.334,0.334 v 35.247 c 0,0.185 0.149,0.334 0.334,0.334 h 20.109 c 1.715,0 3.344,-0.227 4.841,-0.673 1.507,-0.449 2.832,-1.125 3.942,-2.011 1.115,-0.89 2,-2.005 2.63,-3.314 0.63,-1.311 0.949,-2.855 0.949,-4.591 0,-1.129 -0.164,-2.185 -0.487,-3.141 -0.322,-0.95 -0.737,-1.801 -1.236,-2.528 -0.5,-0.727 -1.049,-1.35 -1.63,-1.851 -0.454,-0.392 -0.88,-0.633 -1.302,-0.861 0.3,-0.319 0.775,-0.825 0.775,-0.825 0.39,-0.436 0.754,-0.954 1.081,-1.538 0.325,-0.582 0.598,-1.262 0.81,-2.022 0.212,-0.762 0.319,-1.653 0.319,-2.648 0,-1.703 -0.312,-3.199 -0.929,-4.444 -0.613,-1.242 -1.426,-2.282 -2.414,-3.092 -0.984,-0.807 -2.131,-1.412 -3.406,-1.799 -1.266,-0.384 -2.587,-0.578 -3.93,-0.578 H 493.57 z m 20.128,5.737 c 1.692,0 2.954,0.373 3.75,1.109 0.799,0.74 1.187,1.743 1.187,3.066 0,1.501 -0.412,2.695 -1.227,3.551 -0.808,0.85 -2.056,1.281 -3.71,1.281 0,0 -14.086,0 -14.726,0 0,-0.601 0,-8.406 0,-9.007 0.64,0 14.726,0 14.726,0 z m -0.015,14.743 c 1.278,0 2.362,0.123 3.224,0.365 0.844,0.238 1.532,0.566 2.043,0.976 0.502,0.402 0.844,0.884 1.045,1.473 0.206,0.607 0.311,1.292 0.311,2.036 0,1.603 -0.511,2.78 -1.563,3.601 -1.063,0.828 -2.765,1.249 -5.06,1.249 0,0 -14.07,0 -14.71,0 0,-0.605 0,-9.093 0,-9.699 0.639,-0.001 14.71,-0.001 14.71,-0.001 z"
   id="path113"
   inkscape:connector-curvature="0" />
		</g>
	</g>
</g>
</svg>