<?xml version="1.0" encoding="UTF-8" standalone="no"?>
<!-- Generator: Adobe Illustrator 15.0.2, SVG Export Plug-In . SVG Version: 6.00 Build 0)  -->

<svg
   xmlns:dc="http://purl.org/dc/elements/1.1/"
   xmlns:cc="http://creativecommons.org/ns#"
   xmlns:rdf="http://www.w3.org/1999/02/22-rdf-syntax-ns#"
   xmlns:svg="http://www.w3.org/2000/svg"
   xmlns="http://www.w3.org/2000/svg"
   xmlns:sodipodi="http://sodipodi.sourceforge.net/DTD/sodipodi-0.dtd"
   xmlns:inkscape="http://www.inkscape.org/namespaces/inkscape"
   version="1.1"
   id="Capa_1"
   x="0px"
   y="0px"
   width="124.43891"
   height="220"
   viewBox="0 0 24.098348 483.77086"
   enable-background="new 0 0 841 595"
   xml:space="preserve"
   inkscape:version="0.48.2 r9819"
   sodipodi:docname="Celta de Vigo.svg"><metadata
   id="metadata137"><rdf:RDF><cc:Work
       rdf:about=""><dc:format>image/svg+xml</dc:format><dc:type
         rdf:resource="http://purl.org/dc/dcmitype/StillImage" /><dc:title /></cc:Work></rdf:RDF></metadata><defs
   id="defs135" /><sodipodi:namedview
   pagecolor="#ffffff"
   bordercolor="#666666"
   borderopacity="1"
   objecttolerance="10"
   gridtolerance="10"
   guidetolerance="10"
   inkscape:pageopacity="0"
   inkscape:pageshadow="2"
   inkscape:window-width="1280"
   inkscape:window-height="968"
   id="namedview133"
   showgrid="false"
   fit-margin-top="0"
   fit-margin-left="0"
   fit-margin-right="0"
   fit-margin-bottom="0"
   inkscape:zoom="3.4136364"
   inkscape:cx="62.219454"
   inkscape:cy="110"
   inkscape:window-x="-4"
   inkscape:window-y="-4"
   inkscape:window-maximized="1"
   inkscape:current-layer="Capa_1" />
<path
   style="fill:#e5254e"
   inkscape:connector-curvature="0"
   id="path26"
   d="m 19.963082,238.81041 c 2.29728,-0.38634 4.63213,-0.19585 6.94551,-0.1217 -3.0863,8.5022 -1.7981,18.39852 3.46739,25.74233 4.21347,6.05396 10.94965,9.87243 17.96494,11.98434 -5.18498,30.0845 -10.45048,60.14839 -15.66766,90.22781 -6.82743,39.0374 -13.48846,78.11072 -20.42324,117.12766 -0.56359,-2.36785 -0.95004,-4.7687 -1.35797,-7.16411 -11.58301038,-66.56725 -23.2197,-133.12357 -34.77587,-199.69632 6.40876,-2.04508 12.59746,-5.41745 16.8216596,-10.71926 5.2977,-6.45797 7.33734002,-15.26536 5.73247,-23.34894 2.48514,-0.92761 5.0991,-1.54905 7.76673,-1.48793 1.58341,0.0897 3.16144,0.27481 4.7502104,0.32744 3.05947,-0.53979 5.711,-2.35264 8.77583,-2.87129 z" />
<g
   id="g3"
   transform="translate(-476.59782,-104.425)">
	<path
   d="m 489.182,204.637 -10.897,-0.001 c -0.02,-19.658 -0.761,-43.929 -4.554,-45.535 -4.585,-1.942 -9.338,0.749 -5.965,7.455 3.713,7.381 1.666,12.602 -5.66,13.335 -5.966,0.596 -14.097,-0.626 -18.201,-14.826 -4.913,-16.997 6.358,-21.164 24.712,-38.525 16.232,-15.358 20.565,-22.115 20.565,-22.115 0,0 4.333,6.757 20.565,22.113 18.354,17.364 29.624,21.531 24.712,38.527 -4.105,14.2 -12.235,15.423 -18.199,14.827 -7.328,-0.732 -9.374,-5.955 -5.661,-13.337 3.373,-6.704 -1.38,-9.397 -5.965,-7.453 -3.794,1.605 -4.532,25.876 -4.555,45.537 l -10.897,-0.002 z"
   id="path5"
   inkscape:connector-curvature="0"
   style="fill:#e5254e" />
	<path
   d="m 366.628,265.271 c -2.573,-2.115 -4.167,-5.225 -6.12,-7.313 -2.281,-2.438 -5.133,-4.438 -8.679,-4.481 3.546,-0.043 6.397,-2.042 8.68,-4.48 1.952,-2.087 3.546,-5.198 6.119,-7.313 1.611,-1.462 3.731,-2.352 6.055,-2.35 3.84,0.001 7.124,2.424 8.471,5.854 1.884,-0.007 7.794,-0.04 11.115,-0.252 3.985,-0.252 6.977,-0.252 2.243,-3.779 l -2.283,-1.73 c -3.135,-1.943 -5.636,-4.848 -7.11,-8.313 -0.208,-0.471 -0.4,-0.961 -0.578,-1.476 -0.245,-0.709 -0.425,-1.439 -0.543,-2.182 -0.224,-1.156 -0.343,-2.352 -0.344,-3.574 10e-4,-9.708 7.455,-17.637 16.834,-18.139 1.181,-0.109 2.389,-0.067 3.607,0.15 0.428,0.076 0.846,0.166 1.258,0.267 1.828,0.456 3.519,1.165 5.524,2.32 l 0.496,0.328 c 8.924,5.691 13.097,16.983 13.097,16.983 0,0 -2.155,-1.154 -11.521,-3.036 -6.958,-1.397 -11.295,1.881 -10.214,8.57 1.624,10.063 14.95,12.604 14.95,12.604 h 23.354 v 19.095 h -23.354 c 0,0 -13.325,2.54 -14.949,12.603 -1.081,6.688 3.257,9.969 10.214,8.57 9.367,-1.881 11.522,-3.036 11.522,-3.036 0,0 -4.172,11.292 -13.097,16.983 l -0.495,0.326 c -2.007,1.157 -3.697,1.866 -5.525,2.32 -0.412,0.104 -0.831,0.192 -1.257,0.268 -1.219,0.216 -2.427,0.258 -3.608,0.15 -9.38,-0.503 -16.834,-8.431 -16.834,-18.14 0,-1.223 0.119,-2.419 0.344,-3.574 0.119,-0.743 0.298,-1.474 0.542,-2.183 0.18,-0.516 0.371,-1.005 0.578,-1.475 1.476,-3.466 3.975,-6.37 7.11,-8.313 l 2.284,-1.729 c 4.733,-3.531 1.743,-3.529 -2.242,-3.781 -3.32,-0.211 -9.231,-0.247 -11.117,-0.253 -1.345,3.432 -4.63,5.855 -8.469,5.856 -2.326,0.005 -4.449,-0.883 -6.058,-2.345 z"
   id="path7"
   inkscape:connector-curvature="0"
   style="fill:#e5254e" />
	<path
   d="m 610.665,265.272 c 2.573,-2.115 4.167,-5.227 6.12,-7.314 2.282,-2.436 5.133,-4.437 8.68,-4.481 -3.547,-0.044 -6.397,-2.043 -8.68,-4.48 -1.952,-2.085 -3.547,-5.198 -6.12,-7.313 -1.611,-1.462 -3.731,-2.35 -6.055,-2.349 -3.84,-0.002 -7.125,2.423 -8.47,5.854 -1.885,-0.007 -7.797,-0.042 -11.115,-0.252 -3.987,-0.252 -6.977,-0.251 -2.243,-3.782 l 2.283,-1.729 c 3.136,-1.942 5.636,-4.846 7.109,-8.313 0.208,-0.469 0.399,-0.958 0.579,-1.475 0.244,-0.708 0.425,-1.437 0.541,-2.182 0.227,-1.154 0.345,-2.35 0.345,-3.573 -10e-4,-9.71 -7.454,-17.639 -16.834,-18.141 -1.182,-0.107 -2.388,-0.064 -3.609,0.151 -0.426,0.077 -0.844,0.165 -1.258,0.267 -1.828,0.455 -3.519,1.164 -5.523,2.32 l -0.494,0.328 c -8.926,5.689 -13.099,16.981 -13.099,16.981 0,0 2.154,-1.153 11.522,-3.037 6.958,-1.396 11.295,1.883 10.216,8.572 -1.626,10.061 -14.95,12.602 -14.95,12.602 h -23.355 l 10e-4,19.094 23.354,0.003 c 0,0 13.326,2.54 14.95,12.603 1.079,6.688 -3.258,9.966 -10.215,8.569 -9.367,-1.883 -11.521,-3.036 -11.521,-3.036 0,0 4.172,11.292 13.098,16.982 l 0.494,0.328 c 2.006,1.156 3.697,1.866 5.525,2.322 0.412,0.1 0.831,0.191 1.258,0.267 1.218,0.216 2.426,0.26 3.608,0.149 9.379,-0.502 16.833,-8.429 16.834,-18.139 -0.002,-1.224 -0.12,-2.42 -0.345,-3.574 -0.119,-0.743 -0.299,-1.473 -0.543,-2.182 -0.178,-0.516 -0.37,-1.005 -0.577,-1.475 -1.475,-3.466 -3.975,-6.371 -7.109,-8.313 l -2.284,-1.73 c -4.733,-3.528 -1.744,-3.529 2.243,-3.779 3.319,-0.211 9.23,-0.245 11.116,-0.253 1.346,3.432 4.63,5.855 8.47,5.854 2.322,0.007 4.443,-0.883 6.053,-2.344 z"
   id="path9"
   inkscape:connector-curvature="0"
   style="fill:#e5254e" />
	<path
   d="m 523.09,341.485 c -9.173,11.271 -20.799,18.528 -32.891,25.036 l -1.441,0.777 -1.442,-0.776 c -11.938,-6.426 -23.885,-13.897 -32.944,-25.038 -21.86,-26.882 -33.229,-66.67 -32.82,-101.858 H 556.02 c 0.557,34.953 -11.504,75.531 -32.93,101.859 z"
   id="path11"
   inkscape:connector-curvature="0"
   style="fill:#ffffff" />
	<path
   d="m 552.56,231.663 c 2.733,35.907 -9.296,80.087 -31.85,107.803 -8.77,10.774 -19.946,17.797 -31.953,24.26 -11.855,-6.382 -23.352,-13.619 -32.006,-24.261 -22.983,-28.263 -34.194,-71.419 -31.799,-107.801 l 127.608,-10e-4 z"
   id="path13"
   inkscape:connector-curvature="0"
   style="fill:#8ac3ee" />
	<path
   d="m 447.046,254.5 c 0.981,11.918 3.46,27.214 10.222,43.193 10.016,23.68 21.2,34.926 35.396,46.265 -2.503,2.518 -4.823,4.839 -5.921,6.008 -13.473,-11.128 -24.88,-23.686 -35.255,-46.312 -11.564,-25.21 -12.754,-45.911 -12.855,-57.566 h 96.941 v 8.414 L 447.046,254.5 z"
   id="path15"
   inkscape:connector-curvature="0"
   style="fill:#ffffff" />
	<path
   d="m 535.573,264.623 -76.086,-0.002 c 1.395,9.283 3.819,19.466 8.156,29.699 10.015,23.572 16.33,29.256 32.797,41.65 1.704,-1.792 3.868,-3.996 5.324,-5.449 -16.983,-12.396 -21.807,-17.162 -31.1,-40.422 -2.27,-5.748 -4.955,-16.93 -4.955,-16.93 h 65.864 l 0,-8.546 z"
   id="path17"
   inkscape:connector-curvature="0"
   style="fill:#ffffff" />
	<path
   d="m 523.873,221.364 c -18.593,-7.454 -21.053,-9.101 -35.025,-9.103 -16.755,0.001 -18.304,1.717 -35.023,9.103 -1.586,-0.966 -3.793,-2.835 -5.084,-4.578 -0.104,-1.325 0.258,-2.896 1.146,-4.607 2.673,-5.144 9.104,-9.607 14.421,-10.039 5.967,-4.795 15.763,-7.505 22.891,-6.147 0.585,0.11 1.134,0.247 1.649,0.404 0.516,-0.158 1.065,-0.294 1.65,-0.405 7.127,-1.357 16.923,1.355 22.89,6.148 5.319,0.432 11.748,4.896 14.421,10.039 0.89,1.711 1.253,3.283 1.146,4.608 -1.291,1.741 -3.497,3.61 -5.082,4.577 z"
   id="path19"
   inkscape:connector-curvature="0"
   style="fill:#b19221" />
	<path
   d="m 488.848,183.676 c 17.902,-8.171 26.63,-1.47 28.456,7.775 21.977,-5.434 19.982,28.069 6.535,33.218 l -1.888,4.011 c -11.174,-2.121 -19.015,-3.345 -33.103,-3.345 -10.172,-0.001 -25.18,0.637 -33.986,1.79 l -0.917,-2.423 c -13.527,-5.037 -15.577,-38.697 6.446,-33.252 1.828,-9.244 10.556,-15.945 28.457,-7.774 z m -33.539,32.545 c 8.779,0.427 8.231,-5.838 7.197,-10.875 -0.719,-3.505 -2.48,-4.855 -2.48,-10.364 -5.636,-4.753 -12.109,4.189 -12.615,10.342 -0.904,10.952 7.34,10.868 7.898,10.897 z m 30.832,-30.375 c -29.524,-13.479 -23.515,30.67 -2.63,20.214 1.229,-0.616 1.176,-1.95 0.956,-3.194 -0.91,-5.167 -0.169,-12.11 1.674,-17.02 z m 5.414,0.002 c 1.842,4.909 2.584,11.852 1.674,17.018 -0.22,1.243 -0.273,2.578 0.956,3.193 20.886,10.457 26.894,-33.693 -2.63,-20.211 z m 30.834,30.371 c 0.556,-0.025 8.801,0.058 7.897,-10.897 -0.506,-6.15 -6.979,-15.095 -12.617,-10.339 0,5.508 -1.761,6.86 -2.479,10.363 -1.033,5.037 -1.582,11.302 7.199,10.873 z m -33.533,-32.524 -0.043,0.077 0.043,-0.077 z"
   id="path21"
   inkscape:connector-curvature="0"
   style="fill:#b19221" />
	<path
   d="m 524.567,226.005 -4.951,8.37 c 0.113,0.124 0.161,0.28 0.162,0.437 v 0.183 c 0,0.185 -0.121,0.367 -0.3,0.551 -0.12,0.184 -0.298,0.307 -0.479,0.307 l -0.18,-0.001 c -0.24,0 -0.539,-0.122 -0.777,-0.306 -1.736,-0.856 -3.412,-1.65 -5.09,-2.324 -2.394,-0.917 -4.667,-1.714 -6.823,-2.263 -2.454,-0.673 -4.789,-1.161 -6.884,-1.467 -2.574,-0.367 -4.79,-0.551 -6.764,-0.551 -1.318,-0.063 -2.457,-0.062 -3.473,0 -0.958,-0.061 -2.095,-0.063 -3.412,0 -1.974,0.001 -4.311,0.184 -6.823,0.552 -2.155,0.305 -4.431,0.793 -6.885,1.468 -2.154,0.551 -4.429,1.345 -6.823,2.323 -1.678,0.673 -3.354,1.407 -5.089,2.263 -0.3,0.184 -0.538,0.306 -0.777,0.306 h -0.121 c -0.238,0.001 -0.417,-0.122 -0.537,-0.305 -0.438,-0.397 -0.441,-0.876 -0.139,-1.171 l -4.949,-8.371 c 18.909,-13.351 52.201,-13.349 71.114,-0.001 z"
   id="path23"
   inkscape:connector-curvature="0"
   style="fill:#b19221" />
	<path
   d="m 486.084,171.262 c -10e-4,-0.063 -10e-4,-0.063 -10e-4,-0.063 h 5.327 l -0.897,3.181 2.635,-0.918 v 5.443 l -2.634,-0.917 0.897,4.28 -5.327,-0.001 0.898,-4.279 -2.635,0.917 v -5.443 l 2.634,0.917 -0.897,-3.117 z"
   id="path25"
   inkscape:connector-curvature="0"
   style="fill:#b19221" />
	<path
   d="m 498.905,208.635 c -0.418,-0.429 -0.658,-1.04 -0.658,-1.65 0,-0.673 0.24,-1.224 0.658,-1.714 0.181,-0.184 0.359,-0.366 0.6,-0.55 0.18,-0.061 0.419,-0.182 0.659,-0.243 0.178,-0.062 0.358,-0.062 0.597,-0.062 0.241,0 0.42,0.001 0.659,0.062 0.18,0.061 0.419,0.122 0.598,0.244 0.241,0.184 0.479,0.366 0.66,0.55 0.358,0.429 0.539,0.918 0.598,1.529 v 0.183 l 10e-4,0.185 c -0.061,0.611 -0.238,1.102 -0.6,1.528 -0.179,0.184 -0.419,0.367 -0.659,0.489 -0.18,0.122 -0.417,0.245 -0.599,0.244 -0.127,0.045 -0.226,0.087 -0.337,0.11 0.273,3.35 4.64,6.197 8.358,4.354 0.726,-0.37 1.453,-0.953 2.126,-1.771 -0.269,-0.259 -0.467,-0.59 -0.564,-0.959 l -0.245,0.103 c -0.119,0.06 -0.239,0.06 -0.359,0.12 l -0.359,0.185 c -0.238,0.062 -0.479,0.184 -0.776,0.367 -0.062,0 -0.121,0.062 -0.181,0.122 -0.241,0.122 -0.359,0.244 -0.54,0.366 -0.18,0.122 -0.419,0.184 -0.718,0.428 -0.12,0.063 -0.18,0.121 -0.3,0.184 -0.12,0.063 -0.239,0.243 -0.479,0.367 -0.12,0.061 -0.299,0.123 -0.42,0.183 -0.179,0 -0.239,0 -0.298,-0.061 -0.539,-0.122 -0.897,-0.734 -0.658,-1.285 0.239,-0.428 0.18,-0.611 0.479,-0.979 0.12,-0.061 0.179,-0.183 0.18,-0.306 0.06,-0.122 0,-0.184 0,-0.306 0,-0.243 -0.12,-0.429 -0.181,-0.611 -0.179,-0.916 0.002,-1.467 0.179,-1.896 0.12,-0.245 0.241,-0.428 0.301,-0.55 0.18,-0.245 0.3,-0.368 0.42,-0.489 0.3,-0.245 0.538,-0.368 0.777,-0.491 0.18,-0.06 0.3,-0.184 0.3,-0.366 0,-1.101 0.18,-1.406 0.419,-1.591 0.06,-0.061 0.12,-0.061 0.18,-0.121 0.06,-0.06 0.3,-0.062 0.538,0.062 0.301,0.123 0.66,0.49 0.72,1.345 0,0.122 -10e-4,0.306 0.059,0.428 10e-4,0.612 0.12,1.103 0.3,1.529 0.12,0.184 0.24,0.366 0.419,0.61 0.194,0.279 0.414,0.611 0.562,0.959 0.362,-0.503 0.945,-0.835 1.593,-0.836 l -0.237,-0.245 c -0.72,-0.552 -0.959,-0.977 -1.199,-1.59 -0.238,-0.612 -0.358,-0.795 -0.537,-1.528 -0.061,-0.123 -0.419,-0.55 -0.539,-0.857 -0.12,-0.306 0,-0.733 0.18,-0.856 0.3,-0.122 0.659,-0.183 1.258,0.185 0.358,0.244 0.238,0.244 0.599,0.673 0.299,0.366 0.598,0.061 0.838,-0.061 0.299,-0.123 0.658,-0.184 1.077,-0.184 0.479,-0.061 0.599,0.062 0.599,0.062 0,0 0.658,0.122 1.018,0.488 0.3,0.367 0.3,0.613 0.421,0.92 0.119,0.304 0.179,0.795 0.718,0.794 0.479,-0.063 0.479,-0.063 0.898,-0.001 0.658,0.184 1.137,0.428 1.257,0.734 0.119,0.184 -0.18,0.671 -0.479,0.857 -0.239,0.121 -0.239,0.121 -0.958,0.061 -0.719,-0.062 -0.838,0.244 -1.438,0.488 -0.539,0.246 -1.137,0.674 -2.034,0.491 l -0.284,-0.041 c 0.496,0.368 0.822,0.967 0.823,1.63 0.658,-0.121 0.896,-0.367 1.496,-0.733 0.539,-0.367 0.838,-0.916 1.495,-1.161 0.179,-0.062 0.72,-0.184 1.018,-0.184 0.719,-0.001 0.957,0.672 0.659,1.284 -0.241,0.367 -0.239,0.243 -0.659,0.55 -0.359,0.366 -0.119,0.855 -0.061,1.162 0.18,1.407 -0.239,1.835 -0.538,2.264 -0.599,0.856 -1.437,1.101 -1.378,1.591 0.18,1.223 -0.419,1.896 -0.719,2.018 -0.179,0.061 -1.136,-0.062 -1.137,-1.529 0,-0.672 0,-1.591 -0.24,-2.202 -0.239,-0.611 -0.599,-0.611 -0.658,-1.467 -0.344,0.25 -0.783,0.427 -1.256,0.428 -0.11,4.3 3.458,6.141 6.763,5.626 0.857,-0.153 1.672,-0.439 2.409,-0.891 -0.235,-0.315 -0.372,-0.707 -0.374,-1.128 10e-4,-1.038 0.839,-1.896 1.917,-1.895 1.018,-0.001 1.855,0.854 1.856,1.896 0,1.039 -0.839,1.896 -1.856,1.896 -0.171,-0.001 -0.337,-0.022 -0.493,-0.063 -0.466,3.729 2.564,6.351 6.04,4.19 -0.197,-0.242 -0.321,-0.547 -0.336,-0.88 -0.546,0.2 -2.179,0.791 -2.577,0.79 -0.478,0 -0.598,-0.367 -0.598,-0.611 -10e-4,-0.245 0.238,-0.49 0.478,-0.735 0.24,-0.242 0.121,-1.1 0.36,-1.65 0.239,-0.488 0.359,-0.488 0.839,-0.732 0.478,-0.247 0.478,-0.123 0.718,-0.369 0.18,-0.121 0.358,-0.488 0.36,-0.733 -0.002,-0.245 0.238,-0.366 0.238,-0.366 0,0 0.36,-0.124 0.598,0.121 0.24,0.246 0.24,0.611 0.24,0.856 -10e-4,0.396 0.063,1.469 0.097,2.03 0.217,-0.127 0.47,-0.195 0.741,-0.195 l 0.164,0.007 c 0.068,-0.481 0.196,-1.433 0.195,-1.964 -10e-4,-0.734 -0.121,-0.614 0.119,-0.859 0.24,-0.242 0.598,-0.122 0.838,0.125 0.238,0.244 0.838,1.345 1.317,1.346 0.719,-0.002 0.599,-0.122 1.078,0.122 0.479,0.244 1.436,1.284 1.436,1.772 0,0.489 10e-4,0.245 -0.239,0.49 -0.239,0.245 -1.438,-0.122 -2.394,0.124 -0.393,0.1 -0.744,0.178 -1.022,0.237 0.005,0.128 -0.474,0.434 -1.013,0.861 -0.6,0.49 -0.778,0.733 -0.778,0.733 -0.069,-0.012 -0.138,-0.031 -0.202,-0.054 -0.798,1.009 -2.111,1.774 -3.689,1.888 l -0.538,0.003 c -0.657,-0.063 -1.377,-0.186 -2.095,-0.49 -2.096,-0.857 -1.736,-4.282 -1.736,-4.833 -0.479,0.49 -1.257,0.796 -2.096,0.979 -1.437,0.306 -3.173,0.183 -4.849,-0.429 -2.634,-1.04 -3.112,-4.709 -3.112,-5.688 -0.121,0.368 -1.019,1.162 -2.274,1.772 -1.378,0.674 -3.232,1.164 -4.849,0.674 -2.635,-0.733 -3.474,-2.569 -4.67,-4.281 -0.18,0.245 -0.418,0.551 -0.777,0.856 -1.138,0.917 -3.053,2.017 -5.028,1.834 -2.755,-0.245 -4.729,-3.058 -5.209,-3.791 -0.479,0.733 -2.394,3.547 -5.147,3.79 -2.035,0.184 -3.951,-0.918 -5.088,-1.896 -0.36,-0.247 -0.6,-0.552 -0.78,-0.796 -1.197,1.713 -2.035,3.548 -4.729,4.281 -1.617,0.489 -3.411,-0.001 -4.79,-0.673 -1.256,-0.611 -2.154,-1.407 -2.273,-1.772 -0.001,0.978 -0.48,4.647 -3.113,5.686 -1.676,0.613 -3.413,0.735 -4.85,0.43 -0.839,-0.185 -1.616,-0.49 -2.155,-0.979 0.001,0.549 0.359,3.975 -1.677,4.831 -0.717,0.307 -1.436,0.429 -2.095,0.489 h -0.538 c -1.578,-0.115 -2.891,-0.881 -3.688,-1.89 -0.065,0.023 -0.135,0.042 -0.202,0.056 0,0 -0.18,-0.245 -0.778,-0.735 -0.538,-0.428 -1.018,-0.733 -1.018,-0.733 -0.274,-0.188 -0.626,-0.267 -1.018,-0.365 -0.959,-0.246 -2.155,0.121 -2.396,-0.123 -0.238,-0.243 -0.238,0.001 -0.238,-0.489 0,-0.49 0.957,-1.529 1.436,-1.774 0.479,-0.245 0.36,-0.121 1.077,-0.122 0.479,-0.001 1.077,-1.101 1.316,-1.346 0.239,-0.242 0.598,-0.364 0.838,-0.122 0.24,0.243 0.119,0.122 0.12,0.856 0,0.533 0.126,1.484 0.194,1.967 l 0.164,-0.01 c 0.271,0.001 0.522,0.071 0.741,0.194 0.033,-0.562 0.097,-1.631 0.097,-2.028 0,-0.246 10e-4,-0.611 0.239,-0.855 0.24,-0.245 0.599,-0.123 0.599,-0.123 0,0 0.24,0.122 0.24,0.366 0,0.246 0.181,0.612 0.359,0.734 0.238,0.244 0.24,0.122 0.719,0.368 0.478,0.245 0.599,0.243 0.838,0.732 0.24,0.552 0.119,1.407 0.359,1.651 0.24,0.245 0.479,0.489 0.478,0.733 0.001,0.246 -0.118,0.611 -0.598,0.613 -0.397,-0.002 -2.03,-0.59 -2.576,-0.791 -0.015,0.333 -0.141,0.639 -0.336,0.88 3.473,2.161 6.456,-0.463 6.03,-4.192 -0.155,0.043 -0.317,0.067 -0.483,0.067 -1.018,0.001 -1.855,-0.855 -1.856,-1.897 0,-1.039 0.838,-1.895 1.855,-1.896 1.019,10e-4 1.855,0.857 1.856,1.896 -0.001,0.422 -0.138,0.813 -0.368,1.131 0.75,0.45 1.606,0.733 2.463,0.889 3.307,0.573 6.822,-1.319 6.817,-5.626 -0.552,-0.001 -1.013,-0.197 -1.362,-0.518 -0.007,0.946 -0.366,0.944 -0.605,1.558 -0.24,0.609 -0.24,1.529 -0.24,2.201 -0.001,1.468 -0.958,1.591 -1.136,1.529 -0.301,-0.123 -0.899,-0.796 -0.72,-2.018 0.061,-0.49 -0.778,-0.734 -1.377,-1.591 -0.3,-0.428 -0.718,-0.855 -0.537,-2.263 0.059,-0.307 0.297,-0.796 -0.062,-1.163 -0.418,-0.305 -0.42,-0.183 -0.659,-0.55 -0.358,-0.611 -0.06,-1.283 0.659,-1.284 0.299,0 0.838,0.122 0.957,0.183 0.718,0.246 1.018,0.797 1.557,1.162 0.6,0.369 0.838,0.612 1.377,0.795 0.12,-0.726 0.447,-1.321 0.943,-1.692 l -0.284,0.041 c -0.898,0.184 -1.496,-0.244 -2.095,-0.487 -0.539,-0.245 -0.659,-0.55 -1.376,-0.489 -0.719,0.061 -0.719,0.061 -1.018,-0.062 -0.24,-0.185 -0.539,-0.673 -0.42,-0.856 0.119,-0.307 0.539,-0.551 1.196,-0.734 0.479,-0.062 0.479,-0.062 0.958,0.001 0.538,-0.001 0.599,-0.49 0.718,-0.796 0.121,-0.304 0.12,-0.548 0.42,-0.917 0.357,-0.367 1.018,-0.488 1.018,-0.488 0,0 0.119,-0.124 0.598,-0.061 0.42,0.001 0.778,0.061 1.018,0.183 0.299,0.122 0.538,0.427 0.896,0.061 0.3,-0.429 0.181,-0.428 0.6,-0.673 0.539,-0.367 0.957,-0.306 1.258,-0.183 0.179,0.122 0.298,0.55 0.179,0.855 -0.119,0.307 -0.479,0.733 -0.538,0.855 -0.179,0.735 -0.3,0.918 -0.538,1.53 -0.239,0.613 -0.479,1.04 -1.197,1.589 l -0.365,0.249 c 0.776,-0.003 1.361,0.332 1.725,0.84 0.26,-0.615 0.731,-1.151 0.915,-1.577 0.3,-0.611 0.359,-1.222 0.42,-1.956 0.119,-1.47 1.018,-1.529 1.258,-1.407 0.238,0.123 0.598,0.367 0.598,1.712 0,0.489 0.898,0.43 1.438,1.348 0.298,0.428 0.837,1.039 0.478,2.445 -0.06,0.305 -0.359,0.855 0.001,1.224 0.357,0.366 0.298,0.55 0.479,0.979 0.359,0.611 -0.18,1.406 -0.898,1.343 -0.358,-0.062 -0.717,-0.427 -0.898,-0.551 -0.837,-0.55 -1.017,-0.612 -1.556,-0.978 -0.539,-0.429 -0.778,-0.429 -1.317,-0.673 -0.244,-0.083 -0.443,-0.153 -0.604,-0.229 -0.098,0.378 -0.304,0.716 -0.58,0.977 0.662,0.813 1.419,1.39 2.142,1.759 3.72,1.845 8.041,-1.01 8.346,-4.364 -1.267,-0.162 -2.18,-1.251 -2.18,-2.546 -10e-4,-1.405 1.077,-2.568 2.514,-2.569 1.376,0.001 2.514,1.162 2.515,2.57 0,1.032 -0.614,1.934 -1.486,2.339 0.17,0.319 0.38,0.634 0.589,0.901 1.076,1.468 2.933,2.446 5.688,2.018 2.761,-0.403 3.735,-2.963 3.992,-3.853 -0.842,-0.191 -1.542,-0.804 -1.872,-1.604 -0.057,0.388 -0.198,0.972 -0.564,1.42 -0.359,0.428 -0.839,1.221 -1.077,1.711 -0.241,0.488 -0.479,0.979 -0.72,1.225 -0.239,0.242 -0.479,0.244 -0.719,0.244 -0.239,-0.001 -0.718,-0.489 -0.719,-0.979 10e-4,-0.488 -0.119,-1.528 -0.239,-1.711 -0.239,-0.49 -1.316,-0.857 -1.316,-2.324 0.001,-1.47 0.838,-1.713 1.077,-2.203 0.12,-0.245 -0.239,-1.528 -0.238,-2.018 0,-0.489 0.358,-0.979 0.599,-0.979 0.478,-0.001 1.197,0.429 1.315,0.733 0.239,0.489 0.54,0.795 0.959,1.102 0.718,0.55 0.838,0.731 1.196,1.16 0.175,0.214 0.286,0.487 0.359,0.77 0.275,-0.915 0.996,-1.622 1.889,-1.852 l -0.334,-0.08 c -0.956,-0.243 -1.437,-0.733 -1.916,-1.222 -0.478,-0.488 -0.479,-0.856 -1.196,-1.101 -0.718,-0.245 -0.718,-0.245 -0.958,-0.489 -0.238,-0.244 -0.179,-0.795 10e-4,-0.979 0.238,-0.244 0.718,-0.489 1.437,-0.368 0.479,0.123 0.479,0.123 0.957,0.368 0.479,0.244 0.599,0.123 0.839,-0.122 0.239,-0.245 0.538,-0.855 0.958,-1.102 0.479,-0.245 0.838,-0.244 0.838,-0.244 0,0 0.359,0.001 0.838,0.245 0.479,0.245 0.777,0.855 0.957,1.101 0.3,0.244 0.42,0.367 0.898,0.122 0.479,-0.244 0.479,-0.244 0.958,-0.367 0.718,-0.122 1.196,0.123 1.436,0.367 0.18,0.184 0.24,0.734 10e-4,0.979 -0.24,0.245 -0.239,0.244 -0.958,0.488 -0.718,0.246 -0.719,0.611 -1.197,1.103 -0.479,0.489 -0.958,0.979 -1.977,1.222 l -0.32,0.076 c 0.908,0.223 1.631,0.908 1.921,1.804 0.081,-0.263 0.199,-0.514 0.375,-0.717 0.061,-0.121 0.121,-0.183 0.181,-0.245 0.18,-0.184 0.358,-0.366 0.657,-0.612 0.12,-0.122 0.18,-0.184 0.36,-0.305 0.119,-0.063 0.239,-0.123 0.299,-0.245 0.301,-0.183 0.479,-0.489 0.659,-0.855 0.179,-0.246 0.419,-0.427 0.72,-0.551 0.179,-0.122 0.418,-0.185 0.598,-0.183 0.3,0.121 0.598,0.551 0.598,0.979 0,0.488 -0.358,1.774 -0.239,2.019 0.06,0.123 0.239,0.307 0.359,0.429 0.3,0.306 0.599,0.733 0.659,1.589 v 0.367 c -0.059,0.734 -0.359,1.161 -0.658,1.468 -0.24,0.244 -0.479,0.428 -0.6,0.673 -0.12,0.488 -0.239,1.284 -0.239,1.712 0,0.367 -0.239,0.733 -0.479,0.856 -0.06,0.063 -0.18,0.123 -0.239,0.124 -0.24,0 -0.359,0 -0.42,-0.062 -0.119,0.001 -0.24,-0.062 -0.299,-0.183 -0.12,-0.122 -0.3,-0.306 -0.421,-0.552 -0.119,-0.184 -0.179,-0.428 -0.298,-0.671 -0.12,-0.186 -0.24,-0.429 -0.359,-0.611 -0.24,-0.368 -0.479,-0.735 -0.66,-1.042 -0.426,-0.509 -0.567,-1.093 -0.623,-1.481 -0.334,0.807 -1.051,1.423 -1.93,1.61 0.261,0.894 1.244,3.447 4.051,3.849 2.634,0.428 4.489,-0.55 5.626,-2.02 0.213,-0.271 0.426,-0.592 0.598,-0.918 -0.087,-0.033 -0.167,-0.073 -0.238,-0.121 -0.248,-0.126 -0.428,-0.309 -0.607,-0.554 z"
   id="path27"
   inkscape:connector-curvature="0"
   style="fill:#ffffff" />
	<path
   d="m 488.907,223.919 0,0 z"
   id="path29"
   inkscape:connector-curvature="0"
   style="fill:#ffffff" />
	<path
   d="m 459.635,202.33 c 0,-1.772 1.377,-3.24 3.112,-3.241 1.736,0.001 3.113,1.468 3.114,3.242 0,1.713 -1.378,3.18 -3.112,3.181 -1.738,0 -3.115,-1.469 -3.114,-3.182 z"
   id="path31"
   inkscape:connector-curvature="0"
   style="fill:#ffffff" />
	<path
   d="m 461.012,184.718 c 10e-4,-1.652 1.377,-3.059 3.053,-3.058 1.676,-0.001 2.992,1.406 2.994,3.058 0,1.712 -1.317,3.119 -2.995,3.118 -1.675,0 -3.052,-1.406 -3.052,-3.118 z"
   id="path33"
   inkscape:connector-curvature="0"
   style="fill:#ffffff" />
	<path
   d="m 465.921,181.415 c 0,-1.284 1.078,-2.386 2.334,-2.386 1.318,0 2.336,1.102 2.336,2.386 -0.001,1.345 -1.018,2.384 -2.336,2.384 -1.258,0.001 -2.334,-1.039 -2.334,-2.384 z"
   id="path35"
   inkscape:connector-curvature="0"
   style="fill:#ffffff" />
	<path
   d="m 470.351,180.069 c -10e-4,-1.224 1.017,-2.263 2.214,-2.263 1.258,0 2.275,1.04 2.275,2.263 0,1.283 -1.017,2.263 -2.275,2.26 -1.196,0.003 -2.214,-0.975 -2.214,-2.26 z"
   id="path37"
   inkscape:connector-curvature="0"
   style="fill:#ffffff" />
	<path
   d="m 474.959,179.947 c 10e-4,-1.039 0.839,-1.896 1.855,-1.896 1.019,0.001 1.856,0.857 1.856,1.896 0,1.041 -0.839,1.896 -1.855,1.896 -1.017,0.001 -1.856,-0.856 -1.856,-1.896 z"
   id="path39"
   inkscape:connector-curvature="0"
   style="fill:#ffffff" />
	<path
   d="m 478.671,180.313 c 0,-1.038 0.839,-1.895 1.855,-1.896 1.019,0.001 1.856,0.857 1.856,1.896 10e-4,1.04 -0.838,1.896 -1.855,1.897 -1.017,0.001 -1.855,-0.857 -1.856,-1.897 z"
   id="path41"
   inkscape:connector-curvature="0"
   style="fill:#ffffff" />
	<path
   d="m 482.263,181.291 c 0.001,-0.793 0.599,-1.404 1.377,-1.405 0.779,0 1.378,0.612 1.378,1.407 -10e-4,0.794 -0.6,1.468 -1.378,1.467 -0.777,0 -1.377,-0.673 -1.377,-1.469 z"
   id="path43"
   inkscape:connector-curvature="0"
   style="fill:#ffffff" />
	<path
   d="m 484.898,182.393 c 0,-0.61 0.538,-1.162 1.137,-1.161 0.659,0 1.198,0.551 1.196,1.162 0,0.672 -0.539,1.222 -1.197,1.222 -0.597,0 -1.136,-0.55 -1.136,-1.223 z"
   id="path45"
   inkscape:connector-curvature="0"
   style="fill:#ffffff" />
	<path
   d="m 487.052,183.617 c 0,-1.041 0.84,-1.896 1.856,-1.896 1.078,0 1.855,0.855 1.855,1.896 0,1.1 -0.777,1.896 -1.855,1.896 -1.017,-0.002 -1.856,-0.796 -1.856,-1.896 z"
   id="path47"
   inkscape:connector-curvature="0"
   style="fill:#ffffff" />
	<path
   d="m 486.753,187.714 c -10e-4,-1.224 0.958,-2.202 2.155,-2.201 1.198,0.001 2.214,0.978 2.214,2.201 -0.001,1.224 -1.018,2.202 -2.216,2.202 -1.196,0.001 -2.154,-0.978 -2.153,-2.202 z"
   id="path49"
   inkscape:connector-curvature="0"
   style="fill:#ffffff" />
	<path
   d="m 486.274,192.545 c 10e-4,-1.467 1.198,-2.689 2.635,-2.69 1.496,0 2.694,1.224 2.693,2.691 0.001,1.529 -1.196,2.692 -2.694,2.691 -1.438,-0.001 -2.633,-1.162 -2.634,-2.692 z"
   id="path51"
   inkscape:connector-curvature="0"
   style="fill:#ffffff" />
	<path
   d="m 485.556,198.6 c 0,-1.895 1.496,-3.425 3.353,-3.424 1.855,0 3.411,1.528 3.411,3.426 0.001,1.895 -1.555,3.424 -3.411,3.424 -1.856,-0.002 -3.353,-1.529 -3.353,-3.426 z"
   id="path53"
   inkscape:connector-curvature="0"
   style="fill:#ffffff" />
	<path
   d="m 444.071,217.375 c 10e-4,-1.528 1.258,-2.813 2.813,-2.813 1.558,10e-4 2.754,1.284 2.754,2.813 0.001,1.59 -1.197,2.875 -2.752,2.875 -1.558,0 -2.815,-1.284 -2.815,-2.875 z"
   id="path55"
   inkscape:connector-curvature="0"
   style="fill:#ffffff" />
	<path
   d="m 441.198,212.115 c 0,-1.772 1.437,-3.18 3.172,-3.179 1.678,-0.001 3.113,1.406 3.112,3.181 -0.001,1.773 -1.437,3.181 -3.111,3.18 -1.737,0 -3.173,-1.408 -3.173,-3.182 z"
   id="path57"
   inkscape:connector-curvature="0"
   style="fill:#ffffff" />
	<path
   d="m 440.24,206.368 c 0.002,-1.652 1.317,-2.938 2.935,-2.937 1.555,0 2.873,1.284 2.872,2.935 0.002,1.592 -1.316,2.937 -2.873,2.936 -1.616,0.001 -2.934,-1.346 -2.934,-2.934 z"
   id="path59"
   inkscape:connector-curvature="0"
   style="fill:#ffffff" />
	<path
   d="m 441.378,200.802 c -10e-4,-1.469 1.137,-2.69 2.635,-2.69 1.436,-0.001 2.634,1.223 2.633,2.69 10e-4,1.529 -1.198,2.752 -2.635,2.75 -1.496,0.003 -2.635,-1.222 -2.633,-2.75 z"
   id="path61"
   inkscape:connector-curvature="0"
   style="fill:#ffffff" />
	<path
   d="m 443.653,196.398 c 10e-4,-1.346 1.078,-2.447 2.396,-2.446 1.317,-0.001 2.394,1.102 2.394,2.446 0,1.346 -1.076,2.447 -2.394,2.445 -1.318,0.003 -2.396,-1.1 -2.396,-2.445 z"
   id="path63"
   inkscape:connector-curvature="0"
   style="fill:#ffffff" />
	<path
   d="m 447.065,193.096 c -10e-4,-1.162 0.957,-2.14 2.095,-2.141 1.138,10e-4 2.095,0.979 2.096,2.142 -0.002,1.161 -0.959,2.141 -2.097,2.14 -1.137,-0.001 -2.095,-0.978 -2.094,-2.141 z"
   id="path65"
   inkscape:connector-curvature="0"
   style="fill:#ffffff" />
	<path
   d="m 450.895,191.262 c 0,-1.04 0.839,-1.896 1.856,-1.896 1.018,-0.001 1.855,0.855 1.855,1.896 0,1.041 -0.838,1.896 -1.855,1.897 -1.018,-0.002 -1.855,-0.858 -1.856,-1.897 z"
   id="path67"
   inkscape:connector-curvature="0"
   style="fill:#ffffff" />
	<path
   d="m 454.608,190.527 c 0,-0.917 0.718,-1.652 1.616,-1.651 0.898,-0.001 1.678,0.733 1.676,1.651 -10e-4,0.918 -0.778,1.651 -1.676,1.651 -0.899,0.001 -1.617,-0.734 -1.616,-1.651 z"
   id="path69"
   inkscape:connector-curvature="0"
   style="fill:#ffffff" />
	<path
   d="m 511.955,202.33 c -10e-4,-1.772 1.377,-3.24 3.112,-3.241 1.737,0.001 3.113,1.468 3.114,3.242 -0.001,1.713 -1.379,3.181 -3.113,3.179 -1.737,0.002 -3.114,-1.467 -3.113,-3.18 z"
   id="path71"
   inkscape:connector-curvature="0"
   style="fill:#ffffff" />
	<path
   d="m 510.698,184.719 c 0,-1.65 1.376,-3.059 3.053,-3.059 1.676,0 2.993,1.407 2.994,3.059 -10e-4,1.713 -1.317,3.119 -2.994,3.118 -1.678,0 -3.053,-1.406 -3.053,-3.118 z"
   id="path73"
   inkscape:connector-curvature="0"
   style="fill:#ffffff" />
	<path
   d="m 507.226,181.416 c 0,-1.284 1.018,-2.388 2.335,-2.387 1.256,0 2.335,1.102 2.336,2.386 -10e-4,1.346 -1.08,2.385 -2.337,2.385 -1.317,10e-4 -2.334,-1.039 -2.334,-2.384 z"
   id="path75"
   inkscape:connector-curvature="0"
   style="fill:#ffffff" />
	<path
   d="m 502.974,180.069 c 0.002,-1.223 1.019,-2.264 2.216,-2.263 1.257,-0.001 2.274,1.039 2.273,2.262 10e-4,1.284 -1.017,2.264 -2.274,2.264 -1.197,0 -2.214,-0.979 -2.215,-2.263 z"
   id="path77"
   inkscape:connector-curvature="0"
   style="fill:#ffffff" />
	<path
   d="m 499.144,179.946 c 10e-4,-1.039 0.839,-1.896 1.855,-1.896 1.019,0 1.856,0.856 1.856,1.896 0,1.041 -0.837,1.897 -1.855,1.896 -1.017,0.002 -1.856,-0.855 -1.856,-1.896 z"
   id="path79"
   inkscape:connector-curvature="0"
   style="fill:#ffffff" />
	<path
   d="m 495.492,180.315 c -0.001,-1.041 0.778,-1.896 1.796,-1.897 1.018,0.001 1.855,0.857 1.855,1.897 0.001,1.041 -0.839,1.895 -1.855,1.896 -1.017,0 -1.796,-0.857 -1.796,-1.896 z"
   id="path81"
   inkscape:connector-curvature="0"
   style="fill:#ffffff" />
	<path
   d="m 492.799,181.292 c 0,-0.795 0.659,-1.406 1.437,-1.407 0.777,0.001 1.378,0.612 1.378,1.408 -10e-4,0.796 -0.601,1.468 -1.378,1.467 -0.779,0 -1.437,-0.672 -1.437,-1.468 z"
   id="path83"
   inkscape:connector-curvature="0"
   style="fill:#ffffff" />
	<path
   d="m 490.644,182.393 c 0,-0.61 0.539,-1.162 1.198,-1.162 0.598,0 1.137,0.552 1.137,1.163 0,0.673 -0.538,1.223 -1.137,1.223 -0.659,0 -1.197,-0.551 -1.198,-1.224 z"
   id="path85"
   inkscape:connector-curvature="0"
   style="fill:#ffffff" />
	<path
   d="m 530.331,212.116 c 0,-1.772 1.379,-3.18 3.113,-3.181 1.735,0.001 3.112,1.407 3.112,3.181 10e-4,1.775 -1.377,3.183 -3.113,3.181 -1.733,0 -3.111,-1.407 -3.112,-3.181 z"
   id="path87"
   inkscape:connector-curvature="0"
   style="fill:#ffffff" />
	<path
   d="m 531.888,206.368 c 0,-1.591 1.259,-2.876 2.754,-2.875 1.557,0.002 2.814,1.286 2.813,2.874 0,1.529 -1.256,2.813 -2.813,2.814 -1.496,10e-4 -2.753,-1.284 -2.754,-2.813 z"
   id="path89"
   inkscape:connector-curvature="0"
   style="fill:#ffffff" />
	<path
   d="m 531.23,200.802 c 10e-4,-1.406 1.198,-2.567 2.574,-2.567 1.437,-0.001 2.574,1.161 2.574,2.568 0,1.468 -1.138,2.629 -2.573,2.629 -1.377,0 -2.575,-1.162 -2.575,-2.63 z"
   id="path91"
   inkscape:connector-curvature="0"
   style="fill:#ffffff" />
	<path
   d="m 529.434,196.4 c 10e-4,-1.284 1.078,-2.387 2.336,-2.387 1.257,0.001 2.335,1.103 2.335,2.386 0,1.345 -1.079,2.384 -2.336,2.384 -1.258,0.001 -2.335,-1.038 -2.335,-2.383 z"
   id="path93"
   inkscape:connector-curvature="0"
   style="fill:#ffffff" />
	<path
   d="m 526.561,193.097 c 0,-1.162 0.957,-2.14 2.095,-2.141 1.136,0 2.095,0.979 2.094,2.141 0,1.162 -0.958,2.141 -2.094,2.14 -1.137,0 -2.095,-0.978 -2.095,-2.14 z"
   id="path95"
   inkscape:connector-curvature="0"
   style="fill:#ffffff" />
	<path
   d="m 523.207,191.262 c 10e-4,-1.039 0.779,-1.896 1.856,-1.896 1.018,10e-4 1.856,0.857 1.855,1.896 10e-4,1.04 -0.837,1.896 -1.855,1.896 -1.075,-0.002 -1.855,-0.856 -1.856,-1.896 z"
   id="path97"
   inkscape:connector-curvature="0"
   style="fill:#ffffff" />
	<path
   d="m 519.916,190.526 c 0,-0.917 0.719,-1.649 1.616,-1.65 0.898,0 1.677,0.733 1.676,1.65 10e-4,0.919 -0.777,1.654 -1.676,1.652 -0.896,0.002 -1.616,-0.732 -1.616,-1.652 z"
   id="path99"
   inkscape:connector-curvature="0"
   style="fill:#ffffff" />
	<path
   d="m 457.779,189.793 c 0,-1.773 1.438,-3.181 3.174,-3.18 1.736,0.001 3.112,1.407 3.112,3.181 -10e-4,1.773 -1.377,3.181 -3.112,3.18 -1.735,-10e-4 -3.174,-1.408 -3.174,-3.181 z"
   id="path101"
   inkscape:connector-curvature="0"
   style="fill:#ffffff" />
	<path
   d="m 457.779,189.793 c 0,-1.773 1.438,-3.181 3.174,-3.18 1.736,0.001 3.112,1.407 3.112,3.181 -10e-4,1.773 -1.377,3.181 -3.112,3.18 -1.735,-10e-4 -3.174,-1.408 -3.174,-3.181 z"
   id="path103"
   inkscape:connector-curvature="0"
   style="fill:#ffffff" />
	<path
   d="m 456.582,196.276 c 0,-2.018 1.617,-3.67 3.651,-3.669 1.975,-0.001 3.594,1.651 3.593,3.67 -0.001,2.018 -1.617,3.668 -3.593,3.67 -2.035,-0.002 -3.65,-1.652 -3.651,-3.671 z"
   id="path105"
   inkscape:connector-curvature="0"
   style="fill:#ffffff" />
	<path
   d="m 513.869,189.795 c 0,-1.713 1.317,-3.12 2.994,-3.12 1.676,-0.001 3.054,1.407 3.053,3.12 0,1.713 -1.376,3.059 -3.054,3.058 -1.676,-0.002 -2.992,-1.346 -2.993,-3.058 z"
   id="path107"
   inkscape:connector-curvature="0"
   style="fill:#ffffff" />
	<path
   d="m 513.99,196.398 c 0,-2.019 1.616,-3.67 3.592,-3.668 1.976,-10e-4 3.592,1.651 3.591,3.668 0,2.018 -1.616,3.67 -3.591,3.67 -1.976,10e-4 -3.592,-1.651 -3.592,-3.67 z"
   id="path109"
   inkscape:connector-curvature="0"
   style="fill:#ffffff" />
	<path
   d="m 488.747,226.249 -7.184,-4.525 7.184,-4.587 7.183,4.586 c -2.391,1.502 -4.84,2.944 -7.183,4.526 z"
   id="path111"
   inkscape:connector-curvature="0"
   style="fill:#ffffff" />
	<path
   d="m 488.748,218.358 c 1.766,1.072 3.438,2.345 5.268,3.305 l -5.269,3.362 -5.208,-3.364 5.209,-3.303 z"
   id="path113"
   inkscape:connector-curvature="0"
   style="fill:#ffffff" />
	<polygon
   points="499.88,225.883 511.193,229.826 512.975,224.024 501.659,220.081 "
   id="polygon115"
   style="fill:#ffffff" />
	<polygon
   points="500.995,225.145 510.692,228.545 511.859,224.764 502.162,221.361 "
   id="polygon117"
   style="fill:#ffffff" />
	<polygon
   points="520.3,232.799 517.651,227.862 523.704,227.489 523.522,231.313 "
   id="polygon119"
   style="fill:#ffffff" />
	<path
   d="m 524.119,227.809 -6.364,0.132 3.039,4.991 c 0.278,0.49 -0.39,1.035 -0.597,0.823 l -3.274,-6.397 c 0.047,0.024 0.728,-0.135 7.457,-0.559 0.285,-0.026 0.294,0.996 -0.261,1.01 z"
   id="path121"
   inkscape:connector-curvature="0"
   style="fill:#ffffff" />
	<polygon
   points="477.615,225.883 466.303,229.827 464.521,224.025 475.835,220.082 "
   id="polygon123"
   style="fill:#ffffff" />
	<polygon
   points="476.5,225.145 466.805,228.546 465.638,224.765 475.332,221.361 "
   id="polygon125"
   style="fill:#ffffff" />
	<polygon
   points="457.733,232.799 460.383,227.861 454.329,227.49 454.511,231.313 "
   id="polygon127"
   style="fill:#ffffff" />
	<path
   d="m 453.913,227.808 6.366,0.133 -3.04,4.99 c -0.279,0.49 0.389,1.036 0.598,0.823 l 3.273,-6.396 c -0.048,0.025 -0.729,-0.132 -7.456,-0.558 -0.287,-0.028 -0.294,0.995 0.259,1.008 z"
   id="path129"
   inkscape:connector-curvature="0"
   style="fill:#ffffff" />
	<path
   d="m 528.217,217.377 c 0,-1.53 1.257,-2.814 2.814,-2.813 1.556,-0.001 2.813,1.283 2.813,2.813 10e-4,1.592 -1.257,2.876 -2.813,2.875 -1.557,-0.001 -2.813,-1.285 -2.814,-2.875 z"
   id="path131"
   inkscape:connector-curvature="0"
   style="fill:#ffffff" />
</g></svg>