<?xml version="1.0" encoding="UTF-8" standalone="no"?>
<!-- Generator: Adobe Illustrator 15.0.2, SVG Export Plug-In . SVG Version: 6.00 Build 0)  -->

<svg
   xmlns:dc="http://purl.org/dc/elements/1.1/"
   xmlns:cc="http://creativecommons.org/ns#"
   xmlns:rdf="http://www.w3.org/1999/02/22-rdf-syntax-ns#"
   xmlns:svg="http://www.w3.org/2000/svg"
   xmlns="http://www.w3.org/2000/svg"
   xmlns:sodipodi="http://sodipodi.sourceforge.net/DTD/sodipodi-0.dtd"
   xmlns:inkscape="http://www.inkscape.org/namespaces/inkscape"
   version="1.1"
   id="Capa_1"
   x="0px"
   y="0px"
   width="226.46001"
   height="250"
   viewBox="0 0 513.54607 566.92796"
   enable-background="new 0 0 612 792"
   xml:space="preserve"
   inkscape:version="0.48.2 r9819"
   sodipodi:docname="rc_deportivo_coruña.svg"><metadata
   id="metadata517"><rdf:RDF><cc:Work
       rdf:about=""><dc:format>image/svg+xml</dc:format><dc:type
         rdf:resource="http://purl.org/dc/dcmitype/StillImage" /></cc:Work></rdf:RDF></metadata><defs
   id="defs515" /><sodipodi:namedview
   pagecolor="#ffffff"
   bordercolor="#666666"
   borderopacity="1"
   objecttolerance="10"
   gridtolerance="10"
   guidetolerance="10"
   inkscape:pageopacity="0"
   inkscape:pageshadow="2"
   inkscape:window-width="1280"
   inkscape:window-height="968"
   id="namedview513"
   showgrid="false"
   fit-margin-top="0"
   fit-margin-left="0"
   fit-margin-right="0"
   fit-margin-bottom="0"
   inkscape:zoom="3.004"
   inkscape:cx="102.6162"
   inkscape:cy="125"
   inkscape:window-x="-4"
   inkscape:window-y="-4"
   inkscape:window-maximized="1"
   inkscape:current-layer="Capa_1"
   height="155.14px" />
<path
   d="m 337.5302,152.85598 c 64.584,29.376 111.384,91.44 118.944,164.808 l 54.288,22.032 -54.288,20.304 c -10.728,102.456 -97.776,182.736 -202.896,182.736 -53.496,0 -102.312,-20.808 -138.81597,-54.72 l -48.45599,18.144 v 51.48 l -19.152,9.288 v -398.016 c -1.08,-0.648 -1.8,-1.872 -1.8,-3.312 v -4.752 c 0,-2.16 1.728,-3.96 3.888,-3.96 h 19.008 c 2.16,0 3.96,1.8 3.96,3.96 v 0.936 l 50.61598,20.52 c 14.11199,-11.808 29.87998,-21.744 46.79998,-29.448 -0.144,-0.36 -0.288,-0.72 -0.504,-1.08 l -13.824,-0.216 9,-10.224 c -0.288,-0.432 -0.504,-0.864 -0.72,-1.224 -2.232,0.504 -4.248,-0.936 -5.184,-3.024 -0.576,-1.44 -0.504,-2.952 0.216,-4.176 0.072,-2.016 -0.072,-2.592 -2.088,-3.456 -1.08,-0.432 -2.448,-1.008 -3.96,-2.808 -1.224,-1.512 -2.088,-3.24 -2.808,-4.68 -1.584,-3.384 -1.728,-3.888 -5.472,-3.816 -3.456,0.144 -7.99199,0.288 -8.85599,-4.248 -0.648,-3.312 1.368,-5.832 3.6,-7.56 -0.648,-1.728 -0.504,-3.672 0.432,-5.328 -3.456,-1.440005 -4.824,-5.544005 -3.096,-8.784005 -3.024,-2.160001 -3.672,-6.336001 -1.368,-9.216001 -3.52799,-2.808 -3.024,-8.352 0.936,-10.512 -2.448,-3.672 -0.576,-8.784 3.888,-9.792 -1.368,-4.68 2.87999,-8.928 7.41599,-7.992 0,-4.752 5.112,-7.632 9.216,-5.616 0,-5.4 6.12,-8.208 10.152,-5.112 2.16,-4.752 8.784,-5.04 11.376,-0.576 0.432,-5.616 8.208,-6.552 10.152,-1.368 1.08,-4.536 6.984,-5.472 9.504,-1.728 1.08,-1.512 2.88,-2.376 4.752,-2.304 0.36,-3.672 4.104,-5.904 7.416,-4.608 1.152,-3.168 5.184,-4.104 7.56,-1.8 1.008,-3.312 5.184,-4.32 7.632,-2.016 1.008,-3.312 5.184,-4.32 7.632,-1.944 1.08,-3.6 5.688,-4.392 7.992,-1.584 h 3.168 c 0.216,-3.6 2.304,-6.624 5.328,-8.208 v -3.24 h -5.256 V 6.6959738 h 5.256 V -1.9224988e-5 h 8.928 V 6.6959738 h 5.328 v 7.9200002 h -5.328 v 3.24 c 0.936,0.504 1.8,1.08 2.52,1.8 1.656,1.656 2.664,3.96 2.808,6.408 h 3.168 c 2.304,-2.808 6.984,-2.016 8.064,1.584 2.448,-2.376 6.48,-1.368 7.56,1.944 2.376,-2.304 6.552,-1.296 7.56,2.016 2.376,-2.304 6.48,-1.368 7.56,1.8 3.312,-1.296 7.128,0.936 7.416,4.608 1.872,-0.072 3.672,0.792 4.752,2.304 2.52,-3.744 8.424,-2.808 9.504,1.728 1.944,-5.184 9.72,-4.248 10.224,1.368 2.592,-4.464 9.216,-4.176 11.304,0.576 4.032,-3.096 10.224,-0.288 10.224,5.112 4.032,-2.016 9.144,0.864 9.144,5.616 4.608,-0.936 8.784,3.312 7.488,7.992 4.392,1.008 6.264,6.12 3.816,9.792 4.032,2.16 4.464,7.704 0.936,10.512 2.304,2.88 1.728,7.056 -1.296,9.216001 1.728,3.24 0.288,7.344 -3.168,8.784005 0.936,1.656 1.08,3.6 0.432,5.328 2.232,1.729 4.248,4.248 3.6,7.56 -0.864,4.536 -5.4,4.392 -8.784,4.248 -3.744,-0.072 -3.888,0.432 -5.544,3.816 -0.72,1.44 -1.512,3.168 -2.808,4.68 -1.44,1.8 -2.808,2.376 -3.888,2.808 -2.088,0.864 -2.232,1.44 -2.088,3.456 0.72,1.224 0.792,2.736 0.144,4.176 -0.864,2.088 -2.952,3.528 -5.184,3.024 -0.216,0.36 -0.432,0.792 -0.648,1.224 l 8.928,10.224 -13.824,0.216 c -0.144,0.36 -0.288,0.72 -0.432,1.08 l 0,0 z m -104.904,74.016 113.832,46.224 c -20.664,-29.16 -54.648,-48.168 -92.88,-48.168 -7.128,0 -14.184,0.648 -20.952,1.944 l 0,0 z m 116.64,173.304 -127.656,47.808 c 10.152,2.952 20.88,4.536 31.968,4.536 40.032,0 75.456,-20.88 95.688,-52.344 z"
   id="path3"
   inkscape:connector-curvature="0"
   style="fill:#a38d44" />
<path
   d="m 253.5782,137.66398 c -108,0 -196.55996,85.968 -200.87996,192.816 0.072,0 0.144,0 0.216,0 h 11.016 c 4.32,-100.728 87.83996,-181.584 189.64796,-181.584 95.256,0 174.6,70.92 187.848,162.648 l 11.952,4.824 c -11.16,-100.224 -96.624,-178.704 -199.8,-178.704 l 0,0 z m -195.33596,248.76 c 8.064,32.76 24.12,62.424 46.08,86.76 9.79199,10.872 27.14398,14.904 41.03996,11.232 19.296,-5.112 31.32,-22.104 31.392,-41.76 0,-8.136 -3.816,-19.224 -9.36,-25.272 -14.112,-15.408 -24.12,-34.56 -28.36799,-55.8 v 19.656 c 0,1.44 -0.576,2.736 -1.512,3.672 -0.72,0.72 -1.728,1.224 -2.736,1.44 5.544,13.824 13.46399,26.424 23.25599,37.44 4.176,4.68 6.84,10.44 7.848,16.704 1.728,10.944 -2.448,21.672 -11.232,28.44 -9,6.912 -20.95199,8.28 -31.39198,3.816 -5.32799,-2.232 -10.00799,-6.264 -13.75199,-10.656 -14.54399,-16.92 -26.13599,-36.432 -33.98399,-57.744 -2.16,-5.832 -4.104,-11.808 -5.688,-17.928 h -11.592 l 0,0 z m 78.76797,-54.864 c -0.864,-0.648 -1.944,-1.08 -3.168,-1.08 h -8.06399 c 4.248,-66.672 60.04798,-119.808 127.79998,-119.808 50.04,0 93.6,29.088 114.624,71.208 l -16.848,-6.84 c -20.88,-31.896 -56.952,-53.064 -97.776,-53.064 -61.92,0 -112.89599,48.6 -116.56799,109.584 l 0,0 z m 216.79199,66.888 15.84,-5.904 c -20.376,43.704 -64.8,74.232 -116.064,74.232 -14.688,0 -28.872,-2.52 -41.976,-7.128 -11.448,-3.96 -22.176,-9.576 -31.896,-16.488 0,-0.144 0,-0.36 0,-0.504 0,-5.976 -1.512,-11.664 -4.032,-17.064 20.736,18.576 48.024,29.952 77.904,29.952 42.48,0 79.848,-22.968 100.224,-57.096 l 0,0 z m 87.624,-32.832 11.88,-4.464 c -11.232,100.296 -96.624,178.632 -199.728,178.632 -53.568,0 -102.312,-21.168 -138.45597,-55.512 6.98399,3.312 14.68799,4.824 22.31998,4.392 15.04799,11.664 31.89599,21.168 50.03999,27.936 20.592,7.704 42.912,11.952 66.096,11.952 95.328,0 174.744,-71.064 187.848,-162.936 l 0,0 z m -261.936,81 c 9.576,6.624 20.016,11.952 31.104,15.84 13.464,4.68 27.936,7.272 42.984,7.272 53.496,0 99.72,-32.472 120.024,-78.696 l 64.656,-24.192 c -13.608,89.64 -91.368,158.76 -184.68,158.76 -22.896,0 -44.784,-4.176 -65.088,-11.736 -16.92,-6.336 -32.616,-14.976 -46.8,-25.632 1.44,-0.288 2.952,-0.576 4.392,-0.936 19.296,-5.112 31.896,-21.384 33.408,-40.68 l 0,0 z m 258.768,-136.368 -65.952,-26.784 c -20.88,-44.64 -66.312,-75.744 -118.728,-75.744 -69.408,0 -126.50398,54.504 -130.75198,122.76 H 66.88224 c 4.32,-99.072 86.54396,-178.632 186.69596,-178.632 93.24,0 170.928,68.976 184.68,158.4 l 0,0 z m -365.32796,76.176 h 58.67998 c 5.68799,14.544 13.96798,27.792 24.19198,39.312 3.816,4.248 6.264,9.504 7.128,15.192 1.584,9.936 -2.088,19.584 -10.08,25.632 -8.136,6.264 -19.00799,7.488 -28.43998,3.528 -4.896,-2.088 -9.21599,-5.904 -12.67199,-9.936 -14.25599,-16.632 -25.70399,-35.856 -33.47999,-56.808 -2.016,-5.544 -3.816,-11.16 -5.328,-16.92 z"
   id="path5"
   inkscape:connector-curvature="0"
   style="fill:#ffffff" />
<polygon
   points="225,619.072 210.816,613.312 224.208,580.192 230.832,582.856 219.888,609.784 227.52,612.808 "
   id="polygon7"
   style="fill:#a38d44"
   transform="translate(-28.51776,-112.62402)" />
<path
   d="m 224.2022,476.42398 -0.288,36.72 -7.272,-1.8 0.36,-6.048 -6.84,-1.728 -2.88,5.472 -6.912,-1.728 16.632,-32.688 7.2,1.8 0,0 z m -6.984,23.544 0.864,-15.912 -5.976,14.688 5.112,1.224 z"
   id="path9"
   inkscape:connector-curvature="0"
   style="fill:#a38d44" />
<path
   d="m 259.8422,486.21598 c -2.88,-0.864 -6.12,-0.36 -8.496,1.512 -4.68,3.816 -3.672,13.392 -0.936,17.856 1.944,3.168 5.76,3.816 9.072,3.024 l -0.144,6.336 c -5.472,2.304 -11.016,-0.792 -14.328,-4.68 -6.768,-7.632 -5.4,-23.616 3.744,-29.016 3.312,-1.944 7.632,-2.52 11.232,-0.936 l -0.144,5.904 z"
   id="path11"
   inkscape:connector-curvature="0"
   style="fill:#a38d44" />
<path
   d="m 295.8422,473.39998 c 5.976,-1.656 11.808,0.792 13.68,6.984 1.08,3.888 0.144,6.984 -2.52,10.08 l 10.656,13.896 -7.128,2.088 -10.8,-14.328 4.68,16.056 -7.2,2.088 -9.936,-34.344 8.568,-2.52 0,0 z m -0.144,6.264 2.52,8.928 c 4.32,-0.288 6.552,-5.328 3.312,-8.424 -1.44,-1.368 -3.816,-1.584 -5.832,-0.504 z"
   id="path13"
   inkscape:connector-curvature="0"
   style="fill:#a38d44" />
<path
   d="m 313.9142,466.41598 11.736,22.464 c 1.224,2.304 2.664,3.744 4.896,2.952 3.096,-1.152 3.24,-2.664 1.728,-5.544 l -12.096,-23.184 5.976,-3.096 12.384,23.832 c 2.448,4.68 2.664,9.072 -2.232,11.952 -1.296,0.792 -2.592,1.512 -3.96,2.16 -5.4,2.376 -9.648,-0.648 -12.312,-5.256 l -12.096,-23.184 5.976,-3.096 z"
   id="path15"
   inkscape:connector-curvature="0"
   style="fill:#a38d44" />
<path
   d="m 330.7622,454.53598 c 0,0 -2.592,-3.744 -0.648,-6.84 1.44,-2.232 5.976,-2.808 6.408,-4.032 0.216,-0.432 0,-1.008 -0.648,-1.872 l 3.168,-2.592 c 2.448,3.744 2.736,6.048 0.648,7.92 -1.728,1.584 -3.816,1.512 -5.544,2.736 -0.576,0.432 -0.864,1.008 -0.144,2.088 l -3.24,2.592 z"
   id="path17"
   inkscape:connector-curvature="0"
   style="fill:#a38d44" />
<polygon
   points="385.056,594.952 379.224,599.056 358.416,570.04 364.176,565.864 383.688,578.968 370.872,561.112 376.272,557.224 397.152,586.24 391.968,589.984 372.672,577.672 "
   id="polygon19"
   style="fill:#a38d44"
   transform="translate(-28.51776,-112.62402)" />
<path
   d="m 358.4822,432.71998 32.184,17.64 -4.968,5.544 -5.184,-3.168 -4.752,5.256 3.456,5.112 -4.824,5.256 -20.952,-30.096 5.04,-5.544 0,0 z m 17.424,17.352 -13.608,-8.352 10.08,12.168 3.528,-3.816 z"
   id="path21"
   inkscape:connector-curvature="0"
   style="fill:#a38d44" />
<path
   d="m 263.2982,488.51998 c -0.576,2.88 -0.648,6.336 -0.288,9.648 0.648,5.832 3.312,13.68 9.504,15.768 2.664,0.864 6.336,0.504 8.784,-0.864 5.688,-3.168 6.768,-11.448 6.336,-17.28 -0.288,-3.312 -1.008,-6.696 -2.16,-9.432 -5.112,-12.456 -19.44,-11.088 -22.176,2.16 l 0,0 z m 11.736,19.584 c -3.528,-1.152 -4.824,-7.848 -5.112,-10.872 -0.216,-2.232 -0.216,-4.464 0,-6.336 0.864,-8.496 7.2,-9.072 9.576,-0.936 0.576,1.8 1.008,3.96 1.152,6.264 0.288,3.024 0.288,9.864 -2.88,11.664 -0.648,0.36 -2.016,0.504 -2.736,0.216 z"
   id="path23"
   inkscape:connector-curvature="0"
   style="fill:#a38d44" />
<polygon
   points="122.472,393.496 129.312,396.088 131.4,390.616 137.952,393.136 135.864,398.68 143.064,401.416 145.584,394.936 151.776,397.24 146.592,410.848 113.616,398.032 118.728,384.496 124.92,386.944 "
   id="polygon25"
   style="fill:#a38d44"
   transform="translate(-28.51776,-112.62402)" />
<path
   d="m 100.50624,250.77598 35.42397,9.864 -3.672,6.552 -5.68799,-1.944 -3.456,6.192 4.464,4.176 -3.384,6.192 -27.35998,-24.48 3.672,-6.552 0,0 z m 20.95198,12.96 -15.11998,-5.04 12.59998,9.576 2.52,-4.536 z"
   id="path27"
   inkscape:connector-curvature="0"
   style="fill:#a38d44" />
<polygon
   points="174.384,359.8 165.168,371.968 136.584,350.44 140.904,344.752 164.088,362.248 168.984,355.696 "
   id="polygon29"
   style="fill:#a38d44"
   transform="translate(-28.51776,-112.62402)" />
<polygon
   points="211.176,329.416 198.36,337.696 178.92,307.744 184.824,303.856 200.664,328.192 207.576,323.8 "
   id="polygon31"
   style="fill:#a38d44"
   transform="translate(-28.51776,-112.62402)" />
<path
   d="m 207.3542,168.19198 c 2.16,-0.432 4.464,0.216 6.264,1.296 2.592,1.512 4.32,3.888 5.112,6.768 0.792,2.952 0.216,5.832 -2.088,7.992 3.528,0.576 5.904,3.096 6.768,6.408 1.512,5.4 -1.368,10.656 -6.768,12.096 l -9,2.376 -9.288,-34.488 9,-2.448 0,0 z m 5.688,29.736 c 2.448,-0.144 3.888,-2.016 3.744,-4.464 -0.144,-1.944 -1.368,-3.888 -3.024,-4.752 -1.008,-0.432 -2.088,-0.648 -3.24,-0.072 l 2.52,9.288 0,0 z m -3.888,-14.4 c 0.936,0.072 1.728,-0.288 2.304,-0.864 1.872,-1.728 1.008,-6.48 -0.936,-7.704 -0.864,-0.504 -2.016,-0.432 -3.672,0 l 2.304,8.568 z"
   id="path33"
   inkscape:connector-curvature="0"
   style="fill:#a38d44" />
<path
   d="m 238.2422,162.21598 c 0.432,0 0.936,0 1.44,0 4.464,-0.144 10.008,-0.936 13.68,1.728 3.384,2.376 5.112,5.616 6.192,9.504 1.728,6.408 1.08,16.344 -4.032,21.168 -2.016,1.944 -4.896,2.952 -8.568,3.096 l -7.488,0.216 -1.224,-35.712 0,0 z m 8.136,29.52 c 6.912,-0.576 6.696,-8.28 6.552,-13.536 -0.432,-4.608 -1.944,-9.648 -7.416,-9.864 l 0.864,23.4 z"
   id="path35"
   inkscape:connector-curvature="0"
   style="fill:#a38d44" />
<polygon
   points="303.264,282.544 302.4,289.888 308.232,290.608 307.368,297.664 301.536,296.944 300.528,304.648 307.512,305.512 306.648,312.208 292.32,310.408 296.64,274.912 311.04,276.712 310.176,283.408 "
   id="polygon37"
   style="fill:#a38d44"
   transform="translate(-28.51776,-112.62402)" />
<polygon
   points="397.728,317.032 411.336,329.776 406.512,334.96 402.408,331.144 382.824,352.096 377.424,346.984 396.936,326.032 392.832,322.216 "
   id="polygon39"
   style="fill:#a38d44"
   transform="translate(-28.51776,-112.62402)" />
<polygon
   points="415.008,334.6 419.544,339.64 392.976,363.544 388.44,358.576 "
   id="polygon41"
   style="fill:#a38d44"
   transform="translate(-28.51776,-112.62402)" />
<polygon
   points="437.976,366.712 402.696,378.016 399.456,373.048 423.864,344.896 428.04,351.448 411.408,368.872 433.944,360.52 "
   id="polygon43"
   style="fill:#a38d44"
   transform="translate(-28.51776,-112.62402)" />
<path
   d="m 403.9142,261.43198 c -2.88,0.216 -6.192,1.08 -9.36,2.304 -5.4,2.232 -12.24,6.912 -12.6,13.464 -0.072,2.736 1.296,6.264 3.24,8.208 4.608,4.608 12.816,3.456 18.36,1.44 3.168,-1.152 6.12,-2.736 8.496,-4.536 10.584,-8.352 5.4,-21.816 -8.136,-20.88 l 0,0 z m -15.696,16.632 c 0.216,-3.672 6.336,-6.768 9.144,-7.92 2.088,-0.792 4.248,-1.368 6.12,-1.728 8.352,-1.44 10.656,4.536 3.528,9.072 -1.656,1.008 -3.6,2.016 -5.76,2.808 -2.808,1.08 -9.432,2.952 -12.024,0.36 -0.504,-0.576 -1.008,-1.872 -1.008,-2.592 z"
   id="path45"
   inkscape:connector-curvature="0"
   style="fill:#a38d44" />
<path
   d="m 149.9702,203.83198 c -2.88,1.08 -5.04,3.6 -5.688,6.552 -1.296,5.904 5.616,12.672 10.584,14.4 3.456,1.224 6.84,-0.648 8.928,-3.384 l 3.888,4.968 c -2.808,5.328 -9.072,6.408 -14.04,5.472 -10.08,-1.656 -19.15199,-14.904 -15.47999,-24.84 1.368,-3.6 4.31999,-6.768 8.13599,-7.776 l 3.672,4.608 z"
   id="path47"
   inkscape:connector-curvature="0"
   style="fill:#a38d44" />
<path
   d="m 79.77024,305.42398 c 1.368,-6.12 6.336,-10.08 12.672,-8.64 3.96,0.864 6.192,3.168 7.632,6.984 l 17.27999,-2.664 -1.584,7.272 -17.71199,2.52 16.34399,3.672 -1.656,7.272 -34.91999,-7.704 1.944,-8.712 0,0 z m 5.4,3.096 9,2.088 c 1.8,-3.96 -1.512,-8.352 -5.76,-6.912 -1.872,0.576 -3.168,2.52 -3.24,4.824 z"
   id="path49"
   inkscape:connector-curvature="0"
   style="fill:#a38d44" />
<path
   d="m 175.0262,180.35998 11.16,22.752 c 1.152,2.376 2.52,3.816 4.824,3.024 3.096,-1.008 3.312,-2.52 1.872,-5.472 l -11.448,-23.4 5.976,-2.952 11.808,24.12 c 2.304,4.752 2.376,9.144 -2.52,11.88 -1.368,0.792 -2.664,1.44 -4.104,2.016 -5.4,2.304 -9.576,-0.864 -12.096,-5.544 l -11.52,-23.472 6.048,-2.952 z"
   id="path51"
   inkscape:connector-curvature="0"
   style="fill:#a38d44" />
<path
   d="m 300.5942,167.68798 c 6.048,1.584 9.864,6.624 8.28,12.888 -1.224,6.192 -8.28,9.432 -14.76,6.912 l -3.744,14.472 -7.272,-1.872 8.856,-34.632 8.64,2.232 0,0 z m -3.24,5.328 -2.376,8.928 c 3.816,1.872 8.352,-1.296 7.128,-5.616 -0.576,-1.872 -2.448,-3.24 -4.752,-3.312 z"
   id="path53"
   inkscape:connector-curvature="0"
   style="fill:#a38d44" />
<path
   d="m 314.1302,181.87198 c -1.944,2.232 -3.744,5.184 -5.04,8.28 -2.232,5.4 -3.816,13.536 0.576,18.36 1.944,2.088 5.4,3.6 8.208,3.6 6.48,0 11.448,-6.624 13.968,-11.952 1.368,-3.024 2.376,-6.336 2.736,-9.216 1.584,-13.464 -11.664,-19.296 -20.448,-9.072 l 0,0 z m 0.648,22.896 c -2.52,-2.736 -0.36,-9.288 0.792,-12.024 0.936,-2.088 2.016,-4.032 3.096,-5.616 4.896,-6.912 10.728,-4.32 8.928,3.96 -0.432,1.8 -1.08,3.96 -2.016,6.048 -1.224,2.736 -4.608,8.712 -8.28,8.712 -0.792,0 -2.088,-0.576 -2.52,-1.08 z"
   id="path55"
   inkscape:connector-curvature="0"
   style="fill:#a38d44" />
<path
   d="m 355.0262,193.67998 c 5.04,3.672 6.768,9.72 3.024,15.048 -2.376,3.312 -5.328,4.464 -9.432,4.248 l -4.248,16.992 -6.12,-4.32 4.608,-17.352 -9.72,13.68 -6.12,-4.32 20.736,-29.16 7.272,5.184 0,0 z m -4.968,3.816 -5.472,7.416 c 2.952,3.168 8.352,1.872 8.712,-2.592 0.144,-1.944 -1.152,-3.96 -3.24,-4.824 z"
   id="path57"
   inkscape:connector-curvature="0"
   style="fill:#a38d44" />
<path
   d="m 91.00224,379.87198 c 1.512,3.312 3.312,3.312 4.824,0 1.944,-4.32 1.944,-11.088 0,-15.336 -1.512,-3.312 -3.312,-3.312 -4.824,0 -1.944,4.32 -1.944,11.016 0,15.336 z"
   id="path59"
   inkscape:connector-curvature="0"
   style="fill:#ffffff" />
<path
   d="m 84.16224,367.19998 c 0.792,0.432 1.728,0.792 2.736,1.08 0.288,-1.8 0.72,-3.456 1.44,-4.968 2.52,-5.688 7.56,-5.688 10.152,0 0.648,1.512 1.152,3.168 1.44,4.968 0.936,-0.288 1.872,-0.648 2.736,-1.08 4.248,-2.088 4.248,-5.04 0,-7.128 -5.184,-2.592 -13.392,-2.592 -18.504,0 -4.32,2.088 -4.32,5.04 0,7.128 z"
   id="path61"
   inkscape:connector-curvature="0"
   style="fill:#ffffff" />
<path
   d="m 99.57024,377.92798 c -0.288,1.08 -0.648,2.16 -1.08,3.096 -0.432,1.008 -0.936,1.8 -1.512,2.448 h 36.86397 c 0.648,0 1.152,-0.288 1.584,-0.648 0.432,-0.432 0.648,-0.936 0.648,-1.584 v -45.576 c 0,-0.576 -0.216,-1.152 -0.648,-1.584 -0.432,-0.36 -0.936,-0.648 -1.584,-0.648 H 52.91424 c -0.576,0 -1.152,0.288 -1.512,0.648 -0.432,0.432 -0.72,1.008 -0.72,1.584 v 45.576 c 0,0.648 0.288,1.152 0.72,1.584 0.36,0.36 0.936,0.648 1.512,0.648 h 36.936 c -0.576,-0.648 -1.08,-1.44 -1.512,-2.448 -0.432,-0.936 -0.792,-2.016 -1.08,-3.096 h -29.016 c -0.648,0 -1.296,-0.288 -1.728,-0.648 l 0,0 c -0.504,-0.504 -0.864,-1.08 -0.864,-1.8 v -36.144 c 0,-0.72 0.36,-1.368 0.864,-1.872 0.432,-0.36 1.08,-0.648 1.728,-0.648 h 70.27198 c 0.72,0 1.296,0.288 1.8,0.648 l 0,0 c 0.504,0.504 0.864,1.152 0.864,1.872 v 36.144 c 0,0.72 -0.36,1.296 -0.864,1.8 l 0,0 c -0.504,0.36 -1.08,0.648 -1.8,0.648 H 99.57024 z"
   id="path63"
   inkscape:connector-curvature="0"
   style="fill:#ffffff" />
<path
   d="m 143.2022,310.82398 h 82.656 v -80.352 l 57.888,23.472 v 56.88 h 140.544 l 70.488,28.584 -79.128,29.664 h -131.904 v 49.32 l -57.888,21.744 v -71.064 h -82.008 c -2.664,-9.72 -4.10399,-19.872 -4.10399,-30.384 0,-9.576 1.15199,-18.936 3.45599,-27.864 z"
   id="path65"
   inkscape:connector-curvature="0"
   style="fill:#57175e" />
<path
   d="m 82.86624,357.40798 c 5.976,-2.952 15.12,-2.952 21.096,0 6.47999,3.24 6.47999,9.216 0,12.456 -1.152,0.576 -2.448,1.008 -3.744,1.368 0,1.224 0,2.52 -0.144,3.744 h 28.07998 v -35.208 H 58.60224 v 35.208 h 28.152 c -0.144,-1.224 -0.216,-2.52 -0.144,-3.744 -1.368,-0.36 -2.592,-0.792 -3.744,-1.368 -6.552,-3.24 -6.552,-9.216 0,-12.456 z"
   id="path67"
   inkscape:connector-curvature="0"
   style="fill:#ffffff" />
<path
   d="m 66.30624,180.35998 29.448,29.376 c 1.44,-1.8 2.952,-3.528 4.464,-5.328 l -33.912,-33.912 v 9.864 l 0,0 z m 93.74396,93.672 31.032,30.888 h 9.648 l -36.576,-36.504 c -1.44,1.8 -2.808,3.672 -4.104,5.616 z"
   id="path69"
   inkscape:connector-curvature="0"
   style="fill:#afdcfd" />
<path
   d="m 51.40224,170.27998 h 5.688 v 113.544 c -2.52,8.928 -4.464,18.216 -5.688,27.648 v -141.192 l 0,0 z m 5.688,223.344 v 162.432 l -5.688,2.952 v -172.8 c 0.504,0.144 1.008,0.216 1.512,0.216 h 2.304 c 0.576,2.376 1.224,4.824 1.872,7.2 z"
   id="path71"
   inkscape:connector-curvature="0"
   style="fill:#ffffff" />
<path
   d="m 298.9382,125.42398 c 14.544,3.096 28.512,7.632 41.832,13.536 -0.216,0.36 -0.36,0.72 -0.576,1.152 l -13.752,0.216 8.928,10.08 c -0.216,0.432 -0.36,0.864 -0.576,1.296 -51.696,-22.608 -110.808,-22.608 -162.504,0 -0.144,-0.432 -0.36,-0.864 -0.504,-1.296 l 8.856,-10.08 -13.68,-0.216 c -0.216,-0.432 -0.432,-0.792 -0.648,-1.152 13.32,-5.904 27.36,-10.44 41.904,-13.536 29.808,-6.336 60.984,-6.336 90.72,0 z"
   id="path73"
   inkscape:connector-curvature="0"
   style="fill:#ffffff" />
<path
   d="m 250.7702,68.255974 c 0,-1.584 1.224,-2.88 2.808,-2.88 1.584,0 2.88,1.296 2.88,2.88 0,1.512 -1.296,2.808 -2.88,2.808 -1.584,0 -2.808,-1.296 -2.808,-2.808 z"
   id="path75"
   inkscape:connector-curvature="0"
   style="fill:#0090c6" />
<path
   d="m 250.7702,61.271974 c 0,-1.584 1.224,-2.88 2.808,-2.88 1.584,0 2.88,1.296 2.88,2.88 0,1.584 -1.296,2.808 -2.88,2.808 -1.584,0 -2.808,-1.224 -2.808,-2.808 z"
   id="path77"
   inkscape:connector-curvature="0"
   style="fill:#0090c6" />
<path
   d="m 250.7702,54.287974 c 0,-1.584 1.224,-2.88 2.808,-2.88 1.584,0 2.88,1.296 2.88,2.88 0,1.584 -1.296,2.808 -2.88,2.808 -1.584,0 -2.808,-1.224 -2.808,-2.808 z"
   id="path79"
   inkscape:connector-curvature="0"
   style="fill:#0090c6" />
<path
   d="m 250.7702,47.303974 c 0,-1.584 1.224,-2.88 2.808,-2.88 1.584,0 2.88,1.296 2.88,2.88 0,1.584 -1.296,2.88 -2.88,2.88 -1.584,0 -2.808,-1.296 -2.808,-2.88 z"
   id="path81"
   inkscape:connector-curvature="0"
   style="fill:#0090c6" />
<path
   d="m 250.7702,40.319974 c 0,-1.584 1.224,-2.88 2.808,-2.88 1.584,0 2.88,1.296 2.88,2.88 0,1.584 -1.296,2.88 -2.88,2.88 -1.584,0 -2.808,-1.296 -2.808,-2.88 z"
   id="path83"
   inkscape:connector-curvature="0"
   style="fill:#0090c6" />
<path
   d="m 251.4902,26.279974 c 0,-1.08 0.936,-2.016 2.088,-2.016 1.152,0 2.088,0.936 2.088,2.016 0,1.152 -0.936,2.088 -2.088,2.088 -1.152,0 -2.088,-0.936 -2.088,-2.088 z"
   id="path85"
   inkscape:connector-curvature="0"
   style="fill:#0090c6" />
<path
   d="m 250.7702,33.335974 c 0,-1.584 1.224,-2.88 2.808,-2.88 1.584,0 2.88,1.296 2.88,2.88 0,1.584 -1.296,2.88 -2.88,2.88 -1.584,0 -2.808,-1.296 -2.808,-2.88 z"
   id="path87"
   inkscape:connector-curvature="0"
   style="fill:#0090c6" />
<path
   d="m 253.5782,83.735974 c -1.152,0.504 -3.096,2.376 -5.112,2.376 -2.448,0 -4.68,-4.104 -3.312,-5.472 1.44,-1.368 4.32,-0.36 5.4,-2.232 0.936,-1.872 -0.216,-4.968 3.024,-4.536 3.312,-0.432 2.088,2.664 3.096,4.536 1.008,1.872 3.96,0.864 5.328,2.232 1.368,1.368 -0.864,5.472 -3.24,5.472 -2.088,0 -3.96,-1.872 -5.184,-2.376 z"
   id="path89"
   inkscape:connector-curvature="0"
   style="fill:#db5232" />
<path
   d="m 227.9462,128.95198 c 0,-2.16 1.8,-3.96 3.96,-3.96 2.16,0 3.96,1.8 3.96,3.96 0,2.16 -1.8,3.888 -3.96,3.888 -2.16,0 -3.96,-1.728 -3.96,-3.888 z"
   id="path91"
   inkscape:connector-curvature="0"
   style="fill:#a38d44" />
<path
   d="m 230.1782,128.95198 c 0,-1.008 0.792,-1.8 1.728,-1.8 1.008,0 1.8,0.792 1.8,1.8 0,0.936 -0.792,1.728 -1.8,1.728 -0.936,0 -1.728,-0.792 -1.728,-1.728 z"
   id="path93"
   inkscape:connector-curvature="0"
   style="fill:#0090c6" />
<polygon
   points="282.096,246.832 268.272,240.424 282.096,234.016 295.992,240.424 "
   id="polygon95"
   style="fill:#a38d44"
   transform="translate(-28.51776,-112.62402)" />
<polygon
   points="282.096,235.672 271.872,240.424 282.096,245.104 292.392,240.424 "
   id="polygon97"
   style="fill:#db5232"
   transform="translate(-28.51776,-112.62402)" />
<polygon
   points="239.904,251.224 225.072,247.768 237.312,238.696 252.216,242.08 "
   id="polygon99"
   style="fill:#a38d44"
   transform="translate(-28.51776,-112.62402)" />
<polygon
   points="237.672,240.28 228.6,247.048 239.616,249.568 248.688,242.8 "
   id="polygon101"
   style="fill:#db5232"
   transform="translate(-28.51776,-112.62402)" />
<polygon
   points="194.616,254.248 187.128,262.744 198.432,262.888 205.848,254.392 "
   id="polygon103"
   style="fill:#db5232"
   transform="translate(-28.51776,-112.62402)" />
<path
   d="m 185.2502,138.74398 c -0.432,-2.16 0.936,-4.248 3.024,-4.68 2.16,-0.432 4.248,0.936 4.68,3.024 0.432,2.16 -0.936,4.248 -3.024,4.68 -2.16,0.432 -4.248,-0.936 -4.68,-3.024 z"
   id="path105"
   inkscape:connector-curvature="0"
   style="fill:#a38d44" />
<path
   d="m 187.3382,138.31198 c -0.144,-1.008 0.432,-1.944 1.368,-2.16 1.008,-0.144 1.944,0.432 2.088,1.368 0.216,1.008 -0.36,1.944 -1.368,2.16 -0.936,0.144 -1.872,-0.432 -2.088,-1.368 z"
   id="path107"
   inkscape:connector-curvature="0"
   style="fill:#0090c6" />
<path
   d="m 279.1382,128.95198 c 0,-2.16 -1.729,-3.96 -3.888,-3.96 -2.16,0 -3.888,1.8 -3.888,3.96 0,2.16 1.728,3.888 3.888,3.888 2.16,0 3.888,-1.728 3.888,-3.888 z"
   id="path109"
   inkscape:connector-curvature="0"
   style="fill:#a38d44" />
<path
   d="m 277.0502,128.95198 c 0,-1.008 -0.792,-1.8 -1.8,-1.8 -0.936,0 -1.728,0.792 -1.728,1.8 0,0.936 0.792,1.728 1.728,1.728 1.008,0 1.8,-0.792 1.8,-1.728 z"
   id="path111"
   inkscape:connector-curvature="0"
   style="fill:#0090c6" />
<polygon
   points="324.216,251.224 339.12,247.768 326.88,238.696 311.976,242.08 "
   id="polygon113"
   style="fill:#a38d44"
   transform="translate(-28.51776,-112.62402)" />
<polygon
   points="326.52,240.28 335.592,247.048 324.576,249.568 315.504,242.8 "
   id="polygon115"
   style="fill:#db5232"
   transform="translate(-28.51776,-112.62402)" />
<polygon
   points="369.576,254.248 377.064,262.744 365.76,262.888 358.272,254.392 "
   id="polygon117"
   style="fill:#db5232"
   transform="translate(-28.51776,-112.62402)" />
<path
   d="m 321.9062,138.74398 c 0.432,-2.16 -0.936,-4.248 -3.096,-4.68 -2.088,-0.432 -4.176,0.936 -4.608,3.024 -0.504,2.16 0.864,4.248 3.024,4.68 2.088,0.432 4.176,-0.936 4.68,-3.024 z"
   id="path119"
   inkscape:connector-curvature="0"
   style="fill:#a38d44" />
<path
   d="m 319.7462,138.31198 c 0.216,-1.008 -0.432,-1.944 -1.368,-2.16 -0.936,-0.144 -1.872,0.432 -2.088,1.368 -0.216,1.008 0.432,1.944 1.368,2.16 0.936,0.144 1.872,-0.432 2.088,-1.368 z"
   id="path121"
   inkscape:connector-curvature="0"
   style="fill:#0090c6" />
<path
   d="m 250.7702,90.719974 c 0,-1.584 1.224,-2.808 2.808,-2.808 1.584,0 2.88,1.224 2.88,2.808 0,1.584001 -1.296,2.880001 -2.88,2.880001 -1.584,0 -2.808,-1.296 -2.808,-2.880001 z"
   id="path123"
   inkscape:connector-curvature="0"
   style="fill:#0090c6" />
<path
   d="m 137.08221,86.975974 c 0,-1.584 1.296,-2.808 2.88,-2.808 1.58399,0 2.87999,1.224 2.87999,2.808 0,1.584 -1.296,2.88 -2.87999,2.88 -1.584,0 -2.88,-1.296 -2.88,-2.88 z"
   id="path125"
   inkscape:connector-curvature="0"
   style="fill:#0090c6" />
<path
   d="m 136.14621,78.047974 c 0,-1.584 1.224,-2.808 2.808,-2.808 1.584,0 2.87999,1.224 2.87999,2.808 0,1.584 -1.29599,2.88 -2.87999,2.88 -1.584,0 -2.808,-1.296 -2.808,-2.88 z"
   id="path127"
   inkscape:connector-curvature="0"
   style="fill:#0090c6" />
<path
   d="m 138.37821,68.903974 c 0,-1.584 1.224,-2.88 2.80799,-2.88 1.584,0 2.88,1.296 2.88,2.88 0,1.584 -1.296,2.88 -2.88,2.88 -1.58399,0 -2.80799,-1.296 -2.80799,-2.88 z"
   id="path129"
   inkscape:connector-curvature="0"
   style="fill:#0090c6" />
<path
   d="m 143.0582,60.983974 c 0,-1.584 1.296,-2.88 2.88,-2.88 1.584,0 2.808,1.296 2.808,2.88 0,1.584 -1.224,2.88 -2.808,2.88 -1.584,0 -2.88,-1.296 -2.88,-2.88 z"
   id="path131"
   inkscape:connector-curvature="0"
   style="fill:#0090c6" />
<path
   d="m 150.7622,54.791974 c 0,-1.584 1.296,-2.88 2.88,-2.88 1.512,0 2.808,1.296 2.808,2.88 0,1.584 -1.296,2.808 -2.808,2.808 -1.584,0 -2.88,-1.224 -2.88,-2.808 z"
   id="path133"
   inkscape:connector-curvature="0"
   style="fill:#0090c6" />
<path
   d="m 159.9062,49.103974 c 0,-1.584 1.296,-2.88 2.88,-2.88 1.584,0 2.88,1.296 2.88,2.88 0,1.512 -1.296,2.808 -2.88,2.808 -1.584,0 -2.88,-1.296 -2.88,-2.808 z"
   id="path135"
   inkscape:connector-curvature="0"
   style="fill:#0090c6" />
<path
   d="m 169.6262,46.583974 c 0,-1.584 1.224,-2.88 2.808,-2.88 1.584,0 2.88,1.296 2.88,2.88 0,1.584 -1.296,2.88 -2.88,2.88 -1.584,0 -2.808,-1.296 -2.808,-2.88 z"
   id="path137"
   inkscape:connector-curvature="0"
   style="fill:#0090c6" />
<path
   d="m 195.6902,51.407974 c 0,-1.368 1.152,-2.448 2.52,-2.448 1.368,0 2.448,1.08 2.448,2.448 0,1.368 -1.08,2.52 -2.448,2.52 -1.368,0 -2.52,-1.152 -2.52,-2.52 z"
   id="path139"
   inkscape:connector-curvature="0"
   style="fill:#0090c6" />
<path
   d="m 192.0182,60.335974 c 0,-1.368 1.08,-2.448 2.448,-2.448 1.368,0 2.448,1.08 2.448,2.448 0,1.368 -1.08,2.448 -2.448,2.448 -1.368,0 -2.448,-1.08 -2.448,-2.448 z"
   id="path141"
   inkscape:connector-curvature="0"
   style="fill:#0090c6" />
<path
   d="m 192.0182,70.271974 c 0,-1.368 1.08,-2.448 2.448,-2.448 1.368,0 2.448,1.08 2.448,2.448 0,1.368 -1.08,2.448 -2.448,2.448 -1.368,0 -2.448,-1.08 -2.448,-2.448 z"
   id="path143"
   inkscape:connector-curvature="0"
   style="fill:#0090c6" />
<path
   d="m 142.1222,104.18398 c 0,-1.584 1.296,-2.88 2.88,-2.88 1.584,0 2.88,1.296 2.88,2.88 0,1.584 -1.296,2.808 -2.88,2.808 -1.584,0 -2.88,-1.224 -2.88,-2.808 z"
   id="path145"
   inkscape:connector-curvature="0"
   style="fill:#0090c6" />
<path
   d="m 234.9302,29.015974 c 0,-1.152 0.936,-2.088 2.088,-2.088 1.152,0 2.088,0.936 2.088,2.088 0,1.152 -0.936,2.016 -2.088,2.016 -1.152,0 -2.088,-0.864 -2.088,-2.016 z"
   id="path147"
   inkscape:connector-curvature="0"
   style="fill:#0090c6" />
<path
   d="m 205.4102,38.519974 c 0,-1.368 1.08,-2.448 2.448,-2.448 1.368,0 2.448,1.08 2.448,2.448 0,1.368 -1.08,2.448 -2.448,2.448 -1.368,0 -2.448,-1.08 -2.448,-2.448 z"
   id="path149"
   inkscape:connector-curvature="0"
   style="fill:#0090c6" />
<path
   d="m 219.7382,32.975974 c 0,-1.152 0.936,-2.088 2.088,-2.088 1.08,0 2.016,0.936 2.016,2.088 0,1.152 -0.936,2.088 -2.016,2.088 -1.152,0 -2.088,-0.936 -2.088,-2.088 z"
   id="path151"
   inkscape:connector-curvature="0"
   style="fill:#0090c6" />
<circle
   cx="257.90399"
   cy="143.584"
   r="2.0880001"
   id="circle153"
   sodipodi:cx="257.90399"
   sodipodi:cy="143.584"
   sodipodi:rx="2.0880001"
   sodipodi:ry="2.0880001"
   style="fill:#0090c6"
   transform="translate(-28.51776,-112.62402)" />
<path
   d="m 180.2822,43.991974 c 0,-1.584 1.296,-2.808 2.88,-2.808 1.584,0 2.808,1.224 2.808,2.808 0,1.584 -1.224,2.88 -2.808,2.88 -1.584,0 -2.88,-1.296 -2.88,-2.88 z"
   id="path155"
   inkscape:connector-curvature="0"
   style="fill:#0090c6" />
<path
   d="m 190.3622,43.415974 c 0,-1.584 1.296,-2.88 2.808,-2.88 1.584,0 2.88,1.296 2.88,2.88 0,1.584 -1.296,2.88 -2.88,2.88 -1.512,0 -2.808,-1.296 -2.808,-2.88 z"
   id="path157"
   inkscape:connector-curvature="0"
   style="fill:#0090c6" />
<circle
   cx="242.71201"
   cy="147.54401"
   r="2.0880001"
   id="circle159"
   sodipodi:cx="242.71201"
   sodipodi:cy="147.54401"
   sodipodi:rx="2.0880001"
   sodipodi:ry="2.0880001"
   style="fill:#0090c6"
   transform="translate(-28.51776,-112.62402)" />
<path
   d="m 236.2262,97.559975 c 0.216,-1.008 1.656,-5.184 1.656,-5.184 0,0 -1.512,-2.304001 -1.368,-3.240001 0.144,-0.864 1.44,-1.872 2.232,-2.16 0.72,-0.288 6.048,1.44 6.48,2.088 0.432,0.72 -2.16,3.888001 -1.8,4.824001 0.36,0.936 3.888,1.08 3.96,1.872 0.072,0.864 -2.376,4.752005 -3.168,4.896005 -0.792,0.216 -3.672,-1.224005 -4.032,-1.368005 -0.36,-0.144 -4.32,-0.072 -3.96,-1.728 z"
   id="path161"
   inkscape:connector-curvature="0"
   style="fill:#db5232" />
<path
   d="m 172.8662,52.199974 c -0.504,2.304 -20.592,5.976 -22.896,20.808 -2.376,14.832 11.88,22.104001 11.88,22.104001 0,0 2.376,1.368 0,3.96 -2.304,2.520005 -7.488,-0.792 -7.488,-0.792 0,0 -12.24,-7.344001 -9.936,-24.768001 2.376,-17.424 28.944,-23.544 28.44,-21.312 z"
   id="path163"
   inkscape:connector-curvature="0"
   style="fill:#db5232" />
<path
   d="m 175.3142,58.175974 c 0,0 -13.752,4.896 -17.136,11.448 -3.456,6.48 1.512,19.224 1.512,19.224 0,0 3.024,-2.232 5.112,-2.736 2.088,-0.504 4.752,0.36 7.632,-0.144 2.88,-0.504 4.104,-7.2 4.104,-7.2 0,0 -1.872,-9.936 -1.872,-12.024 0,-3.24 0.648,-8.568 0.648,-8.568 z"
   id="path165"
   inkscape:connector-curvature="0"
   style="fill:#db5232" />
<path
   d="m 167.2502,88.631974 c 1.008,-0.792 4.176,0.72 6.264,-0.288 2.088,-1.08 4.104,-3.168 4.104,-3.168 0,0 0.216,-0.504 2.088,0.792 1.8,1.296 4.176,3.672 4.68,5.472 0.504,1.872001 -2.088,0 -2.592,1.584001 -0.504,1.584 0,3.96 0,3.96 0,0 -5.976,4.320005 -8.568,4.608005 -2.592,0.288 -4.464,-1.728005 -5.976,-4.608005 -1.584,-2.88 0.504,-2.376 1.008,-3.456 0.504,-1.008 -2.088,-4.176001 -1.008,-4.896001 z"
   id="path167"
   inkscape:connector-curvature="0"
   style="fill:#db5232" />
<path
   d="m 141.9062,107.35198 c 1.08,-0.144 5.472,-0.072 5.472,-0.072 0,0 1.728,-2.232 2.664,-2.304 0.864,-0.144 2.232,0.792 2.736,1.44 0.504,0.576 0.576,6.192 0.072,6.84 -0.504,0.576 -4.392,-0.864 -5.184,-0.288 -0.72,0.648 0.216,4.104 -0.576,4.392 -0.72,0.288 -5.184,-0.792 -5.616,-1.512 -0.432,-0.648 0.072,-3.888 0.072,-4.248 0,-0.36 -1.29599,-4.032 0.36,-4.248 z"
   id="path169"
   inkscape:connector-curvature="0"
   style="fill:#db5232" />
<path
   d="m 167.5382,106.19998 c 0.144,1.008 0.216,5.4 0.216,5.4 0,0 2.232,1.728 2.376,2.592 0.144,0.864 -0.792,2.304 -1.44,2.808 -0.576,0.504 -6.192,0.648 -6.84,0.216 -0.648,-0.504 0.792,-4.464 0.144,-5.184 -0.576,-0.72 -4.032,0.288 -4.392,-0.504 -0.288,-0.72 0.72,-5.184 1.44,-5.616 0.648,-0.504 3.888,0 4.248,-0.072 0.36,0 4.032,-1.368 4.248,0.36 z"
   id="path171"
   inkscape:connector-curvature="0"
   style="fill:#db5232" />
<path
   d="m 236.1542,42.479974 c 0,0 -15.12,5.472 -20.088,13.104 -4.968,7.776 -1.944,17.856 -1.944,17.856 0,0 7.56,-0.72 9.648,-1.224 2.088,-0.504 4.824,0.432 7.704,-0.144 2.88,-0.504 4.104,-7.2 4.104,-7.2 0,0 -0.36,-8.424 -0.36,-10.512 0,-3.24 0.936,-11.88 0.936,-11.88 z"
   id="path173"
   inkscape:connector-curvature="0"
   style="fill:#db5232" />
<path
   d="m 236.6582,36.359974 c -2.088,2.232 -26.136,12.672 -28.512,24.552 -2.304,12.024 9.504,17.352 7.128,20.664 -1.44,2.088 -15.552,-2.592 -11.448,-22.032 4.176,-19.44 34.992,-25.416 32.832,-23.184 z"
   id="path175"
   inkscape:connector-curvature="0"
   style="fill:#db5232" />
<path
   d="m 217.2902,83.375974 c 0.072,-1.656 1.872,-0.288 2.376,-2.016 0.504,-1.8 -0.936,-5.76 -0.648,-6.336 0.36,-0.648 6.336,1.44 8.64,1.008 2.232,-0.432 1.872,-1.944 3.888,-2.592 2.088,-0.648 6.552,7.056 5.4,9.36 -1.08,2.304 -4.968,6.192 -4.968,6.192 0,0 -6.12,2.52 -8.856,1.368 -2.808,-1.152 -5.976,-5.256 -5.832,-6.984 z"
   id="path177"
   inkscape:connector-curvature="0"
   style="fill:#db5232" />
<path
   d="m 175.8902,65.231974 c -0.288,13.248 4.968,23.184 8.64,21.24 3.384,-1.728 -4.896,-8.28 -4.68,-19.656 0.288,-12.816 8.352,-20.088 6.264,-20.88 -2.088,-0.792 -9.936,8.352 -10.224,19.296 z"
   id="path179"
   inkscape:connector-curvature="0"
   style="fill:#db5232" />
<path
   d="m 241.1222,29.375974 c 0.792,-0.432 1.368,0.288 2.16,2.808 1.08,3.312 -4.176,20.088 -4.176,25.704 0,5.616 3.384,16.272 1.584,19.656 -1.8,3.456 -3.384,-18.072 -3.816,-22.104 -0.36,-3.96 4.104,-19.08 3.672,-22.104 -0.36,-3.024 -0.216,-3.528 0.576,-3.96 z"
   id="path181"
   inkscape:connector-curvature="0"
   style="fill:#db5232" />
<path
   d="m 246.4502,43.343974 c 1.08,2.448 -1.512,2.232 -1.368,15.408 0.216,13.104 1.944,10.008 1.224,14.616 -0.72,4.68 -4.824,-12.24 -4.824,-16.56 0,-4.32 3.96,-15.84 4.968,-13.464 z"
   id="path183"
   inkscape:connector-curvature="0"
   style="fill:#db5232" />
<path
   d="m 139.09821,95.183975 c 0,-1.584 1.296,-2.88 2.87999,-2.88 1.584,0 2.808,1.296 2.808,2.88 0,1.584 -1.224,2.88 -2.808,2.88 -1.58399,0 -2.87999,-1.296 -2.87999,-2.88 z"
   id="path185"
   inkscape:connector-curvature="0"
   style="fill:#0090c6" />
<path
   d="m 199.6502,43.487974 c 0,-1.368 1.152,-2.448 2.52,-2.448 1.368,0 2.448,1.08 2.448,2.448 0,1.368 -1.08,2.448 -2.448,2.448 -1.368,0 -2.52,-1.08 -2.52,-2.448 z"
   id="path187"
   inkscape:connector-curvature="0"
   style="fill:#0090c6" />
<path
   d="m 225.2822,94.895975 c -0.216,-1.584 0.936,-3.024 2.52,-3.168 1.584,-0.144 2.952,1.008 3.168,2.52 0.144,1.584 -1.008,3.024 -2.592,3.168 -1.512,0.144 -2.952,-0.936 -3.096,-2.52 z"
   id="path189"
   inkscape:connector-curvature="0"
   style="fill:#0090c6" />
<path
   d="m 199.2902,96.983975 c -0.36,-1.512 0.648,-3.024 2.16,-3.384 1.584,-0.288 3.096,0.648 3.456,2.232 0.288,1.512 -0.72,3.024 -2.232,3.384 -1.584,0.288 -3.096,-0.648 -3.384,-2.232 z"
   id="path191"
   inkscape:connector-curvature="0"
   style="fill:#0090c6" />
<path
   d="m 175.5302,105.98398 c -0.504,-1.512 0.36,-3.096 1.8,-3.6 1.512,-0.504 3.168,0.36 3.6,1.872 0.504,1.44 -0.288,3.096 -1.8,3.6 -1.512,0.432 -3.096,-0.36 -3.6,-1.872 z"
   id="path193"
   inkscape:connector-curvature="0"
   style="fill:#0090c6" />
<path
   d="m 196.1222,80.207974 c 1.008,0.288 5.04,2.016 5.04,2.016 0,0 2.448,-1.368 3.312,-1.152 0.864,0.216 1.8,1.584 2.016,2.376 0.288,0.72 -1.8,5.976 -2.448,6.336 -0.72,0.432 -3.744,-2.448 -4.68,-2.16 -0.936,0.288 -1.368,3.888 -2.16,3.888 -0.864,0 -4.536,-2.736 -4.68,-3.528 -0.144,-0.792 1.512,-3.6 1.656,-3.96 0.144,-0.288 0.288,-4.248 1.944,-3.816 z"
   id="path195"
   inkscape:connector-curvature="0"
   style="fill:#db5232" />
<path
   d="m 186.8342,103.96798 c 0.144,-1.008 1.296,-5.256005 1.296,-5.256005 0,0 -1.728,-2.232 -1.584,-3.168 0.072,-0.864 1.368,-1.944 2.088,-2.304 0.72,-0.288 6.12,1.008 6.624,1.656 0.504,0.648 -1.944,4.032 -1.512,4.896 0.432,0.936005 3.96,0.864005 4.104,1.656005 0.072,0.864 -2.088,4.824 -2.88,5.112 -0.792,0.216 -3.744,-1.008 -4.104,-1.152 -0.36,-0.072 -4.248,0.216 -4.032,-1.44 z"
   id="path197"
   inkscape:connector-curvature="0"
   style="fill:#db5232" />
<path
   d="m 218.3702,91.799975 c -0.288,1.008 -2.304,4.896 -2.304,4.896 0,0 1.224,2.592 1.008,3.384005 -0.288,0.864 -1.728,1.728 -2.52,1.872 -0.792,0.216 -5.832,-2.160005 -6.192,-2.880005 -0.36,-0.72 2.664,-3.6 2.448,-4.536 -0.216,-0.936 -3.744,-1.584 -3.744,-2.376 0.072,-0.864001 3.024,-4.392001 3.816,-4.464001 0.792,-0.072 3.456,1.728 3.816,1.872 0.36,0.216 4.248,0.648 3.672,2.232001 z"
   id="path199"
   inkscape:connector-curvature="0"
   style="fill:#db5232" />
<path
   d="m 155.5142,123.04798 c 0,-1.584 1.296,-2.808 2.808,-2.808 1.584,0 2.88,1.224 2.88,2.808 0,1.584 -1.296,2.88 -2.88,2.88 -1.512,0 -2.808,-1.296 -2.808,-2.88 z"
   id="path201"
   inkscape:connector-curvature="0"
   style="fill:#0090c6" />
<path
   d="m 162.0662,121.82398 c 6.552,0.504 11.88,-2.16 15.408,-9.216 0.504,-0.936 1.872,-1.44 2.808,-1.08 8.856,3.6 15.984,2.736 21.528,-5.688 0.504,-0.864 1.944,-1.224 2.808,-0.72 8.496,4.608 15.624,4.32 22.176,-3.456 0.648,-0.72 2.088,-0.936 2.88,-0.36 7.992,5.544 15.12,5.832 22.464,-1.08 0.72,-0.720005 2.232,-0.720005 2.952,0 7.344,6.912 14.4,6.624 22.392,1.08 0.792,-0.576 2.232,-0.36 2.88,0.36 6.48,7.776 13.608,8.064 22.104,3.456 0.864,-0.504 2.304,-0.144 2.88,0.72 5.544,8.424 12.6,9.288 21.528,5.688 0.936,-0.36 2.304,0.144 2.736,1.08 3.528,7.056 8.856,9.72 15.408,9.216 l 0.432,4.32 c -7.632,0.576 -14.328,-2.232 -18.792,-9.864 -9.36,3.312 -17.64,1.8 -23.832,-6.48 -9.072,4.392 -17.424,3.672 -24.552,-3.888 -8.424,5.328 -16.776,5.4 -24.696,-1.224 -7.92,6.624 -16.272,6.552 -24.768,1.224 -7.128,7.56 -15.48,8.28 -24.48,3.888 -6.192,8.28 -14.472,9.792 -23.904,6.48 -4.392,7.632 -11.088,10.44 -18.792,9.864 l 0.432,-4.32 z"
   id="path203"
   inkscape:connector-curvature="0"
   style="fill:#db5232" />
<path
   d="m 252.2102,16.919974 c 0.432,-0.072 0.936,-0.144 1.368,-0.144 0.504,0 0.936,0.072 1.44,0.144 v -5.328 h 5.328 V 9.7199738 h -5.328 v -6.624 h -2.808 v 6.624 h -5.328 v 1.8720002 h 5.328 v 5.328 z"
   id="path205"
   inkscape:connector-curvature="0"
   style="fill:#ffffff" />
<path
   d="m 260.3462,26.063974 c -0.144,-1.656 -0.864,-3.096 -1.944,-4.248 -1.224,-1.224 -2.952,-1.944 -4.824,-1.944 -3.528,0 -6.48,2.736 -6.696,6.192 h 2.088 c 0.144,-2.448 2.16,-4.392 4.608,-4.392 2.52,0 4.536,1.944 4.608,4.392 h 2.16 z"
   id="path207"
   inkscape:connector-curvature="0"
   style="fill:#ffffff" />
<path
   d="m 370.0022,86.975974 c 0,-1.584 -1.296,-2.808 -2.88,-2.808 -1.584,0 -2.808,1.224 -2.808,2.808 0,1.584 1.224,2.88 2.808,2.88 1.584,0 2.88,-1.296 2.88,-2.88 z"
   id="path209"
   inkscape:connector-curvature="0"
   style="fill:#0090c6" />
<path
   d="m 371.0102,78.047974 c 0,-1.584 -1.296,-2.808 -2.88,-2.808 -1.584,0 -2.88,1.224 -2.88,2.808 0,1.584 1.296,2.88 2.88,2.88 1.584,0 2.88,-1.296 2.88,-2.88 z"
   id="path211"
   inkscape:connector-curvature="0"
   style="fill:#0090c6" />
<path
   d="m 368.7782,68.903974 c 0,-1.584 -1.296,-2.88 -2.88,-2.88 -1.584,0 -2.88,1.296 -2.88,2.88 0,1.584 1.296,2.88 2.88,2.88 1.584,0 2.88,-1.296 2.88,-2.88 z"
   id="path213"
   inkscape:connector-curvature="0"
   style="fill:#0090c6" />
<path
   d="m 364.0262,60.983974 c 0,-1.584 -1.224,-2.88 -2.808,-2.88 -1.584,0 -2.88,1.296 -2.88,2.88 0,1.584 1.296,2.88 2.88,2.88 1.584,0 2.808,-1.296 2.808,-2.88 z"
   id="path215"
   inkscape:connector-curvature="0"
   style="fill:#0090c6" />
<path
   d="m 356.3942,54.791974 c 0,-1.584 -1.296,-2.88 -2.88,-2.88 -1.584,0 -2.88,1.296 -2.88,2.88 0,1.584 1.296,2.808 2.88,2.808 1.584,0 2.88,-1.224 2.88,-2.808 z"
   id="path217"
   inkscape:connector-curvature="0"
   style="fill:#0090c6" />
<path
   d="m 347.1782,49.103974 c 0,-1.584 -1.296,-2.88 -2.808,-2.88 -1.584,0 -2.88,1.296 -2.88,2.88 0,1.512 1.296,2.808 2.88,2.808 1.512,0 2.808,-1.296 2.808,-2.808 z"
   id="path219"
   inkscape:connector-curvature="0"
   style="fill:#0090c6" />
<path
   d="m 337.5302,46.583974 c 0,-1.584 -1.296,-2.88 -2.88,-2.88 -1.584,0 -2.808,1.296 -2.808,2.88 0,1.584 1.224,2.88 2.808,2.88 1.584,0 2.88,-1.296 2.88,-2.88 z"
   id="path221"
   inkscape:connector-curvature="0"
   style="fill:#0090c6" />
<path
   d="m 311.3942,51.407974 c 0,-1.368 -1.08,-2.448 -2.448,-2.448 -1.368,0 -2.448,1.08 -2.448,2.448 0,1.368 1.08,2.52 2.448,2.52 1.368,0 2.448,-1.152 2.448,-2.52 z"
   id="path223"
   inkscape:connector-curvature="0"
   style="fill:#0090c6" />
<path
   d="m 315.1382,60.335974 c 0,-1.368 -1.152,-2.448 -2.521,-2.448 -1.296,0 -2.448,1.08 -2.448,2.448 0,1.368 1.152,2.448 2.448,2.448 1.369,0 2.521,-1.08 2.521,-2.448 z"
   id="path225"
   inkscape:connector-curvature="0"
   style="fill:#0090c6" />
<path
   d="m 315.1382,70.271974 c 0,-1.368 -1.152,-2.448 -2.521,-2.448 -1.296,0 -2.448,1.08 -2.448,2.448 0,1.368 1.152,2.448 2.448,2.448 1.369,0 2.521,-1.08 2.521,-2.448 z"
   id="path227"
   inkscape:connector-curvature="0"
   style="fill:#0090c6" />
<path
   d="m 364.9622,104.18398 c 0,-1.584 -1.296,-2.88 -2.88,-2.88 -1.584,0 -2.808,1.296 -2.808,2.88 0,1.584 1.224,2.808 2.808,2.808 1.584,0 2.88,-1.224 2.88,-2.808 z"
   id="path229"
   inkscape:connector-curvature="0"
   style="fill:#0090c6" />
<path
   d="m 272.2262,29.015974 c 0,-1.152 -0.936,-2.088 -2.088,-2.088 -1.152,0 -2.016,0.936 -2.016,2.088 0,1.152 0.864,2.016 2.016,2.016 1.152,0 2.088,-0.864 2.088,-2.016 z"
   id="path231"
   inkscape:connector-curvature="0"
   style="fill:#0090c6" />
<path
   d="m 301.7462,38.519974 c 0,-1.368 -1.152,-2.448 -2.52,-2.448 -1.296,0 -2.448,1.08 -2.448,2.448 0,1.368 1.152,2.448 2.448,2.448 1.368,0 2.52,-1.08 2.52,-2.448 z"
   id="path233"
   inkscape:connector-curvature="0"
   style="fill:#0090c6" />
<circle
   cx="313.84799"
   cy="145.60001"
   r="2.0880001"
   id="circle235"
   sodipodi:cx="313.84799"
   sodipodi:cy="145.60001"
   sodipodi:rx="2.0880001"
   sodipodi:ry="2.0880001"
   style="fill:#0090c6"
   transform="translate(-28.51776,-112.62402)" />
<path
   d="m 279.7862,30.959974 c 0,-1.152 -0.936,-2.088 -2.016,-2.088 -1.152,0 -2.088,0.936 -2.088,2.088 0,1.152 0.936,2.088 2.088,2.088 1.08,0 2.016,-0.936 2.016,-2.088 z"
   id="path237"
   inkscape:connector-curvature="0"
   style="fill:#0090c6" />
<path
   d="m 326.8022,43.991974 c 0,-1.584 -1.224,-2.808 -2.808,-2.808 -1.584,0 -2.88,1.224 -2.88,2.808 0,1.584 1.296,2.88 2.88,2.88 1.584,0 2.808,-1.296 2.808,-2.88 z"
   id="path239"
   inkscape:connector-curvature="0"
   style="fill:#0090c6" />
<path
   d="m 316.7942,43.415974 c 0,-1.584 -1.296,-2.88 -2.88,-2.88 -1.584,0 -2.88,1.296 -2.88,2.88 0,1.584 1.296,2.88 2.88,2.88 1.584,0 2.88,-1.296 2.88,-2.88 z"
   id="path241"
   inkscape:connector-curvature="0"
   style="fill:#0090c6" />
<circle
   cx="321.48001"
   cy="147.54401"
   r="2.0880001"
   id="circle243"
   sodipodi:cx="321.48001"
   sodipodi:cy="147.54401"
   sodipodi:rx="2.0880001"
   sodipodi:ry="2.0880001"
   style="fill:#0090c6"
   transform="translate(-28.51776,-112.62402)" />
<path
   d="m 270.9302,97.559975 c -0.216,-1.008 -1.584,-5.184 -1.584,-5.184 0,0 1.512,-2.304001 1.368,-3.240001 -0.144,-0.864 -1.512,-1.872 -2.232,-2.16 -0.792,-0.288 -6.12,1.44 -6.552,2.088 -0.432,0.72 2.232,3.888001 1.872,4.824001 -0.36,0.936 -3.96,1.08 -4.032,1.872 0,0.864 2.448,4.752005 3.24,4.896005 0.792,0.216 3.672,-1.224005 4.032,-1.368005 0.36,-0.144 4.248,-0.072 3.888,-1.728 z"
   id="path245"
   inkscape:connector-curvature="0"
   style="fill:#db5232" />
<path
   d="m 334.2902,52.199974 c 0.504,2.304 20.52,5.976 22.896,20.808 2.376,14.832 -11.952,22.104001 -11.952,22.104001 0,0 -2.376,1.368 0,3.96 2.376,2.520005 7.488,-0.792 7.488,-0.792 0,0 12.312,-7.344001 9.936,-24.768001 -2.376,-17.424 -28.944,-23.544 -28.368,-21.312 z"
   id="path247"
   inkscape:connector-curvature="0"
   style="fill:#db5232" />
<path
   d="m 331.7702,58.175974 c 0,0 13.824,4.896 17.208,11.448 3.384,6.48 -1.584,19.224 -1.584,19.224 0,0 -2.952,-2.232 -5.04,-2.736 -2.088,-0.504 -4.824,0.36 -7.704,-0.144 -2.88,-0.504 -4.104,-7.2 -4.104,-7.2 0,0 1.872,-9.936 1.872,-12.024 0,-3.24 -0.648,-8.568 -0.648,-8.568 z"
   id="path249"
   inkscape:connector-curvature="0"
   style="fill:#db5232" />
<path
   d="m 339.9062,88.631974 c -1.08,-0.792 -4.176,0.72 -6.264,-0.288 -2.088,-1.08 -4.104,-3.168 -4.104,-3.168 0,0 -0.288,-0.504 -2.088,0.792 -1.872,1.296 -4.176,3.672 -4.752,5.472 -0.504,1.872001 2.088,0 2.664,1.584001 0.504,1.584 0,3.96 0,3.96 0,0 5.904,4.320005 8.496,4.608005 2.664,0.288 4.464,-1.728005 6.048,-4.608005 1.584,-2.88 -0.504,-2.376 -1.08,-3.456 -0.504,-1.008 2.088,-4.176001 1.08,-4.896001 z"
   id="path251"
   inkscape:connector-curvature="0"
   style="fill:#db5232" />
<path
   d="m 365.1782,107.35198 c -1.008,-0.144 -5.4,-0.072 -5.4,-0.072 0,0 -1.8,-2.232 -2.664,-2.304 -0.864,-0.144 -2.232,0.792 -2.736,1.44 -0.504,0.576 -0.576,6.192 -0.072,6.84 0.504,0.576 4.392,-0.864 5.112,-0.288 0.792,0.648 -0.144,4.104 0.576,4.392 0.72,0.288 5.184,-0.792 5.616,-1.512 0.432,-0.648 -0.072,-3.888 -0.072,-4.248 0,-0.36 1.296,-4.032 -0.36,-4.248 z"
   id="path253"
   inkscape:connector-curvature="0"
   style="fill:#db5232" />
<path
   d="m 339.5462,106.19998 c -0.144,1.008 -0.144,5.4 -0.144,5.4 0,0 -2.232,1.728 -2.376,2.592 -0.144,0.864 0.792,2.304 1.368,2.808 0.648,0.504 6.192,0.648 6.84,0.216 0.648,-0.504 -0.792,-4.464 -0.144,-5.184 0.648,-0.72 4.032,0.288 4.392,-0.504 0.36,-0.72 -0.72,-5.184 -1.368,-5.616 -0.72,-0.504 -3.888,0 -4.32,-0.072 -0.36,0 -4.032,-1.368 -4.248,0.36 z"
   id="path255"
   inkscape:connector-curvature="0"
   style="fill:#db5232" />
<path
   d="m 271.0022,42.479974 c 0,0 15.048,5.472 20.016,13.104 4.968,7.776 2.016,17.856 2.016,17.856 0,0 -7.632,-0.72 -9.72,-1.224 -2.088,-0.504 -4.752,0.432 -7.56,-0.144 -2.88,-0.504 -4.104,-7.2 -4.104,-7.2 0,0 0.36,-8.424 0.36,-10.512 0,-3.24 -1.008,-11.88 -1.008,-11.88 z"
   id="path257"
   inkscape:connector-curvature="0"
   style="fill:#db5232" />
<path
   d="m 270.4982,36.359974 c 2.16,2.232 26.136,12.672 28.44,24.552 2.376,12.024 -9.504,17.352 -7.128,20.664 1.512,2.088 15.552,-2.592 11.448,-22.032 -4.104,-19.44 -34.92,-25.416 -32.76,-23.184 z"
   id="path259"
   inkscape:connector-curvature="0"
   style="fill:#db5232" />
<path
   d="m 289.8662,83.375974 c -0.144,-1.656 -1.872,-0.288 -2.376,-2.016 -0.576,-1.8 0.936,-5.76 0.576,-6.336 -0.288,-0.648 -6.264,1.44 -8.568,1.008 -2.232,-0.432 -1.8,-1.944 -3.888,-2.592 -2.088,-0.648 -6.552,7.056 -5.4,9.36 1.152,2.304 4.968,6.192 4.968,6.192 0,0 6.048,2.52 8.856,1.368 2.808,-1.152 5.904,-5.256 5.832,-6.984 z"
   id="path261"
   inkscape:connector-curvature="0"
   style="fill:#db5232" />
<path
   d="m 331.1942,65.231974 c 0.288,13.248 -4.968,23.184 -8.64,21.24 -3.384,-1.728 4.968,-8.28 4.752,-19.656 -0.288,-12.816 -8.424,-20.088 -6.336,-20.88 2.088,-0.792 9.936,8.352 10.224,19.296 z"
   id="path263"
   inkscape:connector-curvature="0"
   style="fill:#db5232" />
<path
   d="m 266.1062,29.375974 c -0.792,-0.432 -1.44,0.288 -2.232,2.808 -1.08,3.312 4.176,20.088 4.176,25.704 0,5.616 -3.384,16.272 -1.584,19.656 1.8,3.456 3.384,-18.072 3.816,-22.104 0.432,-3.96 -4.104,-19.08 -3.672,-22.104 0.432,-3.024 0.288,-3.528 -0.504,-3.96 z"
   id="path265"
   inkscape:connector-curvature="0"
   style="fill:#db5232" />
<path
   d="m 260.7062,43.343974 c -1.008,2.448 1.584,2.232 1.368,15.408 -0.144,13.104 -1.872,10.008 -1.224,14.616 0.72,4.68 4.824,-12.24 4.824,-16.56 0,-4.32 -3.96,-15.84 -4.968,-13.464 z"
   id="path267"
   inkscape:connector-curvature="0"
   style="fill:#db5232" />
<path
   d="m 367.9862,95.183975 c 0,-1.584 -1.224,-2.88 -2.808,-2.88 -1.584,0 -2.88,1.296 -2.88,2.88 0,1.584 1.296,2.88 2.88,2.88 1.584,0 2.808,-1.296 2.808,-2.88 z"
   id="path269"
   inkscape:connector-curvature="0"
   style="fill:#0090c6" />
<path
   d="m 307.4342,43.487974 c 0,-1.368 -1.08,-2.448 -2.448,-2.448 -1.368,0 -2.52,1.08 -2.52,2.448 0,1.368 1.152,2.448 2.52,2.448 1.368,0 2.448,-1.08 2.448,-2.448 z"
   id="path271"
   inkscape:connector-curvature="0"
   style="fill:#0090c6" />
<path
   d="m 281.8742,94.895975 c 0.144,-1.584 -1.008,-3.024 -2.592,-3.168 -1.44,-0.144 -2.88,1.008 -3.024,2.52 -0.216,1.584 0.936,3.024 2.448,3.168 1.584,0.144 2.952,-0.936 3.168,-2.52 z"
   id="path273"
   inkscape:connector-curvature="0"
   style="fill:#0090c6" />
<path
   d="m 307.8662,96.983975 c 0.288,-1.512 -0.72,-3.024 -2.232,-3.384 -1.512,-0.288 -3.096,0.648 -3.384,2.232 -0.36,1.512 0.648,3.024 2.232,3.384 1.512,0.288 3.024,-0.648 3.384,-2.232 z"
   id="path275"
   inkscape:connector-curvature="0"
   style="fill:#0090c6" />
<path
   d="m 331.6262,105.98398 c 0.432,-1.512 -0.36,-3.096 -1.872,-3.6 -1.512,-0.504 -3.096,0.36 -3.6,1.872 -0.504,1.44 0.36,3.096 1.872,3.6 1.512,0.432 3.096,-0.36 3.6,-1.872 z"
   id="path277"
   inkscape:connector-curvature="0"
   style="fill:#0090c6" />
<path
   d="m 311.0342,80.207974 c -1.08,0.288 -5.112,2.016 -5.112,2.016 0,0 -2.448,-1.368 -3.312,-1.152 -0.864,0.216 -1.8,1.584 -2.016,2.376 -0.216,0.72 1.8,5.976 2.52,6.336 0.72,0.432 3.744,-2.448 4.68,-2.16 0.936,0.288 1.296,3.888 2.16,3.888 0.792,0 4.536,-2.736 4.68,-3.528 0.144,-0.792 -1.512,-3.6 -1.656,-3.96 -0.144,-0.288 -0.36,-4.248 -1.944,-3.816 z"
   id="path279"
   inkscape:connector-curvature="0"
   style="fill:#db5232" />
<path
   d="m 320.3222,103.96798 c -0.144,-1.008 -1.296,-5.256005 -1.296,-5.256005 0,0 1.656,-2.232 1.584,-3.168 -0.144,-0.864 -1.368,-1.944 -2.088,-2.304 -0.792,-0.288 -6.192,1.008 -6.696,1.656 -0.432,0.648 2.016,4.032 1.584,4.896 -0.432,0.936005 -4.032,0.864005 -4.104,1.656005 -0.144,0.864 2.088,4.824 2.88,5.112 0.72,0.216 3.744,-1.008 4.104,-1.152 0.36,-0.072 4.248,0.216 4.032,-1.44 z"
   id="path281"
   inkscape:connector-curvature="0"
   style="fill:#db5232" />
<path
   d="m 288.7142,91.799975 c 0.36,1.008 2.304,4.896 2.304,4.896 0,0 -1.224,2.592 -0.936,3.384005 0.216,0.864 1.728,1.728 2.448,1.872 0.792,0.216 5.904,-2.160005 6.192,-2.880005 0.36,-0.72 -2.664,-3.6 -2.448,-4.536 0.288,-0.936 3.816,-1.584 3.744,-2.376 -0.072,-0.864001 -2.952,-4.392001 -3.816,-4.464001 -0.792,-0.072 -3.456,1.728 -3.816,1.872 -0.288,0.216 -4.176,0.648 -3.672,2.232001 z"
   id="path283"
   inkscape:connector-curvature="0"
   style="fill:#db5232" />
<path
   d="m 351.6422,123.04798 c 0,-1.584 -1.296,-2.808 -2.88,-2.808 -1.584,0 -2.88,1.224 -2.88,2.808 0,1.584 1.296,2.88 2.88,2.88 1.584,0 2.88,-1.296 2.88,-2.88 z"
   id="path285"
   inkscape:connector-curvature="0"
   style="fill:#0090c6" />
<path
   d="m 206.6342,119.15998 c -15.624,3.384 -30.6,8.352 -44.856,14.76 -0.864,0.36 -0.936,1.296 -0.648,2.016 0.576,1.368 1.44,1.44 2.52,0.936 13.968,-6.192 28.656,-11.088 43.92,-14.328 30.24,-6.48 61.776,-6.48 91.944,0 15.264,3.24 30.024,8.136 43.92,14.328 1.152,0.504 1.944,0.432 2.52,-0.936 0.36,-0.72 0.288,-1.656 -0.648,-2.016 -14.184,-6.408 -29.232,-11.376 -44.784,-14.76 -30.816,-6.624 -63.072,-6.624 -93.888,0 z"
   id="path287"
   inkscape:connector-curvature="0"
   style="fill:#db5232" />
<path
   d="m 219.9542,442.29598 v -67.32 h -74.304 c 10.872,32.112 35.712,57.888 67.176,69.984 l 7.128,-2.664 0,0 z m -153.64796,-22.68 v 80.208 l 43.77599,-16.344 c -18.35999,-18.216 -33.33599,-39.888 -43.77599,-63.864 l 0,0 z m 333.50396,-44.64 h -110.16 v 41.256 l 110.16,-41.256 0,0 z m -110.16,-118.656 v 48.6 h 120.096 l -120.096,-48.6 0,0 z m -79.92,48.6 h 10.224 v -74.952 c -20.16,6.264 -38.016,18.072 -51.696,33.552 l 41.472,41.4 0,0 z m -91.87197,-118.224 -44.20799,-17.928 30.888,30.888 c 4.248,-4.536 8.63999,-8.856 13.31999,-12.96 l 0,0 z m 26.99997,118.224 c 2.952,-9.504 7.128,-18.432 12.384,-26.64 l 26.712,26.64 h -39.096 l 0,0 z m -52.27196,-91.224 c -10.512,13.464 -19.368,28.296 -26.28,44.136 v -70.416 l 26.28,26.28 z"
   id="path289"
   inkscape:connector-curvature="0"
   style="fill:#ffffff" />
<path
   d="m 224.1302,362.87998 c -0.216,-0.504 -0.36,-0.936 -0.576,-1.368 l -4.896,-0.072 3.168,-3.672 c -0.072,-0.144 -0.144,-0.288 -0.216,-0.432 -0.792,0.144 -1.584,-0.36 -1.872,-1.08 -0.216,-0.504 -0.216,-1.008 0.072,-1.44 0,-0.72 0,-0.936 -0.72,-1.296 -0.432,-0.144 -0.864,-0.36 -1.44,-0.936 -0.432,-0.576 -0.72,-1.152 -1.008,-1.728 -0.576,-1.152 -0.576,-1.368 -1.944,-1.296 -1.224,0 -2.808,0.072 -3.096,-1.512 -0.288,-1.224 0.432,-2.088 1.224,-2.736 -0.216,-0.576 -0.144,-1.296 0.216,-1.872 -1.224,-0.504 -1.728,-1.944 -1.152,-3.096 -1.08,-0.792 -1.296,-2.304 -0.504,-3.312 -1.224,-1.008 -1.08,-2.952 0.36,-3.744 -0.864,-1.296 -0.216,-3.096 1.368,-3.456 -0.432,-1.656 1.008,-3.168 2.664,-2.88 0,-1.656 1.8,-2.736 3.24,-2.016 0,-1.872 2.232,-2.88 3.672,-1.8 0.72,-1.656 3.096,-1.8 4.032,-0.216 0.144,-1.944 2.88,-2.304 3.6,-0.432 0.36,-1.656 2.52,-1.944 3.384,-0.648 0.36,-0.504 1.008,-0.864 1.656,-0.792 0.144,-1.296 1.512,-2.088 2.664,-1.656 0.432,-1.152 1.872,-1.44 2.664,-0.648 0.36,-1.152 1.872,-1.512 2.736,-0.72 0.36,-1.152 1.872,-1.512 2.736,-0.648 0.36,-1.296 2.016,-1.584 2.808,-0.576 h 1.152 c 0.072,-1.296 0.792,-2.376 1.872,-2.952 v -1.152 h -1.872 v -2.808 h 1.872 v -2.376 h 3.168 v 2.376 h 1.872 v 2.808 h -1.872 v 1.152 c 0.36,0.216 0.648,0.432 0.936,0.648 0.576,0.576 0.936,1.44 1.008,2.304 h 1.08 c 0.864,-1.008 2.52,-0.72 2.88,0.576 0.864,-0.864 2.376,-0.504 2.736,0.648 0.864,-0.792 2.304,-0.432 2.664,0.72 0.864,-0.792 2.304,-0.504 2.664,0.648 1.224,-0.432 2.52,0.36 2.664,1.656 0.648,-0.072 1.296,0.288 1.728,0.792 0.864,-1.296 2.952,-1.008 3.384,0.648 0.648,-1.872 3.312,-1.512 3.528,0.432 0.936,-1.584 3.24,-1.44 4.032,0.216 1.44,-1.08 3.6,-0.072 3.6,1.8 1.44,-0.72 3.24,0.36 3.312,2.016 1.584,-0.288 3.096,1.224 2.592,2.88 1.584,0.36 2.232,2.16 1.368,3.456 1.44,0.792 1.584,2.736 0.36,3.744 0.792,1.008 0.576,2.52 -0.504,3.312 0.648,1.152 0.144,2.592 -1.08,3.096 0.288,0.576 0.36,1.296 0.144,1.872 0.792,0.648 1.512,1.512 1.296,2.736 -0.288,1.584 -1.944,1.512 -3.168,1.512 -1.296,-0.072 -1.368,0.144 -1.944,1.296 -0.288,0.576 -0.576,1.152 -1.008,1.728 -0.504,0.576 -1.008,0.792 -1.368,0.936 -0.72,0.36 -0.792,0.576 -0.792,1.296 0.288,0.432 0.288,0.936 0.072,1.44 -0.288,0.72 -1.008,1.224 -1.8,1.08 -0.072,0.144 -0.144,0.288 -0.288,0.432 l 3.24,3.672 -4.968,0.072 c -0.144,0.432 -0.36,0.864 -0.576,1.368 -18.504,-8.496 -40.176,-8.496 -58.824,0 z"
   id="path291"
   inkscape:connector-curvature="0"
   style="fill:#a38d44" />
<path
   d="m 252.5702,331.77598 c 0,-0.576 0.432,-1.008 1.008,-1.008 0.576,0 1.008,0.432 1.008,1.008 0,0.576 -0.432,1.008 -1.008,1.008 -0.576,0 -1.008,-0.432 -1.008,-1.008 z"
   id="path293"
   inkscape:connector-curvature="0"
   style="fill:#57175e" />
<path
   d="m 252.5702,329.32798 c 0,-0.576 0.432,-1.08 1.008,-1.08 0.576,0 1.008,0.504 1.008,1.08 0,0.504 -0.432,1.008 -1.008,1.008 -0.576,0 -1.008,-0.504 -1.008,-1.008 z"
   id="path295"
   inkscape:connector-curvature="0"
   style="fill:#57175e" />
<path
   d="m 252.5702,326.80798 c 0,-0.576 0.432,-1.008 1.008,-1.008 0.576,0 1.008,0.432 1.008,1.008 0,0.576 -0.432,1.008 -1.008,1.008 -0.576,0 -1.008,-0.432 -1.008,-1.008 z"
   id="path297"
   inkscape:connector-curvature="0"
   style="fill:#57175e" />
<path
   d="m 252.5702,324.35998 c 0,-0.576 0.432,-1.008 1.008,-1.008 0.576,0 1.008,0.432 1.008,1.008 0,0.504 -0.432,1.008 -1.008,1.008 -0.576,0 -1.008,-0.504 -1.008,-1.008 z"
   id="path299"
   inkscape:connector-curvature="0"
   style="fill:#57175e" />
<path
   d="m 252.5702,321.83998 c 0,-0.576 0.432,-1.008 1.008,-1.008 0.576,0 1.008,0.432 1.008,1.008 0,0.576 -0.432,1.008 -1.008,1.008 -0.576,0 -1.008,-0.432 -1.008,-1.008 z"
   id="path301"
   inkscape:connector-curvature="0"
   style="fill:#57175e" />
<path
   d="m 252.8582,316.87198 c 0,-0.432 0.36,-0.72 0.72,-0.72 0.432,0 0.72,0.288 0.72,0.72 0,0.432 -0.288,0.72 -0.72,0.72 -0.36,0 -0.72,-0.288 -0.72,-0.72 z"
   id="path303"
   inkscape:connector-curvature="0"
   style="fill:#57175e" />
<path
   d="m 252.5702,319.39198 c 0,-0.576 0.432,-1.008 1.008,-1.008 0.576,0 1.008,0.432 1.008,1.008 0,0.576 -0.432,1.008 -1.008,1.008 -0.576,0 -1.008,-0.432 -1.008,-1.008 z"
   id="path305"
   inkscape:connector-curvature="0"
   style="fill:#57175e" />
<path
   d="m 253.5782,337.31998 c -0.432,0.144 -1.08,0.864 -1.8,0.864 -0.864,0 -1.656,-1.512 -1.152,-2.016 0.432,-0.504 1.512,-0.072 1.872,-0.792 0.36,-0.648 -0.072,-1.728 1.08,-1.584 1.152,-0.144 0.72,0.936 1.08,1.584 0.36,0.72 1.44,0.288 1.944,0.792 0.504,0.504 -0.288,2.016 -1.152,2.016 -0.72,0 -1.44,-0.72 -1.872,-0.864 z"
   id="path307"
   inkscape:connector-curvature="0"
   style="fill:#57175e" />
<polygon
   points="250.992,470.536 248.328,473.488 252.36,473.56 255.024,470.536 "
   id="polygon309"
   style="fill:#57175e"
   transform="translate(-28.51776,-112.62402)" />
<polygon
   points="313.2,470.536 315.792,473.488 311.832,473.56 309.168,470.536 "
   id="polygon311"
   style="fill:#57175e"
   transform="translate(-28.51776,-112.62402)" />
<path
   d="m 252.5702,339.76798 c 0,-0.576 0.432,-1.008 1.008,-1.008 0.576,0 1.008,0.432 1.008,1.008 0,0.576 -0.432,1.008 -1.008,1.008 -0.576,0 -1.008,-0.432 -1.008,-1.008 z"
   id="path313"
   inkscape:connector-curvature="0"
   style="fill:#57175e" />
<path
   d="m 212.1782,338.47198 c 0,-0.576 0.432,-1.008 1.008,-1.008 0.576,0 1.008,0.432 1.008,1.008 0,0.576 -0.432,1.008 -1.008,1.008 -0.576,0 -1.008,-0.432 -1.008,-1.008 z"
   id="path315"
   inkscape:connector-curvature="0"
   style="fill:#57175e" />
<path
   d="m 211.8182,335.30398 c 0,-0.576 0.432,-1.008 1.008,-1.008 0.576,0 1.008,0.432 1.008,1.008 0,0.504 -0.432,1.008 -1.008,1.008 -0.576,0 -1.008,-0.504 -1.008,-1.008 z"
   id="path317"
   inkscape:connector-curvature="0"
   style="fill:#57175e" />
<path
   d="m 212.6102,331.99198 c 0,-0.504 0.432,-1.008 1.008,-1.008 0.576,0 1.008,0.504 1.008,1.008 0,0.576 -0.432,1.08 -1.008,1.08 -0.576,0 -1.008,-0.504 -1.008,-1.08 z"
   id="path319"
   inkscape:connector-curvature="0"
   style="fill:#57175e" />
<path
   d="m 214.2662,329.18398 c 0,-0.576 0.504,-1.008 1.008,-1.008 0.576,0 1.08,0.432 1.08,1.008 0,0.576 -0.504,1.008 -1.08,1.008 -0.504,0 -1.008,-0.432 -1.008,-1.008 z"
   id="path321"
   inkscape:connector-curvature="0"
   style="fill:#57175e" />
<path
   d="m 217.0022,327.02398 c 0,-0.576 0.504,-1.08 1.008,-1.08 0.576,0 1.008,0.504 1.008,1.08 0,0.504 -0.432,1.008 -1.008,1.008 -0.504,0 -1.008,-0.504 -1.008,-1.008 z"
   id="path323"
   inkscape:connector-curvature="0"
   style="fill:#57175e" />
<path
   d="m 220.3142,324.93598 c 0,-0.504 0.432,-1.008 1.008,-1.008 0.504,0 1.008,0.504 1.008,1.008 0,0.576 -0.504,1.08 -1.008,1.08 -0.576,0 -1.008,-0.504 -1.008,-1.08 z"
   id="path325"
   inkscape:connector-curvature="0"
   style="fill:#57175e" />
<path
   d="m 223.6982,324.07198 c 0,-0.576 0.504,-1.008 1.008,-1.008 0.576,0 1.08,0.432 1.08,1.008 0,0.576 -0.504,1.008 -1.08,1.008 -0.504,0 -1.008,-0.432 -1.008,-1.008 z"
   id="path327"
   inkscape:connector-curvature="0"
   style="fill:#57175e" />
<path
   d="m 232.9862,325.79998 c 0,-0.504 0.432,-0.864 0.936,-0.864 0.432,0 0.864,0.36 0.864,0.864 0,0.504 -0.432,0.864 -0.864,0.864 -0.504,0 -0.936,-0.36 -0.936,-0.864 z"
   id="path329"
   inkscape:connector-curvature="0"
   style="fill:#57175e" />
<path
   d="m 231.6902,328.96798 c 0,-0.504 0.36,-0.864 0.864,-0.864 0.504,0 0.864,0.36 0.864,0.864 0,0.504 -0.36,0.864 -0.864,0.864 -0.504,0 -0.864,-0.36 -0.864,-0.864 z"
   id="path331"
   inkscape:connector-curvature="0"
   style="fill:#57175e" />
<path
   d="m 231.6902,332.49598 c 0,-0.504 0.36,-0.864 0.864,-0.864 0.504,0 0.864,0.36 0.864,0.864 0,0.504 -0.36,0.864 -0.864,0.864 -0.504,0 -0.864,-0.36 -0.864,-0.864 z"
   id="path333"
   inkscape:connector-curvature="0"
   style="fill:#57175e" />
<path
   d="m 213.9782,344.59198 c 0,-0.576 0.432,-1.08 1.008,-1.08 0.576,0 1.008,0.504 1.008,1.08 0,0.504 -0.432,1.008 -1.008,1.008 -0.576,0 -1.008,-0.504 -1.008,-1.008 z"
   id="path335"
   inkscape:connector-curvature="0"
   style="fill:#57175e" />
<path
   d="m 246.9542,317.80798 c 0,-0.36 0.36,-0.72 0.72,-0.72 0.432,0 0.792,0.36 0.792,0.72 0,0.432 -0.36,0.72 -0.792,0.72 -0.36,0 -0.72,-0.288 -0.72,-0.72 z"
   id="path337"
   inkscape:connector-curvature="0"
   style="fill:#57175e" />
<path
   d="m 236.4422,321.19198 c 0,-0.432 0.432,-0.864 0.864,-0.864 0.504,0 0.864,0.432 0.864,0.864 0,0.504 -0.36,0.936 -0.864,0.936 -0.432,0 -0.864,-0.432 -0.864,-0.936 z"
   id="path339"
   inkscape:connector-curvature="0"
   style="fill:#57175e" />
<path
   d="m 241.5542,319.24798 c 0,-0.432 0.288,-0.72 0.72,-0.72 0.432,0 0.72,0.288 0.72,0.72 0,0.36 -0.288,0.72 -0.72,0.72 -0.432,0 -0.72,-0.36 -0.72,-0.72 z"
   id="path341"
   inkscape:connector-curvature="0"
   style="fill:#57175e" />
<path
   d="m 244.2182,318.52798 c 0,-0.432 0.36,-0.72 0.792,-0.72 0.36,0 0.72,0.288 0.72,0.72 0,0.432 -0.36,0.72 -0.72,0.72 -0.432,0 -0.792,-0.288 -0.792,-0.72 z"
   id="path343"
   inkscape:connector-curvature="0"
   style="fill:#57175e" />
<path
   d="m 227.5142,323.13598 c 0,-0.504 0.432,-1.008 1.008,-1.008 0.576,0 1.008,0.504 1.008,1.008 0,0.576 -0.432,1.08 -1.008,1.08 -0.576,0 -1.008,-0.504 -1.008,-1.08 z"
   id="path345"
   inkscape:connector-curvature="0"
   style="fill:#57175e" />
<path
   d="m 231.1142,322.91998 c 0,-0.504 0.432,-1.008 1.008,-1.008 0.576,0 1.008,0.504 1.008,1.008 0,0.576 -0.432,1.08 -1.008,1.08 -0.576,0 -1.008,-0.504 -1.008,-1.08 z"
   id="path347"
   inkscape:connector-curvature="0"
   style="fill:#57175e" />
<path
   d="m 238.8182,319.96798 c 0,-0.432 0.36,-0.792 0.792,-0.792 0.36,0 0.72,0.36 0.72,0.792 0,0.36 -0.36,0.72 -0.72,0.72 -0.432,0 -0.792,-0.36 -0.792,-0.72 z"
   id="path349"
   inkscape:connector-curvature="0"
   style="fill:#57175e" />
<path
   d="m 247.3862,342.21598 c 0.144,-0.36 0.648,-1.872 0.648,-1.872 0,0 -0.576,-0.792 -0.504,-1.152 0.072,-0.288 0.504,-0.648 0.792,-0.72 0.288,-0.144 2.16,0.504 2.304,0.72 0.144,0.216 -0.792,1.368 -0.648,1.728 0.144,0.288 1.368,0.36 1.44,0.648 0,0.288 -0.864,1.656 -1.152,1.728 -0.288,0.072 -1.296,-0.432 -1.44,-0.504 -0.144,0 -1.512,0 -1.44,-0.576 z"
   id="path351"
   inkscape:connector-curvature="0"
   style="fill:#57175e" />
<path
   d="m 224.8502,326.08798 c -0.144,0.792 -7.272,2.088 -8.136,7.416 -0.792,5.256 4.248,7.848 4.248,7.848 0,0 0.864,0.504 0,1.368 -0.792,0.936 -2.664,-0.288 -2.664,-0.288 0,0 -4.32,-2.592 -3.528,-8.784 0.864,-6.192 10.296,-8.352 10.08,-7.56 z"
   id="path353"
   inkscape:connector-curvature="0"
   style="fill:#57175e" />
<path
   d="m 225.7862,328.17598 c 0,0 -4.896,1.8 -6.12,4.104 -1.224,2.304 0.576,6.84 0.576,6.84 0,0 1.008,-0.792 1.8,-1.008 0.72,-0.144 1.656,0.144 2.664,0 1.08,-0.216 1.512,-2.592 1.512,-2.592 0,0 -0.648,-3.528 -0.648,-4.248 0,-1.152 0.216,-3.096 0.216,-3.096 z"
   id="path355"
   inkscape:connector-curvature="0"
   style="fill:#57175e" />
<path
   d="m 222.9062,339.04798 c 0.36,-0.288 1.44,0.288 2.232,-0.144 0.72,-0.36 1.44,-1.08 1.44,-1.08 0,0 0.072,-0.216 0.72,0.288 0.648,0.432 1.512,1.296 1.656,1.944 0.216,0.648 -0.72,0 -0.864,0.576 -0.216,0.504 0,1.368 0,1.368 0,0 -2.16,1.584 -3.096,1.656 -0.936,0.072 -1.584,-0.648 -2.088,-1.656 -0.576,-1.008 0.144,-0.864 0.36,-1.224 0.144,-0.36 -0.792,-1.44 -0.36,-1.728 z"
   id="path357"
   inkscape:connector-curvature="0"
   style="fill:#57175e" />
<path
   d="m 213.9062,345.67198 c 0.36,0 1.944,0 1.944,0 0,0 0.576,-0.792 0.936,-0.864 0.288,0 0.792,0.288 0.936,0.576 0.216,0.216 0.216,2.16 0.072,2.376 -0.216,0.216 -1.584,-0.288 -1.872,-0.072 -0.288,0.216 0.072,1.44 -0.216,1.584 -0.216,0.072 -1.8,-0.288 -2.016,-0.576 -0.144,-0.216 0.072,-1.368 0.072,-1.512 0,-0.144 -0.504,-1.44 0.144,-1.512 z"
   id="path359"
   inkscape:connector-curvature="0"
   style="fill:#57175e" />
<path
   d="m 222.9782,345.23998 c 0.072,0.432 0.072,1.944 0.072,1.944 0,0 0.792,0.648 0.864,0.936 0.072,0.36 -0.288,0.792 -0.504,1.008 -0.216,0.144 -2.232,0.216 -2.448,0.072 -0.216,-0.216 0.288,-1.584 0.072,-1.872 -0.216,-0.216 -1.44,0.144 -1.584,-0.144 -0.072,-0.288 0.288,-1.872 0.504,-2.016 0.288,-0.144 1.368,0 1.512,0 0.144,0 1.44,-0.504 1.512,0.072 z"
   id="path361"
   inkscape:connector-curvature="0"
   style="fill:#57175e" />
<path
   d="m 247.3862,322.63198 c 0,0 -5.328,1.944 -7.128,4.68 -1.8,2.736 -0.72,6.336 -0.72,6.336 0,0 2.736,-0.288 3.456,-0.432 0.72,-0.216 1.728,0.144 2.736,-0.072 1.008,-0.144 1.44,-2.592 1.44,-2.592 0,0 -0.144,-2.952 -0.144,-3.672 0,-1.152 0.36,-4.248 0.36,-4.248 z"
   id="path363"
   inkscape:connector-curvature="0"
   style="fill:#57175e" />
<path
   d="m 247.6022,320.47198 c -0.792,0.792 -9.36,4.464 -10.152,8.712 -0.864,4.248 3.384,6.192 2.52,7.344 -0.504,0.72 -5.544,-0.936 -4.032,-7.848 1.44,-6.912 12.384,-9 11.664,-8.208 z"
   id="path365"
   inkscape:connector-curvature="0"
   style="fill:#57175e" />
<path
   d="m 240.6902,337.17598 c 0,-0.576 0.648,-0.144 0.864,-0.72 0.144,-0.648 -0.36,-2.016 -0.216,-2.304 0.072,-0.216 2.232,0.576 3.024,0.432 0.792,-0.144 0.648,-0.72 1.368,-0.936 0.792,-0.216 2.376,2.52 1.944,3.312 -0.36,0.792 -1.728,2.232 -1.728,2.232 0,0 -2.232,0.864 -3.168,0.432 -1.008,-0.36 -2.16,-1.872 -2.088,-2.448 z"
   id="path367"
   inkscape:connector-curvature="0"
   style="fill:#57175e" />
<path
   d="m 226.0022,330.69598 c -0.144,4.752 1.728,8.28 3.024,7.56 1.224,-0.576 -1.728,-2.952 -1.656,-6.984 0.072,-4.536 2.952,-7.128 2.232,-7.416 -0.72,-0.288 -3.528,2.952 -3.6,6.84 z"
   id="path369"
   inkscape:connector-curvature="0"
   style="fill:#57175e" />
<path
   d="m 249.1862,317.95198 c 0.288,-0.144 0.504,0.144 0.72,1.008 0.432,1.152 -1.44,7.128 -1.44,9.144 0,2.016 1.152,5.76 0.576,6.984 -0.648,1.224 -1.224,-6.408 -1.368,-7.848 -0.144,-1.44 1.44,-6.768 1.296,-7.848 -0.144,-1.08 -0.072,-1.296 0.216,-1.44 z"
   id="path371"
   inkscape:connector-curvature="0"
   style="fill:#57175e" />
<path
   d="m 251.0582,322.91998 c 0.36,0.864 -0.576,0.792 -0.504,5.472 0.072,4.68 0.72,3.6 0.432,5.256 -0.216,1.584 -1.728,-4.392 -1.728,-5.904 0,-1.584 1.44,-5.688 1.8,-4.824 z"
   id="path373"
   inkscape:connector-curvature="0"
   style="fill:#57175e" />
<path
   d="m 212.8982,341.35198 c 0,-0.576 0.432,-1.008 1.008,-1.008 0.576,0 1.008,0.432 1.008,1.008 0,0.576 -0.432,1.008 -1.008,1.008 -0.576,0 -1.008,-0.432 -1.008,-1.008 z"
   id="path375"
   inkscape:connector-curvature="0"
   style="fill:#57175e" />
<path
   d="m 234.4262,322.99198 c 0,-0.504 0.36,-0.864 0.864,-0.864 0.504,0 0.864,0.36 0.864,0.864 0,0.504 -0.36,0.864 -0.864,0.864 -0.504,0 -0.864,-0.36 -0.864,-0.864 z"
   id="path377"
   inkscape:connector-curvature="0"
   style="fill:#57175e" />
<path
   d="m 243.4982,341.27998 c -0.072,-0.576 0.36,-1.08 0.936,-1.152 0.576,-0.072 1.08,0.36 1.08,0.936 0.072,0.504 -0.288,1.008 -0.864,1.08 -0.576,0.072 -1.08,-0.36 -1.152,-0.864 z"
   id="path379"
   inkscape:connector-curvature="0"
   style="fill:#57175e" />
<path
   d="m 234.2822,341.99998 c -0.144,-0.504 0.216,-1.08 0.792,-1.224 0.504,-0.072 1.08,0.288 1.224,0.792 0.072,0.576 -0.288,1.08 -0.792,1.224 -0.576,0.144 -1.08,-0.216 -1.224,-0.792 z"
   id="path381"
   inkscape:connector-curvature="0"
   style="fill:#57175e" />
<path
   d="m 225.8582,345.23998 c -0.216,-0.576 0.072,-1.152 0.648,-1.296 0.504,-0.216 1.08,0.072 1.224,0.648 0.216,0.504 -0.072,1.08 -0.648,1.296 -0.504,0.144 -1.08,-0.144 -1.224,-0.648 z"
   id="path383"
   inkscape:connector-curvature="0"
   style="fill:#57175e" />
<path
   d="m 233.1302,336.02398 c 0.36,0.144 1.8,0.72 1.8,0.72 0,0 0.864,-0.504 1.224,-0.432 0.288,0.072 0.648,0.576 0.72,0.864 0.072,0.288 -0.648,2.16 -0.936,2.304 -0.216,0.144 -1.296,-0.936 -1.656,-0.792 -0.288,0.072 -0.432,1.368 -0.72,1.368 -0.288,0 -1.656,-0.936 -1.728,-1.224 0,-0.288 0.576,-1.296 0.648,-1.44 0,-0.072 0.072,-1.512 0.648,-1.368 z"
   id="path385"
   inkscape:connector-curvature="0"
   style="fill:#57175e" />
<path
   d="m 229.8182,344.51998 c 0.072,-0.432 0.504,-1.872 0.504,-1.872 0,0 -0.648,-0.864 -0.576,-1.152 0,-0.288 0.504,-0.72 0.72,-0.792 0.288,-0.144 2.232,0.36 2.376,0.576 0.144,0.216 -0.72,1.44 -0.504,1.728 0.144,0.288 1.368,0.288 1.44,0.576 0,0.288 -0.792,1.728 -1.008,1.8 -0.288,0.144 -1.368,-0.36 -1.512,-0.36 -0.072,-0.072 -1.512,0.072 -1.44,-0.504 z"
   id="path387"
   inkscape:connector-curvature="0"
   style="fill:#57175e" />
<path
   d="m 241.0502,340.12798 c -0.072,0.36 -0.792,1.8 -0.792,1.8 0,0 0.432,0.864 0.36,1.224 -0.144,0.288 -0.648,0.576 -0.936,0.648 -0.216,0.072 -2.016,-0.792 -2.16,-1.08 -0.144,-0.216 0.936,-1.224 0.864,-1.584 -0.072,-0.36 -1.368,-0.576 -1.296,-0.864 0,-0.288 1.008,-1.512 1.296,-1.584 0.288,0 1.224,0.648 1.368,0.72 0.144,0 1.512,0.216 1.296,0.72 z"
   id="path389"
   inkscape:connector-curvature="0"
   style="fill:#57175e" />
<path
   d="m 218.7302,351.28798 c 0,-0.576 0.432,-1.008 1.008,-1.008 0.576,0 1.008,0.432 1.008,1.008 0,0.576 -0.432,1.008 -1.008,1.008 -0.576,0 -1.008,-0.432 -1.008,-1.008 z"
   id="path391"
   inkscape:connector-curvature="0"
   style="fill:#57175e" />
<path
   d="m 221.0342,350.85598 c 2.376,0.144 4.248,-0.792 5.472,-3.312 0.216,-0.288 0.648,-0.504 1.008,-0.36 3.168,1.296 5.688,1.008 7.632,-2.016 0.216,-0.288 0.72,-0.432 1.008,-0.288 3.024,1.656 5.616,1.512 7.92,-1.224 0.216,-0.216 0.72,-0.288 1.008,-0.144 2.88,2.016 5.4,2.088 7.992,-0.36 0.288,-0.288 0.792,-0.288 1.08,0 2.592,2.448 5.112,2.376 7.92,0.36 0.288,-0.144 0.864,-0.072 1.08,0.144 2.304,2.736 4.824,2.88 7.848,1.224 0.288,-0.144 0.792,0 1.008,0.288 2.016,3.024 4.536,3.312 7.56,2.016 0.36,-0.144 0.864,0.072 1.008,0.36 1.296,2.52 3.168,3.456 5.472,3.312 l 0.144,1.512 c -2.664,0.216 -5.112,-0.792 -6.696,-3.528 -3.24,1.224 -6.192,0.648 -8.352,-2.232 -3.24,1.512 -6.192,1.224 -8.712,-1.44 -3.096,1.944 -6.048,1.944 -8.856,-0.432 -2.808,2.376 -5.76,2.376 -8.784,0.432 -2.52,2.664 -5.544,2.952 -8.712,1.44 -2.232,2.88 -5.184,3.456 -8.496,2.232 -1.584,2.736 -3.96,3.744 -6.696,3.528 l 0.144,-1.512 z"
   id="path393"
   inkscape:connector-curvature="0"
   style="fill:#57175e" />
<path
   d="m 253.0742,313.55998 c 0.216,-0.072 0.36,-0.072 0.504,-0.072 0.216,0 0.36,0 0.504,0.072 v -1.944 h 1.872 v -0.648 h -1.872 v -2.376 h -1.008 v 2.376 h -1.872 v 0.648 h 1.872 v 1.944 z"
   id="path395"
   inkscape:connector-curvature="0"
   style="fill:#57175e" />
<path
   d="m 294.9782,338.47198 c 0,-0.576 -0.504,-1.008 -1.08,-1.008 -0.504,0 -1.008,0.432 -1.008,1.008 0,0.576 0.504,1.008 1.008,1.008 0.576,0 1.08,-0.432 1.08,-1.008 z"
   id="path397"
   inkscape:connector-curvature="0"
   style="fill:#57175e" />
<path
   d="m 295.2662,335.30398 c 0,-0.576 -0.432,-1.008 -1.008,-1.008 -0.504,0 -1.008,0.432 -1.008,1.008 0,0.504 0.504,1.008 1.008,1.008 0.576,0 1.008,-0.504 1.008,-1.008 z"
   id="path399"
   inkscape:connector-curvature="0"
   style="fill:#57175e" />
<path
   d="m 294.4742,331.99198 c 0,-0.504 -0.432,-1.008 -1.008,-1.008 -0.504,0 -1.008,0.504 -1.008,1.008 0,0.576 0.504,1.08 1.008,1.08 0.576,0 1.008,-0.504 1.008,-1.08 z"
   id="path401"
   inkscape:connector-curvature="0"
   style="fill:#57175e" />
<path
   d="m 292.8182,329.18398 c 0,-0.576 -0.432,-1.008 -1.008,-1.008 -0.576,0 -1.008,0.432 -1.008,1.008 0,0.576 0.432,1.008 1.008,1.008 0.576,0 1.008,-0.432 1.008,-1.008 z"
   id="path403"
   inkscape:connector-curvature="0"
   style="fill:#57175e" />
<path
   d="m 290.0822,327.02398 c 0,-0.576 -0.432,-1.08 -1.008,-1.08 -0.576,0 -1.008,0.504 -1.008,1.08 0,0.504 0.432,1.008 1.008,1.008 0.576,0 1.008,-0.504 1.008,-1.008 z"
   id="path405"
   inkscape:connector-curvature="0"
   style="fill:#57175e" />
<path
   d="m 286.8422,324.93598 c 0,-0.504 -0.432,-1.008 -1.008,-1.008 -0.576,0 -1.008,0.504 -1.008,1.008 0,0.576 0.432,1.08 1.008,1.08 0.576,0 1.008,-0.504 1.008,-1.08 z"
   id="path407"
   inkscape:connector-curvature="0"
   style="fill:#57175e" />
<path
   d="m 283.3862,324.07198 c 0,-0.576 -0.432,-1.008 -1.008,-1.008 -0.576,0 -1.008,0.432 -1.008,1.008 0,0.576 0.432,1.008 1.008,1.008 0.576,0 1.008,-0.432 1.008,-1.008 z"
   id="path409"
   inkscape:connector-curvature="0"
   style="fill:#57175e" />
<path
   d="m 274.1702,325.79998 c 0,-0.504 -0.36,-0.864 -0.864,-0.864 -0.504,0 -0.864,0.36 -0.864,0.864 0,0.504 0.36,0.864 0.864,0.864 0.504,0 0.864,-0.36 0.864,-0.864 z"
   id="path411"
   inkscape:connector-curvature="0"
   style="fill:#57175e" />
<path
   d="m 275.4662,328.96798 c 0,-0.504 -0.36,-0.864 -0.864,-0.864 -0.432,0 -0.864,0.36 -0.864,0.864 0,0.504 0.432,0.864 0.864,0.864 0.504,0 0.864,-0.36 0.864,-0.864 z"
   id="path413"
   inkscape:connector-curvature="0"
   style="fill:#57175e" />
<path
   d="m 275.4662,332.49598 c 0,-0.504 -0.36,-0.864 -0.864,-0.864 -0.432,0 -0.864,0.36 -0.864,0.864 0,0.504 0.432,0.864 0.864,0.864 0.504,0 0.864,-0.36 0.864,-0.864 z"
   id="path415"
   inkscape:connector-curvature="0"
   style="fill:#57175e" />
<path
   d="m 293.1782,344.59198 c 0,-0.576 -0.504,-1.08 -1.008,-1.08 -0.576,0 -1.08,0.504 -1.08,1.08 0,0.504 0.504,1.008 1.08,1.008 0.504,0 1.008,-0.504 1.008,-1.008 z"
   id="path417"
   inkscape:connector-curvature="0"
   style="fill:#57175e" />
<path
   d="m 260.2022,317.80798 c 0,-0.36 -0.288,-0.72 -0.72,-0.72 -0.432,0 -0.72,0.36 -0.72,0.72 0,0.432 0.288,0.72 0.72,0.72 0.432,0 0.72,-0.288 0.72,-0.72 z"
   id="path419"
   inkscape:connector-curvature="0"
   style="fill:#57175e" />
<path
   d="m 270.7142,321.19198 c 0,-0.432 -0.36,-0.864 -0.864,-0.864 -0.504,0 -0.864,0.432 -0.864,0.864 0,0.504 0.36,0.936 0.864,0.936 0.504,0 0.864,-0.432 0.864,-0.936 z"
   id="path421"
   inkscape:connector-curvature="0"
   style="fill:#57175e" />
<path
   d="m 265.6742,319.24798 c 0,-0.432 -0.36,-0.72 -0.792,-0.72 -0.36,0 -0.72,0.288 -0.72,0.72 0,0.36 0.36,0.72 0.72,0.72 0.432,0 0.792,-0.36 0.792,-0.72 z"
   id="path423"
   inkscape:connector-curvature="0"
   style="fill:#57175e" />
<path
   d="m 262.9382,318.52798 c 0,-0.432 -0.36,-0.72 -0.72,-0.72 -0.432,0 -0.792,0.288 -0.792,0.72 0,0.432 0.36,0.72 0.792,0.72 0.36,0 0.72,-0.288 0.72,-0.72 z"
   id="path425"
   inkscape:connector-curvature="0"
   style="fill:#57175e" />
<path
   d="m 279.5702,323.13598 c 0,-0.504 -0.432,-1.008 -1.008,-1.008 -0.504,0 -0.936,0.504 -0.936,1.008 0,0.576 0.432,1.08 0.936,1.08 0.576,0 1.008,-0.504 1.008,-1.08 z"
   id="path427"
   inkscape:connector-curvature="0"
   style="fill:#57175e" />
<path
   d="m 276.1142,322.91998 c 0,-0.504 -0.504,-1.008 -1.008,-1.008 -0.576,0 -1.08,0.504 -1.08,1.008 0,0.576 0.504,1.08 1.08,1.08 0.504,0 1.008,-0.504 1.008,-1.08 z"
   id="path429"
   inkscape:connector-curvature="0"
   style="fill:#57175e" />
<path
   d="m 268.3382,319.96798 c 0,-0.432 -0.288,-0.792 -0.72,-0.792 -0.432,0 -0.72,0.36 -0.72,0.792 0,0.36 0.288,0.72 0.72,0.72 0.432,0 0.72,-0.36 0.72,-0.72 z"
   id="path431"
   inkscape:connector-curvature="0"
   style="fill:#57175e" />
<path
   d="m 259.7702,342.21598 c -0.072,-0.36 -0.576,-1.872 -0.576,-1.872 0,0 0.504,-0.792 0.504,-1.152 -0.072,-0.288 -0.576,-0.648 -0.792,-0.72 -0.288,-0.144 -2.16,0.504 -2.376,0.72 -0.144,0.216 0.792,1.368 0.72,1.728 -0.144,0.288 -1.44,0.36 -1.44,0.648 0,0.288 0.864,1.656 1.152,1.728 0.288,0.072 1.296,-0.432 1.44,-0.504 0.072,0 1.512,0 1.368,-0.576 z"
   id="path433"
   inkscape:connector-curvature="0"
   style="fill:#57175e" />
<path
   d="m 282.2342,326.08798 c 0.216,0.792 7.344,2.088 8.136,7.416 0.864,5.256 -4.248,7.848 -4.248,7.848 0,0 -0.792,0.504 0,1.368 0.864,0.936 2.664,-0.288 2.664,-0.288 0,0 4.392,-2.592 3.528,-8.784 -0.792,-6.192 -10.296,-8.352 -10.08,-7.56 z"
   id="path435"
   inkscape:connector-curvature="0"
   style="fill:#57175e" />
<path
   d="m 281.3702,328.17598 c 0,0 4.896,1.8 6.12,4.104 1.152,2.304 -0.576,6.84 -0.576,6.84 0,0 -1.08,-0.792 -1.8,-1.008 -0.72,-0.144 -1.728,0.144 -2.736,0 -1.008,-0.216 -1.44,-2.592 -1.44,-2.592 0,0 0.648,-3.528 0.648,-4.248 0,-1.152 -0.216,-3.096 -0.216,-3.096 z"
   id="path437"
   inkscape:connector-curvature="0"
   style="fill:#57175e" />
<path
   d="m 284.2502,339.04798 c -0.36,-0.288 -1.512,0.288 -2.232,-0.144 -0.72,-0.36 -1.44,-1.08 -1.44,-1.08 0,0 -0.144,-0.216 -0.792,0.288 -0.648,0.432 -1.44,1.296 -1.656,1.944 -0.144,0.648 0.72,0 0.936,0.576 0.216,0.504 0,1.368 0,1.368 0,0 2.088,1.584 3.024,1.656 0.936,0.072 1.584,-0.648 2.16,-1.656 0.576,-1.008 -0.216,-0.864 -0.36,-1.224 -0.216,-0.36 0.72,-1.44 0.36,-1.728 z"
   id="path439"
   inkscape:connector-curvature="0"
   style="fill:#57175e" />
<path
   d="m 293.2502,345.67198 c -0.36,0 -1.944,0 -1.944,0 0,0 -0.648,-0.792 -0.936,-0.864 -0.288,0 -0.792,0.288 -1.008,0.576 -0.144,0.216 -0.216,2.16 0,2.376 0.144,0.216 1.584,-0.288 1.8,-0.072 0.288,0.216 -0.072,1.44 0.216,1.584 0.288,0.072 1.872,-0.288 2.016,-0.576 0.144,-0.216 0,-1.368 0,-1.512 0,-0.144 0.432,-1.44 -0.144,-1.512 z"
   id="path441"
   inkscape:connector-curvature="0"
   style="fill:#57175e" />
<path
   d="m 284.1062,345.23998 c -0.072,0.432 -0.072,1.944 -0.072,1.944 0,0 -0.792,0.648 -0.792,0.936 -0.072,0.36 0.216,0.792 0.504,1.008 0.216,0.144 2.16,0.216 2.376,0.072 0.216,-0.216 -0.288,-1.584 0,-1.872 0.216,-0.216 1.44,0.144 1.512,-0.144 0.144,-0.288 -0.216,-1.872 -0.504,-2.016 -0.216,-0.144 -1.368,0 -1.512,0 -0.144,0 -1.44,-0.504 -1.512,0.072 z"
   id="path443"
   inkscape:connector-curvature="0"
   style="fill:#57175e" />
<path
   d="m 259.7702,322.63198 c 0,0 5.4,1.944 7.128,4.68 1.8,2.736 0.72,6.336 0.72,6.336 0,0 -2.664,-0.288 -3.456,-0.432 -0.72,-0.216 -1.656,0.144 -2.664,-0.072 -1.08,-0.144 -1.512,-2.592 -1.512,-2.592 0,0 0.144,-2.952 0.144,-3.672 0,-1.152 -0.36,-4.248 -0.36,-4.248 z"
   id="path445"
   inkscape:connector-curvature="0"
   style="fill:#57175e" />
<path
   d="m 259.6262,320.47198 c 0.72,0.792 9.288,4.464 10.152,8.712 0.792,4.248 -3.384,6.192 -2.592,7.344 0.576,0.72 5.544,-0.936 4.104,-7.848 -1.44,-6.912 -12.456,-9 -11.664,-8.208 z"
   id="path447"
   inkscape:connector-curvature="0"
   style="fill:#57175e" />
<path
   d="m 266.5382,337.17598 c -0.072,-0.576 -0.72,-0.144 -0.864,-0.72 -0.216,-0.648 0.288,-2.016 0.216,-2.304 -0.144,-0.216 -2.232,0.576 -3.096,0.432 -0.792,-0.144 -0.648,-0.72 -1.368,-0.936 -0.72,-0.216 -2.304,2.52 -1.944,3.312 0.432,0.792 1.8,2.232 1.8,2.232 0,0 2.16,0.864 3.168,0.432 1.008,-0.36 2.088,-1.872 2.088,-2.448 z"
   id="path449"
   inkscape:connector-curvature="0"
   style="fill:#57175e" />
<path
   d="m 281.1542,330.69598 c 0.072,4.752 -1.8,8.28 -3.096,7.56 -1.152,-0.576 1.8,-2.952 1.728,-6.984 -0.144,-4.536 -2.952,-7.128 -2.16,-7.416 0.648,-0.288 3.456,2.952 3.528,6.84 z"
   id="path451"
   inkscape:connector-curvature="0"
   style="fill:#57175e" />
<path
   d="m 258.0422,317.95198 c -0.288,-0.144 -0.504,0.144 -0.792,1.008 -0.36,1.152 1.512,7.128 1.512,9.144 0,2.016 -1.224,5.76 -0.576,6.984 0.648,1.224 1.224,-6.408 1.368,-7.848 0.144,-1.44 -1.44,-6.768 -1.296,-7.848 0.144,-1.08 0.072,-1.296 -0.216,-1.44 z"
   id="path453"
   inkscape:connector-curvature="0"
   style="fill:#57175e" />
<path
   d="m 256.0982,322.91998 c -0.36,0.864 0.576,0.792 0.504,5.472 -0.072,4.68 -0.648,3.6 -0.432,5.256 0.288,1.584 1.728,-4.392 1.728,-5.904 0,-1.584 -1.44,-5.688 -1.8,-4.824 z"
   id="path455"
   inkscape:connector-curvature="0"
   style="fill:#57175e" />
<path
   d="m 294.2582,341.35198 c 0,-0.576 -0.504,-1.008 -1.008,-1.008 -0.576,0 -1.008,0.432 -1.008,1.008 0,0.576 0.432,1.008 1.008,1.008 0.504,0 1.008,-0.432 1.008,-1.008 z"
   id="path457"
   inkscape:connector-curvature="0"
   style="fill:#57175e" />
<path
   d="m 272.8022,322.99198 c 0,-0.504 -0.432,-0.864 -0.936,-0.864 -0.432,0 -0.864,0.36 -0.864,0.864 0,0.504 0.432,0.864 0.864,0.864 0.504,0 0.936,-0.36 0.936,-0.864 z"
   id="path459"
   inkscape:connector-curvature="0"
   style="fill:#57175e" />
<path
   d="m 263.6582,341.27998 c 0.072,-0.576 -0.36,-1.08 -0.864,-1.152 -0.576,-0.072 -1.08,0.36 -1.152,0.936 -0.072,0.504 0.36,1.008 0.936,1.08 0.504,0.072 1.008,-0.36 1.08,-0.864 z"
   id="path461"
   inkscape:connector-curvature="0"
   style="fill:#57175e" />
<path
   d="m 272.9462,341.99998 c 0.072,-0.504 -0.288,-1.08 -0.792,-1.224 -0.576,-0.072 -1.152,0.288 -1.224,0.792 -0.144,0.576 0.216,1.08 0.792,1.224 0.504,0.144 1.08,-0.216 1.224,-0.792 z"
   id="path463"
   inkscape:connector-curvature="0"
   style="fill:#57175e" />
<path
   d="m 281.2982,345.23998 c 0.144,-0.576 -0.144,-1.152 -0.648,-1.296 -0.576,-0.216 -1.152,0.072 -1.296,0.648 -0.144,0.504 0.144,1.08 0.648,1.296 0.576,0.144 1.08,-0.144 1.296,-0.648 z"
   id="path465"
   inkscape:connector-curvature="0"
   style="fill:#57175e" />
<path
   d="m 274.0262,336.02398 c -0.36,0.144 -1.8,0.72 -1.8,0.72 0,0 -0.864,-0.504 -1.152,-0.432 -0.36,0.072 -0.648,0.576 -0.72,0.864 -0.072,0.288 0.648,2.16 0.864,2.304 0.288,0.144 1.368,-0.936 1.656,-0.792 0.36,0.072 0.504,1.368 0.792,1.368 0.288,0 1.584,-0.936 1.656,-1.224 0.072,-0.288 -0.576,-1.296 -0.576,-1.44 -0.072,-0.072 -0.144,-1.512 -0.72,-1.368 z"
   id="path467"
   inkscape:connector-curvature="0"
   style="fill:#57175e" />
<path
   d="m 269.7782,352.15198 c 5.112,1.08 10.08,2.664 14.76,4.752 -0.072,0.144 -0.144,0.288 -0.216,0.432 l -4.896,0.072 3.168,3.6 c -0.072,0.144 -0.072,0.288 -0.144,0.432 -18.36,-7.992 -39.384,-7.992 -57.744,0 -0.072,-0.144 -0.144,-0.288 -0.216,-0.432 l 3.168,-3.6 -4.896,-0.072 c -0.072,-0.144 -0.144,-0.288 -0.216,-0.432 4.752,-2.088 9.72,-3.672 14.904,-4.752 10.584,-2.304 21.672,-2.304 32.328,0 z"
   id="path469"
   inkscape:connector-curvature="0"
   style="fill:#57175e" />
<path
   d="m 277.3382,344.51998 c -0.072,-0.432 -0.432,-1.872 -0.432,-1.872 0,0 0.576,-0.864 0.504,-1.152 0,-0.288 -0.432,-0.72 -0.72,-0.792 -0.216,-0.144 -2.16,0.36 -2.376,0.576 -0.144,0.216 0.72,1.44 0.576,1.728 -0.144,0.288 -1.44,0.288 -1.44,0.576 -0.072,0.288 0.72,1.728 1.008,1.8 0.288,0.144 1.296,-0.36 1.44,-0.36 0.144,-0.072 1.512,0.072 1.44,-0.504 z"
   id="path471"
   inkscape:connector-curvature="0"
   style="fill:#57175e" />
<path
   d="m 266.1062,340.12798 c 0.144,0.36 0.792,1.8 0.792,1.8 0,0 -0.432,0.864 -0.288,1.224 0.072,0.288 0.576,0.576 0.864,0.648 0.288,0.072 2.088,-0.792 2.232,-1.08 0.072,-0.216 -1.008,-1.224 -0.864,-1.584 0.072,-0.36 1.296,-0.576 1.296,-0.864 0,-0.288 -1.08,-1.512 -1.368,-1.584 -0.288,0 -1.224,0.648 -1.368,0.72 -0.072,0 -1.512,0.216 -1.296,0.72 z"
   id="path473"
   inkscape:connector-curvature="0"
   style="fill:#57175e" />
<path
   d="m 288.4262,351.28798 c 0,-0.576 -0.504,-1.008 -1.008,-1.008 -0.576,0 -1.008,0.432 -1.008,1.008 0,0.576 0.432,1.008 1.008,1.008 0.504,0 1.008,-0.432 1.008,-1.008 z"
   id="path475"
   inkscape:connector-curvature="0"
   style="fill:#57175e" />
<path
   d="m 236.8742,349.91998 c -5.544,1.152 -10.872,2.952 -15.912,5.256 -0.36,0.072 -0.36,0.432 -0.216,0.72 0.144,0.432 0.504,0.504 0.864,0.288 4.968,-2.232 10.152,-3.96 15.624,-5.112 10.728,-2.304 21.96,-2.304 32.76,0 5.4,1.152 10.584,2.88 15.48,5.112 0.432,0.216 0.72,0.144 0.936,-0.288 0.144,-0.288 0.072,-0.648 -0.216,-0.72 -5.112,-2.304 -10.368,-4.104 -15.912,-5.256 -10.944,-2.376 -22.392,-2.376 -33.408,0 z"
   id="path477"
   inkscape:connector-curvature="0"
   style="fill:#57175e" />
<path
   d="m 251.9942,316.87198 c 0,-0.864 0.72,-1.656 1.584,-1.656 0.936,0 1.656,0.792 1.656,1.656 0,0.432 -0.216,0.864 -0.504,1.152 0.144,0.144 0.288,0.36 0.432,0.576 0.432,-0.432 0.72,-1.08 0.72,-1.728 0,-1.296 -1.008,-2.304 -2.304,-2.304 -1.224,0 -2.304,1.008 -2.304,2.304 0,0.648 0.288,1.296 0.792,1.728 0.072,-0.216 0.216,-0.432 0.36,-0.576 -0.288,-0.288 -0.432,-0.72 -0.432,-1.152 z"
   id="path479"
   inkscape:connector-curvature="0"
   style="fill:#57175e" />
<path
   d="m 244.5062,353.37598 c 0,-0.792 0.576,-1.44 1.368,-1.44 0.792,0 1.44,0.648 1.44,1.44 0,0.792 -0.648,1.368 -1.44,1.368 -0.792,0 -1.368,-0.576 -1.368,-1.368 z"
   id="path481"
   inkscape:connector-curvature="0"
   style="fill:#a38d44" />
<polygon
   points="282.096,467.872 277.2,465.568 282.096,463.336 287.064,465.568 "
   id="polygon483"
   style="fill:#a38d44"
   transform="translate(-28.51776,-112.62402)" />
<polygon
   points="267.12,469.384 261.792,468.232 266.184,464.992 271.44,466.144 "
   id="polygon485"
   style="fill:#a38d44"
   transform="translate(-28.51776,-112.62402)" />
<path
   d="m 229.3142,356.83198 c -0.216,-0.72 0.288,-1.512 1.08,-1.656 0.72,-0.144 1.44,0.36 1.656,1.08 0.144,0.792 -0.36,1.512 -1.08,1.656 -0.792,0.144 -1.512,-0.288 -1.656,-1.08 z"
   id="path487"
   inkscape:connector-curvature="0"
   style="fill:#a38d44" />
<path
   d="m 262.7222,353.37598 c 0,-0.792 -0.648,-1.44 -1.44,-1.44 -0.72,0 -1.368,0.648 -1.368,1.44 0,0.792 0.648,1.368 1.368,1.368 0.792,0 1.44,-0.576 1.44,-1.368 z"
   id="path489"
   inkscape:connector-curvature="0"
   style="fill:#a38d44" />
<polygon
   points="297.144,469.384 302.4,468.232 298.08,464.992 292.752,466.144 "
   id="polygon491"
   style="fill:#a38d44"
   transform="translate(-28.51776,-112.62402)" />
<path
   d="m 277.9142,356.83198 c 0.144,-0.72 -0.36,-1.512 -1.08,-1.656 -0.792,-0.144 -1.512,0.36 -1.656,1.08 -0.144,0.792 0.288,1.512 1.08,1.656 0.72,0.144 1.512,-0.288 1.656,-1.08 z"
   id="path493"
   inkscape:connector-curvature="0"
   style="fill:#a38d44" />
<circle
   cx="274.392"
   cy="466"
   r="0.648"
   id="circle495"
   sodipodi:cx="274.392"
   sodipodi:cy="466"
   sodipodi:rx="0.648"
   sodipodi:ry="0.648"
   style="fill:#57175e"
   transform="translate(-28.51776,-112.62402)" />
<polygon
   points="282.096,463.912 278.496,465.568 282.096,467.296 285.768,465.568 "
   id="polygon497"
   style="fill:#57175e"
   transform="translate(-28.51776,-112.62402)" />
<polygon
   points="266.328,465.568 263.088,467.944 266.976,468.808 270.216,466.432 "
   id="polygon499"
   style="fill:#57175e"
   transform="translate(-28.51776,-112.62402)" />
<path
   d="m 230.0342,356.68798 c -0.072,-0.36 0.144,-0.648 0.504,-0.72 0.36,-0.072 0.648,0.144 0.72,0.432 0.072,0.36 -0.144,0.72 -0.504,0.792 -0.288,0.072 -0.648,-0.144 -0.72,-0.504 z"
   id="path501"
   inkscape:connector-curvature="0"
   style="fill:#57175e" />
<path
   d="m 261.9302,353.37598 c 0,-0.36 -0.288,-0.648 -0.648,-0.648 -0.36,0 -0.576,0.288 -0.576,0.648 0,0.36 0.216,0.648 0.576,0.648 0.36,0 0.648,-0.288 0.648,-0.648 z"
   id="path503"
   inkscape:connector-curvature="0"
   style="fill:#57175e" />
<polygon
   points="297.936,465.568 301.176,467.944 297.216,468.808 293.976,466.432 "
   id="polygon505"
   style="fill:#57175e"
   transform="translate(-28.51776,-112.62402)" />
<path
   d="m 277.1222,356.68798 c 0.072,-0.36 -0.144,-0.648 -0.432,-0.72 -0.36,-0.072 -0.72,0.144 -0.792,0.432 -0.072,0.36 0.144,0.72 0.504,0.792 0.36,0.072 0.648,-0.144 0.72,-0.504 z"
   id="path507"
   inkscape:connector-curvature="0"
   style="fill:#57175e" />
<path
   d="m 106.05024,393.19198 c 3.67199,0 6.69599,3.024 6.69599,6.696 0,3.672 -3.024,6.696 -6.69599,6.696 -3.672,0 -6.624,-3.024 -6.624,-6.696 0,-3.672 2.952,-6.696 6.624,-6.696 l 0,0 z m 0,3.024 c -2.016,0 -3.672,1.656 -3.672,3.672 0,2.088 1.656,3.744 3.672,3.744 2.088,0 3.74399,-1.656 3.74399,-3.744 0,-2.016 -1.65599,-3.672 -3.74399,-3.672 z"
   id="path509"
   inkscape:connector-curvature="0"
   style="fill:#a38d44" />
<path
   d="m 120.88222,419.83198 c 1.872,0 3.528,0.72 4.68,1.944 l 0,0 0,0 0,0 c 1.224,1.224 1.944,2.88 1.944,4.68 0,3.672 -2.952,6.624 -6.624,6.624 -1.8,0 -3.45599,-0.72 -4.67999,-1.944 l 0,0 0,0 0,0 c -1.224,-1.152 -1.944,-2.88 -1.944,-4.68 0,-3.672 2.952,-6.624 6.62399,-6.624 l 0,0 z m 0,2.952 c -2.016,0 -3.67199,1.656 -3.67199,3.672 0,1.008 0.432,1.944 1.07999,2.592 l 0,0 c 0.648,0.72 1.584,1.08 2.592,1.08 2.016,0 3.672,-1.656 3.672,-3.672 0,-1.008 -0.36,-1.944 -1.08,-2.592 l 0,0 c -0.648,-0.648 -1.584,-1.08 -2.592,-1.08 z"
   id="path511"
   inkscape:connector-curvature="0"
   style="fill:#a38d44" />
</svg>