<?xml version="1.0" encoding="UTF-8" standalone="no"?>
<!-- Generator: Adobe Illustrator 15.0.2, SVG Export Plug-In . SVG Version: 6.00 Build 0)  -->

<svg
   xmlns:dc="http://purl.org/dc/elements/1.1/"
   xmlns:cc="http://creativecommons.org/ns#"
   xmlns:rdf="http://www.w3.org/1999/02/22-rdf-syntax-ns#"
   xmlns:svg="http://www.w3.org/2000/svg"
   xmlns="http://www.w3.org/2000/svg"
   xmlns:sodipodi="http://sodipodi.sourceforge.net/DTD/sodipodi-0.dtd"
   xmlns:inkscape="http://www.inkscape.org/namespaces/inkscape"
   version="1.1"
   id="Capa_1"
   x="0px"
   y="0px"
   width="102.63636"
   height="149.3947"
   viewBox="0 0 405.24808 591.60301"
   enable-background="new 0 0 612 792"
   xml:space="preserve"
   inkscape:version="0.48.2 r9819"
   sodipodi:docname="rcd_espanyol.svg"><metadata
   id="metadata129"><rdf:RDF><cc:Work
       rdf:about=""><dc:format>image/svg+xml</dc:format><dc:type
         rdf:resource="http://purl.org/dc/dcmitype/StillImage" /></cc:Work></rdf:RDF></metadata><defs
   id="defs127" /><sodipodi:namedview
   pagecolor="#ffffff"
   bordercolor="#666666"
   borderopacity="1"
   objecttolerance="10"
   gridtolerance="10"
   guidetolerance="10"
   inkscape:pageopacity="0"
   inkscape:pageshadow="2"
   inkscape:window-width="1280"
   inkscape:window-height="962"
   id="namedview125"
   showgrid="false"
   fit-margin-top="0"
   fit-margin-left="0"
   fit-margin-right="0"
   fit-margin-bottom="0"
   inkscape:zoom="4.9734027"
   inkscape:cx="51.394959"
   inkscape:cy="61.31578"
   inkscape:window-x="-8"
   inkscape:window-y="-8"
   inkscape:window-maximized="1"
   inkscape:current-layer="Capa_1" />
<path
   d="m 84.991286,94.787192 c 3.3154,-17.736097 15.731004,-30.916663 31.593224,-34.704307 0.87185,-0.213136 1.6413,-0.234051 2.58771,-0.416313 2.14134,-0.421292 4.86623,-0.918277 7.48276,-0.618492 0.0815,0.005 0.19783,0 0.18391,0 2.07374,0.255962 4.16736,0.326676 6.37233,0.723069 2.10853,0.373485 4.25484,1.13938 6.18444,1.859461 0.47022,0.177281 1.49715,0.956124 2.03497,0.826649 l 0.0924,-0.209152 c 2.53501,-2.507833 4.62764,-5.55747 7.29885,-7.949771 6.09198,-5.473809 15.16336,-9.415828 25.95058,-9.399893 4.4149,0.005 8.14585,1.011898 12.00901,1.651306 -2.04094,-8.614078 2.80541,-16.483177 7.29785,-19.519866 1.72978,-1.172247 3.722,-1.854481 5.72913,-2.787698 v -7.538439 h -7.3913 V 8.7509865 h 7.3913 c 0,-2.6134051 0,-5.5176312 0.0875,-7.95475095 h 3.88006 3.88105 c 0.0875,2.43711975 0.0875,5.34234185 0.0875,7.95475095 h 7.3913 v 7.9527595 h -7.3913 v 7.538439 c 2.00713,0.934213 3.99836,1.616447 5.72913,2.787698 4.49244,3.036689 9.33879,10.904792 7.29785,19.519866 3.86316,-0.639408 7.59411,-1.646326 12.00901,-1.651306 10.78822,-0.01494 19.85959,3.92708 25.95058,9.399893 2.67121,2.392301 4.76383,5.441938 7.29885,7.949771 l 0.0925,0.209152 c 0.53782,0.129475 1.56475,-0.649368 2.03497,-0.826649 1.9286,-0.721077 4.0759,-1.486972 6.18444,-1.859461 2.20496,-0.395398 4.29859,-0.466111 6.37233,-0.723069 -0.0149,0 0.10239,0.005 0.18391,0 2.61753,-0.299785 5.34142,0.1972 7.48276,0.618492 0.94541,0.182262 1.71586,0.203177 2.5877,0.416313 15.86223,3.786648 28.27783,16.96821 31.59323,34.704307 0.63524,3.402207 0.92056,7.660948 0.64419,11.770288 -1.23669,18.49402 -6.99365,30.94156 -13.48726,43.48371 -2.86904,5.55349 -6.16953,12.38081 -11.08249,15.59578 0.73168,1.15332 1.65721,2.2688 2.21889,3.61634 1.27943,3.07951 1.22177,7.32829 0.1849,10.53429 -3.83831,11.82406 -21.54662,14.83685 -32.33384,8.15593 -4.79267,-2.96995 -7.39926,-6.45582 -8.12696,-13.73631 -8.94611,9.52339 -28.38916,9.11007 -35.55679,-2.06662 -0.90067,-1.41327 -1.44446,-3.07553 -2.03596,-4.85332 -1.25558,1.86245 -2.41771,3.84541 -4.06597,5.26864 -3.84526,3.32552 -9.48293,5.00072 -15.14347,5.04455 -5.66053,-0.0438 -11.29821,-1.72003 -15.14347,-5.04455 -1.64826,-1.42323 -2.81039,-3.40619 -4.06597,-5.26864 -0.5915,1.77779 -1.13528,3.44005 -2.03596,4.85332 -7.16762,11.17669 -26.61068,11.59001 -35.55679,2.06662 -0.7267,7.28049 -3.33429,10.76636 -8.12696,13.73631 -10.78822,6.68092 -28.49553,3.66813 -32.33384,-8.15593 -1.03687,-3.206 -1.09552,-7.45478 0.18491,-10.53429 0.56168,-1.34854 1.4872,-2.46302 2.21888,-3.61634 -4.91296,-3.21497 -8.21444,-10.04229 -11.082489,-15.59578 -6.493608,-12.54115 -12.250574,-24.98969 -13.487262,-43.48371 -0.277361,-4.10934 0.008,-8.368081 0.643197,-11.770288 z"
   id="path3"
   inkscape:connector-curvature="0"
   style="fill:#f5c03e" />
<path
   d="m 125.17672,84.764823 c -6.60098,0.504953 -11.05962,3.698008 -13.85609,8.471655 -4.98751,8.500542 -1.40469,24.086352 1.38183,32.324962 1.49218,4.40613 3.74586,8.48659 5.82457,12.39375 1.36692,2.57755 3.11657,5.02563 4.70518,7.43486 2.19006,3.31954 4.95272,6.45881 4.34233,12.6049 2.67916,0.44121 4.66641,0.69418 6.74513,1.33957 3.66831,1.13141 6.15958,3.54264 8.86857,5.68495 0,-4.39618 1.42954,-7.04743 3.22791,-9.40388 0.96927,-1.26786 1.97632,-2.35943 3.2319,-3.30559 0.56167,-0.4213 1.03289,-0.76789 1.66316,-1.1364 -0.65413,-0.5926 -1.352,-1.37144 -1.93357,-2.06463 -2.45747,-2.89227 -3.85819,-7.36614 -5.45674,-11.15378 -4.76781,-11.29322 -8.96599,-22.99279 -10.70968,-37.79976 -0.53285,-4.513703 -0.80922,-9.650876 -0.18491,-14.357794 -2.18906,-0.716097 -5.51937,-1.210094 -7.84959,-1.032813"
   id="path5"
   inkscape:connector-curvature="0"
   style="fill:#ff1119" />
<path
   d="m 178.92695,70.203854 c 5.03026,0.418304 9.22149,1.998896 12.93453,3.922099 v 59.079497 c 0,2.28971 -0.10637,4.70492 0.18491,6.71677 0.34894,2.37537 1.2685,4.44199 2.31134,6.09329 -5.82556,3.0596 -8.11304,5.15012 -10.90454,11.66969 -2.38887,-5.1541 -7.1716,-8.08422 -12.73968,-9.71063 0.31017,-1.71505 0.88179,-3.32054 0.73565,-5.47082 -0.28034,-4.24479 -2.13239,-6.97572 -3.4168,-10.02038 -1.27347,-3.02374 -2.56782,-6.03752 -3.79059,-9.08616 -3.60966,-9.00748 -10.18081,-29.653787 -5.63568,-41.727838 1.08061,-2.86638 2.875,-4.898143 4.90003,-6.71179 3.52814,-3.170148 8.63097,-5.326407 15.42083,-4.753728"
   id="path7"
   inkscape:connector-curvature="0"
   style="fill:#ff1119" />
<path
   d="m 282.37538,84.764823 c 6.60097,0.504953 11.05961,3.698008 13.85608,8.471655 4.98751,8.500542 1.4047,24.086352 -1.38183,32.324962 -1.49218,4.40613 -3.74586,8.48659 -5.82457,12.39375 -1.36692,2.57755 -3.11657,5.02563 -4.70518,7.43486 -2.19005,3.31954 -4.95272,6.45881 -4.34233,12.6049 -2.67916,0.44121 -4.66641,0.69418 -6.74512,1.33957 -3.66832,1.13141 -6.15959,3.54264 -8.86857,5.68495 0,-4.39618 -1.42955,-7.04743 -3.22792,-9.40388 -0.96927,-1.26786 -1.97631,-2.35943 -3.23189,-3.30559 -0.56168,-0.4213 -1.0329,-0.76789 -1.66317,-1.1364 0.65413,-0.5926 1.35201,-1.37144 1.93357,-2.06463 2.45747,-2.89227 3.85819,-7.36614 5.45674,-11.15378 4.76781,-11.29322 8.96599,-22.99279 10.70969,-37.79976 0.53285,-4.513703 0.80921,-9.650876 0.1849,-14.357794 2.18906,-0.716097 5.51937,-1.210094 7.8496,-1.032813"
   id="path9"
   inkscape:connector-curvature="0"
   style="fill:#ff1119" />
<path
   d="m 228.62514,70.203854 c -5.03026,0.418304 -9.22148,1.998896 -12.93453,3.922099 v 59.079497 c 0,2.28971 0.10637,4.70492 -0.18491,6.71677 -0.34893,2.37537 -1.2685,4.44199 -2.31133,6.09329 5.82556,3.0596 8.11303,5.15012 10.90453,11.66969 2.38888,-5.1541 7.1716,-8.08422 12.73968,-9.71063 -0.31016,-1.71505 -0.88178,-3.32054 -0.73565,-5.47082 0.28035,-4.24479 2.1324,-6.97572 3.4168,-10.02038 1.27348,-3.02374 2.56782,-6.03752 3.79059,-9.08616 3.60966,-9.00748 10.18082,-29.653787 5.63569,-41.727838 -1.08061,-2.86638 -2.87501,-4.898143 -4.90003,-6.71179 -3.52815,-3.170148 -8.63098,-5.326407 -15.42084,-4.753728"
   id="path11"
   inkscape:connector-curvature="0"
   style="fill:#ff1119" />
<path
   d="m 1.7503975,387.60709 c 0,-111.78084 90.4443025,-202.39448 202.0286325,-202.39448 111.5724,0 202.02266,90.61265 202.02266,202.39448 0,111.78681 -90.44927,202.40344 -202.02266,202.40344 -111.583336,0 -202.0286325,-90.61663 -202.0286325,-202.40344 z"
   id="path13"
   inkscape:connector-curvature="0"
   style="fill:#ff1119" />
<path
   d="m 28.78855,385.78149 c 0,3.8733 3.745855,7.01456 8.374491,7.01456 4.622672,0 8.368527,-3.14126 8.368527,-7.01456 0,-3.87131 -3.745855,-7.01456 -8.368527,-7.01456 -4.62963,0 -8.374491,3.14325 -8.374491,7.01456 z"
   id="path15"
   inkscape:connector-curvature="0" />
<path
   d="m 45.652851,449.28903 c 9.143942,-2.71699 15.139497,-12.38679 12.842079,-22.04663 l -2.956522,-12.43259 -35.236684,9.20368 2.961492,12.43161 c 2.383906,10.03133 12.890791,15.64856 22.389635,12.84393 z m -14.524135,-14.90159 -0.847987,-3.56754 19.494749,-5.09534 0.848981,3.57152 c 1.186983,4.98479 -2.398819,9.58116 -7.108973,11.00737 -5.010379,1.50092 -11.126223,-0.62347 -12.38677,-5.91601 z"
   id="path17"
   inkscape:connector-curvature="0" />
<polygon
   points="170.762,556.627 176.812,568.049 183.943,563.915 173.648,544.473 141.698,562.989 152.291,582.989 159.429,578.85 153.086,566.879 159.155,563.356 164.317,573.106 171.45,568.966 166.292,559.221 "
   id="polygon19"
   transform="matrix(0.99412286,0,0,0.99596231,-103.40792,-87.84441)" />
<path
   d="m 108.8224,503.19051 -7.72533,-6.32735 -22.350864,29.98046 8.437121,6.90899 c 5.912049,4.84635 13.618493,6.16102 17.863393,0.46312 2.60759,-3.49583 2.22883,-7.83125 -0.0626,-11.55814 3.54206,0.80971 6.80875,-0.0588 9.04354,-3.05661 3.90591,-5.24773 0.28631,-11.92267 -5.20523,-16.41047 z m -10.133099,24.61321 c -1.56474,2.10049 -4.0759,1.24894 -6.982715,-1.1334 l -1.104471,-0.89836 4.248886,-5.69989 1.0995,0.89836 c 3.09768,2.5397 4.269749,4.7836 2.7388,6.83329 z m 7.269029,-12.31607 c -1.11938,1.49494 -2.76763,1.44016 -5.43785,-0.74896 l -1.046809,-0.85752 3.499309,-4.70095 1.00307,0.82267 c 2.67121,2.18713 3.09769,3.98186 1.98228,5.48476 z"
   id="path21"
   inkscape:connector-curvature="0" />
<path
   d="m 115.1997,550.64413 7.17757,5.56942 5.02032,-6.05744 10.50688,4.90212 -0.93149,7.9677 8.74828,1.86046 2.58273,-39.60942 -6.74015,-3.15123 -26.36414,28.51839 z m 23.73767,-4.40216 -5.97667,-2.7877 7.37142,-8.92382 -1.39475,11.71152 z"
   id="path23"
   inkscape:connector-curvature="0" />
<polygon
   points="376.3,643.796 363.781,647.802 361.748,640.858 371.937,637.601 369.553,629.441 359.364,632.698 357.873,627.587 369.807,623.771 367.422,615.612 347.1,622.107 357.785,658.64 378.688,651.957 "
   id="polygon25"
   transform="matrix(0.99412286,0,0,0.99596231,-103.40792,-87.84441)" />
<polygon
   points="413.411,623.85 402.229,630.333 388.473,604.384 380.799,608.827 398.514,642.237 417.365,631.316 "
   id="polygon27"
   transform="matrix(0.99412286,0,0,0.99596231,-103.40792,-87.84441)" />
<path
   d="m 308.29713,493.35139 c -7.01354,7.09524 -4.89108,18.96711 1.87492,26.31532 6.77395,7.34124 18.02841,9.96759 25.03599,2.87534 7.01254,-7.09324 4.89506,-18.9671 -1.87591,-26.30934 -6.77098,-7.34621 -18.02743,-9.97157 -25.035,-2.88132 z m 21.36668,23.16908 c -3.75182,3.79063 -8.9312,1.27483 -13.13335,-3.28469 -4.20216,-4.56449 -6.42602,-10.07615 -2.68513,-13.86081 3.74585,-3.78963 8.92623,-1.27483 13.13336,3.28568 4.20514,4.5635 6.42601,10.07018 2.68512,13.85982 z"
   id="path29"
   inkscape:connector-curvature="0" />
<polygon
   points="463.252,553.354 439.063,554.33 434.817,562.352 466.771,580.871 471.022,572.853 452.913,562.357 477.102,561.381 481.348,553.364 449.397,534.84 445.142,542.859 "
   id="polygon31"
   transform="matrix(0.99412286,0,0,0.99596231,-103.40792,-87.84441)" />
<path
   d="m 380.72196,420.56049 7.62791,-0.70115 -0.0825,-9.35309 -37.52316,5.58237 -1.53195,7.5723 32.11117,21.08353 3.70708,-8.51249 -6.69741,-3.88923 2.38888,-11.78224 z m -9.80901,7.47669 -9.8617,-5.6979 11.22365,-1.00293 -1.36195,6.70083 z"
   id="path33"
   inkscape:connector-curvature="0" />
<path
   d="m 364.06146,389.849 c 0,3.86632 3.74983,7.00958 8.36852,7.00958 4.62765,0 8.37946,-3.14326 8.37946,-7.00958 0,-3.87429 -3.75082,-7.01456 -8.37946,-7.01456 -4.6177,0 -8.36852,3.14027 -8.36852,7.01456 z"
   id="path35"
   inkscape:connector-curvature="0" />
<polygon
   points="452.249,434.807 457.46,456.686 465.377,454.619 462.286,441.64 489.815,434.468 487.689,425.567 "
   id="polygon37"
   transform="matrix(0.99412286,0,0,0.99596231,-103.40792,-87.84441)" />
<path
   d="m 335.1633,320.2631 c 4.87021,8.84515 16.38016,9.57419 24.81728,4.46789 8.43712,-5.10032 13.59364,-15.9105 8.72343,-24.75464 -4.87021,-8.84514 -16.38116,-9.5712 -24.81728,-4.4659 -8.43812,5.1063 -13.59364,15.9105 -8.72343,24.75265 z m 13.1433,-16.73017 c 5.23903,-3.17114 10.87471,-4.09739 13.48229,0.62945 2.59765,4.72484 -0.98319,9.37798 -6.22221,12.55111 -5.244,3.17214 -10.88465,4.09042 -13.48329,-0.63442 -2.60162,-4.72087 0.97921,-9.37998 6.22321,-12.54614 z"
   id="path39"
   inkscape:connector-curvature="0" />
<polygon
   points="424.736,365.073 414.635,374.928 420.695,381.73 430.8,371.874 454.512,366.074 450.709,357.507 433.735,362.653 434.876,359.408 435.821,359.188 440.486,345.662 439.629,345.177 439.625,345.187 431.926,340.74 "
   id="polygon41"
   transform="matrix(0.99412286,0,0,0.99596231,-103.40792,-87.84441)" />
<polygon
   points="394.756,311.802 375.397,344.202 382.832,349.059 393.801,330.699 393.469,356.013 400.903,360.874 420.261,328.476 412.822,323.615 401.854,341.971 401.901,338.397 402.545,337.257 402.775,317.054 402.176,316.635 402.175,316.651 "
   id="polygon43"
   transform="matrix(0.99412286,0,0,0.99596231,-103.40792,-87.84441)" />
<path
   d="m 253.59751,241.96851 0.40162,8.01252 8.92623,0.24302 -4.02818,-39.48095 -7.15669,-1.87639 -21.23049,32.88269 7.98579,4.17308 3.94567,-6.87214 11.15605,2.91817 z m -1.01301,-20.65825 0.56168,11.78323 -6.33853,-1.66026 5.77685,-10.12297 z"
   id="path45"
   inkscape:connector-curvature="0" />
<path
   d="m 208.48918,230.65339 h 1.39476 c 7.74919,0 15.19318,-5.51763 15.19318,-13.63274 0,-8.12306 -7.44399,-13.6387 -15.19318,-13.6387 H 199.7747 v 38.05074 h 8.71448 v -10.7793 z m 0,-18.76891 h 1.39476 c 3.08675,0 6.35443,1.90129 6.35443,5.13617 0,3.22891 -3.26669,5.1322 -6.35443,5.1322 h -1.39476 v -10.26837 z"
   id="path47"
   inkscape:connector-curvature="0" />
<path
   d="m 173.07753,229.84765 c 1.78843,0.57667 3.47049,1.23599 3.80451,3.17613 0.31514,1.87041 -0.79033,3.73884 -2.53004,4.32048 -2.49525,0.81569 -5.33446,0.21911 -6.44391,-2.19311 l -4.17829,7.4757 c 3.54206,3.42411 8.34168,3.91014 12.3142,3.0317 6.32958,-1.41426 10.58939,-7.87308 9.35867,-14.53208 -1.07067,-5.60129 -5.36429,-8.14399 -10.6908,-9.68275 l -2.50121,-0.739 c -2.6901,-0.7639 -4.9388,-1.17026 -4.7877,-3.47292 0.0925,-1.37841 0.93945,-2.67117 2.24871,-2.96299 1.99719,-0.50993 4.07193,-0.64339 5.43288,0.86848 l 3.92977,-7.16396 c -3.37704,-2.62037 -6.84752,-2.95004 -11.04868,-2.01284 -5.27283,1.17026 -10.21561,7.00461 -9.08231,13.17061 1.11043,6.10326 6.30075,8.19278 12.05772,10.02336 l 2.11648,0.69319 z"
   id="path49"
   inkscape:connector-curvature="0" />
<polygon
   points="255.258,330.668 243.305,336.237 240.478,329.607 250.213,325.073 246.893,317.279 237.158,321.815 235.076,316.928 246.479,311.619 243.163,303.824 223.752,312.86 238.61,347.759 258.578,338.463 "
   id="polygon51"
   transform="matrix(0.99412286,0,0,0.99596231,-103.40792,-87.84441)" />
<path
   d="m 99.222151,283.54596 c 6.852499,-7.43387 5.835509,-19.74695 -1.47229,-26.69876 -7.05231,-6.6869 -18.052279,-6.88908 -24.653255,0.2699 l -8.489809,9.21365 26.125549,26.42786 8.489805,-9.21265 z M 78.931113,263.02017 c 3.401889,-3.69104 9.023653,-2.94307 12.678049,0.48703 3.872109,3.65119 5.394109,10.21359 1.778486,14.13768 l -2.43759,2.64627 -14.461505,-14.6267 2.44256,-2.64428 z"
   id="path53"
   inkscape:connector-curvature="0" />
<path
   d="m 52.549081,317.51026 c 8.417238,4.88122 19.938128,4.17607 24.598576,-4.64417 2.583725,-4.87623 3.135463,-9.19771 1.395748,-14.41257 l -0.007,10e-4 -0.181924,-0.61551 -7.898306,1.88436 0.149118,0.42528 -0.0089,0.002 c 1.454402,2.86837 1.251601,5.86921 -0.435426,8.66189 -2.810385,4.52664 -8.824828,3.21098 -13.327211,0.59757 -4.501388,-2.61041 -8.601151,-7.16495 -6.580099,-12.15074 1.230724,-2.98589 3.251776,-4.7119 6.251045,-5.28856 l -2.316307,-7.647 c -5.146574,1.21508 -8.345661,3.99879 -10.927398,8.87303 -4.426829,8.37804 0.869857,19.42426 9.28809,24.31343 z"
   id="path55"
   inkscape:connector-curvature="0" />
<path
   d="m 59.818107,350.77043 -11.678955,-2.81858 0.300225,-1.36247 15.173297,-7.39303 -1.987252,-8.74654 -0.03082,0.0169 -0.308178,-1.15432 -13.568783,7.18288 c -1.410661,-3.83645 -4.370164,-6.5614 -7.903277,-7.41594 -7.086108,-1.71206 -13.439547,4.30555 -15.071897,11.71949 l -2.273559,10.31419 35.392762,8.5583 1.956434,-8.90091 z m -19.27306,-6.15306 -0.30619,1.41925 -7.908247,-1.91125 0.314143,-1.41925 c 0.911611,-4.14022 2.641384,-5.22183 5.175404,-4.60732 2.536007,0.61451 3.311423,3.86433 2.72489,6.51857 z"
   id="path57"
   inkscape:connector-curvature="0" />
<path
   d="m 184.04271,557.6567 c 3.56592,-1.73596 5.96474,-5.02164 6.53437,-8.78937 1.12932,-7.52051 -5.03126,-13.74229 -12.20783,-14.93346 l -9.98795,-1.65728 -5.67446,37.58065 8.6111,1.4302 1.87093,-12.40172 1.31324,0.21711 8.1021,15.3448 8.19058,-2.6891 -0.0219,-0.0379 1.00506,-0.26393 -7.73527,-13.80005 z m -2.19304,-10.24148 c -0.40759,2.69408 -3.44563,3.73386 -6.01444,3.30759 l -1.37686,-0.22808 1.26452,-8.39795 1.37686,0.22708 c 4.00831,0.66928 5.15751,2.40027 4.74992,5.09136 z"
   id="path59"
   inkscape:connector-curvature="0" />
<path
   d="m 227.97598,561.19037 -0.2714,0.54679 c -1.51603,2.78769 -4.00432,4.22088 -7.12388,4.26172 -5.16049,-0.005 -7.38037,-6.00964 -7.73925,-11.38684 -0.35788,-5.3762 1.05676,-11.45954 6.14567,-12.40172 3.05792,-0.54081 5.54422,0.29181 7.63785,2.61838 l 4.86623,-6.20484 c -3.78065,-3.85139 -7.74422,-5.15112 -13.05482,-4.76269 -9.12207,0.6643 -15.08284,11.33504 -14.40882,21.39625 0.66904,10.05624 7.51259,19.78778 17.11184,19.08663 5.31259,-0.38644 9.07236,-2.25187 12.29431,-6.61917 l -0.004,-0.004 0.31016,-0.495 -5.76392,-6.03553 z"
   id="path61"
   inkscape:connector-curvature="0" />
<path
   d="m 26.423532,387.77939 c 0,3.8723 3.745855,7.01257 8.36952,7.01257 4.627642,0 8.374491,-3.14027 8.374491,-7.01257 0,-3.86832 -3.746849,-7.00859 -8.374491,-7.00859 -4.624659,0 -8.36952,3.14027 -8.36952,7.00859 z"
   id="path63"
   inkscape:connector-curvature="0"
   style="fill:#f5c03e" />
<path
   d="m 361.82667,387.77939 c 0,3.8723 3.74685,7.01257 8.37449,7.01257 4.62267,0 8.36952,-3.14027 8.36952,-7.01257 0,-3.86832 -3.74685,-7.00859 -8.36952,-7.00859 -4.62764,0 -8.37449,3.14027 -8.37449,7.00859 z"
   id="path65"
   inkscape:connector-curvature="0"
   style="fill:#f5c03e" />
<path
   d="m 50.06775,318.29409 c 8.423203,4.88718 19.942105,4.17507 24.603547,-4.6382 2.583725,-4.88221 3.130493,-9.1997 1.395748,-14.41357 l -7.952983,1.69214 c 1.454402,2.87335 1.255578,5.87319 -0.435425,8.66189 -2.806409,4.53461 -8.825823,3.21397 -13.327211,0.60355 -4.502383,-2.61739 -8.596181,-7.16694 -6.581094,-12.15771 1.230724,-2.9839 3.256747,-4.70991 6.256015,-5.28358 l -2.316306,-7.65098 c -5.146574,1.21607 -8.345661,3.99779 -10.928392,8.88099 -4.428818,8.36907 0.873834,19.41728 9.286101,24.30547 z"
   id="path67"
   inkscape:connector-curvature="0"
   style="fill:#f5c03e" />
<path
   d="m 96.066811,283.6834 c 6.853479,-7.43685 5.829539,-19.74993 -1.47727,-26.70075 -7.051312,-6.68689 -18.052276,-6.88808 -24.653251,0.2709 l -8.48981,9.21962 26.13052,26.42288 8.489811,-9.21265 z m -20.29005,-20.5238 c 3.401889,-3.69601 9.018683,-2.94804 12.677055,0.48404 3.873103,3.64921 5.395105,10.21559 1.778486,14.1357 l -2.437589,2.64826 -14.460512,-14.62571 2.44256,-2.64229 z"
   id="path69"
   inkscape:connector-curvature="0"
   style="fill:#f5c03e" />
<polygon
   points="400.04,357.831 419.394,325.433 411.964,320.572 400.996,338.927 401.331,313.618 393.893,308.759 374.535,341.152 381.969,346.016 392.938,327.655 392.611,352.965 "
   id="polygon71"
   style="fill:#f5c03e"
   transform="matrix(0.99412286,0,0,0.99596231,-103.40792,-87.84441)" />
<path
   d="m 251.30009,239.76345 0.39268,8.01152 8.93219,0.24402 -4.02222,-39.47796 -7.16265,-1.87639 -21.23049,32.8797 7.98082,4.17607 3.94468,-6.87513 11.16499,2.91817 z m -1.01699,-20.65924 0.56069,11.78223 -6.33853,-1.65828 5.77784,-10.12395 z"
   id="path73"
   inkscape:connector-curvature="0"
   style="fill:#f5c03e" />
<path
   d="m 206.18779,228.44833 h 1.39475 c 7.74919,0 15.19318,-5.51564 15.19318,-13.63772 0,-8.11709 -7.44399,-13.63273 -15.19318,-13.63273 h -10.10923 v 38.04875 h 8.71448 v -10.7783 z m 0,-18.76792 h 1.39475 c 3.08675,0 6.35444,1.89631 6.35444,5.1302 0,3.23389 -3.26669,5.13618 -6.35444,5.13618 h -1.39475 v -10.26638 z"
   id="path75"
   inkscape:connector-curvature="0"
   style="fill:#f5c03e" />
<path
   d="m 171.23741,227.78402 c 1.78843,0.57168 3.46949,1.23698 3.80352,3.17114 0.31513,1.8764 -0.78934,3.74183 -2.53005,4.32646 -2.49525,0.80972 -5.33446,0.21214 -6.44887,-2.19908 l -4.17234,7.47669 c 3.54206,3.42511 8.3397,3.91413 12.31321,3.03171 6.32958,-1.40929 10.5894,-7.86811 9.36364,-14.53408 -1.07564,-5.59233 -5.37025,-8.14199 -10.69079,-9.67976 l -2.50619,-0.74 c -2.6891,-0.75892 -4.9388,-1.16428 -4.7867,-3.46694 0.0915,-1.38439 0.93945,-2.67117 2.24771,-2.96299 1.9972,-0.51591 4.07094,-0.64937 5.43288,0.8635 l 3.93077,-7.16396 c -3.37803,-2.61739 -6.84852,-2.95004 -11.04869,-2.01383 -5.27282,1.17523 -10.2166,7.01057 -9.0833,13.17658 1.11044,6.10325 6.30075,8.18681 12.05275,10.01739 l 2.12245,0.69717 z"
   id="path77"
   inkscape:connector-curvature="0"
   style="fill:#f5c03e" />
<polygon
   points="240.395,335.266 237.566,328.636 247.302,324.106 243.982,316.312 234.247,320.844 232.165,315.957 243.567,310.648 240.248,302.853 220.841,311.888 235.705,346.794 255.667,337.498 252.348,329.702 "
   id="polygon79"
   style="fill:#f5c03e"
   transform="matrix(0.99412286,0,0,0.99596231,-103.40792,-87.84441)" />
<polygon
   points="450.772,354.254 433.803,359.401 439.896,342.055 431.99,337.487 424.805,361.82 414.699,371.68 420.758,378.478 430.869,368.621 454.579,362.823 "
   id="polygon81"
   style="fill:#f5c03e"
   transform="matrix(0.99412286,0,0,0.99596231,-103.40792,-87.84441)" />
<path
   d="m 334.96945,317.20152 c 4.8702,8.84514 16.38016,9.57119 24.81728,4.47087 8.43811,-5.1053 13.59363,-15.91548 8.72343,-24.75763 -4.87021,-8.84514 -16.38017,-9.56921 -24.81828,-4.4659 -8.43613,5.10531 -13.59264,15.90851 -8.72243,24.75266 z m 13.1423,-16.72918 c 5.24002,-3.17414 10.87471,-4.09241 13.48329,0.62945 2.60162,4.72484 -0.98418,9.37798 -6.22321,12.54812 -5.23903,3.17513 -10.88465,4.09341 -13.4823,-0.63144 -2.60659,-4.72185 0.97922,-9.38196 6.22222,-12.54613 z"
   id="path83"
   inkscape:connector-curvature="0"
   style="fill:#f5c03e" />
<polygon
   points="458.981,453.846 466.898,451.784 463.808,438.804 491.331,431.634 489.21,422.732 453.775,431.973 "
   id="polygon85"
   style="fill:#f5c03e"
   transform="matrix(0.99412286,0,0,0.99596231,-103.40792,-87.84441)" />
<path
   d="m 47.097311,446.39775 c 9.148913,-2.71898 15.143474,-12.39177 12.84705,-22.0516 l -2.956522,-12.4326 -35.240661,9.20369 2.961492,12.4316 c 2.382913,10.03133 12.889797,15.65254 22.388641,12.84891 z m -14.520158,-14.90259 -0.847987,-3.57152 19.495743,-5.09136 0.847987,3.56754 c 1.187977,4.98579 -2.402795,9.58315 -7.108973,11.01335 -5.010379,1.50291 -11.126223,-0.63044 -12.38677,-5.91801 z"
   id="path87"
   inkscape:connector-curvature="0"
   style="fill:#f5c03e" />
<polygon
   points="177.67,564.797 184.812,560.662 174.507,541.22 142.557,559.737 153.154,579.737 160.291,575.602 153.944,563.622 160.014,560.109 165.176,569.854 172.313,565.72 167.15,555.97 171.62,553.379 "
   id="polygon89"
   style="fill:#f5c03e"
   transform="matrix(0.99412286,0,0,0.99596231,-103.40792,-87.84441)" />
<path
   d="m 108.43469,499.87794 -7.7293,-6.32337 -22.354845,29.97946 8.442092,6.91198 c 5.912048,4.84635 13.612523,6.16202 17.858423,0.46213 2.61156,-3.49882 2.22883,-7.82926 -0.0587,-11.56014 3.54206,0.81271 6.80378,-0.0607 9.04353,-3.05561 3.91088,-5.24474 0.27935,-11.92167 -5.20125,-16.41445 z m -10.138059,24.62018 c -1.56475,2.09949 -4.080879,1.24595 -6.988688,-1.1344 l -1.0995,-0.89835 4.249878,-5.6999 1.09552,0.90135 c 3.09669,2.53472 4.26976,4.78261 2.74279,6.8313 z m 7.264059,-12.31806 c -1.11939,1.49793 -2.76665,1.44016 -5.43786,-0.74896 l -1.046809,-0.85852 3.504279,-4.69895 0.9981,0.82366 c 2.67618,2.18614 3.10167,3.97887 1.98229,5.48277 z"
   id="path91"
   inkscape:connector-curvature="0"
   style="fill:#f5c03e" />
<path
   d="m 113.22736,548.02475 7.1726,5.56743 5.02628,-6.05048 10.50589,4.89715 -0.93447,7.96372 8.74728,1.86145 2.59268,-39.60743 -6.75109,-3.14525 -26.35917,28.51341 z m 23.73667,-4.40515 -5.96971,-2.78471 7.36049,-8.91884 -1.39078,11.70355 z"
   id="path93"
   inkscape:connector-curvature="0"
   style="fill:#f5c03e" />
<path
   d="m 188.66836,546.31767 c 1.1343,-7.51753 -5.03424,-13.7413 -12.20186,-14.93247 l -9.98795,-1.65927 -5.67545,37.57766 8.60711,1.43319 1.87094,-12.40471 1.31722,0.21911 8.09812,15.3418 8.18958,-2.68212 -7.80784,-13.62178 c 4.15941,-1.56067 6.9698,-5.13817 7.59013,-9.27141 z m -8.7284,-1.44813 c -0.40659,2.69308 -3.44066,3.72589 -6.01444,3.29962 l -1.37189,-0.22807 1.26452,-8.39099 1.37189,0.22808 c 4.0093,0.6653 5.15751,2.39628 4.74992,5.09136 z"
   id="path95"
   inkscape:connector-curvature="0"
   style="fill:#f5c03e" />
<path
   d="m 218.27831,564.3416 c -5.16049,0 -7.38037,-6.00665 -7.74422,-11.38186 -0.35291,-5.3772 1.05676,-11.45456 6.15064,-12.40172 3.0619,-0.54679 5.54423,0.29181 7.63785,2.6144 l 4.86921,-6.20286 c -3.77965,-3.85437 -7.74819,-5.1541 -13.06476,-4.76767 -9.11611,0.66929 -15.0719,11.34003 -14.40285,21.40124 0.67401,10.05324 7.51258,19.78778 17.10686,19.08762 5.31657,-0.38643 9.07237,-2.25386 12.30526,-6.61917 l -5.68539,-6.0674 c -1.51206,2.84447 -4.02222,4.29957 -7.1726,4.33742 z"
   id="path97"
   inkscape:connector-curvature="0"
   style="fill:#f5c03e" />
<polygon
   points="360.935,646.418 358.906,639.474 369.1,636.219 366.711,628.059 356.522,631.316 355.025,626.204 366.959,622.388 364.576,614.228 344.258,620.723 354.942,657.256 375.842,650.576 373.458,642.416 "
   id="polygon99"
   style="fill:#f5c03e"
   transform="matrix(0.99412286,0,0,0.99596231,-103.40792,-87.84441)" />
<path
   d="m 305.48078,492.66717 c -7.00757,7.09025 -4.8891,18.9671 1.88088,26.30934 6.766,7.34223 18.02842,9.96659 25.035,2.87435 7.00856,-7.08628 4.89009,-18.96711 -1.87492,-26.31034 -6.77594,-7.33925 -18.03438,-9.96659 -25.04096,-2.87335 z m 21.36171,23.16708 c -3.74088,3.78565 -8.92225,1.26985 -13.13336,-3.28967 -4.20215,-4.5625 -6.42104,-10.07316 -2.67916,-13.8618 3.74685,-3.78466 8.92623,-1.26885 13.13237,3.29066 4.20215,4.55952 6.427,10.07117 2.68015,13.86081 z"
   id="path101"
   inkscape:connector-curvature="0"
   style="fill:#f5c03e" />
<polygon
   points="399.25,629.504 385.488,603.553 377.825,607.996 395.54,641.406 414.387,630.486 410.428,623.02 "
   id="polygon103"
   style="fill:#f5c03e"
   transform="matrix(0.99412286,0,0,0.99596231,-103.40792,-87.84441)" />
<path
   d="m 378.74962,423.17987 7.63387,-0.70115 -0.0875,-9.35309 -37.51919,5.58337 -1.54089,7.56533 32.11613,21.0885 3.70708,-8.51149 -6.70337,-3.88923 2.39385,-11.78224 z m -9.81298,7.4747 -9.85673,-5.69392 11.21867,-1.00293 -1.36194,6.69685 z"
   id="path105"
   inkscape:connector-curvature="0"
   style="fill:#f5c03e" />
<polygon
   points="436.153,555.302 431.907,563.318 463.861,581.835 468.112,573.817 450.002,563.323 474.19,562.347 478.438,554.33 446.487,535.812 442.231,543.826 460.342,554.324 "
   id="polygon107"
   style="fill:#f5c03e"
   transform="matrix(0.99412286,0,0,0.99596231,-103.40792,-87.84441)" />
<path
   d="m 57.293035,352.5522 -11.679949,-2.82355 0.296248,-1.35551 15.179262,-7.398 -1.992222,-8.74156 -13.512118,7.20578 c -1.196924,-4.45095 -4.409929,-7.63704 -8.305896,-8.57922 -7.074179,-1.71006 -13.428612,4.30156 -15.060962,11.71551 l -2.272564,10.31717 35.386797,8.55831 1.961404,-8.89893 z m -19.27306,-6.15405 -0.310166,1.41825 -7.909242,-1.90926 0.320108,-1.42323 c 0.910617,-4.13922 2.64039,-5.21585 5.175404,-4.60134 2.534019,0.61251 3.310429,3.85736 2.723896,6.51558 z"
   id="path109"
   inkscape:connector-curvature="0"
   style="fill:#f5c03e" />
<path
   d="M 250.41731,262.40168 80.965088,439.80248 c 3.680243,8.68081 8.254203,16.88953 13.600593,24.51462 L 275.47517,274.92989 c -7.83269,-5.01368 -16.22409,-9.22361 -25.05786,-12.52821 z"
   id="path111"
   inkscape:connector-curvature="0"
   style="fill:#ffffff" />
<path
   d="M 71.007954,374.94044 185.31519,255.27656 c -60.80951,8.4378 -108.508517,57.94111 -114.307236,119.66388 z"
   id="path113"
   inkscape:connector-curvature="0"
   style="fill:#ffffff" />
<path
   d="M 312.99734,310.92596 132.09979,500.30919 c 7.82573,5.0057 16.21017,9.21165 25.03499,12.51227 L 326.588,335.42763 c -3.67826,-8.67583 -8.24824,-16.87957 -13.59066,-24.50167 z"
   id="path115"
   inkscape:connector-curvature="0"
   style="fill:#ffffff" />
<path
   d="M 336.54513,400.2817 222.24188,519.94658 c 60.8095,-8.4368 108.5095,-57.93912 114.30325,-119.66488 z"
   id="path117"
   inkscape:connector-curvature="0"
   style="fill:#ffffff" />
<path
   d="M 275.47517,274.92989 94.565681,464.3171 c 10.033689,14.31198 22.795239,26.56431 37.534109,35.99209 L 312.99734,310.92596 c -10.0297,-14.31198 -22.78728,-26.5663 -37.52217,-35.99607 z"
   id="path119"
   inkscape:connector-curvature="0"
   style="fill:#1e6bc0" />
<path
   d="m 337.14558,387.61605 c 0,-18.51793 -3.76176,-36.15443 -10.55858,-52.18842 L 157.13478,512.82146 c 14.51917,5.43098 30.23426,8.40592 46.64425,8.40592 6.26596,0 12.42653,-0.4432 18.46285,-1.2808 L 336.54513,400.2817 c 0.39168,-4.17009 0.60045,-8.39297 0.60045,-12.66565 z"
   id="path121"
   inkscape:connector-curvature="0"
   style="fill:#1e6bc0" />
<path
   d="m 203.77903,253.99576 c -6.26596,0 -12.42753,0.4432 -18.46285,1.2808 L 71.007954,374.94044 c -0.391684,4.17308 -0.60045,8.39995 -0.60045,12.67661 0,18.51693 3.761761,36.15343 10.557584,52.18543 L 250.41731,262.40168 c -14.51817,-5.42999 -30.23028,-8.40592 -46.63828,-8.40592 z"
   id="path123"
   inkscape:connector-curvature="0"
   style="fill:#1e6bc0" />
</svg>