<?xml version="1.0" encoding="UTF-8" standalone="no"?>
<!-- Generator: Adobe Illustrator 15.0.2, SVG Export Plug-In . SVG Version: 6.00 Build 0)  -->

<svg
   xmlns:dc="http://purl.org/dc/elements/1.1/"
   xmlns:cc="http://creativecommons.org/ns#"
   xmlns:rdf="http://www.w3.org/1999/02/22-rdf-syntax-ns#"
   xmlns:svg="http://www.w3.org/2000/svg"
   xmlns="http://www.w3.org/2000/svg"
   xmlns:sodipodi="http://sodipodi.sourceforge.net/DTD/sodipodi-0.dtd"
   xmlns:inkscape="http://www.inkscape.org/namespaces/inkscape"
   version="1.1"
   id="Capa_1"
   x="0px"
   y="0px"
   width="151.66539"
   height="174.49194"
   viewBox="0 0 480.9286 552.79048"
   enable-background="new 0 0 612 792"
   xml:space="preserve"
   inkscape:version="0.48.2 r9819"
   sodipodi:docname="real_sociedad_de_futbol [Convertido].svg"><metadata
   id="metadata145"><rdf:RDF><cc:Work
       rdf:about=""><dc:format>image/svg+xml</dc:format><dc:type
         rdf:resource="http://purl.org/dc/dcmitype/StillImage" /></cc:Work></rdf:RDF></metadata><defs
   id="defs143" /><sodipodi:namedview
   pagecolor="#ffffff"
   bordercolor="#666666"
   borderopacity="1"
   objecttolerance="10"
   gridtolerance="10"
   guidetolerance="10"
   inkscape:pageopacity="0"
   inkscape:pageshadow="2"
   inkscape:window-width="1280"
   inkscape:window-height="962"
   id="namedview141"
   showgrid="false"
   fit-margin-top="0"
   fit-margin-left="0"
   fit-margin-right="0"
   fit-margin-bottom="0"
   inkscape:zoom="4.1557927"
   inkscape:cx="76.974716"
   inkscape:cy="87.24175"
   inkscape:window-x="-8"
   inkscape:window-y="-8"
   inkscape:window-maximized="1"
   inkscape:current-layer="Capa_1" />
<path
   d="m 226.44461,13.89321 10.728,0 0,-14.16000029 h 9.654 l 0,14.16000029 10.727,0 v 9.654 l -10.727,0 v 7.02 c 3.435,1.2 6.286,3.643 8.013,6.791 2.072,-1.766 4.758,-2.834 7.693,-2.834 6.554,0 11.869,5.315 11.869,11.869 0,0.272 -0.01,0.541 -0.028,0.808 1.826,-1.146 3.984,-1.808 6.298,-1.808 3.759,0 7.11,1.748 9.285,4.476 0.847,-5.724 5.781,-10.117 11.74,-10.117 6.554,0 11.869,5.315 11.869,11.869 0,1.374 -0.233,2.692 -0.663,3.919 2.168,-2.348 5.271,-3.818 8.719,-3.818 6.242,0 11.361,4.821 11.833,10.942 0.953,-0.247 1.952,-0.377 2.982,-0.377 6.554,0 11.869,5.315 11.869,11.869 0,1.208 -0.182,2.372 -0.517,3.47 4.85,1.493 8.376,6.009 8.376,11.347 0,1.871 -0.434,3.641 -1.206,5.214997 3.065,2.146 5.071,5.705 5.071,9.729003 0,2.748 -0.936,5.278 -2.505,7.29 2.408,2.172 3.922,5.317 3.922,8.814 0,4.598 -2.616,8.585 -6.44,10.556 0.565,1.354 0.716,3.054 0.443,4.984 -0.518,3.682 -2.856,7.026 -7.445,8.136 -5.11,1.242 -10.38,1.945 -15.645,1.874 0.567,7.021 -4.807,14.662 -11.772,14.805 l 6.386,10.87 -11.168,2.521 c 3.813,3.158 4.544,9.301 2.879,13.782 -0.819,2.204 -2.219,4.01 -3.932,5.496 48.746,26.037 81.928,77.409 81.928,136.522 0,9.639 -0.885,19.07 -2.573,28.221 1.119,0.697 2.225,1.401 3.307,2.112 12.637,8.295 23.979,18.387 34.13,29.564 v 0.009 c 4.047,4.481 8.22,9.034 12.607,13.71 4.282,4.563 8.626,9.084 13.058,13.545 7.729,7.778 15.55,15.398 23.719,22.721 -26.187,6.824 -49.101,18.042 -71.269,31.401 l 60.337,61.193 -22.458,14.762 -60.576,-61.513 c -4.078,2.706 -8.16,5.458 -12.264,8.244 -14.76,10.02 -29.612,20.104 -45.4,29.205 -25.246,14.554 -50,24.608 -73.092,28.516 -20.278,3.431 -40.948,2.276 -59.785,-6.575 -17.621,-19.078 -35.518,-37.137 -57.932,-50.688 -18.002,-3.412 -33.544,-21.685 -42.359,-36.194 l -0.082,-0.155 c -2.967999,-5.926 -6.928999,-12.037 -11.857999,-18.311 -11.66,-14.843 -25.575,-28.539 -41.481,-38.788 -10.362,-6.678 -15.772,-11.788 -19.953,-23.621 -3.04,-8.604 -7.013,-16.841 -10.148,-25.428 -2.295,-6.285 -4.3080002,-12.456 -5.7490002,-17.854 -4.8389999,-18.128 -2.605,-36.637 1.226,-54.792 1.525,-7.224 3.0780002,-14.583 3.8960002,-22.488 0.848,-8.196 0.266,-16.526 -2.2170002,-24.408 -12.9049999,-41.808 -2.626,-89.233 7.6760002,-131.266 -15.3080001,2.912 -23.0790001,-16.843 -12.7110002,-27.933 l 7.8920002,-8.442 c 14.549,-15.558 36.131,2.451 25.597,18.796 l 112.924999,121.276 c 5.748,-4.179 11.792,-7.976 18.099,-11.344 -1.713,-1.485 -3.113,-3.292 -3.932,-5.495 -1.666,-4.481 -0.934,-10.624 2.879,-13.782 l -11.168,-2.521 6.386,-10.87 c -6.966,-0.143 -12.339,-7.784 -11.772,-14.805 -5.265,0.072 -10.535,-0.632 -15.646,-1.874 -4.589,-1.109 -6.927,-4.454 -7.446,-8.136 -0.272,-1.93 -0.122,-3.63 0.443,-4.984 -3.824,-1.971 -6.44,-5.958 -6.44,-10.556 0,-3.497 1.514,-6.642 3.922,-8.814 -1.569,-2.012 -2.505,-4.542 -2.505,-7.29 0,-4.025003 2.006,-7.583003 5.071,-9.729003 -0.772,-1.574997 -1.206,-3.343997 -1.206,-5.214997 0,-5.338 3.526,-9.854 8.375,-11.347 -0.335,-1.098 -0.517,-2.262 -0.517,-3.47 0,-6.554 5.315,-11.869 11.869,-11.869 1.03,0 2.029,0.131 2.982,0.377 0.473,-6.121 5.591,-10.942 11.833,-10.942 3.447,0 6.551,1.471 8.719,3.818 -0.43,-1.227 -0.663,-2.545 -0.663,-3.919 0,-6.554 5.315,-11.869 11.869,-11.869 5.958,0 10.893,4.393 11.74,10.117 2.175,-2.728 5.526,-4.476 9.285,-4.476 2.314,0 4.472,0.662 6.297,1.808 -0.018,-0.267 -0.027,-0.536 -0.027,-0.808 0,-6.554 5.315,-11.869 11.869,-11.869 2.937,0 5.624,1.068 7.696,2.835 1.727,-3.147 4.577,-5.591 8.01,-6.791 v -7.021 l -10.728,0 v -9.652 l 0.007,0 z m -119.12,239.549 c 6.614,-11.67 14.704,-22.394 24.011,-31.923 L 22.842611,105.18221 c 5.442,21.127 13.035,40.614 23.405,60.389 16.59,31.637 38.037,60.638 61.076999,87.871 z"
   id="path5"
   inkscape:connector-curvature="0" />
<path
   d="m 55.303611,375.16821 c -18.483,-20.861 -13.238,-54.326 -8.973,-81.521 0.629,-4.012 1.237,-7.886 1.746,-11.584 h 0 c 1.022,-12.244 1.174,-25.241 0.028,-37.924 -1.011,-11.18 -3.031,-22.12 -6.352,-32.089 l -0.016,-0.064 c -0.92,-6.516 -1.27,-13.471 -1.176,-20.447 0.104,-7.67 0.745,-15.361 1.755,-22.521 l 0.102,-0.717 -0.301,-0.571 c -8.732,-16.651 -17.916,-35.159 -22.697,-53.47 -8.32,37.33 -16.2450002,78.833 -5.189,116.308 2.676,8.496 3.313,17.438 2.399,26.272 -0.845,8.16 -2.422,15.63 -3.97,22.964 -2.8780002,13.637 -4.8700002,25.25 -2.9290002,36.999 2.6690002,16.16 12.9980002,30.715 24.5960002,41.829 6.53,6.385 13.539,11.936 20.977,16.536 z"
   id="path7"
   inkscape:connector-curvature="0"
   style="fill:#080a8c" />
<path
   d="m 316.32461,159.52921 c -0.101,-0.042 -0.2,-0.086 -0.301,-0.132 -11.232,-5.085 -23.116,-8.918 -35.462,-11.482 -25.03,-5.197 -52.096,-5.197 -77.126,0 -12.346,2.563 -24.229,6.397 -35.462,11.482 -0.101,0.045 -0.2,0.09 -0.3,0.132 l 11.801,1.459 0.893,0.111 -0.565,0.698 -8.14,10.066 c 10.654,-4.761 21.855,-8.473 33.472,-11 24.191,-5.265 49.543,-5.248 73.733,0.016 11.458,2.494 22.683,6.166 33.471,10.985 l -8.141,-10.067 -0.565,-0.698 0.893,-0.111 11.799,-1.459 z"
   id="path9"
   inkscape:connector-curvature="0"
   style="fill:#f0d133" />
<path
   d="m 82.389611,387.05921 c -3.681,-6.125 -6.647,-12.994 -9.081,-20.054 -2.59,-7.514 -4.582,-15.258 -6.192,-22.556 h 0 c -3.507,-15.342 -2.17,-30.807 -0.825,-46.374 0.801,-9.263 1.604,-18.563 1.391,-27.862 -0.411,-3.958 -0.92,-7.96 -1.435,-11.996 -2.123,-16.681 -4.321,-33.965 0.13,-49.834 -8.448,-12.626 -16.301,-25.632 -23.385,-38.988 -0.903,6.78 -1.605,15.01 -1.702,22.152 -0.094,6.926 0.254,13.833 1.167,20.309 3.333,10.016 5.36,20.998 6.375,32.217 1.151,12.737 1,25.776 -0.024,38.05 l -0.003,0.019 c -0.506,3.677 -1.118,7.579 -1.751,11.617 -4.371,27.872 -9.777,62.371 10.57,82.805 6.246,3.654 12.784,6.646 19.583,8.909 1.712,0.576 3.439,1.105 5.182,1.586 z"
   id="path11"
   inkscape:connector-curvature="0"
   style="fill:#ffffff" />
<path
   d="m 99.64461,390.16521 c -7.935999,-18.611 -12.328999,-39.093 -12.328999,-60.599 0,-25.557 6.206999,-49.666 17.187999,-70.907 -13.333999,-15.729 -26.012999,-32.247 -37.587999,-49.475 -4.188,15.564 -2.027,32.544 0.06,48.94 0.517,4.06 1.029,8.085 1.438,12.022 l 10e-4,0.03 c 0.217,9.367 -0.588,18.683 -1.39,27.961 -1.34,15.512 -2.672,30.922 0.808,46.147 v 0.003 c 1.603,7.264 3.587,14.978 6.173,22.479 2.508,7.275 5.578,14.337 9.41,20.57 5.272,1.395 10.684999,2.347 16.228999,2.829 z"
   id="path13"
   inkscape:connector-curvature="0"
   style="fill:#080a8c" />
<path
   d="m 217.87061,525.13921 c -1.495,6.758 -3.664,13.49 -6.486,20.145 13.59,3.74 28.407,4.013 44.055,1.365 22.533,-3.813 46.767,-13.669 71.538,-27.949 15.635,-9.014 30.417,-19.049 45.107,-29.021 31,-21.045 61.371,-41.738 99.122,-52.453 -4.353,-4.021 -8.544,-8.293 -12.716,-12.547 -48.381,0.998 -86.626,27.887 -124.63,54.61 -3.874,2.724 -7.746,5.446 -11.671,8.171 l -0.018,0.013 c -15.971,9.622 -32.317,19.034 -49.561,26.043 -17.19,6.987 -35.266,11.585 -54.74,11.623 z"
   id="path15"
   inkscape:connector-curvature="0"
   style="fill:#080a8c" />
<path
   d="m 220.33061,502.51521 c 0.036,7.283 -0.74,14.599 -2.299,21.888 19.308,-0.063 37.242,-4.632 54.303,-11.567 17.196,-6.99 33.512,-16.385 49.456,-25.991 3.856,-2.677 7.751,-5.416 11.648,-8.156 37.915,-26.661 76.069,-53.483 124.351,-54.724 -1.296,-1.321 -2.59,-2.64 -3.888,-3.946 -4.152,-4.179 -8.191,-8.37 -12.147,-12.569 -13.719,1.019 -26.417,4.096 -38.583,8.493 -12.385,4.477 -24.222,10.322 -36.024,16.754 -23.076,14.61 -46.515,29.268 -70.912,41.689 -24.162,12.303 -49.27,22.416 -75.905,28.129 z"
   id="path17"
   inkscape:connector-curvature="0"
   style="fill:#ffffff" />
<path
   d="m 214.27561,469.32821 c 3.337,8.99 5.274,18.204 5.863,27.509 0.104,1.641 0.165,3.285 0.185,4.93 26.506,-5.703 51.509,-15.78 75.579,-28.036 24.382,-12.414 47.802,-27.06 70.859,-41.659 l 0.02,-0.011 c 11.837,-6.452 23.71,-12.315 36.139,-16.808 12.051,-4.356 24.624,-7.423 38.188,-8.491 l -0.357,-0.38 c -4.167,-4.442 -8.396,-9.06 -12.658,-13.779 l -0.005,0.004 c -2.143,-2.36 -4.342,-4.67 -6.597,-6.925 -53.422,1.967 -98.209,29.348 -141.817,56.011 l -0.99,0.605 -0.023,0.013 -0.806,0.415 c -20.553,10.57 -40.952,21.058 -63.58,26.602 z"
   id="path19"
   inkscape:connector-curvature="0"
   style="fill:#080a8c" />
<path
   d="m 206.67661,453.30321 c 2.924,5.019 5.367,10.138 7.34,15.334 22.576,-5.517 42.963,-16 63.504,-26.563 l 0.795,-0.409 0.978,-0.598 c 43.503,-26.598 88.178,-53.908 141.492,-56.087 -4.063,-4.022 -8.306,-7.861 -12.733,-11.473 -14.001,-2.44 -27.999,-1.982 -41.46,0.489 -15.555,2.855 -30.401,8.399 -43.72,15.265 l -0.019,0.008 c -16.97,7.554 -32.846,18.038 -48.74,28.534 -21.505,14.203 -43.047,28.428 -67.437,35.5 z"
   id="path21"
   inkscape:connector-curvature="0"
   style="fill:#ffffff" />
<path
   d="m 181.56561,424.17121 c 8.635,6.804 16.368,15.256 22.827,25.387 0.654,1.026 1.287,2.057 1.899,3.092 24.358,-7.023 45.905,-21.252 67.417,-35.458 15.912,-10.508 31.806,-21.004 48.827,-28.583 l 0.002,-0.001 c 13.376,-6.895 28.29,-12.463 43.921,-15.333 13.133,-2.411 26.771,-2.917 40.429,-0.708 -3.871,-3.101 -7.88,-6.029 -12.033,-8.755 -3.53,-2.317 -7.048,-4.413 -10.521,-6.481 -3.762,-2.241 -7.473,-4.452 -10.986,-6.799 -1.989,-1.328 -3.932,-2.672 -5.84,-4.042 -53.232,-4.874 -95.366,23.317 -136.312,50.72 -5.671,3.795 -11.32,7.576 -16.97,11.25 l -0.02,0.013 c -10.512,5.905 -21.21,11.744 -32.64,15.698 z"
   id="path23"
   inkscape:connector-curvature="0"
   style="fill:#080a8c" />
<path
   d="m 161.81961,412.10421 c 1.484,0.681 2.954,1.399 4.407,2.156 5.1,2.655 10.002,5.778 14.649,9.372 11.559,-3.938 22.359,-9.837 32.971,-15.799 5.643,-3.67 11.282,-7.444 16.943,-11.232 40.739,-27.264 82.65,-55.309 135.56,-50.948 -2.816,-2.051 -5.561,-4.161 -8.272,-6.354 -2.607,-2.109 -5.205,-4.313 -7.826,-6.637 -11.259,-0.277 -22.895,0.552 -34.279,2.252 -12.484,1.865 -24.663,4.78 -35.71,8.432 l -0.023,0.006 c -20.875,5.463 -38.883,18.123 -56.915,30.799 -9.795,6.886 -19.598,13.777 -29.878,19.531 v 0 c -10.199,6.718 -21.506,11.587 -31.627,18.422 z"
   id="path25"
   inkscape:connector-curvature="0"
   style="fill:#ffffff" />
<path
   d="m 31.087611,361.99521 c -6.691,-6.412 -12.716,-13.856 -17.415,-21.779 1.002,3.14 2.125,6.403 3.325,9.69 3.14,8.6 7.121,16.848 10.166,25.464 3.826,10.831 8.564,15.118 18.07,21.244 8.439,5.438 15.998,11.675 23.264,18.622 7.399,-3.681 14.913,-6.486 22.634,-8.615 7.844999,-2.164 15.781999,-3.45 23.676999,-3.718 15.974,-0.544 31.786,2.373 46.228,8.846 10.218,-6.982 21.699,-11.883 32.03,-18.693 l 0.021,-0.015 c 10.252,-5.739 20.038,-12.618 29.814,-19.491 18.078,-12.708 36.134,-25.401 57.13,-30.902 l 0,0 c 11.084,-3.664 23.305,-6.588 35.833,-8.46 11.127,-1.662 22.501,-2.494 33.541,-2.278 -2.03,-1.815 -4.074,-3.704 -6.15,-5.673 -3.559,-3.378 -7.013,-6.865 -10.334,-10.484 -3.104,-3.383 -6.092,-6.875 -8.942,-10.493 -23.69,-0.242 -46.869,6.045 -68.07,16.381 -16.872,8.225 -32.669,18.505 -47.308,30.235 -15.496,12.413 -29.978,23.567 -48.453,31.627 -10.864,4.739 -22.365,8.278 -34.653,10.271 -17.667,2.866 -34.317999,1.331 -49.768999,-3.877 -16.721,-5.297 -31.787,-14.826 -44.639,-27.902 z"
   id="path27"
   inkscape:connector-curvature="0"
   style="fill:#080a8c" />
<path
   d="m 199.24661,540.85321 c 2.497,1.154 5.046,2.171 7.643,3.053 6.611,-15.42 9.569,-31.239 8.585,-46.775 -0.982,-15.508 -5.891,-30.758 -15.015,-45.067 -9.615,-15.081 -22.197,-26.263 -36.392,-33.653 -15.089,-7.855 -32.001,-11.427 -49.114,-10.844 -7.506,0.255 -15.076,1.485 -22.579999,3.555 -6.883,1.898 -13.609,4.346 -20.297,7.571 6.088,5.983 11.284,12.018 15.79,17.754 5.064,6.446 9.170999,12.787 12.293999,19.002 8.346,13.222 23.146,30.383 39.983,34.071 22.788,13.557 41.74,31.806 59.103,51.333 z"
   id="path29"
   inkscape:connector-curvature="0"
   style="fill:#ffffff" />
<polygon
   points="521.577,650.648 511.055,657.564 455.543,601.194 466.051,594.137 "
   id="polygon31"
   style="fill:#f0d133"
   transform="translate(-62.551389,-119.75979)" />
<path
   d="m 28.886611,83.36921 116.655999,125.283 c -3.171,2.533 -6.238,5.191 -9.199,7.962 L 20.219611,92.09721 c -3.409,2.278997 -7.516,2.763997 -10.7280002,-0.448 l 0,0 c -4.094,-4.094 -3.585,-9.888 0.369,-14.118 l 7.8920002,-8.442 c 3.954,-4.23 9.916,-5.358 14.011,-1.264 v 0 c 4.094,4.094 2.715,9.562 -1.24,13.792 l -1.637,1.752 z"
   id="path33"
   inkscape:connector-curvature="0"
   style="fill:#f0d133" />
<path
   d="m 307.63761,189.47721 c 1.902,-1.005 3.759,-2.401 4.492,-4.371 0.57,-1.535 0.762,-5.301 -1.125,-6.167 -10.761,-4.938 -22.043,-8.685 -33.618,-11.204 -23.259,-5.062 -47.51,-5.078 -70.771,-0.016 -11.742,2.556 -22.998,6.344 -33.623,11.22 -1.886,0.866 -1.694,4.632 -1.124,6.167 0.732,1.97 2.589,3.365 4.491,4.371 19.928,-9.356 42.171,-14.594 65.639,-14.594 23.468,0 45.712,5.237 65.639,14.594 z"
   id="path35"
   inkscape:connector-curvature="0"
   style="fill:#f0d133" />
<path
   d="m 218.64461,150.25221 c 1.008,1.845 0.047,3.908 -1.488,5.07 -1.003,0.76 -2.195,1.126 -3.447,1.403 l -14.933,3.3 c -1.53,0.338 -3.14,0.483 -4.706,-0.232 -2.541,-1.162 -3.155,-3.875 -1.338,-6.004 1.085,-1.272 2.577,-1.877 4.153,-2.179 l 15.114,-3.345 c 2.299,-0.507 5.362,-0.365 6.645,1.987 z"
   id="path37"
   inkscape:connector-curvature="0" />
<path
   d="m 212.03961,148.77021 -15.077,3.321 c -1.427,0.314 -2.821,0.794 -3.861,2.013 -1.604,1.88 -1.072,4.22 1.171,5.246 1.41,0.645 2.972,0.552 4.395,0.237 l 14.958,-3.312 c 1.103,-0.232 2.196,-0.588 3.111,-1.245 1.384,-0.993 2.379,-2.794 1.519,-4.474 -1.155,-2.252 -4.11,-2.25 -6.216,-1.786 z"
   id="path39"
   inkscape:connector-curvature="0"
   style="fill:#ee070c" />
<path
   d="m 135.81961,416.27721 c 0.128,-0.125 0.25,-0.239 0.378,-0.359 3.352,3.198 6.767,6.417 10.229,9.707 3.538,3.35 7.135,6.765 10.8,10.234 -0.174,0.207 -0.345,0.418 -0.52,0.625 -5.745,-4.894 -10.919,-8.288 -14.989,-10.103 -4.07,-1.8 -7.118,-2.083 -8.554,-0.664 -2.237,2.176 0.397,7.559 4.767,12.007 1.47,1.501 2.757,2.594 4.154,3.6 1.816,1.196 3.81,2.143 6.02,2.888 1.705,0.658 4.672,1.125 9.103,1.816 3.181,0.489 6.104,1.158 8.733,1.957 2.632,0.811 5.022,1.806 7.137,2.969 4.187,2.486 8.847,5.977 13.889,10.816 6.392,6.118 11.822,12.953 15.361,19.195 3.681,6.477 5.364,12.333 3.915,15.966 -0.94,2.365 -2.493,3.475 -6.977,3.36 -1.248,0.229 -1.938,0.522 -2.167,1.049 -0.462,1.05 0.62,3.97 4,8.511 -0.152,0.38 -0.302,0.75 -0.451,1.13 -5.653,-5.873 -11.189,-11.647 -16.562,-17.238 -5.24,-5.465 -10.362,-10.811 -15.356,-15.987 0.177,-0.315 0.362,-0.604 0.55,-0.924 8.967,8.07 16.56,13.415 22.213,16.075 5.668,2.664 9.249,2.549 10.367,-0.087 1.631,-3.867 -3.307,-12.225 -9.511,-18.283 -3.926,-3.833 -7.534,-6.112 -11.514,-7.678 -2.2,-0.903 -4.729,-1.256 -8.279,-1.751 -5.118,-0.711 -9.027,-1.609 -12.48,-2.903 -3.454,-1.311 -6.414,-2.98 -9.666,-5.176 -2.975,-2.144 -6.439,-5.058 -9.557,-8.31 -5.324,-5.536 -9.293,-11.289 -11.341,-16.074 -1.982,-4.644 -2.193,-8.407 -0.135,-10.332 0.704,-0.663 1.683,-1.044 2.824,-1.066 1.893,-0.212 6.27,0.887 6.833,0.327 0.562,-0.545 0.293,-1.361 -3.214,-5.297 z"
   id="path41"
   inkscape:connector-curvature="0"
   style="fill:#080a8c" />
<path
   d="m 241.99961,51.27721 c 3.796,0 6.893,-3.096 6.893,-6.893 0,-3.797 -3.096,-6.893 -6.893,-6.893 -3.797,0 -6.893,3.096 -6.893,6.893 0,3.797 3.097,6.893 6.893,6.893 z"
   id="path43"
   inkscape:connector-curvature="0"
   style="fill:#f0d133" />
<path
   d="m 145.03161,125.33621 c 1.157,-0.707 2.522,-1.101 3.858,-1.131 1.756,-0.04 3.55,0.532 4.937,1.815 0.276,0.256 0.506,0.496 0.683,0.717 0.088,0.11 0.169,0.225 0.244,0.341 0.292,0.4 0.521,0.78 0.7,1.142 2.997,-0.445 5.815,-1.39 8.421,-2.762 2.719,-1.432 5.207,-3.321 7.42,-5.588 -1.569,-1.289 -2.761,-3.064 -3.317,-5.173 -0.586,-2.228 -0.372,-4.483 0.466,-6.456 0.813,-1.916 2.227,-3.567 4.076,-4.672 0.168,-2.546 1.235,-4.662003 2.806,-6.234003 1.294,-1.295 2.915,-2.2 4.637,-2.653 0.079,-0.021 0.157,-0.04 0.236,-0.059 -1.025,-1.632997 -1.619,-3.565997 -1.619,-5.635997 0,-4.641 2.98,-8.586 7.132,-10.027 -0.895,-1.668 -1.402,-3.576 -1.402,-5.601 0,-5.261 3.424,-9.722 8.165,-11.278 -0.428,-0.962 -0.731,-1.992 -0.891,-3.069 -2.175,2.728 -5.525,4.478 -9.284,4.478 -3.448,0 -6.552,-1.472 -8.721,-3.82 0.429,1.228 0.664,2.547 0.664,3.92 0,6.554 -5.315,11.869 -11.869,11.869 -1.03,0 -2.03,-0.132 -2.983,-0.378 -0.381,4.929 -3.774,9.013 -8.34,10.418 0.335,1.098 0.517,2.264 0.517,3.472 0,4.025 -2.006,7.581997 -5.072,9.727997 0.771,1.575003 1.207,3.345003 1.207,5.217003 0,3.497 -1.515,6.641 -3.922,8.813 1.568,2.012 2.505,4.543 2.505,7.291 0.002,1.912 -0.451,3.717 -1.254,5.316 z"
   id="path45"
   inkscape:connector-curvature="0"
   style="fill:#ee070c" />
<path
   d="m 228.13661,96.255207 c -2.97,-1.638 -4.983,-4.798997 -4.983,-8.429997 0,-3.894 2.315,-7.247 5.643,-8.76 -3.328,-1.514 -5.643,-4.868 -5.643,-8.761 0,-5.206 4.138,-9.447 9.304,-9.614 0.189,-1.491 0.719,-2.875 1.509,-4.073 -1.2,-0.79 -2.278,-1.753 -3.197,-2.853 -2.175,2.74 -5.535,4.498 -9.304,4.498 -2.313,0 -4.473,-0.664 -6.298,-1.809 0.018,0.267 0.028,0.537 0.028,0.809 0,5.261 -3.425,9.723 -8.166,11.279 0.655,1.473 1.02,3.103 1.02,4.818 0,5.587 -3.863,10.273 -9.063,11.535 0.527,1.259 0.819,2.642 0.819,4.093 0,4.609997 -2.942,8.533997 -7.05,9.998997 1.427,0.317 2.761,0.941 3.905,1.819003 1.703,1.306 3.001,3.164 3.588,5.392 0.636,2.417 0.33,4.862 -0.692,6.943 5.728,2.192 11.979,3.03 17.936,2.264 4.435,-0.571 8.704,-2.047 12.452,-4.538 -2.529,-1.82 -4.178,-4.789 -4.178,-8.143 0,-2.464 0.893,-4.722003 2.37,-6.468003 z"
   id="path47"
   inkscape:connector-curvature="0"
   style="fill:#ee070c" />
<path
   d="m 251.54361,60.69021 c 5.165,0.167 9.301,4.408 9.301,9.613 0,3.894 -2.315,7.248 -5.643,8.761 3.328,1.514 5.643,4.867 5.643,8.761 0,3.63 -2.012,6.791997 -4.982,8.429997 1.477,1.746 2.368,4.003003 2.368,6.468003 0,3.354 -1.648,6.324 -4.178,8.143 3.748,2.491 8.017,3.967 12.451,4.538 5.958,0.767 12.208,-0.072 17.936,-2.264 -1.022,-2.081 -1.329,-4.527 -0.692,-6.943 0.586,-2.228 1.885,-4.086 3.588,-5.392 1.144,-0.878003 2.478,-1.502003 3.905,-1.819003 -4.108,-1.464 -7.05,-5.389 -7.05,-9.998997 0,-1.451 0.292,-2.834 0.819,-4.093 -5.2,-1.262 -9.063,-5.948 -9.063,-11.535 0,-1.715 0.365,-3.345 1.02,-4.818 -4.741,-1.556 -8.167,-6.019 -8.167,-11.279 0,-0.272 0.011,-0.542 0.029,-0.809 -1.826,1.145 -3.985,1.809 -6.298,1.809 -3.769,0 -7.126,-1.757 -9.301,-4.497 -0.919,1.099 -1.996,2.062 -3.196,2.852 0.791,1.198 1.322,2.582 1.51,4.073 z"
   id="path49"
   inkscape:connector-curvature="0"
   style="fill:#ee070c" />
<path
   d="m 338.96561,125.33621 c -1.157,-0.707 -2.522,-1.101 -3.858,-1.131 -1.756,-0.04 -3.55,0.532 -4.937,1.815 -0.276,0.256 -0.506,0.496 -0.683,0.717 -0.088,0.11 -0.169,0.225 -0.244,0.341 -0.292,0.4 -0.521,0.78 -0.7,1.142 -2.997,-0.445 -5.815,-1.39 -8.421,-2.762 -2.72,-1.432 -5.207,-3.321 -7.42,-5.588 1.569,-1.289 2.761,-3.064 3.317,-5.173 0.585,-2.228 0.372,-4.483 -0.466,-6.456 -0.813,-1.916 -2.227,-3.567 -4.076,-4.672 -0.168,-2.546 -1.235,-4.662003 -2.806,-6.234003 -1.293,-1.295 -2.915,-2.2 -4.637,-2.653 -0.079,-0.021 -0.157,-0.04 -0.236,-0.059 1.026,-1.632997 1.619,-3.565997 1.619,-5.635997 0,-4.641 -2.98,-8.586 -7.132,-10.027 0.895,-1.668 1.402,-3.576 1.402,-5.601 0,-5.261 -3.424,-9.722 -8.165,-11.278 0.428,-0.962 0.731,-1.992 0.891,-3.069 2.175,2.728 5.525,4.478 9.284,4.478 3.447,0 6.552,-1.472 8.721,-3.82 -0.429,1.228 -0.664,2.547 -0.664,3.92 0,6.554 5.315,11.869 11.869,11.869 1.03,0 2.03,-0.132 2.983,-0.378 0.381,4.929 3.774,9.013 8.339,10.418 -0.335,1.098 -0.517,2.264 -0.517,3.472 0,4.025 2.006,7.581997 5.072,9.727997 -0.771,1.575003 -1.207,3.345003 -1.207,5.217003 0,3.497 1.515,6.641 3.922,8.813 -1.569,2.012 -2.505,4.543 -2.505,7.291 -10e-4,1.912 0.452,3.717 1.255,5.316 z"
   id="path51"
   inkscape:connector-curvature="0"
   style="fill:#ee070c" />
<path
   d="m 241.99961,65.16621 c 1.796,0 3.261,-1.465 3.261,-3.261 0,-1.796 -1.464,-3.261 -3.261,-3.261 -1.796,0 -3.26,1.465 -3.26,3.261 0,1.796 1.464,3.261 3.26,3.261 z"
   id="path53"
   inkscape:connector-curvature="0"
   style="fill:#f0d133" />
<path
   d="m 241.99961,80.30321 c 1.796,0 3.261,-1.465 3.261,-3.261 0,-1.796 -1.464,-3.261 -3.261,-3.261 -1.796,0 -3.26,1.465 -3.26,3.261 0,1.796 1.464,3.261 3.26,3.261 z"
   id="path55"
   inkscape:connector-curvature="0"
   style="fill:#f0d133" />
<path
   d="m 232.77261,83.30921 c 2.493,0 4.515,2.022 4.515,4.515 0,0.047 -0.001,0.093 -0.003,0.14 -1.832,0.978 -3.324,2.508 -4.254,4.367 -0.086,0.005 -0.171,0.008 -0.258,0.008 -2.494,0 -4.515,-2.022 -4.515,-4.515 0,-2.493 2.022,-4.515 4.515,-4.515 z"
   id="path57"
   inkscape:connector-curvature="0"
   style="fill:#f0d133" />
<path
   d="m 232.77261,65.78821 c 0.146,0 0.29,0.007 0.433,0.021 0.642,1.444 1.63,2.702 2.858,3.666 -1.683,1.322 -2.914,3.192 -3.424,5.342 -2.432,-0.071 -4.382,-2.064 -4.382,-4.513 0,-2.494 2.022,-4.516 4.515,-4.516 z"
   id="path59"
   inkscape:connector-curvature="0"
   style="fill:#f0d133" />
<path
   d="m 221.46661,53.28521 c 3.796,0 6.893,-3.096 6.893,-6.893 0,-3.797 -3.096,-6.893 -6.893,-6.893 -3.797,0 -6.893,3.096 -6.893,6.893 0,3.797 3.096,6.893 6.893,6.893 z"
   id="path61"
   inkscape:connector-curvature="0"
   style="fill:#f0d133" />
<path
   d="m 134.41961,126.91321 c 3.796,0 6.893,-3.096 6.893,-6.893 0,-3.796 -3.096,-6.893 -6.893,-6.893 -3.797,0 -6.893,3.097 -6.893,6.893 0,3.797 3.096,6.893 6.893,6.893 z"
   id="path63"
   inkscape:connector-curvature="0"
   style="fill:#f0d133" />
<path
   d="m 135.83661,110.80821 c 3.796,0 6.892,-3.096 6.892,-6.892 0,-3.796 -3.096,-6.893003 -6.892,-6.893003 -3.796,0 -6.893,3.097003 -6.893,6.893003 0,3.796 3.096,6.892 6.893,6.892 z"
   id="path65"
   inkscape:connector-curvature="0"
   style="fill:#f0d133" />
<path
   d="m 139.70061,95.864207 c 3.796,0 6.893,-3.095997 6.893,-6.892997 0,-3.797 -3.096,-6.893 -6.893,-6.893 -3.797,0 -6.893,3.096 -6.893,6.893 10e-4,3.797 3.097,6.892997 6.893,6.892997 z"
   id="path67"
   inkscape:connector-curvature="0"
   style="fill:#f0d133" />
<path
   d="m 147.56061,81.04821 c 3.796,0 6.893,-3.096 6.893,-6.893 0,-3.797 -3.096,-6.893 -6.893,-6.893 -3.797,0 -6.893,3.096 -6.893,6.893 0,3.797 3.096,6.893 6.893,6.893 z"
   id="path69"
   inkscape:connector-curvature="0"
   style="fill:#f0d133" />
<path
   d="m 162.37661,70.48321 c 3.796,0 6.893,-3.096 6.893,-6.893 0,-3.797 -3.096,-6.893 -6.893,-6.893 -3.797,0 -6.893,3.096 -6.893,6.893 0,3.797 3.096,6.893 6.893,6.893 z"
   id="path71"
   inkscape:connector-curvature="0"
   style="fill:#f0d133" />
<path
   d="m 182.30261,58.51321 c 3.796,0 6.893,-3.096 6.893,-6.893 0,-3.797 -3.096,-6.893 -6.893,-6.893 -3.797,0 -6.893,3.096 -6.893,6.893 0,3.797 3.096,6.893 6.893,6.893 z"
   id="path73"
   inkscape:connector-curvature="0"
   style="fill:#f0d133" />
<path
   d="m 203.32661,64.15521 c 3.797,0 6.893,-3.096 6.893,-6.893 0,-3.797 -3.096,-6.893 -6.893,-6.893 -3.796,0 -6.893,3.097 -6.893,6.893 0,3.796 3.097,6.893 6.893,6.893 z"
   id="path75"
   inkscape:connector-curvature="0"
   style="fill:#f0d133" />
<path
   d="m 196.18061,80.25121 c 3.796,0 6.893,-3.096 6.893,-6.892 0,-3.797 -3.096,-6.893 -6.893,-6.893 -3.797,0 -6.893,3.096 -6.893,6.893 0.001,3.797 3.097,6.892 6.893,6.892 z"
   id="path77"
   inkscape:connector-curvature="0"
   style="fill:#f0d133" />
<path
   d="m 189.19461,94.623207 c 3.104,0 5.636,-2.530997 5.636,-5.635997 0,-3.104 -2.532,-5.636 -5.636,-5.636 -3.104,0 -5.636,2.532 -5.636,5.636 0,3.105 2.532,5.635997 5.636,5.635997 z"
   id="path79"
   inkscape:connector-curvature="0"
   style="fill:#f0d133" />
<path
   d="m 349.57861,126.91321 c 3.796,0 6.893,-3.096 6.893,-6.893 0,-3.796 -3.097,-6.893 -6.893,-6.893 -3.796,0 -6.893,3.097 -6.893,6.893 10e-4,3.797 3.097,6.893 6.893,6.893 z"
   id="path81"
   inkscape:connector-curvature="0"
   style="fill:#f0d133" />
<path
   d="m 348.16161,110.80821 c 3.796,0 6.893,-3.096 6.893,-6.892 0,-3.796 -3.096,-6.893003 -6.893,-6.893003 -3.797,0 -6.893,3.097003 -6.893,6.893003 0,3.796 3.097,6.892 6.893,6.892 z"
   id="path83"
   inkscape:connector-curvature="0"
   style="fill:#f0d133" />
<path
   d="m 344.29661,95.864207 c 3.796,0 6.893,-3.095997 6.893,-6.892997 0,-3.797 -3.096,-6.893 -6.893,-6.893 -3.797,0 -6.893,3.096 -6.893,6.893 10e-4,3.797 3.097,6.892997 6.893,6.892997 z"
   id="path85"
   inkscape:connector-curvature="0"
   style="fill:#f0d133" />
<path
   d="m 336.43761,81.04821 c 3.797,0 6.893,-3.096 6.893,-6.893 0,-3.797 -3.096,-6.893 -6.893,-6.893 -3.796,0 -6.892,3.096 -6.892,6.893 0,3.797 3.096,6.893 6.892,6.893 z"
   id="path87"
   inkscape:connector-curvature="0"
   style="fill:#f0d133" />
<path
   d="m 321.62161,70.48321 c 3.796,0 6.893,-3.096 6.893,-6.893 0,-3.797 -3.096,-6.893 -6.893,-6.893 -3.797,0 -6.893,3.096 -6.893,6.893 0,3.797 3.097,6.893 6.893,6.893 z"
   id="path89"
   inkscape:connector-curvature="0"
   style="fill:#f0d133" />
<path
   d="m 301.69661,58.51321 c 3.796,0 6.893,-3.096 6.893,-6.893 0,-3.797 -3.097,-6.893 -6.893,-6.893 -3.796,0 -6.893,3.096 -6.893,6.893 0,3.797 3.096,6.893 6.893,6.893 z"
   id="path91"
   inkscape:connector-curvature="0"
   style="fill:#f0d133" />
<path
   d="m 262.53161,53.28521 c 3.796,0 6.893,-3.096 6.893,-6.893 0,-3.797 -3.096,-6.893 -6.893,-6.893 -3.797,0 -6.893,3.096 -6.893,6.893 0,3.797 3.097,6.893 6.893,6.893 z"
   id="path93"
   inkscape:connector-curvature="0"
   style="fill:#f0d133" />
<path
   d="m 280.67161,64.15521 c 3.796,0 6.893,-3.096 6.893,-6.893 0,-3.797 -3.096,-6.893 -6.893,-6.893 -3.797,0 -6.893,3.097 -6.893,6.893 0,3.796 3.096,6.893 6.893,6.893 z"
   id="path95"
   inkscape:connector-curvature="0"
   style="fill:#f0d133" />
<path
   d="m 287.81761,80.25121 c 3.796,0 6.893,-3.096 6.893,-6.892 0,-3.797 -3.096,-6.893 -6.893,-6.893 -3.797,0 -6.893,3.096 -6.893,6.893 0,3.797 3.096,6.892 6.893,6.892 z"
   id="path97"
   inkscape:connector-curvature="0"
   style="fill:#f0d133" />
<path
   d="m 294.80361,94.623207 c 3.104,0 5.636,-2.530997 5.636,-5.635997 0,-3.104 -2.532,-5.636 -5.636,-5.636 -3.104,0 -5.636,2.532 -5.636,5.636 0,3.105 2.532,5.635997 5.636,5.635997 z"
   id="path99"
   inkscape:connector-curvature="0"
   style="fill:#f0d133" />
<path
   d="m 251.22461,83.30921 c -2.493,0 -4.515,2.022 -4.515,4.515 0,0.047 0.001,0.093 0.002,0.14 1.832,0.978 3.324,2.508 4.255,4.367 0.085,0.005 0.171,0.008 0.257,0.008 2.493,0 4.515,-2.022 4.515,-4.515 0,-2.493 -2.02,-4.515 -4.514,-4.515 z"
   id="path101"
   inkscape:connector-curvature="0"
   style="fill:#f0d133" />
<path
   d="m 251.22461,65.78821 c -0.146,0 -0.29,0.007 -0.433,0.021 -0.642,1.444 -1.63,2.702 -2.858,3.666 1.682,1.322 2.914,3.192 3.424,5.342 2.432,-0.071 4.382,-2.064 4.382,-4.513 0.001,-2.494 -2.021,-4.516 -4.515,-4.516 z"
   id="path103"
   inkscape:connector-curvature="0"
   style="fill:#f0d133" />
<path
   d="m 200.24061,129.96121 c -13.108,2.694 -25.763,6.69 -37.791,11.943 -7.053,3.078 -2.842,13.584 2.643,11.101 11.681,-5.288 24.051,-9.276 36.916,-11.948 25.965,-5.392 54.015,-5.392 79.979,0 12.865,2.671 25.235,6.66 36.916,11.948 5.485,2.483 9.697,-8.023 2.643,-11.101 -12.027,-5.253 -24.682,-9.249 -37.79,-11.943 -27.165,-5.583 -56.35,-5.583 -83.516,0 z"
   id="path105"
   inkscape:connector-curvature="0"
   style="fill:#f0d133" />
<polygon
   points="317.381,270.301 304.55,275.429 291.72,270.301 304.55,265.173 "
   id="polygon107"
   transform="translate(-62.551389,-119.75979)" />
<polygon
   points="304.55,265.696 293.029,270.301 304.55,274.905 316.071,270.301 "
   id="polygon109"
   style="fill:#080a8c"
   transform="translate(-62.551389,-119.75979)" />
<path
   d="m 265.35261,150.25221 c -1.007,1.845 -0.046,3.908 1.489,5.07 1.003,0.76 2.195,1.126 3.447,1.403 l 14.933,3.3 c 1.53,0.338 3.14,0.483 4.706,-0.232 2.541,-1.162 3.155,-3.875 1.338,-6.004 -1.085,-1.272 -2.577,-1.877 -4.154,-2.179 l -15.114,-3.345 c -2.298,-0.507 -5.361,-0.365 -6.645,1.987 z"
   id="path111"
   inkscape:connector-curvature="0" />
<path
   d="m 271.95861,148.77021 15.076,3.321 c 1.428,0.314 2.821,0.794 3.862,2.013 1.604,1.88 1.072,4.22 -1.171,5.246 -1.409,0.645 -2.972,0.552 -4.395,0.237 l -14.958,-3.312 c -1.102,-0.232 -2.196,-0.588 -3.111,-1.245 -1.384,-0.993 -2.379,-2.794 -1.519,-4.474 1.154,-2.252 4.11,-2.25 6.216,-1.786 z"
   id="path113"
   inkscape:connector-curvature="0"
   style="fill:#ee070c" />
<path
   d="m 167.54061,504.74421 c -3.173,-2.936 -6.462,-6.015 -9.861,-9.174 -3.513,-3.268 -7.159,-6.656 -10.924,-10.168 0.345,-0.092 0.696,-0.174 1.041,-0.271 7.412,6.199 13.114,10.299 17.48,12.801 4.321,2.48 7.518,3.48 9.682,3.263 4.41,-0.436 1.566,-5.412 -2.828,-9.914 -2.694,-2.746 -5.356,-4.922 -8.086,-6.384 -1.87,-0.974 -4.888,-2.376 -8.434,-3.616 -2.077,-0.784 -4.127,-1.556 -6.172,-2.328 -2.972,-1.164 -5.68,-2.327 -8.179,-3.545 -2.496,-1.212 -4.823,-2.502 -7.061,-3.926 -4.193,-2.583 -8.916,-6.39 -14.087,-11.218 -5.938,-5.541 -11.768,-11.914 -15.765,-17.695 -4.298,-6.216 -6.539,-11.794 -4.394,-14.666 1.112,-1.506 3.698,-1.859 6.047,-1.903 2.412,-0.054 4.582,0.261 4.75,0.054 0.802,-0.946 -0.887,-3.241 -4.103,-7.156 0.373,-0.512 0.756,-1.012 1.134,-1.529 5.914,6.27 11.577,12.268 16.98,17.972 5.144,5.455 10.101,10.691 14.826,15.688 -0.432,0.278 -0.856,0.549 -1.291,0.816 -7.126,-6.39 -14.539,-12.099 -20.675,-15.797 -6.213,-3.753 -10.87,-5.286 -12.466,-3.404 -2.083,2.458 2.562,9.625 9.383,16.188 4.231,4.057 7.526,6.704 10.017,8.042 2.483,1.333 6.977,3.175 12.985,5.34 2.622,0.935 5.283,1.882 7.961,2.85 3.252,1.016 6.599,2.555 9.818,4.589 6.226,3.677 11.843,8.32 17.129,13.959 4.617,4.932 8.219,10.06 9.363,13.932 1.071,3.595 0.02,6.09 -4.32,6.433 -1.833,0.136 -4.438,-0.375 -7.456,-1.316 -0.424,-0.125 -0.84,-0.25 -1.253,-0.375 -0.628,-0.179 -1.243,-0.363 -1.493,-0.331 -0.883,0.082 -0.204,0.979 1.371,2.697 -0.371,0.032 -0.749,0.065 -1.119,0.092 z"
   id="path115"
   inkscape:connector-curvature="0"
   style="fill:#080a8c" />
<path
   d="m 191.75261,359.10921 c 4.639,-3.472 9.23,-7.113 13.923,-10.873 14.899,-11.939 31.013,-22.431 48.187,-30.802 1.003,-0.489 2.01,-0.968 3.02,-1.438 -18.147,-17.253 -35.595,-37.028 -44.34,-60.668 -2.534,-6.849 -3.662,-12.633 -2.77,-19.394 -15.909,2.791 -37.427,8.018 -51.723,18.937 -16.07,12.274 -15.874,30.343 -9.122,48.633 8.623,23.356 24.916,39.681 42.825,55.605 z"
   id="path117"
   inkscape:connector-curvature="0"
   style="fill:#e69c0e" />
<path
   d="m 97.73661,297.98721 c -2.218,10.176 -3.398,20.739 -3.398,31.579 0,21.737 4.701,42.377 13.139,60.963 5.638,0.036 11.402,-0.408 17.287,-1.363 11.869,-1.925 22.995,-5.351 33.52,-9.942 10.198,-4.45 19.133,-9.864 27.705,-15.917 -18.001,-16.244 -32.897,-32.222 -42.431,-55.963 -5.304,-13.209 -8.05,-27.286 -4.114,-39.023 -16.248,7.106 -29.736,17.108 -41.708,29.666 z"
   id="path119"
   inkscape:connector-curvature="0"
   style="fill:#e69c0e" />
<path
   d="m 248.71461,182.06421 c -2.227,-0.1 -4.465,-0.159 -6.716,-0.159 -65.913,0 -121.746,43.214 -140.725,102.846 13.018,-11.83 27.938,-21.439 44.69,-27.364 15.365,-18.146 42.725,-24.94 65.364,-28.693 1.677,-5.075 4.734,-11.225 8.675,-16.779 4.974,-7.01 10.396,-13.586 16.605,-19.614 3.735,-3.624 7.747,-7.044 12.107,-10.237 z"
   id="path121"
   inkscape:connector-curvature="0"
   style="fill:#e69c0e" />
<path
   d="m 315.89161,201.70921 c -5.795,-3.357 -11.843,-6.328 -18.103,-8.884 -9.135,3.413 -17.054,8.505 -24.177,14.64 -6.525,5.619 -12.425,12.152 -17.999,19.092 9.799,6.111 19.29,12.698 28.545,19.646 l 4.93,-6.913 c -3.492,-3.171 -6.836,-5.49 -10.365,-7.747 -1.586,-1.253 -2.063,-4.072 -0.81,-5.658 1.252,-1.586 4.072,-1.96 5.657,-0.707 3.16,3.483 6.491,5.852 9.877,8 l 6.542,-9.173 c -2.376,-2.042 -4.958,-3.721 -7.636,-5.218 -1.546,-1.067 -1.934,-3.187 -0.867,-4.733 1.068,-1.546 3.187,-1.935 4.733,-0.867 2.269,2.177 4.732,4.091 7.384,5.751 l 5.101,-7.153 c -1.437,-1.229 -2.972,-2.169 -4.632,-2.767 -1.553,-1.052 -1.959,-3.165 -0.907,-4.718 1.052,-1.553 3.165,-1.959 4.718,-0.907 1.285,1.444 2.741,2.577 4.261,3.568 l 3.748,-5.252 z"
   id="path123"
   inkscape:connector-curvature="0"
   style="fill:#e69c0e" />
<path
   d="m 338.63061,217.92221 c -5.27,-4.564 -10.867,-8.76 -16.75,-12.551 l -4.29,6.015 c 1.49,1.4 3.16,2.559 4.88,3.67 1.361,1.295 1.416,3.45 0.12,4.811 -1.295,1.362 -3.449,1.416 -4.811,0.12 -1.042,-1.52 -2.248,-2.783 -3.587,-3.836 l -5.034,7.058 c 2.004,1.772 4.088,3.472 6.383,4.988 1.414,1.245 1.551,3.4 0.307,4.814 -1.244,1.414 -3.4,1.551 -4.814,0.307 -1.717,-2.158 -3.56,-3.748 -5.443,-5.108 l -6.708,9.404 c 3.02,2.843 6.25,5.353 9.797,7.942 1.514,1.34 1.552,4.587 0.212,6.101 -1.34,1.515 -4.172,1.138 -5.687,-0.202 -2.687,-3.072 -5.406,-5.576 -8.575,-7.879 l -4.901,6.872 c 8.475,6.554 16.817,13.437 25.069,20.544 6.222,-6.818 11.409,-13.752 15.367,-21.696 4.371,-8.77 7.275,-18.82 8.465,-31.374 z"
   id="path125"
   inkscape:connector-curvature="0"
   style="fill:#e69c0e" />
<path
   d="m 362.97361,244.90221 c -5.326,-7.596 -11.351,-14.666 -17.979,-21.12 -1.533,11.142 -4.44,20.402 -8.546,28.64 -5.356,10.748 -12.951,19.634 -21.155,28.264 -11.034,-9.586 -22.23,-18.958 -33.889,-27.781 -11.646,-8.813 -23.686,-16.916 -36.161,-24.498 7.278,-9.353 14.768,-18.471 23.787,-26.237 5.834,-5.024 12.175,-9.409 19.224,-12.861 -9.094,-3 -18.578,-5.138 -28.356,-6.32 -6.939,4.268 -12.991,9.075 -18.407,14.333 -5.881,5.709 -11.038,11.967 -15.782,18.653 -4.93,6.947 -7.727,13.173 -8.7,19.161 -0.955,5.878 -0.149,11.651 2.117,17.779 8.698,23.512 26.616,43.056 44.719,60.018 18.304,-7.595 37.597,-11.993 57.503,-12.305 8.196,-6.931 15.965,-14.705 23.003,-23.818 7.042,-9.12 13.352,-19.588 18.622,-31.908 z"
   id="path127"
   inkscape:connector-curvature="0"
   style="fill:#e69c0e" />
<path
   d="m 389.65961,329.56621 c 0,-28.521 -8.097,-55.152 -22.109,-77.729 -5.125,11.114 -11.087,20.741 -17.658,29.251 -6.553,8.486 -13.713,15.858 -21.254,22.486 16.149,19.979 36.047,36.619 58.093,49.751 l 0.936,0.557 c 1.31,-7.911 1.992,-16.034 1.992,-24.316 z"
   id="path129"
   inkscape:connector-curvature="0"
   style="fill:#e69c0e" />
<path
   d="m 314.33661,173.54221 -9.75,-12.058 14.932,-1.846 6.697,11.271 -11.879,2.633 0,0 z m -144.673,0 9.75,-12.058 -14.932,-1.846 -6.697,11.271 11.879,2.633 z"
   id="path131"
   inkscape:connector-curvature="0"
   style="fill:#080a8c" />
<path
   d="m 236.36461,95.133207 c -0.443,1.725 -0.82,1.751 -2.504,2.184 -2.509,0.646 -4.363,2.925003 -4.363,5.634003 0,4.047 5.314,7.046 9.038,5.876 -11.58,12.861 -31.634,13.234 -46.273,5.485 2.985,-0.898 4.742,-4.011 3.942,-7.049 -0.69,-2.621 -3.064,-4.352 -5.654,-4.337 -1.74,0.011 -2.111,0.082 -2.979,-1.473 -2.887,-5.169003 -10.93,-3.050003 -10.896,2.872 0.012,1.779 -0.346,1.9 -1.865,2.749 -2.263,1.263 -3.474,3.939 -2.785,6.56 0.743,2.818 3.428,4.607 6.239,4.304 -0.924,1.356 -1.927,2.619 -2.981,3.787 -5.202,6.457 -12.096,10.601 -20.514,10.798 -4.222,0.441 -1.783,-0.987 -3.535,-3.179 -1.102,-1.378 -3.483,-1.194 -4.634,0.05 -2.081,2.25 -3.77,2.76 -7.59,1.832 -3.699,-0.895 -5.071,4.774 -1.372,5.669 15.487,3.763 31.512,2.253 41.966,-11.262 2.271,-2.514 4.337,-5.401 5.998,-8.634 16.573,10.307 41.408,10.889 56.397,-3.279 l 0,0 c 14.989,14.167 39.825,13.585 56.397,3.279 1.661,3.233 3.728,6.121 5.998,8.634 10.454,13.516 26.479,15.025 41.966,11.262 3.7,-0.895 2.327,-6.564 -1.372,-5.669 -3.82,0.928 -5.509,0.418 -7.589,-1.832 -1.152,-1.245 -3.533,-1.429 -4.635,-0.05 -1.752,2.191 0.687,3.62 -3.535,3.179 -8.418,-0.198 -15.313,-4.342 -20.514,-10.798 -1.055,-1.168 -2.058,-2.431 -2.981,-3.787 2.811,0.303 5.496,-1.486 6.239,-4.304 0.689,-2.621 -0.522,-5.296 -2.785,-6.56 -1.519,-0.848 -1.876,-0.97 -1.864,-2.749 0.033,-5.921003 -8.01,-8.041003 -10.896,-2.872 -0.868,1.555 -1.238,1.484 -2.979,1.473 -2.589,-0.015 -4.964,1.716 -5.654,4.337 -0.8,3.038 0.958,6.15 3.942,7.049 -14.64,7.75 -34.694,7.376 -46.273,-5.485 3.724,1.17 9.038,-1.829 9.038,-5.876 0,-2.709 -1.854,-4.989003 -4.363,-5.634003 -1.685,-0.433 -2.062,-0.459 -2.504,-2.184 -1.472,-5.713997 -9.802,-5.713997 -11.271,0 z"
   id="path133"
   inkscape:connector-curvature="0"
   style="fill:#f0d133" />
<path
   d="m 241.83361,105.11621 c 1.72,0 3.124,-1.404 3.124,-3.125 0,-1.72 -1.404,-3.124003 -3.124,-3.124003 -1.721,0 -3.125,1.404003 -3.125,3.124003 0.001,1.722 1.405,3.125 3.125,3.125 z"
   id="path135"
   inkscape:connector-curvature="0" />
<circle
   cx="246.423"
   cy="229.28101"
   r="3.1240001"
   id="circle137"
   sodipodi:cx="246.423"
   sodipodi:cy="229.28101"
   sodipodi:rx="3.1240001"
   sodipodi:ry="3.1240001"
   transform="translate(-62.551389,-119.75979)" />
<circle
   cx="362.677"
   cy="229.28101"
   r="3.1240001"
   id="circle139"
   sodipodi:cx="362.677"
   sodipodi:cy="229.28101"
   sodipodi:rx="3.1240001"
   sodipodi:ry="3.1240001"
   transform="translate(-62.551389,-119.75979)" />
</svg>