<?xml version="1.0" encoding="UTF-8" standalone="no"?>
<!-- Generator: Adobe Illustrator 15.0.2, SVG Export Plug-In . SVG Version: 6.00 Build 0)  -->

<svg
   xmlns:dc="http://purl.org/dc/elements/1.1/"
   xmlns:cc="http://creativecommons.org/ns#"
   xmlns:rdf="http://www.w3.org/1999/02/22-rdf-syntax-ns#"
   xmlns:svg="http://www.w3.org/2000/svg"
   xmlns="http://www.w3.org/2000/svg"
   xmlns:sodipodi="http://sodipodi.sourceforge.net/DTD/sodipodi-0.dtd"
   xmlns:inkscape="http://www.inkscape.org/namespaces/inkscape"
   version="1.1"
   id="Capa_3"
   x="0px"
   y="0px"
   width="125.65314"
   height="213.78981"
   viewBox="0 0 125.65313 818.12501"
   enable-background="new 0 0 595.28 841.89"
   xml:space="preserve"
   inkscape:version="0.48.2 r9819"
   sodipodi:docname="real_zaragoza.svg"><metadata
   id="metadata211"><rdf:RDF><cc:Work
       rdf:about=""><dc:format>image/svg+xml</dc:format><dc:type
         rdf:resource="http://purl.org/dc/dcmitype/StillImage" /></cc:Work></rdf:RDF></metadata><defs
   id="defs209" /><sodipodi:namedview
   pagecolor="#ffffff"
   bordercolor="#666666"
   borderopacity="1"
   objecttolerance="10"
   gridtolerance="10"
   guidetolerance="10"
   inkscape:pageopacity="0"
   inkscape:pageshadow="2"
   inkscape:window-width="1280"
   inkscape:window-height="962"
   id="namedview207"
   showgrid="false"
   fit-margin-top="0"
   fit-margin-left="0"
   fit-margin-right="0"
   fit-margin-bottom="0"
   inkscape:zoom="3.4753761"
   inkscape:cx="62.826569"
   inkscape:cy="106.89491"
   inkscape:window-x="-8"
   inkscape:window-y="-8"
   inkscape:window-maximized="1"
   inkscape:current-layer="Capa_3" />
<g
   id="g3"
   transform="translate(-235.45143,-10.956)">
	<g
   id="g5">
		<g
   id="g7">
			<path
   d="M 57.855,218.515 H 538.701 C 531.772,619.79 298.27,829.081 298.27,829.081 c 0,0 -233.501,-209.291 -240.415,-610.566"
   id="path9"
   inkscape:connector-curvature="0"
   style="fill:#012971" />
			<path
   d="m 76.881,235.804 h 442.794 c -10.384,368.419 -221.404,563.87 -221.404,563.87 0,0 -211.011,-195.451 -221.39,-563.87"
   id="path11"
   inkscape:connector-curvature="0"
   style="fill:#ffd700" />
			<path
   d="m 95.909,253.102 h 404.74 c -17.298,339.012 -202.378,517.172 -202.378,517.172 0,0 -185.073,-178.161 -202.362,-517.172"
   id="path13"
   inkscape:connector-curvature="0"
   style="fill:#ff0010" />
		</g>
		<g
   id="g15">
			<path
   d="m 296.431,331.484 c -1.489,1.46 -4.46,4.643 -4.46,4.643 0,0 0.238,1.036 -3.68,0.278 -3.91,-0.776 -8.099,-0.776 -6.873,-3.232 0,0 1.959,-0.952 3.688,-2.182 1.728,-1.234 6.14,-4.691 6.14,-4.691 0,0 2.915,-2.185 4.42,-0.231 1.498,1.958 2.263,3.95 0.765,5.415 m -12.784,39.32 c -9.796,0.302 -15.394,-3.19 -14.016,-4.381 0,0 1.767,-3.229 3.224,-2.732 1.348,1.116 8.102,0.924 12.02,0.693 4.643,0.499 11.022,0 11.022,0 0,0 -1.959,6.06 -12.25,6.42 m 169.733,-0.467 c -2.381,-13.595 -10.28,-14.435 -15.744,-14.67 9.055,-14.667 2.692,-22.567 2.302,-21.961 -2.604,5.994 -5.146,8.757 -8.291,9.605 9.446,-19.354 -2.302,-22.886 -2.269,-21.541 -0.344,12.139 -8.396,13.13 -12.465,11.859 -26.274,-8.481 -39.813,8.833 -39.813,8.833 0,0 -12.869,11.484 -13.021,38.778 -0.184,27.834 8.595,50.71 13.021,64.812 4.411,14.084 8.14,28.516 8.475,37.882 0.271,7.37 -3.114,11.292 -5.91,11.487 -2.794,0.18 -5.032,-2.149 -6.251,-4.966 -1.234,-2.795 -1.776,-4.598 -3.695,-16.047 -1.928,-11.438 -10.783,-16.542 -17.467,-18.311 -6.681,-1.758 -14.629,-4.599 -17.274,-5.486 -2.65,-0.885 -1.576,-3.377 0.351,-7.024 1.227,-2.266 3.872,-1.769 6.181,-1.418 2.302,0.342 5.63,2.302 8.282,2.484 2.645,0.201 2.126,-2.835 2.126,-5.631 0,-2.799 0.519,-4.61 2.144,-4.61 1.616,-0.195 2.109,4.61 2.109,4.61 0,0 2.423,-4.236 2.612,-7.22 0.192,-2.994 -2.308,-3.726 -3.885,-5.155 -1.563,-1.418 -0.687,-3.481 -0.687,-3.481 0,0 3.195,2.988 7.948,1.231 4.764,-1.776 5.768,-5.651 5.066,-6.345 -10.21,-3.487 -8.067,-10.209 -8.251,-22.378 -0.192,-12.166 2.104,-20.616 2.803,-33.478 0.685,-12.859 -6.188,-24.499 -7.223,-26.071 -1.035,-1.576 -0.692,-3.183 0.343,-2.644 2.802,1.76 8.648,4.029 8.648,4.029 0,0 3.146,0 5.98,-2.995 2.843,-2.991 7.225,-10.054 8.45,-12.861 1.235,-2.803 1.959,-1.915 3.535,-0.693 1.571,1.234 4.223,1.42 5.113,0 0.87,-1.417 3.792,-2.732 1.219,-9.139 -1.354,-3.647 -3.304,-7.758 -6.88,-7.445 -2.413,0.193 -5.447,0.536 -8.092,1.417 -2.651,0.888 -8.107,4.419 -9.876,5.454 -1.753,1.041 -1.688,1.231 -4.109,-0.382 -1.48,-1.035 -0.646,-3.106 0.59,-3.994 1.218,-0.884 6.107,-2.955 8.354,-5.26 2.277,-2.302 0.629,-5.492 0.629,-5.492 0,0 -5.112,-4.563 -5.647,-5.104 -0.843,-0.84 1.77,-3.727 2.5,-4.412 0.726,-0.693 2.447,-2.462 2.646,-5.643 0,-3.034 -2.851,-5.104 -4.962,-5.456 -2.102,-0.343 -3.025,0 -4.755,1.728 -1.927,2.124 -3.877,3.035 -4.762,1.805 -0.876,-1.228 -4.421,-3.377 -6.864,-3.532 -2.455,-0.148 -4.962,1.043 -6.692,3.346 -2.101,2.834 -4.069,5.06 -4.069,5.06 0,0 -0.876,2.542 -2.985,0.231 -2.111,-2.302 -0.144,-5.646 -0.144,-5.646 0,0 6.172,-9.861 6.857,-10.936 0.693,-1.075 1.042,-2.803 0.693,-3.879 -1.61,-4.993 -6.173,-8.255 -7.551,-9.863 -1.394,-1.612 -3.01,-0.848 -3.386,-0.538 -2.148,1.688 -3.765,2.062 -4.149,3.792 -1.607,4.427 0.462,7.84 -0.581,7.84 -5.997,0.04 -14.733,6.949 -15.005,12.555 -0.271,5.95 2.685,8.94 3.188,10.02 0.492,1.075 0.189,2.421 0.189,2.421 0,0 -12.48,-0.849 -16.971,-0.04 -4.492,0.804 -6.944,4.763 -6.944,4.763 0,0 -4.341,1.301 -8.642,4.677 -5.837,4.724 -9.175,4.839 -13.706,7.416 -5.456,3.138 -6.611,5.714 -6.754,8.708 -0.271,5.221 3.799,5.718 7.256,6.647 2.372,0.653 2.19,4.069 2.19,5.709 0,1.652 -0.399,1.769 2.676,4.926 -13.97,-1.003 -15.961,-9.835 -17.498,-12.441 -0.965,-1.736 -2.071,-3.767 -3.616,-3.767 -1.951,0 -4.069,3.066 -4.069,3.066 0,0 -3.449,3.385 -1.841,14.129 1.657,11.098 11.286,10.529 12.137,10.529 0.836,0 8.213,-0.466 8.825,-0.31 0.614,0.151 1.075,0.227 2.381,1.23 2.423,1.803 1.005,6.287 0.464,6.76 -4.079,3.906 -4.843,6.058 -5.219,7.746 -0.469,2.031 0.758,4.878 0.758,4.878 0,0 -3.448,0.611 -5.448,-2.497 -1.688,-2.607 0.041,-7.103 0.041,-7.103 0,0 0.461,-1.23 -0.733,-1.345 -5.105,-0.61 -8.824,3.687 -10.823,5.228 -0.08,-5.985 2.652,-7.442 3.838,-8.601 0.773,-0.77 0.43,-1.267 -0.653,-1.462 -9.597,-0.569 -13.395,6.53 -14.701,9.642 -14.328,-6.484 -20.46,3.221 -22.611,5.562 -2.158,2.338 0,2.04 1.417,2.04 5.6,-0.156 6.532,3.798 6.532,6.865 0,3.997 -4.691,5.456 -4.691,5.456 0,0 -6.867,2.576 -8.667,-8.678 -1.433,-8.294 10.665,-24.987 10.665,-24.987 0,0 4.722,-7.837 4.523,-14.359 -0.262,-9.952 -4.373,-13.361 -7.599,-14.511 1.69,-6.997 0.583,-15.479 -1.488,-23.993 -2.087,-8.529 -14.552,-10.954 -14.552,-10.954 0,0 -2.078,-14.352 -11.714,-14.933 -8.109,-0.423 -10.402,3.002 -12.281,4.921 2.835,3.03 3.79,6.523 3.989,11.131 -12.098,-5.874 -15.163,-0.156 -16.661,2.305 -1.505,2.456 -0.542,2.612 -0.542,2.612 0,0 4.15,0.227 5.838,1.915 1.688,1.688 1.338,4.528 0.574,5.456 -5.106,5.106 -4.341,7.937 -4.525,12.285 -5.113,2.836 -7.374,7.598 -8.107,10.593 -0.725,2.994 0.16,4.348 0.16,4.348 0,0 3.409,0.22 8.131,0.415 4.724,0.195 5.305,2.227 4.922,5.221 -0.382,2.99 -3.036,6.637 -3.036,6.637 0,0 -4.571,5.536 -6.609,8.686 -2.182,3.417 -2.675,6.833 -2.293,11.321 0.302,4.261 5.144,10.063 6.251,11.357 -8.721,17.553 1.538,29.07 5.489,32.682 0.199,-3.003 0.382,-4.918 2.85,-7.951 0.383,6.418 3.759,7.37 6.212,6.987 2.835,-7.176 5.073,-10.023 8.14,-11.329 -0.725,6.069 0.19,13.4 1.697,17.21 -4.149,1.522 -7.957,0.686 -10.409,-0.039 -1.348,-0.084 -1.498,0.765 -1.498,0.765 0,0 -0.765,6.794 5.871,9.819 5.884,2.7 14.439,1.893 21.622,1.893 -4.301,2.723 -8.483,4.367 -9.795,4.679 -1.068,0.19 -1.068,1.003 -0.686,1.959 9.748,9.868 27.556,5.447 27.556,5.447 0,0 1.968,4.535 10.066,3.922 10.521,5.407 15.968,4.535 27.445,4.64 -3.647,3.843 -10.601,4.463 -16.47,4.34 -10.138,-0.231 -19.274,-3.533 -21.042,-4.444 -3.297,6.632 2.08,12.895 5.304,16.124 -7.566,0.187 -15.856,-3.042 -20.037,-6.988 -4.189,-3.958 -12.098,-8.877 -12.098,-8.877 0,0 -3.575,-1.728 -13.786,-0.765 -9.819,-8.676 -17.737,-8.294 -20.189,-8.294 -2.462,0 -2.27,1.116 -1.887,1.68 5.877,11.524 4.539,16.451 4.539,16.451 0,0 -8.88,-2.62 -13.594,-1.354 -4.11,1.036 -8.482,5.3 -8.522,9.254 10.25,1.307 13.013,2.258 15.857,5.104 2.302,2.426 1.919,2.654 2.302,4.95 -0.732,17.781 11.516,19.242 11.516,19.242 0,0 -2.223,4.142 -6.069,6.4 -4.722,2.838 -7.287,2.276 -9.055,2.838 12.471,11.525 30.024,0.439 31.904,-1.107 1.298,0.733 4.181,2.259 10.211,0.733 -2.263,3.572 -5.838,4.181 -5.838,4.181 0,0 2.995,2.62 13.364,0.163 10.361,-2.46 16.278,-6.997 16.278,-6.997 0,0 0,4.381 5.487,4.576 5.497,0.188 12.25,-5.494 12.25,-5.494 0,0 0.502,2.654 -0.511,7.184 7.184,-1.075 9.988,-3.612 9.988,-3.612 L 259.5,480.567 c 0,0 0.031,5.487 -0.581,10.887 5.838,-0.562 10.249,-3.174 14.598,-7.74 3.6,3.75 7.168,4.566 11.7,7.179 -35.504,1.295 -39.583,17.697 -40.388,22.181 -0.804,4.487 0,7.187 0.805,6.566 3.886,-3.915 12.95,-7.331 14.55,-5.104 -1.227,8.832 -4.715,15.128 -12.29,21.694 -7.59,5.797 -11.125,6.407 -13.076,7.494 -1.585,0.796 -2.269,1.146 -1.242,1.947 3.927,3.074 5.925,3.033 12.249,3.65 -4.292,3.454 -9.174,3.072 -11.205,3.493 3.066,4.102 10.209,6.329 15.746,7.371 -2.471,2.464 -5.537,4.113 -6.762,4.488 14.36,5.529 23.335,1.644 29.062,-1.23 -4.069,10.217 -8.402,13.519 -12.901,13.137 -4.493,-0.383 -9.828,-2.691 -12.903,-4.731 -3.067,-2.031 -5.941,-3.066 -7.359,-3.253 -1.426,-0.195 -8.179,1.044 -11.071,-2.461 -5.718,-10.371 -10.663,-11.289 -14.12,-11.476 -3.464,-0.196 -7.406,2.257 -9.022,2.452 -19.656,-2.648 -22.762,8.418 -21.878,10.253 13.507,0 13.284,5.301 13.889,6.75 -8.592,1.234 -10.822,5.113 -12.05,7.383 -1.234,2.258 -1.074,6.523 0.343,5.897 9.597,-3.867 15.203,-1.182 15.203,-0.8 -1.226,8.793 3.258,12.488 3.258,12.488 0,0 1.887,1.457 0.852,3.675 -2.453,7.145 1.617,12.901 2.221,12.101 6.34,-9.416 14.367,-5.727 16.056,-4.77 1.688,0.963 7.367,7.376 7.367,7.376 4.612,3.229 7.829,1.808 8.45,-0.802 0.614,-2.617 -1.226,-8.907 -1.226,-8.907 0,0 0.764,-0.616 5.678,0 4.914,0.612 8.292,7.74 10.75,10.751 2.925,3.521 5.067,0.499 5.067,-0.63 0.039,-10.202 1.265,-7.788 1.265,-7.788 0,0 4.03,3.499 6.715,2.115 5.838,-2.913 10.409,-9.064 10.138,-8.45 0.845,-2.106 3.075,-0.921 3.075,-0.921 0,0 0.613,4.923 2.134,8.913 1.546,3.988 4.619,1.229 4.619,1.229 0,0 6.834,-4.344 7.83,-16.287 1.074,-12.738 -7.216,-15.805 -8.754,-15.805 -1.537,0 -1.568,-0.772 -1.417,-2.007 0.923,-2.223 2.341,-4.443 2.955,-5.217 0.62,-0.768 1.186,-1.648 2.42,-1.034 1.228,0.607 2.35,2.266 2.955,6.251 0.622,3.989 4.764,6.908 5.384,6.609 5.527,-6.291 4.946,-12.253 4.294,-17.357 4.3,4.146 4.714,3.688 5.366,3.075 1.314,-1.342 2.924,-7.224 3.695,-10.749 2.295,4.755 3.681,14.125 3.681,14.125 6.147,-10.911 4.3,-25.951 2.611,-31.02 -1.688,-5.064 -10.138,-10.908 -10.911,-11.517 -0.765,-0.613 -1.99,-2.146 -0.916,-3.532 1.354,-0.765 1.92,-0.765 6.148,0.311 4.261,1.075 6.292,4.909 6.148,9.983 -0.151,5.062 4.444,3.831 5.672,3.831 1.234,0 0.461,-0.147 1.999,0.612 6.139,13.511 -3.688,26.414 -5.671,28.103 -2,1.688 -1.856,2.153 -0.312,2.309 5.073,-0.31 11.046,-0.155 21.646,-7.836 3.68,16.438 -7.837,24.881 -7.374,25.492 17.966,4.607 30.869,-8.908 30.869,-8.752 -2.302,17.51 -10.745,17.043 -14.583,16.435 -3.193,-0.466 -11.372,-2.007 -19.193,-2.154 -7.836,-0.156 -11.994,0.776 -16.295,3.532 -3.64,2.31 -9.356,11.058 -9.356,11.058 0,0 -5.958,-1.457 -10.61,4.143 -3.527,4.418 -3.217,12.438 -2.443,12.137 14.271,-8.14 17.505,-4.764 17.505,-4.764 0,0 -5.375,9.673 -1.688,22.116 3.687,12.438 10.743,9.215 10.743,9.215 0,0 0.311,0.24 0.151,-0.461 -2.405,-11.095 0,-14.436 2.629,-14.436 3.368,2.617 4.596,1.387 6.745,1.387 2.151,0 2.151,0.912 2.771,1.843 6.753,13.822 18.883,10.903 21.336,10.749 2.469,-0.156 3.386,-0.93 2.763,-1.388 -0.604,-0.458 -5.669,-6.45 -6.449,-8.286 -0.765,-1.844 -0.145,-3.376 2.309,-3.989 13.204,-3.848 15.961,-9.223 17.969,-12.91 1.232,7.211 -1.229,11.68 -0.766,11.827 14.894,-5.384 15.036,-23.04 15.036,-23.04 0,0 -0.143,0 1.862,-0.766 1.977,-0.766 7.512,-0.925 9.973,-0.925 2.453,0 2.757,-1.535 2.757,-1.535 0,0 -5.823,-5.679 -6.906,-7.204 -1.067,-1.541 -1.538,-2.008 -0.773,-6.614 0.773,-4.6 -1.075,-5.375 -1.075,-5.375 0,0 -5.662,-0.153 -7.67,0 -1.042,0.123 -2.3,0.62 -2.3,-3.987 0,-4.616 8.282,-6.305 8.282,-6.305 0,0 4.58,-1.065 12.13,-3.671 8.075,-2.771 10.297,-11.683 9.531,-12.141 -1.847,-0.303 -3.837,-0.303 -6.299,-0.303 -1.767,-0.041 -3.535,-0.474 -4.149,-1.386 16.892,-4.305 12.17,-17.74 12.17,-17.74 0,0 -4.794,4.722 -9.326,4.571 -3.266,-0.075 -5.64,-0.152 -7.749,-2.426 -1.856,-1.916 -1.083,-11.432 -1.083,-14.351 -6.172,4.694 -13.97,5.339 -16.16,5.26 -1.807,-0.084 -5.98,-0.23 -5.838,-7.219 0.152,-7.093 2.525,-10.624 6.803,-15.462 4.26,-4.843 4.825,-3.925 7.374,-3.735 2.524,0.187 2.988,2.543 2.988,2.543 0,0 -3.227,3.563 -5.306,6.942 -2.071,3.384 -0.645,6.371 0.542,9.101 1.186,2.727 2.692,2.344 3.042,1.926 2.795,-3.231 5.098,-5.073 8.595,-4.879 3.487,0.188 5.485,8.599 5.564,11.175 0.112,2.651 0.846,2.91 1.929,2.566 8.411,-6.223 5.32,-15.274 4.563,-18.504 4.063,1.111 7.829,5.104 7.829,5.104 0,0 3.028,-2.224 4.22,-8.527 1.421,-7.714 -2.682,-11.091 -5.446,-14.166 9.78,-10.201 6.491,-17.999 3.68,-22.182 -2.804,-4.189 -2.533,-2.537 -3.265,-2.04 -2.955,9.828 -7.98,13.133 -11.478,12.324 3.377,-39.848 -16.54,-82.036 -16.54,-82.036 0,0 -3.378,-6.917 -3.99,-26.684 -0.662,-21.352 11.078,-30.371 14.279,-32.287 3.185,-1.923 3.521,-0.963 6.411,1.606 3.87,3.416 2.413,4.762 2.118,5.144 -9.492,7.408 -13.984,11.251 -14.136,19.437 -0.16,8.164 2.676,13.702 5.758,16.196 3.369,2.91 2.452,-1.004 2.581,-0.462 0.215,-10.482 6.092,-11.557 8.673,-12.201 2.571,-0.662 2.03,1.448 2.03,1.448 0,0 -0.805,2.996 -1.004,10.45 -0.184,6.709 1.688,6.753 1.688,6.753 0,0 6.229,4.989 12.368,13.479 4.986,6.897 2.725,17.15 3.72,17.768 11.905,-8.21 11.859,-17.811 12.369,-25.182 10.13,-2.11 7.788,-16.203 6.785,-16.091 -6.596,0.932 -10.665,0.075 -10.752,-4.222 -0.063,-4.301 1.314,-5.833 3.774,-9.592 2.453,-3.768 1.219,-9.371 1.219,-9.371 0,0 1.769,-0.653 3.081,0.538 2.837,2.724 1.3,2.838 6.747,2.838 4.15,0.002 3.314,-1.148 3.082,-2.837"
   id="path17"
   inkscape:connector-curvature="0" />
			<path
   d="m 220.222,409.11 c 0,0 -7.518,1.999 -20.309,2.453 -12.782,0.458 -16.7,-1.147 -18.74,-4.68 2.422,0.033 10.792,-1.074 13.069,-2.113 -1.433,-2.259 -6.38,-14.12 -2.468,-25.792 -2.645,0 -8.985,1.457 -14.32,7.785 -0.614,0.809 -1.688,-0.415 -1.258,-4.297 0.415,-3.874 3.106,-10.063 12.122,-16.816 -4.069,0.192 -8.363,0.84 -12.281,5.759 -3.919,4.918 -6.793,9.414 -7.599,13.71 -0.127,1.5 -4.921,-0.622 -4.307,-9.215 0.621,-8.597 5.908,-20.775 16.629,-31.18 -1.419,0.194 -3.306,-0.343 -8.643,3.531 -5.766,4.233 -7.749,7.877 -7.749,7.877 0,0 -3.154,-7.06 0,-12.903 3.146,-5.836 9.286,-12.902 9.286,-12.902 0,0 4.229,-7.446 -0.382,-10.512 -4.611,-3.075 -8.14,-4.306 -8.14,-4.306 0,0 -2.07,-2.989 1.387,-4.833 2.07,-0.84 4.213,-0.156 4.213,-0.156 0,0 -1.107,-5.065 0.93,-7.291 1.459,-1.689 2.988,-2.225 5.52,-2.381 -0.111,-2.42 -0.533,-9.175 -2.803,-14.208 -0.111,-0.156 0.461,-3.222 5.526,0.582 3.195,2.38 4.198,4.225 4.198,4.225 0,0 3.942,-4.683 -0.581,-17.697 -0.145,-0.395 7.216,-2.456 8.562,12.082 4.794,-1.417 17.313,0.279 16.732,21.002 -0.604,21.463 -7.836,25.764 -7.836,25.764 0,0 5.113,1.574 8.991,-0.187 2.612,-1.189 7.295,-5.649 7.295,-5.649 0,0 2.263,-2.148 1.649,5.113 -0.494,6.1 -6.021,14.963 -8.595,18.958 -2.579,3.997 -6.873,9.827 -7.485,18.123 -0.622,8.282 5.448,13.355 8.824,13.51 3.687,0.187 7.797,-0.226 12.6,-5.447 0.572,-0.578 3.256,1.08 5.215,5.564 -0.31,-6.256 -2.453,-14.168 -3.68,-17.243 -0.542,-1.644 0.072,-2.64 3.259,-2.64 3.193,0 5.567,0.497 5.646,1.11 0.081,0.617 -2.309,7.722 12.359,21.114 0.114,0.234 -13.172,-19.967 -5.104,-26.419 0.199,-0.07 2.031,-0.994 2.573,5.106 0.382,3.85 4.492,2.038 4.492,2.038 0,0 1.608,-3.684 3.6,-3.684 1.688,0 -0.526,3.684 1.234,7.682 2.149,4.917 5.263,6.482 7.956,7.909 0.646,-0.319 0.685,-1.155 0.685,-1.155 0,0 -0.771,-4.412 0.23,-7.211 0.232,-0.617 0.374,-1.542 1.538,-0.081 1.147,1.457 6.833,7.292 16.813,6.678 8.864,-0.497 7.909,-0.466 7.909,-0.466 0,0 2.842,-0.382 -0.081,2.155 -2.182,1.844 -5.447,4.182 -10.976,4.683 -2.54,0.236 -10.479,-0.271 -16.899,5.302 -1.959,1.571 -5.303,5.796 -8.291,15.892 -3.217,10.75 -14.31,19.727 -25.644,22.606 -0.463,-2.019 -1.035,-4.11 0.614,-7.977 -3.761,2.146 -7.144,4.225 -16.352,5.025 -9.215,0.809 -10.68,-1.95 -10.68,-1.95 0,0 0.048,-0.813 0.854,-1.053 1.617,-0.608 13.475,-4.553 18.693,-10.894"
   id="path19"
   inkscape:connector-curvature="0"
   style="fill:#ffd700" />
			<path
   d="m 236.118,429.152 c 0,0 -2.27,-1.044 -0.614,-1.808 1.649,-0.762 13.246,-8.709 17.004,-14.894 3.759,-6.179 5.718,-12.014 5.718,-12.014 0,0 2.892,-8.757 7.687,-11.595 4.802,-2.847 8.592,-3.759 9.787,-3.759 1.193,0 1.648,0.569 1.338,1.189 0,1.494 -1.187,1.917 -1.498,3.604 -0.301,1.688 0,4.535 0,5.88 0,1.339 0.701,6.058 2.119,6.63 1.808,0.733 1.648,2.118 1.188,3.146 -0.455,1.042 -4.222,11.906 -9.948,18.667 -5.487,6.443 -7.821,7.22 -11.126,7.376 -3.305,0.148 -18.509,-0.306 -21.655,-2.422"
   id="path21"
   inkscape:connector-curvature="0"
   style="fill:#ffd700" />
			<path
   d="m 265.681,435.719 c 0,0 -0.11,-2.69 0.533,-3.189 1.044,-0.765 4.954,-2.835 6.611,-5.447 1.378,-2.11 2.302,-4.688 2.715,-8.757 0.12,-1.728 0.191,-2.155 2.389,-2.038 1.188,2.42 3.267,2.193 4.524,2.349 2.725,0.334 3.035,-1.234 4.071,-1.346 1.193,0.15 1.504,-0.497 1.504,2.381 0,2.876 -1.815,9.629 -6.22,13.244 -4.843,3.954 -7.638,3.995 -9.453,4.143 -1.799,0.153 -6.595,-0.461 -6.674,-1.34"
   id="path23"
   inkscape:connector-curvature="0"
   style="fill:#ffd700" />
			<path
   d="m 176.848,478.063 c 0,0 -10.138,-0.276 -11.683,-8.365 -0.836,-4.298 -0.032,-7.913 -1.179,-10.374 -1.998,-3.834 -4.61,-6.133 -12.368,-8.45 -0.533,-0.413 -1.226,-1.065 0.151,-1.688 0.701,-0.295 7.909,-1.688 15.284,2.087 0.462,-0.854 0.079,-8 -1.919,-11.979 -1.999,-4.005 -1.688,-3.548 -1.688,-3.548 0,0 0.455,-0.911 1.999,-0.759 1.529,0.157 9.367,0.924 14.129,5.989 0.454,0.764 1.681,0.919 2.453,0.302 0.764,-0.612 4.293,-1.836 8.291,-0.916 3.999,0.916 8.45,3.377 11.979,6.909 3.377,3.377 8.912,7.37 17.052,7.991 8.138,0.613 12.742,2 12.742,2 0,0 5.519,0.454 6.753,-0.163 1.227,-0.613 1.697,-0.303 -0.302,-1.534 -2,-1.234 -6.292,-6.605 -7.526,-10.743 0.454,-0.626 0.621,-0.463 2.302,-0.159 1.265,0.226 7.987,2.763 14.894,2.306 6.919,-0.458 15.974,-5.69 15.974,-5.69 0,0 0.917,-0.76 1.992,-0.148 1.083,0.61 7.415,6.296 19.202,-1.998 1.529,-1.068 3.257,-2.299 7.686,-0.304 2.284,1.08 4.141,1.08 4.141,1.08 0,0 5.105,4.141 13.356,4.141 8.29,0 11.357,4.911 11.357,4.911 0,0 5.073,8.444 7.685,9.524 2.619,1.068 8.752,1.231 8.752,1.231 0,0 9.678,-1.083 17.354,4.599 7.678,5.687 9.365,10.756 10.434,18.44 1.083,7.674 4.611,14.125 6.45,16.57 1.856,2.458 5.576,3.923 7.679,4.005 2.922,0.148 7.391,-3.53 9.222,-11.515 1.848,-7.992 0.686,-16.442 -1.688,-28.266 -3.226,-15.806 -15.665,-48.06 -18.429,-64.96 -1.96,-12.094 -2.612,-30.4 5.997,-44.38 8.594,-13.969 20.261,-17.51 20.261,-17.51 0,0 5.836,-0.918 11.684,-0.147 5.822,0.77 15.148,2.84 20.571,-1.842 1.226,-1.077 2.143,-2 2.143,-2 0,0 0.74,4.643 -2.605,9.677 -2.883,4.491 -5.836,7.526 -5.836,7.526 0,0 -0.313,0.92 1.839,0.92 2.143,0 9.453,0.082 13.515,-3.995 0.311,-0.311 1.688,-1.772 0.693,1.541 -0.614,2.298 -1.84,4.601 -7.145,8.296 -0.461,0.53 0.383,0.837 2.23,0.765 1.848,-0.073 10.123,2.07 11.667,6.909 -1.544,0.154 -4.53,0.154 -5.064,0 -0.549,-0.156 -1.99,-0.92 -2.612,-0.694 -0.614,0.234 -0.684,0.694 -0.455,4.535 0.223,3.831 -0.159,7.98 -2.531,11.357 -2.389,3.385 -6.229,12.675 -0.231,15.516 5.989,2.835 8.362,2.691 8.362,2.691 0,0 1.234,-0.084 -0.08,1.685 -1.306,1.764 -3.296,5.064 -9.284,6.981 0.389,1.695 4.077,13.132 -1.076,19.583 -0.383,0.391 -0.996,0.319 -0.996,-1.15 0,-1.462 -0.534,-7.405 -8.681,-16.737 -7.064,-8.063 -7.83,-8.833 -8.14,-14.048 -0.303,-5.221 0.16,-9.374 0.16,-9.374 0,0 -0.542,-4.604 -4.532,-4.604 -3.997,0 -6.682,2.151 -8.363,3.613 -1.688,1.457 -3.455,4.99 -3.455,4.99 0,0 -0.391,1.376 -0.853,-0.622 -0.463,-1.987 -2,-9.441 2.144,-15.116 4.156,-5.685 7.683,-7.996 7.683,-7.996 0,0 2.312,-2.453 2.612,-3.987 0.313,-1.541 0,-4.153 -0.923,-5.219 -0.924,-1.083 -4.762,-4.763 -4.762,-4.763 0,0 -3.376,-1.231 -5.527,-1.075 -2.15,0.147 -5.369,0.147 -8.745,4.452 -3.113,3.875 -12.288,15.056 -12.758,30.412 -0.454,15.359 9.684,40.685 9.684,40.685 0,0 12.894,32.403 12.894,54.213 0,21.813 -0.612,21.339 -0.612,21.339 0,0 1.075,3.083 3.831,2.63 2.772,-0.476 9.134,-4.342 10.91,-7.074 0.613,-0.918 1.235,-1.081 1.235,-1.081 0,0 1.999,4.147 -0.462,7.991 -2.463,3.831 -3.688,4.459 -3.688,4.459 0,0 -0.313,1.688 0.461,2.294 0.764,0.618 8.3,6.149 5.829,14.75 -0.906,3.222 -0.906,2.612 -0.906,2.612 0,0 -4.812,-3.616 -9.073,-5.693 -1.839,-0.921 -2.451,-0.606 -1.998,0.938 0.464,1.521 1.998,12.583 0,15.813 -0.31,0.758 -0.62,1.371 -1.226,-1.695 -0.613,-3.075 -2.915,-9.211 -5.99,-9.828 -3.066,-0.613 -7.987,0.617 -10.591,4.451 -1.228,-1.376 -1.465,-2.186 -1.378,-3.985 0.15,-2.612 2.062,-4.994 2.914,-6.451 1.235,-2.007 3.99,-4.611 2.915,-6.299 -1.074,-1.697 -3.681,-3.383 -5.829,-3.383 -2.612,0 -3.849,-0.146 -6.156,2.3 -2.294,2.464 -6.786,4.46 -10.29,15.672 0,1.379 -0.295,4.755 -0.295,4.755 0,0 1.219,6.909 3.981,7.997 2.763,1.067 5.535,1.067 5.535,1.067 0,0 9.373,-1.228 11.374,-1.844 0.605,-0.148 1.521,-0.921 1.066,1.229 -0.461,2.146 -0.773,8.45 3.234,10.442 4.442,2.158 10.734,1.839 13.347,0.928 0.773,-0.319 1.839,-0.507 0.924,0.911 -1.074,1.688 -1.186,6.65 -14.271,8.45 -3.395,0.458 -2.924,0.458 -2.924,0.458 0,0 -0.549,3.181 1.521,4.764 2.158,1.688 6.148,1.523 12.455,1.376 0.717,0 1.992,2.608 -7.534,5.994 -10.368,3.646 -13.347,4.3 -16.732,6.909 -3.377,2.606 -4.301,5.838 -4.468,7.066 -0.143,1.228 1.235,4.604 2.93,5.066 1.689,0.465 4.924,0.769 6.452,0.612 1.529,-0.147 4.142,0 2.915,1.378 -1.234,1.394 -3.065,3.696 -2.756,5.985 0.295,2.311 2.907,5.236 4.133,6.006 1.228,0.756 2.303,1.677 0.159,1.843 -2.141,0.144 -6.569,0.687 -7.979,3.066 -1.314,4.763 -2.008,12.437 -7.375,17.815 -0.62,0.458 -0.464,-1.23 -0.464,-2.149 0,-0.924 -0.156,-8.302 -1.544,-9.063 -1.378,-0.765 -2.293,-1.074 -3.225,-0.311 -0.916,0.777 -6.444,8.298 -7.216,9.212 -0.758,0.927 -3.369,4.917 -5.678,5.525 -2.302,0.622 -5.991,0.319 -5.991,0.319 0,0 -4.3,0.911 -5.215,5.678 -0.47,4.918 1.991,7.674 1.991,7.674 0,0 0.771,1.385 -0.472,1.231 -1.217,-0.148 -5.55,0.349 -12.582,-9.052 -2.763,-3.695 -4.15,-3.54 -4.15,-3.54 0,0 -3.065,0.608 -5.064,-0.304 -1.992,-0.927 -3.68,-2.007 -5.678,-0.607 -0.732,0.492 -3.257,1.065 -4.302,13.199 -0.12,1.151 -1.378,-1.074 -2.15,-3.229 -0.771,-2.142 -2.46,-5.829 -2.46,-11.05 0,-5.229 5.216,-11.672 5.216,-11.672 0,0 -2.293,-3.544 -4.132,-3.995 -1.849,-0.464 -3.695,-0.62 -5.528,-0.62 -1.849,0 -6.611,2.008 -7.995,3.532 -0.766,0.458 -2.144,0.777 -0.455,-2.302 1.688,-3.074 2.151,-5.371 8.745,-4.914 0.621,0 2.621,-1.068 4.46,-2.922 1.832,-1.842 4.755,-6.597 8.911,-8.595 4.134,-1.991 6.292,-1.991 9.519,-1.844 3.231,0.146 15.354,2.919 19.042,3.532 3.679,0.622 12.709,-0.726 16.883,-7.057 3.695,-5.535 7.678,-14.741 2.916,-26.879 -0.455,-0.771 -0.605,-0.537 -1.14,0.384 -0.549,0.924 -10.139,18.045 -23.191,16.361 -0.613,-0.155 4.611,-11.744 3.456,-27.879 -0.079,-8.29 2.835,-14.732 2.835,-14.732 0,0 -1.288,0.986 -2.381,2.901 -1.075,1.923 -7.135,15.822 -17.569,19.963 -1.234,0.395 -1.768,0 -1.306,-1.146 0.455,-1.143 5.408,-10.1 4.985,-22.028 -0.238,-6.882 -0.351,-9.837 -0.351,-9.837 0,0 -1.337,1.119 -1.951,1.844 -0.851,1.084 -4.73,2.649 -4.73,2.649 0,0 -2.756,1.504 -2.955,-3.334 -0.183,-4.846 -3.178,-9.601 -4.683,-11.604 -0.733,-0.996 -1.306,-4.487 -1.345,-7.976 0,-2.724 0.78,-6.419 3.925,-8.296 3.138,-1.875 12.169,-3.344 14.2,-7.601 2.11,-4.42 1.075,-13.065 -0.813,-15.905 0,3.198 2.264,14.257 -7.445,17.7 -8.14,1.697 -13.237,5.465 -13.921,11.378 -0.472,4.061 1.178,9.05 1.178,9.05 0,0 0.963,2.008 -1.879,1.129 -2.844,-0.9 -4.46,-1.545 -4.46,-1.545 0,0 -3.178,-0.36 -4.143,0.5 -2.31,2.191 -6.338,4.571 -3.6,6.906 2.724,2.341 14.161,10.374 16.343,17.313 2.191,6.957 1.123,15.741 1.123,15.741 0,0 -0.391,1.191 -0.891,0 -1.388,-3.616 -5.146,-11.288 -11.129,-15.127 -0.851,-0.614 -0.73,0.43 -0.087,1.417 1.035,1.657 3.497,6.117 2.765,9.712 -0.725,3.613 -2.182,7.683 -2.182,7.683 0,0 0.039,1.959 -2.924,-1.191 -2.955,-3.137 -3.759,-3.23 -3.759,-3.23 0,0 1.928,13.173 -0.996,17.322 -0.39,0.81 -0.653,1.348 -2.531,-1.532 -1.887,-2.88 -3.266,-6.416 -4.836,-8.024 -1.583,-1.608 -3.193,-1.967 -4.538,0 -1.347,1.96 -3.951,5.262 -4.794,6.372 -0.265,0.35 -1.529,3.372 -0.535,4.141 1.88,1.502 3.568,2.343 4.676,2.66 1.114,0.299 5.025,1.729 5.264,7.821 0.231,6.107 -0.072,13.479 -3.687,17.246 -0.614,0.693 -1.036,0.107 -1.418,-0.537 -0.382,-0.653 -1.729,-2.569 -2.27,-3.695 -0.534,-1.107 -2.295,-3.488 -3.026,-4.126 -0.74,-0.669 -3.313,-2.699 -5.495,-2.046 0.382,1.339 0.039,3.603 -1.075,4.832 -1.306,1.463 -6.412,5.719 -6.412,5.719 0,0 -0.454,0.734 -2.11,0.237 -1.657,-0.507 -3.728,-2.837 -4.532,-3.383 -0.803,-0.541 -1.417,-1.11 -2.182,-0.996 -0.773,0.112 -1.386,0.313 -1.498,2.308 -0.118,1.99 -0.198,4.837 -0.198,6.825 0,1.999 -0.231,3.914 -1.298,1.812 -0.581,-1.19 -4.222,-6.803 -6.491,-8.302 -2.269,-1.495 -6.259,-2.686 -8.871,-2.796 -2.612,-0.117 -5.832,0.187 -5.832,0.187 0,0 -0.963,0.358 -0.238,3.193 0.813,3.15 1.776,6.331 1.204,8.371 -0.199,0.6 -2.342,-0.041 -2.342,-0.041 0,0 -2.581,-2.878 -5.265,-6.643 -3.034,-4.188 -6.227,-5.838 -9.907,-6.03 -3.687,-0.182 -7.909,2.805 -9.022,4.45 -0.343,0.076 -0.996,0.62 -0.502,-1.23 0.502,-1.845 1.195,-6.216 -0.111,-7.86 -1.306,-1.657 -4.954,-2.435 -4.803,-6.642 0.15,-4.222 0.461,-3.419 0.422,-6.448 -0.031,-2.878 -2.492,-3.654 -4.181,-3.734 -1.688,-0.068 -6.753,-0.148 -9.295,0.617 -0.948,0.382 -3.217,1.004 1.236,-2.601 4.452,-3.611 11.244,-3.548 11.244,-3.548 0,0 -0.079,-5.438 -12.821,-12.24 -0.535,-0.343 -1.188,-1.028 1.154,-1.306 2.35,-0.259 5.257,-0.146 6.905,0 1.656,0.153 5.375,-0.383 7.063,-0.538 1.697,-0.148 2.311,-0.539 3.689,-0.693 1.848,-0.187 4.029,-0.415 5.796,-0.351 1.999,0.131 7.98,2.545 9.837,4.655 1.647,1.844 2.683,4.216 2.683,6.565 0,1.111 0.303,1.191 1.378,1.111 1.076,-0.082 9.438,-0.994 14.008,0.733 4.573,1.728 11.104,6.173 16.399,6.027 5.216,-0.197 11.285,-3.002 16.008,-11.482 4.716,-8.481 4.029,-17.08 4.029,-17.08 0,0 -9.445,9.82 -19.495,11.934 3.176,-3.606 9.787,-9.826 10.822,-15.234 -4.261,1.885 -8.793,4.373 -19.049,4.443 2.039,-1.298 10.991,-2.651 15.641,-12.778 -4.381,1.159 -18.788,2.991 -20.89,2.991 -2.118,0 -1.847,0.238 0.414,-1.417 2.27,-1.649 10.751,-10.171 13.827,-15.587 0.461,-0.812 1.074,-3.146 1.074,-3.146 0,0 0.925,-3.345 2.502,-7.725 0.725,-1.295 1.64,-2.374 1.64,-2.374 0,0 2.158,-1.923 -1.107,-2.607 -3.274,-0.692 -3.456,-0.733 -6.347,-0.849 -2.868,-0.11 -7.933,1.462 -7.933,1.462 0,0 -1.043,-4.218 6.061,-9.021 7.105,-4.806 25.031,-6.991 25.031,-6.991 l 17.928,-1.231 12.584,-0.414 c 0,0 -0.598,-1.74 -2.685,-1.74 -2.069,0 -28.257,1.048 -35.576,-14.578 -2.62,2.103 -5.383,5.839 -9.143,8.127 0.039,-2.143 -0.23,-11.782 -2.143,-14.204 -1.657,2.049 -7.574,12.289 -17.712,16.905 -0.262,-4.188 0.31,-11.067 -0.382,-15.395 -2.182,5.26 -5.456,12.693 -16.271,16.349 -0.963,-0.771 -1.187,-0.31 -0.645,-1.767 0.526,-1.462 3.058,-6.909 2.404,-12.44 -0.111,-1.067 -1.568,-1.067 -3.758,2.732 -2.422,4.177 -10.895,11.063 -17.434,12.543 2.541,-3.376 5.384,-10.397 4.851,-14.582 -2.852,3.918 -8.267,10.285 -17.441,13.132 -9.175,2.835 -6.642,-7.869 -6.642,-7.869 0,0 -1.155,-1.078 -1.992,0.153 -0.845,1.225 -2.413,6.491 -9.868,9.063 -7.448,2.568 -9.597,1.229 -9.597,1.229 0,0 8.14,-8.179 8.601,-10.723 0.301,-1.609 -0.114,-2.335 -0.114,-2.335"
   id="path25"
   inkscape:connector-curvature="0"
   style="fill:#ffd700" />
			<path
   d="m 334.707,311.216 c 0,0 -1.426,-1.462 -1.529,-3.036 -0.16,-2.266 0.184,-3.838 0.613,-4.379 0.413,-0.529 1.839,-0.49 3.567,-0.653 1.832,0.278 2.955,2.114 2.955,2.114 0,0 0.884,1.462 1.841,3.457 1.081,2.115 1.081,2.498 1.081,2.498 0,0 -0.659,0.963 -1.736,1.616 -1.312,0.724 -4.689,0.99 -6.792,-1.617"
   id="path27"
   inkscape:connector-curvature="0"
   style="fill:#ffd700" />
			<path
   d="m 320.268,319.275 c 0,0 -1.298,2.619 -1.688,10.063 -0.145,3.452 0.391,6.254 0.391,6.254 0,0 0.542,3.253 0.374,7.559 -0.144,4.309 -1.601,6.909 -2.835,8.299 -1.228,1.385 -2.835,2.11 -3.688,1.147 -1.265,-1.417 -2.301,-2.995 -1.306,-4.381 0.964,-1.261 2.262,-2.679 2.302,-4.905 0,-3.234 0,-6.257 -0.302,-7.18 -0.304,-0.92 -1.451,-1.303 -1.761,-2.227 -0.311,-0.927 -0.622,-3.146 -0.622,-5.183 0,-2.032 0.383,-4 0.383,-4 0,0 0.39,-2.452 2.541,-4.522 2.182,-2.076 2.684,-1.959 2.684,-1.959 l 3.385,-1.844 c -0.002,0 2.14,-0.04 0.142,2.879 m -20.62,-6.256 c 0,0 -2.907,-0.196 -4.898,-2.11 -2.882,-2.847 -3.345,-3.301 -2.5,-5.065 1.496,-2.96 2.764,-3.728 2.764,-3.728 0,0 0.963,-0.267 3.178,-0.235 2.5,0.079 3.695,0 3.695,0 0,0 1.831,0.732 3.455,2.35 1.609,1.613 2.072,2.336 4.222,3.106 1.839,0.684 2.955,0.963 4.294,0.963 3.344,0.455 3.965,-0.075 3.886,1.987 -0.088,2.194 -0.853,2.919 -5.727,2.958 l -12.369,-0.226 z m 62.582,106.377 c 0,0 -4.603,-4.289 -6.221,-6.75 -1.607,-2.465 -3.909,-11.444 -3.909,-16.971 0,-5.533 1.616,-14.511 1.92,-17.697 0.295,-3.189 1.075,-14.479 -1.307,-24.385 -2.373,-9.9 -7.454,-17.418 -7.989,-18.654 -0.532,-1.229 -1.535,-3.572 -0.795,-6.218 0.724,-2.654 -0.129,-4.613 -0.924,-5.524 -0.806,-0.927 -1.92,-3.034 -2.581,-5.228 -0.693,-2.182 -1.92,-2.07 -6.021,-1.917 -2.724,0.042 -4.38,1.081 -5.414,1.224 -1.068,0.154 -1.378,-0.384 -1.841,-1.182 -0.622,-1.116 -0.118,-1.884 1.418,-3.031 2.23,-1.618 0.112,-2.892 0.112,-2.892 0,0 -7.479,-5.218 -8.514,-6.141 -1.044,-0.919 -4.31,-5.331 -5.536,-7.06 -1.227,-1.731 -2.39,-2.266 -3.497,-2.652 -0.987,-0.298 -11.857,-0.84 -14.088,-0.298 -2.223,0.533 -6.133,4.297 -6.133,4.297 0,0 -4.117,3.488 -6.881,4.909 -2.571,1.264 -10.64,4.607 -13.203,5.612 -2.573,0.991 -3.808,3.189 -3.808,3.189 0,0 -0.184,2.026 -1.106,3.488 -1.084,1.8 0.5,2.838 1.408,2.95 0.933,0.117 3.313,0.737 4.349,1.959 1.035,1.231 0.574,5.723 0.574,5.723 -0.502,2.604 5.907,4.114 7.325,3.919 1.418,-0.192 3.695,-2.645 3.695,-2.645 0,0 4.525,-4.918 6.292,-6.304 1.77,-1.376 4.764,-0.693 5.8,-0.194 1.035,0.506 2.802,1.915 5.255,4.722 2.469,2.811 -0.876,7.412 -0.876,7.412 0,0 -3.695,5.788 -6.14,7.37 -2.462,1.577 -6.65,1.381 -7.885,0.696 -1.219,-0.696 -5.447,-2.194 -7.319,-2.423 -2.5,-0.495 -2.581,-0.463 -5.383,5.49 0,0.849 0.039,1.884 0.732,3.458 0.812,1.875 1.075,3.491 0.845,4.108 -0.232,0.614 -1.467,0.614 -2.573,0.427 -0.837,-0.156 -1.45,0.187 -1.568,3.337 -0.152,4.523 3.87,4.222 3.87,4.222 0,0 4.953,-0.081 10.831,-0.041 2.731,0.041 1.379,1.306 4.149,1.267 2.907,0 4.866,0.421 7.972,-0.534 4.532,-1.387 9.685,-5.612 9.685,-5.612 0,0 0.692,2.613 0.334,3.689 -2.254,2.113 -1.568,7.371 -2.443,8.405 -3.043,0.271 -1.88,3.657 -2.462,4.226 -1.418,1.08 -8.594,5.26 -12.29,8.06 -3.686,2.804 -6.904,7.378 -8.791,11.751 -1.035,2.341 -0.685,5.798 0.04,7.713 3.376,-8.251 8.641,-12.706 14.55,-16.124 6.874,-4.025 8.92,-8.25 9.79,-9.827 0.882,-1.573 2.148,-2.104 2.148,-2.104 0,0 -0.184,3.681 -1.951,9.127 -3.226,9.946 -12.448,14.06 -12.448,14.06 0,0 -5.249,2.796 -8.441,8.056 -2.994,4.95 -1.568,11.207 -1.568,11.207 0,0 1.608,-2.064 3.376,-4.715 1.768,-2.648 5.95,-2.306 5.95,-2.306 0,0 -0.734,0.569 -0.734,13.356 0.502,14.745 5.465,15.283 5.465,15.283 0,0 -0.661,-11.564 1.951,-28.07 2.604,-16.498 7.176,-19.146 11.365,-23.031 4.188,-3.873 5.446,-11.016 5.606,-17.231 0.072,-2.422 -0.271,-4.265 0.726,-5.341 0.993,-0.994 1.918,-1.111 2.81,-0.039 0.877,1.074 2.716,3.373 3.338,3.301 0.612,-0.075 1.307,-0.686 2.102,-6.638 1.585,-11.743 -0.334,-18.62 -1.417,-21.614 -1.075,-3 0.197,-4.727 0.197,-4.727 0,0 2.08,-1.915 4.876,-2.6 2.796,-0.693 4.182,0.063 5.287,2.6 1.236,2.763 3.688,0.196 5.615,3.497 1.577,7.53 4.764,9.681 5.982,10.708 1.225,1.035 0.358,2.311 0.358,2.311 0,0 0.142,-0.195 -1.929,2.607 -2.063,2.799 -2.69,0.387 -2.46,-1.728 -0.032,-1.534 -0.686,-2.88 -2.494,-4.297 -1.847,-1.417 -2.038,0.686 -2.374,1.306 0,0.996 1.331,2.112 2.766,10.361 1.417,8.255 0.15,18.393 -0.885,21.352 -1.044,2.948 -1.768,4.293 -4.962,3.959 -1.489,-0.662 -2.946,-1.275 -4.181,-0.581 -1.228,0.684 -2.453,0.187 -9.278,10.356 -6.85,10.179 -8.872,22.925 -8.872,22.925 0,0 -2.541,-4.03 -1.847,-10.521 1.146,-10.675 10.018,-17.966 10.018,-17.966 0,0 4.875,-3.425 4.914,-6.221 0.04,-2.799 1.92,-5.064 3.488,-5.603 1.577,-0.538 4.38,-0.879 4.38,-0.879 0,0 1.848,-1.422 2.111,-10.333 0.35,-13.129 -3.568,-22.754 -3.839,-19.5 0.893,6.482 0.31,13.057 0,17.737 -0.271,3.958 -9.669,12.745 -11.746,15.275 -2.08,2.535 -16.368,19.811 -16.368,35.974 0,16.17 9.144,21.431 12.297,24.037 0.694,-4.223 -0.382,-10.202 -0.47,-12.668 4.62,4.484 5.727,8.912 8.077,13.018 2.341,4.101 3.065,1.729 3.989,0.609 0.925,-1.11 0.23,-2.465 0.23,-2.465 l -3.297,-7.363 c 0,0 -3.888,-10.166 -3.337,-16.196 0.518,-6.028 0.725,-9.182 3.948,-15.896 2.455,-5.029 6.438,-10.103 7.487,-10.29 0.605,0.919 -0.31,3.489 -0.31,3.489 0,0 -7.678,20.472 -5.225,32.441 2.461,11.982 9.446,13.632 12.399,14.854 2.963,1.237 2.151,-0.529 1.848,-1.144 -4.801,-5.144 -5.336,-12.479 -5.032,-18.317 0.302,-5.83 1.426,-9.751 2.771,-13.937 1.074,21.345 4.063,23.579 8.673,26.768 4.523,3.105 3.488,-0.231 3.488,-0.231 0,0 -0.296,-2.545 -0.692,-5.658 -0.344,-2.976 -0.375,-5.524 0.229,-8.049 3.616,5.408 9.678,5.146 11.326,4.898 1.509,-0.177 1.118,-0.532 1.118,-0.532"
   id="path29"
   inkscape:connector-curvature="0"
   style="fill:#ffd700" />
			<path
   d="m 370.951,322.23 c -0.804,0.653 -1.959,0.274 -2.651,-0.264 -0.687,-0.536 -2.573,-1.042 -3.608,0.264 -1.035,1.301 -3.798,4.532 -3.798,4.532 0,0 -0.821,1.337 -2.422,-0.539 0,0 -1.457,-0.653 0.263,-2.648 1.736,-1.999 4.341,-4.373 4.341,-4.373 0,0 1.337,-1.346 3.496,-1.346 2.261,0 3.186,0.155 3.186,0.155 0,0 1.313,1.263 1.585,1.947 0.255,0.695 0.421,1.619 -0.392,2.272 m -18.707,-17.929 c 0,0 -1.371,-1.075 -2.364,-2.071 -1.006,-1.002 -0.543,-3.611 -0.543,-3.611 0,-1.462 0.62,-1.462 1.768,-1.462 1.14,0 0.765,1.462 0.765,1.462 0,0 -0.31,0.848 0.159,2.298 0.454,1.469 2.525,1.011 2.525,1.011 0,0 1.576,-1.083 2.684,-2.311 0.693,-0.771 0.542,-1.915 0.391,-2.381 -0.159,-0.462 -0.081,-1.839 -0.081,-2.305 -0.142,-1.688 0.925,-1.534 2.008,-1.534 1.067,0 0.518,1.306 0.686,3.839 0.142,2.541 -0.391,3.533 -0.391,3.533 0,0 -2.07,1.616 -3.608,2.994 -1.53,1.387 -3.999,0.538 -3.999,0.538 m -1.681,4.685 c -0.573,0.545 -1.147,0.226 -1.147,0.226 0,0 -1.767,-1.915 -3.003,-3.377 -1.219,-1.461 -0.756,-2.84 -1.074,-3.758 -0.311,-0.92 -1.457,-2.609 -3.218,-3.151 -1.769,-0.538 -4.381,-1.067 -4.381,-1.067 l -3.918,-2.15 c 0,0 -1.147,-0.776 -0.454,-1.616 0.694,-0.849 1.235,-0.614 1.235,-0.614 0,0 1.983,1.15 3.218,1.99 1.225,0.849 2.684,1.005 4.22,1.306 1.53,0.312 2.533,0.538 4.221,2.227 1.697,1.697 1.388,4.381 1.77,5.229 0.382,0.84 2.453,3.146 2.453,3.146 0,0 0.929,0.768 0.078,1.609 m -9.859,-22.308 c 1.489,-2.031 4.746,-1.841 4.746,-1.841 0,0 3.646,0.152 4.812,0.268 1.567,0.156 2.724,1.119 2.491,3.572 -0.079,0.879 0.271,1.306 -1.034,1.306 -1.307,0 -0.925,-0.879 -1.204,-1.688 -0.253,-0.809 -2.636,-0.924 -2.636,-0.924 0,0 -2.429,-0.151 -4.147,0.115 -1.73,0.271 -1.809,0.957 -1.69,3.19 0.152,2.804 3.577,1.458 3.577,1.458 0,0 1.457,0 1.297,1.608 -0.078,1.044 -1.576,1.044 -3.409,1.044 -1.854,0 -1.623,-0.809 -2.922,-1.58 -1.315,-0.762 -1.075,-2.419 -1.075,-2.419 0,0 -0.112,-2.382 1.194,-4.109 m -15.236,-7.682 c -1.09,1.191 -3.073,3.313 -3.073,3.313 l -2.883,2.413 c 0,0 -1.625,0.653 -2.151,-0.809 0,0 -1.074,-1.307 -0.542,-1.719 1.108,-0.849 4.635,-3.307 4.635,-3.307 0,0 1.236,-1.34 0.813,-2.532 -0.413,-1.182 -1.456,-2.262 -1.456,-2.262 0,0 -0.383,-1.313 0.541,-1.839 0.915,-0.542 1.959,-0.933 2.486,0.259 0.541,1.191 1.736,3.034 1.736,3.034 0,0 0.952,2.266 -0.106,3.449 m 60.337,36.097 c 0,0 -0.613,-2.767 -1.839,-4.917 -1.227,-2.155 -1.61,-1.843 -3.457,-2.269 -1.839,-0.415 -7.518,1.461 -7.518,1.461 0,0 -7.575,3.456 -9.534,4.801 -1.943,1.347 -3.672,0.622 -3.672,0.622 0,0 -2.611,-2.194 -3.965,-3.425 -0.924,-2.269 -0.415,-4.794 1.808,-6.1 1.529,-0.924 4.603,-2.764 6.45,-4.11 1.847,-1.346 2.151,-1.721 2.151,-2.768 0,-1.036 -1.228,-2.03 -1.228,-2.03 0,0 -3.967,-3.49 -4.62,-4.72 -0.333,-0.693 -0.223,-1.616 0,-2.652 0.512,-2.266 3.308,-4.297 4.62,-5.953 1.306,-1.656 -0.198,-3.15 -1.616,-4.373 -1.417,-1.23 -3.376,1.111 -5.146,2.528 -1.767,1.417 -2.835,1.152 -5.303,1.152 -2.453,0 -2.757,-0.84 -3.377,-1.454 -0.605,-0.617 -1.641,-1.848 -3.299,-2.04 -1.648,-0.187 -2.65,1.338 -2.65,1.338 0,0 -3.377,4.193 -3.792,4.803 -0.421,0.612 -2.843,3.376 -4.697,4.184 -1.833,0.809 -4.596,-1.923 -5.21,-2.648 -0.613,-0.729 -1.848,-3.296 -0.421,-7.024 2.524,-6.678 5.836,-10.787 7.255,-12.94 1.418,-2.148 -0.08,-3.377 -0.08,-3.377 0,0 -2.564,-3.875 -4.301,-5.72 -1.728,-1.839 -2.07,-0.724 -2.07,-0.724 0,0 -0.502,0.497 -2.23,2.342 -1.728,1.836 -0.532,2.995 0,4.102 0.541,1.117 0.382,2.154 0,3.034 -0.613,1.493 -4.755,2.847 -7.598,3.874 -2.844,1.044 -4.563,3.302 -6.411,6.226 -1.618,2.492 -0.462,5.526 -0.462,5.526 l 2.38,4.568 c 0.694,1.613 3.497,0.84 7.376,0.92 3.752,0.084 2.946,1.346 4.364,2.58 1.426,1.23 0.541,2.338 -0.263,2.338 -0.805,0 -0.925,0.62 -2.079,-1.107 -1.138,-1.731 -1.602,-1.501 -3.878,-1.43 -2.223,0.075 -2.884,0.075 -2.884,0.075 0,0 -0.724,3.653 0.405,4.15 1.451,2.879 3.211,1.999 4.629,2.115 1.417,0.111 0.923,0.494 1.417,3.178 0.512,2.7 5.654,1.313 10.561,1.313 4.922,0 4.922,1.222 6.03,2.382 1.131,1.15 1.854,4.599 3.496,7.558 1.646,2.963 2.651,3.687 3.886,3.803 1.228,0.115 1.338,-0.729 3.903,1.533 2.571,2.266 2.65,2.151 2.65,2.151 0,0 0.813,1.306 0,1.306 -0.797,0 -0.797,0.542 -1.528,0.115 -0.726,-0.418 -2.031,-1.728 -2.646,-2.568 -0.62,-0.848 -0.93,-1.306 -2.689,-1.417 -1.77,-0.123 -1.188,-0.083 -1.93,0.534 -0.723,0.613 -0.723,0.076 -1.035,2.838 -0.31,2.768 -0.611,3.189 0.925,5.834 1.536,2.648 4.729,4.11 6.755,3.572 2.038,-0.538 3.503,0.307 3.503,0.307 0,0 0.915,2.146 4.181,3.687 3.266,1.535 3.983,0.84 6.252,-1.23 2.279,-2.071 4.993,-6.224 6.635,-9.401 1.657,-3.19 3.282,-3.997 4.507,-5.113 1.228,-1.11 1.339,-1.453 2.685,0.503 1.346,1.959 2.223,1.959 2.223,1.959 0,0 0.229,-0.117 1.536,-1.346 1.3,-1.232 0.845,-2.456 0.845,-2.456"
   id="path31"
   inkscape:connector-curvature="0"
   style="fill:#ffd700" />
			<path
   d="m 249.012,325.378 c 0,0 0.819,-2.989 1.887,-3.34 1.075,-0.343 1.107,1.116 1.267,1.839 0.15,0.733 1.767,7.375 6.331,9.608 4.723,2.338 8.682,2.717 11.755,3.107 0.876,0.386 1.026,2.029 -0.58,2.412 -1.617,0.394 -7.527,1.338 -10.943,1.338 -3.417,0.002 -12.281,-4.443 -9.717,-14.964"
   id="path33"
   inkscape:connector-curvature="0"
   style="fill:#ffd700" />
		</g>
	</g>
	<g
   id="g35">
		<path
   d="m 407.842,115.417 c -4.293,-0.919 -8.952,-1.461 -9.828,-1.72 -2.731,-1.012 -4.683,-4.496 -7.948,-7.339 -3.265,-2.839 -8.378,-6.682 -14.821,-6.793 -1.808,0.111 -1.912,-0.583 -1.912,-0.583 0,0 2.494,-1.652 2.948,-4.71 0.118,-0.466 2.923,-0.279 2.923,-0.279 0,0 10.13,-0.733 19.846,1.649 10.561,3.34 18.852,12.022 19.767,25.844 -2.606,-1.923 -6.674,-5.148 -10.975,-6.069 M 332.867,89.925 c -5.504,-5.487 -11.643,-6.865 -14.671,-7.26 -0.198,-9.434 -3.646,-20.687 -3.646,-20.687 29.332,2.648 35.712,29.674 36.666,34.967 -6.642,-0.187 -12.862,-1.529 -18.349,-7.02 m -52.061,-6.802 c -3.991,0 -8.371,0.777 -13.094,4.926 -4.724,4.141 -8.832,9.104 -22.308,8.896 0,0 2.612,-16.848 14.55,-25.37 11.946,-8.521 24.036,-9.099 24.036,-9.099 0,0 -2.612,6.841 -3.184,20.647 m -57.4,16.514 c -0.302,0.996 -3.837,0.924 -3.837,0.924 0,0 -2.693,-0.075 -6.674,2.835 -3.998,2.923 -8.721,8.917 -11.102,10.067 -2.38,1.146 -6.864,1.386 -12.48,3.528 -5.599,2.154 -9.214,5.758 -9.214,5.758 0,0 -0.885,-11.285 6.992,-18.732 7.296,-6.988 10.863,-8.676 17.848,-9.68 6.993,-0.996 15.323,-0.302 15.323,-0.302 0,0 1.107,1.337 1.809,2.954 0.682,1.613 1.639,1.644 1.335,2.648 m 214.54,38.626 c 0,-0.238 -0.04,-0.481 -0.112,-0.708 4.301,-1.179 7.454,-5.089 7.454,-9.756 0,-4.006 -2.323,-7.455 -5.693,-9.095 2.437,-1.84 4.006,-4.764 4.006,-8.048 0,-5.268 -4.006,-9.581 -9.143,-10.071 0.781,-1.434 1.219,-3.074 1.219,-4.818 0,-5.599 -4.523,-10.123 -10.124,-10.123 -0.804,0 -1.592,0.104 -2.341,0.287 0.438,-1.142 0.701,-2.381 0.701,-3.679 0,-5.595 -4.532,-10.124 -10.122,-10.124 -2.166,0 -4.166,0.677 -5.798,1.828 -1.409,-3.882 -5.129,-6.662 -9.501,-6.662 -3.241,0 -6.117,1.533 -7.972,3.898 -1.57,-3.54 -5.113,-6.008 -9.248,-6.008 -3.632,0 -6.801,1.916 -8.585,4.786 -1.617,-3.432 -5.104,-5.833 -9.158,-5.833 -1.035,0 -2.039,0.163 -2.979,0.45 0.111,-0.604 0.184,-1.223 0.184,-1.859 0,-5.595 -4.54,-10.119 -10.124,-10.119 -1.601,0 -3.104,0.382 -4.451,1.043 -0.041,-5.555 -4.556,-10.043 -10.114,-10.043 -2.39,0 -4.595,0.836 -6.325,2.222 -0.74,-4.862 -4.92,-8.581 -9.985,-8.581 -2.844,0 -5.407,1.167 -7.239,3.05 -0.335,-0.21 -0.534,-0.35 -0.558,-0.398 -3.066,-8.059 -8.522,-8.374 -8.522,-8.374 V 28.23 h 7.145 V 18.02 h -6.834 v -7.064 h -9.907 v 7.292 l -6.603,-0.072 0.08,9.983 h 7.296 c 0,0 0.143,0.374 0.143,3.217 -7.137,0.769 -8.602,9.911 -8.602,9.911 -1.833,-1.899 -4.412,-3.074 -7.247,-3.074 -4.857,0 -8.904,3.417 -9.892,7.976 -1.752,-1.454 -3.99,-2.317 -6.435,-2.317 -5.512,0 -10.003,4.419 -10.107,9.916 -1.45,-0.805 -3.122,-1.263 -4.897,-1.263 -5.591,0 -10.123,4.528 -10.123,10.11 0,0.769 0.087,1.501 0.246,2.222 -0.709,-0.167 -1.45,-0.255 -2.206,-0.255 -4.054,0 -7.535,2.389 -9.151,5.823 -1.832,-2.585 -4.842,-4.281 -8.251,-4.281 -4.244,0 -7.861,2.616 -9.375,6.311 -1.736,-3.065 -5.032,-5.145 -8.808,-5.145 -4.825,0 -8.863,3.385 -9.875,7.909 -1.793,-1.652 -4.189,-2.68 -6.843,-2.68 -5.583,0 -10.114,4.536 -10.114,10.119 0,1.118 0.192,2.193 0.526,3.205 -0.581,-0.107 -1.179,-0.172 -1.784,-0.172 -5.591,0 -10.122,4.537 -10.122,10.124 0,1.975 0.581,3.814 1.553,5.363 -5.122,0.506 -9.127,4.822 -9.127,10.075 0,3.807 2.109,7.116 5.215,8.848 -3.106,1.729 -5.215,5.037 -5.215,8.849 0,4.694 3.226,8.644 7.574,9.776 -1.035,1.035 -5.241,5.28 -6.141,6.566 -1.044,1.454 -2.35,5.408 0.111,9.943 2.071,3.831 6.683,1.76 6.683,1.76 0,0 4.563,-2.341 9.486,-8.366 0.087,2.011 0.286,3.846 0.548,5.535 -2.11,2.083 -3.433,4.974 -3.433,8.191 0,6.352 5.154,11.505 11.516,11.505 1.076,0 2.119,-0.156 3.115,-0.434 9.094,7.498 20.921,9.827 20.921,9.827 0,0 -5.191,0.964 -8.107,3.035 -2.715,1.92 -3.408,4.918 -1.99,7.984 1.417,3.078 5.375,4.457 7.597,2.723 1.236,1.656 1.267,4.764 0.845,8.646 6.148,3.265 5.527,8.784 5.527,8.784 0,0 -4.986,1.891 -2.837,7.184 2,4.917 5.106,3.034 7.376,2.456 44.64,-16.206 85.758,-14.509 85.758,-14.509 38.157,-1.844 81.744,12.249 84.771,13.663 2.923,1.385 6.148,1.466 6.148,1.466 0,0 1.871,0.039 4.108,-3.879 1.832,-4.528 -1.05,-6.34 -4.962,-7.989 1.618,-3.683 3.529,-5.291 5.377,-6.334 1.848,-1.036 2.461,-0.801 2.23,-3.301 -0.463,-4.529 -0.383,-7.175 -0.383,-7.175 0,0 0,-0.388 1.607,0.421 2.653,1.231 5.146,-0.421 6.763,-3.075 1.608,-2.651 0,-6.139 -1.234,-6.948 -1.219,-0.807 -5.375,-2.839 -8.411,-3.875 10.936,-1.852 14.05,-4.158 22.301,-9.322 0.358,0.044 0.717,0.06 1.075,0.06 6.363,0 11.523,-5.157 11.523,-11.508 0,-3.05 -1.195,-5.822 -3.13,-7.876 0.111,-0.645 0.231,-1.143 0.367,-1.414 0.35,-0.765 0.691,-4.07 0.691,-4.07 0,0 5.385,5.074 7.6,7.292 2.229,2.234 7.15,0.932 8.751,-1.604 1.005,-1.582 0.924,-5.882 -0.229,-8.108 -1.143,-2.23 -4.29,-6.57 -5.668,-7.717"
   id="path37"
   inkscape:connector-curvature="0" />
		<path
   d="m 417.256,148.126 c 0,0 0.071,-5.722 1.601,-8.864 1.544,-3.15 2.763,-5.157 4.96,-5.3 2.176,-0.155 6.452,1.19 9.94,4.213 3.496,3.042 7.526,8.49 7.526,8.49 0,0 2.335,3.376 0.725,5.221 -1.609,1.843 -2.915,3.771 -5.798,1.5 -2.875,-2.265 -7.525,-7.566 -7.525,-7.566 0,0 -1.729,-2.759 -2.524,-1.378 -0.813,1.378 -1.307,5.448 -1.307,5.448 0,0 0.383,1.457 -2.614,0.649 -2.995,-0.795 -5.224,-0.568 -4.984,-2.413"
   id="path39"
   inkscape:connector-curvature="0"
   style="fill:#ffd700" />
		<path
   d="m 296.431,20.477 v -6.833 l 4.818,-0.055 0.071,6.841 h 6.627 l 0.039,5.156 -6.602,0.111 v 15.546 c 0,0 3.751,3.074 5.367,4.078 1.616,0.996 2.541,0.936 2.326,1.987 -0.222,1.011 -1.561,2.847 -2.828,2.613 -1.258,-0.232 -4.141,-3.222 -7.598,-3.111 -3.949,0.116 -6.562,3.266 -6.562,3.266 0,0 -0.852,0.578 -1.618,-0.155 -0.756,-0.729 -1.759,-2.115 -1.759,-3.111 -0.159,-1.604 5.272,-1.955 7.757,-5.256 0,-2.039 0.071,-15.586 0.071,-15.586 h -6.563 v -5.491 h 6.454 z"
   id="path41"
   inkscape:connector-curvature="0"
   style="fill:#ffd700" />
		<path
   d="m 191.885,153.311 c 0,0 -4.03,0.383 -5.025,-3.074 -0.494,-1.616 -1.618,-2.95 -0.153,-5.523 1.458,-2.576 3.418,-4.575 5.831,-5.028 2.421,-0.466 3.425,-1.004 5.033,-0.653 1.609,0.35 6.021,2.951 5.688,7.331 -0.16,2.576 -1.96,3.572 -1.96,3.572 0,0 -1.928,-0.04 -1.769,-0.996 0.153,-0.967 -0.047,-3.882 -1.153,-3.735 -1.116,0.163 -1.116,2.115 -1.116,3.417 0,1.313 0,3.686 -5.376,4.689"
   id="path43"
   inkscape:connector-curvature="0"
   style="fill:#ffd700" />
		<path
   d="m 193.039,162.259 c 0,0 -1.153,-4.763 -0.341,-6.029 0.804,-1.263 1.959,-2.079 3.416,-2.421 1.457,-0.342 1.959,-0.764 2.763,0.196 0.797,0.963 1.45,2.114 2.111,1.612 0.653,-0.501 0.19,-2.118 0,-2.771 -0.192,-0.646 1.154,-2.266 2.261,-2.266 1.116,0 2.621,2.465 2.922,3.572 0.304,1.115 1.26,5.496 -0.994,7.953 -2.271,2.452 -7.916,4.375 -12.138,0.154"
   id="path45"
   inkscape:connector-curvature="0"
   style="fill:#ffd700" />
		<path
   d="m 219.027,143.48 c 0,0 -1.84,1.003 -2.525,1.159 -0.693,0.147 -1.538,-0.39 -2.381,-3.532 -0.845,-2.927 -0.312,-5.917 0.455,-6.762 0.771,-0.844 1.385,-2.15 3.997,-2.15 2.604,0 4.444,0 4.833,0.537 0.382,0.537 5.456,6.379 5.456,6.379 0,0 0.153,1.604 0,2.608 -0.151,0.996 -0.079,1.76 -1.074,1.76 -1.003,0 -5.225,-0.143 -5.767,-0.143 -0.533,0 -1.146,-2.923 -1.609,-3.616 -0.461,-0.693 -0.533,-1.541 -1.536,-0.996 -0.996,0.542 -0.072,3.532 0.229,4.07 0.304,0.543 0.232,0.543 -0.078,0.686"
   id="path47"
   inkscape:connector-curvature="0"
   style="fill:#ffd700" />
		<path
   d="m 219.105,145.785 c 0,0 -1.457,0.311 -1.999,1.159 -0.533,0.841 -0.764,2.676 -0.836,3.449 -0.079,0.769 -1.075,3.918 2.142,6.145 3.226,2.226 3.377,1.386 5.233,1.457 1.833,0.084 5.288,-0.772 6.826,-1.923 1.537,-1.151 2.621,-3.222 2.621,-3.222 0,0 -3.577,-4.723 -3.927,-6.216 -0.231,-1.004 -0.382,-0.919 -0.996,-1.004 -0.613,-0.071 -4.523,0 -4.523,0 0,0 -0.629,1.079 -0.542,2.155 0.072,1.079 -0.31,2.457 -1.075,2.457 -0.764,0 -1.235,-2.07 -1.235,-2.839 0,-0.769 0.312,-2 -1.689,-1.618"
   id="path49"
   inkscape:connector-curvature="0"
   style="fill:#ffd700" />
		<path
   d="m 225.096,131.199 c 0,0 -0.694,-2.381 0.621,-5.759 1.227,-3.113 3.298,-3.838 4.444,-4.296 1.162,-0.474 2.612,-0.474 3.766,-0.155 1.155,0.302 2.142,1.377 2.142,1.377 0,0 0.168,2.764 0.231,3.306 0.081,0.537 -1.068,0.692 -1.76,0.609 -0.692,-0.072 -1.346,0.578 -0.996,1.461 0.383,0.996 2.837,0.849 2.837,0.849 0,0 0.079,1.604 0.079,2.919 0,1.306 -0.079,2.453 -0.079,2.453 0,0 -3.529,1.609 -4.914,3.532 -0.542,0.538 -2.07,-0.609 -2.533,-1.15 -0.461,-0.539 -3.838,-3.31 -3.838,-5.146"
   id="path51"
   inkscape:connector-curvature="0"
   style="fill:#ffd700" />
		<path
   d="m 238.38,125.744 0.231,-3.066 c 0,0 0.542,-1.076 1.999,-1.843 1.457,-0.773 2.676,-1.151 3.296,-0.857 0.614,0.319 5.687,3.313 6.3,5.611 0.151,1.003 -0.15,1.462 -0.613,2.31 -0.461,0.841 -4.691,6.213 -4.691,6.213 0,0 -0.765,1.461 -1.378,1.159 -0.612,-0.311 -3.377,-1.542 -4.371,-1.542 -0.614,-0.912 -0.614,-0.537 -0.614,-1.915 0,-1.378 0.072,-2.995 0.072,-2.995 0,0 0.732,-0.765 1.536,-0.92 1.378,-0.311 1.688,-0.458 1.688,-1.23 0,-1.08 -0.151,-1.08 -0.923,-0.924 -0.765,0.154 -2.15,0.922 -2.532,-0.001"
   id="path53"
   inkscape:connector-curvature="0"
   style="fill:#ffd700" />
		<path
   d="m 186.054,171.314 3.409,-2.612 c 0,0 9.414,6.754 18.517,6.754 9.087,0 19.647,-8.1 24.14,-14.623 1.807,-2.608 2.612,-3.993 2.612,-3.993 0,0 0.43,-2.218 2.342,-2.218 2.612,0 3.337,-0.116 4.722,-0.116 1.378,0 3.034,2.756 3.034,2.756 0,0 8.952,9.796 22.611,9.102 13.665,-0.692 21.544,-11.165 21.544,-11.165 l 4.3,-4.42 c 0,0 0.796,-1.573 2.341,-1.417 1.521,0.147 2.836,0.609 4.795,0.465 1.959,-0.167 4.039,-0.581 4.986,-0.167 0.963,0.426 9.254,11.747 14.638,13.671 5.375,1.923 14.471,5.495 24.132,0.537 9.685,-4.95 12.456,-9.103 12.456,-9.103 0,0 1.065,-0.92 2.443,-0.538 1.395,0.394 4.421,0.697 4.421,0.697 0,0 0.956,0.534 1.378,1.652 0.431,1.112 10.259,15.853 21.272,17.391 12.448,1.8 20.85,-3.617 20.85,-3.617 0,0 2.031,-2.412 3.306,-1.338 1.266,1.08 3.297,2.724 3.297,2.724 0,0 1.267,0.542 -0.813,1.648 -2.07,1.12 -9.134,6.801 -22.643,6.801 -13.515,0 -24.577,-13.089 -27.181,-16.7 -1.068,-1.119 -0.964,-1.688 -3.448,-1.541 -2.51,0.155 -2.23,0.155 -4.158,2.078 -1.918,1.916 -9.357,6.639 -16.278,6.216 -10.442,-0.458 -20.684,-0.963 -20.684,-0.963 0,0 -10.058,-6.639 -13.936,-12.014 -1.116,-1.494 -2.12,-1.494 -4.159,-1.378 -2.875,0.115 -3.759,0 -4.984,1.493 -1.576,1.968 -7.829,8.873 -14.592,11.899 -4.261,0.538 -19.503,1.198 -23.494,1.768 -2.915,-0.653 -10.64,-4.141 -14.359,-8.131 -0.693,-0.813 -0.916,-0.968 -1.767,-0.968 -0.837,0 -1.577,-0.147 -2.375,0 -0.803,0.155 -8.871,10.715 -14.357,14.475 -2.654,0.808 -11.285,3.727 -14.05,4.842 -2.922,-0.12 -12.137,-0.08 -23.455,-7.558 -1.385,-1.273 -0.813,-2.389 -0.813,-2.389"
   id="path55"
   inkscape:connector-curvature="0"
   style="fill:#ffd700" />
		<path
   d="m 246.137,136.65 c 0,0 1.918,1.768 2.373,3.222 0.469,1.457 0.382,1.314 1.473,1.23 1.067,-0.084 4.675,-0.084 4.675,-0.084 0,0 1.609,-1.986 1.77,-3.217 0.149,-1.226 -0.383,-3.607 1.002,-3.607 1.378,0 1.688,1.227 1.601,2.529 -0.071,1.306 -0.996,2.839 0.232,2.994 1.225,0.156 1.839,-0.537 2.689,-3.688 0.837,-3.137 0.535,-6.057 -2.763,-7.9 -3.304,-1.844 -3.918,-1.461 -5.837,-1.079 -1.92,0.385 -4.15,4.451 -5.144,5.988 -1.004,1.542 -2.533,3.218 -2.071,3.612"
   id="path57"
   inkscape:connector-curvature="0"
   style="fill:#ffd700" />
		<path
   d="m 247.896,149.468 c 0,0 1.657,-4.412 1.848,-5.829 0.152,-0.924 0.613,-0.542 1.529,-0.621 0.932,-0.072 4.148,-0.458 4.148,-0.458 0,0 1.006,0.848 1.155,1.688 0.146,0.848 1.075,1.377 2.071,1.003 1.004,-0.391 0.382,-2.537 0.311,-3.23 -0.07,-0.693 1.004,-1.377 1.928,-0.995 0.906,0.382 1.457,3.376 1.378,5.531 -0.087,2.143 -0.923,4.826 -3.688,5.838 -2.763,0.989 -6.68,0.614 -10.68,-2.927"
   id="path59"
   inkscape:connector-curvature="0"
   style="fill:#ffd700" />
		<path
   d="m 238.459,136.033 c 2.494,-0.075 8.212,0.195 8.522,8.298 0.192,6.292 -4.229,8.435 -7.828,8.435 -3.617,0 -8.14,-2.143 -8.14,-8.595 0,-6.442 4.524,-8.058 7.446,-8.138"
   id="path61"
   inkscape:connector-curvature="0"
   style="fill:#ffd700" />
		<path
   d="m 299.879,131.119 c 2.501,-0.071 8.22,0.195 8.522,8.295 0.199,6.295 -4.221,8.438 -7.829,8.438 -3.608,0 -8.14,-2.143 -8.14,-8.586 10e-4,-6.45 4.532,-8.067 7.447,-8.147"
   id="path63"
   inkscape:connector-curvature="0"
   style="fill:#ffd700" />
		<path
   d="m 277.158,137.801 c 0,0 -1.929,-2.839 -1.466,-6.223 0.461,-3.377 1.695,-4.445 3.154,-5.146 1.457,-0.685 4.683,-0.53 5.526,0 0.845,0.538 3.074,4.452 3.535,4.843 0.463,0.386 2.605,2.457 2.605,2.457 0,0 0.852,0.462 0.159,2.15 -0.693,1.689 -0.764,2.147 -0.764,2.147 0,0 -0.24,0.39 -2.001,-0.076 -1.775,-0.462 -3.847,-0.693 -3.847,-0.693 0,0 -1.528,-0.307 -1.688,-1.529 -0.151,-1.234 -0.533,-2.54 -1.228,-3.149 -0.684,-0.622 -2.229,-0.312 -2.07,0.458 0.152,0.765 1.155,2.843 1.228,3.456 0.078,0.614 -0.534,1.076 -1.005,1.076 -0.449,-0.002 -1.756,0.229 -2.138,0.229"
   id="path65"
   inkscape:connector-curvature="0"
   style="fill:#ffd700" />
		<path
   d="m 277.851,140.103 c 0,0 -1.083,3.07 -0.852,5.606 0.238,2.533 2.237,6.033 5.836,6.762 5.227,1.107 5.185,-0.466 6.834,-1.545 1.537,-0.996 2.994,-2.835 2.994,-2.835 0,0 0.455,-0.693 -0.311,-1.617 -0.755,-0.919 -1.76,-4.07 -2.07,-5.145 -0.303,-1.066 -0.797,-1.11 -2.07,-1.226 -1.457,-0.151 -3.608,-0.227 -3.608,-0.227 0,0 -0.62,0.996 -0.765,2.226 -0.15,1.235 -0.31,2.457 -1.386,2.537 -1.066,0.075 -1.307,-1 -0.994,-1.696 0.301,-0.685 0.454,-2.764 0.301,-3.066 -0.149,-0.315 -1.146,-0.772 -2.142,-0.466 -1.003,0.31 -1.767,0.692 -1.767,0.692"
   id="path67"
   inkscape:connector-curvature="0"
   style="fill:#ffd700" />
		<path
   d="m 292.935,132.35 c -1.147,0.848 -4.341,-3.066 -4.65,-4.763 -0.304,-1.688 -0.797,-4.981 0.229,-7.021 1.043,-2.031 2.653,-3.416 4.309,-3.802 1.648,-0.383 3.146,-0.578 4.294,-0.08 1.162,0.505 2.372,0.88 2.372,2.226 0,1.346 -0.104,2.764 -0.104,2.764 0,0 -0.382,0.932 -1.106,0.31 -0.732,-0.613 -2.461,-1.119 -2.461,-0.497 0,0.617 0,2.38 1.106,2.567 1.116,0.188 1.729,-0.538 1.849,1.003 0.103,1.533 -0.311,4.225 -0.311,4.225 0,0 -2.693,0.344 -5.527,3.068"
   id="path69"
   inkscape:connector-curvature="0"
   style="fill:#ffd700" />
		<path
   d="m 300.803,129.048 0.121,-4.296 c 0,0 0.835,-0.928 1.654,-0.809 0.798,0.115 1.92,-0.195 1.92,-0.195 0,0 0.462,-2.454 -0.701,-2.454 -1.146,0 -1.688,-0.35 -1.767,-1.771 -0.08,-1.417 0.382,-2.724 1.846,-3.138 1.459,-0.434 4.039,-0.434 5.76,1.41 1.728,1.845 3.003,3.572 3.073,4.492 0.071,0.924 -0.541,1.119 -1.346,2.154 -0.804,1.036 -4.794,6.069 -4.794,6.069 0,0 -0.343,0.693 -0.653,0.375 -0.652,-0.61 -4.198,-1.761 -5.113,-1.837"
   id="path71"
   inkscape:connector-curvature="0"
   style="fill:#ffd700" />
		<path
   d="m 308.17,132.656 c 0,0 2.079,2.652 2.27,3.572 0.192,0.919 -0.112,1.19 1.106,1.111 1.234,-0.076 5.034,-0.076 5.034,-0.076 0,0 0.805,-0.653 0.805,-1.461 0,-0.805 -0.224,-2.991 1.233,-3.684 1.466,-0.693 1.839,-0.231 1.96,1.843 0.111,2.071 -0.344,3.301 0.796,3.186 1.172,-0.111 2.691,-2.15 2.691,-3.376 0,-1.231 0.169,-6.26 -2.069,-7.988 -2.223,-1.732 -4.38,-1.537 -5.616,-1.537 -1.217,0 -4.635,3.074 -5.431,4.301 -0.811,1.231 -3.305,3.186 -2.779,4.109"
   id="path73"
   inkscape:connector-curvature="0"
   style="fill:#ffd700" />
		<path
   d="m 309.293,145.323 c 0,0 1.146,-2.763 1.339,-4.909 0.079,-1.115 0.62,-0.813 1.655,-0.813 1.035,0 4.715,-0.115 4.715,-0.115 0,0 0.996,0.809 0.996,1.843 0,1.043 0.852,1.769 1.959,1.159 1.114,-0.613 0.732,-3.079 0.732,-3.079 0,0 0.382,-0.959 1.307,-0.835 0.923,0.111 1.656,2.218 1.656,4.296 0,2.07 -2.07,6.638 -5.958,6.754 -3.87,0.112 -7.605,-2.839 -8.401,-4.301"
   id="path75"
   inkscape:connector-curvature="0"
   style="fill:#ffd700" />
		<path
   d="m 362.533,136.033 c 2.501,-0.075 8.228,0.195 8.522,8.298 0.199,6.292 -4.213,8.435 -7.829,8.435 -3.608,0 -8.131,-2.143 -8.131,-8.595 10e-4,-6.442 4.523,-8.058 7.438,-8.138"
   id="path77"
   inkscape:connector-curvature="0"
   style="fill:#ffd700" />
		<path
   d="m 353.749,149.468 c 0,0 -2.946,4.38 -7.71,3.875 -4.763,-0.489 -6.617,-5.439 -6.499,-6.486 0.12,-1.036 0.231,-3.644 1.067,-4.412 0.86,-0.764 1.275,-0.836 1.856,-0.569 0.581,0.262 0.692,1.413 0.581,1.991 -0.12,0.569 -0.319,1.533 0.646,1.645 0.947,0.115 1.528,-1.947 1.528,-2.6 0,-0.649 1.083,-0.156 2.541,0.107 1.457,0.271 4.795,0.505 4.795,0.505 0,0 0.12,4.679 1.195,5.944"
   id="path79"
   inkscape:connector-curvature="0"
   style="fill:#ffd700" />
		<path
   d="m 353.176,141.066 -5.918,-0.653 c 0,0 -1.299,-0.351 -1.219,-1.919 0.063,-1.582 0.063,-3.692 -1.272,-3.692 -1.348,0 -1.962,1.347 -1.833,2.307 0.104,0.956 0.867,2.994 -0.59,2.799 -1.465,-0.187 -2.229,-2.417 -2.413,-4.91 -0.199,-2.497 1.297,-6.38 2.915,-6.949 1.608,-0.578 4.103,-0.661 5.574,-0.188 1.45,0.454 4.484,4.142 4.938,4.911 0.463,0.764 1.658,1.915 1.658,1.915 0,0 1.138,1.657 -0.113,3.492 -1.264,1.844 -1.457,1.995 -1.727,2.887"
   id="path81"
   inkscape:connector-curvature="0"
   style="fill:#ffd700" />
		<path
   d="m 357.587,134.998 -4.73,-6.949 c 0,0 -1.018,-2.226 0.701,-4.257 1.729,-2.039 2.765,-2.807 3.641,-3.189 0.883,-0.382 1.583,-0.351 2.73,-0.271 1.154,0.076 2.572,1.12 2.883,1.804 0.303,0.692 0.463,2.847 0.184,3.313 -0.263,0.454 -1.338,0.375 -2.493,0.375 -1.146,0 -1.146,0.888 -0.573,1.457 0.573,0.581 2.572,1.337 3.066,1.533 0.511,0.196 0.511,4.456 0.312,5.687 -1.349,-0.117 -4.829,0.684 -5.721,0.497"
   id="path83"
   inkscape:connector-curvature="0"
   style="fill:#ffd700" />
		<path
   d="m 365.648,133.803 0.19,-3.715 c 0,0 0.158,-1.274 1.233,-1.274 1.076,0 2.224,0.084 2.224,-1.458 0,-1.532 -0.494,-1.413 -1.459,-1.532 -0.954,-0.116 -2.342,0.608 -2.229,-1.151 0.128,-1.772 0.541,-2.88 1.777,-3.19 1.225,-0.302 3.759,-0.454 4.904,0 1.147,0.458 3.067,2.764 3.769,4.03 0.692,1.27 1.065,3.767 0.963,5.415 -0.128,1.657 -1.664,3.528 -2.621,4.572 -0.963,1.032 -1.839,2.067 -1.839,2.067 0,0 -1.306,1.27 -2.103,0.123 -1.091,-1.545 -2.621,-2.54 -3.774,-3.118 -0.646,-0.458 -1.035,-0.769 -1.035,-0.769"
   id="path85"
   inkscape:connector-curvature="0"
   style="fill:#ffd700" />
		<path
   d="m 372.251,139.908 6.027,-6.554 c 0,0 1.228,-1.275 4.021,-1.087 2.819,0.199 5.105,1.735 5.425,3.188 0.311,1.462 0.837,3.572 0.088,6.109 -0.781,2.537 -1.234,2.302 -1.234,2.302 0,0 -0.899,0.992 -2.23,0.306 -1.339,-0.692 -1.339,-1.537 -1.339,-1.537 0,0 1.569,-1.381 1.641,-2.341 0.08,-0.956 -0.382,-1.422 -0.954,-1.609 -0.574,-0.195 -2.263,1.15 -2.726,2.683 -0.461,1.542 -0.317,1.844 -1.839,1.844 -1.538,0 -5.385,0.351 -5.385,0.351 0,0 -0.532,0.147 -0.612,-1.119 -0.079,-1.262 -0.223,-2.03 -0.883,-2.536"
   id="path87"
   inkscape:connector-curvature="0"
   style="fill:#ffd700" />
		<path
   d="m 370.066,152.583 c 0,0 2.302,-2.918 3.178,-5.921 0.399,-0.952 0.894,-0.841 1.467,-0.841 0.573,0 3.758,0.199 3.758,0.199 0,0 0.933,0.88 0.845,2.032 -0.078,1.146 -0.078,2.421 0.885,2.493 0.964,0.08 1.728,-0.841 1.728,-2.493 0,-1.648 -0.311,-2.302 0.581,-2.23 0.87,0.084 2.606,0.542 2.796,1.235 0.192,0.692 1.61,3.333 0,6.905 -1.607,3.571 -3.145,4.878 -6.723,4.495 -3.56,-0.387 -4.643,-0.531 -8.515,-5.874"
   id="path89"
   inkscape:connector-curvature="0"
   style="fill:#ffd700" />
		<path
   d="m 396.245,147.855 c 0,0 -1.153,-4.99 1.155,-6.98 2.302,-1.999 3.912,-2.692 6.371,-2.38 2.452,0.31 6.603,2.834 7.758,5.073 1.146,2.218 1.306,3.831 1.306,3.831 0,0 -0.159,1.541 -1.074,2.382 -0.925,0.84 -2.605,2.301 -2.994,2.987 -0.382,0.7 -0.925,1.082 -1.307,0.772 -0.383,-0.303 -3.688,-2.608 -4.381,-2.835 -0.686,-0.239 -1.92,-0.311 -1.61,-1.235 0.305,-0.919 0.99,-3.759 0.694,-4.221 -0.31,-0.458 -0.23,-0.844 -1.146,-0.692 -0.933,0.158 -1.547,1.684 -1.77,2.532 -0.238,0.848 -0.391,2.31 -0.693,2.155 -0.309,-0.158 -2.086,-0.922 -2.309,-1.389"
   id="path91"
   inkscape:connector-curvature="0"
   style="fill:#ffd700" />
		<path
   d="m 395.481,150.469 c 0,0 -2.382,4.224 -2.31,7.291 0.079,3.074 2.31,5.456 3.774,5.838 1.441,0.39 3.217,0.39 3.983,0.31 0.779,-0.079 4.22,-0.848 4.992,-2.536 0.766,-1.688 0.542,-2.307 0.542,-3.15 0,-0.836 0.773,-2.525 -0.542,-3.301 -1.306,-0.768 -4.068,-1.533 -4.522,-1.688 -0.47,-0.155 -1.236,0.387 -1.547,1.23 -0.302,0.84 -0.995,0.924 -1.688,0.694 -0.693,-0.236 -1.146,-1.23 -0.765,-2.004 0.385,-0.761 1.994,-2.613 -1.917,-2.684"
   id="path93"
   inkscape:connector-curvature="0"
   style="fill:#ffd700" />
		<path
   d="m 201.218,194.737 c 0,0 -2.619,1.337 -3.997,-1.115 -1.378,-2.457 -0.917,-4.069 0.62,-5.221 1.538,-1.15 8.372,-3.687 8.372,-3.687 0,0 32.516,-13.782 92.679,-13.667 70.323,0.155 101.654,16.585 101.654,16.585 0,0 3.225,1.999 2.15,4.146 -0.996,1.995 -2.414,3.766 -5.607,2.225 -3.496,-1.607 -33.505,-16.589 -98.357,-16.198 -71.486,0.419 -97.514,16.932 -97.514,16.932"
   id="path95"
   inkscape:connector-curvature="0"
   style="fill:#ffd700" />
		<path
   d="m 211.198,222.532 c 0,0 -2.46,1.573 -3.456,-1.345 -0.885,-2.573 -0.455,-3.385 0.923,-4.529 1.385,-1.159 7.367,-3.148 7.367,-3.148 0,0 29.141,-14.321 82.74,-13.596 62.669,0.924 91.915,16.278 91.915,16.278 0,0 1.721,2.07 0.764,4.225 -0.692,1.461 -2.579,2.154 -4.229,1.573 -3.951,-1.303 -33.401,-14.466 -88.49,-14.701 -47.3,-0.498 -87.534,15.243 -87.534,15.243"
   id="path97"
   inkscape:connector-curvature="0"
   style="fill:#ffd700" />
		<path
   d="m 360.924,100.748 0.487,-0.382 -0.463,-0.343 c -2.579,-1.828 -4.276,-4.814 -4.276,-8.215 0,-3.309 1.601,-6.229 4.045,-8.079 -3.829,-1.446 -6.57,-5.129 -6.57,-9.47 0,-0.633 0.072,-1.254 0.176,-1.867 -0.932,0.294 -1.936,0.45 -2.971,0.45 -5.566,0 -10.075,-4.487 -10.114,-10.031 -1.347,0.653 -2.859,1.036 -4.451,1.036 -5.065,0 -9.254,-3.727 -9.997,-8.586 -1.734,1.394 -3.925,2.223 -6.314,2.223 -4.691,0 -8.633,-3.187 -9.771,-7.519 -0.502,0.549 -2.788,2.994 -5.702,5.335 1.776,1.574 3.495,3.72 4.036,4.563 1.769,0 17.355,-0.031 25.805,6.3 8.435,6.334 18.421,15.582 19.99,36.32 0.19,1.951 0.358,11.437 0.358,11.437 0,0 -0.691,3.146 0.185,3.838 0.882,0.694 2.994,0.53 2.994,0.53 l 1.186,-1.171 c -2.182,-1.863 -3.575,-4.619 -3.575,-7.708 -0.003,-3.696 1.996,-6.889 4.942,-8.661"
   id="path99"
   inkscape:connector-curvature="0"
   style="fill:#ffd700" />
		<path
   d="m 426.2,130.582 c -0.16,0.04 -0.319,0.092 -0.455,0.155 -1.568,0.888 -2.452,0.382 -3.687,1.613 0,-3.882 1.607,-15.625 -4.373,-25.45 -5.989,-9.828 -12.822,-13.213 -20.198,-14.59 -7.366,-1.386 -19.654,-0.693 -19.654,-0.693 0,0 -0.653,-3.875 -1.386,-5.447 -0.344,-0.737 -0.471,-1.855 -0.525,-2.832 0.111,2.126 3.799,2.079 6.101,2.079 3.232,0 6.115,-1.525 7.963,-3.898 1.577,3.548 5.122,6.021 9.238,6.021 2.167,0 4.174,-0.685 5.807,-1.835 1.409,3.891 5.121,6.662 9.493,6.662 0.821,0 1.601,-0.108 2.356,-0.287 -0.445,1.143 -0.699,2.381 -0.699,3.68 0,5.261 4.013,9.581 9.149,10.071 -0.779,1.437 -1.225,3.082 -1.225,4.83 0,3.994 2.332,7.447 5.709,9.083 -2.436,1.852 -4.021,4.763 -4.021,8.056 0,0.962 0.151,1.901 0.407,2.782"
   id="path101"
   inkscape:connector-curvature="0"
   style="fill:#ffd700" />
		<path
   d="m 169.999,120.017 c 3.034,-1.744 5.089,-5.018 5.089,-8.76 0,-1.979 -0.572,-3.815 -1.553,-5.372 5.122,-0.506 9.127,-4.822 9.127,-10.07 0,-1.119 -0.199,-2.198 -0.533,-3.202 0.581,0.1 1.17,0.167 1.784,0.167 4.833,0 8.863,-3.385 9.874,-7.913 1.8,1.656 4.198,2.684 6.843,2.684 4.235,0 7.867,-2.617 9.372,-6.311 1.736,3.074 5.025,5.145 8.809,5.145 1.33,0 2.597,-0.279 3.761,-0.749 l 1.894,0.351 c -1.504,1.712 -2.436,3.93 -2.5,6.375 l -7.526,-0.398 c 0,0 1.577,-0.155 0.542,-0.155 -1.035,0 -9.684,0.342 -12.63,1.035 -2.962,0.694 -10.912,4.38 -14.941,7.909 -4.03,3.533 -6.673,8.068 -8.06,14.551 -1.378,6.49 -0.693,17.042 -0.693,17.042 -1.513,-0.382 -3.027,-0.135 -4.269,0.263 0.454,-1.134 0.701,-2.366 0.701,-3.664 0,-3.758 -2.062,-7.028 -5.097,-8.772"
   id="path103"
   inkscape:connector-curvature="0"
   style="fill:#ffd700" />
		<path
   d="m 289.431,50.769 c -1.093,4.404 -5.064,7.673 -9.813,7.673 -2.445,0 -4.69,-0.856 -6.435,-2.306 -0.987,4.564 -5.034,7.972 -9.883,7.972 -1.778,0 -3.449,-0.453 -4.898,-1.27 -0.112,5.495 -4.588,9.923 -10.107,9.923 -0.758,0 -1.505,-0.087 -2.214,-0.251 0.16,0.709 0.247,1.45 0.247,2.21 0,4.895 -3.464,8.972 -8.083,9.916 2.396,1.852 3.951,4.747 3.951,8 0,3.468 -1.744,6.526 -4.405,8.354 3.01,1.545 5.113,4.571 5.417,8.112 l 0.174,-4.32 c 0,0 -0.303,-20.381 10.912,-30.56 11.213,-10.17 20.69,-12.436 20.69,-12.436 l 15.443,-2.114 c 0,0 1.567,-3.643 3.137,-5.065 -1.482,-1.011 -2.828,-2.632 -4.133,-3.838"
   id="path105"
   inkscape:connector-curvature="0"
   style="fill:#ffd700" />
		<path
   d="m 242.864,111.822 c -0.581,3.138 -2.62,5.774 -5.384,7.168 0,0 -1.219,0.164 0.43,0.537 1.648,0.372 3.019,-0.179 4.142,-1.15 1.122,-0.968 0.843,-2.071 0.843,-2.071 l 0.312,-7.208 -0.343,2.724 z"
   id="path107"
   inkscape:connector-curvature="0"
   style="fill:#ffd700" />
		<path
   d="m 175.629,161.519 c 0,3.145 2.558,5.702 5.703,5.702 3.154,0 5.711,-2.557 5.711,-5.702 0,-3.15 -2.558,-5.703 -5.711,-5.703 -3.145,0 -5.703,2.553 -5.703,5.703"
   id="path109"
   inkscape:connector-curvature="0"
   style="fill:#ffd700" />
		<path
   d="m 411.775,160.842 c 0,3.145 2.549,5.71 5.695,5.71 3.152,0 5.71,-2.565 5.71,-5.71 0,-3.15 -2.558,-5.703 -5.71,-5.703 -3.146,0 -5.695,2.552 -5.695,5.703"
   id="path111"
   inkscape:connector-curvature="0"
   style="fill:#ffd700" />
		<path
   d="m 289.702,100.751 c 0,-3.791 2.277,-7.036 5.534,-8.482 -4.087,-1.497 -7.009,-5.403 -7.009,-10.018 0,-4.675 3.012,-8.637 7.183,-10.09 -3.472,-1.395 -5.931,-4.779 -5.931,-8.762 0,-0.445 0.038,-0.888 0.103,-1.318 -1.291,0.096 -2.223,0.219 -2.556,0.398 -0.996,0.498 -3.266,5.75 -3.536,21.961 -0.271,16.191 0.166,22.495 5.574,29.516 0.415,0.311 1.297,-2.919 3.68,-5.105 0.413,-0.123 0.795,-0.234 1.171,-0.342 -2.534,-1.656 -4.213,-4.508 -4.213,-7.758"
   id="path113"
   inkscape:connector-curvature="0"
   style="fill:#ffd700" />
		<path
   d="m 311.745,61.982 c 0,0 -1.393,-0.032 -3.521,-0.075 0.081,0.489 0.128,0.987 0.128,1.493 0,3.982 -2.461,7.371 -5.934,8.769 4.174,1.449 7.184,5.416 7.184,10.078 0,4.583 -2.89,8.482 -6.937,10 3.274,1.425 5.576,4.699 5.576,8.505 0,3.449 -1.896,6.452 -4.691,8.056 1.959,0.888 3.759,2.357 4.548,4.38 0.541,1.385 1.928,1.963 1.928,1.963 0,0 5.749,-9.139 5.599,-26.679 -0.151,-17.554 -3.88,-26.49 -3.88,-26.49"
   id="path115"
   inkscape:connector-curvature="0"
   style="fill:#ffd700" />
		<path
   d="m 291.646,114.817 c 0,0 1.504,-4.739 6.354,-4.97 6.165,-0.283 7.574,3.058 7.574,3.058 l 1.084,1.78 c 0,0 -4.898,-0.637 -7.854,-0.816 -2.771,-0.171 -5.775,1.167 -7.158,0.948"
   id="path117"
   inkscape:connector-curvature="0"
   style="fill:#ffd700" />
		<path
   d="m 346.072,198.723 13.977,-6.215 -12.76,-7.448 -13.961,5.688 12.744,7.975 z m -46.526,-2.342 13.427,-7.292 -13.277,-6.45 -13.482,6.762 13.332,6.98 z m -46.426,2.155 13.055,-7.984 -13.596,-5.758 -13.124,7.446 13.665,6.296 z m -48.525,-2.923 c 0,0 35.01,-16.39 97.123,-15.698 64.431,0.733 91.765,14.973 92.228,15.439 0.461,0.458 0.31,1.027 -0.231,1.604 -3.879,0.199 -14.018,0.613 -14.439,0.809 -0.535,0.231 9.056,9.672 9.056,9.672 0,0 1.003,0.693 0.31,1.773 -0.685,1.074 -0.996,1.767 -1.227,2.224 -0.23,0.455 -0.311,0.912 -1.147,0.623 -1.074,-0.395 -28.646,-13.981 -87.19,-13.981 -58.546,0 -88.267,15.12 -88.267,15.12 0,0 -0.837,0.382 -1.068,-1.457 -0.621,-1.378 -0.844,-2.23 -0.844,-2.23 0,0 -0.16,-0.454 0.765,-1.146 0.924,-0.693 9.685,-8.988 9.685,-8.988 0,0 0.725,-1.223 -0.47,-1.376 -1.306,-0.156 -14.049,-0.614 -14.049,-0.614 0,0 -1.382,-1.232 -0.235,-1.774"
   id="path119"
   inkscape:connector-curvature="0"
   style="fill:#ffd700" />
		<path
   d="m 228.44,175.734 9.828,-10.023 c 0,0 0.804,-1.612 1.84,-1.417 1.027,0.188 5.335,3.456 6.753,4.484 1.426,1.036 5.344,2.878 5.344,2.878 0,0 -19.663,2.235 -23.765,4.078"
   id="path121"
   inkscape:connector-curvature="0"
   style="fill:#ff0010" />
		<path
   d="m 285.567,169.204 c 0,0 9.979,-8.562 11.438,-10.023 1.457,-1.454 1.457,-1.036 2.69,-1.036 1.229,0 3.641,-0.219 4.07,2.039 0.382,1.991 9.637,8.792 9.637,8.792 0,0 -26.839,0.041 -27.835,0.228"
   id="path123"
   inkscape:connector-curvature="0"
   style="fill:#ff0010" />
		<path
   d="m 348.413,171.239 c 0,0 8.021,-4.918 9.438,-6.14 1.424,-1.231 0.812,-1.004 2.046,-0.809 1.226,0.2 4.674,5.531 6.332,6.762 1.648,1.223 4.945,4.484 4.945,4.484 0,0 -18.277,-3.457 -22.761,-4.297"
   id="path125"
   inkscape:connector-curvature="0"
   style="fill:#ff0010" />
		<path
   d="m 180.448,125.477 c 0,0 -0.04,8.442 0.081,9.446 0.111,0.995 3.296,6.49 3.838,8.749 0.534,2.27 0.111,2.349 0.111,2.349 0,0 0.845,-3.994 2.876,-5.682 2.038,-1.696 3.575,-2.808 6.411,-3.385 2.852,-0.569 7.113,0.124 8.338,1.47 1.228,1.338 4.023,5.137 3.034,10.202 2.142,2.454 3.457,3.727 3.8,7.41 0.343,3.688 -0.463,5.643 -2.685,7.985 -2.238,2.341 -7.757,4.42 -12.257,1.584 -1.577,-0.466 -1.68,-0.581 -1.68,-0.581 0,0 -1.769,1.883 -0.542,2.567 1.234,0.693 7.988,5.758 16.278,5.416 8.299,-0.342 13.244,-2.723 23.343,-14.403 -0.231,-0.757 -0.542,-0.848 -1.346,-0.422 -0.797,0.422 -5.178,3.034 -8.411,1.999 -2.525,-0.808 -9.143,-0.916 -6.753,-13.586 -3.035,-3.804 -3.346,-7.447 -2.916,-10.138 0.422,-2.685 1.609,-5.914 5.074,-6.257 3.448,-0.35 6.362,0.685 6.362,0.685 0,0 -1.878,-8.211 5.066,-11.01 -3.376,-2.227 -5.981,-3.612 -6.523,-8.873 -0.533,-5.251 3.608,-8.294 3.608,-8.294 0,0 -0.192,-1.302 -1.227,-1.107 -1.042,0.187 -8.378,0.039 -15.737,9.401 -5.375,6.865 -13.213,6.865 -13.213,6.865 0,0 -5.447,0.549 -11.938,5.264 -2.8,2.04 -2.992,2.346 -2.992,2.346"
   id="path127"
   inkscape:connector-curvature="0"
   style="fill:#ff0010" />
		<path
   d="m 245.173,99.566 c 0,0 -0.726,4.615 -0.924,9.783 -0.184,5.188 -0.614,7.227 0.622,8.566 1.225,1.346 5.375,1.955 7.214,6.709 0.614,0.538 1.426,0.203 2.573,-0.116 1.147,-0.298 6.181,0.395 8.441,4.544 2.263,4.145 -0.111,8.864 -0.723,10.13 0.31,0.653 -0.033,0.618 0.382,1.769 0.62,1.608 1.267,0.995 1.267,6.06 0.039,2.648 -2.04,7.985 -8.562,7.682 -5.025,-0.235 -6.364,-1.923 -6.364,-1.923 l -2.158,-1.222 c 0,0 -0.845,0.111 -1.155,0.653 -0.303,0.533 -0.884,1.27 0.542,2.421 1.426,1.146 5.718,9.442 20.619,9.517 12.479,0.112 19.073,-9.485 19.073,-9.485 0,0 -3.686,-0.032 -5.867,-0.849 -2.191,-0.8 -5.457,-4.838 -5.267,-8.132 0.192,-3.301 0.614,-4.38 1.228,-6.411 -1.45,-1.653 -2.452,-4.42 -2.452,-7.721 0,-3.306 1.225,-5.034 3.072,-6.483 1.842,-1.461 3.801,-1.035 4.836,-1.15 1.034,-0.116 2.955,0.569 4.57,1.532 -0.087,-1.648 -0.923,-5.686 2.565,-8.864 -2.898,-2.349 -6.594,-8.529 -7.208,-16.474 -0.614,-7.952 -0.422,-14.435 -0.422,-14.435 0,0 -3.496,-0.848 -7.104,1.533 -3.616,2.382 -8.179,6.989 -10.448,8.141 -2.263,1.159 -7.52,4.033 -13.819,4.141 -4.3,-0.108 -4.531,0.084 -4.531,0.084"
   id="path129"
   inkscape:connector-curvature="0"
   style="fill:#ff0010" />
		<path
   d="m 318.125,85.432 c 0,0 0.645,21.922 -6.037,30.217 -0.189,0.88 1.506,3.914 1.77,4.373 0.277,0.466 0.612,2.265 1.114,2.265 0.502,0 5.152,-0.146 7.263,1.16 2.103,1.302 3.489,4.025 3.688,8.139 0.184,4.101 -1.688,6.024 -1.688,6.024 0,0 1.416,2.414 1.416,3.906 0,1.502 -0.779,5.727 -2.269,7.105 -1.498,1.385 -2.925,2.421 -6.491,2.615 -3.575,0.191 -6.802,-2.265 -6.802,-2.265 l -1.218,-0.228 c 0,0 8.162,14.817 23.765,15.012 15.585,0.187 22.499,-10.676 22.499,-10.676 0,0 -0.271,-1.581 -1.234,-0.959 -0.957,0.609 -4.611,3.146 -6.643,3.146 -2.039,0 -5.981,0.083 -8.942,-4.99 -1.307,-2.115 -0.623,-7.064 -0.623,-7.064 0,0 0.813,-1.987 1.769,-2.803 -0.692,-0.956 -1.529,-4.64 -1.417,-7.104 0.111,-2.457 0.653,-4.878 3.759,-6.793 2.197,-1.377 5.264,-1.072 5.264,-1.072 l 3.641,0.845 c 0,0 -0.415,-3.074 3.927,-6.308 -1.235,-1.138 -2.311,-1.106 -2.572,-2.95 -0.264,-1.836 0,-9.33 0,-11.09 0,-1.76 -0.264,-6.216 -1.498,-6.566 -1.418,-0.155 -7.718,0.235 -11.285,-2.07 -3.576,-2.306 -12.83,-9.06 -14.217,-10.139 -1.373,-1.077 -6.34,-1.614 -6.939,-1.73"
   id="path131"
   inkscape:connector-curvature="0"
   style="fill:#ff0010" />
		<path
   d="m 373.636,102.747 c 0,0 5.718,10.528 -1.538,14.941 -1.266,0.342 -1.919,1.454 -1.919,1.454 0,0 3.959,-0.653 6.442,3.186 2.518,3.843 2.151,6.451 2.049,8.139 1.337,-0.112 6.092,-0.538 8.131,0.693 2.031,1.227 3.958,4.487 3.958,7.335 0,2.834 -3.066,7.713 -3.066,7.713 0,0 0.686,3.799 0.454,6.224 -0.081,1.417 -1.761,5.216 -5.074,7.144 -3.298,1.916 -8.744,0.653 -10.791,-1.043 -2.031,-1.697 -3.941,-4.527 -3.941,-4.527 0,0 -1.347,-0.084 -1.123,0.808 0.237,0.88 0.237,2.142 4.188,6.562 3.942,4.413 7.304,10.552 18.351,10.979 11.054,0.422 17.623,-4.763 17.623,-4.763 0,0 0.773,-1.803 0.232,-2.497 -0.534,-0.685 -1.005,-1.035 -1.562,-0.685 -0.59,0.343 -3.202,1.951 -6.468,1.728 -5.757,-0.422 -7.677,-2.887 -8.29,-5.878 -0.533,-2.691 -0.079,-6.1 0.382,-7.717 0.773,-2.692 2.693,-3.3 2.693,-3.3 0,0 -1.92,-7.029 2.26,-10.521 4.183,-3.492 8.604,-1.573 8.604,-1.573 0,0 3.719,0.693 4.983,2.031 1.275,1.354 3.154,2.919 3.849,5.534 0.684,2.605 0.461,2.498 0.461,2.498 0,0 1.146,-1.111 1.267,-1.812 0.111,-0.686 -0.383,-5.567 0.421,-7.487 0.805,-1.915 2.151,-1.456 2.494,-5.984 0.341,-4.536 0.278,-7.104 -0.766,-7.797 -1.042,-0.685 -9.826,-5.985 -15.051,-7.028 -5.226,-1.027 -6.611,0.04 -10.219,-3.601 -3.6,-3.643 -5.797,-8.84 -13.811,-10.871 -4.299,-0.765 -5.223,0.115 -5.223,0.115"
   id="path133"
   inkscape:connector-curvature="0"
   style="fill:#ff0010" />
		<polygon
   points="253.169,196.282 243.03,191.909 252.396,186.531 262.606,190.524 "
   id="polygon135"
   style="fill:#012971" />
		<polygon
   points="345.14,196.513 335.853,190.87 345.832,186.76 355.422,192.053 "
   id="polygon137"
   style="fill:#012971" />
		<path
   d="m 204.947,198.975 c 0,0 0.542,3.22 0,4.607 -0.081,0.692 0.542,1.297 0.542,1.297 0.382,0.463 2.612,1.923 2.763,2.306 0.923,-0.53 8.21,-7.909 8.21,-7.909 0,0 -9.517,-0.458 -11.515,-0.301"
   id="path139"
   inkscape:connector-curvature="0"
   style="fill:#ff0010" />
		<polygon
   points="299.663,194.136 289.796,189.258 299.433,184.391 309.411,188.915 "
   id="polygon141"
   style="fill:#ff0010" />
		<path
   d="m 381.887,198.839 8.45,7.987 c 0,0 1.457,-1.306 2.691,-2.146 1.227,-0.849 2.223,-0.92 1.601,-2.919 -0.614,-1.999 -0.773,-3.305 -0.773,-3.305 l -11.969,0.383 z"
   id="path143"
   inkscape:connector-curvature="0"
   style="fill:#ff0010" />
		<path
   d="m 440.758,125.27 c 0,-2.242 -1.823,-4.053 -4.056,-4.053 -2.236,0 -4.051,1.812 -4.051,4.053 0,2.234 1.814,4.054 4.051,4.054 2.233,-0.001 4.056,-1.821 4.056,-4.054"
   id="path145"
   inkscape:connector-curvature="0"
   style="fill:#ffffff" />
		<path
   d="m 439.086,108.33 c 0,-2.234 -1.824,-4.055 -4.054,-4.055 -2.238,0 -4.054,1.821 -4.054,4.055 0,2.233 1.815,4.054 4.054,4.054 2.23,0 4.054,-1.821 4.054,-4.054"
   id="path147"
   inkscape:connector-curvature="0"
   style="fill:#ffffff" />
		<path
   d="m 431.544,93.05 c 0,-2.234 -1.817,-4.054 -4.063,-4.054 -2.229,0 -4.045,1.82 -4.045,4.054 0,2.242 1.815,4.054 4.045,4.054 2.246,0 4.063,-1.812 4.063,-4.054"
   id="path149"
   inkscape:connector-curvature="0"
   style="fill:#ffffff" />
		<path
   d="m 418.298,79.802 c 0,-2.234 -1.823,-4.05 -4.054,-4.05 -2.245,0 -4.054,1.815 -4.054,4.05 0,2.234 1.809,4.054 4.054,4.054 2.231,0 4.054,-1.82 4.054,-4.054"
   id="path151"
   inkscape:connector-curvature="0"
   style="fill:#ffffff" />
		<path
   d="m 402.624,75.011 c 0,-2.233 -1.814,-4.054 -4.054,-4.054 -2.236,0 -4.054,1.82 -4.054,4.054 0,2.242 1.817,4.063 4.054,4.063 2.24,0 4.054,-1.821 4.054,-4.063"
   id="path153"
   inkscape:connector-curvature="0"
   style="fill:#ffffff" />
		<path
   d="m 385.167,73.451 c 0,-2.242 -1.815,-4.054 -4.054,-4.054 -2.239,0 -4.054,1.812 -4.054,4.054 0,2.238 1.815,4.054 4.054,4.054 2.239,0 4.054,-1.817 4.054,-4.054"
   id="path155"
   inkscape:connector-curvature="0"
   style="fill:#ffffff" />
		<path
   d="m 370.967,90.184 c 0,-2.234 -1.824,-4.055 -4.054,-4.055 -2.237,0 -4.054,1.82 -4.054,4.055 0,2.233 1.816,4.054 4.054,4.054 2.23,-0.001 4.054,-1.821 4.054,-4.054"
   id="path157"
   inkscape:connector-curvature="0"
   style="fill:#ffffff" />
		<path
   d="m 369.423,108.557 c 0,-2.234 -1.824,-4.054 -4.054,-4.054 -2.239,0 -4.054,1.82 -4.054,4.054 0,2.234 1.814,4.054 4.054,4.054 2.23,-0.001 4.054,-1.82 4.054,-4.054"
   id="path159"
   inkscape:connector-curvature="0"
   style="fill:#ffffff" />
		<path
   d="m 368.45,71.81 c 0,-2.234 -1.815,-4.055 -4.054,-4.055 -2.239,0 -4.054,1.821 -4.054,4.055 0,2.242 1.815,4.054 4.054,4.054 2.239,0 4.054,-1.812 4.054,-4.054"
   id="path161"
   inkscape:connector-curvature="0"
   style="fill:#ffffff" />
		<path
   d="m 355.805,60.887 c 0,-2.242 -1.817,-4.054 -4.056,-4.054 -2.237,0 -4.054,1.812 -4.054,4.054 0,2.234 1.816,4.054 4.054,4.054 2.238,0 4.056,-1.82 4.056,-4.054"
   id="path163"
   inkscape:connector-curvature="0"
   style="fill:#ffffff" />
		<path
   d="m 341.803,51.732 c 0,-2.234 -1.815,-4.054 -4.054,-4.054 -2.229,0 -4.054,1.819 -4.054,4.054 0,2.242 1.824,4.054 4.054,4.054 2.238,0 4.054,-1.811 4.054,-4.054"
   id="path165"
   inkscape:connector-curvature="0"
   style="fill:#ffffff" />
		<path
   d="m 325.468,45.854 c 0,-2.234 -1.823,-4.053 -4.054,-4.053 -2.238,0 -4.054,1.819 -4.054,4.053 0,2.238 1.815,4.054 4.054,4.054 2.231,0 4.054,-1.815 4.054,-4.054"
   id="path167"
   inkscape:connector-curvature="0"
   style="fill:#ffffff" />
		<path
   d="m 282.892,45.301 c 0,-2.234 -1.815,-4.054 -4.054,-4.054 -2.23,0 -4.054,1.819 -4.054,4.054 0,2.235 1.823,4.054 4.054,4.054 2.238,0 4.054,-1.819 4.054,-4.054"
   id="path169"
   inkscape:connector-curvature="0"
   style="fill:#ffffff" />
		<path
   d="m 265.067,51.406 c 0,-2.238 -1.815,-4.054 -4.054,-4.054 -2.229,0 -4.045,1.816 -4.045,4.054 0,2.234 1.815,4.054 4.045,4.054 2.239,-10e-4 4.054,-1.82 4.054,-4.054"
   id="path171"
   inkscape:connector-curvature="0"
   style="fill:#ffffff" />
		<path
   d="m 250.565,59.943 c 0,-2.23 -1.815,-4.049 -4.054,-4.049 -2.239,0 -4.054,1.819 -4.054,4.049 0,2.237 1.815,4.054 4.054,4.054 2.239,0 4.054,-1.816 4.054,-4.054"
   id="path173"
   inkscape:connector-curvature="0"
   style="fill:#ffffff" />
		<path
   d="m 238.57,71.937 c 0,-2.242 -1.815,-4.054 -4.045,-4.054 -2.239,0 -4.054,1.812 -4.054,4.054 0,2.234 1.815,4.054 4.054,4.054 2.23,0 4.045,-1.82 4.045,-4.054"
   id="path175"
   inkscape:connector-curvature="0"
   style="fill:#ffffff" />
		<path
   d="m 222.117,73.064 c 0,-2.233 -1.817,-4.054 -4.046,-4.054 -2.237,0 -4.054,1.82 -4.054,4.054 0,2.234 1.817,4.054 4.054,4.054 2.229,0 4.046,-1.82 4.046,-4.054"
   id="path177"
   inkscape:connector-curvature="0"
   style="fill:#ffffff" />
		<path
   d="m 203.815,74.116 c 0,-2.234 -1.815,-4.049 -4.053,-4.049 -2.239,0 -4.054,1.815 -4.054,4.049 0,2.242 1.814,4.054 4.054,4.054 2.238,-0.001 4.053,-1.812 4.053,-4.054"
   id="path179"
   inkscape:connector-curvature="0"
   style="fill:#ffffff" />
		<path
   d="m 237.48,91.771 c 0,-2.233 -1.823,-4.054 -4.054,-4.054 -2.238,0 -4.053,1.821 -4.053,4.054 0,2.242 1.815,4.055 4.053,4.055 2.231,0 4.054,-1.812 4.054,-4.055"
   id="path181"
   inkscape:connector-curvature="0"
   style="fill:#ffffff" />
		<path
   d="m 237.48,108.625 c 0,-2.242 -1.823,-4.054 -4.054,-4.054 -2.238,0 -4.053,1.812 -4.053,4.054 0,2.233 1.815,4.054 4.053,4.054 2.231,0 4.054,-1.821 4.054,-4.054"
   id="path183"
   inkscape:connector-curvature="0"
   style="fill:#ffffff" />
		<path
   d="m 293.428,52.035 c 0,0 2.541,-2.808 5.225,-2.847 2.883,-0.032 5.608,2.617 5.608,2.617 0,0 -1.005,1.999 -5.329,2.106 -4.34,0.123 -5.504,-1.876 -5.504,-1.876"
   id="path185"
   inkscape:connector-curvature="0"
   style="fill:#ffffff" />
		<path
   d="m 294.592,33.908 v 6.802 c 0,0 -0.894,1.377 -6.229,3.875 0.128,-2.338 0,-9.442 6.229,-10.677"
   id="path187"
   inkscape:connector-curvature="0"
   style="fill:#ffffff" />
		<path
   d="m 303.185,33.908 v 6.615 c 0,0 0.892,1.565 6.211,4.062 -0.103,-2.338 0,-9.442 -6.211,-10.677"
   id="path189"
   inkscape:connector-curvature="0"
   style="fill:#ffffff" />
		<path
   d="m 306.37,63.308 c 0,-4.141 -3.361,-7.51 -7.511,-7.51 -4.15,0 -7.51,3.369 -7.51,7.51 0,4.154 3.359,7.515 7.51,7.515 4.15,-10e-4 7.511,-3.361 7.511,-7.515"
   id="path191"
   inkscape:connector-curvature="0"
   style="fill:#ffffff" />
		<path
   d="m 306.14,100.788 c 0,-4.018 -3.257,-7.283 -7.28,-7.283 -4.021,0 -7.287,3.265 -7.287,7.283 0,4.022 3.267,7.284 7.287,7.284 4.023,-0.001 7.28,-3.262 7.28,-7.284"
   id="path193"
   inkscape:connector-curvature="0"
   style="fill:#ffffff" />
		<path
   d="m 307.39,82.14 c 0,-4.715 -3.815,-8.53 -8.53,-8.53 -4.716,0 -8.529,3.814 -8.529,8.53 0,4.709 3.813,8.529 8.529,8.529 4.714,0 8.53,-3.819 8.53,-8.529"
   id="path195"
   inkscape:connector-curvature="0"
   style="fill:#ffffff" />
		<path
   d="m 156.914,147.855 c 0,0 5.679,-7.211 9.558,-9.827 3.879,-2.608 6.179,-3.947 8.601,-3.417 2.42,0.538 5.336,4.193 6.14,6.762 0.813,2.568 1.005,6.75 1.005,6.75 0,0 0.301,0.852 -1.195,1.385 -1.498,0.542 -2.612,0.502 -4.373,1.422 -1.76,0.919 -2.04,1.27 -2.04,1.27 0,0 -0.612,-6.686 -1.187,-7.224 -0.572,-0.538 -0.772,-0.342 -1.697,0.39 -0.915,0.733 -5.829,6.834 -7.397,7.869 -1.577,1.04 -4.158,3.377 -5.847,1.649 -1.688,-1.728 -2.221,-5.726 -1.568,-7.029"
   id="path197"
   inkscape:connector-curvature="0"
   style="fill:#ffd700" />
		<path
   d="m 186.596,79.145 c 0,-2.233 -1.814,-4.054 -4.045,-4.054 -2.238,0 -4.054,1.82 -4.054,4.054 0,2.242 1.815,4.055 4.054,4.055 2.23,-0.001 4.045,-1.814 4.045,-4.055"
   id="path199"
   inkscape:connector-curvature="0"
   style="fill:#ffffff" />
		<path
   d="m 173.694,93.5 c 0,-2.234 -1.824,-4.054 -4.053,-4.054 -2.239,0 -4.054,1.82 -4.054,4.054 0,2.234 1.814,4.054 4.054,4.054 2.23,0 4.053,-1.819 4.053,-4.054"
   id="path201"
   inkscape:connector-curvature="0"
   style="fill:#ffffff" />
		<path
   d="m 166.463,108.636 c 0,-2.233 -1.815,-4.054 -4.054,-4.054 -2.238,0 -4.053,1.82 -4.053,4.054 0,2.234 1.815,4.054 4.053,4.054 2.239,0 4.054,-1.819 4.054,-4.054"
   id="path203"
   inkscape:connector-curvature="0"
   style="fill:#ffffff" />
		<path
   d="m 164.91,127.38 c 0,-2.233 -1.824,-4.054 -4.054,-4.054 -2.238,0 -4.054,1.82 -4.054,4.054 0,2.242 1.815,4.054 4.054,4.054 2.23,0 4.054,-1.812 4.054,-4.054"
   id="path205"
   inkscape:connector-curvature="0"
   style="fill:#ffffff" />
	</g>
</g>
</svg>