<?xml version="1.0" encoding="UTF-8" standalone="no"?>
<!-- Created with Inkscape (http://www.inkscape.org/) -->

<svg
   xmlns:dc="http://purl.org/dc/elements/1.1/"
   xmlns:cc="http://creativecommons.org/ns#"
   xmlns:rdf="http://www.w3.org/1999/02/22-rdf-syntax-ns#"
   xmlns:svg="http://www.w3.org/2000/svg"
   xmlns="http://www.w3.org/2000/svg"
   version="1.1"
   width="39"
   height="35"
   id="svg3166">
  <metadata
     id="metadata11">
    <rdf:RDF>
      <cc:Work
         rdf:about="">
        <dc:format>image/svg+xml</dc:format>
        <dc:type
           rdf:resource="http://purl.org/dc/dcmitype/StillImage" />
        <dc:title></dc:title>
      </cc:Work>
    </rdf:RDF>
  </metadata>
  <defs
     id="defs3168" />
  <g
     transform="matrix(1.0125823,0,0,1.0456521,-15.339697,-7.3120845)"
     id="g3021">
    <path
       d="m 109.5625,-55.40625 c -0.0802,0.04338 -0.13626,0.136037 -0.15625,0.1875 -0.02,0.05146 -0.0288,0.08634 -0.0313,0.125 -0.005,0.07732 0.0174,0.129805 0.0313,0.21875 0.0277,0.17789 0.0948,0.420545 0.1875,0.75 l -0.0313,0 c 0.19618,0.943803 0.35902,2.002204 0.25,2.96875 -0.10902,0.966546 -0.47528,1.812144 -1.25,2.46875 a 0.27160154,0.27160154 0 0 0 0,0.03125 c -1.15108,1.143343 -2.79734,1.716389 -4.40625,2.40625 -1.60891,0.689861 -3.20592,1.507507 -4.0625,3.21875 a 0.27160154,0.27160154 0 0 0 0,0.03125 c -0.731998,2.032866 -0.229122,4.577304 0.59375,7.0625 0.82287,2.485196 1.9818,4.919367 2.65625,6.65625 a 0.27160154,0.27160154 0 0 0 0,0.03125 c 0.0748,0.146848 0.0676,0.24032 -0.0313,0.40625 -0.0989,0.16593 -0.30286,0.362326 -0.59375,0.5625 -0.58179,0.400348 -1.48449,0.800264 -2.375,1.15625 -0.890511,0.355986 -1.784158,0.677379 -2.40625,0.9375 -0.311046,0.130061 -0.547052,0.246319 -0.71875,0.375 -0.08585,0.06434 -0.164949,0.131358 -0.1875,0.3125 -0.01127,0.09057 0.0098,0.187073 0.0625,0.25 0.05268,0.06293 0.101859,0.100476 0.15625,0.125 a 0.27160154,0.27160154 0 0 0 0.125,0.03125 c 2.90258,-0.03214 4.99852,-0.556647 6.3125,-1.4375 1.31398,-0.880853 1.80851,-2.175236 1.4375,-3.53125 -0.34512,-1.26142 -1.23557,-3.058426 -2.0625,-5.03125 -0.82693,-1.972824 -1.5625,-4.11799 -1.5625,-5.96875 0.0388,-1.34884 0.80584,-2.191214 1.875,-2.90625 1.06152,-0.709928 2.37928,-1.24338 3.46875,-1.84375 0.008,-0.0035 0.0232,0.0035 0.0313,0 1.27064,-0.562316 2.50469,-1.459873 3.34375,-2.59375 0.83277,-1.125376 1.25126,-2.514038 0.9375,-4 l 0.0313,0 c -5.1e-4,-0.01853 -0.03,-0.04341 -0.0313,-0.0625 -0.0313,-0.485925 -0.25713,-1.15107 -0.53125,-1.75 -0.14244,-0.311231 -0.30521,-0.601934 -0.4375,-0.8125 -0.0661,-0.105283 -0.11843,-0.177064 -0.1875,-0.25 -0.0345,-0.03647 -0.0639,-0.06087 -0.125,-0.09375 -0.0611,-0.03288 -0.19645,-0.094 -0.3125,-0.03125 z"
       transform="matrix(0.99977994,0.02097764,-0.0231523,1.1034219,-58.763207,65.966621)"
       id="path3901"
       style="fill:#ff6400;fill-opacity:1;stroke:none" />
    <path
       d="m 93.75,-55.0625 c -3.024185,0.07066 -6.310787,0.98468 -8.3125,3.40625 -1.91174,2.094397 -2.022889,5.312879 -0.71875,7.75 0.911396,1.852315 2.395701,3.856532 4.625,4.0625 1.876398,0.229588 3.939489,0.01716 5.5,-1.125 A 0.02209709,0.02209709 0 0 0 94.875,-41 c 0.04402,-0.05986 0.04787,-0.09934 0.03125,-0.15625 -0.01662,-0.05691 -0.07339,-0.119743 -0.125,-0.15625 -0.103219,-0.07301 -0.233899,-0.110097 -0.34375,-0.03125 -1.758157,0.303606 -3.795091,0.86674 -5.375,-0.25 -1.901671,-1.262007 -3.170035,-3.521343 -3.09375,-5.84375 0.03696,-2.318444 1.670091,-4.461166 3.875,-5.15625 2.88273,-0.949908 6.079822,-0.792685 8.90625,0.28125 2.15035,0.708181 4.13821,2.174731 6.5,2.09375 1.14545,-0.04268 2.19771,-0.892122 2.28125,-2.03125 0.004,-0.348351 0.0153,-0.794215 -0.0625,-1.1875 -0.0778,-0.393285 -0.26407,-0.747368 -0.65625,-0.90625 -0.10349,0.03196 -0.1577,0.110534 -0.1875,0.1875 -0.0298,0.07697 -0.0375,0.156778 -0.0313,0.25 0.0126,0.186444 0.0349,0.401707 -0.0313,0.53125 -0.067,0.461525 -0.29626,0.937813 -0.65625,1.25 -0.35999,0.312187 -0.84569,0.447342 -1.34375,0.28125 -2.58421,-0.667641 -4.835413,-2.249042 -7.46875,-2.8125 -1.093663,-0.26499 -2.217343,-0.410249 -3.34375,-0.40625 z"
       transform="matrix(0.99977994,0.02097764,-0.0231523,1.1034219,-61.050431,65.783361)"
       id="path3903"
       style="fill:#ff6400;fill-opacity:1;stroke:none" />
    <path
       d="M 84.0625,-45.34375 A 0.36298573,0.36298573 0 0 0 83.875,-45.25 c -1.32314,1.076294 -2.595337,1.916315 -3.8125,3.625 a 0.36298573,0.36298573 0 0 0 -0.03125,0.03125 c -1.825027,2.81707 -3.534705,6.160156 -2.875,9.71875 0.613405,3.762943 4.269306,6.378831 7.90625,6.84375 3.625788,0.413402 7.235862,0.285623 10.84375,0.03125 a 0.36298573,0.36298573 0 0 0 0.21875,-0.125 c 0.06968,-0.06598 0.126593,-0.147641 0.15625,-0.28125 0.02966,-0.133609 0.0086,-0.282728 -0.0625,-0.375 -0.142175,-0.184544 -0.304477,-0.23226 -0.46875,-0.28125 -0.328545,-0.09798 -0.773666,-0.142088 -1.28125,-0.1875 -1.015167,-0.09082 -2.264571,-0.150681 -2.96875,-0.25 a 0.36298573,0.36298573 0 0 0 -0.03125,0 c -3.427821,-0.380091 -7.006541,-0.471609 -9.8125,-2.375 l 0,0.03125 C 79.106337,-30.71229 78.757279,-34.441231 80,-37.1875 a 0.36298573,0.36298573 0 0 0 0,-0.03125 c 1.077322,-2.678753 2.672965,-5.279278 4.375,-7.53125 a 0.36298573,0.36298573 0 0 0 -0.3125,-0.59375 z"
       transform="matrix(0.99977994,0.02097764,-0.0231523,1.1034219,-62.617949,65.887901)"
       id="path3905"
       style="fill:#ff6400;fill-opacity:1;stroke:none" />
    <path
       d="m 93.65625,-33.4375 c -0.988888,0.02392 -2.005448,0.102134 -2.8125,0.1875 -0.403526,0.04268 -0.744597,0.07898 -1.03125,0.125 -0.286653,0.04602 -0.490716,0.09606 -0.65625,0.15625 A 0.37350923,0.37350923 0 0 0 89.25,-32.25 c 1.087585,0.0823 2.51034,0.07749 3.84375,0.1875 1.289985,0.106431 2.461736,0.353673 3.1875,0.8125 0.03265,0.08211 0.139954,0.44182 0.125,0.96875 -0.0159,0.560402 -0.107604,1.248281 -0.1875,1.9375 -0.0799,0.689219 -0.174486,1.378671 -0.21875,1.9375 -0.02213,0.279415 -0.0075,0.537838 0,0.75 0.0075,0.212162 -0.01719,0.384968 0.125,0.59375 a 0.37350923,0.37350923 0 0 0 0.21875,0.125 c 0.153859,0.04433 0.318431,0.03616 0.4375,-0.03125 0.119069,-0.06741 0.208392,-0.153421 0.28125,-0.25 0.145716,-0.193159 0.236046,-0.460242 0.34375,-0.75 0.215408,-0.579516 0.419059,-1.326667 0.5625,-2.15625 0.143441,-0.829583 0.251385,-1.723194 0.28125,-2.5 0.02987,-0.776806 -0.01358,-1.429873 -0.1875,-1.90625 -0.112724,-0.311355 -0.373022,-0.453561 -0.65625,-0.5625 -0.283228,-0.108939 -0.609868,-0.197677 -1,-0.25 -0.780264,-0.104647 -1.760983,-0.117677 -2.75,-0.09375 z"
       transform="matrix(0.99977994,0.02097764,-0.0231523,1.1034219,-60.801505,65.788591)"
       id="path3907"
       style="fill:#ff6400;fill-opacity:1;stroke:none" />
  </g>
</svg>
